<?xml version="1.0" encoding="utf-8" standalone="no"?>
<!DOCTYPE svg PUBLIC "-//W3C//DTD SVG 1.1//EN"
  "http://www.w3.org/Graphics/SVG/1.1/DTD/svg11.dtd">
<svg xmlns:xlink="http://www.w3.org/1999/xlink" width="710.938056pt" height="350.64pt" viewBox="0 0 710.938056 350.64" xmlns="http://www.w3.org/2000/svg" version="1.1">
 <metadata>
  <rdf:RDF xmlns:dc="http://purl.org/dc/elements/1.1/" xmlns:cc="http://creativecommons.org/ns#" xmlns:rdf="http://www.w3.org/1999/02/22-rdf-syntax-ns#">
   <cc:Work>
    <dc:type rdf:resource="http://purl.org/dc/dcmitype/StillImage"/>
    <dc:date>2023-05-16T15:05:53.040574</dc:date>
    <dc:format>image/svg+xml</dc:format>
    <dc:creator>
     <cc:Agent>
      <dc:title>Matplotlib v3.7.0, https://matplotlib.org/</dc:title>
     </cc:Agent>
    </dc:creator>
   </cc:Work>
  </rdf:RDF>
 </metadata>
 <defs>
  <style type="text/css">*{stroke-linejoin: round; stroke-linecap: butt}</style>
 </defs>
 <g id="figure_1">
  <g id="patch_1">
   <path d="M 0 350.64 
L 710.938056 350.64 
L 710.938056 0 
L 0 0 
L 0 350.64 
z
" style="fill: none"/>
  </g>
  <g id="axes_1">
   <g id="patch_2">
    <path d="M 60.152188 275.820756 
L 588.346563 275.820756 
L 588.346563 39.670625 
L 60.152188 39.670625 
L 60.152188 275.820756 
z
" style="fill: none"/>
   </g>
   <g id="matplotlib.axis_1">
    <g id="xtick_1">
     <g id="line2d_1">
      <defs>
       <path id="m43e5ee72a8" d="M 0 0 
L 0 8 
" style="stroke: #7b7e85; stroke-width: 0.8"/>
      </defs>
      <g>
       <use xlink:href="#m43e5ee72a8" x="60.152187" y="275.820756" style="fill: #7b7e85; stroke: #7b7e85; stroke-width: 0.8"/>
      </g>
     </g>
     <g id="text_1">
      <!-- 2020-Jan -->
      <g style="fill: #7b7e85" transform="translate(35.747391 314.922448) rotate(-45) scale(0.09 -0.09)">
       <defs>
        <path id="Calibri-32" d="M 2888 231 
Q 2888 175 2880 131 
Q 2872 88 2858 58 
Q 2844 28 2820 14 
Q 2797 0 2769 0 
L 534 0 
Q 491 0 458 11 
Q 425 22 401 47 
Q 378 72 367 119 
Q 356 166 356 234 
Q 356 297 361 344 
Q 366 391 381 427 
Q 397 463 420 498 
Q 444 534 481 575 
L 1266 1406 
Q 1538 1694 1702 1922 
Q 1866 2150 1955 2337 
Q 2044 2525 2072 2678 
Q 2100 2831 2100 2966 
Q 2100 3100 2056 3220 
Q 2013 3341 1930 3431 
Q 1847 3522 1722 3575 
Q 1597 3628 1434 3628 
Q 1244 3628 1092 3575 
Q 941 3522 827 3459 
Q 713 3397 636 3344 
Q 559 3291 522 3291 
Q 500 3291 483 3303 
Q 466 3316 455 3344 
Q 444 3372 437 3419 
Q 431 3466 431 3531 
Q 431 3578 434 3612 
Q 438 3647 445 3672 
Q 453 3697 465 3719 
Q 478 3741 515 3773 
Q 553 3806 645 3862 
Q 738 3919 877 3973 
Q 1016 4028 1183 4065 
Q 1350 4103 1534 4103 
Q 1828 4103 2048 4020 
Q 2269 3938 2414 3794 
Q 2559 3650 2631 3459 
Q 2703 3269 2703 3053 
Q 2703 2859 2668 2667 
Q 2634 2475 2523 2251 
Q 2413 2028 2203 1754 
Q 1994 1481 1647 1125 
L 1006 456 
L 2766 456 
Q 2791 456 2814 442 
Q 2838 428 2855 400 
Q 2872 372 2880 330 
Q 2888 288 2888 231 
z
" transform="scale(0.015625)"/>
        <path id="Calibri-30" d="M 3022 2031 
Q 3022 1566 2948 1181 
Q 2875 797 2704 520 
Q 2534 244 2259 92 
Q 1984 -59 1581 -59 
Q 1200 -59 939 77 
Q 678 213 518 477 
Q 359 741 292 1127 
Q 225 1513 225 2013 
Q 225 2475 300 2861 
Q 375 3247 544 3523 
Q 713 3800 988 3951 
Q 1263 4103 1663 4103 
Q 2047 4103 2308 3967 
Q 2569 3831 2728 3567 
Q 2888 3303 2955 2917 
Q 3022 2531 3022 2031 
z
M 2472 1994 
Q 2472 2297 2450 2537 
Q 2428 2778 2386 2962 
Q 2344 3147 2276 3280 
Q 2209 3413 2115 3498 
Q 2022 3584 1901 3623 
Q 1781 3663 1631 3663 
Q 1366 3663 1200 3538 
Q 1034 3413 939 3194 
Q 844 2975 809 2681 
Q 775 2388 775 2050 
Q 775 1597 822 1280 
Q 869 963 970 763 
Q 1072 563 1230 472 
Q 1388 381 1613 381 
Q 1788 381 1920 437 
Q 2053 494 2148 598 
Q 2244 703 2306 850 
Q 2369 997 2406 1175 
Q 2444 1353 2458 1561 
Q 2472 1769 2472 1994 
z
" transform="scale(0.015625)"/>
        <path id="Calibri-2d" d="M 1744 1578 
Q 1744 1456 1716 1409 
Q 1688 1363 1634 1363 
L 328 1363 
Q 272 1363 244 1411 
Q 216 1459 216 1578 
Q 216 1697 244 1744 
Q 272 1791 328 1791 
L 1634 1791 
Q 1659 1791 1679 1781 
Q 1700 1772 1714 1745 
Q 1728 1719 1736 1678 
Q 1744 1638 1744 1578 
z
" transform="scale(0.015625)"/>
        <path id="Calibri-4a" d="M 1513 1019 
Q 1513 778 1469 578 
Q 1425 378 1319 237 
Q 1213 97 1039 20 
Q 866 -56 609 -56 
Q 522 -56 436 -42 
Q 350 -28 278 -4 
Q 206 19 153 45 
Q 100 72 83 90 
Q 66 109 55 128 
Q 44 147 36 173 
Q 28 200 25 239 
Q 22 278 22 334 
Q 22 403 26 448 
Q 31 494 43 520 
Q 56 547 73 558 
Q 91 569 116 569 
Q 141 569 180 545 
Q 219 522 273 494 
Q 328 466 400 442 
Q 472 419 569 419 
Q 675 419 750 445 
Q 825 472 875 544 
Q 925 616 950 742 
Q 975 869 975 1072 
L 975 3966 
Q 975 3988 987 4006 
Q 1000 4025 1031 4037 
Q 1063 4050 1114 4056 
Q 1166 4063 1244 4063 
Q 1319 4063 1372 4056 
Q 1425 4050 1454 4037 
Q 1484 4025 1498 4006 
Q 1513 3988 1513 3966 
L 1513 1019 
z
" transform="scale(0.015625)"/>
        <path id="Calibri-61" d="M 2597 75 
Q 2597 38 2572 19 
Q 2547 0 2503 -9 
Q 2459 -19 2375 -19 
Q 2294 -19 2245 -9 
Q 2197 0 2175 19 
Q 2153 38 2153 75 
L 2153 356 
Q 1969 159 1742 50 
Q 1516 -59 1263 -59 
Q 1041 -59 861 -1 
Q 681 56 554 165 
Q 428 275 358 434 
Q 288 594 288 797 
Q 288 1034 384 1209 
Q 481 1384 662 1500 
Q 844 1616 1106 1673 
Q 1369 1731 1697 1731 
L 2084 1731 
L 2084 1950 
Q 2084 2113 2050 2238 
Q 2016 2363 1939 2445 
Q 1863 2528 1741 2570 
Q 1619 2613 1441 2613 
Q 1250 2613 1098 2567 
Q 947 2522 833 2467 
Q 719 2413 642 2367 
Q 566 2322 528 2322 
Q 503 2322 484 2334 
Q 466 2347 452 2372 
Q 438 2397 431 2436 
Q 425 2475 425 2522 
Q 425 2600 436 2645 
Q 447 2691 489 2731 
Q 531 2772 634 2826 
Q 738 2881 872 2926 
Q 1006 2972 1165 3001 
Q 1325 3031 1488 3031 
Q 1791 3031 2003 2962 
Q 2216 2894 2347 2761 
Q 2478 2628 2537 2431 
Q 2597 2234 2597 1972 
L 2597 75 
z
M 2084 1359 
L 1644 1359 
Q 1431 1359 1275 1323 
Q 1119 1288 1016 1217 
Q 913 1147 864 1048 
Q 816 950 816 822 
Q 816 603 955 473 
Q 1094 344 1344 344 
Q 1547 344 1720 447 
Q 1894 550 2084 763 
L 2084 1359 
z
" transform="scale(0.015625)"/>
        <path id="Calibri-6e" d="M 2900 78 
Q 2900 53 2887 36 
Q 2875 19 2847 6 
Q 2819 -6 2769 -12 
Q 2719 -19 2644 -19 
Q 2566 -19 2516 -12 
Q 2466 -6 2437 6 
Q 2409 19 2396 36 
Q 2384 53 2384 78 
L 2384 1725 
Q 2384 1966 2346 2112 
Q 2309 2259 2237 2365 
Q 2166 2472 2052 2528 
Q 1938 2584 1788 2584 
Q 1594 2584 1400 2446 
Q 1206 2309 994 2044 
L 994 78 
Q 994 53 981 36 
Q 969 19 941 6 
Q 913 -6 863 -12 
Q 813 -19 734 -19 
Q 659 -19 609 -12 
Q 559 -6 529 6 
Q 500 19 489 36 
Q 478 53 478 78 
L 478 2891 
Q 478 2916 487 2933 
Q 497 2950 525 2964 
Q 553 2978 597 2983 
Q 641 2988 713 2988 
Q 781 2988 826 2983 
Q 872 2978 897 2964 
Q 922 2950 933 2933 
Q 944 2916 944 2891 
L 944 2519 
Q 1181 2784 1417 2907 
Q 1653 3031 1894 3031 
Q 2175 3031 2367 2936 
Q 2559 2841 2678 2681 
Q 2797 2522 2848 2308 
Q 2900 2094 2900 1794 
L 2900 78 
z
" transform="scale(0.015625)"/>
       </defs>
       <use xlink:href="#Calibri-32"/>
       <use xlink:href="#Calibri-30" x="50.683594"/>
       <use xlink:href="#Calibri-32" x="101.367188"/>
       <use xlink:href="#Calibri-30" x="152.050781"/>
       <use xlink:href="#Calibri-2d" x="202.734375"/>
       <use xlink:href="#Calibri-4a" x="233.349609"/>
       <use xlink:href="#Calibri-61" x="265.234375"/>
       <use xlink:href="#Calibri-6e" x="313.134766"/>
      </g>
     </g>
    </g>
    <g id="xtick_2">
     <g id="line2d_2">
      <g>
       <use xlink:href="#m43e5ee72a8" x="94.901817" y="275.820756" style="fill: #7b7e85; stroke: #7b7e85; stroke-width: 0.8"/>
      </g>
     </g>
     <g id="text_2">
      <!-- 2020-Mar -->
      <g style="fill: #7b7e85" transform="translate(68.210967 317.208502) rotate(-45) scale(0.09 -0.09)">
       <defs>
        <path id="Calibri-4d" d="M 4934 81 
Q 4934 56 4921 37 
Q 4909 19 4878 8 
Q 4847 -3 4798 -11 
Q 4750 -19 4672 -19 
Q 4600 -19 4548 -11 
Q 4497 -3 4467 8 
Q 4438 19 4425 37 
Q 4413 56 4413 81 
L 4413 3603 
L 4406 3603 
L 2966 66 
Q 2956 44 2939 28 
Q 2922 13 2889 2 
Q 2856 -9 2811 -14 
Q 2766 -19 2703 -19 
Q 2638 -19 2591 -12 
Q 2544 -6 2512 5 
Q 2481 16 2464 31 
Q 2447 47 2441 66 
L 1063 3603 
L 1059 3603 
L 1059 81 
Q 1059 56 1046 37 
Q 1034 19 1003 8 
Q 972 -3 922 -11 
Q 872 -19 794 -19 
Q 719 -19 669 -11 
Q 619 -3 589 8 
Q 559 19 548 37 
Q 538 56 538 81 
L 538 3800 
Q 538 3931 606 3987 
Q 675 4044 759 4044 
L 1084 4044 
Q 1184 4044 1259 4025 
Q 1334 4006 1390 3965 
Q 1447 3925 1484 3862 
Q 1522 3800 1550 3716 
L 2722 788 
L 2738 788 
L 3956 3706 
Q 3991 3800 4031 3865 
Q 4072 3931 4120 3970 
Q 4169 4009 4228 4026 
Q 4288 4044 4366 4044 
L 4706 4044 
Q 4753 4044 4795 4030 
Q 4838 4016 4867 3986 
Q 4897 3956 4915 3911 
Q 4934 3866 4934 3800 
L 4934 81 
z
" transform="scale(0.015625)"/>
        <path id="Calibri-72" d="M 2122 2706 
Q 2122 2638 2119 2591 
Q 2116 2544 2106 2517 
Q 2097 2491 2083 2477 
Q 2069 2463 2044 2463 
Q 2019 2463 1983 2477 
Q 1947 2491 1901 2505 
Q 1856 2519 1800 2531 
Q 1744 2544 1678 2544 
Q 1600 2544 1525 2512 
Q 1450 2481 1367 2409 
Q 1284 2338 1193 2219 
Q 1103 2100 994 1928 
L 994 78 
Q 994 53 981 36 
Q 969 19 941 6 
Q 913 -6 863 -12 
Q 813 -19 734 -19 
Q 659 -19 609 -12 
Q 559 -6 529 6 
Q 500 19 489 36 
Q 478 53 478 78 
L 478 2891 
Q 478 2916 487 2933 
Q 497 2950 525 2964 
Q 553 2978 597 2983 
Q 641 2988 713 2988 
Q 781 2988 826 2983 
Q 872 2978 897 2964 
Q 922 2950 933 2933 
Q 944 2916 944 2891 
L 944 2481 
Q 1059 2650 1161 2756 
Q 1263 2863 1353 2923 
Q 1444 2984 1533 3007 
Q 1622 3031 1713 3031 
Q 1753 3031 1804 3026 
Q 1856 3022 1912 3009 
Q 1969 2997 2014 2981 
Q 2059 2966 2078 2950 
Q 2097 2934 2103 2920 
Q 2109 2906 2114 2884 
Q 2119 2863 2120 2820 
Q 2122 2778 2122 2706 
z
" transform="scale(0.015625)"/>
       </defs>
       <use xlink:href="#Calibri-32"/>
       <use xlink:href="#Calibri-30" x="50.683594"/>
       <use xlink:href="#Calibri-32" x="101.367188"/>
       <use xlink:href="#Calibri-30" x="152.050781"/>
       <use xlink:href="#Calibri-2d" x="202.734375"/>
       <use xlink:href="#Calibri-4d" x="233.349609"/>
       <use xlink:href="#Calibri-61" x="318.847656"/>
       <use xlink:href="#Calibri-72" x="366.748047"/>
      </g>
     </g>
    </g>
    <g id="xtick_3">
     <g id="line2d_3">
      <g>
       <use xlink:href="#m43e5ee72a8" x="130.230608" y="275.820756" style="fill: #7b7e85; stroke: #7b7e85; stroke-width: 0.8"/>
      </g>
     </g>
     <g id="text_3">
      <!-- 2020-May -->
      <g style="fill: #7b7e85" transform="translate(102.877508 317.870752) rotate(-45) scale(0.09 -0.09)">
       <defs>
        <path id="Calibri-79" d="M 1759 0 
L 1384 -1034 
Q 1366 -1084 1289 -1111 
Q 1213 -1138 1056 -1138 
Q 975 -1138 925 -1130 
Q 875 -1122 848 -1103 
Q 822 -1084 819 -1053 
Q 816 -1022 834 -978 
L 1222 0 
Q 1194 13 1169 41 
Q 1144 69 1134 100 
L 131 2788 
Q 106 2853 106 2890 
Q 106 2928 131 2950 
Q 156 2972 212 2980 
Q 269 2988 363 2988 
Q 456 2988 509 2983 
Q 563 2978 594 2965 
Q 625 2953 639 2929 
Q 653 2906 669 2866 
L 1472 609 
L 1481 609 
L 2256 2878 
Q 2275 2938 2301 2955 
Q 2328 2972 2381 2980 
Q 2434 2988 2534 2988 
Q 2622 2988 2678 2980 
Q 2734 2972 2761 2950 
Q 2788 2928 2788 2890 
Q 2788 2853 2769 2797 
L 1759 0 
z
" transform="scale(0.015625)"/>
       </defs>
       <use xlink:href="#Calibri-32"/>
       <use xlink:href="#Calibri-30" x="50.683594"/>
       <use xlink:href="#Calibri-32" x="101.367188"/>
       <use xlink:href="#Calibri-30" x="152.050781"/>
       <use xlink:href="#Calibri-2d" x="202.734375"/>
       <use xlink:href="#Calibri-4d" x="233.349609"/>
       <use xlink:href="#Calibri-61" x="318.847656"/>
       <use xlink:href="#Calibri-79" x="366.748047"/>
      </g>
     </g>
    </g>
    <g id="xtick_4">
     <g id="line2d_4">
      <g>
       <use xlink:href="#m43e5ee72a8" x="165.559398" y="275.820756" style="fill: #7b7e85; stroke: #7b7e85; stroke-width: 0.8"/>
      </g>
     </g>
     <g id="text_4">
      <!-- 2020-Jul -->
      <g style="fill: #7b7e85" transform="translate(142.742609 313.334441) rotate(-45) scale(0.09 -0.09)">
       <defs>
        <path id="Calibri-75" d="M 2888 78 
Q 2888 53 2877 36 
Q 2866 19 2837 6 
Q 2809 -6 2764 -12 
Q 2719 -19 2653 -19 
Q 2581 -19 2536 -12 
Q 2491 -6 2464 6 
Q 2438 19 2428 36 
Q 2419 53 2419 78 
L 2419 450 
Q 2178 184 1943 62 
Q 1709 -59 1469 -59 
Q 1188 -59 995 34 
Q 803 128 684 289 
Q 566 450 514 664 
Q 463 878 463 1184 
L 463 2891 
Q 463 2916 473 2933 
Q 484 2950 515 2964 
Q 547 2978 597 2983 
Q 647 2988 722 2988 
Q 797 2988 847 2983 
Q 897 2978 926 2964 
Q 956 2950 968 2933 
Q 981 2916 981 2891 
L 981 1253 
Q 981 1006 1017 857 
Q 1053 709 1126 604 
Q 1200 500 1312 442 
Q 1425 384 1575 384 
Q 1769 384 1961 521 
Q 2153 659 2369 925 
L 2369 2891 
Q 2369 2916 2380 2933 
Q 2391 2950 2422 2964 
Q 2453 2978 2501 2983 
Q 2550 2988 2628 2988 
Q 2703 2988 2753 2983 
Q 2803 2978 2831 2964 
Q 2859 2950 2873 2933 
Q 2888 2916 2888 2891 
L 2888 78 
z
" transform="scale(0.015625)"/>
        <path id="Calibri-6c" d="M 994 78 
Q 994 53 981 36 
Q 969 19 941 6 
Q 913 -6 863 -12 
Q 813 -19 734 -19 
Q 659 -19 609 -12 
Q 559 -6 529 6 
Q 500 19 489 36 
Q 478 53 478 78 
L 478 4253 
Q 478 4278 489 4297 
Q 500 4316 529 4328 
Q 559 4341 609 4347 
Q 659 4353 734 4353 
Q 813 4353 863 4347 
Q 913 4341 941 4328 
Q 969 4316 981 4297 
Q 994 4278 994 4253 
L 994 78 
z
" transform="scale(0.015625)"/>
       </defs>
       <use xlink:href="#Calibri-32"/>
       <use xlink:href="#Calibri-30" x="50.683594"/>
       <use xlink:href="#Calibri-32" x="101.367188"/>
       <use xlink:href="#Calibri-30" x="152.050781"/>
       <use xlink:href="#Calibri-2d" x="202.734375"/>
       <use xlink:href="#Calibri-4a" x="233.349609"/>
       <use xlink:href="#Calibri-75" x="265.234375"/>
       <use xlink:href="#Calibri-6c" x="317.773438"/>
      </g>
     </g>
    </g>
    <g id="xtick_5">
     <g id="line2d_5">
      <g>
       <use xlink:href="#m43e5ee72a8" x="201.467349" y="275.820756" style="fill: #7b7e85; stroke: #7b7e85; stroke-width: 0.8"/>
      </g>
     </g>
     <g id="text_5">
      <!-- 2020-Sep -->
      <g style="fill: #7b7e85" transform="translate(176.050285 315.934716) rotate(-45) scale(0.09 -0.09)">
       <defs>
        <path id="Calibri-53" d="M 2709 1134 
Q 2709 850 2604 628 
Q 2500 406 2314 251 
Q 2128 97 1876 19 
Q 1625 -59 1334 -59 
Q 1131 -59 957 -25 
Q 784 9 648 59 
Q 513 109 420 162 
Q 328 216 292 253 
Q 256 291 239 348 
Q 222 406 222 503 
Q 222 572 228 617 
Q 234 663 246 691 
Q 259 719 278 730 
Q 297 741 322 741 
Q 366 741 445 687 
Q 525 634 650 571 
Q 775 509 951 454 
Q 1128 400 1359 400 
Q 1534 400 1679 447 
Q 1825 494 1929 580 
Q 2034 666 2090 791 
Q 2147 916 2147 1075 
Q 2147 1247 2069 1369 
Q 1991 1491 1862 1583 
Q 1734 1675 1570 1751 
Q 1406 1828 1234 1908 
Q 1063 1988 900 2084 
Q 738 2181 609 2312 
Q 481 2444 401 2620 
Q 322 2797 322 3044 
Q 322 3297 414 3495 
Q 506 3694 670 3828 
Q 834 3963 1061 4033 
Q 1288 4103 1550 4103 
Q 1684 4103 1820 4079 
Q 1956 4056 2076 4017 
Q 2197 3978 2290 3929 
Q 2384 3881 2414 3851 
Q 2444 3822 2453 3805 
Q 2463 3788 2469 3761 
Q 2475 3734 2478 3696 
Q 2481 3659 2481 3600 
Q 2481 3544 2476 3500 
Q 2472 3456 2462 3426 
Q 2453 3397 2436 3383 
Q 2419 3369 2397 3369 
Q 2363 3369 2289 3412 
Q 2216 3456 2109 3511 
Q 2003 3566 1858 3611 
Q 1713 3656 1531 3656 
Q 1363 3656 1238 3611 
Q 1113 3566 1031 3491 
Q 950 3416 909 3312 
Q 869 3209 869 3094 
Q 869 2925 947 2803 
Q 1025 2681 1154 2587 
Q 1284 2494 1450 2416 
Q 1616 2338 1787 2258 
Q 1959 2178 2125 2083 
Q 2291 1988 2420 1858 
Q 2550 1728 2629 1551 
Q 2709 1375 2709 1134 
z
" transform="scale(0.015625)"/>
        <path id="Calibri-65" d="M 2878 1606 
Q 2878 1484 2817 1432 
Q 2756 1381 2678 1381 
L 834 1381 
Q 834 1147 881 959 
Q 928 772 1037 637 
Q 1147 503 1322 431 
Q 1497 359 1750 359 
Q 1950 359 2106 392 
Q 2263 425 2377 465 
Q 2491 506 2564 539 
Q 2638 572 2675 572 
Q 2697 572 2714 561 
Q 2731 550 2740 528 
Q 2750 506 2754 467 
Q 2759 428 2759 372 
Q 2759 331 2756 301 
Q 2753 272 2748 248 
Q 2744 225 2733 206 
Q 2722 188 2705 170 
Q 2688 153 2603 114 
Q 2519 75 2384 37 
Q 2250 0 2073 -29 
Q 1897 -59 1697 -59 
Q 1350 -59 1089 37 
Q 828 134 650 325 
Q 472 516 381 803 
Q 291 1091 291 1472 
Q 291 1834 384 2123 
Q 478 2413 654 2614 
Q 831 2816 1081 2923 
Q 1331 3031 1641 3031 
Q 1972 3031 2205 2925 
Q 2438 2819 2588 2639 
Q 2738 2459 2808 2217 
Q 2878 1975 2878 1700 
L 2878 1606 
z
M 2359 1759 
Q 2369 2166 2180 2397 
Q 1991 2628 1619 2628 
Q 1428 2628 1284 2556 
Q 1141 2484 1044 2365 
Q 947 2247 894 2089 
Q 841 1931 834 1759 
L 2359 1759 
z
" transform="scale(0.015625)"/>
        <path id="Calibri-70" d="M 3066 1528 
Q 3066 1159 2986 865 
Q 2906 572 2751 367 
Q 2597 163 2369 52 
Q 2141 -59 1847 -59 
Q 1722 -59 1615 -34 
Q 1509 -9 1407 44 
Q 1306 97 1206 178 
Q 1106 259 994 369 
L 994 -1038 
Q 994 -1063 981 -1081 
Q 969 -1100 941 -1112 
Q 913 -1125 863 -1131 
Q 813 -1138 734 -1138 
Q 659 -1138 609 -1131 
Q 559 -1125 529 -1112 
Q 500 -1100 489 -1081 
Q 478 -1063 478 -1038 
L 478 2891 
Q 478 2919 487 2936 
Q 497 2953 525 2965 
Q 553 2978 597 2983 
Q 641 2988 703 2988 
Q 769 2988 811 2983 
Q 853 2978 881 2965 
Q 909 2953 920 2936 
Q 931 2919 931 2891 
L 931 2513 
Q 1059 2644 1178 2741 
Q 1297 2838 1417 2902 
Q 1538 2966 1664 2998 
Q 1791 3031 1931 3031 
Q 2238 3031 2453 2912 
Q 2669 2794 2805 2587 
Q 2941 2381 3003 2107 
Q 3066 1834 3066 1528 
z
M 2522 1469 
Q 2522 1684 2489 1886 
Q 2456 2088 2376 2244 
Q 2297 2400 2162 2494 
Q 2028 2588 1828 2588 
Q 1728 2588 1631 2558 
Q 1534 2528 1434 2464 
Q 1334 2400 1225 2295 
Q 1116 2191 994 2038 
L 994 919 
Q 1206 659 1397 521 
Q 1588 384 1797 384 
Q 1991 384 2130 478 
Q 2269 572 2355 728 
Q 2441 884 2481 1078 
Q 2522 1272 2522 1469 
z
" transform="scale(0.015625)"/>
       </defs>
       <use xlink:href="#Calibri-32"/>
       <use xlink:href="#Calibri-30" x="50.683594"/>
       <use xlink:href="#Calibri-32" x="101.367188"/>
       <use xlink:href="#Calibri-30" x="152.050781"/>
       <use xlink:href="#Calibri-2d" x="202.734375"/>
       <use xlink:href="#Calibri-53" x="233.349609"/>
       <use xlink:href="#Calibri-65" x="279.296875"/>
       <use xlink:href="#Calibri-70" x="329.052734"/>
      </g>
     </g>
    </g>
    <g id="xtick_6">
     <g id="line2d_6">
      <g>
       <use xlink:href="#m43e5ee72a8" x="236.79614" y="275.820756" style="fill: #7b7e85; stroke: #7b7e85; stroke-width: 0.8"/>
      </g>
     </g>
     <g id="text_6">
      <!-- 2020-Nov -->
      <g style="fill: #7b7e85" transform="translate(210.475195 316.838597) rotate(-45) scale(0.09 -0.09)">
       <defs>
        <path id="Calibri-4e" d="M 3594 222 
Q 3594 159 3573 115 
Q 3553 72 3520 44 
Q 3488 16 3447 3 
Q 3406 -9 3366 -9 
L 3194 -9 
Q 3113 -9 3052 8 
Q 2991 25 2936 70 
Q 2881 116 2826 194 
Q 2772 272 2706 394 
L 1431 2694 
Q 1331 2872 1229 3067 
Q 1128 3263 1041 3447 
L 1034 3447 
Q 1041 3222 1044 2987 
Q 1047 2753 1047 2522 
L 1047 81 
Q 1047 59 1034 39 
Q 1022 19 992 8 
Q 963 -3 914 -11 
Q 866 -19 791 -19 
Q 716 -19 667 -11 
Q 619 -3 591 8 
Q 563 19 550 39 
Q 538 59 538 81 
L 538 3813 
Q 538 3938 606 3991 
Q 675 4044 756 4044 
L 1013 4044 
Q 1103 4044 1164 4028 
Q 1225 4013 1273 3977 
Q 1322 3941 1367 3877 
Q 1413 3813 1466 3716 
L 2447 1941 
Q 2538 1778 2622 1623 
Q 2706 1469 2784 1319 
Q 2863 1169 2939 1023 
Q 3016 878 3091 731 
L 3094 731 
Q 3088 978 3086 1245 
Q 3084 1513 3084 1759 
L 3084 3953 
Q 3084 3975 3096 3994 
Q 3109 4013 3139 4027 
Q 3169 4041 3217 4047 
Q 3266 4053 3344 4053 
Q 3413 4053 3463 4047 
Q 3513 4041 3541 4027 
Q 3569 4013 3581 3994 
Q 3594 3975 3594 3953 
L 3594 222 
z
" transform="scale(0.015625)"/>
        <path id="Calibri-6f" d="M 3094 1516 
Q 3094 1172 3003 883 
Q 2913 594 2733 384 
Q 2553 175 2283 58 
Q 2013 -59 1656 -59 
Q 1309 -59 1051 44 
Q 794 147 622 344 
Q 450 541 365 822 
Q 281 1103 281 1459 
Q 281 1803 370 2092 
Q 459 2381 639 2590 
Q 819 2800 1087 2915 
Q 1356 3031 1716 3031 
Q 2063 3031 2320 2928 
Q 2578 2825 2750 2628 
Q 2922 2431 3008 2150 
Q 3094 1869 3094 1516 
z
M 2550 1481 
Q 2550 1709 2508 1912 
Q 2466 2116 2369 2269 
Q 2272 2422 2106 2511 
Q 1941 2600 1694 2600 
Q 1466 2600 1302 2519 
Q 1138 2438 1031 2289 
Q 925 2141 873 1937 
Q 822 1734 822 1494 
Q 822 1263 864 1059 
Q 906 856 1004 704 
Q 1103 553 1268 464 
Q 1434 375 1681 375 
Q 1906 375 2072 456 
Q 2238 538 2344 684 
Q 2450 831 2500 1034 
Q 2550 1238 2550 1481 
z
" transform="scale(0.015625)"/>
        <path id="Calibri-76" d="M 2784 2897 
Q 2784 2884 2782 2870 
Q 2781 2856 2778 2840 
Q 2775 2825 2770 2806 
Q 2766 2788 2759 2766 
L 1800 94 
Q 1788 59 1767 37 
Q 1747 16 1706 3 
Q 1666 -9 1603 -14 
Q 1541 -19 1447 -19 
Q 1353 -19 1290 -12 
Q 1228 -6 1189 6 
Q 1150 19 1128 41 
Q 1106 63 1094 94 
L 138 2766 
Q 125 2803 117 2831 
Q 109 2859 107 2873 
Q 106 2888 106 2897 
Q 106 2922 118 2940 
Q 131 2959 161 2970 
Q 191 2981 239 2984 
Q 288 2988 359 2988 
Q 450 2988 504 2983 
Q 559 2978 589 2965 
Q 619 2953 633 2934 
Q 647 2916 659 2888 
L 1453 569 
L 1466 531 
L 1475 569 
L 2259 2888 
Q 2266 2916 2281 2934 
Q 2297 2953 2326 2965 
Q 2356 2978 2407 2983 
Q 2459 2988 2544 2988 
Q 2616 2988 2662 2984 
Q 2709 2981 2736 2968 
Q 2763 2956 2773 2939 
Q 2784 2922 2784 2897 
z
" transform="scale(0.015625)"/>
       </defs>
       <use xlink:href="#Calibri-32"/>
       <use xlink:href="#Calibri-30" x="50.683594"/>
       <use xlink:href="#Calibri-32" x="101.367188"/>
       <use xlink:href="#Calibri-30" x="152.050781"/>
       <use xlink:href="#Calibri-2d" x="202.734375"/>
       <use xlink:href="#Calibri-4e" x="233.349609"/>
       <use xlink:href="#Calibri-6f" x="297.900391"/>
       <use xlink:href="#Calibri-76" x="350.634766"/>
      </g>
     </g>
    </g>
    <g id="xtick_7">
     <g id="line2d_7">
      <g>
       <use xlink:href="#m43e5ee72a8" x="272.12493" y="275.820756" style="fill: #7b7e85; stroke: #7b7e85; stroke-width: 0.8"/>
      </g>
     </g>
     <g id="text_7">
      <!-- 2021-Jan -->
      <g style="fill: #7b7e85" transform="translate(247.720134 314.922448) rotate(-45) scale(0.09 -0.09)">
       <defs>
        <path id="Calibri-31" d="M 2897 213 
Q 2897 153 2887 112 
Q 2878 72 2862 47 
Q 2847 22 2826 11 
Q 2806 0 2784 0 
L 672 0 
Q 650 0 631 11 
Q 613 22 595 47 
Q 578 72 568 112 
Q 559 153 559 213 
Q 559 269 568 309 
Q 578 350 592 376 
Q 606 403 626 417 
Q 647 431 672 431 
L 1516 431 
L 1516 3506 
L 734 3041 
Q 675 3009 639 3003 
Q 603 2997 581 3017 
Q 559 3038 551 3084 
Q 544 3131 544 3203 
Q 544 3256 548 3293 
Q 553 3331 562 3356 
Q 572 3381 589 3400 
Q 606 3419 634 3438 
L 1566 4034 
Q 1578 4044 1597 4050 
Q 1616 4056 1644 4062 
Q 1672 4069 1709 4070 
Q 1747 4072 1803 4072 
Q 1878 4072 1928 4065 
Q 1978 4059 2006 4048 
Q 2034 4038 2043 4020 
Q 2053 4003 2053 3984 
L 2053 431 
L 2784 431 
Q 2809 431 2831 417 
Q 2853 403 2867 376 
Q 2881 350 2889 309 
Q 2897 269 2897 213 
z
" transform="scale(0.015625)"/>
       </defs>
       <use xlink:href="#Calibri-32"/>
       <use xlink:href="#Calibri-30" x="50.683594"/>
       <use xlink:href="#Calibri-32" x="101.367188"/>
       <use xlink:href="#Calibri-31" x="152.050781"/>
       <use xlink:href="#Calibri-2d" x="202.734375"/>
       <use xlink:href="#Calibri-4a" x="233.349609"/>
       <use xlink:href="#Calibri-61" x="265.234375"/>
       <use xlink:href="#Calibri-6e" x="313.134766"/>
      </g>
     </g>
    </g>
    <g id="xtick_8">
     <g id="line2d_8">
      <g>
       <use xlink:href="#m43e5ee72a8" x="306.2954" y="275.820756" style="fill: #7b7e85; stroke: #7b7e85; stroke-width: 0.8"/>
      </g>
     </g>
     <g id="text_8">
      <!-- 2021-Mar -->
      <g style="fill: #7b7e85" transform="translate(279.604549 317.208502) rotate(-45) scale(0.09 -0.09)">
       <use xlink:href="#Calibri-32"/>
       <use xlink:href="#Calibri-30" x="50.683594"/>
       <use xlink:href="#Calibri-32" x="101.367188"/>
       <use xlink:href="#Calibri-31" x="152.050781"/>
       <use xlink:href="#Calibri-2d" x="202.734375"/>
       <use xlink:href="#Calibri-4d" x="233.349609"/>
       <use xlink:href="#Calibri-61" x="318.847656"/>
       <use xlink:href="#Calibri-72" x="366.748047"/>
      </g>
     </g>
    </g>
    <g id="xtick_9">
     <g id="line2d_9">
      <g>
       <use xlink:href="#m43e5ee72a8" x="341.62419" y="275.820756" style="fill: #7b7e85; stroke: #7b7e85; stroke-width: 0.8"/>
      </g>
     </g>
     <g id="text_9">
      <!-- 2021-May -->
      <g style="fill: #7b7e85" transform="translate(314.27109 317.870752) rotate(-45) scale(0.09 -0.09)">
       <use xlink:href="#Calibri-32"/>
       <use xlink:href="#Calibri-30" x="50.683594"/>
       <use xlink:href="#Calibri-32" x="101.367188"/>
       <use xlink:href="#Calibri-31" x="152.050781"/>
       <use xlink:href="#Calibri-2d" x="202.734375"/>
       <use xlink:href="#Calibri-4d" x="233.349609"/>
       <use xlink:href="#Calibri-61" x="318.847656"/>
       <use xlink:href="#Calibri-79" x="366.748047"/>
      </g>
     </g>
    </g>
    <g id="xtick_10">
     <g id="line2d_10">
      <g>
       <use xlink:href="#m43e5ee72a8" x="376.95298" y="275.820756" style="fill: #7b7e85; stroke: #7b7e85; stroke-width: 0.8"/>
      </g>
     </g>
     <g id="text_10">
      <!-- 2021-Jul -->
      <g style="fill: #7b7e85" transform="translate(354.136191 313.334441) rotate(-45) scale(0.09 -0.09)">
       <use xlink:href="#Calibri-32"/>
       <use xlink:href="#Calibri-30" x="50.683594"/>
       <use xlink:href="#Calibri-32" x="101.367188"/>
       <use xlink:href="#Calibri-31" x="152.050781"/>
       <use xlink:href="#Calibri-2d" x="202.734375"/>
       <use xlink:href="#Calibri-4a" x="233.349609"/>
       <use xlink:href="#Calibri-75" x="265.234375"/>
       <use xlink:href="#Calibri-6c" x="317.773438"/>
      </g>
     </g>
    </g>
    <g id="xtick_11">
     <g id="line2d_11">
      <g>
       <use xlink:href="#m43e5ee72a8" x="412.860931" y="275.820756" style="fill: #7b7e85; stroke: #7b7e85; stroke-width: 0.8"/>
      </g>
     </g>
     <g id="text_11">
      <!-- 2021-Sep -->
      <g style="fill: #7b7e85" transform="translate(387.443868 315.934716) rotate(-45) scale(0.09 -0.09)">
       <use xlink:href="#Calibri-32"/>
       <use xlink:href="#Calibri-30" x="50.683594"/>
       <use xlink:href="#Calibri-32" x="101.367188"/>
       <use xlink:href="#Calibri-31" x="152.050781"/>
       <use xlink:href="#Calibri-2d" x="202.734375"/>
       <use xlink:href="#Calibri-53" x="233.349609"/>
       <use xlink:href="#Calibri-65" x="279.296875"/>
       <use xlink:href="#Calibri-70" x="329.052734"/>
      </g>
     </g>
    </g>
    <g id="xtick_12">
     <g id="line2d_12">
      <g>
       <use xlink:href="#m43e5ee72a8" x="448.189722" y="275.820756" style="fill: #7b7e85; stroke: #7b7e85; stroke-width: 0.8"/>
      </g>
     </g>
     <g id="text_12">
      <!-- 2021-Nov -->
      <g style="fill: #7b7e85" transform="translate(421.868777 316.838597) rotate(-45) scale(0.09 -0.09)">
       <use xlink:href="#Calibri-32"/>
       <use xlink:href="#Calibri-30" x="50.683594"/>
       <use xlink:href="#Calibri-32" x="101.367188"/>
       <use xlink:href="#Calibri-31" x="152.050781"/>
       <use xlink:href="#Calibri-2d" x="202.734375"/>
       <use xlink:href="#Calibri-4e" x="233.349609"/>
       <use xlink:href="#Calibri-6f" x="297.900391"/>
       <use xlink:href="#Calibri-76" x="350.634766"/>
      </g>
     </g>
    </g>
    <g id="xtick_13">
     <g id="line2d_13">
      <g>
       <use xlink:href="#m43e5ee72a8" x="483.518512" y="275.820756" style="fill: #7b7e85; stroke: #7b7e85; stroke-width: 0.8"/>
      </g>
     </g>
     <g id="text_13">
      <!-- 2022-Jan -->
      <g style="fill: #7b7e85" transform="translate(459.113716 314.922448) rotate(-45) scale(0.09 -0.09)">
       <use xlink:href="#Calibri-32"/>
       <use xlink:href="#Calibri-30" x="50.683594"/>
       <use xlink:href="#Calibri-32" x="101.367188"/>
       <use xlink:href="#Calibri-32" x="152.050781"/>
       <use xlink:href="#Calibri-2d" x="202.734375"/>
       <use xlink:href="#Calibri-4a" x="233.349609"/>
       <use xlink:href="#Calibri-61" x="265.234375"/>
       <use xlink:href="#Calibri-6e" x="313.134766"/>
      </g>
     </g>
    </g>
    <g id="xtick_14">
     <g id="line2d_14">
      <g>
       <use xlink:href="#m43e5ee72a8" x="517.688982" y="275.820756" style="fill: #7b7e85; stroke: #7b7e85; stroke-width: 0.8"/>
      </g>
     </g>
     <g id="text_14">
      <!-- 2022-Mar -->
      <g style="fill: #7b7e85" transform="translate(490.998131 317.208502) rotate(-45) scale(0.09 -0.09)">
       <use xlink:href="#Calibri-32"/>
       <use xlink:href="#Calibri-30" x="50.683594"/>
       <use xlink:href="#Calibri-32" x="101.367188"/>
       <use xlink:href="#Calibri-32" x="152.050781"/>
       <use xlink:href="#Calibri-2d" x="202.734375"/>
       <use xlink:href="#Calibri-4d" x="233.349609"/>
       <use xlink:href="#Calibri-61" x="318.847656"/>
       <use xlink:href="#Calibri-72" x="366.748047"/>
      </g>
     </g>
    </g>
    <g id="xtick_15">
     <g id="line2d_15">
      <g>
       <use xlink:href="#m43e5ee72a8" x="553.017772" y="275.820756" style="fill: #7b7e85; stroke: #7b7e85; stroke-width: 0.8"/>
      </g>
     </g>
     <g id="text_15">
      <!-- 2022-May -->
      <g style="fill: #7b7e85" transform="translate(525.664672 317.870752) rotate(-45) scale(0.09 -0.09)">
       <use xlink:href="#Calibri-32"/>
       <use xlink:href="#Calibri-30" x="50.683594"/>
       <use xlink:href="#Calibri-32" x="101.367188"/>
       <use xlink:href="#Calibri-32" x="152.050781"/>
       <use xlink:href="#Calibri-2d" x="202.734375"/>
       <use xlink:href="#Calibri-4d" x="233.349609"/>
       <use xlink:href="#Calibri-61" x="318.847656"/>
       <use xlink:href="#Calibri-79" x="366.748047"/>
      </g>
     </g>
    </g>
    <g id="xtick_16">
     <g id="line2d_16">
      <g>
       <use xlink:href="#m43e5ee72a8" x="588.346562" y="275.820756" style="fill: #7b7e85; stroke: #7b7e85; stroke-width: 0.8"/>
      </g>
     </g>
     <g id="text_16">
      <!-- 2022-Jul -->
      <g style="fill: #7b7e85" transform="translate(565.529773 313.334441) rotate(-45) scale(0.09 -0.09)">
       <use xlink:href="#Calibri-32"/>
       <use xlink:href="#Calibri-30" x="50.683594"/>
       <use xlink:href="#Calibri-32" x="101.367188"/>
       <use xlink:href="#Calibri-32" x="152.050781"/>
       <use xlink:href="#Calibri-2d" x="202.734375"/>
       <use xlink:href="#Calibri-4a" x="233.349609"/>
       <use xlink:href="#Calibri-75" x="265.234375"/>
       <use xlink:href="#Calibri-6c" x="317.773438"/>
      </g>
     </g>
    </g>
    <g id="xtick_17">
     <g id="line2d_17">
      <defs>
       <path id="m3540730571" d="M 0 0 
L 0 4 
" style="stroke: #7b7e85; stroke-width: 0.6"/>
      </defs>
      <g>
       <use xlink:href="#m3540730571" x="78.106163" y="275.820756" style="fill: #7b7e85; stroke: #7b7e85; stroke-width: 0.6"/>
      </g>
     </g>
    </g>
    <g id="xtick_18">
     <g id="line2d_18">
      <g>
       <use xlink:href="#m3540730571" x="112.855793" y="275.820756" style="fill: #7b7e85; stroke: #7b7e85; stroke-width: 0.6"/>
      </g>
     </g>
    </g>
    <g id="xtick_19">
     <g id="line2d_19">
      <g>
       <use xlink:href="#m3540730571" x="148.184583" y="275.820756" style="fill: #7b7e85; stroke: #7b7e85; stroke-width: 0.6"/>
      </g>
     </g>
    </g>
    <g id="xtick_20">
     <g id="line2d_20">
      <g>
       <use xlink:href="#m3540730571" x="183.513374" y="275.820756" style="fill: #7b7e85; stroke: #7b7e85; stroke-width: 0.6"/>
      </g>
     </g>
    </g>
    <g id="xtick_21">
     <g id="line2d_21">
      <g>
       <use xlink:href="#m3540730571" x="218.842164" y="275.820756" style="fill: #7b7e85; stroke: #7b7e85; stroke-width: 0.6"/>
      </g>
     </g>
    </g>
    <g id="xtick_22">
     <g id="line2d_22">
      <g>
       <use xlink:href="#m3540730571" x="254.170955" y="275.820756" style="fill: #7b7e85; stroke: #7b7e85; stroke-width: 0.6"/>
      </g>
     </g>
    </g>
    <g id="xtick_23">
     <g id="line2d_23">
      <g>
       <use xlink:href="#m3540730571" x="290.078906" y="275.820756" style="fill: #7b7e85; stroke: #7b7e85; stroke-width: 0.6"/>
      </g>
     </g>
    </g>
    <g id="xtick_24">
     <g id="line2d_24">
      <g>
       <use xlink:href="#m3540730571" x="324.249375" y="275.820756" style="fill: #7b7e85; stroke: #7b7e85; stroke-width: 0.6"/>
      </g>
     </g>
    </g>
    <g id="xtick_25">
     <g id="line2d_25">
      <g>
       <use xlink:href="#m3540730571" x="359.578165" y="275.820756" style="fill: #7b7e85; stroke: #7b7e85; stroke-width: 0.6"/>
      </g>
     </g>
    </g>
    <g id="xtick_26">
     <g id="line2d_26">
      <g>
       <use xlink:href="#m3540730571" x="394.906956" y="275.820756" style="fill: #7b7e85; stroke: #7b7e85; stroke-width: 0.6"/>
      </g>
     </g>
    </g>
    <g id="xtick_27">
     <g id="line2d_27">
      <g>
       <use xlink:href="#m3540730571" x="430.235746" y="275.820756" style="fill: #7b7e85; stroke: #7b7e85; stroke-width: 0.6"/>
      </g>
     </g>
    </g>
    <g id="xtick_28">
     <g id="line2d_28">
      <g>
       <use xlink:href="#m3540730571" x="465.564537" y="275.820756" style="fill: #7b7e85; stroke: #7b7e85; stroke-width: 0.6"/>
      </g>
     </g>
    </g>
    <g id="xtick_29">
     <g id="line2d_29">
      <g>
       <use xlink:href="#m3540730571" x="501.472488" y="275.820756" style="fill: #7b7e85; stroke: #7b7e85; stroke-width: 0.6"/>
      </g>
     </g>
    </g>
    <g id="xtick_30">
     <g id="line2d_30">
      <g>
       <use xlink:href="#m3540730571" x="535.642957" y="275.820756" style="fill: #7b7e85; stroke: #7b7e85; stroke-width: 0.6"/>
      </g>
     </g>
    </g>
    <g id="xtick_31">
     <g id="line2d_31">
      <g>
       <use xlink:href="#m3540730571" x="570.971748" y="275.820756" style="fill: #7b7e85; stroke: #7b7e85; stroke-width: 0.6"/>
      </g>
     </g>
    </g>
    <g id="text_17">
     <!-- TimeStamp -->
     <g style="fill: #00263e" transform="translate(298.8875 341.484062) scale(0.11 -0.11)">
      <defs>
       <path id="Calibri-54" d="M 3072 3813 
Q 3072 3753 3065 3709 
Q 3059 3666 3045 3639 
Q 3031 3613 3011 3600 
Q 2991 3588 2966 3588 
L 1828 3588 
L 1828 81 
Q 1828 56 1815 37 
Q 1803 19 1772 8 
Q 1741 -3 1689 -11 
Q 1638 -19 1559 -19 
Q 1484 -19 1431 -11 
Q 1378 -3 1347 8 
Q 1316 19 1303 37 
Q 1291 56 1291 81 
L 1291 3588 
L 153 3588 
Q 128 3588 108 3600 
Q 88 3613 75 3639 
Q 63 3666 55 3709 
Q 47 3753 47 3813 
Q 47 3872 55 3917 
Q 63 3963 75 3991 
Q 88 4019 108 4031 
Q 128 4044 153 4044 
L 2966 4044 
Q 2991 4044 3011 4031 
Q 3031 4019 3045 3991 
Q 3059 3963 3065 3917 
Q 3072 3872 3072 3813 
z
" transform="scale(0.015625)"/>
       <path id="Calibri-69" d="M 994 78 
Q 994 53 981 36 
Q 969 19 941 6 
Q 913 -6 863 -12 
Q 813 -19 734 -19 
Q 659 -19 609 -12 
Q 559 -6 529 6 
Q 500 19 489 36 
Q 478 53 478 78 
L 478 2891 
Q 478 2913 489 2931 
Q 500 2950 529 2962 
Q 559 2975 609 2981 
Q 659 2988 734 2988 
Q 813 2988 863 2981 
Q 913 2975 941 2962 
Q 969 2950 981 2931 
Q 994 2913 994 2891 
L 994 78 
z
M 1053 3841 
Q 1053 3659 984 3593 
Q 916 3528 731 3528 
Q 550 3528 483 3592 
Q 416 3656 416 3834 
Q 416 4016 484 4081 
Q 553 4147 738 4147 
Q 919 4147 986 4083 
Q 1053 4019 1053 3841 
z
" transform="scale(0.015625)"/>
       <path id="Calibri-6d" d="M 4650 78 
Q 4650 53 4637 36 
Q 4625 19 4597 6 
Q 4569 -6 4519 -12 
Q 4469 -19 4394 -19 
Q 4316 -19 4266 -12 
Q 4216 -6 4186 6 
Q 4156 19 4143 36 
Q 4131 53 4131 78 
L 4131 1788 
Q 4131 1966 4100 2112 
Q 4069 2259 4000 2365 
Q 3931 2472 3825 2528 
Q 3719 2584 3575 2584 
Q 3397 2584 3217 2446 
Q 3038 2309 2822 2044 
L 2822 78 
Q 2822 53 2809 36 
Q 2797 19 2767 6 
Q 2738 -6 2688 -12 
Q 2638 -19 2563 -19 
Q 2491 -19 2439 -12 
Q 2388 -6 2358 6 
Q 2328 19 2317 36 
Q 2306 53 2306 78 
L 2306 1788 
Q 2306 1966 2272 2112 
Q 2238 2259 2169 2365 
Q 2100 2472 1995 2528 
Q 1891 2584 1747 2584 
Q 1569 2584 1387 2446 
Q 1206 2309 994 2044 
L 994 78 
Q 994 53 981 36 
Q 969 19 941 6 
Q 913 -6 863 -12 
Q 813 -19 734 -19 
Q 659 -19 609 -12 
Q 559 -6 529 6 
Q 500 19 489 36 
Q 478 53 478 78 
L 478 2891 
Q 478 2916 487 2933 
Q 497 2950 525 2964 
Q 553 2978 597 2983 
Q 641 2988 713 2988 
Q 781 2988 826 2983 
Q 872 2978 897 2964 
Q 922 2950 933 2933 
Q 944 2916 944 2891 
L 944 2519 
Q 1181 2784 1404 2907 
Q 1628 3031 1856 3031 
Q 2031 3031 2170 2990 
Q 2309 2950 2415 2876 
Q 2522 2803 2597 2701 
Q 2672 2600 2722 2475 
Q 2863 2628 2989 2734 
Q 3116 2841 3233 2906 
Q 3350 2972 3461 3001 
Q 3572 3031 3684 3031 
Q 3956 3031 4140 2936 
Q 4325 2841 4439 2681 
Q 4553 2522 4601 2308 
Q 4650 2094 4650 1856 
L 4650 78 
z
" transform="scale(0.015625)"/>
       <path id="Calibri-74" d="M 1941 284 
Q 1941 194 1928 141 
Q 1916 88 1891 63 
Q 1866 38 1816 16 
Q 1766 -6 1702 -20 
Q 1638 -34 1566 -43 
Q 1494 -53 1422 -53 
Q 1203 -53 1047 5 
Q 891 63 791 180 
Q 691 297 645 476 
Q 600 656 600 900 
L 600 2544 
L 206 2544 
Q 159 2544 131 2594 
Q 103 2644 103 2756 
Q 103 2816 111 2856 
Q 119 2897 131 2923 
Q 144 2950 164 2961 
Q 184 2972 209 2972 
L 600 2972 
L 600 3641 
Q 600 3663 611 3681 
Q 622 3700 651 3714 
Q 681 3728 731 3734 
Q 781 3741 856 3741 
Q 934 3741 984 3734 
Q 1034 3728 1062 3714 
Q 1091 3700 1103 3681 
Q 1116 3663 1116 3641 
L 1116 2972 
L 1838 2972 
Q 1863 2972 1881 2961 
Q 1900 2950 1914 2923 
Q 1928 2897 1934 2856 
Q 1941 2816 1941 2756 
Q 1941 2644 1912 2594 
Q 1884 2544 1838 2544 
L 1116 2544 
L 1116 975 
Q 1116 684 1202 536 
Q 1288 388 1509 388 
Q 1581 388 1637 402 
Q 1694 416 1737 431 
Q 1781 447 1812 461 
Q 1844 475 1869 475 
Q 1884 475 1898 467 
Q 1913 459 1920 437 
Q 1928 416 1934 378 
Q 1941 341 1941 284 
z
" transform="scale(0.015625)"/>
      </defs>
      <use xlink:href="#Calibri-54"/>
      <use xlink:href="#Calibri-69" x="48.730469"/>
      <use xlink:href="#Calibri-6d" x="71.679688"/>
      <use xlink:href="#Calibri-65" x="151.5625"/>
      <use xlink:href="#Calibri-53" x="201.318359"/>
      <use xlink:href="#Calibri-74" x="247.265625"/>
      <use xlink:href="#Calibri-61" x="280.761719"/>
      <use xlink:href="#Calibri-6d" x="328.662109"/>
      <use xlink:href="#Calibri-70" x="408.544922"/>
     </g>
    </g>
   </g>
   <g id="matplotlib.axis_2">
    <g id="ytick_1">
     <g id="line2d_32">
      <defs>
       <path id="mb87dd13a2a" d="M 0 0 
L -6 0 
" style="stroke: #7b7e85; stroke-width: 0.8"/>
      </defs>
      <g>
       <use xlink:href="#mb87dd13a2a" x="60.152188" y="272.865859" style="fill: #7b7e85; stroke: #7b7e85; stroke-width: 0.8"/>
      </g>
     </g>
     <g id="text_18">
      <!-- 2% -->
      <g style="fill: #7b7e85" transform="translate(37.213281 276.606719) scale(0.11 -0.11)">
       <defs>
        <path id="Calibri-25" d="M 1966 3044 
Q 1966 2803 1912 2606 
Q 1859 2410 1750 2270 
Q 1641 2131 1473 2053 
Q 1306 1975 1081 1975 
Q 853 1975 690 2047 
Q 528 2119 425 2255 
Q 322 2391 273 2586 
Q 225 2781 225 3031 
Q 225 3260 276 3453 
Q 328 3647 434 3787 
Q 541 3928 708 4009 
Q 875 4091 1103 4091 
Q 1350 4091 1517 4006 
Q 1684 3922 1784 3780 
Q 1884 3638 1925 3447 
Q 1966 3256 1966 3044 
z
M 1528 3028 
Q 1528 3203 1503 3339 
Q 1478 3475 1426 3565 
Q 1375 3656 1290 3701 
Q 1206 3747 1091 3747 
Q 981 3747 900 3703 
Q 819 3660 767 3572 
Q 716 3485 691 3355 
Q 666 3225 666 3050 
Q 666 2838 695 2695 
Q 725 2553 779 2470 
Q 834 2388 917 2355 
Q 1000 2322 1106 2322 
Q 1231 2322 1311 2369 
Q 1391 2416 1439 2508 
Q 1488 2600 1508 2730 
Q 1528 2860 1528 3028 
z
M 4350 1022 
Q 4350 781 4297 584 
Q 4244 388 4134 248 
Q 4025 109 3858 31 
Q 3691 -47 3466 -47 
Q 3238 -47 3075 25 
Q 2913 97 2809 233 
Q 2706 369 2657 564 
Q 2609 759 2609 1009 
Q 2609 1238 2661 1431 
Q 2713 1625 2819 1765 
Q 2925 1906 3092 1987 
Q 3259 2069 3488 2069 
Q 3734 2069 3901 1984 
Q 4069 1900 4169 1758 
Q 4269 1616 4309 1425 
Q 4350 1234 4350 1022 
z
M 3913 1006 
Q 3913 1181 3888 1317 
Q 3863 1453 3811 1543 
Q 3759 1634 3675 1679 
Q 3591 1725 3475 1725 
Q 3366 1725 3284 1681 
Q 3203 1638 3151 1550 
Q 3100 1463 3075 1333 
Q 3050 1203 3050 1028 
Q 3050 816 3079 673 
Q 3109 531 3164 448 
Q 3219 366 3301 333 
Q 3384 300 3491 300 
Q 3616 300 3695 347 
Q 3775 394 3823 486 
Q 3872 578 3892 708 
Q 3913 838 3913 1006 
z
M 1081 -25 
Q 1066 -53 1044 -67 
Q 1022 -81 990 -92 
Q 959 -103 915 -108 
Q 872 -113 809 -113 
Q 741 -113 698 -100 
Q 656 -88 639 -67 
Q 622 -47 626 -17 
Q 631 13 656 50 
L 3469 4078 
Q 3484 4103 3506 4120 
Q 3528 4138 3561 4147 
Q 3594 4156 3636 4161 
Q 3678 4166 3744 4166 
Q 3809 4166 3851 4155 
Q 3894 4144 3912 4122 
Q 3931 4100 3926 4069 
Q 3922 4038 3897 4003 
L 1081 -25 
z
" transform="scale(0.015625)"/>
       </defs>
       <use xlink:href="#Calibri-32"/>
       <use xlink:href="#Calibri-25" x="50.683594"/>
      </g>
     </g>
    </g>
    <g id="ytick_2">
     <g id="line2d_33">
      <g>
       <use xlink:href="#mb87dd13a2a" x="60.152188" y="244.816132" style="fill: #7b7e85; stroke: #7b7e85; stroke-width: 0.8"/>
      </g>
     </g>
     <g id="text_19">
      <!-- 4% -->
      <g style="fill: #7b7e85" transform="translate(37.213281 248.556991) scale(0.11 -0.11)">
       <defs>
        <path id="Calibri-34" d="M 3059 1150 
Q 3059 1047 3028 987 
Q 2997 928 2941 928 
L 2484 928 
L 2484 78 
Q 2484 53 2471 36 
Q 2459 19 2428 6 
Q 2397 -6 2347 -12 
Q 2297 -19 2219 -19 
Q 2144 -19 2094 -12 
Q 2044 -6 2014 6 
Q 1984 19 1973 36 
Q 1963 53 1963 78 
L 1963 928 
L 294 928 
Q 256 928 231 937 
Q 206 947 186 972 
Q 166 997 158 1044 
Q 150 1091 150 1166 
Q 150 1225 153 1272 
Q 156 1319 165 1358 
Q 175 1397 190 1433 
Q 206 1469 228 1509 
L 1684 3966 
Q 1700 3991 1729 4009 
Q 1759 4028 1806 4040 
Q 1853 4053 1922 4058 
Q 1991 4063 2084 4063 
Q 2188 4063 2264 4055 
Q 2341 4047 2387 4034 
Q 2434 4022 2459 4001 
Q 2484 3981 2484 3953 
L 2484 1372 
L 2941 1372 
Q 2994 1372 3026 1317 
Q 3059 1263 3059 1150 
z
M 1963 3591 
L 1956 3591 
L 641 1372 
L 1963 1372 
L 1963 3591 
z
" transform="scale(0.015625)"/>
       </defs>
       <use xlink:href="#Calibri-34"/>
       <use xlink:href="#Calibri-25" x="50.683594"/>
      </g>
     </g>
    </g>
    <g id="ytick_3">
     <g id="line2d_34">
      <g>
       <use xlink:href="#mb87dd13a2a" x="60.152188" y="216.766404" style="fill: #7b7e85; stroke: #7b7e85; stroke-width: 0.8"/>
      </g>
     </g>
     <g id="text_20">
      <!-- 6% -->
      <g style="fill: #7b7e85" transform="translate(37.213281 220.507263) scale(0.11 -0.11)">
       <defs>
        <path id="Calibri-36" d="M 2991 1309 
Q 2991 1044 2909 795 
Q 2828 547 2659 358 
Q 2491 169 2231 55 
Q 1972 -59 1619 -59 
Q 1366 -59 1172 3 
Q 978 66 834 181 
Q 691 297 595 465 
Q 500 634 442 850 
Q 384 1066 359 1322 
Q 334 1578 334 1872 
Q 334 2131 362 2397 
Q 391 2663 462 2909 
Q 534 3156 657 3373 
Q 781 3591 967 3752 
Q 1153 3913 1412 4006 
Q 1672 4100 2016 4100 
Q 2131 4100 2250 4086 
Q 2369 4072 2469 4048 
Q 2569 4025 2637 3997 
Q 2706 3969 2728 3951 
Q 2750 3934 2761 3914 
Q 2772 3894 2778 3870 
Q 2784 3847 2787 3817 
Q 2791 3788 2791 3744 
Q 2791 3688 2789 3647 
Q 2788 3606 2777 3581 
Q 2766 3556 2748 3543 
Q 2731 3531 2703 3531 
Q 2669 3531 2609 3553 
Q 2550 3575 2465 3601 
Q 2381 3628 2261 3650 
Q 2141 3672 1981 3672 
Q 1691 3672 1481 3553 
Q 1272 3434 1139 3234 
Q 1006 3034 942 2770 
Q 878 2506 869 2219 
Q 950 2266 1051 2312 
Q 1153 2359 1273 2396 
Q 1394 2434 1528 2457 
Q 1663 2481 1816 2481 
Q 2144 2481 2369 2392 
Q 2594 2303 2733 2145 
Q 2872 1988 2931 1773 
Q 2991 1559 2991 1309 
z
M 2447 1259 
Q 2447 1441 2411 1589 
Q 2375 1738 2290 1841 
Q 2206 1944 2065 2000 
Q 1925 2056 1719 2056 
Q 1603 2056 1487 2036 
Q 1372 2016 1264 1980 
Q 1156 1944 1057 1895 
Q 959 1847 878 1791 
Q 878 1388 929 1116 
Q 981 844 1079 680 
Q 1178 516 1325 445 
Q 1472 375 1669 375 
Q 1869 375 2016 450 
Q 2163 525 2259 651 
Q 2356 778 2401 936 
Q 2447 1094 2447 1259 
z
" transform="scale(0.015625)"/>
       </defs>
       <use xlink:href="#Calibri-36"/>
       <use xlink:href="#Calibri-25" x="50.683594"/>
      </g>
     </g>
    </g>
    <g id="ytick_4">
     <g id="line2d_35">
      <g>
       <use xlink:href="#mb87dd13a2a" x="60.152188" y="188.716676" style="fill: #7b7e85; stroke: #7b7e85; stroke-width: 0.8"/>
      </g>
     </g>
     <g id="text_21">
      <!-- 8% -->
      <g style="fill: #7b7e85" transform="translate(37.213281 192.457536) scale(0.11 -0.11)">
       <defs>
        <path id="Calibri-38" d="M 2981 1038 
Q 2981 775 2887 570 
Q 2794 366 2617 225 
Q 2441 84 2181 12 
Q 1922 -59 1588 -59 
Q 1275 -59 1028 6 
Q 781 72 609 200 
Q 438 328 347 515 
Q 256 703 256 944 
Q 256 1134 318 1293 
Q 381 1453 498 1587 
Q 616 1722 787 1839 
Q 959 1956 1175 2063 
Q 988 2159 844 2267 
Q 700 2375 600 2501 
Q 500 2628 448 2772 
Q 397 2916 397 3084 
Q 397 3297 473 3483 
Q 550 3669 704 3806 
Q 859 3944 1098 4023 
Q 1338 4103 1656 4103 
Q 1963 4103 2186 4029 
Q 2409 3956 2554 3829 
Q 2700 3703 2769 3531 
Q 2838 3359 2838 3163 
Q 2838 3003 2786 2856 
Q 2734 2709 2634 2578 
Q 2534 2447 2389 2333 
Q 2244 2219 2056 2119 
Q 2278 2009 2451 1893 
Q 2625 1778 2742 1645 
Q 2859 1513 2920 1364 
Q 2981 1216 2981 1038 
z
M 2306 3113 
Q 2306 3244 2261 3350 
Q 2216 3456 2128 3531 
Q 2041 3606 1911 3645 
Q 1781 3684 1616 3684 
Q 1278 3684 1104 3531 
Q 931 3378 931 3113 
Q 931 2991 973 2886 
Q 1016 2781 1105 2687 
Q 1194 2594 1330 2505 
Q 1466 2416 1653 2319 
Q 1969 2481 2137 2678 
Q 2306 2875 2306 3113 
z
M 2438 981 
Q 2438 1125 2384 1242 
Q 2331 1359 2223 1461 
Q 2116 1563 1955 1658 
Q 1794 1753 1581 1856 
Q 1384 1759 1236 1662 
Q 1088 1566 992 1462 
Q 897 1359 848 1245 
Q 800 1131 800 994 
Q 800 691 1008 525 
Q 1216 359 1628 359 
Q 2028 359 2233 526 
Q 2438 694 2438 981 
z
" transform="scale(0.015625)"/>
       </defs>
       <use xlink:href="#Calibri-38"/>
       <use xlink:href="#Calibri-25" x="50.683594"/>
      </g>
     </g>
    </g>
    <g id="ytick_5">
     <g id="line2d_36">
      <g>
       <use xlink:href="#mb87dd13a2a" x="60.152188" y="160.666948" style="fill: #7b7e85; stroke: #7b7e85; stroke-width: 0.8"/>
      </g>
     </g>
     <g id="text_22">
      <!-- 10% -->
      <g style="fill: #7b7e85" transform="translate(31.637656 164.407808) scale(0.11 -0.11)">
       <use xlink:href="#Calibri-31"/>
       <use xlink:href="#Calibri-30" x="50.683594"/>
       <use xlink:href="#Calibri-25" x="101.367188"/>
      </g>
     </g>
    </g>
    <g id="ytick_6">
     <g id="line2d_37">
      <g>
       <use xlink:href="#mb87dd13a2a" x="60.152188" y="132.617221" style="fill: #7b7e85; stroke: #7b7e85; stroke-width: 0.8"/>
      </g>
     </g>
     <g id="text_23">
      <!-- 12% -->
      <g style="fill: #7b7e85" transform="translate(31.637656 136.35808) scale(0.11 -0.11)">
       <use xlink:href="#Calibri-31"/>
       <use xlink:href="#Calibri-32" x="50.683594"/>
       <use xlink:href="#Calibri-25" x="101.367188"/>
      </g>
     </g>
    </g>
    <g id="ytick_7">
     <g id="line2d_38">
      <g>
       <use xlink:href="#mb87dd13a2a" x="60.152188" y="104.567493" style="fill: #7b7e85; stroke: #7b7e85; stroke-width: 0.8"/>
      </g>
     </g>
     <g id="text_24">
      <!-- 14% -->
      <g style="fill: #7b7e85" transform="translate(31.637656 108.308352) scale(0.11 -0.11)">
       <use xlink:href="#Calibri-31"/>
       <use xlink:href="#Calibri-34" x="50.683594"/>
       <use xlink:href="#Calibri-25" x="101.367188"/>
      </g>
     </g>
    </g>
    <g id="ytick_8">
     <g id="line2d_39">
      <g>
       <use xlink:href="#mb87dd13a2a" x="60.152188" y="76.517765" style="fill: #7b7e85; stroke: #7b7e85; stroke-width: 0.8"/>
      </g>
     </g>
     <g id="text_25">
      <!-- 16% -->
      <g style="fill: #7b7e85" transform="translate(31.637656 80.258625) scale(0.11 -0.11)">
       <use xlink:href="#Calibri-31"/>
       <use xlink:href="#Calibri-36" x="50.683594"/>
       <use xlink:href="#Calibri-25" x="101.367188"/>
      </g>
     </g>
    </g>
    <g id="ytick_9">
     <g id="line2d_40">
      <g>
       <use xlink:href="#mb87dd13a2a" x="60.152188" y="48.468037" style="fill: #7b7e85; stroke: #7b7e85; stroke-width: 0.8"/>
      </g>
     </g>
     <g id="text_26">
      <!-- 18% -->
      <g style="fill: #7b7e85" transform="translate(31.637656 52.208897) scale(0.11 -0.11)">
       <use xlink:href="#Calibri-31"/>
       <use xlink:href="#Calibri-38" x="50.683594"/>
       <use xlink:href="#Calibri-25" x="101.367188"/>
      </g>
     </g>
    </g>
    <g id="text_27">
     <!-- Unemployment Rate -->
     <g style="fill: #00263e" transform="translate(14.681719 204.143347) rotate(-90) scale(0.11 -0.11)">
      <defs>
       <path id="Calibri-55" d="M 3578 1494 
Q 3578 1125 3470 836 
Q 3363 547 3163 347 
Q 2963 147 2675 44 
Q 2388 -59 2022 -59 
Q 1688 -59 1413 37 
Q 1138 134 941 323 
Q 744 513 637 797 
Q 531 1081 531 1453 
L 531 3963 
Q 531 3988 543 4006 
Q 556 4025 587 4036 
Q 619 4047 669 4055 
Q 719 4063 800 4063 
Q 875 4063 928 4055 
Q 981 4047 1011 4036 
Q 1041 4025 1053 4006 
Q 1066 3988 1066 3963 
L 1066 1519 
Q 1066 1238 1134 1028 
Q 1203 819 1333 680 
Q 1463 541 1645 470 
Q 1828 400 2056 400 
Q 2291 400 2473 469 
Q 2656 538 2782 675 
Q 2909 813 2976 1016 
Q 3044 1219 3044 1491 
L 3044 3963 
Q 3044 3988 3056 4006 
Q 3069 4025 3100 4036 
Q 3131 4047 3182 4055 
Q 3234 4063 3313 4063 
Q 3388 4063 3439 4055 
Q 3491 4047 3520 4036 
Q 3550 4025 3564 4006 
Q 3578 3988 3578 3963 
L 3578 1494 
z
" transform="scale(0.015625)"/>
       <path id="Calibri-20" transform="scale(0.015625)"/>
       <path id="Calibri-52" d="M 3234 81 
Q 3234 56 3225 37 
Q 3216 19 3184 6 
Q 3153 -6 3097 -12 
Q 3041 -19 2947 -19 
Q 2866 -19 2814 -12 
Q 2763 -6 2731 8 
Q 2700 22 2683 47 
Q 2666 72 2653 109 
L 2281 1063 
Q 2216 1225 2145 1361 
Q 2075 1497 1978 1595 
Q 1881 1694 1750 1748 
Q 1619 1803 1434 1803 
L 1075 1803 
L 1075 81 
Q 1075 56 1061 37 
Q 1047 19 1017 8 
Q 988 -3 936 -11 
Q 884 -19 806 -19 
Q 728 -19 676 -11 
Q 625 -3 594 8 
Q 563 19 550 37 
Q 538 56 538 81 
L 538 3825 
Q 538 3947 602 3995 
Q 666 4044 738 4044 
L 1597 4044 
Q 1750 4044 1851 4036 
Q 1953 4028 2034 4019 
Q 2269 3978 2448 3890 
Q 2628 3803 2750 3668 
Q 2872 3534 2933 3361 
Q 2994 3188 2994 2978 
Q 2994 2775 2939 2614 
Q 2884 2453 2781 2329 
Q 2678 2206 2534 2115 
Q 2391 2025 2213 1963 
Q 2313 1919 2394 1851 
Q 2475 1784 2545 1690 
Q 2616 1597 2678 1475 
Q 2741 1353 2803 1200 
L 3166 309 
Q 3209 197 3221 151 
Q 3234 106 3234 81 
z
M 2425 2922 
Q 2425 3159 2319 3323 
Q 2213 3488 1963 3559 
Q 1884 3581 1786 3590 
Q 1688 3600 1528 3600 
L 1075 3600 
L 1075 2238 
L 1600 2238 
Q 1813 2238 1967 2289 
Q 2122 2341 2225 2433 
Q 2328 2525 2376 2650 
Q 2425 2775 2425 2922 
z
" transform="scale(0.015625)"/>
      </defs>
      <use xlink:href="#Calibri-55"/>
      <use xlink:href="#Calibri-6e" x="64.160156"/>
      <use xlink:href="#Calibri-65" x="116.699219"/>
      <use xlink:href="#Calibri-6d" x="166.455078"/>
      <use xlink:href="#Calibri-70" x="246.337891"/>
      <use xlink:href="#Calibri-6c" x="298.876953"/>
      <use xlink:href="#Calibri-6f" x="321.826172"/>
      <use xlink:href="#Calibri-79" x="374.560547"/>
      <use xlink:href="#Calibri-6d" x="419.824219"/>
      <use xlink:href="#Calibri-65" x="499.707031"/>
      <use xlink:href="#Calibri-6e" x="549.462891"/>
      <use xlink:href="#Calibri-74" x="602.001953"/>
      <use xlink:href="#Calibri-20" x="635.498047"/>
      <use xlink:href="#Calibri-52" x="658.105469"/>
      <use xlink:href="#Calibri-61" x="712.402344"/>
      <use xlink:href="#Calibri-74" x="760.302734"/>
      <use xlink:href="#Calibri-65" x="793.798828"/>
     </g>
    </g>
   </g>
   <g id="line2d_41">
    <path d="M 60.152187 262.034141 
L 78.106163 260.74442 
L 94.901817 259.573958 
L 112.855793 50.404722 
L 130.230608 100.912187 
L 148.184583 139.921906 
L 165.559398 135.261032 
L 183.513374 173.096809 
L 201.467349 187.336901 
L 218.842164 209.076635 
L 236.79614 218.220225 
L 254.170955 216.052833 
L 272.12493 220.288421 
L 290.078906 224.161382 
L 306.2954 227.874856 
L 324.249375 233.447317 
L 341.62419 235.336619 
L 359.578165 238.019797 
L 376.95298 241.740326 
L 394.906956 246.339493 
L 412.860931 251.056431 
L 430.235746 254.774281 
L 448.189722 256.900224 
L 465.564537 258.005037 
L 483.518512 258.411741 
L 501.472488 258.508548 
L 517.688982 258.477771 
L 535.642957 258.538644 
L 553.017772 258.760743 
L 570.971748 259.140257 
L 588.346562 259.716265 
" clip-path="url(#p333c1a2c89)" style="fill: none; stroke-dasharray: 2.96,1.28; stroke-dashoffset: 0; stroke: #ff0000; stroke-width: 0.8"/>
    <defs>
     <path id="mddeeca56af" d="M 0 3 
C 0.795609 3 1.55874 2.683901 2.12132 2.12132 
C 2.683901 1.55874 3 0.795609 3 0 
C 3 -0.795609 2.683901 -1.55874 2.12132 -2.12132 
C 1.55874 -2.683901 0.795609 -3 0 -3 
C -0.795609 -3 -1.55874 -2.683901 -2.12132 -2.12132 
C -2.683901 -1.55874 -3 -0.795609 -3 0 
C -3 0.795609 -2.683901 1.55874 -2.12132 2.12132 
C -1.55874 2.683901 -0.795609 3 0 3 
z
" style="stroke: #ff0000"/>
    </defs>
    <g clip-path="url(#p333c1a2c89)">
     <use xlink:href="#mddeeca56af" x="60.152187" y="262.034141" style="fill: #ff0000; stroke: #ff0000"/>
     <use xlink:href="#mddeeca56af" x="78.106163" y="260.74442" style="fill: #ff0000; stroke: #ff0000"/>
     <use xlink:href="#mddeeca56af" x="94.901817" y="259.573958" style="fill: #ff0000; stroke: #ff0000"/>
     <use xlink:href="#mddeeca56af" x="112.855793" y="50.404722" style="fill: #ff0000; stroke: #ff0000"/>
     <use xlink:href="#mddeeca56af" x="130.230608" y="100.912187" style="fill: #ff0000; stroke: #ff0000"/>
     <use xlink:href="#mddeeca56af" x="148.184583" y="139.921906" style="fill: #ff0000; stroke: #ff0000"/>
     <use xlink:href="#mddeeca56af" x="165.559398" y="135.261032" style="fill: #ff0000; stroke: #ff0000"/>
     <use xlink:href="#mddeeca56af" x="183.513374" y="173.096809" style="fill: #ff0000; stroke: #ff0000"/>
     <use xlink:href="#mddeeca56af" x="201.467349" y="187.336901" style="fill: #ff0000; stroke: #ff0000"/>
     <use xlink:href="#mddeeca56af" x="218.842164" y="209.076635" style="fill: #ff0000; stroke: #ff0000"/>
     <use xlink:href="#mddeeca56af" x="236.79614" y="218.220225" style="fill: #ff0000; stroke: #ff0000"/>
     <use xlink:href="#mddeeca56af" x="254.170955" y="216.052833" style="fill: #ff0000; stroke: #ff0000"/>
     <use xlink:href="#mddeeca56af" x="272.12493" y="220.288421" style="fill: #ff0000; stroke: #ff0000"/>
     <use xlink:href="#mddeeca56af" x="290.078906" y="224.161382" style="fill: #ff0000; stroke: #ff0000"/>
     <use xlink:href="#mddeeca56af" x="306.2954" y="227.874856" style="fill: #ff0000; stroke: #ff0000"/>
     <use xlink:href="#mddeeca56af" x="324.249375" y="233.447317" style="fill: #ff0000; stroke: #ff0000"/>
     <use xlink:href="#mddeeca56af" x="341.62419" y="235.336619" style="fill: #ff0000; stroke: #ff0000"/>
     <use xlink:href="#mddeeca56af" x="359.578165" y="238.019797" style="fill: #ff0000; stroke: #ff0000"/>
     <use xlink:href="#mddeeca56af" x="376.95298" y="241.740326" style="fill: #ff0000; stroke: #ff0000"/>
     <use xlink:href="#mddeeca56af" x="394.906956" y="246.339493" style="fill: #ff0000; stroke: #ff0000"/>
     <use xlink:href="#mddeeca56af" x="412.860931" y="251.056431" style="fill: #ff0000; stroke: #ff0000"/>
     <use xlink:href="#mddeeca56af" x="430.235746" y="254.774281" style="fill: #ff0000; stroke: #ff0000"/>
     <use xlink:href="#mddeeca56af" x="448.189722" y="256.900224" style="fill: #ff0000; stroke: #ff0000"/>
     <use xlink:href="#mddeeca56af" x="465.564537" y="258.005037" style="fill: #ff0000; stroke: #ff0000"/>
     <use xlink:href="#mddeeca56af" x="483.518512" y="258.411741" style="fill: #ff0000; stroke: #ff0000"/>
     <use xlink:href="#mddeeca56af" x="501.472488" y="258.508548" style="fill: #ff0000; stroke: #ff0000"/>
     <use xlink:href="#mddeeca56af" x="517.688982" y="258.477771" style="fill: #ff0000; stroke: #ff0000"/>
     <use xlink:href="#mddeeca56af" x="535.642957" y="258.538644" style="fill: #ff0000; stroke: #ff0000"/>
     <use xlink:href="#mddeeca56af" x="553.017772" y="258.760743" style="fill: #ff0000; stroke: #ff0000"/>
     <use xlink:href="#mddeeca56af" x="570.971748" y="259.140257" style="fill: #ff0000; stroke: #ff0000"/>
     <use xlink:href="#mddeeca56af" x="588.346562" y="259.716265" style="fill: #ff0000; stroke: #ff0000"/>
    </g>
   </g>
   <g id="line2d_42">
    <path d="M 60.152187 259.901337 
L 78.106163 258.841557 
L 94.901817 257.87867 
L 112.855793 70.002155 
L 130.230608 122.751611 
L 148.184583 165.816251 
L 165.559398 169.396326 
L 183.513374 200.884538 
L 201.467349 211.715059 
L 218.842164 223.761847 
L 236.79614 230.863243 
L 254.170955 228.708397 
L 272.12493 234.100878 
L 290.078906 236.497685 
L 306.2954 237.804823 
L 324.249375 242.788542 
L 341.62419 244.361485 
L 359.578165 246.518143 
L 376.95298 249.417719 
L 394.906956 252.926564 
L 412.860931 256.480779 
L 430.235746 259.305164 
L 448.189722 261.012781 
L 465.564537 261.976438 
L 483.518512 262.299286 
L 501.472488 262.095183 
L 517.688982 261.425061 
L 535.642957 260.670774 
L 553.017772 260.136989 
L 570.971748 259.94803 
L 588.346562 260.160314 
" clip-path="url(#p333c1a2c89)" style="fill: none; stroke-dasharray: 2.96,1.28; stroke-dashoffset: 0; stroke: #d6d0d3; stroke-width: 0.8"/>
    <defs>
     <path id="m6ba3d9f24c" d="M 0 3 
C 0.795609 3 1.55874 2.683901 2.12132 2.12132 
C 2.683901 1.55874 3 0.795609 3 0 
C 3 -0.795609 2.683901 -1.55874 2.12132 -2.12132 
C 1.55874 -2.683901 0.795609 -3 0 -3 
C -0.795609 -3 -1.55874 -2.683901 -2.12132 -2.12132 
C -2.683901 -1.55874 -3 -0.795609 -3 0 
C -3 0.795609 -2.683901 1.55874 -2.12132 2.12132 
C -1.55874 2.683901 -0.795609 3 0 3 
z
" style="stroke: #d6d0d3"/>
    </defs>
    <g clip-path="url(#p333c1a2c89)">
     <use xlink:href="#m6ba3d9f24c" x="60.152187" y="259.901337" style="fill: #d6d0d3; stroke: #d6d0d3"/>
     <use xlink:href="#m6ba3d9f24c" x="78.106163" y="258.841557" style="fill: #d6d0d3; stroke: #d6d0d3"/>
     <use xlink:href="#m6ba3d9f24c" x="94.901817" y="257.87867" style="fill: #d6d0d3; stroke: #d6d0d3"/>
     <use xlink:href="#m6ba3d9f24c" x="112.855793" y="70.002155" style="fill: #d6d0d3; stroke: #d6d0d3"/>
     <use xlink:href="#m6ba3d9f24c" x="130.230608" y="122.751611" style="fill: #d6d0d3; stroke: #d6d0d3"/>
     <use xlink:href="#m6ba3d9f24c" x="148.184583" y="165.816251" style="fill: #d6d0d3; stroke: #d6d0d3"/>
     <use xlink:href="#m6ba3d9f24c" x="165.559398" y="169.396326" style="fill: #d6d0d3; stroke: #d6d0d3"/>
     <use xlink:href="#m6ba3d9f24c" x="183.513374" y="200.884538" style="fill: #d6d0d3; stroke: #d6d0d3"/>
     <use xlink:href="#m6ba3d9f24c" x="201.467349" y="211.715059" style="fill: #d6d0d3; stroke: #d6d0d3"/>
     <use xlink:href="#m6ba3d9f24c" x="218.842164" y="223.761847" style="fill: #d6d0d3; stroke: #d6d0d3"/>
     <use xlink:href="#m6ba3d9f24c" x="236.79614" y="230.863243" style="fill: #d6d0d3; stroke: #d6d0d3"/>
     <use xlink:href="#m6ba3d9f24c" x="254.170955" y="228.708397" style="fill: #d6d0d3; stroke: #d6d0d3"/>
     <use xlink:href="#m6ba3d9f24c" x="272.12493" y="234.100878" style="fill: #d6d0d3; stroke: #d6d0d3"/>
     <use xlink:href="#m6ba3d9f24c" x="290.078906" y="236.497685" style="fill: #d6d0d3; stroke: #d6d0d3"/>
     <use xlink:href="#m6ba3d9f24c" x="306.2954" y="237.804823" style="fill: #d6d0d3; stroke: #d6d0d3"/>
     <use xlink:href="#m6ba3d9f24c" x="324.249375" y="242.788542" style="fill: #d6d0d3; stroke: #d6d0d3"/>
     <use xlink:href="#m6ba3d9f24c" x="341.62419" y="244.361485" style="fill: #d6d0d3; stroke: #d6d0d3"/>
     <use xlink:href="#m6ba3d9f24c" x="359.578165" y="246.518143" style="fill: #d6d0d3; stroke: #d6d0d3"/>
     <use xlink:href="#m6ba3d9f24c" x="376.95298" y="249.417719" style="fill: #d6d0d3; stroke: #d6d0d3"/>
     <use xlink:href="#m6ba3d9f24c" x="394.906956" y="252.926564" style="fill: #d6d0d3; stroke: #d6d0d3"/>
     <use xlink:href="#m6ba3d9f24c" x="412.860931" y="256.480779" style="fill: #d6d0d3; stroke: #d6d0d3"/>
     <use xlink:href="#m6ba3d9f24c" x="430.235746" y="259.305164" style="fill: #d6d0d3; stroke: #d6d0d3"/>
     <use xlink:href="#m6ba3d9f24c" x="448.189722" y="261.012781" style="fill: #d6d0d3; stroke: #d6d0d3"/>
     <use xlink:href="#m6ba3d9f24c" x="465.564537" y="261.976438" style="fill: #d6d0d3; stroke: #d6d0d3"/>
     <use xlink:href="#m6ba3d9f24c" x="483.518512" y="262.299286" style="fill: #d6d0d3; stroke: #d6d0d3"/>
     <use xlink:href="#m6ba3d9f24c" x="501.472488" y="262.095183" style="fill: #d6d0d3; stroke: #d6d0d3"/>
     <use xlink:href="#m6ba3d9f24c" x="517.688982" y="261.425061" style="fill: #d6d0d3; stroke: #d6d0d3"/>
     <use xlink:href="#m6ba3d9f24c" x="535.642957" y="260.670774" style="fill: #d6d0d3; stroke: #d6d0d3"/>
     <use xlink:href="#m6ba3d9f24c" x="553.017772" y="260.136989" style="fill: #d6d0d3; stroke: #d6d0d3"/>
     <use xlink:href="#m6ba3d9f24c" x="570.971748" y="259.94803" style="fill: #d6d0d3; stroke: #d6d0d3"/>
     <use xlink:href="#m6ba3d9f24c" x="588.346562" y="260.160314" style="fill: #d6d0d3; stroke: #d6d0d3"/>
    </g>
   </g>
   <g id="line2d_43">
    <path d="M 60.152187 252.324461 
L 78.106163 251.627054 
L 94.901817 250.898765 
L 112.855793 70.734163 
L 130.230608 119.955418 
L 148.184583 162.656906 
L 165.559398 166.240068 
L 183.513374 192.007979 
L 201.467349 199.940828 
L 218.842164 212.026755 
L 236.79614 220.431286 
L 254.170955 218.829508 
L 272.12493 227.027944 
L 290.078906 227.954783 
L 306.2954 228.135006 
L 324.249375 228.849346 
L 341.62419 230.211373 
L 359.578165 232.263144 
L 376.95298 235.29241 
L 394.906956 239.347561 
L 412.860931 243.979224 
L 430.235746 248.221258 
L 448.189722 251.238908 
L 465.564537 253.203613 
L 483.518512 254.152783 
L 501.472488 254.343681 
L 517.688982 253.909618 
L 535.642957 253.214337 
L 553.017772 252.445983 
L 570.971748 251.748086 
L 588.346562 251.308814 
" clip-path="url(#p333c1a2c89)" style="fill: none; stroke-dasharray: 2.96,1.28; stroke-dashoffset: 0; stroke: #696466; stroke-width: 0.8"/>
    <defs>
     <path id="m3f77be4c5e" d="M 0 3 
C 0.795609 3 1.55874 2.683901 2.12132 2.12132 
C 2.683901 1.55874 3 0.795609 3 0 
C 3 -0.795609 2.683901 -1.55874 2.12132 -2.12132 
C 1.55874 -2.683901 0.795609 -3 0 -3 
C -0.795609 -3 -1.55874 -2.683901 -2.12132 -2.12132 
C -2.683901 -1.55874 -3 -0.795609 -3 0 
C -3 0.795609 -2.683901 1.55874 -2.12132 2.12132 
C -1.55874 2.683901 -0.795609 3 0 3 
z
" style="stroke: #696466"/>
    </defs>
    <g clip-path="url(#p333c1a2c89)">
     <use xlink:href="#m3f77be4c5e" x="60.152187" y="252.324461" style="fill: #696466; stroke: #696466"/>
     <use xlink:href="#m3f77be4c5e" x="78.106163" y="251.627054" style="fill: #696466; stroke: #696466"/>
     <use xlink:href="#m3f77be4c5e" x="94.901817" y="250.898765" style="fill: #696466; stroke: #696466"/>
     <use xlink:href="#m3f77be4c5e" x="112.855793" y="70.734163" style="fill: #696466; stroke: #696466"/>
     <use xlink:href="#m3f77be4c5e" x="130.230608" y="119.955418" style="fill: #696466; stroke: #696466"/>
     <use xlink:href="#m3f77be4c5e" x="148.184583" y="162.656906" style="fill: #696466; stroke: #696466"/>
     <use xlink:href="#m3f77be4c5e" x="165.559398" y="166.240068" style="fill: #696466; stroke: #696466"/>
     <use xlink:href="#m3f77be4c5e" x="183.513374" y="192.007979" style="fill: #696466; stroke: #696466"/>
     <use xlink:href="#m3f77be4c5e" x="201.467349" y="199.940828" style="fill: #696466; stroke: #696466"/>
     <use xlink:href="#m3f77be4c5e" x="218.842164" y="212.026755" style="fill: #696466; stroke: #696466"/>
     <use xlink:href="#m3f77be4c5e" x="236.79614" y="220.431286" style="fill: #696466; stroke: #696466"/>
     <use xlink:href="#m3f77be4c5e" x="254.170955" y="218.829508" style="fill: #696466; stroke: #696466"/>
     <use xlink:href="#m3f77be4c5e" x="272.12493" y="227.027944" style="fill: #696466; stroke: #696466"/>
     <use xlink:href="#m3f77be4c5e" x="290.078906" y="227.954783" style="fill: #696466; stroke: #696466"/>
     <use xlink:href="#m3f77be4c5e" x="306.2954" y="228.135006" style="fill: #696466; stroke: #696466"/>
     <use xlink:href="#m3f77be4c5e" x="324.249375" y="228.849346" style="fill: #696466; stroke: #696466"/>
     <use xlink:href="#m3f77be4c5e" x="341.62419" y="230.211373" style="fill: #696466; stroke: #696466"/>
     <use xlink:href="#m3f77be4c5e" x="359.578165" y="232.263144" style="fill: #696466; stroke: #696466"/>
     <use xlink:href="#m3f77be4c5e" x="376.95298" y="235.29241" style="fill: #696466; stroke: #696466"/>
     <use xlink:href="#m3f77be4c5e" x="394.906956" y="239.347561" style="fill: #696466; stroke: #696466"/>
     <use xlink:href="#m3f77be4c5e" x="412.860931" y="243.979224" style="fill: #696466; stroke: #696466"/>
     <use xlink:href="#m3f77be4c5e" x="430.235746" y="248.221258" style="fill: #696466; stroke: #696466"/>
     <use xlink:href="#m3f77be4c5e" x="448.189722" y="251.238908" style="fill: #696466; stroke: #696466"/>
     <use xlink:href="#m3f77be4c5e" x="465.564537" y="253.203613" style="fill: #696466; stroke: #696466"/>
     <use xlink:href="#m3f77be4c5e" x="483.518512" y="254.152783" style="fill: #696466; stroke: #696466"/>
     <use xlink:href="#m3f77be4c5e" x="501.472488" y="254.343681" style="fill: #696466; stroke: #696466"/>
     <use xlink:href="#m3f77be4c5e" x="517.688982" y="253.909618" style="fill: #696466; stroke: #696466"/>
     <use xlink:href="#m3f77be4c5e" x="535.642957" y="253.214337" style="fill: #696466; stroke: #696466"/>
     <use xlink:href="#m3f77be4c5e" x="553.017772" y="252.445983" style="fill: #696466; stroke: #696466"/>
     <use xlink:href="#m3f77be4c5e" x="570.971748" y="251.748086" style="fill: #696466; stroke: #696466"/>
     <use xlink:href="#m3f77be4c5e" x="588.346562" y="251.308814" style="fill: #696466; stroke: #696466"/>
    </g>
   </g>
   <g id="line2d_44">
    <path d="M 60.152187 247.207318 
L 78.106163 245.306739 
L 94.901817 243.138223 
L 112.855793 94.081992 
L 130.230608 109.312299 
L 148.184583 149.308962 
L 165.559398 159.030275 
L 183.513374 181.429804 
L 201.467349 187.92475 
L 218.842164 201.0728 
L 236.79614 203.988378 
L 254.170955 202.114107 
L 272.12493 211.41262 
L 290.078906 212.940888 
L 306.2954 215.719825 
L 324.249375 217.32441 
L 341.62419 218.691582 
L 359.578165 220.627395 
L 376.95298 223.495522 
L 394.906956 227.424385 
L 412.860931 232.05236 
L 430.235746 236.485303 
L 448.189722 240.009605 
L 465.564537 242.889527 
L 483.518512 245.163913 
L 501.472488 247.041781 
L 517.688982 248.448798 
L 535.642957 249.440668 
L 553.017772 249.979019 
L 570.971748 250.086266 
L 588.346562 249.883068 
" clip-path="url(#p333c1a2c89)" style="fill: none; stroke-dasharray: 2.96,1.28; stroke-dashoffset: 0; stroke: #62a67f; stroke-width: 0.8"/>
    <defs>
     <path id="mf37946690e" d="M 0 3 
C 0.795609 3 1.55874 2.683901 2.12132 2.12132 
C 2.683901 1.55874 3 0.795609 3 0 
C 3 -0.795609 2.683901 -1.55874 2.12132 -2.12132 
C 1.55874 -2.683901 0.795609 -3 0 -3 
C -0.795609 -3 -1.55874 -2.683901 -2.12132 -2.12132 
C -2.683901 -1.55874 -3 -0.795609 -3 0 
C -3 0.795609 -2.683901 1.55874 -2.12132 2.12132 
C -1.55874 2.683901 -0.795609 3 0 3 
z
" style="stroke: #62a67f"/>
    </defs>
    <g clip-path="url(#p333c1a2c89)">
     <use xlink:href="#mf37946690e" x="60.152187" y="247.207318" style="fill: #62a67f; stroke: #62a67f"/>
     <use xlink:href="#mf37946690e" x="78.106163" y="245.306739" style="fill: #62a67f; stroke: #62a67f"/>
     <use xlink:href="#mf37946690e" x="94.901817" y="243.138223" style="fill: #62a67f; stroke: #62a67f"/>
     <use xlink:href="#mf37946690e" x="112.855793" y="94.081992" style="fill: #62a67f; stroke: #62a67f"/>
     <use xlink:href="#mf37946690e" x="130.230608" y="109.312299" style="fill: #62a67f; stroke: #62a67f"/>
     <use xlink:href="#mf37946690e" x="148.184583" y="149.308962" style="fill: #62a67f; stroke: #62a67f"/>
     <use xlink:href="#mf37946690e" x="165.559398" y="159.030275" style="fill: #62a67f; stroke: #62a67f"/>
     <use xlink:href="#mf37946690e" x="183.513374" y="181.429804" style="fill: #62a67f; stroke: #62a67f"/>
     <use xlink:href="#mf37946690e" x="201.467349" y="187.92475" style="fill: #62a67f; stroke: #62a67f"/>
     <use xlink:href="#mf37946690e" x="218.842164" y="201.0728" style="fill: #62a67f; stroke: #62a67f"/>
     <use xlink:href="#mf37946690e" x="236.79614" y="203.988378" style="fill: #62a67f; stroke: #62a67f"/>
     <use xlink:href="#mf37946690e" x="254.170955" y="202.114107" style="fill: #62a67f; stroke: #62a67f"/>
     <use xlink:href="#mf37946690e" x="272.12493" y="211.41262" style="fill: #62a67f; stroke: #62a67f"/>
     <use xlink:href="#mf37946690e" x="290.078906" y="212.940888" style="fill: #62a67f; stroke: #62a67f"/>
     <use xlink:href="#mf37946690e" x="306.2954" y="215.719825" style="fill: #62a67f; stroke: #62a67f"/>
     <use xlink:href="#mf37946690e" x="324.249375" y="217.32441" style="fill: #62a67f; stroke: #62a67f"/>
     <use xlink:href="#mf37946690e" x="341.62419" y="218.691582" style="fill: #62a67f; stroke: #62a67f"/>
     <use xlink:href="#mf37946690e" x="359.578165" y="220.627395" style="fill: #62a67f; stroke: #62a67f"/>
     <use xlink:href="#mf37946690e" x="376.95298" y="223.495522" style="fill: #62a67f; stroke: #62a67f"/>
     <use xlink:href="#mf37946690e" x="394.906956" y="227.424385" style="fill: #62a67f; stroke: #62a67f"/>
     <use xlink:href="#mf37946690e" x="412.860931" y="232.05236" style="fill: #62a67f; stroke: #62a67f"/>
     <use xlink:href="#mf37946690e" x="430.235746" y="236.485303" style="fill: #62a67f; stroke: #62a67f"/>
     <use xlink:href="#mf37946690e" x="448.189722" y="240.009605" style="fill: #62a67f; stroke: #62a67f"/>
     <use xlink:href="#mf37946690e" x="465.564537" y="242.889527" style="fill: #62a67f; stroke: #62a67f"/>
     <use xlink:href="#mf37946690e" x="483.518512" y="245.163913" style="fill: #62a67f; stroke: #62a67f"/>
     <use xlink:href="#mf37946690e" x="501.472488" y="247.041781" style="fill: #62a67f; stroke: #62a67f"/>
     <use xlink:href="#mf37946690e" x="517.688982" y="248.448798" style="fill: #62a67f; stroke: #62a67f"/>
     <use xlink:href="#mf37946690e" x="535.642957" y="249.440668" style="fill: #62a67f; stroke: #62a67f"/>
     <use xlink:href="#mf37946690e" x="553.017772" y="249.979019" style="fill: #62a67f; stroke: #62a67f"/>
     <use xlink:href="#mf37946690e" x="570.971748" y="250.086266" style="fill: #62a67f; stroke: #62a67f"/>
     <use xlink:href="#mf37946690e" x="588.346562" y="249.883068" style="fill: #62a67f; stroke: #62a67f"/>
    </g>
   </g>
   <g id="text_28">
    <!-- Comparative Monthly Unemployment Rate Over Time (Seasonally Adjusted) -->
    <g style="fill: #00263e" transform="translate(45.9975 19.670625) scale(0.18 -0.18)">
     <defs>
      <path id="Calibri-43" d="M 3238 572 
Q 3238 522 3234 484 
Q 3231 447 3223 419 
Q 3216 391 3203 369 
Q 3191 347 3159 315 
Q 3128 284 3028 220 
Q 2928 156 2779 95 
Q 2631 34 2439 -8 
Q 2247 -50 2019 -50 
Q 1625 -50 1308 81 
Q 991 213 767 469 
Q 544 725 423 1101 
Q 303 1478 303 1969 
Q 303 2472 433 2865 
Q 563 3259 797 3532 
Q 1031 3806 1357 3950 
Q 1684 4094 2081 4094 
Q 2256 4094 2422 4061 
Q 2588 4028 2728 3978 
Q 2869 3928 2978 3862 
Q 3088 3797 3130 3755 
Q 3172 3713 3184 3691 
Q 3197 3669 3205 3639 
Q 3213 3609 3217 3568 
Q 3222 3528 3222 3472 
Q 3222 3409 3215 3365 
Q 3209 3322 3196 3292 
Q 3184 3263 3167 3248 
Q 3150 3234 3125 3234 
Q 3081 3234 3003 3295 
Q 2925 3356 2801 3429 
Q 2678 3503 2501 3564 
Q 2325 3625 2078 3625 
Q 1809 3625 1589 3517 
Q 1369 3409 1212 3200 
Q 1056 2991 970 2689 
Q 884 2388 884 2000 
Q 884 1616 967 1320 
Q 1050 1025 1204 826 
Q 1359 628 1584 526 
Q 1809 425 2094 425 
Q 2334 425 2514 484 
Q 2694 544 2820 617 
Q 2947 691 3028 750 
Q 3109 809 3156 809 
Q 3178 809 3193 800 
Q 3209 791 3218 764 
Q 3228 738 3233 691 
Q 3238 644 3238 572 
z
" transform="scale(0.015625)"/>
      <path id="Calibri-68" d="M 2900 78 
Q 2900 53 2887 36 
Q 2875 19 2847 6 
Q 2819 -6 2769 -12 
Q 2719 -19 2644 -19 
Q 2566 -19 2516 -12 
Q 2466 -6 2437 6 
Q 2409 19 2396 36 
Q 2384 53 2384 78 
L 2384 1725 
Q 2384 1966 2346 2112 
Q 2309 2259 2237 2365 
Q 2166 2472 2052 2528 
Q 1938 2584 1788 2584 
Q 1594 2584 1400 2446 
Q 1206 2309 994 2044 
L 994 78 
Q 994 53 981 36 
Q 969 19 941 6 
Q 913 -6 863 -12 
Q 813 -19 734 -19 
Q 659 -19 609 -12 
Q 559 -6 529 6 
Q 500 19 489 36 
Q 478 53 478 78 
L 478 4253 
Q 478 4278 489 4297 
Q 500 4316 529 4328 
Q 559 4341 609 4347 
Q 659 4353 734 4353 
Q 813 4353 863 4347 
Q 913 4341 941 4328 
Q 969 4316 981 4297 
Q 994 4278 994 4253 
L 994 2569 
Q 1216 2803 1441 2917 
Q 1666 3031 1894 3031 
Q 2175 3031 2367 2936 
Q 2559 2841 2678 2681 
Q 2797 2522 2848 2308 
Q 2900 2094 2900 1791 
L 2900 78 
z
" transform="scale(0.015625)"/>
      <path id="Calibri-4f" d="M 3925 2069 
Q 3925 1578 3809 1184 
Q 3694 791 3464 514 
Q 3234 238 2887 89 
Q 2541 -59 2078 -59 
Q 1622 -59 1289 77 
Q 956 213 739 472 
Q 522 731 415 1115 
Q 309 1500 309 2000 
Q 309 2478 425 2868 
Q 541 3259 772 3532 
Q 1003 3806 1350 3954 
Q 1697 4103 2159 4103 
Q 2606 4103 2937 3968 
Q 3269 3834 3489 3576 
Q 3709 3319 3817 2939 
Q 3925 2559 3925 2069 
z
M 3359 2031 
Q 3359 2375 3298 2670 
Q 3238 2966 3095 3183 
Q 2953 3400 2715 3522 
Q 2478 3644 2128 3644 
Q 1778 3644 1540 3512 
Q 1303 3381 1154 3162 
Q 1006 2944 942 2651 
Q 878 2359 878 2038 
Q 878 1681 937 1381 
Q 997 1081 1137 864 
Q 1278 647 1514 526 
Q 1750 406 2106 406 
Q 2459 406 2700 537 
Q 2941 669 3087 892 
Q 3234 1116 3296 1409 
Q 3359 1703 3359 2031 
z
" transform="scale(0.015625)"/>
      <path id="Calibri-28" d="M 1547 4306 
Q 1250 3678 1104 3017 
Q 959 2356 959 1688 
Q 959 1016 1107 356 
Q 1256 -303 1541 -938 
Q 1556 -975 1557 -1001 
Q 1559 -1028 1537 -1045 
Q 1516 -1063 1470 -1070 
Q 1425 -1078 1347 -1078 
Q 1291 -1078 1250 -1075 
Q 1209 -1072 1179 -1062 
Q 1150 -1053 1131 -1040 
Q 1113 -1028 1103 -1013 
Q 934 -694 806 -367 
Q 678 -41 590 296 
Q 503 634 459 979 
Q 416 1325 416 1678 
Q 416 2031 464 2375 
Q 513 2719 602 3058 
Q 691 3397 819 3725 
Q 947 4053 1106 4375 
Q 1109 4388 1123 4397 
Q 1138 4406 1163 4415 
Q 1188 4425 1231 4429 
Q 1275 4434 1344 4434 
Q 1416 4434 1459 4425 
Q 1503 4416 1528 4400 
Q 1553 4384 1556 4359 
Q 1559 4334 1547 4306 
z
" transform="scale(0.015625)"/>
      <path id="Calibri-73" d="M 2244 844 
Q 2244 628 2164 459 
Q 2084 291 1937 175 
Q 1791 59 1587 0 
Q 1384 -59 1141 -59 
Q 991 -59 855 -36 
Q 719 -13 611 23 
Q 503 59 428 98 
Q 353 138 318 169 
Q 284 200 268 256 
Q 253 313 253 409 
Q 253 469 259 509 
Q 266 550 275 575 
Q 284 600 301 611 
Q 319 622 341 622 
Q 375 622 442 580 
Q 509 538 607 488 
Q 706 438 840 395 
Q 975 353 1150 353 
Q 1281 353 1387 381 
Q 1494 409 1572 464 
Q 1650 519 1692 603 
Q 1734 688 1734 803 
Q 1734 922 1673 1003 
Q 1613 1084 1513 1146 
Q 1413 1209 1288 1257 
Q 1163 1306 1030 1359 
Q 897 1413 770 1480 
Q 644 1547 544 1644 
Q 444 1741 383 1875 
Q 322 2009 322 2197 
Q 322 2363 386 2514 
Q 450 2666 578 2780 
Q 706 2894 898 2962 
Q 1091 3031 1347 3031 
Q 1459 3031 1571 3012 
Q 1684 2994 1775 2966 
Q 1866 2938 1930 2905 
Q 1994 2872 2026 2847 
Q 2059 2822 2070 2803 
Q 2081 2784 2086 2761 
Q 2091 2738 2095 2703 
Q 2100 2669 2100 2619 
Q 2100 2566 2095 2527 
Q 2091 2488 2080 2463 
Q 2069 2438 2053 2427 
Q 2038 2416 2019 2416 
Q 1991 2416 1937 2450 
Q 1884 2484 1800 2523 
Q 1716 2563 1602 2597 
Q 1488 2631 1341 2631 
Q 1209 2631 1109 2601 
Q 1009 2572 945 2517 
Q 881 2463 848 2388 
Q 816 2313 816 2225 
Q 816 2103 878 2020 
Q 941 1938 1041 1875 
Q 1141 1813 1269 1763 
Q 1397 1713 1530 1659 
Q 1663 1606 1792 1540 
Q 1922 1475 2022 1381 
Q 2122 1288 2183 1156 
Q 2244 1025 2244 844 
z
" transform="scale(0.015625)"/>
      <path id="Calibri-41" d="M 3566 191 
Q 3591 122 3592 80 
Q 3594 38 3569 16 
Q 3544 -6 3486 -12 
Q 3428 -19 3331 -19 
Q 3234 -19 3176 -14 
Q 3119 -9 3089 2 
Q 3059 13 3045 31 
Q 3031 50 3019 78 
L 2672 1063 
L 991 1063 
L 659 91 
Q 650 63 634 42 
Q 619 22 589 8 
Q 559 -6 504 -12 
Q 450 -19 363 -19 
Q 272 -19 214 -11 
Q 156 -3 132 19 
Q 109 41 111 83 
Q 113 125 138 194 
L 1494 3950 
Q 1506 3984 1526 4006 
Q 1547 4028 1586 4040 
Q 1625 4053 1686 4058 
Q 1747 4063 1841 4063 
Q 1941 4063 2006 4058 
Q 2072 4053 2112 4040 
Q 2153 4028 2175 4004 
Q 2197 3981 2209 3947 
L 3566 191 
z
M 1825 3506 
L 1822 3506 
L 1125 1491 
L 2531 1491 
L 1825 3506 
z
" transform="scale(0.015625)"/>
      <path id="Calibri-64" d="M 2888 78 
Q 2888 53 2877 34 
Q 2866 16 2839 5 
Q 2813 -6 2769 -12 
Q 2725 -19 2663 -19 
Q 2597 -19 2553 -12 
Q 2509 -6 2481 5 
Q 2453 16 2440 34 
Q 2428 53 2428 78 
L 2428 450 
Q 2206 209 1967 75 
Q 1728 -59 1444 -59 
Q 1134 -59 915 61 
Q 697 181 561 386 
Q 425 591 362 867 
Q 300 1144 300 1450 
Q 300 1813 378 2105 
Q 456 2397 609 2603 
Q 763 2809 989 2920 
Q 1216 3031 1513 3031 
Q 1759 3031 1964 2923 
Q 2169 2816 2369 2606 
L 2369 4241 
Q 2369 4263 2380 4283 
Q 2391 4303 2422 4314 
Q 2453 4325 2501 4333 
Q 2550 4341 2625 4341 
Q 2703 4341 2753 4333 
Q 2803 4325 2831 4314 
Q 2859 4303 2873 4283 
Q 2888 4263 2888 4241 
L 2888 78 
z
M 2369 2056 
Q 2159 2316 1964 2452 
Q 1769 2588 1556 2588 
Q 1359 2588 1221 2494 
Q 1084 2400 998 2247 
Q 913 2094 873 1900 
Q 834 1706 834 1506 
Q 834 1294 867 1091 
Q 900 888 981 730 
Q 1063 572 1197 476 
Q 1331 381 1534 381 
Q 1638 381 1733 409 
Q 1828 438 1928 503 
Q 2028 569 2137 673 
Q 2247 778 2369 931 
L 2369 2056 
z
" transform="scale(0.015625)"/>
      <path id="Calibri-6a" d="M 1053 -47 
Q 1053 -359 1006 -551 
Q 959 -744 859 -875 
Q 759 -1006 603 -1073 
Q 447 -1141 225 -1141 
Q 125 -1141 54 -1128 
Q -16 -1116 -53 -1100 
Q -91 -1084 -105 -1064 
Q -119 -1044 -125 -1017 
Q -131 -991 -132 -962 
Q -134 -934 -134 -894 
Q -134 -838 -129 -797 
Q -125 -756 -114 -731 
Q -103 -706 -89 -695 
Q -75 -684 -53 -684 
Q -34 -684 20 -692 
Q 75 -700 147 -700 
Q 250 -700 323 -669 
Q 397 -638 444 -567 
Q 491 -497 512 -384 
Q 534 -272 534 -44 
L 534 2891 
Q 534 2913 546 2931 
Q 559 2950 589 2962 
Q 619 2975 669 2981 
Q 719 2988 794 2988 
Q 869 2988 919 2981 
Q 969 2975 998 2962 
Q 1028 2950 1040 2931 
Q 1053 2913 1053 2891 
L 1053 -47 
z
M 1113 3841 
Q 1113 3659 1044 3593 
Q 975 3528 791 3528 
Q 609 3528 543 3592 
Q 478 3656 478 3834 
Q 478 4016 545 4081 
Q 613 4147 797 4147 
Q 981 4147 1047 4083 
Q 1113 4019 1113 3841 
z
" transform="scale(0.015625)"/>
      <path id="Calibri-29" d="M 1522 1678 
Q 1522 1325 1478 979 
Q 1434 634 1346 296 
Q 1259 -41 1132 -367 
Q 1006 -694 838 -1013 
Q 828 -1028 809 -1040 
Q 791 -1053 761 -1062 
Q 731 -1072 690 -1075 
Q 650 -1078 594 -1078 
Q 513 -1078 467 -1070 
Q 422 -1063 401 -1045 
Q 381 -1028 382 -1001 
Q 384 -975 400 -938 
Q 688 -306 834 355 
Q 981 1016 981 1688 
Q 981 2356 834 3017 
Q 688 3678 394 4306 
Q 381 4334 384 4359 
Q 388 4384 413 4400 
Q 438 4416 481 4425 
Q 525 4434 597 4434 
Q 663 4434 706 4429 
Q 750 4425 776 4415 
Q 803 4406 815 4397 
Q 828 4388 834 4375 
Q 1156 3734 1339 3057 
Q 1522 2381 1522 1678 
z
" transform="scale(0.015625)"/>
     </defs>
     <use xlink:href="#Calibri-43"/>
     <use xlink:href="#Calibri-6f" x="53.320312"/>
     <use xlink:href="#Calibri-6d" x="106.054688"/>
     <use xlink:href="#Calibri-70" x="185.9375"/>
     <use xlink:href="#Calibri-61" x="238.476562"/>
     <use xlink:href="#Calibri-72" x="286.376953"/>
     <use xlink:href="#Calibri-61" x="321.240234"/>
     <use xlink:href="#Calibri-74" x="369.140625"/>
     <use xlink:href="#Calibri-69" x="402.636719"/>
     <use xlink:href="#Calibri-76" x="425.585938"/>
     <use xlink:href="#Calibri-65" x="470.751953"/>
     <use xlink:href="#Calibri-20" x="520.507812"/>
     <use xlink:href="#Calibri-4d" x="543.115234"/>
     <use xlink:href="#Calibri-6f" x="628.613281"/>
     <use xlink:href="#Calibri-6e" x="681.347656"/>
     <use xlink:href="#Calibri-74" x="733.886719"/>
     <use xlink:href="#Calibri-68" x="767.382812"/>
     <use xlink:href="#Calibri-6c" x="819.921875"/>
     <use xlink:href="#Calibri-79" x="842.871094"/>
     <use xlink:href="#Calibri-20" x="888.134766"/>
     <use xlink:href="#Calibri-55" x="910.742188"/>
     <use xlink:href="#Calibri-6e" x="974.902344"/>
     <use xlink:href="#Calibri-65" x="1027.441406"/>
     <use xlink:href="#Calibri-6d" x="1077.197266"/>
     <use xlink:href="#Calibri-70" x="1157.080078"/>
     <use xlink:href="#Calibri-6c" x="1209.619141"/>
     <use xlink:href="#Calibri-6f" x="1232.568359"/>
     <use xlink:href="#Calibri-79" x="1285.302734"/>
     <use xlink:href="#Calibri-6d" x="1330.566406"/>
     <use xlink:href="#Calibri-65" x="1410.449219"/>
     <use xlink:href="#Calibri-6e" x="1460.205078"/>
     <use xlink:href="#Calibri-74" x="1512.744141"/>
     <use xlink:href="#Calibri-20" x="1546.240234"/>
     <use xlink:href="#Calibri-52" x="1568.847656"/>
     <use xlink:href="#Calibri-61" x="1623.144531"/>
     <use xlink:href="#Calibri-74" x="1671.044922"/>
     <use xlink:href="#Calibri-65" x="1704.541016"/>
     <use xlink:href="#Calibri-20" x="1754.296875"/>
     <use xlink:href="#Calibri-4f" x="1776.904297"/>
     <use xlink:href="#Calibri-76" x="1843.115234"/>
     <use xlink:href="#Calibri-65" x="1888.28125"/>
     <use xlink:href="#Calibri-72" x="1938.037109"/>
     <use xlink:href="#Calibri-20" x="1972.900391"/>
     <use xlink:href="#Calibri-54" x="1995.507812"/>
     <use xlink:href="#Calibri-69" x="2044.238281"/>
     <use xlink:href="#Calibri-6d" x="2067.1875"/>
     <use xlink:href="#Calibri-65" x="2147.070312"/>
     <use xlink:href="#Calibri-20" x="2196.826172"/>
     <use xlink:href="#Calibri-28" x="2219.433594"/>
     <use xlink:href="#Calibri-53" x="2249.755859"/>
     <use xlink:href="#Calibri-65" x="2295.703125"/>
     <use xlink:href="#Calibri-61" x="2345.458984"/>
     <use xlink:href="#Calibri-73" x="2393.359375"/>
     <use xlink:href="#Calibri-6f" x="2432.470703"/>
     <use xlink:href="#Calibri-6e" x="2485.205078"/>
     <use xlink:href="#Calibri-61" x="2537.744141"/>
     <use xlink:href="#Calibri-6c" x="2585.644531"/>
     <use xlink:href="#Calibri-6c" x="2608.59375"/>
     <use xlink:href="#Calibri-79" x="2631.542969"/>
     <use xlink:href="#Calibri-20" x="2676.806641"/>
     <use xlink:href="#Calibri-41" x="2699.414062"/>
     <use xlink:href="#Calibri-64" x="2757.275391"/>
     <use xlink:href="#Calibri-6a" x="2809.814453"/>
     <use xlink:href="#Calibri-75" x="2833.740234"/>
     <use xlink:href="#Calibri-73" x="2886.279297"/>
     <use xlink:href="#Calibri-74" x="2925.390625"/>
     <use xlink:href="#Calibri-65" x="2958.886719"/>
     <use xlink:href="#Calibri-64" x="3008.642578"/>
     <use xlink:href="#Calibri-29" x="3061.181641"/>
    </g>
   </g>
   <g id="legend_1">
    <g id="line2d_45">
     <path d="M 592.964619 53.420625 
L 603.964619 53.420625 
L 614.964619 53.420625 
" style="fill: none; stroke: #d0dd28; stroke-width: 1.1; stroke-linecap: square"/>
     <defs>
      <path id="m0e04f3171c" d="M 0 3 
C 0.795609 3 1.55874 2.683901 2.12132 2.12132 
C 2.683901 1.55874 3 0.795609 3 0 
C 3 -0.795609 2.683901 -1.55874 2.12132 -2.12132 
C 1.55874 -2.683901 0.795609 -3 0 -3 
C -0.795609 -3 -1.55874 -2.683901 -2.12132 -2.12132 
C -2.683901 -1.55874 -3 -0.795609 -3 0 
C -3 0.795609 -2.683901 1.55874 -2.12132 2.12132 
C -1.55874 2.683901 -0.795609 3 0 3 
z
" style="stroke: #d0dd28"/>
     </defs>
     <g>
      <use xlink:href="#m0e04f3171c" x="603.964619" y="53.420625" style="fill: #d0dd28; stroke: #d0dd28"/>
     </g>
    </g>
    <g id="text_29">
     <!-- Sumner County -->
     <g style="fill: #00263e" transform="translate(623.764619 57.270625) scale(0.11 -0.11)">
      <use xlink:href="#Calibri-53"/>
      <use xlink:href="#Calibri-75" x="45.947266"/>
      <use xlink:href="#Calibri-6d" x="98.486328"/>
      <use xlink:href="#Calibri-6e" x="178.369141"/>
      <use xlink:href="#Calibri-65" x="230.908203"/>
      <use xlink:href="#Calibri-72" x="280.664062"/>
      <use xlink:href="#Calibri-20" x="315.527344"/>
      <use xlink:href="#Calibri-43" x="338.134766"/>
      <use xlink:href="#Calibri-6f" x="391.455078"/>
      <use xlink:href="#Calibri-75" x="444.189453"/>
      <use xlink:href="#Calibri-6e" x="496.728516"/>
      <use xlink:href="#Calibri-74" x="549.267578"/>
      <use xlink:href="#Calibri-79" x="582.763672"/>
     </g>
    </g>
    <g id="line2d_46">
     <path d="M 592.964619 68.576562 
L 603.964619 68.576562 
L 614.964619 68.576562 
" style="fill: none; stroke-dasharray: 2.96,1.28; stroke-dashoffset: 0; stroke: #ff0000; stroke-width: 0.8"/>
     <g>
      <use xlink:href="#mddeeca56af" x="603.964619" y="68.576562" style="fill: #ff0000; stroke: #ff0000"/>
     </g>
    </g>
    <g id="text_30">
     <!-- Davidson County -->
     <g style="fill: #00263e" transform="translate(623.764619 72.426562) scale(0.11 -0.11)">
      <defs>
       <path id="Calibri-44" d="M 3647 2081 
Q 3647 1556 3512 1164 
Q 3378 772 3120 514 
Q 2863 256 2488 128 
Q 2113 0 1594 0 
L 738 0 
Q 666 0 602 48 
Q 538 97 538 219 
L 538 3825 
Q 538 3947 602 3995 
Q 666 4044 738 4044 
L 1653 4044 
Q 2178 4044 2540 3908 
Q 2903 3772 3148 3517 
Q 3394 3263 3520 2900 
Q 3647 2538 3647 2081 
z
M 3081 2059 
Q 3081 2388 3000 2670 
Q 2919 2953 2745 3159 
Q 2572 3366 2306 3481 
Q 2041 3597 1622 3597 
L 1075 3597 
L 1075 450 
L 1628 450 
Q 2016 450 2281 547 
Q 2547 644 2725 844 
Q 2903 1044 2992 1345 
Q 3081 1647 3081 2059 
z
" transform="scale(0.015625)"/>
      </defs>
      <use xlink:href="#Calibri-44"/>
      <use xlink:href="#Calibri-61" x="61.523438"/>
      <use xlink:href="#Calibri-76" x="109.423828"/>
      <use xlink:href="#Calibri-69" x="154.589844"/>
      <use xlink:href="#Calibri-64" x="177.539062"/>
      <use xlink:href="#Calibri-73" x="230.078125"/>
      <use xlink:href="#Calibri-6f" x="269.189453"/>
      <use xlink:href="#Calibri-6e" x="321.923828"/>
      <use xlink:href="#Calibri-20" x="374.462891"/>
      <use xlink:href="#Calibri-43" x="397.070312"/>
      <use xlink:href="#Calibri-6f" x="450.390625"/>
      <use xlink:href="#Calibri-75" x="503.125"/>
      <use xlink:href="#Calibri-6e" x="555.664062"/>
      <use xlink:href="#Calibri-74" x="608.203125"/>
      <use xlink:href="#Calibri-79" x="641.699219"/>
     </g>
    </g>
    <g id="line2d_47">
     <path d="M 592.964619 83.7325 
L 603.964619 83.7325 
L 614.964619 83.7325 
" style="fill: none; stroke-dasharray: 2.96,1.28; stroke-dashoffset: 0; stroke: #d6d0d3; stroke-width: 0.8"/>
     <g>
      <use xlink:href="#m6ba3d9f24c" x="603.964619" y="83.7325" style="fill: #d6d0d3; stroke: #d6d0d3"/>
     </g>
    </g>
    <g id="text_31">
     <!-- GNRC -->
     <g style="fill: #00263e" transform="translate(623.764619 87.5825) scale(0.11 -0.11)">
      <defs>
       <path id="Calibri-47" d="M 3575 3494 
Q 3575 3434 3569 3389 
Q 3563 3344 3550 3314 
Q 3538 3284 3519 3271 
Q 3500 3259 3478 3259 
Q 3441 3259 3353 3318 
Q 3266 3378 3119 3450 
Q 2972 3522 2767 3581 
Q 2563 3641 2281 3641 
Q 1947 3641 1681 3519 
Q 1416 3397 1231 3181 
Q 1047 2966 948 2669 
Q 850 2372 850 2025 
Q 850 1638 958 1338 
Q 1066 1038 1256 831 
Q 1447 625 1711 519 
Q 1975 413 2291 413 
Q 2478 413 2670 458 
Q 2863 503 3028 594 
L 3028 1772 
L 2091 1772 
Q 2038 1772 2011 1825 
Q 1984 1878 1984 1991 
Q 1984 2050 1990 2092 
Q 1997 2134 2011 2161 
Q 2025 2188 2044 2200 
Q 2063 2213 2091 2213 
L 3375 2213 
Q 3409 2213 3443 2200 
Q 3478 2188 3506 2163 
Q 3534 2138 3550 2094 
Q 3566 2050 3566 1994 
L 3566 453 
Q 3566 372 3537 312 
Q 3509 253 3418 208 
Q 3328 163 3184 109 
Q 3041 56 2887 18 
Q 2734 -19 2578 -37 
Q 2422 -56 2269 -56 
Q 1800 -56 1431 89 
Q 1063 234 808 503 
Q 553 772 418 1147 
Q 284 1522 284 1984 
Q 284 2466 429 2856 
Q 575 3247 839 3522 
Q 1103 3797 1473 3948 
Q 1844 4100 2294 4100 
Q 2525 4100 2728 4059 
Q 2931 4019 3089 3964 
Q 3247 3909 3355 3845 
Q 3463 3781 3503 3740 
Q 3544 3700 3559 3647 
Q 3575 3594 3575 3494 
z
" transform="scale(0.015625)"/>
      </defs>
      <use xlink:href="#Calibri-47"/>
      <use xlink:href="#Calibri-4e" x="63.085938"/>
      <use xlink:href="#Calibri-52" x="127.636719"/>
      <use xlink:href="#Calibri-43" x="181.933594"/>
     </g>
    </g>
    <g id="line2d_48">
     <path d="M 592.964619 98.888437 
L 603.964619 98.888437 
L 614.964619 98.888437 
" style="fill: none; stroke-dasharray: 2.96,1.28; stroke-dashoffset: 0; stroke: #696466; stroke-width: 0.8"/>
     <g>
      <use xlink:href="#m3f77be4c5e" x="603.964619" y="98.888437" style="fill: #696466; stroke: #696466"/>
     </g>
    </g>
    <g id="text_32">
     <!-- Tennessee -->
     <g style="fill: #00263e" transform="translate(623.764619 102.738437) scale(0.11 -0.11)">
      <use xlink:href="#Calibri-54"/>
      <use xlink:href="#Calibri-65" x="48.730469"/>
      <use xlink:href="#Calibri-6e" x="98.486328"/>
      <use xlink:href="#Calibri-6e" x="151.025391"/>
      <use xlink:href="#Calibri-65" x="203.564453"/>
      <use xlink:href="#Calibri-73" x="253.320312"/>
      <use xlink:href="#Calibri-73" x="292.431641"/>
      <use xlink:href="#Calibri-65" x="331.542969"/>
      <use xlink:href="#Calibri-65" x="381.298828"/>
     </g>
    </g>
    <g id="line2d_49">
     <path d="M 592.964619 114.044375 
L 603.964619 114.044375 
L 614.964619 114.044375 
" style="fill: none; stroke-dasharray: 2.96,1.28; stroke-dashoffset: 0; stroke: #62a67f; stroke-width: 0.8"/>
     <g>
      <use xlink:href="#mf37946690e" x="603.964619" y="114.044375" style="fill: #62a67f; stroke: #62a67f"/>
     </g>
    </g>
    <g id="text_33">
     <!-- US -->
     <g style="fill: #00263e" transform="translate(623.764619 117.894375) scale(0.11 -0.11)">
      <use xlink:href="#Calibri-55"/>
      <use xlink:href="#Calibri-53" x="64.160156"/>
     </g>
    </g>
   </g>
   <g id="line2d_50">
    <path d="M 60.152187 259.815062 
L 78.106163 259.111635 
L 94.901817 258.555734 
L 112.855793 76.875565 
L 130.230608 134.787415 
L 148.184583 177.536295 
L 165.559398 185.563424 
L 183.513374 213.229089 
L 201.467349 222.542471 
L 218.842164 231.048937 
L 236.79614 236.53244 
L 254.170955 234.025919 
L 272.12493 240.462594 
L 290.078906 243.500196 
L 306.2954 243.317322 
L 324.249375 248.351894 
L 341.62419 249.790907 
L 359.578165 251.784564 
L 376.95298 254.42766 
L 394.906956 257.551751 
L 412.860931 260.616498 
L 430.235746 262.95002 
L 448.189722 264.26896 
L 465.564537 264.962854 
L 483.518512 265.086659 
L 501.472488 264.722943 
L 517.688982 263.889534 
L 535.642957 263.000257 
L 553.017772 262.329969 
L 570.971748 261.984057 
L 588.346562 261.992462 
" clip-path="url(#p333c1a2c89)" style="fill: none; stroke: #d0dd28; stroke-width: 1.1; stroke-linecap: square"/>
    <g clip-path="url(#p333c1a2c89)">
     <use xlink:href="#m0e04f3171c" x="60.152187" y="259.815062" style="fill: #d0dd28; stroke: #d0dd28"/>
     <use xlink:href="#m0e04f3171c" x="78.106163" y="259.111635" style="fill: #d0dd28; stroke: #d0dd28"/>
     <use xlink:href="#m0e04f3171c" x="94.901817" y="258.555734" style="fill: #d0dd28; stroke: #d0dd28"/>
     <use xlink:href="#m0e04f3171c" x="112.855793" y="76.875565" style="fill: #d0dd28; stroke: #d0dd28"/>
     <use xlink:href="#m0e04f3171c" x="130.230608" y="134.787415" style="fill: #d0dd28; stroke: #d0dd28"/>
     <use xlink:href="#m0e04f3171c" x="148.184583" y="177.536295" style="fill: #d0dd28; stroke: #d0dd28"/>
     <use xlink:href="#m0e04f3171c" x="165.559398" y="185.563424" style="fill: #d0dd28; stroke: #d0dd28"/>
     <use xlink:href="#m0e04f3171c" x="183.513374" y="213.229089" style="fill: #d0dd28; stroke: #d0dd28"/>
     <use xlink:href="#m0e04f3171c" x="201.467349" y="222.542471" style="fill: #d0dd28; stroke: #d0dd28"/>
     <use xlink:href="#m0e04f3171c" x="218.842164" y="231.048937" style="fill: #d0dd28; stroke: #d0dd28"/>
     <use xlink:href="#m0e04f3171c" x="236.79614" y="236.53244" style="fill: #d0dd28; stroke: #d0dd28"/>
     <use xlink:href="#m0e04f3171c" x="254.170955" y="234.025919" style="fill: #d0dd28; stroke: #d0dd28"/>
     <use xlink:href="#m0e04f3171c" x="272.12493" y="240.462594" style="fill: #d0dd28; stroke: #d0dd28"/>
     <use xlink:href="#m0e04f3171c" x="290.078906" y="243.500196" style="fill: #d0dd28; stroke: #d0dd28"/>
     <use xlink:href="#m0e04f3171c" x="306.2954" y="243.317322" style="fill: #d0dd28; stroke: #d0dd28"/>
     <use xlink:href="#m0e04f3171c" x="324.249375" y="248.351894" style="fill: #d0dd28; stroke: #d0dd28"/>
     <use xlink:href="#m0e04f3171c" x="341.62419" y="249.790907" style="fill: #d0dd28; stroke: #d0dd28"/>
     <use xlink:href="#m0e04f3171c" x="359.578165" y="251.784564" style="fill: #d0dd28; stroke: #d0dd28"/>
     <use xlink:href="#m0e04f3171c" x="376.95298" y="254.42766" style="fill: #d0dd28; stroke: #d0dd28"/>
     <use xlink:href="#m0e04f3171c" x="394.906956" y="257.551751" style="fill: #d0dd28; stroke: #d0dd28"/>
     <use xlink:href="#m0e04f3171c" x="412.860931" y="260.616498" style="fill: #d0dd28; stroke: #d0dd28"/>
     <use xlink:href="#m0e04f3171c" x="430.235746" y="262.95002" style="fill: #d0dd28; stroke: #d0dd28"/>
     <use xlink:href="#m0e04f3171c" x="448.189722" y="264.26896" style="fill: #d0dd28; stroke: #d0dd28"/>
     <use xlink:href="#m0e04f3171c" x="465.564537" y="264.962854" style="fill: #d0dd28; stroke: #d0dd28"/>
     <use xlink:href="#m0e04f3171c" x="483.518512" y="265.086659" style="fill: #d0dd28; stroke: #d0dd28"/>
     <use xlink:href="#m0e04f3171c" x="501.472488" y="264.722943" style="fill: #d0dd28; stroke: #d0dd28"/>
     <use xlink:href="#m0e04f3171c" x="517.688982" y="263.889534" style="fill: #d0dd28; stroke: #d0dd28"/>
     <use xlink:href="#m0e04f3171c" x="535.642957" y="263.000257" style="fill: #d0dd28; stroke: #d0dd28"/>
     <use xlink:href="#m0e04f3171c" x="553.017772" y="262.329969" style="fill: #d0dd28; stroke: #d0dd28"/>
     <use xlink:href="#m0e04f3171c" x="570.971748" y="261.984057" style="fill: #d0dd28; stroke: #d0dd28"/>
     <use xlink:href="#m0e04f3171c" x="588.346562" y="261.992462" style="fill: #d0dd28; stroke: #d0dd28"/>
    </g>
   </g>
  </g>
 </g>
 <defs>
  <clipPath id="p333c1a2c89">
   <rect x="60.152188" y="39.670625" width="528.194375" height="236.150131"/>
  </clipPath>
 </defs>
</svg>
