<?xml version="1.0" encoding="utf-8" standalone="no"?>
<!DOCTYPE svg PUBLIC "-//W3C//DTD SVG 1.1//EN"
  "http://www.w3.org/Graphics/SVG/1.1/DTD/svg11.dtd">
<svg xmlns:xlink="http://www.w3.org/1999/xlink" width="710.64pt" height="350.64pt" viewBox="0 0 710.64 350.64" xmlns="http://www.w3.org/2000/svg" version="1.1">
 <metadata>
  <rdf:RDF xmlns:dc="http://purl.org/dc/elements/1.1/" xmlns:cc="http://creativecommons.org/ns#" xmlns:rdf="http://www.w3.org/1999/02/22-rdf-syntax-ns#">
   <cc:Work>
    <dc:type rdf:resource="http://purl.org/dc/dcmitype/StillImage"/>
    <dc:date>2023-05-16T10:40:53.108954</dc:date>
    <dc:format>image/svg+xml</dc:format>
    <dc:creator>
     <cc:Agent>
      <dc:title>Matplotlib v3.7.0, https://matplotlib.org/</dc:title>
     </cc:Agent>
    </dc:creator>
   </cc:Work>
  </rdf:RDF>
 </metadata>
 <defs>
  <style type="text/css">*{stroke-linejoin: round; stroke-linecap: butt}</style>
 </defs>
 <g id="figure_1">
  <g id="axes_1">
   <g id="table_1">
    <g id="patch_1">
     <path d="M 180.82425 138.93039 
M 240.86775 138.93039 
L 240.86775 102.540779 
M 180.82425 102.540779 
L 180.82425 138.93039 
" style="fill: #ffffff; stroke: #e1eff2; stroke-linejoin: miter"/>
    </g>
    <g id="text_1">
     <!-- Population -->
     <g style="fill: #00263e" transform="translate(185.827875 123.499334) scale(0.11 -0.11)">
      <defs>
       <path id="Calibri-Bold-50" d="M 3209 2816 
Q 3209 2475 3103 2212 
Q 2997 1950 2794 1770 
Q 2591 1591 2295 1497 
Q 2000 1403 1600 1403 
L 1263 1403 
L 1263 113 
Q 1263 81 1242 56 
Q 1222 31 1175 15 
Q 1128 0 1050 -9 
Q 972 -19 850 -19 
Q 731 -19 651 -9 
Q 572 0 525 15 
Q 478 31 459 56 
Q 441 81 441 113 
L 441 3750 
Q 441 3897 517 3970 
Q 594 4044 719 4044 
L 1672 4044 
Q 1816 4044 1945 4033 
Q 2075 4022 2256 3986 
Q 2438 3950 2623 3853 
Q 2809 3756 2940 3607 
Q 3072 3459 3140 3261 
Q 3209 3063 3209 2816 
z
M 2350 2756 
Q 2350 2969 2275 3106 
Q 2200 3244 2090 3309 
Q 1981 3375 1861 3392 
Q 1741 3409 1613 3409 
L 1263 3409 
L 1263 2038 
L 1631 2038 
Q 1828 2038 1961 2091 
Q 2094 2144 2178 2239 
Q 2263 2334 2306 2467 
Q 2350 2600 2350 2756 
z
" transform="scale(0.015625)"/>
       <path id="Calibri-Bold-6f" d="M 3213 1528 
Q 3213 1172 3119 878 
Q 3025 584 2834 371 
Q 2644 159 2356 43 
Q 2069 -72 1684 -72 
Q 1313 -72 1038 31 
Q 763 134 581 331 
Q 400 528 312 815 
Q 225 1103 225 1472 
Q 225 1828 320 2123 
Q 416 2419 606 2630 
Q 797 2841 1083 2956 
Q 1369 3072 1753 3072 
Q 2128 3072 2403 2970 
Q 2678 2869 2858 2672 
Q 3038 2475 3125 2187 
Q 3213 1900 3213 1528 
z
M 2403 1497 
Q 2403 1703 2370 1876 
Q 2338 2050 2259 2178 
Q 2181 2306 2051 2378 
Q 1922 2450 1725 2450 
Q 1550 2450 1419 2386 
Q 1288 2322 1203 2198 
Q 1119 2075 1076 1901 
Q 1034 1728 1034 1506 
Q 1034 1300 1068 1126 
Q 1103 953 1179 825 
Q 1256 697 1387 626 
Q 1519 556 1713 556 
Q 1891 556 2022 620 
Q 2153 684 2237 806 
Q 2322 928 2362 1101 
Q 2403 1275 2403 1497 
z
" transform="scale(0.015625)"/>
       <path id="Calibri-Bold-70" d="M 3200 1541 
Q 3200 1169 3120 870 
Q 3041 572 2887 362 
Q 2734 153 2506 40 
Q 2278 -72 1984 -72 
Q 1863 -72 1761 -48 
Q 1659 -25 1564 23 
Q 1469 72 1375 144 
Q 1281 216 1181 313 
L 1181 -1000 
Q 1181 -1031 1162 -1056 
Q 1144 -1081 1098 -1098 
Q 1053 -1116 978 -1125 
Q 903 -1134 788 -1134 
Q 672 -1134 597 -1125 
Q 522 -1116 476 -1098 
Q 431 -1081 412 -1056 
Q 394 -1031 394 -1000 
L 394 2894 
Q 394 2925 409 2948 
Q 425 2972 464 2987 
Q 503 3003 567 3011 
Q 631 3019 728 3019 
Q 822 3019 886 3011 
Q 950 3003 989 2987 
Q 1028 2972 1043 2948 
Q 1059 2925 1059 2894 
L 1059 2566 
Q 1181 2691 1298 2786 
Q 1416 2881 1537 2945 
Q 1659 3009 1789 3040 
Q 1919 3072 2066 3072 
Q 2372 3072 2587 2951 
Q 2803 2831 2939 2622 
Q 3075 2413 3137 2134 
Q 3200 1856 3200 1541 
z
M 2381 1484 
Q 2381 1663 2354 1827 
Q 2328 1991 2264 2119 
Q 2200 2247 2095 2323 
Q 1991 2400 1834 2400 
Q 1756 2400 1679 2376 
Q 1603 2353 1523 2300 
Q 1444 2247 1359 2162 
Q 1275 2078 1181 1953 
L 1181 1034 
Q 1347 825 1497 711 
Q 1647 597 1809 597 
Q 1963 597 2070 675 
Q 2178 753 2247 879 
Q 2316 1006 2348 1165 
Q 2381 1325 2381 1484 
z
" transform="scale(0.015625)"/>
       <path id="Calibri-Bold-75" d="M 3038 106 
Q 3038 75 3022 51 
Q 3006 28 2967 12 
Q 2928 -3 2864 -11 
Q 2800 -19 2703 -19 
Q 2600 -19 2536 -11 
Q 2472 -3 2434 12 
Q 2397 28 2381 51 
Q 2366 75 2366 106 
L 2366 428 
Q 2134 178 1895 53 
Q 1656 -72 1400 -72 
Q 1113 -72 917 22 
Q 722 116 601 278 
Q 481 441 429 655 
Q 378 869 378 1188 
L 378 2894 
Q 378 2925 395 2948 
Q 413 2972 458 2987 
Q 503 3003 579 3011 
Q 656 3019 769 3019 
Q 884 3019 959 3011 
Q 1034 3003 1079 2987 
Q 1125 2972 1144 2948 
Q 1163 2925 1163 2894 
L 1163 1319 
Q 1163 1100 1191 984 
Q 1219 869 1276 786 
Q 1334 703 1423 658 
Q 1513 613 1631 613 
Q 1781 613 1932 722 
Q 2084 831 2256 1041 
L 2256 2894 
Q 2256 2925 2273 2948 
Q 2291 2972 2336 2987 
Q 2381 3003 2456 3011 
Q 2531 3019 2647 3019 
Q 2763 3019 2838 3011 
Q 2913 3003 2956 2987 
Q 3000 2972 3019 2948 
Q 3038 2925 3038 2894 
L 3038 106 
z
" transform="scale(0.015625)"/>
       <path id="Calibri-Bold-6c" d="M 1181 106 
Q 1181 75 1162 51 
Q 1144 28 1098 12 
Q 1053 -3 978 -11 
Q 903 -19 788 -19 
Q 672 -19 597 -11 
Q 522 -3 476 12 
Q 431 28 412 51 
Q 394 75 394 106 
L 394 4216 
Q 394 4247 412 4272 
Q 431 4297 476 4314 
Q 522 4331 597 4340 
Q 672 4350 788 4350 
Q 903 4350 978 4340 
Q 1053 4331 1098 4314 
Q 1144 4297 1162 4272 
Q 1181 4247 1181 4216 
L 1181 106 
z
" transform="scale(0.015625)"/>
       <path id="Calibri-Bold-61" d="M 2769 97 
Q 2769 53 2737 28 
Q 2706 3 2639 -8 
Q 2572 -19 2441 -19 
Q 2300 -19 2236 -8 
Q 2172 3 2145 28 
Q 2119 53 2119 97 
L 2119 319 
Q 1947 134 1726 31 
Q 1506 -72 1238 -72 
Q 1016 -72 830 -14 
Q 644 44 508 158 
Q 372 272 297 440 
Q 222 609 222 834 
Q 222 1078 317 1258 
Q 413 1438 602 1555 
Q 791 1672 1072 1728 
Q 1353 1784 1725 1784 
L 1997 1784 
L 1997 1953 
Q 1997 2084 1970 2182 
Q 1944 2281 1883 2347 
Q 1822 2413 1720 2444 
Q 1619 2475 1469 2475 
Q 1272 2475 1117 2431 
Q 963 2388 844 2334 
Q 725 2281 645 2237 
Q 566 2194 516 2194 
Q 481 2194 454 2216 
Q 428 2238 411 2278 
Q 394 2319 384 2378 
Q 375 2438 375 2509 
Q 375 2606 390 2662 
Q 406 2719 450 2764 
Q 494 2809 603 2864 
Q 713 2919 859 2966 
Q 1006 3013 1179 3042 
Q 1353 3072 1538 3072 
Q 1866 3072 2098 3008 
Q 2331 2944 2481 2811 
Q 2631 2678 2700 2468 
Q 2769 2259 2769 1972 
L 2769 97 
z
M 1997 1291 
L 1697 1291 
Q 1506 1291 1372 1262 
Q 1238 1234 1153 1178 
Q 1069 1122 1030 1042 
Q 991 963 991 859 
Q 991 684 1102 584 
Q 1213 484 1409 484 
Q 1575 484 1714 568 
Q 1853 653 1997 816 
L 1997 1291 
z
" transform="scale(0.015625)"/>
       <path id="Calibri-Bold-74" d="M 2044 381 
Q 2044 244 2026 170 
Q 2009 97 1981 67 
Q 1953 38 1898 14 
Q 1844 -9 1770 -26 
Q 1697 -44 1611 -53 
Q 1525 -63 1438 -63 
Q 1203 -63 1031 -3 
Q 859 56 746 179 
Q 634 303 581 490 
Q 528 678 528 934 
L 528 2363 
L 194 2363 
Q 134 2363 103 2436 
Q 72 2509 72 2681 
Q 72 2772 80 2834 
Q 88 2897 103 2933 
Q 119 2969 142 2984 
Q 166 3000 197 3000 
L 528 3000 
L 528 3622 
Q 528 3653 545 3678 
Q 563 3703 608 3720 
Q 653 3738 729 3745 
Q 806 3753 919 3753 
Q 1034 3753 1111 3745 
Q 1188 3738 1231 3720 
Q 1275 3703 1294 3678 
Q 1313 3653 1313 3622 
L 1313 3000 
L 1919 3000 
Q 1950 3000 1973 2984 
Q 1997 2969 2012 2933 
Q 2028 2897 2036 2834 
Q 2044 2772 2044 2681 
Q 2044 2509 2012 2436 
Q 1981 2363 1922 2363 
L 1313 2363 
L 1313 1053 
Q 1313 825 1384 711 
Q 1456 597 1641 597 
Q 1703 597 1753 608 
Q 1803 619 1842 633 
Q 1881 647 1907 658 
Q 1934 669 1956 669 
Q 1975 669 1992 658 
Q 2009 647 2018 614 
Q 2028 581 2036 525 
Q 2044 469 2044 381 
z
" transform="scale(0.015625)"/>
       <path id="Calibri-Bold-69" d="M 1181 106 
Q 1181 75 1162 51 
Q 1144 28 1098 12 
Q 1053 -3 978 -11 
Q 903 -19 788 -19 
Q 672 -19 597 -11 
Q 522 -3 476 12 
Q 431 28 412 51 
Q 394 75 394 106 
L 394 2888 
Q 394 2919 412 2942 
Q 431 2966 476 2983 
Q 522 3000 597 3009 
Q 672 3019 788 3019 
Q 903 3019 978 3009 
Q 1053 3000 1098 2983 
Q 1144 2966 1162 2942 
Q 1181 2919 1181 2888 
L 1181 106 
z
M 1241 3838 
Q 1241 3600 1144 3509 
Q 1047 3419 784 3419 
Q 519 3419 426 3506 
Q 334 3594 334 3822 
Q 334 4059 429 4151 
Q 525 4244 791 4244 
Q 1053 4244 1147 4155 
Q 1241 4066 1241 3838 
z
" transform="scale(0.015625)"/>
       <path id="Calibri-Bold-6e" d="M 3056 106 
Q 3056 75 3037 51 
Q 3019 28 2975 12 
Q 2931 -3 2854 -11 
Q 2778 -19 2666 -19 
Q 2550 -19 2473 -11 
Q 2397 -3 2353 12 
Q 2309 28 2290 51 
Q 2272 75 2272 106 
L 2272 1697 
Q 2272 1900 2242 2015 
Q 2213 2131 2156 2214 
Q 2100 2297 2011 2342 
Q 1922 2388 1803 2388 
Q 1653 2388 1500 2278 
Q 1347 2169 1181 1959 
L 1181 106 
Q 1181 75 1162 51 
Q 1144 28 1098 12 
Q 1053 -3 978 -11 
Q 903 -19 788 -19 
Q 672 -19 597 -11 
Q 522 -3 476 12 
Q 431 28 412 51 
Q 394 75 394 106 
L 394 2894 
Q 394 2925 409 2948 
Q 425 2972 465 2987 
Q 506 3003 570 3011 
Q 634 3019 731 3019 
Q 831 3019 897 3011 
Q 963 3003 998 2987 
Q 1034 2972 1050 2948 
Q 1066 2925 1066 2894 
L 1066 2572 
Q 1297 2822 1536 2947 
Q 1775 3072 2034 3072 
Q 2319 3072 2514 2978 
Q 2709 2884 2829 2723 
Q 2950 2563 3003 2347 
Q 3056 2131 3056 1828 
L 3056 106 
z
" transform="scale(0.015625)"/>
      </defs>
      <use xlink:href="#Calibri-Bold-50"/>
      <use xlink:href="#Calibri-Bold-6f" x="53.222656"/>
      <use xlink:href="#Calibri-Bold-70" x="106.982422"/>
      <use xlink:href="#Calibri-Bold-75" x="160.644531"/>
      <use xlink:href="#Calibri-Bold-6c" x="214.306641"/>
      <use xlink:href="#Calibri-Bold-61" x="238.867188"/>
      <use xlink:href="#Calibri-Bold-74" x="288.232422"/>
      <use xlink:href="#Calibri-Bold-69" x="322.900391"/>
      <use xlink:href="#Calibri-Bold-6f" x="347.460938"/>
      <use xlink:href="#Calibri-Bold-6e" x="401.220703"/>
     </g>
    </g>
    <g id="patch_2">
     <path d="M 240.86775 138.93039 
M 327.777375 138.93039 
L 327.777375 102.540779 
M 240.86775 102.540779 
L 240.86775 138.93039 
" style="fill: #ffffff; stroke: #e1eff2; stroke-linejoin: miter"/>
    </g>
    <g id="text_2">
     <!-- % of Population -->
     <g style="fill: #00263e" transform="translate(248.110219 123.520819) scale(0.11 -0.11)">
      <defs>
       <path id="Calibri-Bold-25" d="M 2050 3050 
Q 2050 2803 1995 2604 
Q 1941 2406 1825 2265 
Q 1709 2125 1529 2047 
Q 1350 1969 1100 1969 
Q 834 1969 656 2047 
Q 478 2125 372 2264 
Q 266 2403 222 2597 
Q 178 2791 178 3025 
Q 178 3260 231 3455 
Q 284 3650 398 3794 
Q 513 3938 692 4017 
Q 872 4097 1125 4097 
Q 1403 4097 1583 4012 
Q 1763 3928 1866 3784 
Q 1969 3641 2009 3450 
Q 2050 3260 2050 3050 
z
M 1431 3028 
Q 1431 3200 1412 3320 
Q 1394 3441 1356 3516 
Q 1319 3591 1256 3625 
Q 1194 3660 1109 3660 
Q 1031 3660 972 3627 
Q 913 3594 873 3520 
Q 834 3447 815 3330 
Q 797 3213 797 3044 
Q 797 2850 819 2726 
Q 841 2603 881 2533 
Q 922 2463 981 2436 
Q 1041 2410 1119 2410 
Q 1209 2410 1268 2445 
Q 1328 2481 1364 2556 
Q 1400 2631 1415 2748 
Q 1431 2866 1431 3028 
z
M 4488 1028 
Q 4488 781 4433 582 
Q 4378 384 4262 243 
Q 4147 103 3967 25 
Q 3788 -53 3538 -53 
Q 3272 -53 3094 25 
Q 2916 103 2809 242 
Q 2703 381 2659 575 
Q 2616 769 2616 1003 
Q 2616 1238 2669 1433 
Q 2722 1628 2836 1772 
Q 2950 1916 3129 1995 
Q 3309 2075 3563 2075 
Q 3841 2075 4020 1990 
Q 4200 1906 4303 1762 
Q 4406 1619 4447 1428 
Q 4488 1238 4488 1028 
z
M 3869 1006 
Q 3869 1178 3850 1298 
Q 3831 1419 3793 1494 
Q 3756 1569 3693 1603 
Q 3631 1638 3547 1638 
Q 3469 1638 3409 1605 
Q 3350 1572 3311 1498 
Q 3272 1425 3253 1308 
Q 3234 1191 3234 1022 
Q 3234 828 3256 704 
Q 3278 581 3318 511 
Q 3359 441 3418 414 
Q 3478 388 3556 388 
Q 3647 388 3706 423 
Q 3766 459 3802 534 
Q 3838 609 3853 726 
Q 3869 844 3869 1006 
z
M 1197 22 
Q 1169 -16 1139 -39 
Q 1109 -63 1065 -78 
Q 1022 -94 959 -100 
Q 897 -106 806 -106 
Q 703 -106 642 -93 
Q 581 -81 554 -56 
Q 528 -31 533 1 
Q 538 34 572 81 
L 3453 4028 
Q 3481 4063 3509 4088 
Q 3538 4113 3583 4128 
Q 3628 4144 3690 4150 
Q 3753 4156 3844 4156 
Q 3947 4156 4008 4143 
Q 4069 4131 4095 4106 
Q 4122 4081 4115 4047 
Q 4109 4013 4078 3969 
L 1197 22 
z
" transform="scale(0.015625)"/>
       <path id="Calibri-Bold-20" transform="scale(0.015625)"/>
       <path id="Calibri-Bold-66" d="M 2075 3956 
Q 2075 3866 2069 3811 
Q 2063 3756 2050 3726 
Q 2038 3697 2022 3686 
Q 2006 3675 1988 3675 
Q 1966 3675 1939 3686 
Q 1913 3697 1873 3709 
Q 1834 3722 1781 3733 
Q 1728 3744 1656 3744 
Q 1572 3744 1511 3717 
Q 1450 3691 1409 3633 
Q 1369 3575 1350 3483 
Q 1331 3391 1331 3256 
L 1331 3000 
L 1841 3000 
Q 1869 3000 1892 2984 
Q 1916 2969 1931 2933 
Q 1947 2897 1955 2834 
Q 1963 2772 1963 2681 
Q 1963 2509 1931 2436 
Q 1900 2363 1841 2363 
L 1331 2363 
L 1331 106 
Q 1331 75 1312 51 
Q 1294 28 1250 12 
Q 1206 -3 1128 -11 
Q 1050 -19 938 -19 
Q 825 -19 748 -11 
Q 672 -3 626 12 
Q 581 28 564 51 
Q 547 75 547 106 
L 547 2363 
L 197 2363 
Q 138 2363 108 2436 
Q 78 2509 78 2681 
Q 78 2772 86 2834 
Q 94 2897 108 2933 
Q 122 2969 145 2984 
Q 169 3000 200 3000 
L 547 3000 
L 547 3234 
Q 547 3519 603 3733 
Q 659 3947 779 4089 
Q 900 4231 1086 4303 
Q 1272 4375 1525 4375 
Q 1647 4375 1756 4354 
Q 1866 4334 1928 4311 
Q 1991 4288 2012 4267 
Q 2034 4247 2048 4208 
Q 2063 4169 2069 4108 
Q 2075 4047 2075 3956 
z
" transform="scale(0.015625)"/>
      </defs>
      <use xlink:href="#Calibri-Bold-25"/>
      <use xlink:href="#Calibri-Bold-20" x="72.900391"/>
      <use xlink:href="#Calibri-Bold-6f" x="95.507812"/>
      <use xlink:href="#Calibri-Bold-66" x="149.267578"/>
      <use xlink:href="#Calibri-Bold-20" x="180.908203"/>
      <use xlink:href="#Calibri-Bold-50" x="203.515625"/>
      <use xlink:href="#Calibri-Bold-6f" x="256.738281"/>
      <use xlink:href="#Calibri-Bold-70" x="310.498047"/>
      <use xlink:href="#Calibri-Bold-75" x="364.160156"/>
      <use xlink:href="#Calibri-Bold-6c" x="417.822266"/>
      <use xlink:href="#Calibri-Bold-61" x="442.382812"/>
      <use xlink:href="#Calibri-Bold-74" x="491.748047"/>
      <use xlink:href="#Calibri-Bold-69" x="526.416016"/>
      <use xlink:href="#Calibri-Bold-6f" x="550.976562"/>
      <use xlink:href="#Calibri-Bold-6e" x="604.736328"/>
     </g>
    </g>
    <g id="patch_3">
     <path d="M 327.777375 138.93039 
M 383.895938 138.93039 
L 383.895938 102.540779 
M 327.777375 102.540779 
L 327.777375 138.93039 
" style="fill: #ffffff; stroke: #e1eff2; stroke-linejoin: miter"/>
    </g>
    <g id="text_3">
     <!-- In Poverty -->
     <g style="fill: #00263e" transform="translate(332.453922 123.499334) scale(0.11 -0.11)">
      <defs>
       <path id="Calibri-Bold-49" d="M 1266 113 
Q 1266 81 1245 56 
Q 1225 31 1178 15 
Q 1131 0 1053 -9 
Q 975 -19 853 -19 
Q 734 -19 654 -9 
Q 575 0 528 15 
Q 481 31 461 56 
Q 441 81 441 113 
L 441 3931 
Q 441 3963 461 3988 
Q 481 4013 529 4028 
Q 578 4044 656 4053 
Q 734 4063 853 4063 
Q 975 4063 1053 4053 
Q 1131 4044 1178 4028 
Q 1225 4013 1245 3988 
Q 1266 3963 1266 3931 
L 1266 113 
z
" transform="scale(0.015625)"/>
       <path id="Calibri-Bold-76" d="M 2959 2897 
Q 2959 2881 2957 2859 
Q 2956 2838 2951 2811 
Q 2947 2784 2939 2750 
Q 2931 2716 2919 2672 
L 2081 150 
Q 2066 97 2039 64 
Q 2013 31 1952 12 
Q 1891 -6 1786 -12 
Q 1681 -19 1513 -19 
Q 1347 -19 1242 -11 
Q 1138 -3 1078 15 
Q 1019 34 992 67 
Q 966 100 950 150 
L 113 2672 
Q 94 2734 83 2784 
Q 72 2834 70 2856 
Q 69 2878 69 2897 
Q 69 2928 86 2951 
Q 103 2975 147 2990 
Q 191 3006 267 3012 
Q 344 3019 459 3019 
Q 588 3019 666 3011 
Q 744 3003 789 2989 
Q 834 2975 853 2948 
Q 872 2922 884 2884 
L 1519 838 
L 1538 759 
L 1556 838 
L 2181 2884 
Q 2191 2922 2211 2948 
Q 2231 2975 2275 2989 
Q 2319 3003 2392 3011 
Q 2466 3019 2584 3019 
Q 2700 3019 2773 3012 
Q 2847 3006 2887 2990 
Q 2928 2975 2943 2951 
Q 2959 2928 2959 2897 
z
" transform="scale(0.015625)"/>
       <path id="Calibri-Bold-65" d="M 2969 1581 
Q 2969 1438 2905 1369 
Q 2841 1300 2728 1300 
L 1031 1300 
Q 1031 1122 1073 976 
Q 1116 831 1208 729 
Q 1300 628 1445 575 
Q 1591 522 1794 522 
Q 2000 522 2156 551 
Q 2313 581 2427 617 
Q 2541 653 2616 683 
Q 2691 713 2738 713 
Q 2766 713 2784 702 
Q 2803 691 2815 662 
Q 2828 634 2833 582 
Q 2838 531 2838 453 
Q 2838 384 2834 336 
Q 2831 288 2825 253 
Q 2819 219 2806 195 
Q 2794 172 2773 150 
Q 2753 128 2662 90 
Q 2572 53 2431 17 
Q 2291 -19 2109 -45 
Q 1928 -72 1722 -72 
Q 1350 -72 1070 22 
Q 791 116 603 306 
Q 416 497 323 787 
Q 231 1078 231 1469 
Q 231 1841 328 2139 
Q 425 2438 609 2645 
Q 794 2853 1058 2962 
Q 1322 3072 1653 3072 
Q 2003 3072 2251 2969 
Q 2500 2866 2659 2683 
Q 2819 2500 2894 2250 
Q 2969 2000 2969 1706 
L 2969 1581 
z
M 2206 1806 
Q 2216 2138 2073 2327 
Q 1931 2516 1634 2516 
Q 1484 2516 1373 2459 
Q 1263 2403 1189 2308 
Q 1116 2213 1077 2083 
Q 1038 1953 1031 1806 
L 2206 1806 
z
" transform="scale(0.015625)"/>
       <path id="Calibri-Bold-72" d="M 2184 2634 
Q 2184 2522 2178 2450 
Q 2172 2378 2159 2337 
Q 2147 2297 2126 2281 
Q 2106 2266 2075 2266 
Q 2050 2266 2019 2277 
Q 1988 2288 1948 2300 
Q 1909 2313 1862 2323 
Q 1816 2334 1759 2334 
Q 1694 2334 1628 2307 
Q 1563 2281 1492 2225 
Q 1422 2169 1345 2075 
Q 1269 1981 1181 1844 
L 1181 106 
Q 1181 75 1162 51 
Q 1144 28 1098 12 
Q 1053 -3 978 -11 
Q 903 -19 788 -19 
Q 672 -19 597 -11 
Q 522 -3 476 12 
Q 431 28 412 51 
Q 394 75 394 106 
L 394 2894 
Q 394 2925 409 2948 
Q 425 2972 465 2987 
Q 506 3003 570 3011 
Q 634 3019 731 3019 
Q 831 3019 897 3011 
Q 963 3003 998 2987 
Q 1034 2972 1050 2948 
Q 1066 2925 1066 2894 
L 1066 2547 
Q 1175 2703 1272 2804 
Q 1369 2906 1456 2965 
Q 1544 3025 1631 3048 
Q 1719 3072 1806 3072 
Q 1847 3072 1894 3067 
Q 1941 3063 1991 3052 
Q 2041 3041 2078 3027 
Q 2116 3013 2133 2997 
Q 2150 2981 2158 2962 
Q 2166 2944 2172 2911 
Q 2178 2878 2181 2812 
Q 2184 2747 2184 2634 
z
" transform="scale(0.015625)"/>
       <path id="Calibri-Bold-79" d="M 2009 0 
L 1672 -988 
Q 1644 -1066 1519 -1100 
Q 1394 -1134 1153 -1134 
Q 1028 -1134 953 -1123 
Q 878 -1113 840 -1088 
Q 803 -1063 800 -1025 
Q 797 -988 819 -934 
L 1191 0 
Q 1150 19 1117 58 
Q 1084 97 1069 141 
L 109 2703 
Q 69 2813 69 2870 
Q 69 2928 106 2961 
Q 144 2994 233 3006 
Q 322 3019 469 3019 
Q 603 3019 681 3014 
Q 759 3009 803 2990 
Q 847 2972 869 2933 
Q 891 2894 913 2822 
L 1569 956 
L 1578 956 
L 2178 2859 
Q 2197 2941 2226 2967 
Q 2256 2994 2325 3006 
Q 2394 3019 2566 3019 
Q 2700 3019 2789 3006 
Q 2878 2994 2920 2959 
Q 2963 2925 2963 2867 
Q 2963 2809 2938 2731 
L 2009 0 
z
" transform="scale(0.015625)"/>
      </defs>
      <use xlink:href="#Calibri-Bold-49"/>
      <use xlink:href="#Calibri-Bold-6e" x="26.660156"/>
      <use xlink:href="#Calibri-Bold-20" x="80.322266"/>
      <use xlink:href="#Calibri-Bold-50" x="102.929688"/>
      <use xlink:href="#Calibri-Bold-6f" x="156.152344"/>
      <use xlink:href="#Calibri-Bold-76" x="209.912109"/>
      <use xlink:href="#Calibri-Bold-65" x="257.226562"/>
      <use xlink:href="#Calibri-Bold-72" x="307.568359"/>
      <use xlink:href="#Calibri-Bold-74" x="343.115234"/>
      <use xlink:href="#Calibri-Bold-79" x="377.783203"/>
     </g>
    </g>
    <g id="patch_4">
     <path d="M 383.895938 138.93039 
M 441.714 138.93039 
L 441.714 102.540779 
M 383.895938 102.540779 
L 383.895938 138.93039 
" style="fill: #ffffff; stroke: #e1eff2; stroke-linejoin: miter"/>
    </g>
    <g id="text_4">
     <!-- % of Total  -->
     <g style="fill: #00263e" transform="translate(388.714109 118.038866) scale(0.11 -0.11)">
      <defs>
       <path id="Calibri-Bold-54" d="M 3131 3706 
Q 3131 3616 3123 3552 
Q 3116 3488 3100 3448 
Q 3084 3409 3061 3390 
Q 3038 3372 3009 3372 
L 1997 3372 
L 1997 113 
Q 1997 81 1976 56 
Q 1956 31 1909 15 
Q 1863 0 1783 -9 
Q 1703 -19 1584 -19 
Q 1466 -19 1386 -9 
Q 1306 0 1259 15 
Q 1213 31 1192 56 
Q 1172 81 1172 113 
L 1172 3372 
L 159 3372 
Q 128 3372 106 3390 
Q 84 3409 68 3448 
Q 53 3488 45 3552 
Q 38 3616 38 3706 
Q 38 3800 45 3865 
Q 53 3931 68 3970 
Q 84 4009 106 4026 
Q 128 4044 159 4044 
L 3009 4044 
Q 3038 4044 3061 4026 
Q 3084 4009 3100 3970 
Q 3116 3931 3123 3865 
Q 3131 3800 3131 3706 
z
" transform="scale(0.015625)"/>
      </defs>
      <use xlink:href="#Calibri-Bold-25"/>
      <use xlink:href="#Calibri-Bold-20" x="72.900391"/>
      <use xlink:href="#Calibri-Bold-6f" x="95.507812"/>
      <use xlink:href="#Calibri-Bold-66" x="149.267578"/>
      <use xlink:href="#Calibri-Bold-20" x="180.908203"/>
      <use xlink:href="#Calibri-Bold-54" x="203.515625"/>
      <use xlink:href="#Calibri-Bold-6f" x="253.027344"/>
      <use xlink:href="#Calibri-Bold-74" x="306.787109"/>
      <use xlink:href="#Calibri-Bold-61" x="341.455078"/>
      <use xlink:href="#Calibri-Bold-6c" x="390.820312"/>
      <use xlink:href="#Calibri-Bold-20" x="415.380859"/>
     </g>
     <!-- in Poverty -->
     <g style="fill: #00263e" transform="translate(389.537391 128.959803) scale(0.11 -0.11)">
      <use xlink:href="#Calibri-Bold-69"/>
      <use xlink:href="#Calibri-Bold-6e" x="24.560547"/>
      <use xlink:href="#Calibri-Bold-20" x="78.222656"/>
      <use xlink:href="#Calibri-Bold-50" x="100.830078"/>
      <use xlink:href="#Calibri-Bold-6f" x="154.052734"/>
      <use xlink:href="#Calibri-Bold-76" x="207.8125"/>
      <use xlink:href="#Calibri-Bold-65" x="255.126953"/>
      <use xlink:href="#Calibri-Bold-72" x="305.46875"/>
      <use xlink:href="#Calibri-Bold-74" x="341.015625"/>
      <use xlink:href="#Calibri-Bold-79" x="375.683594"/>
     </g>
    </g>
    <g id="patch_5">
     <path d="M 441.714 138.93039 
M 529.81575 138.93039 
L 529.81575 102.540779 
M 441.714 102.540779 
L 441.714 138.93039 
" style="fill: #ffffff; stroke: #e1eff2; stroke-linejoin: miter"/>
    </g>
    <g id="text_5">
     <!-- % of Age Group  -->
     <g style="fill: #00263e" transform="translate(449.055812 118.054334) scale(0.11 -0.11)">
      <defs>
       <path id="Calibri-Bold-41" d="M 3753 306 
Q 3791 194 3800 128 
Q 3809 63 3775 30 
Q 3741 -3 3653 -11 
Q 3566 -19 3413 -19 
Q 3253 -19 3164 -14 
Q 3075 -9 3028 5 
Q 2981 19 2962 44 
Q 2944 69 2931 109 
L 2659 922 
L 1141 922 
L 884 131 
Q 872 88 851 58 
Q 831 28 786 11 
Q 741 -6 658 -12 
Q 575 -19 441 -19 
Q 297 -19 215 -9 
Q 134 0 103 36 
Q 72 72 81 137 
Q 91 203 128 313 
L 1375 3900 
Q 1394 3953 1419 3986 
Q 1444 4019 1498 4036 
Q 1553 4053 1650 4058 
Q 1747 4063 1906 4063 
Q 2091 4063 2200 4058 
Q 2309 4053 2370 4036 
Q 2431 4019 2457 3984 
Q 2484 3950 2503 3891 
L 3753 306 
z
M 1897 3272 
L 1894 3272 
L 1322 1553 
L 2469 1553 
L 1897 3272 
z
" transform="scale(0.015625)"/>
       <path id="Calibri-Bold-67" d="M 2906 2700 
Q 2906 2550 2872 2478 
Q 2838 2406 2788 2406 
L 2459 2406 
Q 2528 2331 2558 2236 
Q 2588 2141 2588 2038 
Q 2588 1794 2506 1605 
Q 2425 1416 2273 1286 
Q 2122 1156 1908 1089 
Q 1694 1022 1431 1022 
Q 1297 1022 1175 1055 
Q 1053 1088 988 1131 
Q 950 1091 920 1034 
Q 891 978 891 909 
Q 891 819 970 761 
Q 1050 703 1194 697 
L 1872 672 
Q 2109 663 2295 605 
Q 2481 547 2607 442 
Q 2734 338 2801 191 
Q 2869 44 2869 -144 
Q 2869 -350 2778 -533 
Q 2688 -716 2506 -850 
Q 2325 -984 2051 -1062 
Q 1778 -1141 1413 -1141 
Q 1056 -1141 804 -1084 
Q 553 -1028 392 -928 
Q 231 -828 157 -689 
Q 84 -550 84 -384 
Q 84 -281 111 -187 
Q 138 -94 189 -8 
Q 241 78 316 156 
Q 391 234 488 306 
Q 353 378 279 501 
Q 206 625 206 772 
Q 206 956 290 1107 
Q 375 1259 509 1381 
Q 400 1491 334 1644 
Q 269 1797 269 2025 
Q 269 2269 355 2461 
Q 441 2653 594 2786 
Q 747 2919 959 2989 
Q 1172 3059 1428 3059 
Q 1559 3059 1679 3043 
Q 1800 3028 1903 3000 
L 2788 3000 
Q 2841 3000 2873 2931 
Q 2906 2863 2906 2700 
z
M 1897 2041 
Q 1897 2266 1772 2391 
Q 1647 2516 1419 2516 
Q 1303 2516 1215 2477 
Q 1128 2438 1070 2370 
Q 1013 2303 984 2214 
Q 956 2125 956 2028 
Q 956 1816 1081 1692 
Q 1206 1569 1428 1569 
Q 1547 1569 1634 1606 
Q 1722 1644 1780 1709 
Q 1838 1775 1867 1861 
Q 1897 1947 1897 2041 
z
M 2081 -184 
Q 2081 -44 1968 31 
Q 1856 106 1659 113 
L 1100 128 
Q 1019 69 970 14 
Q 922 -41 892 -91 
Q 863 -141 853 -187 
Q 844 -234 844 -284 
Q 844 -441 1001 -522 
Q 1159 -603 1447 -603 
Q 1625 -603 1747 -567 
Q 1869 -531 1944 -472 
Q 2019 -413 2050 -339 
Q 2081 -266 2081 -184 
z
" transform="scale(0.015625)"/>
       <path id="Calibri-Bold-47" d="M 3684 3416 
Q 3684 3325 3676 3259 
Q 3669 3194 3655 3155 
Q 3641 3116 3620 3100 
Q 3600 3084 3572 3084 
Q 3531 3084 3440 3140 
Q 3350 3197 3200 3262 
Q 3050 3328 2842 3384 
Q 2634 3441 2359 3441 
Q 2066 3441 1828 3339 
Q 1591 3238 1422 3052 
Q 1253 2866 1162 2605 
Q 1072 2344 1072 2028 
Q 1072 1681 1164 1417 
Q 1256 1153 1422 975 
Q 1588 797 1820 706 
Q 2053 616 2334 616 
Q 2472 616 2606 647 
Q 2741 678 2856 741 
L 2856 1678 
L 2091 1678 
Q 2034 1678 2003 1748 
Q 1972 1819 1972 1988 
Q 1972 2075 1980 2134 
Q 1988 2194 2003 2230 
Q 2019 2266 2041 2283 
Q 2063 2300 2091 2300 
L 3456 2300 
Q 3506 2300 3545 2283 
Q 3584 2266 3614 2231 
Q 3644 2197 3659 2148 
Q 3675 2100 3675 2038 
L 3675 428 
Q 3675 334 3642 264 
Q 3609 194 3507 153 
Q 3406 113 3256 69 
Q 3106 25 2945 -6 
Q 2784 -38 2620 -53 
Q 2456 -69 2291 -69 
Q 1806 -69 1423 70 
Q 1041 209 775 473 
Q 509 738 368 1117 
Q 228 1497 228 1978 
Q 228 2475 378 2870 
Q 528 3266 803 3542 
Q 1078 3819 1467 3966 
Q 1856 4113 2334 4113 
Q 2597 4113 2812 4077 
Q 3028 4041 3189 3989 
Q 3350 3938 3456 3878 
Q 3563 3819 3605 3775 
Q 3647 3731 3665 3651 
Q 3684 3572 3684 3416 
z
" transform="scale(0.015625)"/>
      </defs>
      <use xlink:href="#Calibri-Bold-25"/>
      <use xlink:href="#Calibri-Bold-20" x="72.900391"/>
      <use xlink:href="#Calibri-Bold-6f" x="95.507812"/>
      <use xlink:href="#Calibri-Bold-66" x="149.267578"/>
      <use xlink:href="#Calibri-Bold-20" x="180.908203"/>
      <use xlink:href="#Calibri-Bold-41" x="203.515625"/>
      <use xlink:href="#Calibri-Bold-67" x="264.111328"/>
      <use xlink:href="#Calibri-Bold-65" x="311.523438"/>
      <use xlink:href="#Calibri-Bold-20" x="361.865234"/>
      <use xlink:href="#Calibri-Bold-47" x="384.472656"/>
      <use xlink:href="#Calibri-Bold-72" x="448.193359"/>
      <use xlink:href="#Calibri-Bold-6f" x="483.740234"/>
      <use xlink:href="#Calibri-Bold-75" x="537.5"/>
      <use xlink:href="#Calibri-Bold-70" x="591.162109"/>
      <use xlink:href="#Calibri-Bold-20" x="644.824219"/>
     </g>
     <!-- in Poverty -->
     <g style="fill: #00263e" transform="translate(462.497297 128.987303) scale(0.11 -0.11)">
      <use xlink:href="#Calibri-Bold-69"/>
      <use xlink:href="#Calibri-Bold-6e" x="24.560547"/>
      <use xlink:href="#Calibri-Bold-20" x="78.222656"/>
      <use xlink:href="#Calibri-Bold-50" x="100.830078"/>
      <use xlink:href="#Calibri-Bold-6f" x="154.052734"/>
      <use xlink:href="#Calibri-Bold-76" x="207.8125"/>
      <use xlink:href="#Calibri-Bold-65" x="255.126953"/>
      <use xlink:href="#Calibri-Bold-72" x="305.46875"/>
      <use xlink:href="#Calibri-Bold-74" x="341.015625"/>
      <use xlink:href="#Calibri-Bold-79" x="375.683594"/>
     </g>
    </g>
    <g id="patch_6">
     <path d="M 114.283875 175.32 
L 180.82425 175.32 
M 180.82425 138.93039 
L 114.283875 138.93039 
M 114.283875 175.32 
" style="fill: #ffffff; stroke: #e1eff2; stroke-linejoin: miter"/>
    </g>
    <g id="text_6">
     <!-- Under 18 -->
     <g style="fill: #00263e" transform="translate(120.937913 159.888945) scale(0.11 -0.11)">
      <defs>
       <path id="Calibri-Bold-55" d="M 3741 1506 
Q 3741 1134 3631 840 
Q 3522 547 3309 344 
Q 3097 141 2784 34 
Q 2472 -72 2066 -72 
Q 1684 -72 1381 23 
Q 1078 119 868 312 
Q 659 506 548 795 
Q 438 1084 438 1472 
L 438 3931 
Q 438 3963 456 3988 
Q 475 4013 523 4028 
Q 572 4044 650 4053 
Q 728 4063 850 4063 
Q 969 4063 1047 4053 
Q 1125 4044 1172 4028 
Q 1219 4013 1239 3988 
Q 1259 3963 1259 3931 
L 1259 1544 
Q 1259 1303 1318 1126 
Q 1378 950 1489 834 
Q 1600 719 1754 661 
Q 1909 603 2100 603 
Q 2294 603 2447 662 
Q 2600 722 2706 836 
Q 2813 950 2870 1117 
Q 2928 1284 2928 1497 
L 2928 3931 
Q 2928 3963 2947 3988 
Q 2966 4013 3012 4028 
Q 3059 4044 3139 4053 
Q 3219 4063 3338 4063 
Q 3456 4063 3532 4053 
Q 3609 4044 3656 4028 
Q 3703 4013 3722 3988 
Q 3741 3963 3741 3931 
L 3741 1506 
z
" transform="scale(0.015625)"/>
       <path id="Calibri-Bold-64" d="M 3038 106 
Q 3038 72 3022 48 
Q 3006 25 2968 9 
Q 2931 -6 2867 -12 
Q 2803 -19 2709 -19 
Q 2609 -19 2546 -12 
Q 2484 -6 2445 9 
Q 2406 25 2389 48 
Q 2372 72 2372 106 
L 2372 416 
Q 2156 184 1920 56 
Q 1684 -72 1397 -72 
Q 1078 -72 858 51 
Q 638 175 498 384 
Q 359 594 296 873 
Q 234 1153 234 1463 
Q 234 1834 314 2131 
Q 394 2428 547 2637 
Q 700 2847 928 2959 
Q 1156 3072 1453 3072 
Q 1688 3072 1878 2976 
Q 2069 2881 2256 2697 
L 2256 4206 
Q 2256 4238 2273 4263 
Q 2291 4288 2336 4305 
Q 2381 4322 2456 4331 
Q 2531 4341 2647 4341 
Q 2763 4341 2838 4331 
Q 2913 4322 2956 4305 
Q 3000 4288 3019 4263 
Q 3038 4238 3038 4206 
L 3038 106 
z
M 2256 1969 
Q 2088 2181 1933 2293 
Q 1778 2406 1609 2406 
Q 1456 2406 1345 2329 
Q 1234 2253 1167 2125 
Q 1100 1997 1067 1839 
Q 1034 1681 1034 1516 
Q 1034 1341 1062 1175 
Q 1091 1009 1155 879 
Q 1219 750 1325 672 
Q 1431 594 1594 594 
Q 1675 594 1751 617 
Q 1828 641 1908 694 
Q 1988 747 2072 833 
Q 2156 919 2256 1044 
L 2256 1969 
z
" transform="scale(0.015625)"/>
       <path id="Calibri-Bold-31" d="M 2950 313 
Q 2950 225 2940 164 
Q 2931 103 2914 67 
Q 2897 31 2875 15 
Q 2853 0 2825 0 
L 594 0 
Q 569 0 547 15 
Q 525 31 508 67 
Q 491 103 481 164 
Q 472 225 472 313 
Q 472 403 480 464 
Q 488 525 505 562 
Q 522 600 544 617 
Q 566 634 594 634 
L 1347 634 
L 1347 3266 
L 697 2906 
Q 625 2872 579 2864 
Q 534 2856 507 2882 
Q 481 2909 472 2975 
Q 463 3041 463 3159 
Q 463 3234 466 3282 
Q 469 3331 481 3365 
Q 494 3400 516 3422 
Q 538 3444 575 3469 
L 1444 4031 
Q 1459 4044 1482 4051 
Q 1506 4059 1543 4064 
Q 1581 4069 1642 4070 
Q 1703 4072 1800 4072 
Q 1919 4072 1992 4067 
Q 2066 4063 2103 4052 
Q 2141 4041 2153 4022 
Q 2166 4003 2166 3975 
L 2166 634 
L 2825 634 
Q 2853 634 2876 617 
Q 2900 600 2917 562 
Q 2934 525 2942 464 
Q 2950 403 2950 313 
z
" transform="scale(0.015625)"/>
       <path id="Calibri-Bold-38" d="M 3050 1084 
Q 3050 809 2954 593 
Q 2859 378 2673 229 
Q 2488 81 2213 4 
Q 1938 -72 1578 -72 
Q 1234 -72 975 -3 
Q 716 66 541 198 
Q 366 331 278 526 
Q 191 722 191 975 
Q 191 1147 242 1298 
Q 294 1450 395 1579 
Q 497 1709 648 1823 
Q 800 1938 997 2041 
Q 838 2128 709 2229 
Q 581 2331 490 2451 
Q 400 2572 353 2715 
Q 306 2859 306 3028 
Q 306 3272 392 3470 
Q 478 3669 648 3814 
Q 819 3959 1075 4037 
Q 1331 4116 1669 4116 
Q 2003 4116 2242 4044 
Q 2481 3972 2634 3840 
Q 2788 3709 2861 3526 
Q 2934 3344 2934 3122 
Q 2934 2975 2886 2836 
Q 2838 2697 2750 2572 
Q 2663 2447 2534 2336 
Q 2406 2225 2244 2134 
Q 2434 2034 2584 1921 
Q 2734 1809 2837 1679 
Q 2941 1550 2995 1403 
Q 3050 1256 3050 1084 
z
M 2144 3047 
Q 2144 3156 2112 3243 
Q 2081 3331 2014 3392 
Q 1947 3453 1848 3484 
Q 1750 3516 1616 3516 
Q 1353 3516 1225 3395 
Q 1097 3275 1097 3063 
Q 1097 2963 1130 2878 
Q 1163 2794 1231 2719 
Q 1300 2644 1409 2572 
Q 1519 2500 1669 2419 
Q 1897 2553 2020 2706 
Q 2144 2859 2144 3047 
z
M 2238 1028 
Q 2238 1144 2198 1239 
Q 2159 1334 2076 1418 
Q 1994 1503 1869 1581 
Q 1744 1659 1578 1741 
Q 1434 1663 1325 1584 
Q 1216 1506 1144 1420 
Q 1072 1334 1036 1239 
Q 1000 1144 1000 1034 
Q 1000 791 1158 662 
Q 1316 534 1628 534 
Q 1934 534 2086 665 
Q 2238 797 2238 1028 
z
" transform="scale(0.015625)"/>
      </defs>
      <use xlink:href="#Calibri-Bold-55"/>
      <use xlink:href="#Calibri-Bold-6e" x="65.283203"/>
      <use xlink:href="#Calibri-Bold-64" x="118.945312"/>
      <use xlink:href="#Calibri-Bold-65" x="172.607422"/>
      <use xlink:href="#Calibri-Bold-72" x="222.949219"/>
      <use xlink:href="#Calibri-Bold-20" x="258.496094"/>
      <use xlink:href="#Calibri-Bold-31" x="281.103516"/>
      <use xlink:href="#Calibri-Bold-38" x="331.787109"/>
     </g>
    </g>
    <g id="patch_7">
     <path d="M 180.82425 175.32 
L 240.86775 175.32 
L 240.86775 138.93039 
L 180.82425 138.93039 
z
" style="fill: #e1eff2; stroke: #00263e; stroke-linejoin: miter"/>
    </g>
    <g id="text_7">
     <!-- 1,267 -->
     <g style="fill: #00263e" transform="translate(209.816056 159.888085) scale(0.11 -0.11)">
      <defs>
       <path id="Calibri-31" d="M 2897 213 
Q 2897 153 2887 112 
Q 2878 72 2862 47 
Q 2847 22 2826 11 
Q 2806 0 2784 0 
L 672 0 
Q 650 0 631 11 
Q 613 22 595 47 
Q 578 72 568 112 
Q 559 153 559 213 
Q 559 269 568 309 
Q 578 350 592 376 
Q 606 403 626 417 
Q 647 431 672 431 
L 1516 431 
L 1516 3506 
L 734 3041 
Q 675 3009 639 3003 
Q 603 2997 581 3017 
Q 559 3038 551 3084 
Q 544 3131 544 3203 
Q 544 3256 548 3293 
Q 553 3331 562 3356 
Q 572 3381 589 3400 
Q 606 3419 634 3438 
L 1566 4034 
Q 1578 4044 1597 4050 
Q 1616 4056 1644 4062 
Q 1672 4069 1709 4070 
Q 1747 4072 1803 4072 
Q 1878 4072 1928 4065 
Q 1978 4059 2006 4048 
Q 2034 4038 2043 4020 
Q 2053 4003 2053 3984 
L 2053 431 
L 2784 431 
Q 2809 431 2831 417 
Q 2853 403 2867 376 
Q 2881 350 2889 309 
Q 2897 269 2897 213 
z
" transform="scale(0.015625)"/>
       <path id="Calibri-2c" d="M 1159 447 
Q 1159 350 1150 269 
Q 1141 188 1119 116 
Q 1097 44 1061 -26 
Q 1025 -97 972 -175 
L 544 -819 
Q 528 -841 508 -856 
Q 488 -872 458 -884 
Q 428 -897 389 -901 
Q 350 -906 291 -906 
Q 238 -906 202 -901 
Q 166 -897 150 -886 
Q 134 -875 132 -856 
Q 131 -838 144 -813 
L 559 47 
L 559 447 
Q 559 531 576 581 
Q 594 631 631 656 
Q 669 681 725 690 
Q 781 700 863 700 
Q 941 700 997 690 
Q 1053 681 1089 656 
Q 1125 631 1142 581 
Q 1159 531 1159 447 
z
" transform="scale(0.015625)"/>
       <path id="Calibri-32" d="M 2888 231 
Q 2888 175 2880 131 
Q 2872 88 2858 58 
Q 2844 28 2820 14 
Q 2797 0 2769 0 
L 534 0 
Q 491 0 458 11 
Q 425 22 401 47 
Q 378 72 367 119 
Q 356 166 356 234 
Q 356 297 361 344 
Q 366 391 381 427 
Q 397 463 420 498 
Q 444 534 481 575 
L 1266 1406 
Q 1538 1694 1702 1922 
Q 1866 2150 1955 2337 
Q 2044 2525 2072 2678 
Q 2100 2831 2100 2966 
Q 2100 3100 2056 3220 
Q 2013 3341 1930 3431 
Q 1847 3522 1722 3575 
Q 1597 3628 1434 3628 
Q 1244 3628 1092 3575 
Q 941 3522 827 3459 
Q 713 3397 636 3344 
Q 559 3291 522 3291 
Q 500 3291 483 3303 
Q 466 3316 455 3344 
Q 444 3372 437 3419 
Q 431 3466 431 3531 
Q 431 3578 434 3612 
Q 438 3647 445 3672 
Q 453 3697 465 3719 
Q 478 3741 515 3773 
Q 553 3806 645 3862 
Q 738 3919 877 3973 
Q 1016 4028 1183 4065 
Q 1350 4103 1534 4103 
Q 1828 4103 2048 4020 
Q 2269 3938 2414 3794 
Q 2559 3650 2631 3459 
Q 2703 3269 2703 3053 
Q 2703 2859 2668 2667 
Q 2634 2475 2523 2251 
Q 2413 2028 2203 1754 
Q 1994 1481 1647 1125 
L 1006 456 
L 2766 456 
Q 2791 456 2814 442 
Q 2838 428 2855 400 
Q 2872 372 2880 330 
Q 2888 288 2888 231 
z
" transform="scale(0.015625)"/>
       <path id="Calibri-36" d="M 2991 1309 
Q 2991 1044 2909 795 
Q 2828 547 2659 358 
Q 2491 169 2231 55 
Q 1972 -59 1619 -59 
Q 1366 -59 1172 3 
Q 978 66 834 181 
Q 691 297 595 465 
Q 500 634 442 850 
Q 384 1066 359 1322 
Q 334 1578 334 1872 
Q 334 2131 362 2397 
Q 391 2663 462 2909 
Q 534 3156 657 3373 
Q 781 3591 967 3752 
Q 1153 3913 1412 4006 
Q 1672 4100 2016 4100 
Q 2131 4100 2250 4086 
Q 2369 4072 2469 4048 
Q 2569 4025 2637 3997 
Q 2706 3969 2728 3951 
Q 2750 3934 2761 3914 
Q 2772 3894 2778 3870 
Q 2784 3847 2787 3817 
Q 2791 3788 2791 3744 
Q 2791 3688 2789 3647 
Q 2788 3606 2777 3581 
Q 2766 3556 2748 3543 
Q 2731 3531 2703 3531 
Q 2669 3531 2609 3553 
Q 2550 3575 2465 3601 
Q 2381 3628 2261 3650 
Q 2141 3672 1981 3672 
Q 1691 3672 1481 3553 
Q 1272 3434 1139 3234 
Q 1006 3034 942 2770 
Q 878 2506 869 2219 
Q 950 2266 1051 2312 
Q 1153 2359 1273 2396 
Q 1394 2434 1528 2457 
Q 1663 2481 1816 2481 
Q 2144 2481 2369 2392 
Q 2594 2303 2733 2145 
Q 2872 1988 2931 1773 
Q 2991 1559 2991 1309 
z
M 2447 1259 
Q 2447 1441 2411 1589 
Q 2375 1738 2290 1841 
Q 2206 1944 2065 2000 
Q 1925 2056 1719 2056 
Q 1603 2056 1487 2036 
Q 1372 2016 1264 1980 
Q 1156 1944 1057 1895 
Q 959 1847 878 1791 
Q 878 1388 929 1116 
Q 981 844 1079 680 
Q 1178 516 1325 445 
Q 1472 375 1669 375 
Q 1869 375 2016 450 
Q 2163 525 2259 651 
Q 2356 778 2401 936 
Q 2447 1094 2447 1259 
z
" transform="scale(0.015625)"/>
       <path id="Calibri-37" d="M 2947 3813 
Q 2947 3756 2942 3711 
Q 2938 3666 2930 3623 
Q 2922 3581 2908 3542 
Q 2894 3503 2875 3459 
L 1419 103 
Q 1403 66 1379 42 
Q 1356 19 1320 5 
Q 1284 -9 1228 -14 
Q 1172 -19 1091 -19 
Q 984 -19 925 -9 
Q 866 0 839 20 
Q 813 41 816 70 
Q 819 100 838 141 
L 2369 3572 
L 428 3572 
Q 369 3572 339 3634 
Q 309 3697 309 3809 
Q 309 3869 317 3912 
Q 325 3956 340 3986 
Q 356 4016 378 4030 
Q 400 4044 428 4044 
L 2784 4044 
Q 2828 4044 2861 4034 
Q 2894 4025 2911 3997 
Q 2928 3969 2937 3925 
Q 2947 3881 2947 3813 
z
" transform="scale(0.015625)"/>
      </defs>
      <use xlink:href="#Calibri-31"/>
      <use xlink:href="#Calibri-2c" x="50.683594"/>
      <use xlink:href="#Calibri-32" x="75.634766"/>
      <use xlink:href="#Calibri-36" x="126.318359"/>
      <use xlink:href="#Calibri-37" x="177.001953"/>
     </g>
    </g>
    <g id="patch_8">
     <path d="M 240.86775 175.32 
L 327.777375 175.32 
L 327.777375 138.93039 
L 240.86775 138.93039 
z
" style="fill: #e1eff2; stroke: #00263e; stroke-linejoin: miter"/>
    </g>
    <g id="text_8">
     <!-- 20.8% -->
     <g style="fill: #00263e" transform="translate(291.718756 159.888085) scale(0.11 -0.11)">
      <defs>
       <path id="Calibri-30" d="M 3022 2031 
Q 3022 1566 2948 1181 
Q 2875 797 2704 520 
Q 2534 244 2259 92 
Q 1984 -59 1581 -59 
Q 1200 -59 939 77 
Q 678 213 518 477 
Q 359 741 292 1127 
Q 225 1513 225 2013 
Q 225 2475 300 2861 
Q 375 3247 544 3523 
Q 713 3800 988 3951 
Q 1263 4103 1663 4103 
Q 2047 4103 2308 3967 
Q 2569 3831 2728 3567 
Q 2888 3303 2955 2917 
Q 3022 2531 3022 2031 
z
M 2472 1994 
Q 2472 2297 2450 2537 
Q 2428 2778 2386 2962 
Q 2344 3147 2276 3280 
Q 2209 3413 2115 3498 
Q 2022 3584 1901 3623 
Q 1781 3663 1631 3663 
Q 1366 3663 1200 3538 
Q 1034 3413 939 3194 
Q 844 2975 809 2681 
Q 775 2388 775 2050 
Q 775 1597 822 1280 
Q 869 963 970 763 
Q 1072 563 1230 472 
Q 1388 381 1613 381 
Q 1788 381 1920 437 
Q 2053 494 2148 598 
Q 2244 703 2306 850 
Q 2369 997 2406 1175 
Q 2444 1353 2458 1561 
Q 2472 1769 2472 1994 
z
" transform="scale(0.015625)"/>
       <path id="Calibri-2e" d="M 1144 341 
Q 1144 119 1070 45 
Q 997 -28 803 -28 
Q 616 -28 544 44 
Q 472 116 472 331 
Q 472 553 545 626 
Q 619 700 813 700 
Q 1000 700 1072 628 
Q 1144 556 1144 341 
z
" transform="scale(0.015625)"/>
       <path id="Calibri-38" d="M 2981 1038 
Q 2981 775 2887 570 
Q 2794 366 2617 225 
Q 2441 84 2181 12 
Q 1922 -59 1588 -59 
Q 1275 -59 1028 6 
Q 781 72 609 200 
Q 438 328 347 515 
Q 256 703 256 944 
Q 256 1134 318 1293 
Q 381 1453 498 1587 
Q 616 1722 787 1839 
Q 959 1956 1175 2063 
Q 988 2159 844 2267 
Q 700 2375 600 2501 
Q 500 2628 448 2772 
Q 397 2916 397 3084 
Q 397 3297 473 3483 
Q 550 3669 704 3806 
Q 859 3944 1098 4023 
Q 1338 4103 1656 4103 
Q 1963 4103 2186 4029 
Q 2409 3956 2554 3829 
Q 2700 3703 2769 3531 
Q 2838 3359 2838 3163 
Q 2838 3003 2786 2856 
Q 2734 2709 2634 2578 
Q 2534 2447 2389 2333 
Q 2244 2219 2056 2119 
Q 2278 2009 2451 1893 
Q 2625 1778 2742 1645 
Q 2859 1513 2920 1364 
Q 2981 1216 2981 1038 
z
M 2306 3113 
Q 2306 3244 2261 3350 
Q 2216 3456 2128 3531 
Q 2041 3606 1911 3645 
Q 1781 3684 1616 3684 
Q 1278 3684 1104 3531 
Q 931 3378 931 3113 
Q 931 2991 973 2886 
Q 1016 2781 1105 2687 
Q 1194 2594 1330 2505 
Q 1466 2416 1653 2319 
Q 1969 2481 2137 2678 
Q 2306 2875 2306 3113 
z
M 2438 981 
Q 2438 1125 2384 1242 
Q 2331 1359 2223 1461 
Q 2116 1563 1955 1658 
Q 1794 1753 1581 1856 
Q 1384 1759 1236 1662 
Q 1088 1566 992 1462 
Q 897 1359 848 1245 
Q 800 1131 800 994 
Q 800 691 1008 525 
Q 1216 359 1628 359 
Q 2028 359 2233 526 
Q 2438 694 2438 981 
z
" transform="scale(0.015625)"/>
       <path id="Calibri-25" d="M 1966 3044 
Q 1966 2803 1912 2606 
Q 1859 2410 1750 2270 
Q 1641 2131 1473 2053 
Q 1306 1975 1081 1975 
Q 853 1975 690 2047 
Q 528 2119 425 2255 
Q 322 2391 273 2586 
Q 225 2781 225 3031 
Q 225 3260 276 3453 
Q 328 3647 434 3787 
Q 541 3928 708 4009 
Q 875 4091 1103 4091 
Q 1350 4091 1517 4006 
Q 1684 3922 1784 3780 
Q 1884 3638 1925 3447 
Q 1966 3256 1966 3044 
z
M 1528 3028 
Q 1528 3203 1503 3339 
Q 1478 3475 1426 3565 
Q 1375 3656 1290 3701 
Q 1206 3747 1091 3747 
Q 981 3747 900 3703 
Q 819 3660 767 3572 
Q 716 3485 691 3355 
Q 666 3225 666 3050 
Q 666 2838 695 2695 
Q 725 2553 779 2470 
Q 834 2388 917 2355 
Q 1000 2322 1106 2322 
Q 1231 2322 1311 2369 
Q 1391 2416 1439 2508 
Q 1488 2600 1508 2730 
Q 1528 2860 1528 3028 
z
M 4350 1022 
Q 4350 781 4297 584 
Q 4244 388 4134 248 
Q 4025 109 3858 31 
Q 3691 -47 3466 -47 
Q 3238 -47 3075 25 
Q 2913 97 2809 233 
Q 2706 369 2657 564 
Q 2609 759 2609 1009 
Q 2609 1238 2661 1431 
Q 2713 1625 2819 1765 
Q 2925 1906 3092 1987 
Q 3259 2069 3488 2069 
Q 3734 2069 3901 1984 
Q 4069 1900 4169 1758 
Q 4269 1616 4309 1425 
Q 4350 1234 4350 1022 
z
M 3913 1006 
Q 3913 1181 3888 1317 
Q 3863 1453 3811 1543 
Q 3759 1634 3675 1679 
Q 3591 1725 3475 1725 
Q 3366 1725 3284 1681 
Q 3203 1638 3151 1550 
Q 3100 1463 3075 1333 
Q 3050 1203 3050 1028 
Q 3050 816 3079 673 
Q 3109 531 3164 448 
Q 3219 366 3301 333 
Q 3384 300 3491 300 
Q 3616 300 3695 347 
Q 3775 394 3823 486 
Q 3872 578 3892 708 
Q 3913 838 3913 1006 
z
M 1081 -25 
Q 1066 -53 1044 -67 
Q 1022 -81 990 -92 
Q 959 -103 915 -108 
Q 872 -113 809 -113 
Q 741 -113 698 -100 
Q 656 -88 639 -67 
Q 622 -47 626 -17 
Q 631 13 656 50 
L 3469 4078 
Q 3484 4103 3506 4120 
Q 3528 4138 3561 4147 
Q 3594 4156 3636 4161 
Q 3678 4166 3744 4166 
Q 3809 4166 3851 4155 
Q 3894 4144 3912 4122 
Q 3931 4100 3926 4069 
Q 3922 4038 3897 4003 
L 1081 -25 
z
" transform="scale(0.015625)"/>
      </defs>
      <use xlink:href="#Calibri-32"/>
      <use xlink:href="#Calibri-30" x="50.683594"/>
      <use xlink:href="#Calibri-2e" x="101.367188"/>
      <use xlink:href="#Calibri-38" x="126.611328"/>
      <use xlink:href="#Calibri-25" x="177.294922"/>
     </g>
    </g>
    <g id="patch_9">
     <path d="M 327.777375 175.32 
L 383.895938 175.32 
L 383.895938 138.93039 
L 327.777375 138.93039 
z
" style="fill: #e1eff2; stroke: #00263e; stroke-linejoin: miter"/>
    </g>
    <g id="text_9">
     <!-- 141 -->
     <g style="fill: #00263e" transform="translate(361.557206 159.888085) scale(0.11 -0.11)">
      <defs>
       <path id="Calibri-34" d="M 3059 1150 
Q 3059 1047 3028 987 
Q 2997 928 2941 928 
L 2484 928 
L 2484 78 
Q 2484 53 2471 36 
Q 2459 19 2428 6 
Q 2397 -6 2347 -12 
Q 2297 -19 2219 -19 
Q 2144 -19 2094 -12 
Q 2044 -6 2014 6 
Q 1984 19 1973 36 
Q 1963 53 1963 78 
L 1963 928 
L 294 928 
Q 256 928 231 937 
Q 206 947 186 972 
Q 166 997 158 1044 
Q 150 1091 150 1166 
Q 150 1225 153 1272 
Q 156 1319 165 1358 
Q 175 1397 190 1433 
Q 206 1469 228 1509 
L 1684 3966 
Q 1700 3991 1729 4009 
Q 1759 4028 1806 4040 
Q 1853 4053 1922 4058 
Q 1991 4063 2084 4063 
Q 2188 4063 2264 4055 
Q 2341 4047 2387 4034 
Q 2434 4022 2459 4001 
Q 2484 3981 2484 3953 
L 2484 1372 
L 2941 1372 
Q 2994 1372 3026 1317 
Q 3059 1263 3059 1150 
z
M 1963 3591 
L 1956 3591 
L 641 1372 
L 1963 1372 
L 1963 3591 
z
" transform="scale(0.015625)"/>
      </defs>
      <use xlink:href="#Calibri-31"/>
      <use xlink:href="#Calibri-34" x="50.683594"/>
      <use xlink:href="#Calibri-31" x="101.367188"/>
     </g>
    </g>
    <g id="patch_10">
     <path d="M 383.895938 175.32 
L 441.714 175.32 
L 441.714 138.93039 
L 383.895938 138.93039 
z
" style="fill: #e1eff2; stroke: #00263e; stroke-linejoin: miter"/>
    </g>
    <g id="text_10">
     <!-- 27.9% -->
     <g style="fill: #00263e" transform="translate(408.564537 159.888085) scale(0.11 -0.11)">
      <defs>
       <path id="Calibri-39" d="M 2919 2181 
Q 2919 1919 2887 1650 
Q 2856 1381 2781 1132 
Q 2706 884 2579 667 
Q 2453 450 2261 287 
Q 2069 125 1805 33 
Q 1541 -59 1191 -59 
Q 1056 -59 929 -42 
Q 803 -25 701 0 
Q 600 25 531 53 
Q 463 81 431 109 
Q 400 138 386 186 
Q 372 234 372 316 
Q 372 384 376 425 
Q 381 466 390 487 
Q 400 509 417 517 
Q 434 525 459 525 
Q 494 525 556 501 
Q 619 478 714 450 
Q 809 422 937 398 
Q 1066 375 1225 375 
Q 1528 375 1745 492 
Q 1963 609 2100 806 
Q 2238 1003 2306 1262 
Q 2375 1522 2381 1809 
Q 2216 1713 1984 1638 
Q 1753 1563 1453 1563 
Q 1116 1563 886 1655 
Q 656 1747 517 1906 
Q 378 2066 317 2284 
Q 256 2503 256 2763 
Q 256 3031 334 3273 
Q 413 3516 578 3700 
Q 744 3884 1000 3993 
Q 1256 4103 1613 4103 
Q 1866 4103 2061 4039 
Q 2256 3975 2400 3854 
Q 2544 3734 2644 3564 
Q 2744 3394 2805 3178 
Q 2866 2963 2892 2711 
Q 2919 2459 2919 2181 
z
M 2372 2241 
Q 2372 2641 2319 2914 
Q 2266 3188 2162 3356 
Q 2059 3525 1909 3600 
Q 1759 3675 1563 3675 
Q 1359 3675 1215 3601 
Q 1072 3528 980 3404 
Q 888 3281 844 3125 
Q 800 2969 800 2803 
Q 800 2619 839 2466 
Q 878 2313 965 2206 
Q 1053 2100 1193 2042 
Q 1334 1984 1541 1984 
Q 1775 1984 1994 2054 
Q 2213 2125 2372 2241 
z
" transform="scale(0.015625)"/>
      </defs>
      <use xlink:href="#Calibri-32"/>
      <use xlink:href="#Calibri-37" x="50.683594"/>
      <use xlink:href="#Calibri-2e" x="101.367188"/>
      <use xlink:href="#Calibri-39" x="126.611328"/>
      <use xlink:href="#Calibri-25" x="177.294922"/>
     </g>
    </g>
    <g id="patch_11">
     <path d="M 441.714 175.32 
L 529.81575 175.32 
L 529.81575 138.93039 
L 441.714 138.93039 
z
" style="fill: #e1eff2; stroke: #00263e; stroke-linejoin: miter"/>
    </g>
    <g id="text_11">
     <!-- 11.1% -->
     <g style="fill: #00263e" transform="translate(493.637919 159.888085) scale(0.11 -0.11)">
      <use xlink:href="#Calibri-31"/>
      <use xlink:href="#Calibri-31" x="50.683594"/>
      <use xlink:href="#Calibri-2e" x="101.367188"/>
      <use xlink:href="#Calibri-31" x="126.611328"/>
      <use xlink:href="#Calibri-25" x="177.294922"/>
     </g>
    </g>
    <g id="patch_12">
     <path d="M 114.283875 211.70961 
L 180.82425 211.70961 
M 180.82425 175.32 
L 114.283875 175.32 
M 114.283875 211.70961 
" style="fill: #ffffff; stroke: #e1eff2; stroke-linejoin: miter"/>
    </g>
    <g id="text_12">
     <!-- 18 to 64 -->
     <g style="fill: #00263e" transform="translate(120.937913 196.278555) scale(0.11 -0.11)">
      <defs>
       <path id="Calibri-Bold-36" d="M 3050 1350 
Q 3050 1044 2956 783 
Q 2863 522 2681 333 
Q 2500 144 2234 36 
Q 1969 -72 1622 -72 
Q 1341 -72 1131 -8 
Q 922 56 769 176 
Q 616 297 519 469 
Q 422 641 364 856 
Q 306 1072 284 1325 
Q 263 1578 263 1863 
Q 263 2100 286 2359 
Q 309 2619 376 2869 
Q 444 3119 566 3345 
Q 688 3572 880 3742 
Q 1072 3913 1345 4013 
Q 1619 4113 1994 4113 
Q 2113 4113 2233 4098 
Q 2353 4084 2456 4062 
Q 2559 4041 2631 4012 
Q 2703 3984 2726 3964 
Q 2750 3944 2762 3919 
Q 2775 3894 2783 3864 
Q 2791 3834 2794 3790 
Q 2797 3747 2797 3684 
Q 2797 3588 2792 3523 
Q 2788 3459 2775 3423 
Q 2763 3388 2741 3372 
Q 2719 3356 2688 3356 
Q 2650 3356 2590 3376 
Q 2531 3397 2447 3422 
Q 2363 3447 2248 3465 
Q 2134 3484 1984 3484 
Q 1731 3484 1556 3390 
Q 1381 3297 1272 3136 
Q 1163 2975 1113 2762 
Q 1063 2550 1059 2313 
Q 1128 2356 1217 2400 
Q 1306 2444 1411 2475 
Q 1516 2506 1637 2526 
Q 1759 2547 1897 2547 
Q 2203 2547 2422 2462 
Q 2641 2378 2780 2222 
Q 2919 2066 2984 1844 
Q 3050 1622 3050 1350 
z
M 2244 1272 
Q 2244 1431 2216 1551 
Q 2188 1672 2125 1755 
Q 2063 1838 1959 1880 
Q 1856 1922 1709 1922 
Q 1622 1922 1537 1906 
Q 1453 1891 1372 1862 
Q 1291 1834 1216 1795 
Q 1141 1756 1075 1713 
Q 1075 1378 1112 1154 
Q 1150 931 1223 800 
Q 1297 669 1408 614 
Q 1519 559 1666 559 
Q 1809 559 1917 612 
Q 2025 666 2097 762 
Q 2169 859 2206 989 
Q 2244 1119 2244 1272 
z
" transform="scale(0.015625)"/>
       <path id="Calibri-Bold-34" d="M 3113 1163 
Q 3113 1003 3080 920 
Q 3047 838 2991 838 
L 2631 838 
L 2631 106 
Q 2631 75 2612 51 
Q 2594 28 2547 12 
Q 2500 -3 2425 -11 
Q 2350 -19 2231 -19 
Q 2119 -19 2042 -11 
Q 1966 -3 1920 12 
Q 1875 28 1858 51 
Q 1841 75 1841 106 
L 1841 838 
L 294 838 
Q 250 838 215 848 
Q 181 859 157 898 
Q 134 938 123 1011 
Q 113 1084 113 1206 
Q 113 1306 117 1379 
Q 122 1453 133 1512 
Q 144 1572 164 1625 
Q 184 1678 216 1738 
L 1472 3953 
Q 1488 3981 1525 4001 
Q 1563 4022 1630 4036 
Q 1697 4050 1800 4056 
Q 1903 4063 2050 4063 
Q 2209 4063 2321 4055 
Q 2434 4047 2501 4030 
Q 2569 4013 2600 3988 
Q 2631 3963 2631 3928 
L 2631 1494 
L 2991 1494 
Q 3041 1494 3077 1417 
Q 3113 1341 3113 1163 
z
M 1841 3353 
L 1834 3353 
L 769 1494 
L 1841 1494 
L 1841 3353 
z
" transform="scale(0.015625)"/>
      </defs>
      <use xlink:href="#Calibri-Bold-31"/>
      <use xlink:href="#Calibri-Bold-38" x="50.683594"/>
      <use xlink:href="#Calibri-Bold-20" x="101.367188"/>
      <use xlink:href="#Calibri-Bold-74" x="123.974609"/>
      <use xlink:href="#Calibri-Bold-6f" x="158.642578"/>
      <use xlink:href="#Calibri-Bold-20" x="212.402344"/>
      <use xlink:href="#Calibri-Bold-36" x="235.009766"/>
      <use xlink:href="#Calibri-Bold-34" x="285.693359"/>
     </g>
    </g>
    <g id="patch_13">
     <path d="M 180.82425 211.70961 
L 240.86775 211.70961 
L 240.86775 175.32 
L 180.82425 175.32 
z
" style="fill: #f4f9f9; stroke: #00263e; stroke-linejoin: miter"/>
    </g>
    <g id="text_13">
     <!-- 3,629 -->
     <g style="fill: #00263e" transform="translate(209.816056 196.277696) scale(0.11 -0.11)">
      <defs>
       <path id="Calibri-33" d="M 2856 1156 
Q 2856 878 2759 654 
Q 2663 431 2481 272 
Q 2300 113 2034 27 
Q 1769 -59 1434 -59 
Q 1231 -59 1054 -26 
Q 878 6 740 51 
Q 603 97 512 145 
Q 422 194 398 216 
Q 375 238 362 259 
Q 350 281 340 312 
Q 331 344 326 389 
Q 322 434 322 500 
Q 322 613 344 656 
Q 366 700 406 700 
Q 434 700 517 650 
Q 600 600 729 542 
Q 859 484 1032 434 
Q 1206 384 1419 384 
Q 1625 384 1781 437 
Q 1938 491 2044 587 
Q 2150 684 2203 817 
Q 2256 950 2256 1106 
Q 2256 1278 2189 1415 
Q 2122 1553 1992 1653 
Q 1863 1753 1673 1806 
Q 1484 1859 1244 1859 
L 859 1859 
Q 834 1859 811 1870 
Q 788 1881 770 1906 
Q 753 1931 742 1972 
Q 731 2013 731 2078 
Q 731 2138 740 2177 
Q 750 2216 767 2239 
Q 784 2263 806 2273 
Q 828 2284 856 2284 
L 1209 2284 
Q 1416 2284 1580 2337 
Q 1744 2391 1858 2491 
Q 1972 2591 2033 2730 
Q 2094 2869 2094 3041 
Q 2094 3166 2053 3280 
Q 2013 3394 1931 3478 
Q 1850 3563 1723 3611 
Q 1597 3659 1431 3659 
Q 1250 3659 1098 3604 
Q 947 3550 828 3487 
Q 709 3425 631 3370 
Q 553 3316 522 3316 
Q 500 3316 483 3323 
Q 466 3331 455 3354 
Q 444 3378 439 3420 
Q 434 3463 434 3531 
Q 434 3578 437 3614 
Q 441 3650 450 3676 
Q 459 3703 471 3725 
Q 484 3747 514 3776 
Q 544 3806 634 3862 
Q 725 3919 858 3973 
Q 991 4028 1164 4065 
Q 1338 4103 1538 4103 
Q 1819 4103 2031 4031 
Q 2244 3959 2386 3828 
Q 2528 3697 2598 3514 
Q 2669 3331 2669 3109 
Q 2669 2919 2619 2755 
Q 2569 2591 2472 2464 
Q 2375 2338 2234 2248 
Q 2094 2159 1909 2125 
L 1909 2119 
Q 2119 2097 2292 2014 
Q 2466 1931 2591 1806 
Q 2716 1681 2786 1514 
Q 2856 1347 2856 1156 
z
" transform="scale(0.015625)"/>
      </defs>
      <use xlink:href="#Calibri-33"/>
      <use xlink:href="#Calibri-2c" x="50.683594"/>
      <use xlink:href="#Calibri-36" x="75.634766"/>
      <use xlink:href="#Calibri-32" x="126.318359"/>
      <use xlink:href="#Calibri-39" x="177.001953"/>
     </g>
    </g>
    <g id="patch_14">
     <path d="M 240.86775 211.70961 
L 327.777375 211.70961 
L 327.777375 175.32 
L 240.86775 175.32 
z
" style="fill: #f4f9f9; stroke: #00263e; stroke-linejoin: miter"/>
    </g>
    <g id="text_14">
     <!-- 59.5% -->
     <g style="fill: #00263e" transform="translate(291.718756 196.277696) scale(0.11 -0.11)">
      <defs>
       <path id="Calibri-35" d="M 2869 1300 
Q 2869 975 2759 722 
Q 2650 469 2450 295 
Q 2250 122 1973 31 
Q 1697 -59 1359 -59 
Q 1172 -59 1003 -32 
Q 834 -6 703 33 
Q 572 72 487 109 
Q 403 147 379 169 
Q 356 191 347 209 
Q 338 228 330 254 
Q 322 281 319 322 
Q 316 363 316 419 
Q 316 472 320 514 
Q 325 556 337 582 
Q 350 609 367 621 
Q 384 634 406 634 
Q 438 634 503 595 
Q 569 556 680 511 
Q 791 466 955 425 
Q 1119 384 1344 384 
Q 1553 384 1728 434 
Q 1903 484 2029 590 
Q 2156 697 2228 858 
Q 2300 1019 2300 1250 
Q 2300 1444 2239 1592 
Q 2178 1741 2051 1839 
Q 1925 1938 1731 1986 
Q 1538 2034 1269 2034 
Q 1078 2034 940 2015 
Q 803 1997 684 1997 
Q 597 1997 559 2037 
Q 522 2078 522 2194 
L 522 3841 
Q 522 3944 570 3994 
Q 619 4044 709 4044 
L 2500 4044 
Q 2525 4044 2548 4030 
Q 2572 4016 2587 3987 
Q 2603 3959 2611 3915 
Q 2619 3872 2619 3813 
Q 2619 3700 2587 3637 
Q 2556 3575 2500 3575 
L 991 3575 
L 991 2441 
Q 1100 2456 1214 2459 
Q 1328 2463 1478 2463 
Q 1825 2463 2084 2380 
Q 2344 2297 2517 2145 
Q 2691 1994 2780 1778 
Q 2869 1563 2869 1300 
z
" transform="scale(0.015625)"/>
      </defs>
      <use xlink:href="#Calibri-35"/>
      <use xlink:href="#Calibri-39" x="50.683594"/>
      <use xlink:href="#Calibri-2e" x="101.367188"/>
      <use xlink:href="#Calibri-35" x="126.611328"/>
      <use xlink:href="#Calibri-25" x="177.294922"/>
     </g>
    </g>
    <g id="patch_15">
     <path d="M 327.777375 211.70961 
L 383.895938 211.70961 
L 383.895938 175.32 
L 327.777375 175.32 
z
" style="fill: #f4f9f9; stroke: #00263e; stroke-linejoin: miter"/>
    </g>
    <g id="text_15">
     <!-- 292 -->
     <g style="fill: #00263e" transform="translate(361.557206 196.277696) scale(0.11 -0.11)">
      <use xlink:href="#Calibri-32"/>
      <use xlink:href="#Calibri-39" x="50.683594"/>
      <use xlink:href="#Calibri-32" x="101.367188"/>
     </g>
    </g>
    <g id="patch_16">
     <path d="M 383.895938 211.70961 
L 441.714 211.70961 
L 441.714 175.32 
L 383.895938 175.32 
z
" style="fill: #f4f9f9; stroke: #00263e; stroke-linejoin: miter"/>
    </g>
    <g id="text_16">
     <!-- 57.8% -->
     <g style="fill: #00263e" transform="translate(408.564537 196.277696) scale(0.11 -0.11)">
      <use xlink:href="#Calibri-35"/>
      <use xlink:href="#Calibri-37" x="50.683594"/>
      <use xlink:href="#Calibri-2e" x="101.367188"/>
      <use xlink:href="#Calibri-38" x="126.611328"/>
      <use xlink:href="#Calibri-25" x="177.294922"/>
     </g>
    </g>
    <g id="patch_17">
     <path d="M 441.714 211.70961 
L 529.81575 211.70961 
L 529.81575 175.32 
L 441.714 175.32 
z
" style="fill: #f4f9f9; stroke: #00263e; stroke-linejoin: miter"/>
    </g>
    <g id="text_17">
     <!-- 8.0% -->
     <g style="fill: #00263e" transform="translate(499.213544 196.277696) scale(0.11 -0.11)">
      <use xlink:href="#Calibri-38"/>
      <use xlink:href="#Calibri-2e" x="50.683594"/>
      <use xlink:href="#Calibri-30" x="75.927734"/>
      <use xlink:href="#Calibri-25" x="126.611328"/>
     </g>
    </g>
    <g id="patch_18">
     <path d="M 114.283875 248.099221 
L 180.82425 248.099221 
M 180.82425 211.70961 
L 114.283875 211.70961 
M 114.283875 248.099221 
" style="fill: #ffffff; stroke: #e1eff2; stroke-linejoin: miter"/>
    </g>
    <g id="text_18">
     <!-- 65 and Over -->
     <g style="fill: #00263e" transform="translate(120.937913 232.668166) scale(0.11 -0.11)">
      <defs>
       <path id="Calibri-Bold-35" d="M 2950 1313 
Q 2950 984 2836 726 
Q 2722 469 2514 292 
Q 2306 116 2014 22 
Q 1722 -72 1366 -72 
Q 1178 -72 1009 -48 
Q 841 -25 706 11 
Q 572 47 486 83 
Q 400 119 373 142 
Q 347 166 334 194 
Q 322 222 314 261 
Q 306 300 303 359 
Q 300 419 300 500 
Q 300 588 306 648 
Q 313 709 327 746 
Q 341 784 359 800 
Q 378 816 403 816 
Q 434 816 498 780 
Q 563 744 667 700 
Q 772 656 922 620 
Q 1072 584 1281 584 
Q 1463 584 1611 621 
Q 1759 659 1862 742 
Q 1966 825 2022 950 
Q 2078 1075 2078 1250 
Q 2078 1400 2031 1517 
Q 1984 1634 1884 1715 
Q 1784 1797 1625 1837 
Q 1466 1878 1238 1878 
Q 1056 1878 907 1859 
Q 759 1841 628 1841 
Q 538 1841 498 1886 
Q 459 1931 459 2053 
L 459 3809 
Q 459 3934 507 3989 
Q 556 4044 663 4044 
L 2578 4044 
Q 2606 4044 2631 4025 
Q 2656 4006 2673 3965 
Q 2691 3925 2698 3858 
Q 2706 3791 2706 3697 
Q 2706 3509 2673 3425 
Q 2641 3341 2578 3341 
L 1141 3341 
L 1141 2475 
Q 1250 2488 1358 2491 
Q 1466 2494 1584 2494 
Q 1913 2494 2167 2417 
Q 2422 2341 2595 2192 
Q 2769 2044 2859 1823 
Q 2950 1603 2950 1313 
z
" transform="scale(0.015625)"/>
       <path id="Calibri-Bold-4f" d="M 4078 2069 
Q 4078 1566 3953 1169 
Q 3828 772 3581 495 
Q 3334 219 2970 73 
Q 2606 -72 2128 -72 
Q 1656 -72 1304 51 
Q 953 175 718 428 
Q 484 681 367 1072 
Q 250 1463 250 1997 
Q 250 2488 375 2880 
Q 500 3272 747 3547 
Q 994 3822 1358 3969 
Q 1722 4116 2203 4116 
Q 2663 4116 3014 3994 
Q 3366 3872 3602 3619 
Q 3838 3366 3958 2980 
Q 4078 2594 4078 2069 
z
M 3216 2025 
Q 3216 2344 3166 2605 
Q 3116 2866 2995 3052 
Q 2875 3238 2675 3339 
Q 2475 3441 2175 3441 
Q 1872 3441 1669 3327 
Q 1466 3213 1341 3022 
Q 1216 2831 1164 2576 
Q 1113 2322 1113 2038 
Q 1113 1706 1163 1442 
Q 1213 1178 1331 990 
Q 1450 803 1650 704 
Q 1850 606 2153 606 
Q 2456 606 2659 718 
Q 2863 831 2988 1025 
Q 3113 1219 3164 1476 
Q 3216 1734 3216 2025 
z
" transform="scale(0.015625)"/>
      </defs>
      <use xlink:href="#Calibri-Bold-36"/>
      <use xlink:href="#Calibri-Bold-35" x="50.683594"/>
      <use xlink:href="#Calibri-Bold-20" x="101.367188"/>
      <use xlink:href="#Calibri-Bold-61" x="123.974609"/>
      <use xlink:href="#Calibri-Bold-6e" x="173.339844"/>
      <use xlink:href="#Calibri-Bold-64" x="227.001953"/>
      <use xlink:href="#Calibri-Bold-20" x="280.664062"/>
      <use xlink:href="#Calibri-Bold-4f" x="303.271484"/>
      <use xlink:href="#Calibri-Bold-76" x="370.898438"/>
      <use xlink:href="#Calibri-Bold-65" x="418.212891"/>
      <use xlink:href="#Calibri-Bold-72" x="468.554688"/>
     </g>
    </g>
    <g id="patch_19">
     <path d="M 180.82425 248.099221 
L 240.86775 248.099221 
L 240.86775 211.70961 
L 180.82425 211.70961 
z
" style="fill: #e1eff2; stroke: #00263e; stroke-linejoin: miter"/>
    </g>
    <g id="text_19">
     <!-- 1,203 -->
     <g style="fill: #00263e" transform="translate(209.816056 232.667306) scale(0.11 -0.11)">
      <use xlink:href="#Calibri-31"/>
      <use xlink:href="#Calibri-2c" x="50.683594"/>
      <use xlink:href="#Calibri-32" x="75.634766"/>
      <use xlink:href="#Calibri-30" x="126.318359"/>
      <use xlink:href="#Calibri-33" x="177.001953"/>
     </g>
    </g>
    <g id="patch_20">
     <path d="M 240.86775 248.099221 
L 327.777375 248.099221 
L 327.777375 211.70961 
L 240.86775 211.70961 
z
" style="fill: #e1eff2; stroke: #00263e; stroke-linejoin: miter"/>
    </g>
    <g id="text_20">
     <!-- 19.7% -->
     <g style="fill: #00263e" transform="translate(291.718756 232.667306) scale(0.11 -0.11)">
      <use xlink:href="#Calibri-31"/>
      <use xlink:href="#Calibri-39" x="50.683594"/>
      <use xlink:href="#Calibri-2e" x="101.367188"/>
      <use xlink:href="#Calibri-37" x="126.611328"/>
      <use xlink:href="#Calibri-25" x="177.294922"/>
     </g>
    </g>
    <g id="patch_21">
     <path d="M 327.777375 248.099221 
L 383.895938 248.099221 
L 383.895938 211.70961 
L 327.777375 211.70961 
z
" style="fill: #e1eff2; stroke: #00263e; stroke-linejoin: miter"/>
    </g>
    <g id="text_21">
     <!-- 72 -->
     <g style="fill: #00263e" transform="translate(367.132831 232.667306) scale(0.11 -0.11)">
      <use xlink:href="#Calibri-37"/>
      <use xlink:href="#Calibri-32" x="50.683594"/>
     </g>
    </g>
    <g id="patch_22">
     <path d="M 383.895938 248.099221 
L 441.714 248.099221 
L 441.714 211.70961 
L 383.895938 211.70961 
z
" style="fill: #e1eff2; stroke: #00263e; stroke-linejoin: miter"/>
    </g>
    <g id="text_22">
     <!-- 14.3% -->
     <g style="fill: #00263e" transform="translate(408.564537 232.667306) scale(0.11 -0.11)">
      <use xlink:href="#Calibri-31"/>
      <use xlink:href="#Calibri-34" x="50.683594"/>
      <use xlink:href="#Calibri-2e" x="101.367188"/>
      <use xlink:href="#Calibri-33" x="126.611328"/>
      <use xlink:href="#Calibri-25" x="177.294922"/>
     </g>
    </g>
    <g id="patch_23">
     <path d="M 441.714 248.099221 
L 529.81575 248.099221 
L 529.81575 211.70961 
L 441.714 211.70961 
z
" style="fill: #e1eff2; stroke: #00263e; stroke-linejoin: miter"/>
    </g>
    <g id="text_23">
     <!-- 6.0% -->
     <g style="fill: #00263e" transform="translate(499.213544 232.667306) scale(0.11 -0.11)">
      <use xlink:href="#Calibri-36"/>
      <use xlink:href="#Calibri-2e" x="50.683594"/>
      <use xlink:href="#Calibri-30" x="75.927734"/>
      <use xlink:href="#Calibri-25" x="126.611328"/>
     </g>
    </g>
   </g>
   <g id="text_24">
    <!-- Poverty by Age -->
    <g style="fill: #00263e" transform="translate(300.360937 88.072) scale(0.18 -0.18)">
     <defs>
      <path id="Calibri-50" d="M 3022 2859 
Q 3022 2556 2922 2312 
Q 2822 2069 2636 1897 
Q 2450 1725 2179 1631 
Q 1909 1538 1534 1538 
L 1075 1538 
L 1075 81 
Q 1075 56 1061 37 
Q 1047 19 1017 8 
Q 988 -3 936 -11 
Q 884 -19 806 -19 
Q 728 -19 676 -11 
Q 625 -3 594 8 
Q 563 19 550 37 
Q 538 56 538 81 
L 538 3813 
Q 538 3938 603 3991 
Q 669 4044 750 4044 
L 1616 4044 
Q 1747 4044 1867 4033 
Q 1988 4022 2152 3986 
Q 2316 3950 2486 3851 
Q 2656 3753 2775 3609 
Q 2894 3466 2958 3277 
Q 3022 3088 3022 2859 
z
M 2456 2816 
Q 2456 3063 2364 3228 
Q 2272 3394 2136 3475 
Q 2000 3556 1854 3578 
Q 1709 3600 1572 3600 
L 1075 3600 
L 1075 1978 
L 1559 1978 
Q 1803 1978 1964 2040 
Q 2125 2103 2234 2214 
Q 2344 2325 2400 2479 
Q 2456 2634 2456 2816 
z
" transform="scale(0.015625)"/>
      <path id="Calibri-6f" d="M 3094 1516 
Q 3094 1172 3003 883 
Q 2913 594 2733 384 
Q 2553 175 2283 58 
Q 2013 -59 1656 -59 
Q 1309 -59 1051 44 
Q 794 147 622 344 
Q 450 541 365 822 
Q 281 1103 281 1459 
Q 281 1803 370 2092 
Q 459 2381 639 2590 
Q 819 2800 1087 2915 
Q 1356 3031 1716 3031 
Q 2063 3031 2320 2928 
Q 2578 2825 2750 2628 
Q 2922 2431 3008 2150 
Q 3094 1869 3094 1516 
z
M 2550 1481 
Q 2550 1709 2508 1912 
Q 2466 2116 2369 2269 
Q 2272 2422 2106 2511 
Q 1941 2600 1694 2600 
Q 1466 2600 1302 2519 
Q 1138 2438 1031 2289 
Q 925 2141 873 1937 
Q 822 1734 822 1494 
Q 822 1263 864 1059 
Q 906 856 1004 704 
Q 1103 553 1268 464 
Q 1434 375 1681 375 
Q 1906 375 2072 456 
Q 2238 538 2344 684 
Q 2450 831 2500 1034 
Q 2550 1238 2550 1481 
z
" transform="scale(0.015625)"/>
      <path id="Calibri-76" d="M 2784 2897 
Q 2784 2884 2782 2870 
Q 2781 2856 2778 2840 
Q 2775 2825 2770 2806 
Q 2766 2788 2759 2766 
L 1800 94 
Q 1788 59 1767 37 
Q 1747 16 1706 3 
Q 1666 -9 1603 -14 
Q 1541 -19 1447 -19 
Q 1353 -19 1290 -12 
Q 1228 -6 1189 6 
Q 1150 19 1128 41 
Q 1106 63 1094 94 
L 138 2766 
Q 125 2803 117 2831 
Q 109 2859 107 2873 
Q 106 2888 106 2897 
Q 106 2922 118 2940 
Q 131 2959 161 2970 
Q 191 2981 239 2984 
Q 288 2988 359 2988 
Q 450 2988 504 2983 
Q 559 2978 589 2965 
Q 619 2953 633 2934 
Q 647 2916 659 2888 
L 1453 569 
L 1466 531 
L 1475 569 
L 2259 2888 
Q 2266 2916 2281 2934 
Q 2297 2953 2326 2965 
Q 2356 2978 2407 2983 
Q 2459 2988 2544 2988 
Q 2616 2988 2662 2984 
Q 2709 2981 2736 2968 
Q 2763 2956 2773 2939 
Q 2784 2922 2784 2897 
z
" transform="scale(0.015625)"/>
      <path id="Calibri-65" d="M 2878 1606 
Q 2878 1484 2817 1432 
Q 2756 1381 2678 1381 
L 834 1381 
Q 834 1147 881 959 
Q 928 772 1037 637 
Q 1147 503 1322 431 
Q 1497 359 1750 359 
Q 1950 359 2106 392 
Q 2263 425 2377 465 
Q 2491 506 2564 539 
Q 2638 572 2675 572 
Q 2697 572 2714 561 
Q 2731 550 2740 528 
Q 2750 506 2754 467 
Q 2759 428 2759 372 
Q 2759 331 2756 301 
Q 2753 272 2748 248 
Q 2744 225 2733 206 
Q 2722 188 2705 170 
Q 2688 153 2603 114 
Q 2519 75 2384 37 
Q 2250 0 2073 -29 
Q 1897 -59 1697 -59 
Q 1350 -59 1089 37 
Q 828 134 650 325 
Q 472 516 381 803 
Q 291 1091 291 1472 
Q 291 1834 384 2123 
Q 478 2413 654 2614 
Q 831 2816 1081 2923 
Q 1331 3031 1641 3031 
Q 1972 3031 2205 2925 
Q 2438 2819 2588 2639 
Q 2738 2459 2808 2217 
Q 2878 1975 2878 1700 
L 2878 1606 
z
M 2359 1759 
Q 2369 2166 2180 2397 
Q 1991 2628 1619 2628 
Q 1428 2628 1284 2556 
Q 1141 2484 1044 2365 
Q 947 2247 894 2089 
Q 841 1931 834 1759 
L 2359 1759 
z
" transform="scale(0.015625)"/>
      <path id="Calibri-72" d="M 2122 2706 
Q 2122 2638 2119 2591 
Q 2116 2544 2106 2517 
Q 2097 2491 2083 2477 
Q 2069 2463 2044 2463 
Q 2019 2463 1983 2477 
Q 1947 2491 1901 2505 
Q 1856 2519 1800 2531 
Q 1744 2544 1678 2544 
Q 1600 2544 1525 2512 
Q 1450 2481 1367 2409 
Q 1284 2338 1193 2219 
Q 1103 2100 994 1928 
L 994 78 
Q 994 53 981 36 
Q 969 19 941 6 
Q 913 -6 863 -12 
Q 813 -19 734 -19 
Q 659 -19 609 -12 
Q 559 -6 529 6 
Q 500 19 489 36 
Q 478 53 478 78 
L 478 2891 
Q 478 2916 487 2933 
Q 497 2950 525 2964 
Q 553 2978 597 2983 
Q 641 2988 713 2988 
Q 781 2988 826 2983 
Q 872 2978 897 2964 
Q 922 2950 933 2933 
Q 944 2916 944 2891 
L 944 2481 
Q 1059 2650 1161 2756 
Q 1263 2863 1353 2923 
Q 1444 2984 1533 3007 
Q 1622 3031 1713 3031 
Q 1753 3031 1804 3026 
Q 1856 3022 1912 3009 
Q 1969 2997 2014 2981 
Q 2059 2966 2078 2950 
Q 2097 2934 2103 2920 
Q 2109 2906 2114 2884 
Q 2119 2863 2120 2820 
Q 2122 2778 2122 2706 
z
" transform="scale(0.015625)"/>
      <path id="Calibri-74" d="M 1941 284 
Q 1941 194 1928 141 
Q 1916 88 1891 63 
Q 1866 38 1816 16 
Q 1766 -6 1702 -20 
Q 1638 -34 1566 -43 
Q 1494 -53 1422 -53 
Q 1203 -53 1047 5 
Q 891 63 791 180 
Q 691 297 645 476 
Q 600 656 600 900 
L 600 2544 
L 206 2544 
Q 159 2544 131 2594 
Q 103 2644 103 2756 
Q 103 2816 111 2856 
Q 119 2897 131 2923 
Q 144 2950 164 2961 
Q 184 2972 209 2972 
L 600 2972 
L 600 3641 
Q 600 3663 611 3681 
Q 622 3700 651 3714 
Q 681 3728 731 3734 
Q 781 3741 856 3741 
Q 934 3741 984 3734 
Q 1034 3728 1062 3714 
Q 1091 3700 1103 3681 
Q 1116 3663 1116 3641 
L 1116 2972 
L 1838 2972 
Q 1863 2972 1881 2961 
Q 1900 2950 1914 2923 
Q 1928 2897 1934 2856 
Q 1941 2816 1941 2756 
Q 1941 2644 1912 2594 
Q 1884 2544 1838 2544 
L 1116 2544 
L 1116 975 
Q 1116 684 1202 536 
Q 1288 388 1509 388 
Q 1581 388 1637 402 
Q 1694 416 1737 431 
Q 1781 447 1812 461 
Q 1844 475 1869 475 
Q 1884 475 1898 467 
Q 1913 459 1920 437 
Q 1928 416 1934 378 
Q 1941 341 1941 284 
z
" transform="scale(0.015625)"/>
      <path id="Calibri-79" d="M 1759 0 
L 1384 -1034 
Q 1366 -1084 1289 -1111 
Q 1213 -1138 1056 -1138 
Q 975 -1138 925 -1130 
Q 875 -1122 848 -1103 
Q 822 -1084 819 -1053 
Q 816 -1022 834 -978 
L 1222 0 
Q 1194 13 1169 41 
Q 1144 69 1134 100 
L 131 2788 
Q 106 2853 106 2890 
Q 106 2928 131 2950 
Q 156 2972 212 2980 
Q 269 2988 363 2988 
Q 456 2988 509 2983 
Q 563 2978 594 2965 
Q 625 2953 639 2929 
Q 653 2906 669 2866 
L 1472 609 
L 1481 609 
L 2256 2878 
Q 2275 2938 2301 2955 
Q 2328 2972 2381 2980 
Q 2434 2988 2534 2988 
Q 2622 2988 2678 2980 
Q 2734 2972 2761 2950 
Q 2788 2928 2788 2890 
Q 2788 2853 2769 2797 
L 1759 0 
z
" transform="scale(0.015625)"/>
      <path id="Calibri-20" transform="scale(0.015625)"/>
      <path id="Calibri-62" d="M 3066 1522 
Q 3066 1156 2986 864 
Q 2906 572 2751 365 
Q 2597 159 2372 50 
Q 2147 -59 1856 -59 
Q 1722 -59 1608 -32 
Q 1494 -6 1384 53 
Q 1275 113 1165 203 
Q 1056 294 934 422 
L 934 78 
Q 934 53 921 34 
Q 909 16 881 5 
Q 853 -6 811 -12 
Q 769 -19 703 -19 
Q 641 -19 597 -12 
Q 553 -6 525 5 
Q 497 16 487 34 
Q 478 53 478 78 
L 478 4253 
Q 478 4278 489 4297 
Q 500 4316 529 4328 
Q 559 4341 609 4347 
Q 659 4353 734 4353 
Q 813 4353 863 4347 
Q 913 4341 941 4328 
Q 969 4316 981 4297 
Q 994 4278 994 4253 
L 994 2569 
Q 1119 2697 1236 2784 
Q 1353 2872 1465 2926 
Q 1578 2981 1690 3006 
Q 1803 3031 1928 3031 
Q 2234 3031 2451 2909 
Q 2669 2788 2805 2583 
Q 2941 2378 3003 2103 
Q 3066 1828 3066 1522 
z
M 2522 1463 
Q 2522 1678 2489 1881 
Q 2456 2084 2375 2240 
Q 2294 2397 2159 2492 
Q 2025 2588 1825 2588 
Q 1725 2588 1628 2559 
Q 1531 2531 1431 2465 
Q 1331 2400 1223 2297 
Q 1116 2194 994 2038 
L 994 916 
Q 1206 656 1400 520 
Q 1594 384 1803 384 
Q 1997 384 2134 478 
Q 2272 572 2358 726 
Q 2444 881 2483 1073 
Q 2522 1266 2522 1463 
z
" transform="scale(0.015625)"/>
      <path id="Calibri-41" d="M 3566 191 
Q 3591 122 3592 80 
Q 3594 38 3569 16 
Q 3544 -6 3486 -12 
Q 3428 -19 3331 -19 
Q 3234 -19 3176 -14 
Q 3119 -9 3089 2 
Q 3059 13 3045 31 
Q 3031 50 3019 78 
L 2672 1063 
L 991 1063 
L 659 91 
Q 650 63 634 42 
Q 619 22 589 8 
Q 559 -6 504 -12 
Q 450 -19 363 -19 
Q 272 -19 214 -11 
Q 156 -3 132 19 
Q 109 41 111 83 
Q 113 125 138 194 
L 1494 3950 
Q 1506 3984 1526 4006 
Q 1547 4028 1586 4040 
Q 1625 4053 1686 4058 
Q 1747 4063 1841 4063 
Q 1941 4063 2006 4058 
Q 2072 4053 2112 4040 
Q 2153 4028 2175 4004 
Q 2197 3981 2209 3947 
L 3566 191 
z
M 1825 3506 
L 1822 3506 
L 1125 1491 
L 2531 1491 
L 1825 3506 
z
" transform="scale(0.015625)"/>
      <path id="Calibri-67" d="M 2828 2763 
Q 2828 2653 2798 2604 
Q 2769 2556 2722 2556 
L 2319 2556 
Q 2428 2444 2472 2308 
Q 2516 2172 2516 2025 
Q 2516 1781 2437 1593 
Q 2359 1406 2214 1276 
Q 2069 1147 1869 1078 
Q 1669 1009 1425 1009 
Q 1253 1009 1098 1054 
Q 944 1100 859 1169 
Q 803 1113 767 1041 
Q 731 969 731 875 
Q 731 766 832 694 
Q 934 622 1103 616 
L 1838 584 
Q 2047 578 2222 526 
Q 2397 475 2525 379 
Q 2653 284 2725 145 
Q 2797 6 2797 -178 
Q 2797 -372 2715 -547 
Q 2634 -722 2467 -855 
Q 2300 -988 2040 -1064 
Q 1781 -1141 1428 -1141 
Q 1088 -1141 848 -1083 
Q 609 -1025 456 -925 
Q 303 -825 234 -686 
Q 166 -547 166 -384 
Q 166 -281 191 -184 
Q 216 -88 267 0 
Q 319 88 395 167 
Q 472 247 572 325 
Q 419 403 345 522 
Q 272 641 272 778 
Q 272 969 350 1119 
Q 428 1269 544 1388 
Q 447 1503 390 1648 
Q 334 1794 334 2000 
Q 334 2241 415 2431 
Q 497 2622 640 2753 
Q 784 2884 986 2954 
Q 1188 3025 1425 3025 
Q 1553 3025 1664 3011 
Q 1775 2997 1872 2972 
L 2722 2972 
Q 2775 2972 2801 2920 
Q 2828 2869 2828 2763 
z
M 2022 2022 
Q 2022 2309 1864 2470 
Q 1706 2631 1416 2631 
Q 1266 2631 1155 2581 
Q 1044 2531 970 2443 
Q 897 2356 861 2242 
Q 825 2128 825 2003 
Q 825 1725 983 1565 
Q 1141 1406 1425 1406 
Q 1578 1406 1690 1454 
Q 1803 1503 1876 1589 
Q 1950 1675 1986 1787 
Q 2022 1900 2022 2022 
z
M 2281 -206 
Q 2281 -25 2132 73 
Q 1984 172 1731 178 
L 1003 203 
Q 903 125 839 54 
Q 775 -16 737 -80 
Q 700 -144 686 -206 
Q 672 -269 672 -334 
Q 672 -538 878 -642 
Q 1084 -747 1453 -747 
Q 1688 -747 1845 -701 
Q 2003 -656 2100 -581 
Q 2197 -506 2239 -409 
Q 2281 -313 2281 -206 
z
" transform="scale(0.015625)"/>
     </defs>
     <use xlink:href="#Calibri-50"/>
     <use xlink:href="#Calibri-6f" x="51.660156"/>
     <use xlink:href="#Calibri-76" x="104.394531"/>
     <use xlink:href="#Calibri-65" x="149.560547"/>
     <use xlink:href="#Calibri-72" x="199.316406"/>
     <use xlink:href="#Calibri-74" x="234.179688"/>
     <use xlink:href="#Calibri-79" x="267.675781"/>
     <use xlink:href="#Calibri-20" x="312.939453"/>
     <use xlink:href="#Calibri-62" x="335.546875"/>
     <use xlink:href="#Calibri-79" x="388.085938"/>
     <use xlink:href="#Calibri-20" x="433.349609"/>
     <use xlink:href="#Calibri-41" x="455.957031"/>
     <use xlink:href="#Calibri-67" x="513.818359"/>
     <use xlink:href="#Calibri-65" x="560.888672"/>
    </g>
   </g>
  </g>
 </g>
</svg>
