<?xml version="1.0" encoding="utf-8" standalone="no"?>
<!DOCTYPE svg PUBLIC "-//W3C//DTD SVG 1.1//EN"
  "http://www.w3.org/Graphics/SVG/1.1/DTD/svg11.dtd">
<svg xmlns:xlink="http://www.w3.org/1999/xlink" width="711.019078pt" height="350.64pt" viewBox="0 0 711.019078 350.64" xmlns="http://www.w3.org/2000/svg" version="1.1">
 <metadata>
  <rdf:RDF xmlns:dc="http://purl.org/dc/elements/1.1/" xmlns:cc="http://creativecommons.org/ns#" xmlns:rdf="http://www.w3.org/1999/02/22-rdf-syntax-ns#">
   <cc:Work>
    <dc:type rdf:resource="http://purl.org/dc/dcmitype/StillImage"/>
    <dc:date>2023-05-16T12:39:10.757900</dc:date>
    <dc:format>image/svg+xml</dc:format>
    <dc:creator>
     <cc:Agent>
      <dc:title>Matplotlib v3.7.0, https://matplotlib.org/</dc:title>
     </cc:Agent>
    </dc:creator>
   </cc:Work>
  </rdf:RDF>
 </metadata>
 <defs>
  <style type="text/css">*{stroke-linejoin: round; stroke-linecap: butt}</style>
 </defs>
 <g id="figure_1">
  <g id="patch_1">
   <path d="M 0 350.64 
L 711.019078 350.64 
L 711.019078 0 
L 0 0 
L 0 350.64 
z
" style="fill: none"/>
  </g>
  <g id="axes_1">
   <g id="patch_2">
    <path d="M 60.152188 298.064687 
L 580.244375 298.064687 
L 580.244375 39.504687 
L 60.152188 39.504687 
L 60.152188 298.064687 
z
" style="fill: none"/>
   </g>
   <g id="matplotlib.axis_1">
    <g id="xtick_1">
     <g id="line2d_1">
      <defs>
       <path id="m4d2ade93be" d="M 0 0 
L 0 8 
" style="stroke: #7b7e85; stroke-width: 0.8"/>
      </defs>
      <g>
       <use xlink:href="#m4d2ade93be" x="83.792741" y="298.064687" style="fill: #7b7e85; stroke: #7b7e85; stroke-width: 0.8"/>
      </g>
     </g>
     <g id="text_1">
      <!-- 2000 -->
      <g style="fill: #7b7e85" transform="translate(72.641491 317.046406) scale(0.11 -0.11)">
       <defs>
        <path id="Calibri-32" d="M 2888 231 
Q 2888 175 2880 131 
Q 2872 88 2858 58 
Q 2844 28 2820 14 
Q 2797 0 2769 0 
L 534 0 
Q 491 0 458 11 
Q 425 22 401 47 
Q 378 72 367 119 
Q 356 166 356 234 
Q 356 297 361 344 
Q 366 391 381 427 
Q 397 463 420 498 
Q 444 534 481 575 
L 1266 1406 
Q 1538 1694 1702 1922 
Q 1866 2150 1955 2337 
Q 2044 2525 2072 2678 
Q 2100 2831 2100 2966 
Q 2100 3100 2056 3220 
Q 2013 3341 1930 3431 
Q 1847 3522 1722 3575 
Q 1597 3628 1434 3628 
Q 1244 3628 1092 3575 
Q 941 3522 827 3459 
Q 713 3397 636 3344 
Q 559 3291 522 3291 
Q 500 3291 483 3303 
Q 466 3316 455 3344 
Q 444 3372 437 3419 
Q 431 3466 431 3531 
Q 431 3578 434 3612 
Q 438 3647 445 3672 
Q 453 3697 465 3719 
Q 478 3741 515 3773 
Q 553 3806 645 3862 
Q 738 3919 877 3973 
Q 1016 4028 1183 4065 
Q 1350 4103 1534 4103 
Q 1828 4103 2048 4020 
Q 2269 3938 2414 3794 
Q 2559 3650 2631 3459 
Q 2703 3269 2703 3053 
Q 2703 2859 2668 2667 
Q 2634 2475 2523 2251 
Q 2413 2028 2203 1754 
Q 1994 1481 1647 1125 
L 1006 456 
L 2766 456 
Q 2791 456 2814 442 
Q 2838 428 2855 400 
Q 2872 372 2880 330 
Q 2888 288 2888 231 
z
" transform="scale(0.015625)"/>
        <path id="Calibri-30" d="M 3022 2031 
Q 3022 1566 2948 1181 
Q 2875 797 2704 520 
Q 2534 244 2259 92 
Q 1984 -59 1581 -59 
Q 1200 -59 939 77 
Q 678 213 518 477 
Q 359 741 292 1127 
Q 225 1513 225 2013 
Q 225 2475 300 2861 
Q 375 3247 544 3523 
Q 713 3800 988 3951 
Q 1263 4103 1663 4103 
Q 2047 4103 2308 3967 
Q 2569 3831 2728 3567 
Q 2888 3303 2955 2917 
Q 3022 2531 3022 2031 
z
M 2472 1994 
Q 2472 2297 2450 2537 
Q 2428 2778 2386 2962 
Q 2344 3147 2276 3280 
Q 2209 3413 2115 3498 
Q 2022 3584 1901 3623 
Q 1781 3663 1631 3663 
Q 1366 3663 1200 3538 
Q 1034 3413 939 3194 
Q 844 2975 809 2681 
Q 775 2388 775 2050 
Q 775 1597 822 1280 
Q 869 963 970 763 
Q 1072 563 1230 472 
Q 1388 381 1613 381 
Q 1788 381 1920 437 
Q 2053 494 2148 598 
Q 2244 703 2306 850 
Q 2369 997 2406 1175 
Q 2444 1353 2458 1561 
Q 2472 1769 2472 1994 
z
" transform="scale(0.015625)"/>
       </defs>
       <use xlink:href="#Calibri-32"/>
       <use xlink:href="#Calibri-30" x="50.683594"/>
       <use xlink:href="#Calibri-30" x="101.367188"/>
       <use xlink:href="#Calibri-30" x="152.050781"/>
      </g>
     </g>
    </g>
    <g id="xtick_2">
     <g id="line2d_2">
      <g>
       <use xlink:href="#m4d2ade93be" x="308.940875" y="298.064687" style="fill: #7b7e85; stroke: #7b7e85; stroke-width: 0.8"/>
      </g>
     </g>
     <g id="text_2">
      <!-- 2010 -->
      <g style="fill: #7b7e85" transform="translate(297.789625 317.046406) scale(0.11 -0.11)">
       <defs>
        <path id="Calibri-31" d="M 2897 213 
Q 2897 153 2887 112 
Q 2878 72 2862 47 
Q 2847 22 2826 11 
Q 2806 0 2784 0 
L 672 0 
Q 650 0 631 11 
Q 613 22 595 47 
Q 578 72 568 112 
Q 559 153 559 213 
Q 559 269 568 309 
Q 578 350 592 376 
Q 606 403 626 417 
Q 647 431 672 431 
L 1516 431 
L 1516 3506 
L 734 3041 
Q 675 3009 639 3003 
Q 603 2997 581 3017 
Q 559 3038 551 3084 
Q 544 3131 544 3203 
Q 544 3256 548 3293 
Q 553 3331 562 3356 
Q 572 3381 589 3400 
Q 606 3419 634 3438 
L 1566 4034 
Q 1578 4044 1597 4050 
Q 1616 4056 1644 4062 
Q 1672 4069 1709 4070 
Q 1747 4072 1803 4072 
Q 1878 4072 1928 4065 
Q 1978 4059 2006 4048 
Q 2034 4038 2043 4020 
Q 2053 4003 2053 3984 
L 2053 431 
L 2784 431 
Q 2809 431 2831 417 
Q 2853 403 2867 376 
Q 2881 350 2889 309 
Q 2897 269 2897 213 
z
" transform="scale(0.015625)"/>
       </defs>
       <use xlink:href="#Calibri-32"/>
       <use xlink:href="#Calibri-30" x="50.683594"/>
       <use xlink:href="#Calibri-31" x="101.367188"/>
       <use xlink:href="#Calibri-30" x="152.050781"/>
      </g>
     </g>
    </g>
    <g id="xtick_3">
     <g id="line2d_3">
      <g>
       <use xlink:href="#m4d2ade93be" x="556.603821" y="298.064687" style="fill: #7b7e85; stroke: #7b7e85; stroke-width: 0.8"/>
      </g>
     </g>
     <g id="text_3">
      <!-- 2021 -->
      <g style="fill: #7b7e85" transform="translate(545.452571 317.046406) scale(0.11 -0.11)">
       <use xlink:href="#Calibri-32"/>
       <use xlink:href="#Calibri-30" x="50.683594"/>
       <use xlink:href="#Calibri-32" x="101.367188"/>
       <use xlink:href="#Calibri-31" x="152.050781"/>
      </g>
     </g>
    </g>
    <g id="text_4">
     <!-- Year -->
     <g style="fill: #00263e" transform="translate(310.229531 341.484062) scale(0.11 -0.11)">
      <defs>
       <path id="Calibri-59" d="M 1828 1572 
L 1828 81 
Q 1828 56 1815 37 
Q 1803 19 1772 8 
Q 1741 -3 1687 -11 
Q 1634 -19 1559 -19 
Q 1481 -19 1429 -11 
Q 1378 -3 1345 8 
Q 1313 19 1300 37 
Q 1288 56 1288 81 
L 1288 1572 
L 144 3853 
Q 109 3925 101 3965 
Q 94 4006 117 4028 
Q 141 4050 202 4056 
Q 263 4063 366 4063 
Q 459 4063 517 4056 
Q 575 4050 609 4039 
Q 644 4028 661 4008 
Q 678 3988 694 3956 
L 1253 2794 
Q 1331 2628 1409 2447 
Q 1488 2266 1569 2081 
L 1575 2081 
Q 1647 2259 1723 2436 
Q 1800 2613 1878 2784 
L 2441 3953 
Q 2450 3984 2467 4006 
Q 2484 4028 2514 4039 
Q 2544 4050 2597 4056 
Q 2650 4063 2731 4063 
Q 2844 4063 2908 4055 
Q 2972 4047 2997 4025 
Q 3022 4003 3014 3962 
Q 3006 3922 2972 3853 
L 1828 1572 
z
" transform="scale(0.015625)"/>
       <path id="Calibri-65" d="M 2878 1606 
Q 2878 1484 2817 1432 
Q 2756 1381 2678 1381 
L 834 1381 
Q 834 1147 881 959 
Q 928 772 1037 637 
Q 1147 503 1322 431 
Q 1497 359 1750 359 
Q 1950 359 2106 392 
Q 2263 425 2377 465 
Q 2491 506 2564 539 
Q 2638 572 2675 572 
Q 2697 572 2714 561 
Q 2731 550 2740 528 
Q 2750 506 2754 467 
Q 2759 428 2759 372 
Q 2759 331 2756 301 
Q 2753 272 2748 248 
Q 2744 225 2733 206 
Q 2722 188 2705 170 
Q 2688 153 2603 114 
Q 2519 75 2384 37 
Q 2250 0 2073 -29 
Q 1897 -59 1697 -59 
Q 1350 -59 1089 37 
Q 828 134 650 325 
Q 472 516 381 803 
Q 291 1091 291 1472 
Q 291 1834 384 2123 
Q 478 2413 654 2614 
Q 831 2816 1081 2923 
Q 1331 3031 1641 3031 
Q 1972 3031 2205 2925 
Q 2438 2819 2588 2639 
Q 2738 2459 2808 2217 
Q 2878 1975 2878 1700 
L 2878 1606 
z
M 2359 1759 
Q 2369 2166 2180 2397 
Q 1991 2628 1619 2628 
Q 1428 2628 1284 2556 
Q 1141 2484 1044 2365 
Q 947 2247 894 2089 
Q 841 1931 834 1759 
L 2359 1759 
z
" transform="scale(0.015625)"/>
       <path id="Calibri-61" d="M 2597 75 
Q 2597 38 2572 19 
Q 2547 0 2503 -9 
Q 2459 -19 2375 -19 
Q 2294 -19 2245 -9 
Q 2197 0 2175 19 
Q 2153 38 2153 75 
L 2153 356 
Q 1969 159 1742 50 
Q 1516 -59 1263 -59 
Q 1041 -59 861 -1 
Q 681 56 554 165 
Q 428 275 358 434 
Q 288 594 288 797 
Q 288 1034 384 1209 
Q 481 1384 662 1500 
Q 844 1616 1106 1673 
Q 1369 1731 1697 1731 
L 2084 1731 
L 2084 1950 
Q 2084 2113 2050 2238 
Q 2016 2363 1939 2445 
Q 1863 2528 1741 2570 
Q 1619 2613 1441 2613 
Q 1250 2613 1098 2567 
Q 947 2522 833 2467 
Q 719 2413 642 2367 
Q 566 2322 528 2322 
Q 503 2322 484 2334 
Q 466 2347 452 2372 
Q 438 2397 431 2436 
Q 425 2475 425 2522 
Q 425 2600 436 2645 
Q 447 2691 489 2731 
Q 531 2772 634 2826 
Q 738 2881 872 2926 
Q 1006 2972 1165 3001 
Q 1325 3031 1488 3031 
Q 1791 3031 2003 2962 
Q 2216 2894 2347 2761 
Q 2478 2628 2537 2431 
Q 2597 2234 2597 1972 
L 2597 75 
z
M 2084 1359 
L 1644 1359 
Q 1431 1359 1275 1323 
Q 1119 1288 1016 1217 
Q 913 1147 864 1048 
Q 816 950 816 822 
Q 816 603 955 473 
Q 1094 344 1344 344 
Q 1547 344 1720 447 
Q 1894 550 2084 763 
L 2084 1359 
z
" transform="scale(0.015625)"/>
       <path id="Calibri-72" d="M 2122 2706 
Q 2122 2638 2119 2591 
Q 2116 2544 2106 2517 
Q 2097 2491 2083 2477 
Q 2069 2463 2044 2463 
Q 2019 2463 1983 2477 
Q 1947 2491 1901 2505 
Q 1856 2519 1800 2531 
Q 1744 2544 1678 2544 
Q 1600 2544 1525 2512 
Q 1450 2481 1367 2409 
Q 1284 2338 1193 2219 
Q 1103 2100 994 1928 
L 994 78 
Q 994 53 981 36 
Q 969 19 941 6 
Q 913 -6 863 -12 
Q 813 -19 734 -19 
Q 659 -19 609 -12 
Q 559 -6 529 6 
Q 500 19 489 36 
Q 478 53 478 78 
L 478 2891 
Q 478 2916 487 2933 
Q 497 2950 525 2964 
Q 553 2978 597 2983 
Q 641 2988 713 2988 
Q 781 2988 826 2983 
Q 872 2978 897 2964 
Q 922 2950 933 2933 
Q 944 2916 944 2891 
L 944 2481 
Q 1059 2650 1161 2756 
Q 1263 2863 1353 2923 
Q 1444 2984 1533 3007 
Q 1622 3031 1713 3031 
Q 1753 3031 1804 3026 
Q 1856 3022 1912 3009 
Q 1969 2997 2014 2981 
Q 2059 2966 2078 2950 
Q 2097 2934 2103 2920 
Q 2109 2906 2114 2884 
Q 2119 2863 2120 2820 
Q 2122 2778 2122 2706 
z
" transform="scale(0.015625)"/>
      </defs>
      <use xlink:href="#Calibri-59"/>
      <use xlink:href="#Calibri-65" x="48.730469"/>
      <use xlink:href="#Calibri-61" x="98.486328"/>
      <use xlink:href="#Calibri-72" x="146.386719"/>
     </g>
    </g>
   </g>
   <g id="matplotlib.axis_2">
    <g id="ytick_1">
     <g id="line2d_4">
      <defs>
       <path id="m2aab9f7e81" d="M 0 0 
L -6 0 
" style="stroke: #7b7e85; stroke-width: 0.8"/>
      </defs>
      <g>
       <use xlink:href="#m2aab9f7e81" x="60.152188" y="273.263805" style="fill: #7b7e85; stroke: #7b7e85; stroke-width: 0.8"/>
      </g>
     </g>
     <g id="text_5">
      <!-- 2% -->
      <g style="fill: #7b7e85" transform="translate(37.213281 277.004665) scale(0.11 -0.11)">
       <defs>
        <path id="Calibri-25" d="M 1966 3044 
Q 1966 2803 1912 2606 
Q 1859 2410 1750 2270 
Q 1641 2131 1473 2053 
Q 1306 1975 1081 1975 
Q 853 1975 690 2047 
Q 528 2119 425 2255 
Q 322 2391 273 2586 
Q 225 2781 225 3031 
Q 225 3260 276 3453 
Q 328 3647 434 3787 
Q 541 3928 708 4009 
Q 875 4091 1103 4091 
Q 1350 4091 1517 4006 
Q 1684 3922 1784 3780 
Q 1884 3638 1925 3447 
Q 1966 3256 1966 3044 
z
M 1528 3028 
Q 1528 3203 1503 3339 
Q 1478 3475 1426 3565 
Q 1375 3656 1290 3701 
Q 1206 3747 1091 3747 
Q 981 3747 900 3703 
Q 819 3660 767 3572 
Q 716 3485 691 3355 
Q 666 3225 666 3050 
Q 666 2838 695 2695 
Q 725 2553 779 2470 
Q 834 2388 917 2355 
Q 1000 2322 1106 2322 
Q 1231 2322 1311 2369 
Q 1391 2416 1439 2508 
Q 1488 2600 1508 2730 
Q 1528 2860 1528 3028 
z
M 4350 1022 
Q 4350 781 4297 584 
Q 4244 388 4134 248 
Q 4025 109 3858 31 
Q 3691 -47 3466 -47 
Q 3238 -47 3075 25 
Q 2913 97 2809 233 
Q 2706 369 2657 564 
Q 2609 759 2609 1009 
Q 2609 1238 2661 1431 
Q 2713 1625 2819 1765 
Q 2925 1906 3092 1987 
Q 3259 2069 3488 2069 
Q 3734 2069 3901 1984 
Q 4069 1900 4169 1758 
Q 4269 1616 4309 1425 
Q 4350 1234 4350 1022 
z
M 3913 1006 
Q 3913 1181 3888 1317 
Q 3863 1453 3811 1543 
Q 3759 1634 3675 1679 
Q 3591 1725 3475 1725 
Q 3366 1725 3284 1681 
Q 3203 1638 3151 1550 
Q 3100 1463 3075 1333 
Q 3050 1203 3050 1028 
Q 3050 816 3079 673 
Q 3109 531 3164 448 
Q 3219 366 3301 333 
Q 3384 300 3491 300 
Q 3616 300 3695 347 
Q 3775 394 3823 486 
Q 3872 578 3892 708 
Q 3913 838 3913 1006 
z
M 1081 -25 
Q 1066 -53 1044 -67 
Q 1022 -81 990 -92 
Q 959 -103 915 -108 
Q 872 -113 809 -113 
Q 741 -113 698 -100 
Q 656 -88 639 -67 
Q 622 -47 626 -17 
Q 631 13 656 50 
L 3469 4078 
Q 3484 4103 3506 4120 
Q 3528 4138 3561 4147 
Q 3594 4156 3636 4161 
Q 3678 4166 3744 4166 
Q 3809 4166 3851 4155 
Q 3894 4144 3912 4122 
Q 3931 4100 3926 4069 
Q 3922 4038 3897 4003 
L 1081 -25 
z
" transform="scale(0.015625)"/>
       </defs>
       <use xlink:href="#Calibri-32"/>
       <use xlink:href="#Calibri-25" x="50.683594"/>
      </g>
     </g>
    </g>
    <g id="ytick_2">
     <g id="line2d_5">
      <g>
       <use xlink:href="#m2aab9f7e81" x="60.152188" y="241.99864" style="fill: #7b7e85; stroke: #7b7e85; stroke-width: 0.8"/>
      </g>
     </g>
     <g id="text_6">
      <!-- 5% -->
      <g style="fill: #7b7e85" transform="translate(37.213281 245.739499) scale(0.11 -0.11)">
       <defs>
        <path id="Calibri-35" d="M 2869 1300 
Q 2869 975 2759 722 
Q 2650 469 2450 295 
Q 2250 122 1973 31 
Q 1697 -59 1359 -59 
Q 1172 -59 1003 -32 
Q 834 -6 703 33 
Q 572 72 487 109 
Q 403 147 379 169 
Q 356 191 347 209 
Q 338 228 330 254 
Q 322 281 319 322 
Q 316 363 316 419 
Q 316 472 320 514 
Q 325 556 337 582 
Q 350 609 367 621 
Q 384 634 406 634 
Q 438 634 503 595 
Q 569 556 680 511 
Q 791 466 955 425 
Q 1119 384 1344 384 
Q 1553 384 1728 434 
Q 1903 484 2029 590 
Q 2156 697 2228 858 
Q 2300 1019 2300 1250 
Q 2300 1444 2239 1592 
Q 2178 1741 2051 1839 
Q 1925 1938 1731 1986 
Q 1538 2034 1269 2034 
Q 1078 2034 940 2015 
Q 803 1997 684 1997 
Q 597 1997 559 2037 
Q 522 2078 522 2194 
L 522 3841 
Q 522 3944 570 3994 
Q 619 4044 709 4044 
L 2500 4044 
Q 2525 4044 2548 4030 
Q 2572 4016 2587 3987 
Q 2603 3959 2611 3915 
Q 2619 3872 2619 3813 
Q 2619 3700 2587 3637 
Q 2556 3575 2500 3575 
L 991 3575 
L 991 2441 
Q 1100 2456 1214 2459 
Q 1328 2463 1478 2463 
Q 1825 2463 2084 2380 
Q 2344 2297 2517 2145 
Q 2691 1994 2780 1778 
Q 2869 1563 2869 1300 
z
" transform="scale(0.015625)"/>
       </defs>
       <use xlink:href="#Calibri-35"/>
       <use xlink:href="#Calibri-25" x="50.683594"/>
      </g>
     </g>
    </g>
    <g id="ytick_3">
     <g id="line2d_6">
      <g>
       <use xlink:href="#m2aab9f7e81" x="60.152188" y="210.733475" style="fill: #7b7e85; stroke: #7b7e85; stroke-width: 0.8"/>
      </g>
     </g>
     <g id="text_7">
      <!-- 8% -->
      <g style="fill: #7b7e85" transform="translate(37.213281 214.474334) scale(0.11 -0.11)">
       <defs>
        <path id="Calibri-38" d="M 2981 1038 
Q 2981 775 2887 570 
Q 2794 366 2617 225 
Q 2441 84 2181 12 
Q 1922 -59 1588 -59 
Q 1275 -59 1028 6 
Q 781 72 609 200 
Q 438 328 347 515 
Q 256 703 256 944 
Q 256 1134 318 1293 
Q 381 1453 498 1587 
Q 616 1722 787 1839 
Q 959 1956 1175 2063 
Q 988 2159 844 2267 
Q 700 2375 600 2501 
Q 500 2628 448 2772 
Q 397 2916 397 3084 
Q 397 3297 473 3483 
Q 550 3669 704 3806 
Q 859 3944 1098 4023 
Q 1338 4103 1656 4103 
Q 1963 4103 2186 4029 
Q 2409 3956 2554 3829 
Q 2700 3703 2769 3531 
Q 2838 3359 2838 3163 
Q 2838 3003 2786 2856 
Q 2734 2709 2634 2578 
Q 2534 2447 2389 2333 
Q 2244 2219 2056 2119 
Q 2278 2009 2451 1893 
Q 2625 1778 2742 1645 
Q 2859 1513 2920 1364 
Q 2981 1216 2981 1038 
z
M 2306 3113 
Q 2306 3244 2261 3350 
Q 2216 3456 2128 3531 
Q 2041 3606 1911 3645 
Q 1781 3684 1616 3684 
Q 1278 3684 1104 3531 
Q 931 3378 931 3113 
Q 931 2991 973 2886 
Q 1016 2781 1105 2687 
Q 1194 2594 1330 2505 
Q 1466 2416 1653 2319 
Q 1969 2481 2137 2678 
Q 2306 2875 2306 3113 
z
M 2438 981 
Q 2438 1125 2384 1242 
Q 2331 1359 2223 1461 
Q 2116 1563 1955 1658 
Q 1794 1753 1581 1856 
Q 1384 1759 1236 1662 
Q 1088 1566 992 1462 
Q 897 1359 848 1245 
Q 800 1131 800 994 
Q 800 691 1008 525 
Q 1216 359 1628 359 
Q 2028 359 2233 526 
Q 2438 694 2438 981 
z
" transform="scale(0.015625)"/>
       </defs>
       <use xlink:href="#Calibri-38"/>
       <use xlink:href="#Calibri-25" x="50.683594"/>
      </g>
     </g>
    </g>
    <g id="ytick_4">
     <g id="line2d_7">
      <g>
       <use xlink:href="#m2aab9f7e81" x="60.152188" y="179.468309" style="fill: #7b7e85; stroke: #7b7e85; stroke-width: 0.8"/>
      </g>
     </g>
     <g id="text_8">
      <!-- 10% -->
      <g style="fill: #7b7e85" transform="translate(31.637656 183.209169) scale(0.11 -0.11)">
       <use xlink:href="#Calibri-31"/>
       <use xlink:href="#Calibri-30" x="50.683594"/>
       <use xlink:href="#Calibri-25" x="101.367188"/>
      </g>
     </g>
    </g>
    <g id="ytick_5">
     <g id="line2d_8">
      <g>
       <use xlink:href="#m2aab9f7e81" x="60.152188" y="148.203144" style="fill: #7b7e85; stroke: #7b7e85; stroke-width: 0.8"/>
      </g>
     </g>
     <g id="text_9">
      <!-- 12% -->
      <g style="fill: #7b7e85" transform="translate(31.637656 151.944003) scale(0.11 -0.11)">
       <use xlink:href="#Calibri-31"/>
       <use xlink:href="#Calibri-32" x="50.683594"/>
       <use xlink:href="#Calibri-25" x="101.367188"/>
      </g>
     </g>
    </g>
    <g id="ytick_6">
     <g id="line2d_9">
      <g>
       <use xlink:href="#m2aab9f7e81" x="60.152188" y="116.937978" style="fill: #7b7e85; stroke: #7b7e85; stroke-width: 0.8"/>
      </g>
     </g>
     <g id="text_10">
      <!-- 15% -->
      <g style="fill: #7b7e85" transform="translate(31.637656 120.678838) scale(0.11 -0.11)">
       <use xlink:href="#Calibri-31"/>
       <use xlink:href="#Calibri-35" x="50.683594"/>
       <use xlink:href="#Calibri-25" x="101.367188"/>
      </g>
     </g>
    </g>
    <g id="ytick_7">
     <g id="line2d_10">
      <g>
       <use xlink:href="#m2aab9f7e81" x="60.152188" y="85.672813" style="fill: #7b7e85; stroke: #7b7e85; stroke-width: 0.8"/>
      </g>
     </g>
     <g id="text_11">
      <!-- 18% -->
      <g style="fill: #7b7e85" transform="translate(31.637656 89.413672) scale(0.11 -0.11)">
       <use xlink:href="#Calibri-31"/>
       <use xlink:href="#Calibri-38" x="50.683594"/>
       <use xlink:href="#Calibri-25" x="101.367188"/>
      </g>
     </g>
    </g>
    <g id="ytick_8">
     <g id="line2d_11">
      <g>
       <use xlink:href="#m2aab9f7e81" x="60.152188" y="54.407648" style="fill: #7b7e85; stroke: #7b7e85; stroke-width: 0.8"/>
      </g>
     </g>
     <g id="text_12">
      <!-- 20% -->
      <g style="fill: #7b7e85" transform="translate(31.637656 58.148507) scale(0.11 -0.11)">
       <use xlink:href="#Calibri-32"/>
       <use xlink:href="#Calibri-30" x="50.683594"/>
       <use xlink:href="#Calibri-25" x="101.367188"/>
      </g>
     </g>
    </g>
    <g id="text_13">
     <!-- Share of Resident Workers -->
     <g style="fill: #00263e" transform="translate(14.681719 228.310156) rotate(-90) scale(0.11 -0.11)">
      <defs>
       <path id="Calibri-53" d="M 2709 1134 
Q 2709 850 2604 628 
Q 2500 406 2314 251 
Q 2128 97 1876 19 
Q 1625 -59 1334 -59 
Q 1131 -59 957 -25 
Q 784 9 648 59 
Q 513 109 420 162 
Q 328 216 292 253 
Q 256 291 239 348 
Q 222 406 222 503 
Q 222 572 228 617 
Q 234 663 246 691 
Q 259 719 278 730 
Q 297 741 322 741 
Q 366 741 445 687 
Q 525 634 650 571 
Q 775 509 951 454 
Q 1128 400 1359 400 
Q 1534 400 1679 447 
Q 1825 494 1929 580 
Q 2034 666 2090 791 
Q 2147 916 2147 1075 
Q 2147 1247 2069 1369 
Q 1991 1491 1862 1583 
Q 1734 1675 1570 1751 
Q 1406 1828 1234 1908 
Q 1063 1988 900 2084 
Q 738 2181 609 2312 
Q 481 2444 401 2620 
Q 322 2797 322 3044 
Q 322 3297 414 3495 
Q 506 3694 670 3828 
Q 834 3963 1061 4033 
Q 1288 4103 1550 4103 
Q 1684 4103 1820 4079 
Q 1956 4056 2076 4017 
Q 2197 3978 2290 3929 
Q 2384 3881 2414 3851 
Q 2444 3822 2453 3805 
Q 2463 3788 2469 3761 
Q 2475 3734 2478 3696 
Q 2481 3659 2481 3600 
Q 2481 3544 2476 3500 
Q 2472 3456 2462 3426 
Q 2453 3397 2436 3383 
Q 2419 3369 2397 3369 
Q 2363 3369 2289 3412 
Q 2216 3456 2109 3511 
Q 2003 3566 1858 3611 
Q 1713 3656 1531 3656 
Q 1363 3656 1238 3611 
Q 1113 3566 1031 3491 
Q 950 3416 909 3312 
Q 869 3209 869 3094 
Q 869 2925 947 2803 
Q 1025 2681 1154 2587 
Q 1284 2494 1450 2416 
Q 1616 2338 1787 2258 
Q 1959 2178 2125 2083 
Q 2291 1988 2420 1858 
Q 2550 1728 2629 1551 
Q 2709 1375 2709 1134 
z
" transform="scale(0.015625)"/>
       <path id="Calibri-68" d="M 2900 78 
Q 2900 53 2887 36 
Q 2875 19 2847 6 
Q 2819 -6 2769 -12 
Q 2719 -19 2644 -19 
Q 2566 -19 2516 -12 
Q 2466 -6 2437 6 
Q 2409 19 2396 36 
Q 2384 53 2384 78 
L 2384 1725 
Q 2384 1966 2346 2112 
Q 2309 2259 2237 2365 
Q 2166 2472 2052 2528 
Q 1938 2584 1788 2584 
Q 1594 2584 1400 2446 
Q 1206 2309 994 2044 
L 994 78 
Q 994 53 981 36 
Q 969 19 941 6 
Q 913 -6 863 -12 
Q 813 -19 734 -19 
Q 659 -19 609 -12 
Q 559 -6 529 6 
Q 500 19 489 36 
Q 478 53 478 78 
L 478 4253 
Q 478 4278 489 4297 
Q 500 4316 529 4328 
Q 559 4341 609 4347 
Q 659 4353 734 4353 
Q 813 4353 863 4347 
Q 913 4341 941 4328 
Q 969 4316 981 4297 
Q 994 4278 994 4253 
L 994 2569 
Q 1216 2803 1441 2917 
Q 1666 3031 1894 3031 
Q 2175 3031 2367 2936 
Q 2559 2841 2678 2681 
Q 2797 2522 2848 2308 
Q 2900 2094 2900 1791 
L 2900 78 
z
" transform="scale(0.015625)"/>
       <path id="Calibri-20" transform="scale(0.015625)"/>
       <path id="Calibri-6f" d="M 3094 1516 
Q 3094 1172 3003 883 
Q 2913 594 2733 384 
Q 2553 175 2283 58 
Q 2013 -59 1656 -59 
Q 1309 -59 1051 44 
Q 794 147 622 344 
Q 450 541 365 822 
Q 281 1103 281 1459 
Q 281 1803 370 2092 
Q 459 2381 639 2590 
Q 819 2800 1087 2915 
Q 1356 3031 1716 3031 
Q 2063 3031 2320 2928 
Q 2578 2825 2750 2628 
Q 2922 2431 3008 2150 
Q 3094 1869 3094 1516 
z
M 2550 1481 
Q 2550 1709 2508 1912 
Q 2466 2116 2369 2269 
Q 2272 2422 2106 2511 
Q 1941 2600 1694 2600 
Q 1466 2600 1302 2519 
Q 1138 2438 1031 2289 
Q 925 2141 873 1937 
Q 822 1734 822 1494 
Q 822 1263 864 1059 
Q 906 856 1004 704 
Q 1103 553 1268 464 
Q 1434 375 1681 375 
Q 1906 375 2072 456 
Q 2238 538 2344 684 
Q 2450 831 2500 1034 
Q 2550 1238 2550 1481 
z
" transform="scale(0.015625)"/>
       <path id="Calibri-66" d="M 2019 4047 
Q 2019 3988 2012 3952 
Q 2006 3916 1998 3894 
Q 1991 3872 1978 3864 
Q 1966 3856 1947 3856 
Q 1925 3856 1892 3870 
Q 1859 3884 1812 3901 
Q 1766 3919 1702 3933 
Q 1638 3947 1553 3947 
Q 1438 3947 1356 3909 
Q 1275 3872 1225 3792 
Q 1175 3713 1153 3586 
Q 1131 3459 1131 3278 
L 1131 2972 
L 1759 2972 
Q 1784 2972 1801 2961 
Q 1819 2950 1833 2923 
Q 1847 2897 1855 2856 
Q 1863 2816 1863 2756 
Q 1863 2644 1834 2594 
Q 1806 2544 1759 2544 
L 1131 2544 
L 1131 78 
Q 1131 53 1118 36 
Q 1106 19 1076 6 
Q 1047 -6 997 -12 
Q 947 -19 872 -19 
Q 797 -19 747 -12 
Q 697 -6 667 6 
Q 638 19 625 36 
Q 613 53 613 78 
L 613 2544 
L 216 2544 
Q 166 2544 141 2594 
Q 116 2644 116 2756 
Q 116 2816 122 2856 
Q 128 2897 140 2923 
Q 153 2950 172 2961 
Q 191 2972 216 2972 
L 613 2972 
L 613 3263 
Q 613 3556 667 3767 
Q 722 3978 834 4112 
Q 947 4247 1117 4311 
Q 1288 4375 1519 4375 
Q 1628 4375 1731 4354 
Q 1834 4334 1890 4311 
Q 1947 4288 1965 4269 
Q 1984 4250 1996 4220 
Q 2009 4191 2014 4148 
Q 2019 4106 2019 4047 
z
" transform="scale(0.015625)"/>
       <path id="Calibri-52" d="M 3234 81 
Q 3234 56 3225 37 
Q 3216 19 3184 6 
Q 3153 -6 3097 -12 
Q 3041 -19 2947 -19 
Q 2866 -19 2814 -12 
Q 2763 -6 2731 8 
Q 2700 22 2683 47 
Q 2666 72 2653 109 
L 2281 1063 
Q 2216 1225 2145 1361 
Q 2075 1497 1978 1595 
Q 1881 1694 1750 1748 
Q 1619 1803 1434 1803 
L 1075 1803 
L 1075 81 
Q 1075 56 1061 37 
Q 1047 19 1017 8 
Q 988 -3 936 -11 
Q 884 -19 806 -19 
Q 728 -19 676 -11 
Q 625 -3 594 8 
Q 563 19 550 37 
Q 538 56 538 81 
L 538 3825 
Q 538 3947 602 3995 
Q 666 4044 738 4044 
L 1597 4044 
Q 1750 4044 1851 4036 
Q 1953 4028 2034 4019 
Q 2269 3978 2448 3890 
Q 2628 3803 2750 3668 
Q 2872 3534 2933 3361 
Q 2994 3188 2994 2978 
Q 2994 2775 2939 2614 
Q 2884 2453 2781 2329 
Q 2678 2206 2534 2115 
Q 2391 2025 2213 1963 
Q 2313 1919 2394 1851 
Q 2475 1784 2545 1690 
Q 2616 1597 2678 1475 
Q 2741 1353 2803 1200 
L 3166 309 
Q 3209 197 3221 151 
Q 3234 106 3234 81 
z
M 2425 2922 
Q 2425 3159 2319 3323 
Q 2213 3488 1963 3559 
Q 1884 3581 1786 3590 
Q 1688 3600 1528 3600 
L 1075 3600 
L 1075 2238 
L 1600 2238 
Q 1813 2238 1967 2289 
Q 2122 2341 2225 2433 
Q 2328 2525 2376 2650 
Q 2425 2775 2425 2922 
z
" transform="scale(0.015625)"/>
       <path id="Calibri-73" d="M 2244 844 
Q 2244 628 2164 459 
Q 2084 291 1937 175 
Q 1791 59 1587 0 
Q 1384 -59 1141 -59 
Q 991 -59 855 -36 
Q 719 -13 611 23 
Q 503 59 428 98 
Q 353 138 318 169 
Q 284 200 268 256 
Q 253 313 253 409 
Q 253 469 259 509 
Q 266 550 275 575 
Q 284 600 301 611 
Q 319 622 341 622 
Q 375 622 442 580 
Q 509 538 607 488 
Q 706 438 840 395 
Q 975 353 1150 353 
Q 1281 353 1387 381 
Q 1494 409 1572 464 
Q 1650 519 1692 603 
Q 1734 688 1734 803 
Q 1734 922 1673 1003 
Q 1613 1084 1513 1146 
Q 1413 1209 1288 1257 
Q 1163 1306 1030 1359 
Q 897 1413 770 1480 
Q 644 1547 544 1644 
Q 444 1741 383 1875 
Q 322 2009 322 2197 
Q 322 2363 386 2514 
Q 450 2666 578 2780 
Q 706 2894 898 2962 
Q 1091 3031 1347 3031 
Q 1459 3031 1571 3012 
Q 1684 2994 1775 2966 
Q 1866 2938 1930 2905 
Q 1994 2872 2026 2847 
Q 2059 2822 2070 2803 
Q 2081 2784 2086 2761 
Q 2091 2738 2095 2703 
Q 2100 2669 2100 2619 
Q 2100 2566 2095 2527 
Q 2091 2488 2080 2463 
Q 2069 2438 2053 2427 
Q 2038 2416 2019 2416 
Q 1991 2416 1937 2450 
Q 1884 2484 1800 2523 
Q 1716 2563 1602 2597 
Q 1488 2631 1341 2631 
Q 1209 2631 1109 2601 
Q 1009 2572 945 2517 
Q 881 2463 848 2388 
Q 816 2313 816 2225 
Q 816 2103 878 2020 
Q 941 1938 1041 1875 
Q 1141 1813 1269 1763 
Q 1397 1713 1530 1659 
Q 1663 1606 1792 1540 
Q 1922 1475 2022 1381 
Q 2122 1288 2183 1156 
Q 2244 1025 2244 844 
z
" transform="scale(0.015625)"/>
       <path id="Calibri-69" d="M 994 78 
Q 994 53 981 36 
Q 969 19 941 6 
Q 913 -6 863 -12 
Q 813 -19 734 -19 
Q 659 -19 609 -12 
Q 559 -6 529 6 
Q 500 19 489 36 
Q 478 53 478 78 
L 478 2891 
Q 478 2913 489 2931 
Q 500 2950 529 2962 
Q 559 2975 609 2981 
Q 659 2988 734 2988 
Q 813 2988 863 2981 
Q 913 2975 941 2962 
Q 969 2950 981 2931 
Q 994 2913 994 2891 
L 994 78 
z
M 1053 3841 
Q 1053 3659 984 3593 
Q 916 3528 731 3528 
Q 550 3528 483 3592 
Q 416 3656 416 3834 
Q 416 4016 484 4081 
Q 553 4147 738 4147 
Q 919 4147 986 4083 
Q 1053 4019 1053 3841 
z
" transform="scale(0.015625)"/>
       <path id="Calibri-64" d="M 2888 78 
Q 2888 53 2877 34 
Q 2866 16 2839 5 
Q 2813 -6 2769 -12 
Q 2725 -19 2663 -19 
Q 2597 -19 2553 -12 
Q 2509 -6 2481 5 
Q 2453 16 2440 34 
Q 2428 53 2428 78 
L 2428 450 
Q 2206 209 1967 75 
Q 1728 -59 1444 -59 
Q 1134 -59 915 61 
Q 697 181 561 386 
Q 425 591 362 867 
Q 300 1144 300 1450 
Q 300 1813 378 2105 
Q 456 2397 609 2603 
Q 763 2809 989 2920 
Q 1216 3031 1513 3031 
Q 1759 3031 1964 2923 
Q 2169 2816 2369 2606 
L 2369 4241 
Q 2369 4263 2380 4283 
Q 2391 4303 2422 4314 
Q 2453 4325 2501 4333 
Q 2550 4341 2625 4341 
Q 2703 4341 2753 4333 
Q 2803 4325 2831 4314 
Q 2859 4303 2873 4283 
Q 2888 4263 2888 4241 
L 2888 78 
z
M 2369 2056 
Q 2159 2316 1964 2452 
Q 1769 2588 1556 2588 
Q 1359 2588 1221 2494 
Q 1084 2400 998 2247 
Q 913 2094 873 1900 
Q 834 1706 834 1506 
Q 834 1294 867 1091 
Q 900 888 981 730 
Q 1063 572 1197 476 
Q 1331 381 1534 381 
Q 1638 381 1733 409 
Q 1828 438 1928 503 
Q 2028 569 2137 673 
Q 2247 778 2369 931 
L 2369 2056 
z
" transform="scale(0.015625)"/>
       <path id="Calibri-6e" d="M 2900 78 
Q 2900 53 2887 36 
Q 2875 19 2847 6 
Q 2819 -6 2769 -12 
Q 2719 -19 2644 -19 
Q 2566 -19 2516 -12 
Q 2466 -6 2437 6 
Q 2409 19 2396 36 
Q 2384 53 2384 78 
L 2384 1725 
Q 2384 1966 2346 2112 
Q 2309 2259 2237 2365 
Q 2166 2472 2052 2528 
Q 1938 2584 1788 2584 
Q 1594 2584 1400 2446 
Q 1206 2309 994 2044 
L 994 78 
Q 994 53 981 36 
Q 969 19 941 6 
Q 913 -6 863 -12 
Q 813 -19 734 -19 
Q 659 -19 609 -12 
Q 559 -6 529 6 
Q 500 19 489 36 
Q 478 53 478 78 
L 478 2891 
Q 478 2916 487 2933 
Q 497 2950 525 2964 
Q 553 2978 597 2983 
Q 641 2988 713 2988 
Q 781 2988 826 2983 
Q 872 2978 897 2964 
Q 922 2950 933 2933 
Q 944 2916 944 2891 
L 944 2519 
Q 1181 2784 1417 2907 
Q 1653 3031 1894 3031 
Q 2175 3031 2367 2936 
Q 2559 2841 2678 2681 
Q 2797 2522 2848 2308 
Q 2900 2094 2900 1794 
L 2900 78 
z
" transform="scale(0.015625)"/>
       <path id="Calibri-74" d="M 1941 284 
Q 1941 194 1928 141 
Q 1916 88 1891 63 
Q 1866 38 1816 16 
Q 1766 -6 1702 -20 
Q 1638 -34 1566 -43 
Q 1494 -53 1422 -53 
Q 1203 -53 1047 5 
Q 891 63 791 180 
Q 691 297 645 476 
Q 600 656 600 900 
L 600 2544 
L 206 2544 
Q 159 2544 131 2594 
Q 103 2644 103 2756 
Q 103 2816 111 2856 
Q 119 2897 131 2923 
Q 144 2950 164 2961 
Q 184 2972 209 2972 
L 600 2972 
L 600 3641 
Q 600 3663 611 3681 
Q 622 3700 651 3714 
Q 681 3728 731 3734 
Q 781 3741 856 3741 
Q 934 3741 984 3734 
Q 1034 3728 1062 3714 
Q 1091 3700 1103 3681 
Q 1116 3663 1116 3641 
L 1116 2972 
L 1838 2972 
Q 1863 2972 1881 2961 
Q 1900 2950 1914 2923 
Q 1928 2897 1934 2856 
Q 1941 2816 1941 2756 
Q 1941 2644 1912 2594 
Q 1884 2544 1838 2544 
L 1116 2544 
L 1116 975 
Q 1116 684 1202 536 
Q 1288 388 1509 388 
Q 1581 388 1637 402 
Q 1694 416 1737 431 
Q 1781 447 1812 461 
Q 1844 475 1869 475 
Q 1884 475 1898 467 
Q 1913 459 1920 437 
Q 1928 416 1934 378 
Q 1941 341 1941 284 
z
" transform="scale(0.015625)"/>
       <path id="Calibri-57" d="M 4409 119 
Q 4397 75 4372 48 
Q 4347 22 4303 8 
Q 4259 -6 4195 -12 
Q 4131 -19 4038 -19 
Q 3941 -19 3873 -12 
Q 3806 -6 3762 8 
Q 3719 22 3697 48 
Q 3675 75 3663 119 
L 2816 3172 
L 2809 3172 
L 2028 119 
Q 2019 75 1997 48 
Q 1975 22 1934 8 
Q 1894 -6 1830 -12 
Q 1766 -19 1666 -19 
Q 1563 -19 1494 -12 
Q 1425 -6 1381 8 
Q 1338 22 1314 48 
Q 1291 75 1281 119 
L 213 3853 
Q 194 3925 192 3965 
Q 191 4006 217 4028 
Q 244 4050 303 4056 
Q 363 4063 463 4063 
Q 559 4063 615 4058 
Q 672 4053 701 4040 
Q 731 4028 742 4006 
Q 753 3984 759 3950 
L 1669 563 
L 1672 563 
L 2534 3944 
Q 2544 3978 2558 4001 
Q 2572 4025 2603 4037 
Q 2634 4050 2692 4056 
Q 2750 4063 2844 4063 
Q 2931 4063 2982 4056 
Q 3034 4050 3065 4037 
Q 3097 4025 3111 4001 
Q 3125 3978 3134 3944 
L 4063 563 
L 4069 563 
L 4959 3947 
Q 4969 3978 4978 4001 
Q 4988 4025 5017 4037 
Q 5047 4050 5101 4056 
Q 5156 4063 5247 4063 
Q 5341 4063 5395 4055 
Q 5450 4047 5475 4025 
Q 5500 4003 5498 3962 
Q 5497 3922 5481 3850 
L 4409 119 
z
" transform="scale(0.015625)"/>
       <path id="Calibri-6b" d="M 2788 81 
Q 2788 56 2775 37 
Q 2763 19 2733 6 
Q 2703 -6 2650 -12 
Q 2597 -19 2516 -19 
Q 2431 -19 2376 -14 
Q 2322 -9 2284 2 
Q 2247 13 2223 33 
Q 2200 53 2181 81 
L 994 1638 
L 994 78 
Q 994 53 981 36 
Q 969 19 941 6 
Q 913 -6 863 -12 
Q 813 -19 734 -19 
Q 659 -19 609 -12 
Q 559 -6 529 6 
Q 500 19 489 36 
Q 478 53 478 78 
L 478 4253 
Q 478 4278 489 4297 
Q 500 4316 529 4328 
Q 559 4341 609 4347 
Q 659 4353 734 4353 
Q 813 4353 863 4347 
Q 913 4341 941 4328 
Q 969 4316 981 4297 
Q 994 4278 994 4253 
L 994 1709 
L 2056 2878 
Q 2081 2909 2109 2929 
Q 2138 2950 2177 2964 
Q 2216 2978 2269 2983 
Q 2322 2988 2397 2988 
Q 2475 2988 2528 2983 
Q 2581 2978 2614 2967 
Q 2647 2956 2661 2939 
Q 2675 2922 2675 2894 
Q 2675 2856 2654 2818 
Q 2634 2781 2588 2731 
L 1569 1713 
L 2713 228 
Q 2753 175 2770 142 
Q 2788 109 2788 81 
z
" transform="scale(0.015625)"/>
      </defs>
      <use xlink:href="#Calibri-53"/>
      <use xlink:href="#Calibri-68" x="45.947266"/>
      <use xlink:href="#Calibri-61" x="98.486328"/>
      <use xlink:href="#Calibri-72" x="146.386719"/>
      <use xlink:href="#Calibri-65" x="181.25"/>
      <use xlink:href="#Calibri-20" x="231.005859"/>
      <use xlink:href="#Calibri-6f" x="253.613281"/>
      <use xlink:href="#Calibri-66" x="306.347656"/>
      <use xlink:href="#Calibri-20" x="336.865234"/>
      <use xlink:href="#Calibri-52" x="359.472656"/>
      <use xlink:href="#Calibri-65" x="413.769531"/>
      <use xlink:href="#Calibri-73" x="463.525391"/>
      <use xlink:href="#Calibri-69" x="502.636719"/>
      <use xlink:href="#Calibri-64" x="525.585938"/>
      <use xlink:href="#Calibri-65" x="578.125"/>
      <use xlink:href="#Calibri-6e" x="627.880859"/>
      <use xlink:href="#Calibri-74" x="680.419922"/>
      <use xlink:href="#Calibri-20" x="713.916016"/>
      <use xlink:href="#Calibri-57" x="736.523438"/>
      <use xlink:href="#Calibri-6f" x="825.488281"/>
      <use xlink:href="#Calibri-72" x="878.222656"/>
      <use xlink:href="#Calibri-6b" x="913.085938"/>
      <use xlink:href="#Calibri-65" x="958.544922"/>
      <use xlink:href="#Calibri-72" x="1008.300781"/>
      <use xlink:href="#Calibri-73" x="1043.164062"/>
     </g>
    </g>
   </g>
   <g id="line2d_12">
    <path d="M 83.792741 273.86238 
L 308.940875 269.930315 
L 556.603821 189.79684 
" clip-path="url(#p3363408bf3)" style="fill: none; stroke: #064460; stroke-width: 1.5; stroke-linecap: square"/>
    <defs>
     <path id="md2b5d37969" d="M 0 3 
C 0.795609 3 1.55874 2.683901 2.12132 2.12132 
C 2.683901 1.55874 3 0.795609 3 0 
C 3 -0.795609 2.683901 -1.55874 2.12132 -2.12132 
C 1.55874 -2.683901 0.795609 -3 0 -3 
C -0.795609 -3 -1.55874 -2.683901 -2.12132 -2.12132 
C -2.683901 -1.55874 -3 -0.795609 -3 0 
C -3 0.795609 -2.683901 1.55874 -2.12132 2.12132 
C -1.55874 2.683901 -0.795609 3 0 3 
z
" style="stroke: #064460"/>
    </defs>
    <g clip-path="url(#p3363408bf3)">
     <use xlink:href="#md2b5d37969" x="83.792741" y="273.86238" style="fill: #064460; stroke: #064460"/>
     <use xlink:href="#md2b5d37969" x="308.940875" y="269.930315" style="fill: #064460; stroke: #064460"/>
     <use xlink:href="#md2b5d37969" x="556.603821" y="189.79684" style="fill: #064460; stroke: #064460"/>
    </g>
   </g>
   <g id="line2d_13">
    <path d="M 83.792741 272.29046 
L 308.940875 262.610061 
L 556.603821 204.102103 
" clip-path="url(#p3363408bf3)" style="fill: none; stroke: #d6d0d3; stroke-width: 1.5; stroke-linecap: square"/>
    <defs>
     <path id="m5d6ffc894c" d="M 0 3 
C 0.795609 3 1.55874 2.683901 2.12132 2.12132 
C 2.683901 1.55874 3 0.795609 3 0 
C 3 -0.795609 2.683901 -1.55874 2.12132 -2.12132 
C 1.55874 -2.683901 0.795609 -3 0 -3 
C -0.795609 -3 -1.55874 -2.683901 -2.12132 -2.12132 
C -2.683901 -1.55874 -3 -0.795609 -3 0 
C -3 0.795609 -2.683901 1.55874 -2.12132 2.12132 
C -1.55874 2.683901 -0.795609 3 0 3 
z
" style="stroke: #d6d0d3"/>
    </defs>
    <g clip-path="url(#p3363408bf3)">
     <use xlink:href="#m5d6ffc894c" x="83.792741" y="272.29046" style="fill: #d6d0d3; stroke: #d6d0d3"/>
     <use xlink:href="#m5d6ffc894c" x="308.940875" y="262.610061" style="fill: #d6d0d3; stroke: #d6d0d3"/>
     <use xlink:href="#m5d6ffc894c" x="556.603821" y="204.102103" style="fill: #d6d0d3; stroke: #d6d0d3"/>
    </g>
   </g>
   <g id="line2d_14">
    <path d="M 83.792741 266.17837 
L 308.940875 251.464156 
L 556.603821 166.584861 
" clip-path="url(#p3363408bf3)" style="fill: none; stroke: #04979e; stroke-width: 1.5; stroke-linecap: square"/>
    <defs>
     <path id="mb5be4c2bc9" d="M 0 3 
C 0.795609 3 1.55874 2.683901 2.12132 2.12132 
C 2.683901 1.55874 3 0.795609 3 0 
C 3 -0.795609 2.683901 -1.55874 2.12132 -2.12132 
C 1.55874 -2.683901 0.795609 -3 0 -3 
C -0.795609 -3 -1.55874 -2.683901 -2.12132 -2.12132 
C -2.683901 -1.55874 -3 -0.795609 -3 0 
C -3 0.795609 -2.683901 1.55874 -2.12132 2.12132 
C -1.55874 2.683901 -0.795609 3 0 3 
z
" style="stroke: #04979e"/>
    </defs>
    <g clip-path="url(#p3363408bf3)">
     <use xlink:href="#mb5be4c2bc9" x="83.792741" y="266.17837" style="fill: #04979e; stroke: #04979e"/>
     <use xlink:href="#mb5be4c2bc9" x="308.940875" y="251.464156" style="fill: #04979e; stroke: #04979e"/>
     <use xlink:href="#mb5be4c2bc9" x="556.603821" y="166.584861" style="fill: #04979e; stroke: #04979e"/>
    </g>
   </g>
   <g id="line2d_15">
    <path d="M 83.792741 269.789898 
L 308.940875 251.084244 
L 556.603821 185.152885 
" clip-path="url(#p3363408bf3)" style="fill: none; stroke: #4f853d; stroke-width: 1.5; stroke-linecap: square"/>
    <defs>
     <path id="m2896e2743f" d="M 0 3 
C 0.795609 3 1.55874 2.683901 2.12132 2.12132 
C 2.683901 1.55874 3 0.795609 3 0 
C 3 -0.795609 2.683901 -1.55874 2.12132 -2.12132 
C 1.55874 -2.683901 0.795609 -3 0 -3 
C -0.795609 -3 -1.55874 -2.683901 -2.12132 -2.12132 
C -2.683901 -1.55874 -3 -0.795609 -3 0 
C -3 0.795609 -2.683901 1.55874 -2.12132 2.12132 
C -1.55874 2.683901 -0.795609 3 0 3 
z
" style="stroke: #4f853d"/>
    </defs>
    <g clip-path="url(#p3363408bf3)">
     <use xlink:href="#m2896e2743f" x="83.792741" y="269.789898" style="fill: #4f853d; stroke: #4f853d"/>
     <use xlink:href="#m2896e2743f" x="308.940875" y="251.084244" style="fill: #4f853d; stroke: #4f853d"/>
     <use xlink:href="#m2896e2743f" x="556.603821" y="185.152885" style="fill: #4f853d; stroke: #4f853d"/>
    </g>
   </g>
   <g id="line2d_16">
    <path d="M 83.792741 279.628587 
L 308.940875 286.31196 
L 556.603821 178.286356 
" clip-path="url(#p3363408bf3)" style="fill: none; stroke: #808989; stroke-width: 1.5; stroke-linecap: square"/>
    <defs>
     <path id="m6328ef4f4f" d="M 0 3 
C 0.795609 3 1.55874 2.683901 2.12132 2.12132 
C 2.683901 1.55874 3 0.795609 3 0 
C 3 -0.795609 2.683901 -1.55874 2.12132 -2.12132 
C 1.55874 -2.683901 0.795609 -3 0 -3 
C -0.795609 -3 -1.55874 -2.683901 -2.12132 -2.12132 
C -2.683901 -1.55874 -3 -0.795609 -3 0 
C -3 0.795609 -2.683901 1.55874 -2.12132 2.12132 
C -1.55874 2.683901 -0.795609 3 0 3 
z
" style="stroke: #808989"/>
    </defs>
    <g clip-path="url(#p3363408bf3)">
     <use xlink:href="#m6328ef4f4f" x="83.792741" y="279.628587" style="fill: #808989; stroke: #808989"/>
     <use xlink:href="#m6328ef4f4f" x="308.940875" y="286.31196" style="fill: #808989; stroke: #808989"/>
     <use xlink:href="#m6328ef4f4f" x="556.603821" y="178.286356" style="fill: #808989; stroke: #808989"/>
    </g>
   </g>
   <g id="line2d_17">
    <path d="M 83.792741 274.104527 
L 308.940875 274.091555 
L 556.603821 171.202445 
" clip-path="url(#p3363408bf3)" style="fill: none; stroke: #0c2428; stroke-width: 1.5; stroke-linecap: square"/>
    <defs>
     <path id="m5d1a2995a3" d="M 0 3 
C 0.795609 3 1.55874 2.683901 2.12132 2.12132 
C 2.683901 1.55874 3 0.795609 3 0 
C 3 -0.795609 2.683901 -1.55874 2.12132 -2.12132 
C 1.55874 -2.683901 0.795609 -3 0 -3 
C -0.795609 -3 -1.55874 -2.683901 -2.12132 -2.12132 
C -2.683901 -1.55874 -3 -0.795609 -3 0 
C -3 0.795609 -2.683901 1.55874 -2.12132 2.12132 
C -1.55874 2.683901 -0.795609 3 0 3 
z
" style="stroke: #0c2428"/>
    </defs>
    <g clip-path="url(#p3363408bf3)">
     <use xlink:href="#m5d1a2995a3" x="83.792741" y="274.104527" style="fill: #0c2428; stroke: #0c2428"/>
     <use xlink:href="#m5d1a2995a3" x="308.940875" y="274.091555" style="fill: #0c2428; stroke: #0c2428"/>
     <use xlink:href="#m5d1a2995a3" x="556.603821" y="171.202445" style="fill: #0c2428; stroke: #0c2428"/>
    </g>
   </g>
   <g id="line2d_18">
    <path d="M 83.792741 229.768861 
L 308.940875 213.02117 
L 556.603821 51.257415 
" clip-path="url(#p3363408bf3)" style="fill: none; stroke: #414543; stroke-width: 1.5; stroke-linecap: square"/>
    <defs>
     <path id="m2bad15a9a6" d="M 0 3 
C 0.795609 3 1.55874 2.683901 2.12132 2.12132 
C 2.683901 1.55874 3 0.795609 3 0 
C 3 -0.795609 2.683901 -1.55874 2.12132 -2.12132 
C 1.55874 -2.683901 0.795609 -3 0 -3 
C -0.795609 -3 -1.55874 -2.683901 -2.12132 -2.12132 
C -2.683901 -1.55874 -3 -0.795609 -3 0 
C -3 0.795609 -2.683901 1.55874 -2.12132 2.12132 
C -1.55874 2.683901 -0.795609 3 0 3 
z
" style="stroke: #414543"/>
    </defs>
    <g clip-path="url(#p3363408bf3)">
     <use xlink:href="#m2bad15a9a6" x="83.792741" y="229.768861" style="fill: #414543; stroke: #414543"/>
     <use xlink:href="#m2bad15a9a6" x="308.940875" y="213.02117" style="fill: #414543; stroke: #414543"/>
     <use xlink:href="#m2bad15a9a6" x="556.603821" y="51.257415" style="fill: #414543; stroke: #414543"/>
    </g>
   </g>
   <g id="line2d_19">
    <path d="M 83.792741 277.658857 
L 308.940875 276.434514 
L 556.603821 213.561781 
" clip-path="url(#p3363408bf3)" style="fill: none; stroke: #a9d6bd; stroke-width: 1.5; stroke-linecap: square"/>
    <defs>
     <path id="m263a4d6a85" d="M 0 3 
C 0.795609 3 1.55874 2.683901 2.12132 2.12132 
C 2.683901 1.55874 3 0.795609 3 0 
C 3 -0.795609 2.683901 -1.55874 2.12132 -2.12132 
C 1.55874 -2.683901 0.795609 -3 0 -3 
C -0.795609 -3 -1.55874 -2.683901 -2.12132 -2.12132 
C -2.683901 -1.55874 -3 -0.795609 -3 0 
C -3 0.795609 -2.683901 1.55874 -2.12132 2.12132 
C -1.55874 2.683901 -0.795609 3 0 3 
z
" style="stroke: #a9d6bd"/>
    </defs>
    <g clip-path="url(#p3363408bf3)">
     <use xlink:href="#m263a4d6a85" x="83.792741" y="277.658857" style="fill: #a9d6bd; stroke: #a9d6bd"/>
     <use xlink:href="#m263a4d6a85" x="308.940875" y="276.434514" style="fill: #a9d6bd; stroke: #a9d6bd"/>
     <use xlink:href="#m263a4d6a85" x="556.603821" y="213.561781" style="fill: #a9d6bd; stroke: #a9d6bd"/>
    </g>
   </g>
   <g id="text_14">
    <!-- Comparative Share of Workers Working from Home Over Time -->
    <g style="fill: #00263e" transform="translate(91.055469 19.504687) scale(0.18 -0.18)">
     <defs>
      <path id="Calibri-43" d="M 3238 572 
Q 3238 522 3234 484 
Q 3231 447 3223 419 
Q 3216 391 3203 369 
Q 3191 347 3159 315 
Q 3128 284 3028 220 
Q 2928 156 2779 95 
Q 2631 34 2439 -8 
Q 2247 -50 2019 -50 
Q 1625 -50 1308 81 
Q 991 213 767 469 
Q 544 725 423 1101 
Q 303 1478 303 1969 
Q 303 2472 433 2865 
Q 563 3259 797 3532 
Q 1031 3806 1357 3950 
Q 1684 4094 2081 4094 
Q 2256 4094 2422 4061 
Q 2588 4028 2728 3978 
Q 2869 3928 2978 3862 
Q 3088 3797 3130 3755 
Q 3172 3713 3184 3691 
Q 3197 3669 3205 3639 
Q 3213 3609 3217 3568 
Q 3222 3528 3222 3472 
Q 3222 3409 3215 3365 
Q 3209 3322 3196 3292 
Q 3184 3263 3167 3248 
Q 3150 3234 3125 3234 
Q 3081 3234 3003 3295 
Q 2925 3356 2801 3429 
Q 2678 3503 2501 3564 
Q 2325 3625 2078 3625 
Q 1809 3625 1589 3517 
Q 1369 3409 1212 3200 
Q 1056 2991 970 2689 
Q 884 2388 884 2000 
Q 884 1616 967 1320 
Q 1050 1025 1204 826 
Q 1359 628 1584 526 
Q 1809 425 2094 425 
Q 2334 425 2514 484 
Q 2694 544 2820 617 
Q 2947 691 3028 750 
Q 3109 809 3156 809 
Q 3178 809 3193 800 
Q 3209 791 3218 764 
Q 3228 738 3233 691 
Q 3238 644 3238 572 
z
" transform="scale(0.015625)"/>
      <path id="Calibri-6d" d="M 4650 78 
Q 4650 53 4637 36 
Q 4625 19 4597 6 
Q 4569 -6 4519 -12 
Q 4469 -19 4394 -19 
Q 4316 -19 4266 -12 
Q 4216 -6 4186 6 
Q 4156 19 4143 36 
Q 4131 53 4131 78 
L 4131 1788 
Q 4131 1966 4100 2112 
Q 4069 2259 4000 2365 
Q 3931 2472 3825 2528 
Q 3719 2584 3575 2584 
Q 3397 2584 3217 2446 
Q 3038 2309 2822 2044 
L 2822 78 
Q 2822 53 2809 36 
Q 2797 19 2767 6 
Q 2738 -6 2688 -12 
Q 2638 -19 2563 -19 
Q 2491 -19 2439 -12 
Q 2388 -6 2358 6 
Q 2328 19 2317 36 
Q 2306 53 2306 78 
L 2306 1788 
Q 2306 1966 2272 2112 
Q 2238 2259 2169 2365 
Q 2100 2472 1995 2528 
Q 1891 2584 1747 2584 
Q 1569 2584 1387 2446 
Q 1206 2309 994 2044 
L 994 78 
Q 994 53 981 36 
Q 969 19 941 6 
Q 913 -6 863 -12 
Q 813 -19 734 -19 
Q 659 -19 609 -12 
Q 559 -6 529 6 
Q 500 19 489 36 
Q 478 53 478 78 
L 478 2891 
Q 478 2916 487 2933 
Q 497 2950 525 2964 
Q 553 2978 597 2983 
Q 641 2988 713 2988 
Q 781 2988 826 2983 
Q 872 2978 897 2964 
Q 922 2950 933 2933 
Q 944 2916 944 2891 
L 944 2519 
Q 1181 2784 1404 2907 
Q 1628 3031 1856 3031 
Q 2031 3031 2170 2990 
Q 2309 2950 2415 2876 
Q 2522 2803 2597 2701 
Q 2672 2600 2722 2475 
Q 2863 2628 2989 2734 
Q 3116 2841 3233 2906 
Q 3350 2972 3461 3001 
Q 3572 3031 3684 3031 
Q 3956 3031 4140 2936 
Q 4325 2841 4439 2681 
Q 4553 2522 4601 2308 
Q 4650 2094 4650 1856 
L 4650 78 
z
" transform="scale(0.015625)"/>
      <path id="Calibri-70" d="M 3066 1528 
Q 3066 1159 2986 865 
Q 2906 572 2751 367 
Q 2597 163 2369 52 
Q 2141 -59 1847 -59 
Q 1722 -59 1615 -34 
Q 1509 -9 1407 44 
Q 1306 97 1206 178 
Q 1106 259 994 369 
L 994 -1038 
Q 994 -1063 981 -1081 
Q 969 -1100 941 -1112 
Q 913 -1125 863 -1131 
Q 813 -1138 734 -1138 
Q 659 -1138 609 -1131 
Q 559 -1125 529 -1112 
Q 500 -1100 489 -1081 
Q 478 -1063 478 -1038 
L 478 2891 
Q 478 2919 487 2936 
Q 497 2953 525 2965 
Q 553 2978 597 2983 
Q 641 2988 703 2988 
Q 769 2988 811 2983 
Q 853 2978 881 2965 
Q 909 2953 920 2936 
Q 931 2919 931 2891 
L 931 2513 
Q 1059 2644 1178 2741 
Q 1297 2838 1417 2902 
Q 1538 2966 1664 2998 
Q 1791 3031 1931 3031 
Q 2238 3031 2453 2912 
Q 2669 2794 2805 2587 
Q 2941 2381 3003 2107 
Q 3066 1834 3066 1528 
z
M 2522 1469 
Q 2522 1684 2489 1886 
Q 2456 2088 2376 2244 
Q 2297 2400 2162 2494 
Q 2028 2588 1828 2588 
Q 1728 2588 1631 2558 
Q 1534 2528 1434 2464 
Q 1334 2400 1225 2295 
Q 1116 2191 994 2038 
L 994 919 
Q 1206 659 1397 521 
Q 1588 384 1797 384 
Q 1991 384 2130 478 
Q 2269 572 2355 728 
Q 2441 884 2481 1078 
Q 2522 1272 2522 1469 
z
" transform="scale(0.015625)"/>
      <path id="Calibri-76" d="M 2784 2897 
Q 2784 2884 2782 2870 
Q 2781 2856 2778 2840 
Q 2775 2825 2770 2806 
Q 2766 2788 2759 2766 
L 1800 94 
Q 1788 59 1767 37 
Q 1747 16 1706 3 
Q 1666 -9 1603 -14 
Q 1541 -19 1447 -19 
Q 1353 -19 1290 -12 
Q 1228 -6 1189 6 
Q 1150 19 1128 41 
Q 1106 63 1094 94 
L 138 2766 
Q 125 2803 117 2831 
Q 109 2859 107 2873 
Q 106 2888 106 2897 
Q 106 2922 118 2940 
Q 131 2959 161 2970 
Q 191 2981 239 2984 
Q 288 2988 359 2988 
Q 450 2988 504 2983 
Q 559 2978 589 2965 
Q 619 2953 633 2934 
Q 647 2916 659 2888 
L 1453 569 
L 1466 531 
L 1475 569 
L 2259 2888 
Q 2266 2916 2281 2934 
Q 2297 2953 2326 2965 
Q 2356 2978 2407 2983 
Q 2459 2988 2544 2988 
Q 2616 2988 2662 2984 
Q 2709 2981 2736 2968 
Q 2763 2956 2773 2939 
Q 2784 2922 2784 2897 
z
" transform="scale(0.015625)"/>
      <path id="Calibri-67" d="M 2828 2763 
Q 2828 2653 2798 2604 
Q 2769 2556 2722 2556 
L 2319 2556 
Q 2428 2444 2472 2308 
Q 2516 2172 2516 2025 
Q 2516 1781 2437 1593 
Q 2359 1406 2214 1276 
Q 2069 1147 1869 1078 
Q 1669 1009 1425 1009 
Q 1253 1009 1098 1054 
Q 944 1100 859 1169 
Q 803 1113 767 1041 
Q 731 969 731 875 
Q 731 766 832 694 
Q 934 622 1103 616 
L 1838 584 
Q 2047 578 2222 526 
Q 2397 475 2525 379 
Q 2653 284 2725 145 
Q 2797 6 2797 -178 
Q 2797 -372 2715 -547 
Q 2634 -722 2467 -855 
Q 2300 -988 2040 -1064 
Q 1781 -1141 1428 -1141 
Q 1088 -1141 848 -1083 
Q 609 -1025 456 -925 
Q 303 -825 234 -686 
Q 166 -547 166 -384 
Q 166 -281 191 -184 
Q 216 -88 267 0 
Q 319 88 395 167 
Q 472 247 572 325 
Q 419 403 345 522 
Q 272 641 272 778 
Q 272 969 350 1119 
Q 428 1269 544 1388 
Q 447 1503 390 1648 
Q 334 1794 334 2000 
Q 334 2241 415 2431 
Q 497 2622 640 2753 
Q 784 2884 986 2954 
Q 1188 3025 1425 3025 
Q 1553 3025 1664 3011 
Q 1775 2997 1872 2972 
L 2722 2972 
Q 2775 2972 2801 2920 
Q 2828 2869 2828 2763 
z
M 2022 2022 
Q 2022 2309 1864 2470 
Q 1706 2631 1416 2631 
Q 1266 2631 1155 2581 
Q 1044 2531 970 2443 
Q 897 2356 861 2242 
Q 825 2128 825 2003 
Q 825 1725 983 1565 
Q 1141 1406 1425 1406 
Q 1578 1406 1690 1454 
Q 1803 1503 1876 1589 
Q 1950 1675 1986 1787 
Q 2022 1900 2022 2022 
z
M 2281 -206 
Q 2281 -25 2132 73 
Q 1984 172 1731 178 
L 1003 203 
Q 903 125 839 54 
Q 775 -16 737 -80 
Q 700 -144 686 -206 
Q 672 -269 672 -334 
Q 672 -538 878 -642 
Q 1084 -747 1453 -747 
Q 1688 -747 1845 -701 
Q 2003 -656 2100 -581 
Q 2197 -506 2239 -409 
Q 2281 -313 2281 -206 
z
" transform="scale(0.015625)"/>
      <path id="Calibri-48" d="M 3450 81 
Q 3450 56 3437 37 
Q 3425 19 3394 8 
Q 3363 -3 3311 -11 
Q 3259 -19 3184 -19 
Q 3103 -19 3053 -11 
Q 3003 -3 2972 8 
Q 2941 19 2928 37 
Q 2916 56 2916 81 
L 2916 1875 
L 1075 1875 
L 1075 81 
Q 1075 56 1062 37 
Q 1050 19 1019 8 
Q 988 -3 936 -11 
Q 884 -19 806 -19 
Q 731 -19 678 -11 
Q 625 -3 594 8 
Q 563 19 550 37 
Q 538 56 538 81 
L 538 3963 
Q 538 3988 550 4006 
Q 563 4025 594 4036 
Q 625 4047 678 4055 
Q 731 4063 806 4063 
Q 884 4063 936 4055 
Q 988 4047 1019 4036 
Q 1050 4025 1062 4006 
Q 1075 3988 1075 3963 
L 1075 2344 
L 2916 2344 
L 2916 3963 
Q 2916 3988 2928 4006 
Q 2941 4025 2972 4036 
Q 3003 4047 3053 4055 
Q 3103 4063 3184 4063 
Q 3259 4063 3311 4055 
Q 3363 4047 3394 4036 
Q 3425 4025 3437 4006 
Q 3450 3988 3450 3963 
L 3450 81 
z
" transform="scale(0.015625)"/>
      <path id="Calibri-4f" d="M 3925 2069 
Q 3925 1578 3809 1184 
Q 3694 791 3464 514 
Q 3234 238 2887 89 
Q 2541 -59 2078 -59 
Q 1622 -59 1289 77 
Q 956 213 739 472 
Q 522 731 415 1115 
Q 309 1500 309 2000 
Q 309 2478 425 2868 
Q 541 3259 772 3532 
Q 1003 3806 1350 3954 
Q 1697 4103 2159 4103 
Q 2606 4103 2937 3968 
Q 3269 3834 3489 3576 
Q 3709 3319 3817 2939 
Q 3925 2559 3925 2069 
z
M 3359 2031 
Q 3359 2375 3298 2670 
Q 3238 2966 3095 3183 
Q 2953 3400 2715 3522 
Q 2478 3644 2128 3644 
Q 1778 3644 1540 3512 
Q 1303 3381 1154 3162 
Q 1006 2944 942 2651 
Q 878 2359 878 2038 
Q 878 1681 937 1381 
Q 997 1081 1137 864 
Q 1278 647 1514 526 
Q 1750 406 2106 406 
Q 2459 406 2700 537 
Q 2941 669 3087 892 
Q 3234 1116 3296 1409 
Q 3359 1703 3359 2031 
z
" transform="scale(0.015625)"/>
      <path id="Calibri-54" d="M 3072 3813 
Q 3072 3753 3065 3709 
Q 3059 3666 3045 3639 
Q 3031 3613 3011 3600 
Q 2991 3588 2966 3588 
L 1828 3588 
L 1828 81 
Q 1828 56 1815 37 
Q 1803 19 1772 8 
Q 1741 -3 1689 -11 
Q 1638 -19 1559 -19 
Q 1484 -19 1431 -11 
Q 1378 -3 1347 8 
Q 1316 19 1303 37 
Q 1291 56 1291 81 
L 1291 3588 
L 153 3588 
Q 128 3588 108 3600 
Q 88 3613 75 3639 
Q 63 3666 55 3709 
Q 47 3753 47 3813 
Q 47 3872 55 3917 
Q 63 3963 75 3991 
Q 88 4019 108 4031 
Q 128 4044 153 4044 
L 2966 4044 
Q 2991 4044 3011 4031 
Q 3031 4019 3045 3991 
Q 3059 3963 3065 3917 
Q 3072 3872 3072 3813 
z
" transform="scale(0.015625)"/>
     </defs>
     <use xlink:href="#Calibri-43"/>
     <use xlink:href="#Calibri-6f" x="53.320312"/>
     <use xlink:href="#Calibri-6d" x="106.054688"/>
     <use xlink:href="#Calibri-70" x="185.9375"/>
     <use xlink:href="#Calibri-61" x="238.476562"/>
     <use xlink:href="#Calibri-72" x="286.376953"/>
     <use xlink:href="#Calibri-61" x="321.240234"/>
     <use xlink:href="#Calibri-74" x="369.140625"/>
     <use xlink:href="#Calibri-69" x="402.636719"/>
     <use xlink:href="#Calibri-76" x="425.585938"/>
     <use xlink:href="#Calibri-65" x="470.751953"/>
     <use xlink:href="#Calibri-20" x="520.507812"/>
     <use xlink:href="#Calibri-53" x="543.115234"/>
     <use xlink:href="#Calibri-68" x="589.0625"/>
     <use xlink:href="#Calibri-61" x="641.601562"/>
     <use xlink:href="#Calibri-72" x="689.501953"/>
     <use xlink:href="#Calibri-65" x="724.365234"/>
     <use xlink:href="#Calibri-20" x="774.121094"/>
     <use xlink:href="#Calibri-6f" x="796.728516"/>
     <use xlink:href="#Calibri-66" x="849.462891"/>
     <use xlink:href="#Calibri-20" x="879.980469"/>
     <use xlink:href="#Calibri-57" x="902.587891"/>
     <use xlink:href="#Calibri-6f" x="991.552734"/>
     <use xlink:href="#Calibri-72" x="1044.287109"/>
     <use xlink:href="#Calibri-6b" x="1079.150391"/>
     <use xlink:href="#Calibri-65" x="1124.609375"/>
     <use xlink:href="#Calibri-72" x="1174.365234"/>
     <use xlink:href="#Calibri-73" x="1209.228516"/>
     <use xlink:href="#Calibri-20" x="1248.339844"/>
     <use xlink:href="#Calibri-57" x="1270.947266"/>
     <use xlink:href="#Calibri-6f" x="1359.912109"/>
     <use xlink:href="#Calibri-72" x="1412.646484"/>
     <use xlink:href="#Calibri-6b" x="1447.509766"/>
     <use xlink:href="#Calibri-69" x="1492.96875"/>
     <use xlink:href="#Calibri-6e" x="1515.917969"/>
     <use xlink:href="#Calibri-67" x="1568.457031"/>
     <use xlink:href="#Calibri-20" x="1615.527344"/>
     <use xlink:href="#Calibri-66" x="1638.134766"/>
     <use xlink:href="#Calibri-72" x="1668.652344"/>
     <use xlink:href="#Calibri-6f" x="1703.515625"/>
     <use xlink:href="#Calibri-6d" x="1756.25"/>
     <use xlink:href="#Calibri-20" x="1836.132812"/>
     <use xlink:href="#Calibri-48" x="1858.740234"/>
     <use xlink:href="#Calibri-6f" x="1921.044922"/>
     <use xlink:href="#Calibri-6d" x="1973.779297"/>
     <use xlink:href="#Calibri-65" x="2053.662109"/>
     <use xlink:href="#Calibri-20" x="2103.417969"/>
     <use xlink:href="#Calibri-4f" x="2126.025391"/>
     <use xlink:href="#Calibri-76" x="2192.236328"/>
     <use xlink:href="#Calibri-65" x="2237.402344"/>
     <use xlink:href="#Calibri-72" x="2287.158203"/>
     <use xlink:href="#Calibri-20" x="2322.021484"/>
     <use xlink:href="#Calibri-54" x="2344.628906"/>
     <use xlink:href="#Calibri-69" x="2393.359375"/>
     <use xlink:href="#Calibri-6d" x="2416.308594"/>
     <use xlink:href="#Calibri-65" x="2496.191406"/>
    </g>
   </g>
   <g id="legend_1">
    <g id="line2d_20">
     <path d="M 584.943453 53.254688 
L 595.943453 53.254688 
L 606.943453 53.254688 
" style="fill: none; stroke: #064460; stroke-width: 1.5; stroke-linecap: square"/>
     <g>
      <use xlink:href="#md2b5d37969" x="595.943453" y="53.254688" style="fill: #064460; stroke: #064460"/>
     </g>
    </g>
    <g id="text_15">
     <!-- Rutherford County -->
     <g style="fill: #00263e" transform="translate(615.743453 57.104688) scale(0.11 -0.11)">
      <defs>
       <path id="Calibri-75" d="M 2888 78 
Q 2888 53 2877 36 
Q 2866 19 2837 6 
Q 2809 -6 2764 -12 
Q 2719 -19 2653 -19 
Q 2581 -19 2536 -12 
Q 2491 -6 2464 6 
Q 2438 19 2428 36 
Q 2419 53 2419 78 
L 2419 450 
Q 2178 184 1943 62 
Q 1709 -59 1469 -59 
Q 1188 -59 995 34 
Q 803 128 684 289 
Q 566 450 514 664 
Q 463 878 463 1184 
L 463 2891 
Q 463 2916 473 2933 
Q 484 2950 515 2964 
Q 547 2978 597 2983 
Q 647 2988 722 2988 
Q 797 2988 847 2983 
Q 897 2978 926 2964 
Q 956 2950 968 2933 
Q 981 2916 981 2891 
L 981 1253 
Q 981 1006 1017 857 
Q 1053 709 1126 604 
Q 1200 500 1312 442 
Q 1425 384 1575 384 
Q 1769 384 1961 521 
Q 2153 659 2369 925 
L 2369 2891 
Q 2369 2916 2380 2933 
Q 2391 2950 2422 2964 
Q 2453 2978 2501 2983 
Q 2550 2988 2628 2988 
Q 2703 2988 2753 2983 
Q 2803 2978 2831 2964 
Q 2859 2950 2873 2933 
Q 2888 2916 2888 2891 
L 2888 78 
z
" transform="scale(0.015625)"/>
       <path id="Calibri-79" d="M 1759 0 
L 1384 -1034 
Q 1366 -1084 1289 -1111 
Q 1213 -1138 1056 -1138 
Q 975 -1138 925 -1130 
Q 875 -1122 848 -1103 
Q 822 -1084 819 -1053 
Q 816 -1022 834 -978 
L 1222 0 
Q 1194 13 1169 41 
Q 1144 69 1134 100 
L 131 2788 
Q 106 2853 106 2890 
Q 106 2928 131 2950 
Q 156 2972 212 2980 
Q 269 2988 363 2988 
Q 456 2988 509 2983 
Q 563 2978 594 2965 
Q 625 2953 639 2929 
Q 653 2906 669 2866 
L 1472 609 
L 1481 609 
L 2256 2878 
Q 2275 2938 2301 2955 
Q 2328 2972 2381 2980 
Q 2434 2988 2534 2988 
Q 2622 2988 2678 2980 
Q 2734 2972 2761 2950 
Q 2788 2928 2788 2890 
Q 2788 2853 2769 2797 
L 1759 0 
z
" transform="scale(0.015625)"/>
      </defs>
      <use xlink:href="#Calibri-52"/>
      <use xlink:href="#Calibri-75" x="54.296875"/>
      <use xlink:href="#Calibri-74" x="106.835938"/>
      <use xlink:href="#Calibri-68" x="140.332031"/>
      <use xlink:href="#Calibri-65" x="192.871094"/>
      <use xlink:href="#Calibri-72" x="242.626953"/>
      <use xlink:href="#Calibri-66" x="277.490234"/>
      <use xlink:href="#Calibri-6f" x="308.007812"/>
      <use xlink:href="#Calibri-72" x="360.742188"/>
      <use xlink:href="#Calibri-64" x="395.605469"/>
      <use xlink:href="#Calibri-20" x="448.144531"/>
      <use xlink:href="#Calibri-43" x="470.751953"/>
      <use xlink:href="#Calibri-6f" x="524.072266"/>
      <use xlink:href="#Calibri-75" x="576.806641"/>
      <use xlink:href="#Calibri-6e" x="629.345703"/>
      <use xlink:href="#Calibri-74" x="681.884766"/>
      <use xlink:href="#Calibri-79" x="715.380859"/>
     </g>
    </g>
    <g id="line2d_21">
     <path d="M 584.943453 68.410625 
L 595.943453 68.410625 
L 606.943453 68.410625 
" style="fill: none; stroke: #d6d0d3; stroke-width: 1.5; stroke-linecap: square"/>
     <g>
      <use xlink:href="#m5d6ffc894c" x="595.943453" y="68.410625" style="fill: #d6d0d3; stroke: #d6d0d3"/>
     </g>
    </g>
    <g id="text_16">
     <!-- Tennessee -->
     <g style="fill: #00263e" transform="translate(615.743453 72.260625) scale(0.11 -0.11)">
      <use xlink:href="#Calibri-54"/>
      <use xlink:href="#Calibri-65" x="48.730469"/>
      <use xlink:href="#Calibri-6e" x="98.486328"/>
      <use xlink:href="#Calibri-6e" x="151.025391"/>
      <use xlink:href="#Calibri-65" x="203.564453"/>
      <use xlink:href="#Calibri-73" x="253.320312"/>
      <use xlink:href="#Calibri-73" x="292.431641"/>
      <use xlink:href="#Calibri-65" x="331.542969"/>
      <use xlink:href="#Calibri-65" x="381.298828"/>
     </g>
    </g>
    <g id="line2d_22">
     <path d="M 584.943453 83.566563 
L 595.943453 83.566563 
L 606.943453 83.566563 
" style="fill: none; stroke: #04979e; stroke-width: 1.5; stroke-linecap: square"/>
     <g>
      <use xlink:href="#mb5be4c2bc9" x="595.943453" y="83.566563" style="fill: #04979e; stroke: #04979e"/>
     </g>
    </g>
    <g id="text_17">
     <!-- GNRC -->
     <g style="fill: #00263e" transform="translate(615.743453 87.416562) scale(0.11 -0.11)">
      <defs>
       <path id="Calibri-47" d="M 3575 3494 
Q 3575 3434 3569 3389 
Q 3563 3344 3550 3314 
Q 3538 3284 3519 3271 
Q 3500 3259 3478 3259 
Q 3441 3259 3353 3318 
Q 3266 3378 3119 3450 
Q 2972 3522 2767 3581 
Q 2563 3641 2281 3641 
Q 1947 3641 1681 3519 
Q 1416 3397 1231 3181 
Q 1047 2966 948 2669 
Q 850 2372 850 2025 
Q 850 1638 958 1338 
Q 1066 1038 1256 831 
Q 1447 625 1711 519 
Q 1975 413 2291 413 
Q 2478 413 2670 458 
Q 2863 503 3028 594 
L 3028 1772 
L 2091 1772 
Q 2038 1772 2011 1825 
Q 1984 1878 1984 1991 
Q 1984 2050 1990 2092 
Q 1997 2134 2011 2161 
Q 2025 2188 2044 2200 
Q 2063 2213 2091 2213 
L 3375 2213 
Q 3409 2213 3443 2200 
Q 3478 2188 3506 2163 
Q 3534 2138 3550 2094 
Q 3566 2050 3566 1994 
L 3566 453 
Q 3566 372 3537 312 
Q 3509 253 3418 208 
Q 3328 163 3184 109 
Q 3041 56 2887 18 
Q 2734 -19 2578 -37 
Q 2422 -56 2269 -56 
Q 1800 -56 1431 89 
Q 1063 234 808 503 
Q 553 772 418 1147 
Q 284 1522 284 1984 
Q 284 2466 429 2856 
Q 575 3247 839 3522 
Q 1103 3797 1473 3948 
Q 1844 4100 2294 4100 
Q 2525 4100 2728 4059 
Q 2931 4019 3089 3964 
Q 3247 3909 3355 3845 
Q 3463 3781 3503 3740 
Q 3544 3700 3559 3647 
Q 3575 3594 3575 3494 
z
" transform="scale(0.015625)"/>
       <path id="Calibri-4e" d="M 3594 222 
Q 3594 159 3573 115 
Q 3553 72 3520 44 
Q 3488 16 3447 3 
Q 3406 -9 3366 -9 
L 3194 -9 
Q 3113 -9 3052 8 
Q 2991 25 2936 70 
Q 2881 116 2826 194 
Q 2772 272 2706 394 
L 1431 2694 
Q 1331 2872 1229 3067 
Q 1128 3263 1041 3447 
L 1034 3447 
Q 1041 3222 1044 2987 
Q 1047 2753 1047 2522 
L 1047 81 
Q 1047 59 1034 39 
Q 1022 19 992 8 
Q 963 -3 914 -11 
Q 866 -19 791 -19 
Q 716 -19 667 -11 
Q 619 -3 591 8 
Q 563 19 550 39 
Q 538 59 538 81 
L 538 3813 
Q 538 3938 606 3991 
Q 675 4044 756 4044 
L 1013 4044 
Q 1103 4044 1164 4028 
Q 1225 4013 1273 3977 
Q 1322 3941 1367 3877 
Q 1413 3813 1466 3716 
L 2447 1941 
Q 2538 1778 2622 1623 
Q 2706 1469 2784 1319 
Q 2863 1169 2939 1023 
Q 3016 878 3091 731 
L 3094 731 
Q 3088 978 3086 1245 
Q 3084 1513 3084 1759 
L 3084 3953 
Q 3084 3975 3096 3994 
Q 3109 4013 3139 4027 
Q 3169 4041 3217 4047 
Q 3266 4053 3344 4053 
Q 3413 4053 3463 4047 
Q 3513 4041 3541 4027 
Q 3569 4013 3581 3994 
Q 3594 3975 3594 3953 
L 3594 222 
z
" transform="scale(0.015625)"/>
      </defs>
      <use xlink:href="#Calibri-47"/>
      <use xlink:href="#Calibri-4e" x="63.085938"/>
      <use xlink:href="#Calibri-52" x="127.636719"/>
      <use xlink:href="#Calibri-43" x="181.933594"/>
     </g>
    </g>
    <g id="line2d_23">
     <path d="M 584.943453 98.7225 
L 595.943453 98.7225 
L 606.943453 98.7225 
" style="fill: none; stroke: #4f853d; stroke-width: 1.5; stroke-linecap: square"/>
     <g>
      <use xlink:href="#m2896e2743f" x="595.943453" y="98.7225" style="fill: #4f853d; stroke: #4f853d"/>
     </g>
    </g>
    <g id="text_18">
     <!-- Eagleville -->
     <g style="fill: #00263e" transform="translate(615.743453 102.5725) scale(0.11 -0.11)">
      <defs>
       <path id="Calibri-45" d="M 2788 222 
Q 2788 166 2781 123 
Q 2775 81 2759 53 
Q 2744 25 2723 12 
Q 2703 0 2678 0 
L 738 0 
Q 666 0 602 48 
Q 538 97 538 219 
L 538 3825 
Q 538 3947 602 3995 
Q 666 4044 738 4044 
L 2656 4044 
Q 2681 4044 2701 4031 
Q 2722 4019 2734 3991 
Q 2747 3963 2755 3920 
Q 2763 3878 2763 3816 
Q 2763 3759 2755 3717 
Q 2747 3675 2734 3648 
Q 2722 3622 2701 3609 
Q 2681 3597 2656 3597 
L 1075 3597 
L 1075 2328 
L 2431 2328 
Q 2456 2328 2476 2314 
Q 2497 2300 2511 2275 
Q 2525 2250 2531 2206 
Q 2538 2163 2538 2103 
Q 2538 2047 2531 2006 
Q 2525 1966 2511 1941 
Q 2497 1916 2476 1905 
Q 2456 1894 2431 1894 
L 1075 1894 
L 1075 447 
L 2678 447 
Q 2703 447 2723 434 
Q 2744 422 2759 395 
Q 2775 369 2781 326 
Q 2788 284 2788 222 
z
" transform="scale(0.015625)"/>
       <path id="Calibri-6c" d="M 994 78 
Q 994 53 981 36 
Q 969 19 941 6 
Q 913 -6 863 -12 
Q 813 -19 734 -19 
Q 659 -19 609 -12 
Q 559 -6 529 6 
Q 500 19 489 36 
Q 478 53 478 78 
L 478 4253 
Q 478 4278 489 4297 
Q 500 4316 529 4328 
Q 559 4341 609 4347 
Q 659 4353 734 4353 
Q 813 4353 863 4347 
Q 913 4341 941 4328 
Q 969 4316 981 4297 
Q 994 4278 994 4253 
L 994 78 
z
" transform="scale(0.015625)"/>
      </defs>
      <use xlink:href="#Calibri-45"/>
      <use xlink:href="#Calibri-61" x="47.203125"/>
      <use xlink:href="#Calibri-67" x="95.103516"/>
      <use xlink:href="#Calibri-6c" x="142.173828"/>
      <use xlink:href="#Calibri-65" x="165.123047"/>
      <use xlink:href="#Calibri-76" x="214.878906"/>
      <use xlink:href="#Calibri-69" x="260.044922"/>
      <use xlink:href="#Calibri-6c" x="282.994141"/>
      <use xlink:href="#Calibri-6c" x="305.943359"/>
      <use xlink:href="#Calibri-65" x="328.892578"/>
     </g>
    </g>
    <g id="line2d_24">
     <path d="M 584.943453 113.883594 
L 595.943453 113.883594 
L 606.943453 113.883594 
" style="fill: none; stroke: #808989; stroke-width: 1.5; stroke-linecap: square"/>
     <g>
      <use xlink:href="#m6328ef4f4f" x="595.943453" y="113.883594" style="fill: #808989; stroke: #808989"/>
     </g>
    </g>
    <g id="text_19">
     <!-- La Vergne -->
     <g style="fill: #00263e" transform="translate(615.743453 117.733594) scale(0.11 -0.11)">
      <defs>
       <path id="Calibri-4c" d="M 2634 234 
Q 2634 172 2628 130 
Q 2622 88 2608 58 
Q 2594 28 2573 14 
Q 2553 0 2525 0 
L 738 0 
Q 666 0 602 48 
Q 538 97 538 219 
L 538 3963 
Q 538 3988 550 4006 
Q 563 4025 594 4036 
Q 625 4047 678 4055 
Q 731 4063 806 4063 
Q 884 4063 936 4055 
Q 988 4047 1019 4036 
Q 1050 4025 1062 4006 
Q 1075 3988 1075 3963 
L 1075 466 
L 2525 466 
Q 2553 466 2573 452 
Q 2594 438 2608 411 
Q 2622 384 2628 340 
Q 2634 297 2634 234 
z
" transform="scale(0.015625)"/>
       <path id="Calibri-56" d="M 2172 94 
Q 2159 59 2137 37 
Q 2116 16 2077 3 
Q 2038 -9 1977 -14 
Q 1916 -19 1825 -19 
Q 1756 -19 1704 -17 
Q 1653 -16 1615 -9 
Q 1578 -3 1551 5 
Q 1525 13 1506 25 
Q 1488 38 1477 55 
Q 1466 72 1456 97 
L 134 3853 
Q 109 3922 107 3964 
Q 106 4006 134 4028 
Q 163 4050 225 4056 
Q 288 4063 394 4063 
Q 481 4063 532 4058 
Q 584 4053 612 4040 
Q 641 4028 655 4008 
Q 669 3988 681 3956 
L 1841 553 
L 1844 553 
L 2972 3950 
Q 2981 3984 2993 4006 
Q 3006 4028 3037 4040 
Q 3069 4053 3125 4058 
Q 3181 4063 3275 4063 
Q 3372 4063 3428 4055 
Q 3484 4047 3504 4025 
Q 3525 4003 3520 3961 
Q 3516 3919 3491 3850 
L 2172 94 
z
" transform="scale(0.015625)"/>
      </defs>
      <use xlink:href="#Calibri-4c"/>
      <use xlink:href="#Calibri-61" x="42.041016"/>
      <use xlink:href="#Calibri-20" x="89.941406"/>
      <use xlink:href="#Calibri-56" x="112.548828"/>
      <use xlink:href="#Calibri-65" x="169.287109"/>
      <use xlink:href="#Calibri-72" x="219.042969"/>
      <use xlink:href="#Calibri-67" x="253.90625"/>
      <use xlink:href="#Calibri-6e" x="300.976562"/>
      <use xlink:href="#Calibri-65" x="353.515625"/>
     </g>
    </g>
    <g id="line2d_25">
     <path d="M 584.943453 129.044688 
L 595.943453 129.044688 
L 606.943453 129.044688 
" style="fill: none; stroke: #0c2428; stroke-width: 1.5; stroke-linecap: square"/>
     <g>
      <use xlink:href="#m5d1a2995a3" x="595.943453" y="129.044688" style="fill: #0c2428; stroke: #0c2428"/>
     </g>
    </g>
    <g id="text_20">
     <!-- Murfreesboro -->
     <g style="fill: #00263e" transform="translate(615.743453 132.894688) scale(0.11 -0.11)">
      <defs>
       <path id="Calibri-4d" d="M 4934 81 
Q 4934 56 4921 37 
Q 4909 19 4878 8 
Q 4847 -3 4798 -11 
Q 4750 -19 4672 -19 
Q 4600 -19 4548 -11 
Q 4497 -3 4467 8 
Q 4438 19 4425 37 
Q 4413 56 4413 81 
L 4413 3603 
L 4406 3603 
L 2966 66 
Q 2956 44 2939 28 
Q 2922 13 2889 2 
Q 2856 -9 2811 -14 
Q 2766 -19 2703 -19 
Q 2638 -19 2591 -12 
Q 2544 -6 2512 5 
Q 2481 16 2464 31 
Q 2447 47 2441 66 
L 1063 3603 
L 1059 3603 
L 1059 81 
Q 1059 56 1046 37 
Q 1034 19 1003 8 
Q 972 -3 922 -11 
Q 872 -19 794 -19 
Q 719 -19 669 -11 
Q 619 -3 589 8 
Q 559 19 548 37 
Q 538 56 538 81 
L 538 3800 
Q 538 3931 606 3987 
Q 675 4044 759 4044 
L 1084 4044 
Q 1184 4044 1259 4025 
Q 1334 4006 1390 3965 
Q 1447 3925 1484 3862 
Q 1522 3800 1550 3716 
L 2722 788 
L 2738 788 
L 3956 3706 
Q 3991 3800 4031 3865 
Q 4072 3931 4120 3970 
Q 4169 4009 4228 4026 
Q 4288 4044 4366 4044 
L 4706 4044 
Q 4753 4044 4795 4030 
Q 4838 4016 4867 3986 
Q 4897 3956 4915 3911 
Q 4934 3866 4934 3800 
L 4934 81 
z
" transform="scale(0.015625)"/>
       <path id="Calibri-62" d="M 3066 1522 
Q 3066 1156 2986 864 
Q 2906 572 2751 365 
Q 2597 159 2372 50 
Q 2147 -59 1856 -59 
Q 1722 -59 1608 -32 
Q 1494 -6 1384 53 
Q 1275 113 1165 203 
Q 1056 294 934 422 
L 934 78 
Q 934 53 921 34 
Q 909 16 881 5 
Q 853 -6 811 -12 
Q 769 -19 703 -19 
Q 641 -19 597 -12 
Q 553 -6 525 5 
Q 497 16 487 34 
Q 478 53 478 78 
L 478 4253 
Q 478 4278 489 4297 
Q 500 4316 529 4328 
Q 559 4341 609 4347 
Q 659 4353 734 4353 
Q 813 4353 863 4347 
Q 913 4341 941 4328 
Q 969 4316 981 4297 
Q 994 4278 994 4253 
L 994 2569 
Q 1119 2697 1236 2784 
Q 1353 2872 1465 2926 
Q 1578 2981 1690 3006 
Q 1803 3031 1928 3031 
Q 2234 3031 2451 2909 
Q 2669 2788 2805 2583 
Q 2941 2378 3003 2103 
Q 3066 1828 3066 1522 
z
M 2522 1463 
Q 2522 1678 2489 1881 
Q 2456 2084 2375 2240 
Q 2294 2397 2159 2492 
Q 2025 2588 1825 2588 
Q 1725 2588 1628 2559 
Q 1531 2531 1431 2465 
Q 1331 2400 1223 2297 
Q 1116 2194 994 2038 
L 994 916 
Q 1206 656 1400 520 
Q 1594 384 1803 384 
Q 1997 384 2134 478 
Q 2272 572 2358 726 
Q 2444 881 2483 1073 
Q 2522 1266 2522 1463 
z
" transform="scale(0.015625)"/>
      </defs>
      <use xlink:href="#Calibri-4d"/>
      <use xlink:href="#Calibri-75" x="85.498047"/>
      <use xlink:href="#Calibri-72" x="138.037109"/>
      <use xlink:href="#Calibri-66" x="172.900391"/>
      <use xlink:href="#Calibri-72" x="203.417969"/>
      <use xlink:href="#Calibri-65" x="238.28125"/>
      <use xlink:href="#Calibri-65" x="288.037109"/>
      <use xlink:href="#Calibri-73" x="337.792969"/>
      <use xlink:href="#Calibri-62" x="376.904297"/>
      <use xlink:href="#Calibri-6f" x="429.443359"/>
      <use xlink:href="#Calibri-72" x="482.177734"/>
      <use xlink:href="#Calibri-6f" x="517.041016"/>
     </g>
    </g>
    <g id="line2d_26">
     <path d="M 584.943453 144.200625 
L 595.943453 144.200625 
L 606.943453 144.200625 
" style="fill: none; stroke: #414543; stroke-width: 1.5; stroke-linecap: square"/>
     <g>
      <use xlink:href="#m2bad15a9a6" x="595.943453" y="144.200625" style="fill: #414543; stroke: #414543"/>
     </g>
    </g>
    <g id="text_21">
     <!-- Nolensville -->
     <g style="fill: #00263e" transform="translate(615.743453 148.050625) scale(0.11 -0.11)">
      <use xlink:href="#Calibri-4e"/>
      <use xlink:href="#Calibri-6f" x="64.550781"/>
      <use xlink:href="#Calibri-6c" x="117.285156"/>
      <use xlink:href="#Calibri-65" x="140.234375"/>
      <use xlink:href="#Calibri-6e" x="189.990234"/>
      <use xlink:href="#Calibri-73" x="242.529297"/>
      <use xlink:href="#Calibri-76" x="281.640625"/>
      <use xlink:href="#Calibri-69" x="326.806641"/>
      <use xlink:href="#Calibri-6c" x="349.755859"/>
      <use xlink:href="#Calibri-6c" x="372.705078"/>
      <use xlink:href="#Calibri-65" x="395.654297"/>
     </g>
    </g>
    <g id="line2d_27">
     <path d="M 584.943453 159.356562 
L 595.943453 159.356562 
L 606.943453 159.356562 
" style="fill: none; stroke: #a9d6bd; stroke-width: 1.5; stroke-linecap: square"/>
     <g>
      <use xlink:href="#m263a4d6a85" x="595.943453" y="159.356562" style="fill: #a9d6bd; stroke: #a9d6bd"/>
     </g>
    </g>
    <g id="text_22">
     <!-- Smyrna -->
     <g style="fill: #00263e" transform="translate(615.743453 163.206562) scale(0.11 -0.11)">
      <use xlink:href="#Calibri-53"/>
      <use xlink:href="#Calibri-6d" x="45.947266"/>
      <use xlink:href="#Calibri-79" x="125.830078"/>
      <use xlink:href="#Calibri-72" x="171.09375"/>
      <use xlink:href="#Calibri-6e" x="205.957031"/>
      <use xlink:href="#Calibri-61" x="258.496094"/>
     </g>
    </g>
   </g>
  </g>
 </g>
 <defs>
  <clipPath id="p3363408bf3">
   <rect x="60.152188" y="39.504687" width="520.092188" height="258.56"/>
  </clipPath>
 </defs>
</svg>
