<?xml version="1.0" encoding="utf-8" standalone="no"?>
<!DOCTYPE svg PUBLIC "-//W3C//DTD SVG 1.1//EN"
  "http://www.w3.org/Graphics/SVG/1.1/DTD/svg11.dtd">
<svg xmlns:xlink="http://www.w3.org/1999/xlink" width="711.33732pt" height="350.64pt" viewBox="0 0 711.33732 350.64" xmlns="http://www.w3.org/2000/svg" version="1.1">
 <metadata>
  <rdf:RDF xmlns:dc="http://purl.org/dc/elements/1.1/" xmlns:cc="http://creativecommons.org/ns#" xmlns:rdf="http://www.w3.org/1999/02/22-rdf-syntax-ns#">
   <cc:Work>
    <dc:type rdf:resource="http://purl.org/dc/dcmitype/StillImage"/>
    <dc:date>2023-05-19T11:42:48.675673</dc:date>
    <dc:format>image/svg+xml</dc:format>
    <dc:creator>
     <cc:Agent>
      <dc:title>Matplotlib v3.7.0, https://matplotlib.org/</dc:title>
     </cc:Agent>
    </dc:creator>
   </cc:Work>
  </rdf:RDF>
 </metadata>
 <defs>
  <style type="text/css">*{stroke-linejoin: round; stroke-linecap: butt}</style>
 </defs>
 <g id="figure_1">
  <g id="patch_1">
   <path d="M 0 350.64 
L 711.33732 350.64 
L 711.33732 0 
L 0 0 
L 0 350.64 
z
" style="fill: none"/>
  </g>
  <g id="axes_1">
   <g id="patch_2">
    <path d="M 65.727812 213.944272 
L 609.781406 213.944272 
L 609.781406 39.504687 
L 65.727812 39.504687 
L 65.727812 213.944272 
z
" style="fill: none"/>
   </g>
   <g id="matplotlib.axis_1">
    <g id="xtick_1">
     <g id="line2d_1">
      <defs>
       <path id="m1659735d8f" d="M 0 0 
L 0 8 
" style="stroke: #7b7e85; stroke-width: 0.8"/>
      </defs>
      <g>
       <use xlink:href="#m1659735d8f" x="115.465092" y="213.944272" style="fill: #7b7e85; stroke: #7b7e85; stroke-width: 0.8"/>
      </g>
     </g>
     <g id="text_1">
      <!-- Rutherford Unincorporated -->
      <g style="fill: #7b7e85" transform="translate(74.003168 317.619287) rotate(-45) scale(0.11 -0.11)">
       <defs>
        <path id="Calibri-52" d="M 3234 81 
Q 3234 56 3225 37 
Q 3216 19 3184 6 
Q 3153 -6 3097 -12 
Q 3041 -19 2947 -19 
Q 2866 -19 2814 -12 
Q 2763 -6 2731 8 
Q 2700 22 2683 47 
Q 2666 72 2653 109 
L 2281 1063 
Q 2216 1225 2145 1361 
Q 2075 1497 1978 1595 
Q 1881 1694 1750 1748 
Q 1619 1803 1434 1803 
L 1075 1803 
L 1075 81 
Q 1075 56 1061 37 
Q 1047 19 1017 8 
Q 988 -3 936 -11 
Q 884 -19 806 -19 
Q 728 -19 676 -11 
Q 625 -3 594 8 
Q 563 19 550 37 
Q 538 56 538 81 
L 538 3825 
Q 538 3947 602 3995 
Q 666 4044 738 4044 
L 1597 4044 
Q 1750 4044 1851 4036 
Q 1953 4028 2034 4019 
Q 2269 3978 2448 3890 
Q 2628 3803 2750 3668 
Q 2872 3534 2933 3361 
Q 2994 3188 2994 2978 
Q 2994 2775 2939 2614 
Q 2884 2453 2781 2329 
Q 2678 2206 2534 2115 
Q 2391 2025 2213 1963 
Q 2313 1919 2394 1851 
Q 2475 1784 2545 1690 
Q 2616 1597 2678 1475 
Q 2741 1353 2803 1200 
L 3166 309 
Q 3209 197 3221 151 
Q 3234 106 3234 81 
z
M 2425 2922 
Q 2425 3159 2319 3323 
Q 2213 3488 1963 3559 
Q 1884 3581 1786 3590 
Q 1688 3600 1528 3600 
L 1075 3600 
L 1075 2238 
L 1600 2238 
Q 1813 2238 1967 2289 
Q 2122 2341 2225 2433 
Q 2328 2525 2376 2650 
Q 2425 2775 2425 2922 
z
" transform="scale(0.015625)"/>
        <path id="Calibri-75" d="M 2888 78 
Q 2888 53 2877 36 
Q 2866 19 2837 6 
Q 2809 -6 2764 -12 
Q 2719 -19 2653 -19 
Q 2581 -19 2536 -12 
Q 2491 -6 2464 6 
Q 2438 19 2428 36 
Q 2419 53 2419 78 
L 2419 450 
Q 2178 184 1943 62 
Q 1709 -59 1469 -59 
Q 1188 -59 995 34 
Q 803 128 684 289 
Q 566 450 514 664 
Q 463 878 463 1184 
L 463 2891 
Q 463 2916 473 2933 
Q 484 2950 515 2964 
Q 547 2978 597 2983 
Q 647 2988 722 2988 
Q 797 2988 847 2983 
Q 897 2978 926 2964 
Q 956 2950 968 2933 
Q 981 2916 981 2891 
L 981 1253 
Q 981 1006 1017 857 
Q 1053 709 1126 604 
Q 1200 500 1312 442 
Q 1425 384 1575 384 
Q 1769 384 1961 521 
Q 2153 659 2369 925 
L 2369 2891 
Q 2369 2916 2380 2933 
Q 2391 2950 2422 2964 
Q 2453 2978 2501 2983 
Q 2550 2988 2628 2988 
Q 2703 2988 2753 2983 
Q 2803 2978 2831 2964 
Q 2859 2950 2873 2933 
Q 2888 2916 2888 2891 
L 2888 78 
z
" transform="scale(0.015625)"/>
        <path id="Calibri-74" d="M 1941 284 
Q 1941 194 1928 141 
Q 1916 88 1891 63 
Q 1866 38 1816 16 
Q 1766 -6 1702 -20 
Q 1638 -34 1566 -43 
Q 1494 -53 1422 -53 
Q 1203 -53 1047 5 
Q 891 63 791 180 
Q 691 297 645 476 
Q 600 656 600 900 
L 600 2544 
L 206 2544 
Q 159 2544 131 2594 
Q 103 2644 103 2756 
Q 103 2816 111 2856 
Q 119 2897 131 2923 
Q 144 2950 164 2961 
Q 184 2972 209 2972 
L 600 2972 
L 600 3641 
Q 600 3663 611 3681 
Q 622 3700 651 3714 
Q 681 3728 731 3734 
Q 781 3741 856 3741 
Q 934 3741 984 3734 
Q 1034 3728 1062 3714 
Q 1091 3700 1103 3681 
Q 1116 3663 1116 3641 
L 1116 2972 
L 1838 2972 
Q 1863 2972 1881 2961 
Q 1900 2950 1914 2923 
Q 1928 2897 1934 2856 
Q 1941 2816 1941 2756 
Q 1941 2644 1912 2594 
Q 1884 2544 1838 2544 
L 1116 2544 
L 1116 975 
Q 1116 684 1202 536 
Q 1288 388 1509 388 
Q 1581 388 1637 402 
Q 1694 416 1737 431 
Q 1781 447 1812 461 
Q 1844 475 1869 475 
Q 1884 475 1898 467 
Q 1913 459 1920 437 
Q 1928 416 1934 378 
Q 1941 341 1941 284 
z
" transform="scale(0.015625)"/>
        <path id="Calibri-68" d="M 2900 78 
Q 2900 53 2887 36 
Q 2875 19 2847 6 
Q 2819 -6 2769 -12 
Q 2719 -19 2644 -19 
Q 2566 -19 2516 -12 
Q 2466 -6 2437 6 
Q 2409 19 2396 36 
Q 2384 53 2384 78 
L 2384 1725 
Q 2384 1966 2346 2112 
Q 2309 2259 2237 2365 
Q 2166 2472 2052 2528 
Q 1938 2584 1788 2584 
Q 1594 2584 1400 2446 
Q 1206 2309 994 2044 
L 994 78 
Q 994 53 981 36 
Q 969 19 941 6 
Q 913 -6 863 -12 
Q 813 -19 734 -19 
Q 659 -19 609 -12 
Q 559 -6 529 6 
Q 500 19 489 36 
Q 478 53 478 78 
L 478 4253 
Q 478 4278 489 4297 
Q 500 4316 529 4328 
Q 559 4341 609 4347 
Q 659 4353 734 4353 
Q 813 4353 863 4347 
Q 913 4341 941 4328 
Q 969 4316 981 4297 
Q 994 4278 994 4253 
L 994 2569 
Q 1216 2803 1441 2917 
Q 1666 3031 1894 3031 
Q 2175 3031 2367 2936 
Q 2559 2841 2678 2681 
Q 2797 2522 2848 2308 
Q 2900 2094 2900 1791 
L 2900 78 
z
" transform="scale(0.015625)"/>
        <path id="Calibri-65" d="M 2878 1606 
Q 2878 1484 2817 1432 
Q 2756 1381 2678 1381 
L 834 1381 
Q 834 1147 881 959 
Q 928 772 1037 637 
Q 1147 503 1322 431 
Q 1497 359 1750 359 
Q 1950 359 2106 392 
Q 2263 425 2377 465 
Q 2491 506 2564 539 
Q 2638 572 2675 572 
Q 2697 572 2714 561 
Q 2731 550 2740 528 
Q 2750 506 2754 467 
Q 2759 428 2759 372 
Q 2759 331 2756 301 
Q 2753 272 2748 248 
Q 2744 225 2733 206 
Q 2722 188 2705 170 
Q 2688 153 2603 114 
Q 2519 75 2384 37 
Q 2250 0 2073 -29 
Q 1897 -59 1697 -59 
Q 1350 -59 1089 37 
Q 828 134 650 325 
Q 472 516 381 803 
Q 291 1091 291 1472 
Q 291 1834 384 2123 
Q 478 2413 654 2614 
Q 831 2816 1081 2923 
Q 1331 3031 1641 3031 
Q 1972 3031 2205 2925 
Q 2438 2819 2588 2639 
Q 2738 2459 2808 2217 
Q 2878 1975 2878 1700 
L 2878 1606 
z
M 2359 1759 
Q 2369 2166 2180 2397 
Q 1991 2628 1619 2628 
Q 1428 2628 1284 2556 
Q 1141 2484 1044 2365 
Q 947 2247 894 2089 
Q 841 1931 834 1759 
L 2359 1759 
z
" transform="scale(0.015625)"/>
        <path id="Calibri-72" d="M 2122 2706 
Q 2122 2638 2119 2591 
Q 2116 2544 2106 2517 
Q 2097 2491 2083 2477 
Q 2069 2463 2044 2463 
Q 2019 2463 1983 2477 
Q 1947 2491 1901 2505 
Q 1856 2519 1800 2531 
Q 1744 2544 1678 2544 
Q 1600 2544 1525 2512 
Q 1450 2481 1367 2409 
Q 1284 2338 1193 2219 
Q 1103 2100 994 1928 
L 994 78 
Q 994 53 981 36 
Q 969 19 941 6 
Q 913 -6 863 -12 
Q 813 -19 734 -19 
Q 659 -19 609 -12 
Q 559 -6 529 6 
Q 500 19 489 36 
Q 478 53 478 78 
L 478 2891 
Q 478 2916 487 2933 
Q 497 2950 525 2964 
Q 553 2978 597 2983 
Q 641 2988 713 2988 
Q 781 2988 826 2983 
Q 872 2978 897 2964 
Q 922 2950 933 2933 
Q 944 2916 944 2891 
L 944 2481 
Q 1059 2650 1161 2756 
Q 1263 2863 1353 2923 
Q 1444 2984 1533 3007 
Q 1622 3031 1713 3031 
Q 1753 3031 1804 3026 
Q 1856 3022 1912 3009 
Q 1969 2997 2014 2981 
Q 2059 2966 2078 2950 
Q 2097 2934 2103 2920 
Q 2109 2906 2114 2884 
Q 2119 2863 2120 2820 
Q 2122 2778 2122 2706 
z
" transform="scale(0.015625)"/>
        <path id="Calibri-66" d="M 2019 4047 
Q 2019 3988 2012 3952 
Q 2006 3916 1998 3894 
Q 1991 3872 1978 3864 
Q 1966 3856 1947 3856 
Q 1925 3856 1892 3870 
Q 1859 3884 1812 3901 
Q 1766 3919 1702 3933 
Q 1638 3947 1553 3947 
Q 1438 3947 1356 3909 
Q 1275 3872 1225 3792 
Q 1175 3713 1153 3586 
Q 1131 3459 1131 3278 
L 1131 2972 
L 1759 2972 
Q 1784 2972 1801 2961 
Q 1819 2950 1833 2923 
Q 1847 2897 1855 2856 
Q 1863 2816 1863 2756 
Q 1863 2644 1834 2594 
Q 1806 2544 1759 2544 
L 1131 2544 
L 1131 78 
Q 1131 53 1118 36 
Q 1106 19 1076 6 
Q 1047 -6 997 -12 
Q 947 -19 872 -19 
Q 797 -19 747 -12 
Q 697 -6 667 6 
Q 638 19 625 36 
Q 613 53 613 78 
L 613 2544 
L 216 2544 
Q 166 2544 141 2594 
Q 116 2644 116 2756 
Q 116 2816 122 2856 
Q 128 2897 140 2923 
Q 153 2950 172 2961 
Q 191 2972 216 2972 
L 613 2972 
L 613 3263 
Q 613 3556 667 3767 
Q 722 3978 834 4112 
Q 947 4247 1117 4311 
Q 1288 4375 1519 4375 
Q 1628 4375 1731 4354 
Q 1834 4334 1890 4311 
Q 1947 4288 1965 4269 
Q 1984 4250 1996 4220 
Q 2009 4191 2014 4148 
Q 2019 4106 2019 4047 
z
" transform="scale(0.015625)"/>
        <path id="Calibri-6f" d="M 3094 1516 
Q 3094 1172 3003 883 
Q 2913 594 2733 384 
Q 2553 175 2283 58 
Q 2013 -59 1656 -59 
Q 1309 -59 1051 44 
Q 794 147 622 344 
Q 450 541 365 822 
Q 281 1103 281 1459 
Q 281 1803 370 2092 
Q 459 2381 639 2590 
Q 819 2800 1087 2915 
Q 1356 3031 1716 3031 
Q 2063 3031 2320 2928 
Q 2578 2825 2750 2628 
Q 2922 2431 3008 2150 
Q 3094 1869 3094 1516 
z
M 2550 1481 
Q 2550 1709 2508 1912 
Q 2466 2116 2369 2269 
Q 2272 2422 2106 2511 
Q 1941 2600 1694 2600 
Q 1466 2600 1302 2519 
Q 1138 2438 1031 2289 
Q 925 2141 873 1937 
Q 822 1734 822 1494 
Q 822 1263 864 1059 
Q 906 856 1004 704 
Q 1103 553 1268 464 
Q 1434 375 1681 375 
Q 1906 375 2072 456 
Q 2238 538 2344 684 
Q 2450 831 2500 1034 
Q 2550 1238 2550 1481 
z
" transform="scale(0.015625)"/>
        <path id="Calibri-64" d="M 2888 78 
Q 2888 53 2877 34 
Q 2866 16 2839 5 
Q 2813 -6 2769 -12 
Q 2725 -19 2663 -19 
Q 2597 -19 2553 -12 
Q 2509 -6 2481 5 
Q 2453 16 2440 34 
Q 2428 53 2428 78 
L 2428 450 
Q 2206 209 1967 75 
Q 1728 -59 1444 -59 
Q 1134 -59 915 61 
Q 697 181 561 386 
Q 425 591 362 867 
Q 300 1144 300 1450 
Q 300 1813 378 2105 
Q 456 2397 609 2603 
Q 763 2809 989 2920 
Q 1216 3031 1513 3031 
Q 1759 3031 1964 2923 
Q 2169 2816 2369 2606 
L 2369 4241 
Q 2369 4263 2380 4283 
Q 2391 4303 2422 4314 
Q 2453 4325 2501 4333 
Q 2550 4341 2625 4341 
Q 2703 4341 2753 4333 
Q 2803 4325 2831 4314 
Q 2859 4303 2873 4283 
Q 2888 4263 2888 4241 
L 2888 78 
z
M 2369 2056 
Q 2159 2316 1964 2452 
Q 1769 2588 1556 2588 
Q 1359 2588 1221 2494 
Q 1084 2400 998 2247 
Q 913 2094 873 1900 
Q 834 1706 834 1506 
Q 834 1294 867 1091 
Q 900 888 981 730 
Q 1063 572 1197 476 
Q 1331 381 1534 381 
Q 1638 381 1733 409 
Q 1828 438 1928 503 
Q 2028 569 2137 673 
Q 2247 778 2369 931 
L 2369 2056 
z
" transform="scale(0.015625)"/>
        <path id="Calibri-20" transform="scale(0.015625)"/>
        <path id="Calibri-55" d="M 3578 1494 
Q 3578 1125 3470 836 
Q 3363 547 3163 347 
Q 2963 147 2675 44 
Q 2388 -59 2022 -59 
Q 1688 -59 1413 37 
Q 1138 134 941 323 
Q 744 513 637 797 
Q 531 1081 531 1453 
L 531 3963 
Q 531 3988 543 4006 
Q 556 4025 587 4036 
Q 619 4047 669 4055 
Q 719 4063 800 4063 
Q 875 4063 928 4055 
Q 981 4047 1011 4036 
Q 1041 4025 1053 4006 
Q 1066 3988 1066 3963 
L 1066 1519 
Q 1066 1238 1134 1028 
Q 1203 819 1333 680 
Q 1463 541 1645 470 
Q 1828 400 2056 400 
Q 2291 400 2473 469 
Q 2656 538 2782 675 
Q 2909 813 2976 1016 
Q 3044 1219 3044 1491 
L 3044 3963 
Q 3044 3988 3056 4006 
Q 3069 4025 3100 4036 
Q 3131 4047 3182 4055 
Q 3234 4063 3313 4063 
Q 3388 4063 3439 4055 
Q 3491 4047 3520 4036 
Q 3550 4025 3564 4006 
Q 3578 3988 3578 3963 
L 3578 1494 
z
" transform="scale(0.015625)"/>
        <path id="Calibri-6e" d="M 2900 78 
Q 2900 53 2887 36 
Q 2875 19 2847 6 
Q 2819 -6 2769 -12 
Q 2719 -19 2644 -19 
Q 2566 -19 2516 -12 
Q 2466 -6 2437 6 
Q 2409 19 2396 36 
Q 2384 53 2384 78 
L 2384 1725 
Q 2384 1966 2346 2112 
Q 2309 2259 2237 2365 
Q 2166 2472 2052 2528 
Q 1938 2584 1788 2584 
Q 1594 2584 1400 2446 
Q 1206 2309 994 2044 
L 994 78 
Q 994 53 981 36 
Q 969 19 941 6 
Q 913 -6 863 -12 
Q 813 -19 734 -19 
Q 659 -19 609 -12 
Q 559 -6 529 6 
Q 500 19 489 36 
Q 478 53 478 78 
L 478 2891 
Q 478 2916 487 2933 
Q 497 2950 525 2964 
Q 553 2978 597 2983 
Q 641 2988 713 2988 
Q 781 2988 826 2983 
Q 872 2978 897 2964 
Q 922 2950 933 2933 
Q 944 2916 944 2891 
L 944 2519 
Q 1181 2784 1417 2907 
Q 1653 3031 1894 3031 
Q 2175 3031 2367 2936 
Q 2559 2841 2678 2681 
Q 2797 2522 2848 2308 
Q 2900 2094 2900 1794 
L 2900 78 
z
" transform="scale(0.015625)"/>
        <path id="Calibri-69" d="M 994 78 
Q 994 53 981 36 
Q 969 19 941 6 
Q 913 -6 863 -12 
Q 813 -19 734 -19 
Q 659 -19 609 -12 
Q 559 -6 529 6 
Q 500 19 489 36 
Q 478 53 478 78 
L 478 2891 
Q 478 2913 489 2931 
Q 500 2950 529 2962 
Q 559 2975 609 2981 
Q 659 2988 734 2988 
Q 813 2988 863 2981 
Q 913 2975 941 2962 
Q 969 2950 981 2931 
Q 994 2913 994 2891 
L 994 78 
z
M 1053 3841 
Q 1053 3659 984 3593 
Q 916 3528 731 3528 
Q 550 3528 483 3592 
Q 416 3656 416 3834 
Q 416 4016 484 4081 
Q 553 4147 738 4147 
Q 919 4147 986 4083 
Q 1053 4019 1053 3841 
z
" transform="scale(0.015625)"/>
        <path id="Calibri-63" d="M 2500 506 
Q 2500 453 2497 414 
Q 2494 375 2486 348 
Q 2478 322 2467 301 
Q 2456 281 2417 242 
Q 2378 203 2284 145 
Q 2191 88 2073 42 
Q 1956 -3 1818 -31 
Q 1681 -59 1534 -59 
Q 1231 -59 997 41 
Q 763 141 605 333 
Q 447 525 364 804 
Q 281 1084 281 1450 
Q 281 1866 382 2164 
Q 484 2463 661 2653 
Q 838 2844 1077 2936 
Q 1316 3028 1594 3028 
Q 1728 3028 1854 3003 
Q 1981 2978 2087 2937 
Q 2194 2897 2276 2844 
Q 2359 2791 2396 2753 
Q 2434 2716 2448 2694 
Q 2463 2672 2472 2642 
Q 2481 2613 2484 2575 
Q 2488 2538 2488 2481 
Q 2488 2359 2459 2311 
Q 2431 2263 2391 2263 
Q 2344 2263 2283 2314 
Q 2222 2366 2128 2428 
Q 2034 2491 1901 2542 
Q 1769 2594 1588 2594 
Q 1216 2594 1017 2308 
Q 819 2022 819 1478 
Q 819 1206 870 1001 
Q 922 797 1022 659 
Q 1122 522 1267 455 
Q 1413 388 1600 388 
Q 1778 388 1912 444 
Q 2047 500 2145 567 
Q 2244 634 2311 689 
Q 2378 744 2416 744 
Q 2438 744 2453 731 
Q 2469 719 2480 689 
Q 2491 659 2495 614 
Q 2500 569 2500 506 
z
" transform="scale(0.015625)"/>
        <path id="Calibri-70" d="M 3066 1528 
Q 3066 1159 2986 865 
Q 2906 572 2751 367 
Q 2597 163 2369 52 
Q 2141 -59 1847 -59 
Q 1722 -59 1615 -34 
Q 1509 -9 1407 44 
Q 1306 97 1206 178 
Q 1106 259 994 369 
L 994 -1038 
Q 994 -1063 981 -1081 
Q 969 -1100 941 -1112 
Q 913 -1125 863 -1131 
Q 813 -1138 734 -1138 
Q 659 -1138 609 -1131 
Q 559 -1125 529 -1112 
Q 500 -1100 489 -1081 
Q 478 -1063 478 -1038 
L 478 2891 
Q 478 2919 487 2936 
Q 497 2953 525 2965 
Q 553 2978 597 2983 
Q 641 2988 703 2988 
Q 769 2988 811 2983 
Q 853 2978 881 2965 
Q 909 2953 920 2936 
Q 931 2919 931 2891 
L 931 2513 
Q 1059 2644 1178 2741 
Q 1297 2838 1417 2902 
Q 1538 2966 1664 2998 
Q 1791 3031 1931 3031 
Q 2238 3031 2453 2912 
Q 2669 2794 2805 2587 
Q 2941 2381 3003 2107 
Q 3066 1834 3066 1528 
z
M 2522 1469 
Q 2522 1684 2489 1886 
Q 2456 2088 2376 2244 
Q 2297 2400 2162 2494 
Q 2028 2588 1828 2588 
Q 1728 2588 1631 2558 
Q 1534 2528 1434 2464 
Q 1334 2400 1225 2295 
Q 1116 2191 994 2038 
L 994 919 
Q 1206 659 1397 521 
Q 1588 384 1797 384 
Q 1991 384 2130 478 
Q 2269 572 2355 728 
Q 2441 884 2481 1078 
Q 2522 1272 2522 1469 
z
" transform="scale(0.015625)"/>
        <path id="Calibri-61" d="M 2597 75 
Q 2597 38 2572 19 
Q 2547 0 2503 -9 
Q 2459 -19 2375 -19 
Q 2294 -19 2245 -9 
Q 2197 0 2175 19 
Q 2153 38 2153 75 
L 2153 356 
Q 1969 159 1742 50 
Q 1516 -59 1263 -59 
Q 1041 -59 861 -1 
Q 681 56 554 165 
Q 428 275 358 434 
Q 288 594 288 797 
Q 288 1034 384 1209 
Q 481 1384 662 1500 
Q 844 1616 1106 1673 
Q 1369 1731 1697 1731 
L 2084 1731 
L 2084 1950 
Q 2084 2113 2050 2238 
Q 2016 2363 1939 2445 
Q 1863 2528 1741 2570 
Q 1619 2613 1441 2613 
Q 1250 2613 1098 2567 
Q 947 2522 833 2467 
Q 719 2413 642 2367 
Q 566 2322 528 2322 
Q 503 2322 484 2334 
Q 466 2347 452 2372 
Q 438 2397 431 2436 
Q 425 2475 425 2522 
Q 425 2600 436 2645 
Q 447 2691 489 2731 
Q 531 2772 634 2826 
Q 738 2881 872 2926 
Q 1006 2972 1165 3001 
Q 1325 3031 1488 3031 
Q 1791 3031 2003 2962 
Q 2216 2894 2347 2761 
Q 2478 2628 2537 2431 
Q 2597 2234 2597 1972 
L 2597 75 
z
M 2084 1359 
L 1644 1359 
Q 1431 1359 1275 1323 
Q 1119 1288 1016 1217 
Q 913 1147 864 1048 
Q 816 950 816 822 
Q 816 603 955 473 
Q 1094 344 1344 344 
Q 1547 344 1720 447 
Q 1894 550 2084 763 
L 2084 1359 
z
" transform="scale(0.015625)"/>
       </defs>
       <use xlink:href="#Calibri-52"/>
       <use xlink:href="#Calibri-75" x="54.296875"/>
       <use xlink:href="#Calibri-74" x="106.835938"/>
       <use xlink:href="#Calibri-68" x="140.332031"/>
       <use xlink:href="#Calibri-65" x="192.871094"/>
       <use xlink:href="#Calibri-72" x="242.626953"/>
       <use xlink:href="#Calibri-66" x="277.490234"/>
       <use xlink:href="#Calibri-6f" x="308.007812"/>
       <use xlink:href="#Calibri-72" x="360.742188"/>
       <use xlink:href="#Calibri-64" x="395.605469"/>
       <use xlink:href="#Calibri-20" x="448.144531"/>
       <use xlink:href="#Calibri-55" x="470.751953"/>
       <use xlink:href="#Calibri-6e" x="534.912109"/>
       <use xlink:href="#Calibri-69" x="587.451172"/>
       <use xlink:href="#Calibri-6e" x="610.400391"/>
       <use xlink:href="#Calibri-63" x="662.939453"/>
       <use xlink:href="#Calibri-6f" x="705.224609"/>
       <use xlink:href="#Calibri-72" x="757.958984"/>
       <use xlink:href="#Calibri-70" x="792.822266"/>
       <use xlink:href="#Calibri-6f" x="845.361328"/>
       <use xlink:href="#Calibri-72" x="898.095703"/>
       <use xlink:href="#Calibri-61" x="932.958984"/>
       <use xlink:href="#Calibri-74" x="980.859375"/>
       <use xlink:href="#Calibri-65" x="1014.355469"/>
       <use xlink:href="#Calibri-64" x="1064.111328"/>
      </g>
     </g>
    </g>
    <g id="xtick_2">
     <g id="line2d_2">
      <g>
       <use xlink:href="#m1659735d8f" x="171.037471" y="213.944272" style="fill: #7b7e85; stroke: #7b7e85; stroke-width: 0.8"/>
      </g>
     </g>
     <g id="text_2">
      <!-- Rutherford County -->
      <g style="fill: #7b7e85" transform="translate(143.420698 289.928986) rotate(-45) scale(0.11 -0.11)">
       <defs>
        <path id="Calibri-43" d="M 3238 572 
Q 3238 522 3234 484 
Q 3231 447 3223 419 
Q 3216 391 3203 369 
Q 3191 347 3159 315 
Q 3128 284 3028 220 
Q 2928 156 2779 95 
Q 2631 34 2439 -8 
Q 2247 -50 2019 -50 
Q 1625 -50 1308 81 
Q 991 213 767 469 
Q 544 725 423 1101 
Q 303 1478 303 1969 
Q 303 2472 433 2865 
Q 563 3259 797 3532 
Q 1031 3806 1357 3950 
Q 1684 4094 2081 4094 
Q 2256 4094 2422 4061 
Q 2588 4028 2728 3978 
Q 2869 3928 2978 3862 
Q 3088 3797 3130 3755 
Q 3172 3713 3184 3691 
Q 3197 3669 3205 3639 
Q 3213 3609 3217 3568 
Q 3222 3528 3222 3472 
Q 3222 3409 3215 3365 
Q 3209 3322 3196 3292 
Q 3184 3263 3167 3248 
Q 3150 3234 3125 3234 
Q 3081 3234 3003 3295 
Q 2925 3356 2801 3429 
Q 2678 3503 2501 3564 
Q 2325 3625 2078 3625 
Q 1809 3625 1589 3517 
Q 1369 3409 1212 3200 
Q 1056 2991 970 2689 
Q 884 2388 884 2000 
Q 884 1616 967 1320 
Q 1050 1025 1204 826 
Q 1359 628 1584 526 
Q 1809 425 2094 425 
Q 2334 425 2514 484 
Q 2694 544 2820 617 
Q 2947 691 3028 750 
Q 3109 809 3156 809 
Q 3178 809 3193 800 
Q 3209 791 3218 764 
Q 3228 738 3233 691 
Q 3238 644 3238 572 
z
" transform="scale(0.015625)"/>
        <path id="Calibri-79" d="M 1759 0 
L 1384 -1034 
Q 1366 -1084 1289 -1111 
Q 1213 -1138 1056 -1138 
Q 975 -1138 925 -1130 
Q 875 -1122 848 -1103 
Q 822 -1084 819 -1053 
Q 816 -1022 834 -978 
L 1222 0 
Q 1194 13 1169 41 
Q 1144 69 1134 100 
L 131 2788 
Q 106 2853 106 2890 
Q 106 2928 131 2950 
Q 156 2972 212 2980 
Q 269 2988 363 2988 
Q 456 2988 509 2983 
Q 563 2978 594 2965 
Q 625 2953 639 2929 
Q 653 2906 669 2866 
L 1472 609 
L 1481 609 
L 2256 2878 
Q 2275 2938 2301 2955 
Q 2328 2972 2381 2980 
Q 2434 2988 2534 2988 
Q 2622 2988 2678 2980 
Q 2734 2972 2761 2950 
Q 2788 2928 2788 2890 
Q 2788 2853 2769 2797 
L 1759 0 
z
" transform="scale(0.015625)"/>
       </defs>
       <use xlink:href="#Calibri-52"/>
       <use xlink:href="#Calibri-75" x="54.296875"/>
       <use xlink:href="#Calibri-74" x="106.835938"/>
       <use xlink:href="#Calibri-68" x="140.332031"/>
       <use xlink:href="#Calibri-65" x="192.871094"/>
       <use xlink:href="#Calibri-72" x="242.626953"/>
       <use xlink:href="#Calibri-66" x="277.490234"/>
       <use xlink:href="#Calibri-6f" x="308.007812"/>
       <use xlink:href="#Calibri-72" x="360.742188"/>
       <use xlink:href="#Calibri-64" x="395.605469"/>
       <use xlink:href="#Calibri-20" x="448.144531"/>
       <use xlink:href="#Calibri-43" x="470.751953"/>
       <use xlink:href="#Calibri-6f" x="524.072266"/>
       <use xlink:href="#Calibri-75" x="576.806641"/>
       <use xlink:href="#Calibri-6e" x="629.345703"/>
       <use xlink:href="#Calibri-74" x="681.884766"/>
       <use xlink:href="#Calibri-79" x="715.380859"/>
      </g>
     </g>
    </g>
    <g id="xtick_3">
     <g id="line2d_3">
      <g>
       <use xlink:href="#m1659735d8f" x="226.609851" y="213.944272" style="fill: #7b7e85; stroke: #7b7e85; stroke-width: 0.8"/>
      </g>
     </g>
     <g id="text_3">
      <!-- Tennessee -->
      <g style="fill: #7b7e85" transform="translate(211.79972 264.262225) rotate(-45) scale(0.11 -0.11)">
       <defs>
        <path id="Calibri-54" d="M 3072 3813 
Q 3072 3753 3065 3709 
Q 3059 3666 3045 3639 
Q 3031 3613 3011 3600 
Q 2991 3588 2966 3588 
L 1828 3588 
L 1828 81 
Q 1828 56 1815 37 
Q 1803 19 1772 8 
Q 1741 -3 1689 -11 
Q 1638 -19 1559 -19 
Q 1484 -19 1431 -11 
Q 1378 -3 1347 8 
Q 1316 19 1303 37 
Q 1291 56 1291 81 
L 1291 3588 
L 153 3588 
Q 128 3588 108 3600 
Q 88 3613 75 3639 
Q 63 3666 55 3709 
Q 47 3753 47 3813 
Q 47 3872 55 3917 
Q 63 3963 75 3991 
Q 88 4019 108 4031 
Q 128 4044 153 4044 
L 2966 4044 
Q 2991 4044 3011 4031 
Q 3031 4019 3045 3991 
Q 3059 3963 3065 3917 
Q 3072 3872 3072 3813 
z
" transform="scale(0.015625)"/>
        <path id="Calibri-73" d="M 2244 844 
Q 2244 628 2164 459 
Q 2084 291 1937 175 
Q 1791 59 1587 0 
Q 1384 -59 1141 -59 
Q 991 -59 855 -36 
Q 719 -13 611 23 
Q 503 59 428 98 
Q 353 138 318 169 
Q 284 200 268 256 
Q 253 313 253 409 
Q 253 469 259 509 
Q 266 550 275 575 
Q 284 600 301 611 
Q 319 622 341 622 
Q 375 622 442 580 
Q 509 538 607 488 
Q 706 438 840 395 
Q 975 353 1150 353 
Q 1281 353 1387 381 
Q 1494 409 1572 464 
Q 1650 519 1692 603 
Q 1734 688 1734 803 
Q 1734 922 1673 1003 
Q 1613 1084 1513 1146 
Q 1413 1209 1288 1257 
Q 1163 1306 1030 1359 
Q 897 1413 770 1480 
Q 644 1547 544 1644 
Q 444 1741 383 1875 
Q 322 2009 322 2197 
Q 322 2363 386 2514 
Q 450 2666 578 2780 
Q 706 2894 898 2962 
Q 1091 3031 1347 3031 
Q 1459 3031 1571 3012 
Q 1684 2994 1775 2966 
Q 1866 2938 1930 2905 
Q 1994 2872 2026 2847 
Q 2059 2822 2070 2803 
Q 2081 2784 2086 2761 
Q 2091 2738 2095 2703 
Q 2100 2669 2100 2619 
Q 2100 2566 2095 2527 
Q 2091 2488 2080 2463 
Q 2069 2438 2053 2427 
Q 2038 2416 2019 2416 
Q 1991 2416 1937 2450 
Q 1884 2484 1800 2523 
Q 1716 2563 1602 2597 
Q 1488 2631 1341 2631 
Q 1209 2631 1109 2601 
Q 1009 2572 945 2517 
Q 881 2463 848 2388 
Q 816 2313 816 2225 
Q 816 2103 878 2020 
Q 941 1938 1041 1875 
Q 1141 1813 1269 1763 
Q 1397 1713 1530 1659 
Q 1663 1606 1792 1540 
Q 1922 1475 2022 1381 
Q 2122 1288 2183 1156 
Q 2244 1025 2244 844 
z
" transform="scale(0.015625)"/>
       </defs>
       <use xlink:href="#Calibri-54"/>
       <use xlink:href="#Calibri-65" x="48.730469"/>
       <use xlink:href="#Calibri-6e" x="98.486328"/>
       <use xlink:href="#Calibri-6e" x="151.025391"/>
       <use xlink:href="#Calibri-65" x="203.564453"/>
       <use xlink:href="#Calibri-73" x="253.320312"/>
       <use xlink:href="#Calibri-73" x="292.431641"/>
       <use xlink:href="#Calibri-65" x="331.542969"/>
       <use xlink:href="#Calibri-65" x="381.298828"/>
      </g>
     </g>
    </g>
    <g id="xtick_4">
     <g id="line2d_4">
      <g>
       <use xlink:href="#m1659735d8f" x="282.18223" y="213.944272" style="fill: #7b7e85; stroke: #7b7e85; stroke-width: 0.8"/>
      </g>
     </g>
     <g id="text_4">
      <!-- GNRC -->
      <g style="fill: #7b7e85" transform="translate(274.986203 249.034017) rotate(-45) scale(0.11 -0.11)">
       <defs>
        <path id="Calibri-47" d="M 3575 3494 
Q 3575 3434 3569 3389 
Q 3563 3344 3550 3314 
Q 3538 3284 3519 3271 
Q 3500 3259 3478 3259 
Q 3441 3259 3353 3318 
Q 3266 3378 3119 3450 
Q 2972 3522 2767 3581 
Q 2563 3641 2281 3641 
Q 1947 3641 1681 3519 
Q 1416 3397 1231 3181 
Q 1047 2966 948 2669 
Q 850 2372 850 2025 
Q 850 1638 958 1338 
Q 1066 1038 1256 831 
Q 1447 625 1711 519 
Q 1975 413 2291 413 
Q 2478 413 2670 458 
Q 2863 503 3028 594 
L 3028 1772 
L 2091 1772 
Q 2038 1772 2011 1825 
Q 1984 1878 1984 1991 
Q 1984 2050 1990 2092 
Q 1997 2134 2011 2161 
Q 2025 2188 2044 2200 
Q 2063 2213 2091 2213 
L 3375 2213 
Q 3409 2213 3443 2200 
Q 3478 2188 3506 2163 
Q 3534 2138 3550 2094 
Q 3566 2050 3566 1994 
L 3566 453 
Q 3566 372 3537 312 
Q 3509 253 3418 208 
Q 3328 163 3184 109 
Q 3041 56 2887 18 
Q 2734 -19 2578 -37 
Q 2422 -56 2269 -56 
Q 1800 -56 1431 89 
Q 1063 234 808 503 
Q 553 772 418 1147 
Q 284 1522 284 1984 
Q 284 2466 429 2856 
Q 575 3247 839 3522 
Q 1103 3797 1473 3948 
Q 1844 4100 2294 4100 
Q 2525 4100 2728 4059 
Q 2931 4019 3089 3964 
Q 3247 3909 3355 3845 
Q 3463 3781 3503 3740 
Q 3544 3700 3559 3647 
Q 3575 3594 3575 3494 
z
" transform="scale(0.015625)"/>
        <path id="Calibri-4e" d="M 3594 222 
Q 3594 159 3573 115 
Q 3553 72 3520 44 
Q 3488 16 3447 3 
Q 3406 -9 3366 -9 
L 3194 -9 
Q 3113 -9 3052 8 
Q 2991 25 2936 70 
Q 2881 116 2826 194 
Q 2772 272 2706 394 
L 1431 2694 
Q 1331 2872 1229 3067 
Q 1128 3263 1041 3447 
L 1034 3447 
Q 1041 3222 1044 2987 
Q 1047 2753 1047 2522 
L 1047 81 
Q 1047 59 1034 39 
Q 1022 19 992 8 
Q 963 -3 914 -11 
Q 866 -19 791 -19 
Q 716 -19 667 -11 
Q 619 -3 591 8 
Q 563 19 550 39 
Q 538 59 538 81 
L 538 3813 
Q 538 3938 606 3991 
Q 675 4044 756 4044 
L 1013 4044 
Q 1103 4044 1164 4028 
Q 1225 4013 1273 3977 
Q 1322 3941 1367 3877 
Q 1413 3813 1466 3716 
L 2447 1941 
Q 2538 1778 2622 1623 
Q 2706 1469 2784 1319 
Q 2863 1169 2939 1023 
Q 3016 878 3091 731 
L 3094 731 
Q 3088 978 3086 1245 
Q 3084 1513 3084 1759 
L 3084 3953 
Q 3084 3975 3096 3994 
Q 3109 4013 3139 4027 
Q 3169 4041 3217 4047 
Q 3266 4053 3344 4053 
Q 3413 4053 3463 4047 
Q 3513 4041 3541 4027 
Q 3569 4013 3581 3994 
Q 3594 3975 3594 3953 
L 3594 222 
z
" transform="scale(0.015625)"/>
       </defs>
       <use xlink:href="#Calibri-47"/>
       <use xlink:href="#Calibri-4e" x="63.085938"/>
       <use xlink:href="#Calibri-52" x="127.636719"/>
       <use xlink:href="#Calibri-43" x="181.933594"/>
      </g>
     </g>
    </g>
    <g id="xtick_5">
     <g id="line2d_5">
      <g>
       <use xlink:href="#m1659735d8f" x="337.754609" y="213.944272" style="fill: #7b7e85; stroke: #7b7e85; stroke-width: 0.8"/>
      </g>
     </g>
     <g id="text_5">
      <!-- Eagleville -->
      <g style="fill: #7b7e85" transform="translate(324.979565 260.188406) rotate(-45) scale(0.11 -0.11)">
       <defs>
        <path id="Calibri-45" d="M 2788 222 
Q 2788 166 2781 123 
Q 2775 81 2759 53 
Q 2744 25 2723 12 
Q 2703 0 2678 0 
L 738 0 
Q 666 0 602 48 
Q 538 97 538 219 
L 538 3825 
Q 538 3947 602 3995 
Q 666 4044 738 4044 
L 2656 4044 
Q 2681 4044 2701 4031 
Q 2722 4019 2734 3991 
Q 2747 3963 2755 3920 
Q 2763 3878 2763 3816 
Q 2763 3759 2755 3717 
Q 2747 3675 2734 3648 
Q 2722 3622 2701 3609 
Q 2681 3597 2656 3597 
L 1075 3597 
L 1075 2328 
L 2431 2328 
Q 2456 2328 2476 2314 
Q 2497 2300 2511 2275 
Q 2525 2250 2531 2206 
Q 2538 2163 2538 2103 
Q 2538 2047 2531 2006 
Q 2525 1966 2511 1941 
Q 2497 1916 2476 1905 
Q 2456 1894 2431 1894 
L 1075 1894 
L 1075 447 
L 2678 447 
Q 2703 447 2723 434 
Q 2744 422 2759 395 
Q 2775 369 2781 326 
Q 2788 284 2788 222 
z
" transform="scale(0.015625)"/>
        <path id="Calibri-67" d="M 2828 2763 
Q 2828 2653 2798 2604 
Q 2769 2556 2722 2556 
L 2319 2556 
Q 2428 2444 2472 2308 
Q 2516 2172 2516 2025 
Q 2516 1781 2437 1593 
Q 2359 1406 2214 1276 
Q 2069 1147 1869 1078 
Q 1669 1009 1425 1009 
Q 1253 1009 1098 1054 
Q 944 1100 859 1169 
Q 803 1113 767 1041 
Q 731 969 731 875 
Q 731 766 832 694 
Q 934 622 1103 616 
L 1838 584 
Q 2047 578 2222 526 
Q 2397 475 2525 379 
Q 2653 284 2725 145 
Q 2797 6 2797 -178 
Q 2797 -372 2715 -547 
Q 2634 -722 2467 -855 
Q 2300 -988 2040 -1064 
Q 1781 -1141 1428 -1141 
Q 1088 -1141 848 -1083 
Q 609 -1025 456 -925 
Q 303 -825 234 -686 
Q 166 -547 166 -384 
Q 166 -281 191 -184 
Q 216 -88 267 0 
Q 319 88 395 167 
Q 472 247 572 325 
Q 419 403 345 522 
Q 272 641 272 778 
Q 272 969 350 1119 
Q 428 1269 544 1388 
Q 447 1503 390 1648 
Q 334 1794 334 2000 
Q 334 2241 415 2431 
Q 497 2622 640 2753 
Q 784 2884 986 2954 
Q 1188 3025 1425 3025 
Q 1553 3025 1664 3011 
Q 1775 2997 1872 2972 
L 2722 2972 
Q 2775 2972 2801 2920 
Q 2828 2869 2828 2763 
z
M 2022 2022 
Q 2022 2309 1864 2470 
Q 1706 2631 1416 2631 
Q 1266 2631 1155 2581 
Q 1044 2531 970 2443 
Q 897 2356 861 2242 
Q 825 2128 825 2003 
Q 825 1725 983 1565 
Q 1141 1406 1425 1406 
Q 1578 1406 1690 1454 
Q 1803 1503 1876 1589 
Q 1950 1675 1986 1787 
Q 2022 1900 2022 2022 
z
M 2281 -206 
Q 2281 -25 2132 73 
Q 1984 172 1731 178 
L 1003 203 
Q 903 125 839 54 
Q 775 -16 737 -80 
Q 700 -144 686 -206 
Q 672 -269 672 -334 
Q 672 -538 878 -642 
Q 1084 -747 1453 -747 
Q 1688 -747 1845 -701 
Q 2003 -656 2100 -581 
Q 2197 -506 2239 -409 
Q 2281 -313 2281 -206 
z
" transform="scale(0.015625)"/>
        <path id="Calibri-6c" d="M 994 78 
Q 994 53 981 36 
Q 969 19 941 6 
Q 913 -6 863 -12 
Q 813 -19 734 -19 
Q 659 -19 609 -12 
Q 559 -6 529 6 
Q 500 19 489 36 
Q 478 53 478 78 
L 478 4253 
Q 478 4278 489 4297 
Q 500 4316 529 4328 
Q 559 4341 609 4347 
Q 659 4353 734 4353 
Q 813 4353 863 4347 
Q 913 4341 941 4328 
Q 969 4316 981 4297 
Q 994 4278 994 4253 
L 994 78 
z
" transform="scale(0.015625)"/>
        <path id="Calibri-76" d="M 2784 2897 
Q 2784 2884 2782 2870 
Q 2781 2856 2778 2840 
Q 2775 2825 2770 2806 
Q 2766 2788 2759 2766 
L 1800 94 
Q 1788 59 1767 37 
Q 1747 16 1706 3 
Q 1666 -9 1603 -14 
Q 1541 -19 1447 -19 
Q 1353 -19 1290 -12 
Q 1228 -6 1189 6 
Q 1150 19 1128 41 
Q 1106 63 1094 94 
L 138 2766 
Q 125 2803 117 2831 
Q 109 2859 107 2873 
Q 106 2888 106 2897 
Q 106 2922 118 2940 
Q 131 2959 161 2970 
Q 191 2981 239 2984 
Q 288 2988 359 2988 
Q 450 2988 504 2983 
Q 559 2978 589 2965 
Q 619 2953 633 2934 
Q 647 2916 659 2888 
L 1453 569 
L 1466 531 
L 1475 569 
L 2259 2888 
Q 2266 2916 2281 2934 
Q 2297 2953 2326 2965 
Q 2356 2978 2407 2983 
Q 2459 2988 2544 2988 
Q 2616 2988 2662 2984 
Q 2709 2981 2736 2968 
Q 2763 2956 2773 2939 
Q 2784 2922 2784 2897 
z
" transform="scale(0.015625)"/>
       </defs>
       <use xlink:href="#Calibri-45"/>
       <use xlink:href="#Calibri-61" x="47.203125"/>
       <use xlink:href="#Calibri-67" x="95.103516"/>
       <use xlink:href="#Calibri-6c" x="142.173828"/>
       <use xlink:href="#Calibri-65" x="165.123047"/>
       <use xlink:href="#Calibri-76" x="214.878906"/>
       <use xlink:href="#Calibri-69" x="260.044922"/>
       <use xlink:href="#Calibri-6c" x="282.994141"/>
       <use xlink:href="#Calibri-6c" x="305.943359"/>
       <use xlink:href="#Calibri-65" x="328.892578"/>
      </g>
     </g>
    </g>
    <g id="xtick_6">
     <g id="line2d_6">
      <g>
       <use xlink:href="#m1659735d8f" x="393.326989" y="213.944272" style="fill: #7b7e85; stroke: #7b7e85; stroke-width: 0.8"/>
      </g>
     </g>
     <g id="text_6">
      <!-- La Vergne -->
      <g style="fill: #7b7e85" transform="translate(379.593042 262.09892) rotate(-45) scale(0.11 -0.11)">
       <defs>
        <path id="Calibri-4c" d="M 2634 234 
Q 2634 172 2628 130 
Q 2622 88 2608 58 
Q 2594 28 2573 14 
Q 2553 0 2525 0 
L 738 0 
Q 666 0 602 48 
Q 538 97 538 219 
L 538 3963 
Q 538 3988 550 4006 
Q 563 4025 594 4036 
Q 625 4047 678 4055 
Q 731 4063 806 4063 
Q 884 4063 936 4055 
Q 988 4047 1019 4036 
Q 1050 4025 1062 4006 
Q 1075 3988 1075 3963 
L 1075 466 
L 2525 466 
Q 2553 466 2573 452 
Q 2594 438 2608 411 
Q 2622 384 2628 340 
Q 2634 297 2634 234 
z
" transform="scale(0.015625)"/>
        <path id="Calibri-56" d="M 2172 94 
Q 2159 59 2137 37 
Q 2116 16 2077 3 
Q 2038 -9 1977 -14 
Q 1916 -19 1825 -19 
Q 1756 -19 1704 -17 
Q 1653 -16 1615 -9 
Q 1578 -3 1551 5 
Q 1525 13 1506 25 
Q 1488 38 1477 55 
Q 1466 72 1456 97 
L 134 3853 
Q 109 3922 107 3964 
Q 106 4006 134 4028 
Q 163 4050 225 4056 
Q 288 4063 394 4063 
Q 481 4063 532 4058 
Q 584 4053 612 4040 
Q 641 4028 655 4008 
Q 669 3988 681 3956 
L 1841 553 
L 1844 553 
L 2972 3950 
Q 2981 3984 2993 4006 
Q 3006 4028 3037 4040 
Q 3069 4053 3125 4058 
Q 3181 4063 3275 4063 
Q 3372 4063 3428 4055 
Q 3484 4047 3504 4025 
Q 3525 4003 3520 3961 
Q 3516 3919 3491 3850 
L 2172 94 
z
" transform="scale(0.015625)"/>
       </defs>
       <use xlink:href="#Calibri-4c"/>
       <use xlink:href="#Calibri-61" x="42.041016"/>
       <use xlink:href="#Calibri-20" x="89.941406"/>
       <use xlink:href="#Calibri-56" x="112.548828"/>
       <use xlink:href="#Calibri-65" x="169.287109"/>
       <use xlink:href="#Calibri-72" x="219.042969"/>
       <use xlink:href="#Calibri-67" x="253.90625"/>
       <use xlink:href="#Calibri-6e" x="300.976562"/>
       <use xlink:href="#Calibri-65" x="353.515625"/>
      </g>
     </g>
    </g>
    <g id="xtick_7">
     <g id="line2d_7">
      <g>
       <use xlink:href="#m1659735d8f" x="448.899368" y="213.944272" style="fill: #7b7e85; stroke: #7b7e85; stroke-width: 0.8"/>
      </g>
     </g>
     <g id="text_7">
      <!-- Murfreesboro -->
      <g style="fill: #7b7e85" transform="translate(428.694344 275.052011) rotate(-45) scale(0.11 -0.11)">
       <defs>
        <path id="Calibri-4d" d="M 4934 81 
Q 4934 56 4921 37 
Q 4909 19 4878 8 
Q 4847 -3 4798 -11 
Q 4750 -19 4672 -19 
Q 4600 -19 4548 -11 
Q 4497 -3 4467 8 
Q 4438 19 4425 37 
Q 4413 56 4413 81 
L 4413 3603 
L 4406 3603 
L 2966 66 
Q 2956 44 2939 28 
Q 2922 13 2889 2 
Q 2856 -9 2811 -14 
Q 2766 -19 2703 -19 
Q 2638 -19 2591 -12 
Q 2544 -6 2512 5 
Q 2481 16 2464 31 
Q 2447 47 2441 66 
L 1063 3603 
L 1059 3603 
L 1059 81 
Q 1059 56 1046 37 
Q 1034 19 1003 8 
Q 972 -3 922 -11 
Q 872 -19 794 -19 
Q 719 -19 669 -11 
Q 619 -3 589 8 
Q 559 19 548 37 
Q 538 56 538 81 
L 538 3800 
Q 538 3931 606 3987 
Q 675 4044 759 4044 
L 1084 4044 
Q 1184 4044 1259 4025 
Q 1334 4006 1390 3965 
Q 1447 3925 1484 3862 
Q 1522 3800 1550 3716 
L 2722 788 
L 2738 788 
L 3956 3706 
Q 3991 3800 4031 3865 
Q 4072 3931 4120 3970 
Q 4169 4009 4228 4026 
Q 4288 4044 4366 4044 
L 4706 4044 
Q 4753 4044 4795 4030 
Q 4838 4016 4867 3986 
Q 4897 3956 4915 3911 
Q 4934 3866 4934 3800 
L 4934 81 
z
" transform="scale(0.015625)"/>
        <path id="Calibri-62" d="M 3066 1522 
Q 3066 1156 2986 864 
Q 2906 572 2751 365 
Q 2597 159 2372 50 
Q 2147 -59 1856 -59 
Q 1722 -59 1608 -32 
Q 1494 -6 1384 53 
Q 1275 113 1165 203 
Q 1056 294 934 422 
L 934 78 
Q 934 53 921 34 
Q 909 16 881 5 
Q 853 -6 811 -12 
Q 769 -19 703 -19 
Q 641 -19 597 -12 
Q 553 -6 525 5 
Q 497 16 487 34 
Q 478 53 478 78 
L 478 4253 
Q 478 4278 489 4297 
Q 500 4316 529 4328 
Q 559 4341 609 4347 
Q 659 4353 734 4353 
Q 813 4353 863 4347 
Q 913 4341 941 4328 
Q 969 4316 981 4297 
Q 994 4278 994 4253 
L 994 2569 
Q 1119 2697 1236 2784 
Q 1353 2872 1465 2926 
Q 1578 2981 1690 3006 
Q 1803 3031 1928 3031 
Q 2234 3031 2451 2909 
Q 2669 2788 2805 2583 
Q 2941 2378 3003 2103 
Q 3066 1828 3066 1522 
z
M 2522 1463 
Q 2522 1678 2489 1881 
Q 2456 2084 2375 2240 
Q 2294 2397 2159 2492 
Q 2025 2588 1825 2588 
Q 1725 2588 1628 2559 
Q 1531 2531 1431 2465 
Q 1331 2400 1223 2297 
Q 1116 2194 994 2038 
L 994 916 
Q 1206 656 1400 520 
Q 1594 384 1803 384 
Q 1997 384 2134 478 
Q 2272 572 2358 726 
Q 2444 881 2483 1073 
Q 2522 1266 2522 1463 
z
" transform="scale(0.015625)"/>
       </defs>
       <use xlink:href="#Calibri-4d"/>
       <use xlink:href="#Calibri-75" x="85.498047"/>
       <use xlink:href="#Calibri-72" x="138.037109"/>
       <use xlink:href="#Calibri-66" x="172.900391"/>
       <use xlink:href="#Calibri-72" x="203.417969"/>
       <use xlink:href="#Calibri-65" x="238.28125"/>
       <use xlink:href="#Calibri-65" x="288.037109"/>
       <use xlink:href="#Calibri-73" x="337.792969"/>
       <use xlink:href="#Calibri-62" x="376.904297"/>
       <use xlink:href="#Calibri-6f" x="429.443359"/>
       <use xlink:href="#Calibri-72" x="482.177734"/>
       <use xlink:href="#Calibri-6f" x="517.041016"/>
      </g>
     </g>
    </g>
    <g id="xtick_8">
     <g id="line2d_8">
      <g>
       <use xlink:href="#m1659735d8f" x="504.471747" y="213.944272" style="fill: #7b7e85; stroke: #7b7e85; stroke-width: 0.8"/>
      </g>
     </g>
     <g id="text_8">
      <!-- Nolensville -->
      <g style="fill: #7b7e85" transform="translate(489.102561 265.380337) rotate(-45) scale(0.11 -0.11)">
       <use xlink:href="#Calibri-4e"/>
       <use xlink:href="#Calibri-6f" x="64.550781"/>
       <use xlink:href="#Calibri-6c" x="117.285156"/>
       <use xlink:href="#Calibri-65" x="140.234375"/>
       <use xlink:href="#Calibri-6e" x="189.990234"/>
       <use xlink:href="#Calibri-73" x="242.529297"/>
       <use xlink:href="#Calibri-76" x="281.640625"/>
       <use xlink:href="#Calibri-69" x="326.806641"/>
       <use xlink:href="#Calibri-6c" x="349.755859"/>
       <use xlink:href="#Calibri-6c" x="372.705078"/>
       <use xlink:href="#Calibri-65" x="395.654297"/>
      </g>
     </g>
    </g>
    <g id="xtick_9">
     <g id="line2d_9">
      <g>
       <use xlink:href="#m1659735d8f" x="560.044127" y="213.944272" style="fill: #7b7e85; stroke: #7b7e85; stroke-width: 0.8"/>
      </g>
     </g>
     <g id="text_9">
      <!-- Smyrna -->
      <g style="fill: #7b7e85" transform="translate(550.080771 254.568675) rotate(-45) scale(0.11 -0.11)">
       <defs>
        <path id="Calibri-53" d="M 2709 1134 
Q 2709 850 2604 628 
Q 2500 406 2314 251 
Q 2128 97 1876 19 
Q 1625 -59 1334 -59 
Q 1131 -59 957 -25 
Q 784 9 648 59 
Q 513 109 420 162 
Q 328 216 292 253 
Q 256 291 239 348 
Q 222 406 222 503 
Q 222 572 228 617 
Q 234 663 246 691 
Q 259 719 278 730 
Q 297 741 322 741 
Q 366 741 445 687 
Q 525 634 650 571 
Q 775 509 951 454 
Q 1128 400 1359 400 
Q 1534 400 1679 447 
Q 1825 494 1929 580 
Q 2034 666 2090 791 
Q 2147 916 2147 1075 
Q 2147 1247 2069 1369 
Q 1991 1491 1862 1583 
Q 1734 1675 1570 1751 
Q 1406 1828 1234 1908 
Q 1063 1988 900 2084 
Q 738 2181 609 2312 
Q 481 2444 401 2620 
Q 322 2797 322 3044 
Q 322 3297 414 3495 
Q 506 3694 670 3828 
Q 834 3963 1061 4033 
Q 1288 4103 1550 4103 
Q 1684 4103 1820 4079 
Q 1956 4056 2076 4017 
Q 2197 3978 2290 3929 
Q 2384 3881 2414 3851 
Q 2444 3822 2453 3805 
Q 2463 3788 2469 3761 
Q 2475 3734 2478 3696 
Q 2481 3659 2481 3600 
Q 2481 3544 2476 3500 
Q 2472 3456 2462 3426 
Q 2453 3397 2436 3383 
Q 2419 3369 2397 3369 
Q 2363 3369 2289 3412 
Q 2216 3456 2109 3511 
Q 2003 3566 1858 3611 
Q 1713 3656 1531 3656 
Q 1363 3656 1238 3611 
Q 1113 3566 1031 3491 
Q 950 3416 909 3312 
Q 869 3209 869 3094 
Q 869 2925 947 2803 
Q 1025 2681 1154 2587 
Q 1284 2494 1450 2416 
Q 1616 2338 1787 2258 
Q 1959 2178 2125 2083 
Q 2291 1988 2420 1858 
Q 2550 1728 2629 1551 
Q 2709 1375 2709 1134 
z
" transform="scale(0.015625)"/>
        <path id="Calibri-6d" d="M 4650 78 
Q 4650 53 4637 36 
Q 4625 19 4597 6 
Q 4569 -6 4519 -12 
Q 4469 -19 4394 -19 
Q 4316 -19 4266 -12 
Q 4216 -6 4186 6 
Q 4156 19 4143 36 
Q 4131 53 4131 78 
L 4131 1788 
Q 4131 1966 4100 2112 
Q 4069 2259 4000 2365 
Q 3931 2472 3825 2528 
Q 3719 2584 3575 2584 
Q 3397 2584 3217 2446 
Q 3038 2309 2822 2044 
L 2822 78 
Q 2822 53 2809 36 
Q 2797 19 2767 6 
Q 2738 -6 2688 -12 
Q 2638 -19 2563 -19 
Q 2491 -19 2439 -12 
Q 2388 -6 2358 6 
Q 2328 19 2317 36 
Q 2306 53 2306 78 
L 2306 1788 
Q 2306 1966 2272 2112 
Q 2238 2259 2169 2365 
Q 2100 2472 1995 2528 
Q 1891 2584 1747 2584 
Q 1569 2584 1387 2446 
Q 1206 2309 994 2044 
L 994 78 
Q 994 53 981 36 
Q 969 19 941 6 
Q 913 -6 863 -12 
Q 813 -19 734 -19 
Q 659 -19 609 -12 
Q 559 -6 529 6 
Q 500 19 489 36 
Q 478 53 478 78 
L 478 2891 
Q 478 2916 487 2933 
Q 497 2950 525 2964 
Q 553 2978 597 2983 
Q 641 2988 713 2988 
Q 781 2988 826 2983 
Q 872 2978 897 2964 
Q 922 2950 933 2933 
Q 944 2916 944 2891 
L 944 2519 
Q 1181 2784 1404 2907 
Q 1628 3031 1856 3031 
Q 2031 3031 2170 2990 
Q 2309 2950 2415 2876 
Q 2522 2803 2597 2701 
Q 2672 2600 2722 2475 
Q 2863 2628 2989 2734 
Q 3116 2841 3233 2906 
Q 3350 2972 3461 3001 
Q 3572 3031 3684 3031 
Q 3956 3031 4140 2936 
Q 4325 2841 4439 2681 
Q 4553 2522 4601 2308 
Q 4650 2094 4650 1856 
L 4650 78 
z
" transform="scale(0.015625)"/>
       </defs>
       <use xlink:href="#Calibri-53"/>
       <use xlink:href="#Calibri-6d" x="45.947266"/>
       <use xlink:href="#Calibri-79" x="125.830078"/>
       <use xlink:href="#Calibri-72" x="171.09375"/>
       <use xlink:href="#Calibri-6e" x="205.957031"/>
       <use xlink:href="#Calibri-61" x="258.496094"/>
      </g>
     </g>
    </g>
    <g id="text_10">
     <!-- Year -->
     <g style="fill: #00263e" transform="translate(327.785859 341.484062) scale(0.11 -0.11)">
      <defs>
       <path id="Calibri-59" d="M 1828 1572 
L 1828 81 
Q 1828 56 1815 37 
Q 1803 19 1772 8 
Q 1741 -3 1687 -11 
Q 1634 -19 1559 -19 
Q 1481 -19 1429 -11 
Q 1378 -3 1345 8 
Q 1313 19 1300 37 
Q 1288 56 1288 81 
L 1288 1572 
L 144 3853 
Q 109 3925 101 3965 
Q 94 4006 117 4028 
Q 141 4050 202 4056 
Q 263 4063 366 4063 
Q 459 4063 517 4056 
Q 575 4050 609 4039 
Q 644 4028 661 4008 
Q 678 3988 694 3956 
L 1253 2794 
Q 1331 2628 1409 2447 
Q 1488 2266 1569 2081 
L 1575 2081 
Q 1647 2259 1723 2436 
Q 1800 2613 1878 2784 
L 2441 3953 
Q 2450 3984 2467 4006 
Q 2484 4028 2514 4039 
Q 2544 4050 2597 4056 
Q 2650 4063 2731 4063 
Q 2844 4063 2908 4055 
Q 2972 4047 2997 4025 
Q 3022 4003 3014 3962 
Q 3006 3922 2972 3853 
L 1828 1572 
z
" transform="scale(0.015625)"/>
      </defs>
      <use xlink:href="#Calibri-59"/>
      <use xlink:href="#Calibri-65" x="48.730469"/>
      <use xlink:href="#Calibri-61" x="98.486328"/>
      <use xlink:href="#Calibri-72" x="146.386719"/>
     </g>
    </g>
   </g>
   <g id="matplotlib.axis_2">
    <g id="ytick_1">
     <g id="line2d_10">
      <defs>
       <path id="mee9dbe56b3" d="M 0 0 
L -6 0 
" style="stroke: #7b7e85; stroke-width: 0.8"/>
      </defs>
      <g>
       <use xlink:href="#mee9dbe56b3" x="65.727812" y="206.0152" style="fill: #7b7e85; stroke: #7b7e85; stroke-width: 0.8"/>
      </g>
     </g>
     <g id="text_11">
      <!-- 0% -->
      <g style="fill: #7b7e85" transform="translate(42.788906 209.756059) scale(0.11 -0.11)">
       <defs>
        <path id="Calibri-30" d="M 3022 2031 
Q 3022 1566 2948 1181 
Q 2875 797 2704 520 
Q 2534 244 2259 92 
Q 1984 -59 1581 -59 
Q 1200 -59 939 77 
Q 678 213 518 477 
Q 359 741 292 1127 
Q 225 1513 225 2013 
Q 225 2475 300 2861 
Q 375 3247 544 3523 
Q 713 3800 988 3951 
Q 1263 4103 1663 4103 
Q 2047 4103 2308 3967 
Q 2569 3831 2728 3567 
Q 2888 3303 2955 2917 
Q 3022 2531 3022 2031 
z
M 2472 1994 
Q 2472 2297 2450 2537 
Q 2428 2778 2386 2962 
Q 2344 3147 2276 3280 
Q 2209 3413 2115 3498 
Q 2022 3584 1901 3623 
Q 1781 3663 1631 3663 
Q 1366 3663 1200 3538 
Q 1034 3413 939 3194 
Q 844 2975 809 2681 
Q 775 2388 775 2050 
Q 775 1597 822 1280 
Q 869 963 970 763 
Q 1072 563 1230 472 
Q 1388 381 1613 381 
Q 1788 381 1920 437 
Q 2053 494 2148 598 
Q 2244 703 2306 850 
Q 2369 997 2406 1175 
Q 2444 1353 2458 1561 
Q 2472 1769 2472 1994 
z
" transform="scale(0.015625)"/>
        <path id="Calibri-25" d="M 1966 3044 
Q 1966 2803 1912 2606 
Q 1859 2410 1750 2270 
Q 1641 2131 1473 2053 
Q 1306 1975 1081 1975 
Q 853 1975 690 2047 
Q 528 2119 425 2255 
Q 322 2391 273 2586 
Q 225 2781 225 3031 
Q 225 3260 276 3453 
Q 328 3647 434 3787 
Q 541 3928 708 4009 
Q 875 4091 1103 4091 
Q 1350 4091 1517 4006 
Q 1684 3922 1784 3780 
Q 1884 3638 1925 3447 
Q 1966 3256 1966 3044 
z
M 1528 3028 
Q 1528 3203 1503 3339 
Q 1478 3475 1426 3565 
Q 1375 3656 1290 3701 
Q 1206 3747 1091 3747 
Q 981 3747 900 3703 
Q 819 3660 767 3572 
Q 716 3485 691 3355 
Q 666 3225 666 3050 
Q 666 2838 695 2695 
Q 725 2553 779 2470 
Q 834 2388 917 2355 
Q 1000 2322 1106 2322 
Q 1231 2322 1311 2369 
Q 1391 2416 1439 2508 
Q 1488 2600 1508 2730 
Q 1528 2860 1528 3028 
z
M 4350 1022 
Q 4350 781 4297 584 
Q 4244 388 4134 248 
Q 4025 109 3858 31 
Q 3691 -47 3466 -47 
Q 3238 -47 3075 25 
Q 2913 97 2809 233 
Q 2706 369 2657 564 
Q 2609 759 2609 1009 
Q 2609 1238 2661 1431 
Q 2713 1625 2819 1765 
Q 2925 1906 3092 1987 
Q 3259 2069 3488 2069 
Q 3734 2069 3901 1984 
Q 4069 1900 4169 1758 
Q 4269 1616 4309 1425 
Q 4350 1234 4350 1022 
z
M 3913 1006 
Q 3913 1181 3888 1317 
Q 3863 1453 3811 1543 
Q 3759 1634 3675 1679 
Q 3591 1725 3475 1725 
Q 3366 1725 3284 1681 
Q 3203 1638 3151 1550 
Q 3100 1463 3075 1333 
Q 3050 1203 3050 1028 
Q 3050 816 3079 673 
Q 3109 531 3164 448 
Q 3219 366 3301 333 
Q 3384 300 3491 300 
Q 3616 300 3695 347 
Q 3775 394 3823 486 
Q 3872 578 3892 708 
Q 3913 838 3913 1006 
z
M 1081 -25 
Q 1066 -53 1044 -67 
Q 1022 -81 990 -92 
Q 959 -103 915 -108 
Q 872 -113 809 -113 
Q 741 -113 698 -100 
Q 656 -88 639 -67 
Q 622 -47 626 -17 
Q 631 13 656 50 
L 3469 4078 
Q 3484 4103 3506 4120 
Q 3528 4138 3561 4147 
Q 3594 4156 3636 4161 
Q 3678 4166 3744 4166 
Q 3809 4166 3851 4155 
Q 3894 4144 3912 4122 
Q 3931 4100 3926 4069 
Q 3922 4038 3897 4003 
L 1081 -25 
z
" transform="scale(0.015625)"/>
       </defs>
       <use xlink:href="#Calibri-30"/>
       <use xlink:href="#Calibri-25" x="50.683594"/>
      </g>
     </g>
    </g>
    <g id="ytick_2">
     <g id="line2d_11">
      <g>
       <use xlink:href="#mee9dbe56b3" x="65.727812" y="174.365377" style="fill: #7b7e85; stroke: #7b7e85; stroke-width: 0.8"/>
      </g>
     </g>
     <g id="text_12">
      <!-- 20% -->
      <g style="fill: #7b7e85" transform="translate(37.213281 178.106236) scale(0.11 -0.11)">
       <defs>
        <path id="Calibri-32" d="M 2888 231 
Q 2888 175 2880 131 
Q 2872 88 2858 58 
Q 2844 28 2820 14 
Q 2797 0 2769 0 
L 534 0 
Q 491 0 458 11 
Q 425 22 401 47 
Q 378 72 367 119 
Q 356 166 356 234 
Q 356 297 361 344 
Q 366 391 381 427 
Q 397 463 420 498 
Q 444 534 481 575 
L 1266 1406 
Q 1538 1694 1702 1922 
Q 1866 2150 1955 2337 
Q 2044 2525 2072 2678 
Q 2100 2831 2100 2966 
Q 2100 3100 2056 3220 
Q 2013 3341 1930 3431 
Q 1847 3522 1722 3575 
Q 1597 3628 1434 3628 
Q 1244 3628 1092 3575 
Q 941 3522 827 3459 
Q 713 3397 636 3344 
Q 559 3291 522 3291 
Q 500 3291 483 3303 
Q 466 3316 455 3344 
Q 444 3372 437 3419 
Q 431 3466 431 3531 
Q 431 3578 434 3612 
Q 438 3647 445 3672 
Q 453 3697 465 3719 
Q 478 3741 515 3773 
Q 553 3806 645 3862 
Q 738 3919 877 3973 
Q 1016 4028 1183 4065 
Q 1350 4103 1534 4103 
Q 1828 4103 2048 4020 
Q 2269 3938 2414 3794 
Q 2559 3650 2631 3459 
Q 2703 3269 2703 3053 
Q 2703 2859 2668 2667 
Q 2634 2475 2523 2251 
Q 2413 2028 2203 1754 
Q 1994 1481 1647 1125 
L 1006 456 
L 2766 456 
Q 2791 456 2814 442 
Q 2838 428 2855 400 
Q 2872 372 2880 330 
Q 2888 288 2888 231 
z
" transform="scale(0.015625)"/>
       </defs>
       <use xlink:href="#Calibri-32"/>
       <use xlink:href="#Calibri-30" x="50.683594"/>
       <use xlink:href="#Calibri-25" x="101.367188"/>
      </g>
     </g>
    </g>
    <g id="ytick_3">
     <g id="line2d_12">
      <g>
       <use xlink:href="#mee9dbe56b3" x="65.727812" y="142.715553" style="fill: #7b7e85; stroke: #7b7e85; stroke-width: 0.8"/>
      </g>
     </g>
     <g id="text_13">
      <!-- 40% -->
      <g style="fill: #7b7e85" transform="translate(37.213281 146.456413) scale(0.11 -0.11)">
       <defs>
        <path id="Calibri-34" d="M 3059 1150 
Q 3059 1047 3028 987 
Q 2997 928 2941 928 
L 2484 928 
L 2484 78 
Q 2484 53 2471 36 
Q 2459 19 2428 6 
Q 2397 -6 2347 -12 
Q 2297 -19 2219 -19 
Q 2144 -19 2094 -12 
Q 2044 -6 2014 6 
Q 1984 19 1973 36 
Q 1963 53 1963 78 
L 1963 928 
L 294 928 
Q 256 928 231 937 
Q 206 947 186 972 
Q 166 997 158 1044 
Q 150 1091 150 1166 
Q 150 1225 153 1272 
Q 156 1319 165 1358 
Q 175 1397 190 1433 
Q 206 1469 228 1509 
L 1684 3966 
Q 1700 3991 1729 4009 
Q 1759 4028 1806 4040 
Q 1853 4053 1922 4058 
Q 1991 4063 2084 4063 
Q 2188 4063 2264 4055 
Q 2341 4047 2387 4034 
Q 2434 4022 2459 4001 
Q 2484 3981 2484 3953 
L 2484 1372 
L 2941 1372 
Q 2994 1372 3026 1317 
Q 3059 1263 3059 1150 
z
M 1963 3591 
L 1956 3591 
L 641 1372 
L 1963 1372 
L 1963 3591 
z
" transform="scale(0.015625)"/>
       </defs>
       <use xlink:href="#Calibri-34"/>
       <use xlink:href="#Calibri-30" x="50.683594"/>
       <use xlink:href="#Calibri-25" x="101.367188"/>
      </g>
     </g>
    </g>
    <g id="ytick_4">
     <g id="line2d_13">
      <g>
       <use xlink:href="#mee9dbe56b3" x="65.727812" y="111.06573" style="fill: #7b7e85; stroke: #7b7e85; stroke-width: 0.8"/>
      </g>
     </g>
     <g id="text_14">
      <!-- 60% -->
      <g style="fill: #7b7e85" transform="translate(37.213281 114.806589) scale(0.11 -0.11)">
       <defs>
        <path id="Calibri-36" d="M 2991 1309 
Q 2991 1044 2909 795 
Q 2828 547 2659 358 
Q 2491 169 2231 55 
Q 1972 -59 1619 -59 
Q 1366 -59 1172 3 
Q 978 66 834 181 
Q 691 297 595 465 
Q 500 634 442 850 
Q 384 1066 359 1322 
Q 334 1578 334 1872 
Q 334 2131 362 2397 
Q 391 2663 462 2909 
Q 534 3156 657 3373 
Q 781 3591 967 3752 
Q 1153 3913 1412 4006 
Q 1672 4100 2016 4100 
Q 2131 4100 2250 4086 
Q 2369 4072 2469 4048 
Q 2569 4025 2637 3997 
Q 2706 3969 2728 3951 
Q 2750 3934 2761 3914 
Q 2772 3894 2778 3870 
Q 2784 3847 2787 3817 
Q 2791 3788 2791 3744 
Q 2791 3688 2789 3647 
Q 2788 3606 2777 3581 
Q 2766 3556 2748 3543 
Q 2731 3531 2703 3531 
Q 2669 3531 2609 3553 
Q 2550 3575 2465 3601 
Q 2381 3628 2261 3650 
Q 2141 3672 1981 3672 
Q 1691 3672 1481 3553 
Q 1272 3434 1139 3234 
Q 1006 3034 942 2770 
Q 878 2506 869 2219 
Q 950 2266 1051 2312 
Q 1153 2359 1273 2396 
Q 1394 2434 1528 2457 
Q 1663 2481 1816 2481 
Q 2144 2481 2369 2392 
Q 2594 2303 2733 2145 
Q 2872 1988 2931 1773 
Q 2991 1559 2991 1309 
z
M 2447 1259 
Q 2447 1441 2411 1589 
Q 2375 1738 2290 1841 
Q 2206 1944 2065 2000 
Q 1925 2056 1719 2056 
Q 1603 2056 1487 2036 
Q 1372 2016 1264 1980 
Q 1156 1944 1057 1895 
Q 959 1847 878 1791 
Q 878 1388 929 1116 
Q 981 844 1079 680 
Q 1178 516 1325 445 
Q 1472 375 1669 375 
Q 1869 375 2016 450 
Q 2163 525 2259 651 
Q 2356 778 2401 936 
Q 2447 1094 2447 1259 
z
" transform="scale(0.015625)"/>
       </defs>
       <use xlink:href="#Calibri-36"/>
       <use xlink:href="#Calibri-30" x="50.683594"/>
       <use xlink:href="#Calibri-25" x="101.367188"/>
      </g>
     </g>
    </g>
    <g id="ytick_5">
     <g id="line2d_14">
      <g>
       <use xlink:href="#mee9dbe56b3" x="65.727812" y="79.415906" style="fill: #7b7e85; stroke: #7b7e85; stroke-width: 0.8"/>
      </g>
     </g>
     <g id="text_15">
      <!-- 80% -->
      <g style="fill: #7b7e85" transform="translate(37.213281 83.156766) scale(0.11 -0.11)">
       <defs>
        <path id="Calibri-38" d="M 2981 1038 
Q 2981 775 2887 570 
Q 2794 366 2617 225 
Q 2441 84 2181 12 
Q 1922 -59 1588 -59 
Q 1275 -59 1028 6 
Q 781 72 609 200 
Q 438 328 347 515 
Q 256 703 256 944 
Q 256 1134 318 1293 
Q 381 1453 498 1587 
Q 616 1722 787 1839 
Q 959 1956 1175 2063 
Q 988 2159 844 2267 
Q 700 2375 600 2501 
Q 500 2628 448 2772 
Q 397 2916 397 3084 
Q 397 3297 473 3483 
Q 550 3669 704 3806 
Q 859 3944 1098 4023 
Q 1338 4103 1656 4103 
Q 1963 4103 2186 4029 
Q 2409 3956 2554 3829 
Q 2700 3703 2769 3531 
Q 2838 3359 2838 3163 
Q 2838 3003 2786 2856 
Q 2734 2709 2634 2578 
Q 2534 2447 2389 2333 
Q 2244 2219 2056 2119 
Q 2278 2009 2451 1893 
Q 2625 1778 2742 1645 
Q 2859 1513 2920 1364 
Q 2981 1216 2981 1038 
z
M 2306 3113 
Q 2306 3244 2261 3350 
Q 2216 3456 2128 3531 
Q 2041 3606 1911 3645 
Q 1781 3684 1616 3684 
Q 1278 3684 1104 3531 
Q 931 3378 931 3113 
Q 931 2991 973 2886 
Q 1016 2781 1105 2687 
Q 1194 2594 1330 2505 
Q 1466 2416 1653 2319 
Q 1969 2481 2137 2678 
Q 2306 2875 2306 3113 
z
M 2438 981 
Q 2438 1125 2384 1242 
Q 2331 1359 2223 1461 
Q 2116 1563 1955 1658 
Q 1794 1753 1581 1856 
Q 1384 1759 1236 1662 
Q 1088 1566 992 1462 
Q 897 1359 848 1245 
Q 800 1131 800 994 
Q 800 691 1008 525 
Q 1216 359 1628 359 
Q 2028 359 2233 526 
Q 2438 694 2438 981 
z
" transform="scale(0.015625)"/>
       </defs>
       <use xlink:href="#Calibri-38"/>
       <use xlink:href="#Calibri-30" x="50.683594"/>
       <use xlink:href="#Calibri-25" x="101.367188"/>
      </g>
     </g>
    </g>
    <g id="ytick_6">
     <g id="line2d_15">
      <g>
       <use xlink:href="#mee9dbe56b3" x="65.727812" y="47.766083" style="fill: #7b7e85; stroke: #7b7e85; stroke-width: 0.8"/>
      </g>
     </g>
     <g id="text_16">
      <!-- 100% -->
      <g style="fill: #7b7e85" transform="translate(31.637656 51.506942) scale(0.11 -0.11)">
       <defs>
        <path id="Calibri-31" d="M 2897 213 
Q 2897 153 2887 112 
Q 2878 72 2862 47 
Q 2847 22 2826 11 
Q 2806 0 2784 0 
L 672 0 
Q 650 0 631 11 
Q 613 22 595 47 
Q 578 72 568 112 
Q 559 153 559 213 
Q 559 269 568 309 
Q 578 350 592 376 
Q 606 403 626 417 
Q 647 431 672 431 
L 1516 431 
L 1516 3506 
L 734 3041 
Q 675 3009 639 3003 
Q 603 2997 581 3017 
Q 559 3038 551 3084 
Q 544 3131 544 3203 
Q 544 3256 548 3293 
Q 553 3331 562 3356 
Q 572 3381 589 3400 
Q 606 3419 634 3438 
L 1566 4034 
Q 1578 4044 1597 4050 
Q 1616 4056 1644 4062 
Q 1672 4069 1709 4070 
Q 1747 4072 1803 4072 
Q 1878 4072 1928 4065 
Q 1978 4059 2006 4048 
Q 2034 4038 2043 4020 
Q 2053 4003 2053 3984 
L 2053 431 
L 2784 431 
Q 2809 431 2831 417 
Q 2853 403 2867 376 
Q 2881 350 2889 309 
Q 2897 269 2897 213 
z
" transform="scale(0.015625)"/>
       </defs>
       <use xlink:href="#Calibri-31"/>
       <use xlink:href="#Calibri-30" x="50.683594"/>
       <use xlink:href="#Calibri-30" x="101.367188"/>
       <use xlink:href="#Calibri-25" x="152.050781"/>
      </g>
     </g>
    </g>
    <g id="text_17">
     <!-- Share of Commuters -->
     <g style="fill: #00263e" transform="translate(14.681719 172.654636) rotate(-90) scale(0.11 -0.11)">
      <use xlink:href="#Calibri-53"/>
      <use xlink:href="#Calibri-68" x="45.947266"/>
      <use xlink:href="#Calibri-61" x="98.486328"/>
      <use xlink:href="#Calibri-72" x="146.386719"/>
      <use xlink:href="#Calibri-65" x="181.25"/>
      <use xlink:href="#Calibri-20" x="231.005859"/>
      <use xlink:href="#Calibri-6f" x="253.613281"/>
      <use xlink:href="#Calibri-66" x="306.347656"/>
      <use xlink:href="#Calibri-20" x="336.865234"/>
      <use xlink:href="#Calibri-43" x="359.472656"/>
      <use xlink:href="#Calibri-6f" x="412.792969"/>
      <use xlink:href="#Calibri-6d" x="465.527344"/>
      <use xlink:href="#Calibri-6d" x="545.410156"/>
      <use xlink:href="#Calibri-75" x="625.292969"/>
      <use xlink:href="#Calibri-74" x="677.832031"/>
      <use xlink:href="#Calibri-65" x="711.328125"/>
      <use xlink:href="#Calibri-72" x="761.083984"/>
      <use xlink:href="#Calibri-73" x="795.947266"/>
     </g>
    </g>
   </g>
   <g id="patch_3">
    <path d="M 546.706756 49.062045 
L 573.381498 49.062045 
Q 581.717355 49.062045 581.717355 48.824671 
L 581.717355 48.098406 
Q 581.717355 47.861032 573.381498 47.861032 
L 546.706756 47.861032 
Q 538.370899 47.861032 538.370899 48.098406 
L 538.370899 48.824671 
Q 538.370899 49.062045 546.706756 49.062045 
z
" clip-path="url(#pb6cfad14b4)" style="fill: #0c2428"/>
   </g>
   <g id="patch_4">
    <path d="M 491.134376 47.671133 
L 517.809118 47.671133 
Q 526.144975 47.671133 526.144975 47.43376 
L 526.144975 48.098406 
Q 526.144975 47.861032 517.809118 47.861032 
L 491.134376 47.861032 
Q 482.798519 47.861032 482.798519 48.098406 
L 482.798519 47.43376 
Q 482.798519 47.671133 491.134376 47.671133 
z
" clip-path="url(#pb6cfad14b4)" style="fill: #0c2428"/>
   </g>
   <g id="patch_5">
    <path d="M 435.561997 48.980321 
L 462.236739 48.980321 
Q 470.572596 48.980321 470.572596 48.742948 
L 470.572596 48.098406 
Q 470.572596 47.861032 462.236739 47.861032 
L 435.561997 47.861032 
Q 427.22614 47.861032 427.22614 48.098406 
L 427.22614 48.742948 
Q 427.22614 48.980321 435.561997 48.980321 
z
" clip-path="url(#pb6cfad14b4)" style="fill: #0c2428"/>
   </g>
   <g id="patch_6">
    <path d="M 379.989618 48.530318 
L 406.66436 48.530318 
Q 415.000217 48.530318 415.000217 48.292944 
L 415.000217 48.098406 
Q 415.000217 47.861032 406.66436 47.861032 
L 379.989618 47.861032 
Q 371.653761 47.861032 371.653761 48.098406 
L 371.653761 48.292944 
Q 371.653761 48.530318 379.989618 48.530318 
z
" clip-path="url(#pb6cfad14b4)" style="fill: #0c2428"/>
   </g>
   <g id="patch_7">
    <path d="M 324.417238 51.267704 
L 351.09198 51.267704 
Q 359.427837 51.267704 359.427837 51.03033 
L 359.427837 48.098406 
Q 359.427837 47.861032 351.09198 47.861032 
L 324.417238 47.861032 
Q 316.081381 47.861032 316.081381 48.098406 
L 316.081381 51.03033 
Q 316.081381 51.267704 324.417238 51.267704 
z
" clip-path="url(#pb6cfad14b4)" style="fill: #0c2428"/>
   </g>
   <g id="patch_8">
    <path d="M 268.844859 49.439478 
L 295.519601 49.439478 
Q 303.855458 49.439478 303.855458 49.202104 
L 303.855458 48.098406 
Q 303.855458 47.861032 295.519601 47.861032 
L 268.844859 47.861032 
Q 260.509002 47.861032 260.509002 48.098406 
L 260.509002 49.202104 
Q 260.509002 49.439478 268.844859 49.439478 
z
" clip-path="url(#pb6cfad14b4)" style="fill: #0c2428"/>
   </g>
   <g id="patch_9">
    <path d="M 213.27248 49.383505 
L 239.947222 49.383505 
Q 248.283079 49.383505 248.283079 49.146131 
L 248.283079 48.098406 
Q 248.283079 47.861032 239.947222 47.861032 
L 213.27248 47.861032 
Q 204.936623 47.861032 204.936623 48.098406 
L 204.936623 49.146131 
Q 204.936623 49.383505 213.27248 49.383505 
z
" clip-path="url(#pb6cfad14b4)" style="fill: #0c2428"/>
   </g>
   <g id="patch_10">
    <path d="M 157.7001 48.854265 
L 184.374842 48.854265 
Q 192.710699 48.854265 192.710699 48.616892 
L 192.710699 48.098406 
Q 192.710699 47.861032 184.374842 47.861032 
L 157.7001 47.861032 
Q 149.364243 47.861032 149.364243 48.098406 
L 149.364243 48.616892 
Q 149.364243 48.854265 157.7001 48.854265 
z
" clip-path="url(#pb6cfad14b4)" style="fill: #0c2428"/>
   </g>
   <g id="patch_11">
    <path d="M 102.127721 48.642227 
L 128.802463 48.642227 
Q 137.13832 48.642227 137.13832 48.404853 
L 137.13832 48.098406 
Q 137.13832 47.861032 128.802463 47.861032 
L 102.127721 47.861032 
Q 93.791864 47.861032 93.791864 48.098406 
L 93.791864 48.404853 
Q 93.791864 48.642227 102.127721 48.642227 
z
" clip-path="url(#pb6cfad14b4)" style="fill: #0c2428"/>
   </g>
   <g id="patch_12">
    <path d="M 546.706756 60.572841 
L 573.381498 60.572841 
Q 581.717355 60.572841 581.717355 60.335467 
L 581.717355 49.489318 
Q 581.717355 49.251944 573.381498 49.251944 
L 546.706756 49.251944 
Q 538.370899 49.251944 538.370899 49.489318 
L 538.370899 60.335467 
Q 538.370899 60.572841 546.706756 60.572841 
z
" clip-path="url(#pb6cfad14b4)" style="fill: #808989"/>
   </g>
   <g id="patch_13">
    <path d="M 491.134376 79.71958 
L 517.809118 79.71958 
Q 526.144975 79.71958 526.144975 79.482207 
L 526.144975 48.098406 
Q 526.144975 47.861032 517.809118 47.861032 
L 491.134376 47.861032 
Q 482.798519 47.861032 482.798519 48.098406 
L 482.798519 79.482207 
Q 482.798519 79.71958 491.134376 79.71958 
z
" clip-path="url(#pb6cfad14b4)" style="fill: #808989"/>
   </g>
   <g id="patch_14">
    <path d="M 435.561997 65.851178 
L 462.236739 65.851178 
Q 470.572596 65.851178 470.572596 65.613804 
L 470.572596 49.407594 
Q 470.572596 49.17022 462.236739 49.17022 
L 435.561997 49.17022 
Q 427.22614 49.17022 427.22614 49.407594 
L 427.22614 65.613804 
Q 427.22614 65.851178 435.561997 65.851178 
z
" clip-path="url(#pb6cfad14b4)" style="fill: #808989"/>
   </g>
   <g id="patch_15">
    <path d="M 379.989618 64.504792 
L 406.66436 64.504792 
Q 415.000217 64.504792 415.000217 64.267418 
L 415.000217 48.957591 
Q 415.000217 48.720217 406.66436 48.720217 
L 379.989618 48.720217 
Q 371.653761 48.720217 371.653761 48.957591 
L 371.653761 64.267418 
Q 371.653761 64.504792 379.989618 64.504792 
z
" clip-path="url(#pb6cfad14b4)" style="fill: #808989"/>
   </g>
   <g id="patch_16">
    <path d="M 324.417238 66.373302 
L 351.09198 66.373302 
Q 359.427837 66.373302 359.427837 66.135928 
L 359.427837 51.694977 
Q 359.427837 51.457603 351.09198 51.457603 
L 324.417238 51.457603 
Q 316.081381 51.457603 316.081381 51.694977 
L 316.081381 66.135928 
Q 316.081381 66.373302 324.417238 66.373302 
z
" clip-path="url(#pb6cfad14b4)" style="fill: #808989"/>
   </g>
   <g id="patch_17">
    <path d="M 268.844859 66.894634 
L 295.519601 66.894634 
Q 303.855458 66.894634 303.855458 66.65726 
L 303.855458 49.86675 
Q 303.855458 49.629377 295.519601 49.629377 
L 268.844859 49.629377 
Q 260.509002 49.629377 260.509002 49.86675 
L 260.509002 66.65726 
Q 260.509002 66.894634 268.844859 66.894634 
z
" clip-path="url(#pb6cfad14b4)" style="fill: #808989"/>
   </g>
   <g id="patch_18">
    <path d="M 213.27248 62.091308 
L 239.947222 62.091308 
Q 248.283079 62.091308 248.283079 61.853935 
L 248.283079 49.810778 
Q 248.283079 49.573404 239.947222 49.573404 
L 213.27248 49.573404 
Q 204.936623 49.573404 204.936623 49.810778 
L 204.936623 61.853935 
Q 204.936623 62.091308 213.27248 62.091308 
z
" clip-path="url(#pb6cfad14b4)" style="fill: #808989"/>
   </g>
   <g id="patch_19">
    <path d="M 157.7001 63.372227 
L 184.374842 63.372227 
Q 192.710699 63.372227 192.710699 63.134853 
L 192.710699 49.281538 
Q 192.710699 49.044164 184.374842 49.044164 
L 157.7001 49.044164 
Q 149.364243 49.044164 149.364243 49.281538 
L 149.364243 63.134853 
Q 149.364243 63.372227 157.7001 63.372227 
z
" clip-path="url(#pb6cfad14b4)" style="fill: #808989"/>
   </g>
   <g id="patch_20">
    <path d="M 102.127721 60.451765 
L 128.802463 60.451765 
Q 137.13832 60.451765 137.13832 60.214391 
L 137.13832 49.069499 
Q 137.13832 48.832126 128.802463 48.832126 
L 102.127721 48.832126 
Q 93.791864 48.832126 93.791864 49.069499 
L 93.791864 60.214391 
Q 93.791864 60.451765 102.127721 60.451765 
z
" clip-path="url(#pb6cfad14b4)" style="fill: #808989"/>
   </g>
   <g id="patch_21">
    <path d="M 546.706756 61.276883 
L 573.381498 61.276883 
Q 581.717355 61.276883 581.717355 61.039509 
L 581.717355 61.000113 
Q 581.717355 60.76274 573.381498 60.76274 
L 546.706756 60.76274 
Q 538.370899 60.76274 538.370899 61.000113 
L 538.370899 61.039509 
Q 538.370899 61.276883 546.706756 61.276883 
z
" clip-path="url(#pb6cfad14b4)" style="fill: #4f853d"/>
   </g>
   <g id="patch_22">
    <path d="M 491.134376 80.874684 
L 517.809118 80.874684 
Q 526.144975 80.874684 526.144975 80.63731 
L 526.144975 80.146853 
Q 526.144975 79.909479 517.809118 79.909479 
L 491.134376 79.909479 
Q 482.798519 79.909479 482.798519 80.146853 
L 482.798519 80.63731 
Q 482.798519 80.874684 491.134376 80.874684 
z
" clip-path="url(#pb6cfad14b4)" style="fill: #4f853d"/>
   </g>
   <g id="patch_23">
    <path d="M 435.561997 67.686451 
L 462.236739 67.686451 
Q 470.572596 67.686451 470.572596 67.449077 
L 470.572596 66.278451 
Q 470.572596 66.041077 462.236739 66.041077 
L 435.561997 66.041077 
Q 427.22614 66.041077 427.22614 66.278451 
L 427.22614 67.449077 
Q 427.22614 67.686451 435.561997 67.686451 
z
" clip-path="url(#pb6cfad14b4)" style="fill: #4f853d"/>
   </g>
   <g id="patch_24">
    <path d="M 379.989618 64.966206 
L 406.66436 64.966206 
Q 415.000217 64.966206 415.000217 64.728832 
L 415.000217 64.932064 
Q 415.000217 64.694691 406.66436 64.694691 
L 379.989618 64.694691 
Q 371.653761 64.694691 371.653761 64.932064 
L 371.653761 64.728832 
Q 371.653761 64.966206 379.989618 64.966206 
z
" clip-path="url(#pb6cfad14b4)" style="fill: #4f853d"/>
   </g>
   <g id="patch_25">
    <path d="M 324.417238 66.373302 
L 351.09198 66.373302 
Q 359.427837 66.373302 359.427837 66.135928 
L 359.427837 66.800574 
Q 359.427837 66.563201 351.09198 66.563201 
L 324.417238 66.563201 
Q 316.081381 66.563201 316.081381 66.800574 
L 316.081381 66.135928 
Q 316.081381 66.373302 324.417238 66.373302 
z
" clip-path="url(#pb6cfad14b4)" style="fill: #4f853d"/>
   </g>
   <g id="patch_26">
    <path d="M 268.844859 68.80596 
L 295.519601 68.80596 
Q 303.855458 68.80596 303.855458 68.568586 
L 303.855458 67.321906 
Q 303.855458 67.084533 295.519601 67.084533 
L 268.844859 67.084533 
Q 260.509002 67.084533 260.509002 67.321906 
L 260.509002 68.568586 
Q 260.509002 68.80596 268.844859 68.80596 
z
" clip-path="url(#pb6cfad14b4)" style="fill: #4f853d"/>
   </g>
   <g id="patch_27">
    <path d="M 213.27248 64.03544 
L 239.947222 64.03544 
Q 248.283079 64.03544 248.283079 63.798066 
L 248.283079 62.518581 
Q 248.283079 62.281207 239.947222 62.281207 
L 213.27248 62.281207 
Q 204.936623 62.281207 204.936623 62.518581 
L 204.936623 63.798066 
Q 204.936623 64.03544 213.27248 64.03544 
z
" clip-path="url(#pb6cfad14b4)" style="fill: #4f853d"/>
   </g>
   <g id="patch_28">
    <path d="M 157.7001 64.608604 
L 184.374842 64.608604 
Q 192.710699 64.608604 192.710699 64.371231 
L 192.710699 63.799499 
Q 192.710699 63.562126 184.374842 63.562126 
L 157.7001 63.562126 
Q 149.364243 63.562126 149.364243 63.799499 
L 149.364243 64.371231 
Q 149.364243 64.608604 157.7001 64.608604 
z
" clip-path="url(#pb6cfad14b4)" style="fill: #4f853d"/>
   </g>
   <g id="patch_29">
    <path d="M 102.127721 61.347908 
L 128.802463 61.347908 
Q 137.13832 61.347908 137.13832 61.110534 
L 137.13832 60.879038 
Q 137.13832 60.641664 128.802463 60.641664 
L 102.127721 60.641664 
Q 93.791864 60.641664 93.791864 60.879038 
L 93.791864 61.110534 
Q 93.791864 61.347908 102.127721 61.347908 
z
" clip-path="url(#pb6cfad14b4)" style="fill: #4f853d"/>
   </g>
   <g id="patch_30">
    <path d="M 546.706756 61.276883 
L 573.381498 61.276883 
Q 581.717355 61.276883 581.717355 61.039509 
L 581.717355 61.704155 
Q 581.717355 61.466781 573.381498 61.466781 
L 546.706756 61.466781 
Q 538.370899 61.466781 538.370899 61.704155 
L 538.370899 61.039509 
Q 538.370899 61.276883 546.706756 61.276883 
z
" clip-path="url(#pb6cfad14b4)" style="fill: #04979e"/>
   </g>
   <g id="patch_31">
    <path d="M 491.134376 80.874684 
L 517.809118 80.874684 
Q 526.144975 80.874684 526.144975 80.63731 
L 526.144975 81.301956 
Q 526.144975 81.064582 517.809118 81.064582 
L 491.134376 81.064582 
Q 482.798519 81.064582 482.798519 81.301956 
L 482.798519 80.63731 
Q 482.798519 80.874684 491.134376 80.874684 
z
" clip-path="url(#pb6cfad14b4)" style="fill: #04979e"/>
   </g>
   <g id="patch_32">
    <path d="M 435.561997 68.246671 
L 462.236739 68.246671 
Q 470.572596 68.246671 470.572596 68.009297 
L 470.572596 68.113724 
Q 470.572596 67.87635 462.236739 67.87635 
L 435.561997 67.87635 
Q 427.22614 67.87635 427.22614 68.113724 
L 427.22614 68.009297 
Q 427.22614 68.246671 435.561997 68.246671 
z
" clip-path="url(#pb6cfad14b4)" style="fill: #04979e"/>
   </g>
   <g id="patch_33">
    <path d="M 379.989618 64.966206 
L 406.66436 64.966206 
Q 415.000217 64.966206 415.000217 64.728832 
L 415.000217 65.393478 
Q 415.000217 65.156105 406.66436 65.156105 
L 379.989618 65.156105 
Q 371.653761 65.156105 371.653761 65.393478 
L 371.653761 64.728832 
Q 371.653761 64.966206 379.989618 64.966206 
z
" clip-path="url(#pb6cfad14b4)" style="fill: #04979e"/>
   </g>
   <g id="patch_34">
    <path d="M 324.417238 66.373302 
L 351.09198 66.373302 
Q 359.427837 66.373302 359.427837 66.135928 
L 359.427837 66.800574 
Q 359.427837 66.563201 351.09198 66.563201 
L 324.417238 66.563201 
Q 316.081381 66.563201 316.081381 66.800574 
L 316.081381 66.135928 
Q 316.081381 66.373302 324.417238 66.373302 
z
" clip-path="url(#pb6cfad14b4)" style="fill: #04979e"/>
   </g>
   <g id="patch_35">
    <path d="M 268.844859 69.014124 
L 295.519601 69.014124 
Q 303.855458 69.014124 303.855458 68.77675 
L 303.855458 69.233233 
Q 303.855458 68.995859 295.519601 68.995859 
L 268.844859 68.995859 
Q 260.509002 68.995859 260.509002 69.233233 
L 260.509002 68.77675 
Q 260.509002 69.014124 268.844859 69.014124 
z
" clip-path="url(#pb6cfad14b4)" style="fill: #04979e"/>
   </g>
   <g id="patch_36">
    <path d="M 213.27248 64.221569 
L 239.947222 64.221569 
Q 248.283079 64.221569 248.283079 63.984195 
L 248.283079 64.462712 
Q 248.283079 64.225338 239.947222 64.225338 
L 213.27248 64.225338 
Q 204.936623 64.225338 204.936623 64.462712 
L 204.936623 63.984195 
Q 204.936623 64.221569 213.27248 64.221569 
z
" clip-path="url(#pb6cfad14b4)" style="fill: #04979e"/>
   </g>
   <g id="patch_37">
    <path d="M 157.7001 64.876637 
L 184.374842 64.876637 
Q 192.710699 64.876637 192.710699 64.639263 
L 192.710699 65.035877 
Q 192.710699 64.798503 184.374842 64.798503 
L 157.7001 64.798503 
Q 149.364243 64.798503 149.364243 65.035877 
L 149.364243 64.639263 
Q 149.364243 64.876637 157.7001 64.876637 
z
" clip-path="url(#pb6cfad14b4)" style="fill: #04979e"/>
   </g>
   <g id="patch_38">
    <path d="M 102.127721 61.406565 
L 128.802463 61.406565 
Q 137.13832 61.406565 137.13832 61.169191 
L 137.13832 61.775181 
Q 137.13832 61.537807 128.802463 61.537807 
L 102.127721 61.537807 
Q 93.791864 61.537807 93.791864 61.775181 
L 93.791864 61.169191 
Q 93.791864 61.406565 102.127721 61.406565 
z
" clip-path="url(#pb6cfad14b4)" style="fill: #04979e"/>
   </g>
   <g id="patch_39">
    <path d="M 546.706756 61.809207 
L 573.381498 61.809207 
Q 581.717355 61.809207 581.717355 61.571833 
L 581.717355 61.704155 
Q 581.717355 61.466781 573.381498 61.466781 
L 546.706756 61.466781 
Q 538.370899 61.466781 538.370899 61.704155 
L 538.370899 61.571833 
Q 538.370899 61.809207 546.706756 61.809207 
z
" clip-path="url(#pb6cfad14b4)" style="fill: #d6d0d3"/>
   </g>
   <g id="patch_40">
    <path d="M 491.134376 80.874684 
L 517.809118 80.874684 
Q 526.144975 80.874684 526.144975 80.63731 
L 526.144975 81.301956 
Q 526.144975 81.064582 517.809118 81.064582 
L 491.134376 81.064582 
Q 482.798519 81.064582 482.798519 81.301956 
L 482.798519 80.63731 
Q 482.798519 80.874684 491.134376 80.874684 
z
" clip-path="url(#pb6cfad14b4)" style="fill: #d6d0d3"/>
   </g>
   <g id="patch_41">
    <path d="M 435.561997 68.843034 
L 462.236739 68.843034 
Q 470.572596 68.843034 470.572596 68.605661 
L 470.572596 68.673944 
Q 470.572596 68.43657 462.236739 68.43657 
L 435.561997 68.43657 
Q 427.22614 68.43657 427.22614 68.673944 
L 427.22614 68.605661 
Q 427.22614 68.843034 435.561997 68.843034 
z
" clip-path="url(#pb6cfad14b4)" style="fill: #d6d0d3"/>
   </g>
   <g id="patch_42">
    <path d="M 379.989618 65.753792 
L 406.66436 65.753792 
Q 415.000217 65.753792 415.000217 65.516418 
L 415.000217 65.393478 
Q 415.000217 65.156105 406.66436 65.156105 
L 379.989618 65.156105 
Q 371.653761 65.156105 371.653761 65.393478 
L 371.653761 65.516418 
Q 371.653761 65.753792 379.989618 65.753792 
z
" clip-path="url(#pb6cfad14b4)" style="fill: #d6d0d3"/>
   </g>
   <g id="patch_43">
    <path d="M 324.417238 66.373302 
L 351.09198 66.373302 
Q 359.427837 66.373302 359.427837 66.135928 
L 359.427837 66.800574 
Q 359.427837 66.563201 351.09198 66.563201 
L 324.417238 66.563201 
Q 316.081381 66.563201 316.081381 66.800574 
L 316.081381 66.135928 
Q 316.081381 66.373302 324.417238 66.373302 
z
" clip-path="url(#pb6cfad14b4)" style="fill: #d6d0d3"/>
   </g>
   <g id="patch_44">
    <path d="M 268.844859 70.306965 
L 295.519601 70.306965 
Q 303.855458 70.306965 303.855458 70.069591 
L 303.855458 69.441397 
Q 303.855458 69.204023 295.519601 69.204023 
L 268.844859 69.204023 
Q 260.509002 69.204023 260.509002 69.441397 
L 260.509002 70.069591 
Q 260.509002 70.306965 268.844859 70.306965 
z
" clip-path="url(#pb6cfad14b4)" style="fill: #d6d0d3"/>
   </g>
   <g id="patch_45">
    <path d="M 213.27248 65.077655 
L 239.947222 65.077655 
Q 248.283079 65.077655 248.283079 64.840281 
L 248.283079 64.648842 
Q 248.283079 64.411468 239.947222 64.411468 
L 213.27248 64.411468 
Q 204.936623 64.411468 204.936623 64.648842 
L 204.936623 64.840281 
Q 204.936623 65.077655 213.27248 65.077655 
z
" clip-path="url(#pb6cfad14b4)" style="fill: #d6d0d3"/>
   </g>
   <g id="patch_46">
    <path d="M 157.7001 65.351333 
L 184.374842 65.351333 
Q 192.710699 65.351333 192.710699 65.11396 
L 192.710699 65.303909 
Q 192.710699 65.066535 184.374842 65.066535 
L 157.7001 65.066535 
Q 149.364243 65.066535 149.364243 65.303909 
L 149.364243 65.11396 
Q 149.364243 65.351333 157.7001 65.351333 
z
" clip-path="url(#pb6cfad14b4)" style="fill: #d6d0d3"/>
   </g>
   <g id="patch_47">
    <path d="M 102.127721 61.527137 
L 128.802463 61.527137 
Q 137.13832 61.527137 137.13832 61.289763 
L 137.13832 61.833837 
Q 137.13832 61.596464 128.802463 61.596464 
L 102.127721 61.596464 
Q 93.791864 61.596464 93.791864 61.833837 
L 93.791864 61.289763 
Q 93.791864 61.527137 102.127721 61.527137 
z
" clip-path="url(#pb6cfad14b4)" style="fill: #d6d0d3"/>
   </g>
   <g id="patch_48">
    <path d="M 546.706756 205.920251 
L 573.381498 205.920251 
Q 581.717355 205.920251 581.717355 205.682877 
L 581.717355 62.236479 
Q 581.717355 61.999106 573.381498 61.999106 
L 546.706756 61.999106 
Q 538.370899 61.999106 538.370899 62.236479 
L 538.370899 205.682877 
Q 538.370899 205.920251 546.706756 205.920251 
z
" clip-path="url(#pb6cfad14b4)" style="fill: #064460"/>
   </g>
   <g id="patch_49">
    <path d="M 491.134376 205.920251 
L 517.809118 205.920251 
Q 526.144975 205.920251 526.144975 205.682877 
L 526.144975 81.301956 
Q 526.144975 81.064582 517.809118 81.064582 
L 491.134376 81.064582 
Q 482.798519 81.064582 482.798519 81.301956 
L 482.798519 205.682877 
Q 482.798519 205.920251 491.134376 205.920251 
z
" clip-path="url(#pb6cfad14b4)" style="fill: #064460"/>
   </g>
   <g id="patch_50">
    <path d="M 435.561997 205.920251 
L 462.236739 205.920251 
Q 470.572596 205.920251 470.572596 205.682877 
L 470.572596 69.270307 
Q 470.572596 69.032933 462.236739 69.032933 
L 435.561997 69.032933 
Q 427.22614 69.032933 427.22614 69.270307 
L 427.22614 205.682877 
Q 427.22614 205.920251 435.561997 205.920251 
z
" clip-path="url(#pb6cfad14b4)" style="fill: #064460"/>
   </g>
   <g id="patch_51">
    <path d="M 379.989618 205.920251 
L 406.66436 205.920251 
Q 415.000217 205.920251 415.000217 205.682877 
L 415.000217 66.181064 
Q 415.000217 65.943691 406.66436 65.943691 
L 379.989618 65.943691 
Q 371.653761 65.943691 371.653761 66.181064 
L 371.653761 205.682877 
Q 371.653761 205.920251 379.989618 205.920251 
z
" clip-path="url(#pb6cfad14b4)" style="fill: #064460"/>
   </g>
   <g id="patch_52">
    <path d="M 324.417238 205.920251 
L 351.09198 205.920251 
Q 359.427837 205.920251 359.427837 205.682877 
L 359.427837 66.800574 
Q 359.427837 66.563201 351.09198 66.563201 
L 324.417238 66.563201 
Q 316.081381 66.563201 316.081381 66.800574 
L 316.081381 205.682877 
Q 316.081381 205.920251 324.417238 205.920251 
z
" clip-path="url(#pb6cfad14b4)" style="fill: #064460"/>
   </g>
   <g id="patch_53">
    <path d="M 268.844859 205.920251 
L 295.519601 205.920251 
Q 303.855458 205.920251 303.855458 205.682877 
L 303.855458 70.734238 
Q 303.855458 70.496864 295.519601 70.496864 
L 268.844859 70.496864 
Q 260.509002 70.496864 260.509002 70.734238 
L 260.509002 205.682877 
Q 260.509002 205.920251 268.844859 205.920251 
z
" clip-path="url(#pb6cfad14b4)" style="fill: #064460"/>
   </g>
   <g id="patch_54">
    <path d="M 213.27248 205.920251 
L 239.947222 205.920251 
Q 248.283079 205.920251 248.283079 205.682877 
L 248.283079 65.504927 
Q 248.283079 65.267554 239.947222 65.267554 
L 213.27248 65.267554 
Q 204.936623 65.267554 204.936623 65.504927 
L 204.936623 205.682877 
Q 204.936623 205.920251 213.27248 205.920251 
z
" clip-path="url(#pb6cfad14b4)" style="fill: #064460"/>
   </g>
   <g id="patch_55">
    <path d="M 157.7001 205.920251 
L 184.374842 205.920251 
Q 192.710699 205.920251 192.710699 205.682877 
L 192.710699 65.778606 
Q 192.710699 65.541232 184.374842 65.541232 
L 157.7001 65.541232 
Q 149.364243 65.541232 149.364243 65.778606 
L 149.364243 205.682877 
Q 149.364243 205.920251 157.7001 205.920251 
z
" clip-path="url(#pb6cfad14b4)" style="fill: #064460"/>
   </g>
   <g id="patch_56">
    <path d="M 102.127721 205.920251 
L 128.802463 205.920251 
Q 137.13832 205.920251 137.13832 205.682877 
L 137.13832 61.954409 
Q 137.13832 61.717036 128.802463 61.717036 
L 102.127721 61.717036 
Q 93.791864 61.717036 93.791864 61.954409 
L 93.791864 205.682877 
Q 93.791864 205.920251 102.127721 205.920251 
z
" clip-path="url(#pb6cfad14b4)" style="fill: #064460"/>
   </g>
   <g id="text_18">
    <!-- Comparative Means of Transportation to Work -->
    <g style="fill: #00263e" transform="translate(166.183672 19.504687) scale(0.18 -0.18)">
     <defs>
      <path id="Calibri-57" d="M 4409 119 
Q 4397 75 4372 48 
Q 4347 22 4303 8 
Q 4259 -6 4195 -12 
Q 4131 -19 4038 -19 
Q 3941 -19 3873 -12 
Q 3806 -6 3762 8 
Q 3719 22 3697 48 
Q 3675 75 3663 119 
L 2816 3172 
L 2809 3172 
L 2028 119 
Q 2019 75 1997 48 
Q 1975 22 1934 8 
Q 1894 -6 1830 -12 
Q 1766 -19 1666 -19 
Q 1563 -19 1494 -12 
Q 1425 -6 1381 8 
Q 1338 22 1314 48 
Q 1291 75 1281 119 
L 213 3853 
Q 194 3925 192 3965 
Q 191 4006 217 4028 
Q 244 4050 303 4056 
Q 363 4063 463 4063 
Q 559 4063 615 4058 
Q 672 4053 701 4040 
Q 731 4028 742 4006 
Q 753 3984 759 3950 
L 1669 563 
L 1672 563 
L 2534 3944 
Q 2544 3978 2558 4001 
Q 2572 4025 2603 4037 
Q 2634 4050 2692 4056 
Q 2750 4063 2844 4063 
Q 2931 4063 2982 4056 
Q 3034 4050 3065 4037 
Q 3097 4025 3111 4001 
Q 3125 3978 3134 3944 
L 4063 563 
L 4069 563 
L 4959 3947 
Q 4969 3978 4978 4001 
Q 4988 4025 5017 4037 
Q 5047 4050 5101 4056 
Q 5156 4063 5247 4063 
Q 5341 4063 5395 4055 
Q 5450 4047 5475 4025 
Q 5500 4003 5498 3962 
Q 5497 3922 5481 3850 
L 4409 119 
z
" transform="scale(0.015625)"/>
      <path id="Calibri-6b" d="M 2788 81 
Q 2788 56 2775 37 
Q 2763 19 2733 6 
Q 2703 -6 2650 -12 
Q 2597 -19 2516 -19 
Q 2431 -19 2376 -14 
Q 2322 -9 2284 2 
Q 2247 13 2223 33 
Q 2200 53 2181 81 
L 994 1638 
L 994 78 
Q 994 53 981 36 
Q 969 19 941 6 
Q 913 -6 863 -12 
Q 813 -19 734 -19 
Q 659 -19 609 -12 
Q 559 -6 529 6 
Q 500 19 489 36 
Q 478 53 478 78 
L 478 4253 
Q 478 4278 489 4297 
Q 500 4316 529 4328 
Q 559 4341 609 4347 
Q 659 4353 734 4353 
Q 813 4353 863 4347 
Q 913 4341 941 4328 
Q 969 4316 981 4297 
Q 994 4278 994 4253 
L 994 1709 
L 2056 2878 
Q 2081 2909 2109 2929 
Q 2138 2950 2177 2964 
Q 2216 2978 2269 2983 
Q 2322 2988 2397 2988 
Q 2475 2988 2528 2983 
Q 2581 2978 2614 2967 
Q 2647 2956 2661 2939 
Q 2675 2922 2675 2894 
Q 2675 2856 2654 2818 
Q 2634 2781 2588 2731 
L 1569 1713 
L 2713 228 
Q 2753 175 2770 142 
Q 2788 109 2788 81 
z
" transform="scale(0.015625)"/>
     </defs>
     <use xlink:href="#Calibri-43"/>
     <use xlink:href="#Calibri-6f" x="53.320312"/>
     <use xlink:href="#Calibri-6d" x="106.054688"/>
     <use xlink:href="#Calibri-70" x="185.9375"/>
     <use xlink:href="#Calibri-61" x="238.476562"/>
     <use xlink:href="#Calibri-72" x="286.376953"/>
     <use xlink:href="#Calibri-61" x="321.240234"/>
     <use xlink:href="#Calibri-74" x="369.140625"/>
     <use xlink:href="#Calibri-69" x="402.636719"/>
     <use xlink:href="#Calibri-76" x="425.585938"/>
     <use xlink:href="#Calibri-65" x="470.751953"/>
     <use xlink:href="#Calibri-20" x="520.507812"/>
     <use xlink:href="#Calibri-4d" x="543.115234"/>
     <use xlink:href="#Calibri-65" x="628.613281"/>
     <use xlink:href="#Calibri-61" x="678.369141"/>
     <use xlink:href="#Calibri-6e" x="726.269531"/>
     <use xlink:href="#Calibri-73" x="778.808594"/>
     <use xlink:href="#Calibri-20" x="817.919922"/>
     <use xlink:href="#Calibri-6f" x="840.527344"/>
     <use xlink:href="#Calibri-66" x="893.261719"/>
     <use xlink:href="#Calibri-20" x="923.779297"/>
     <use xlink:href="#Calibri-54" x="946.386719"/>
     <use xlink:href="#Calibri-72" x="995.117188"/>
     <use xlink:href="#Calibri-61" x="1029.980469"/>
     <use xlink:href="#Calibri-6e" x="1077.880859"/>
     <use xlink:href="#Calibri-73" x="1130.419922"/>
     <use xlink:href="#Calibri-70" x="1169.53125"/>
     <use xlink:href="#Calibri-6f" x="1222.070312"/>
     <use xlink:href="#Calibri-72" x="1274.804688"/>
     <use xlink:href="#Calibri-74" x="1309.667969"/>
     <use xlink:href="#Calibri-61" x="1343.164062"/>
     <use xlink:href="#Calibri-74" x="1391.064453"/>
     <use xlink:href="#Calibri-69" x="1424.560547"/>
     <use xlink:href="#Calibri-6f" x="1447.509766"/>
     <use xlink:href="#Calibri-6e" x="1500.244141"/>
     <use xlink:href="#Calibri-20" x="1552.783203"/>
     <use xlink:href="#Calibri-74" x="1575.390625"/>
     <use xlink:href="#Calibri-6f" x="1608.886719"/>
     <use xlink:href="#Calibri-20" x="1661.621094"/>
     <use xlink:href="#Calibri-57" x="1684.228516"/>
     <use xlink:href="#Calibri-6f" x="1773.193359"/>
     <use xlink:href="#Calibri-72" x="1825.927734"/>
     <use xlink:href="#Calibri-6b" x="1860.791016"/>
    </g>
   </g>
   <g id="legend_1">
    <g id="patch_57">
     <path d="M 592.478727 63.579906 
L 614.478727 63.579906 
L 614.478727 55.879906 
L 592.478727 55.879906 
z
" style="fill: #0c2428"/>
    </g>
    <g id="text_19">
     <!-- Taxi, -->
     <g style="fill: #00263e" transform="translate(623.278727 56.886406) scale(0.11 -0.11)">
      <defs>
       <path id="Calibri-78" d="M 2609 138 
Q 2634 94 2634 64 
Q 2634 34 2604 15 
Q 2575 -3 2514 -11 
Q 2453 -19 2356 -19 
Q 2263 -19 2208 -14 
Q 2153 -9 2120 2 
Q 2088 13 2070 30 
Q 2053 47 2041 69 
L 1366 1184 
L 694 69 
Q 681 47 664 30 
Q 647 13 614 2 
Q 581 -9 528 -14 
Q 475 -19 388 -19 
Q 297 -19 239 -11 
Q 181 -3 154 15 
Q 128 34 129 64 
Q 131 94 159 138 
L 1034 1509 
L 206 2831 
Q 181 2875 179 2904 
Q 178 2934 208 2954 
Q 238 2975 298 2981 
Q 359 2988 459 2988 
Q 550 2988 604 2983 
Q 659 2978 690 2968 
Q 722 2959 737 2943 
Q 753 2928 766 2906 
L 1406 1859 
L 2056 2906 
Q 2069 2925 2084 2940 
Q 2100 2956 2126 2967 
Q 2153 2978 2201 2983 
Q 2250 2988 2334 2988 
Q 2425 2988 2483 2981 
Q 2541 2975 2569 2958 
Q 2597 2941 2594 2909 
Q 2591 2878 2563 2831 
L 1741 1525 
L 2609 138 
z
" transform="scale(0.015625)"/>
       <path id="Calibri-2c" d="M 1159 447 
Q 1159 350 1150 269 
Q 1141 188 1119 116 
Q 1097 44 1061 -26 
Q 1025 -97 972 -175 
L 544 -819 
Q 528 -841 508 -856 
Q 488 -872 458 -884 
Q 428 -897 389 -901 
Q 350 -906 291 -906 
Q 238 -906 202 -901 
Q 166 -897 150 -886 
Q 134 -875 132 -856 
Q 131 -838 144 -813 
L 559 47 
L 559 447 
Q 559 531 576 581 
Q 594 631 631 656 
Q 669 681 725 690 
Q 781 700 863 700 
Q 941 700 997 690 
Q 1053 681 1089 656 
Q 1125 631 1142 581 
Q 1159 531 1159 447 
z
" transform="scale(0.015625)"/>
      </defs>
      <use xlink:href="#Calibri-54"/>
      <use xlink:href="#Calibri-61" x="48.730469"/>
      <use xlink:href="#Calibri-78" x="96.630859"/>
      <use xlink:href="#Calibri-69" x="139.941406"/>
      <use xlink:href="#Calibri-2c" x="162.890625"/>
     </g>
     <!-- Motorcyle/Other -->
     <g style="fill: #00263e" transform="translate(623.278727 68.317469) scale(0.11 -0.11)">
      <defs>
       <path id="Calibri-2f" d="M 525 -753 
Q 513 -794 492 -817 
Q 472 -841 440 -853 
Q 409 -866 364 -872 
Q 319 -878 253 -878 
Q 175 -878 123 -867 
Q 72 -856 44 -836 
Q 16 -816 9 -786 
Q 3 -756 22 -716 
L 1913 4469 
Q 1925 4509 1945 4532 
Q 1966 4556 1995 4570 
Q 2025 4584 2072 4589 
Q 2119 4594 2184 4594 
Q 2263 4594 2313 4583 
Q 2363 4572 2391 4553 
Q 2419 4534 2425 4503 
Q 2431 4472 2416 4431 
L 525 -753 
z
" transform="scale(0.015625)"/>
       <path id="Calibri-4f" d="M 3925 2069 
Q 3925 1578 3809 1184 
Q 3694 791 3464 514 
Q 3234 238 2887 89 
Q 2541 -59 2078 -59 
Q 1622 -59 1289 77 
Q 956 213 739 472 
Q 522 731 415 1115 
Q 309 1500 309 2000 
Q 309 2478 425 2868 
Q 541 3259 772 3532 
Q 1003 3806 1350 3954 
Q 1697 4103 2159 4103 
Q 2606 4103 2937 3968 
Q 3269 3834 3489 3576 
Q 3709 3319 3817 2939 
Q 3925 2559 3925 2069 
z
M 3359 2031 
Q 3359 2375 3298 2670 
Q 3238 2966 3095 3183 
Q 2953 3400 2715 3522 
Q 2478 3644 2128 3644 
Q 1778 3644 1540 3512 
Q 1303 3381 1154 3162 
Q 1006 2944 942 2651 
Q 878 2359 878 2038 
Q 878 1681 937 1381 
Q 997 1081 1137 864 
Q 1278 647 1514 526 
Q 1750 406 2106 406 
Q 2459 406 2700 537 
Q 2941 669 3087 892 
Q 3234 1116 3296 1409 
Q 3359 1703 3359 2031 
z
" transform="scale(0.015625)"/>
      </defs>
      <use xlink:href="#Calibri-4d"/>
      <use xlink:href="#Calibri-6f" x="85.498047"/>
      <use xlink:href="#Calibri-74" x="138.232422"/>
      <use xlink:href="#Calibri-6f" x="171.728516"/>
      <use xlink:href="#Calibri-72" x="224.462891"/>
      <use xlink:href="#Calibri-63" x="259.326172"/>
      <use xlink:href="#Calibri-79" x="301.611328"/>
      <use xlink:href="#Calibri-6c" x="346.875"/>
      <use xlink:href="#Calibri-65" x="369.824219"/>
      <use xlink:href="#Calibri-2f" x="419.580078"/>
      <use xlink:href="#Calibri-4f" x="458.203125"/>
      <use xlink:href="#Calibri-74" x="524.414062"/>
      <use xlink:href="#Calibri-68" x="557.910156"/>
      <use xlink:href="#Calibri-65" x="610.449219"/>
      <use xlink:href="#Calibri-72" x="660.205078"/>
     </g>
    </g>
    <g id="patch_58">
     <path d="M 592.478727 89.700094 
L 614.478727 89.700094 
L 614.478727 82.000094 
L 592.478727 82.000094 
z
" style="fill: #808989"/>
    </g>
    <g id="text_20">
     <!-- Worked from -->
     <g style="fill: #00263e" transform="translate(623.278727 83.255125) scale(0.11 -0.11)">
      <use xlink:href="#Calibri-57"/>
      <use xlink:href="#Calibri-6f" x="88.964844"/>
      <use xlink:href="#Calibri-72" x="141.699219"/>
      <use xlink:href="#Calibri-6b" x="176.5625"/>
      <use xlink:href="#Calibri-65" x="222.021484"/>
      <use xlink:href="#Calibri-64" x="271.777344"/>
      <use xlink:href="#Calibri-20" x="324.316406"/>
      <use xlink:href="#Calibri-66" x="346.923828"/>
      <use xlink:href="#Calibri-72" x="377.441406"/>
      <use xlink:href="#Calibri-6f" x="412.304688"/>
      <use xlink:href="#Calibri-6d" x="465.039062"/>
     </g>
     <!-- Home -->
     <g style="fill: #00263e" transform="translate(623.278727 94.189125) scale(0.11 -0.11)">
      <defs>
       <path id="Calibri-48" d="M 3450 81 
Q 3450 56 3437 37 
Q 3425 19 3394 8 
Q 3363 -3 3311 -11 
Q 3259 -19 3184 -19 
Q 3103 -19 3053 -11 
Q 3003 -3 2972 8 
Q 2941 19 2928 37 
Q 2916 56 2916 81 
L 2916 1875 
L 1075 1875 
L 1075 81 
Q 1075 56 1062 37 
Q 1050 19 1019 8 
Q 988 -3 936 -11 
Q 884 -19 806 -19 
Q 731 -19 678 -11 
Q 625 -3 594 8 
Q 563 19 550 37 
Q 538 56 538 81 
L 538 3963 
Q 538 3988 550 4006 
Q 563 4025 594 4036 
Q 625 4047 678 4055 
Q 731 4063 806 4063 
Q 884 4063 936 4055 
Q 988 4047 1019 4036 
Q 1050 4025 1062 4006 
Q 1075 3988 1075 3963 
L 1075 2344 
L 2916 2344 
L 2916 3963 
Q 2916 3988 2928 4006 
Q 2941 4025 2972 4036 
Q 3003 4047 3053 4055 
Q 3103 4063 3184 4063 
Q 3259 4063 3311 4055 
Q 3363 4047 3394 4036 
Q 3425 4025 3437 4006 
Q 3450 3988 3450 3963 
L 3450 81 
z
" transform="scale(0.015625)"/>
      </defs>
      <use xlink:href="#Calibri-48"/>
      <use xlink:href="#Calibri-6f" x="62.304688"/>
      <use xlink:href="#Calibri-6d" x="115.039062"/>
      <use xlink:href="#Calibri-65" x="194.921875"/>
     </g>
    </g>
    <g id="patch_59">
     <path d="M 592.478727 109.345062 
L 614.478727 109.345062 
L 614.478727 101.645062 
L 592.478727 101.645062 
z
" style="fill: #4f853d"/>
    </g>
    <g id="text_21">
     <!-- Walk -->
     <g style="fill: #00263e" transform="translate(623.278727 109.345062) scale(0.11 -0.11)">
      <use xlink:href="#Calibri-57"/>
      <use xlink:href="#Calibri-61" x="88.964844"/>
      <use xlink:href="#Calibri-6c" x="136.865234"/>
      <use xlink:href="#Calibri-6b" x="159.814453"/>
     </g>
    </g>
    <g id="patch_60">
     <path d="M 592.478727 124.501 
L 614.478727 124.501 
L 614.478727 116.801 
L 592.478727 116.801 
z
" style="fill: #04979e"/>
    </g>
    <g id="text_22">
     <!-- Bicycle -->
     <g style="fill: #00263e" transform="translate(623.278727 124.501) scale(0.11 -0.11)">
      <defs>
       <path id="Calibri-42" d="M 3203 1159 
Q 3203 969 3154 808 
Q 3106 647 3018 519 
Q 2931 391 2807 294 
Q 2684 197 2529 131 
Q 2375 66 2198 33 
Q 2022 0 1794 0 
L 738 0 
Q 666 0 602 48 
Q 538 97 538 219 
L 538 3825 
Q 538 3947 602 3995 
Q 666 4044 738 4044 
L 1656 4044 
Q 2019 4044 2250 3975 
Q 2481 3906 2636 3775 
Q 2791 3644 2869 3453 
Q 2947 3263 2947 3022 
Q 2947 2878 2912 2747 
Q 2878 2616 2811 2505 
Q 2744 2394 2642 2306 
Q 2541 2219 2409 2163 
Q 2575 2131 2719 2048 
Q 2863 1966 2970 1837 
Q 3078 1709 3140 1537 
Q 3203 1366 3203 1159 
z
M 2394 2969 
Q 2394 3116 2353 3234 
Q 2313 3353 2225 3436 
Q 2138 3519 1997 3562 
Q 1856 3606 1625 3606 
L 1069 3606 
L 1069 2297 
L 1681 2297 
Q 1891 2297 2019 2351 
Q 2147 2406 2231 2498 
Q 2316 2591 2355 2714 
Q 2394 2838 2394 2969 
z
M 2638 1128 
Q 2638 1309 2580 1446 
Q 2522 1584 2411 1678 
Q 2300 1772 2133 1820 
Q 1966 1869 1713 1869 
L 1069 1869 
L 1069 444 
L 1850 444 
Q 2034 444 2171 487 
Q 2309 531 2414 617 
Q 2519 703 2578 831 
Q 2638 959 2638 1128 
z
" transform="scale(0.015625)"/>
      </defs>
      <use xlink:href="#Calibri-42"/>
      <use xlink:href="#Calibri-69" x="54.394531"/>
      <use xlink:href="#Calibri-63" x="77.34375"/>
      <use xlink:href="#Calibri-79" x="119.628906"/>
      <use xlink:href="#Calibri-63" x="164.892578"/>
      <use xlink:href="#Calibri-6c" x="207.177734"/>
      <use xlink:href="#Calibri-65" x="230.126953"/>
     </g>
    </g>
    <g id="patch_61">
     <path d="M 592.478727 145.883625 
L 614.478727 145.883625 
L 614.478727 138.183625 
L 592.478727 138.183625 
z
" style="fill: #d6d0d3"/>
    </g>
    <g id="text_23">
     <!-- Public  -->
     <g style="fill: #00263e" transform="translate(623.278727 139.438656) scale(0.11 -0.11)">
      <defs>
       <path id="Calibri-50" d="M 3022 2859 
Q 3022 2556 2922 2312 
Q 2822 2069 2636 1897 
Q 2450 1725 2179 1631 
Q 1909 1538 1534 1538 
L 1075 1538 
L 1075 81 
Q 1075 56 1061 37 
Q 1047 19 1017 8 
Q 988 -3 936 -11 
Q 884 -19 806 -19 
Q 728 -19 676 -11 
Q 625 -3 594 8 
Q 563 19 550 37 
Q 538 56 538 81 
L 538 3813 
Q 538 3938 603 3991 
Q 669 4044 750 4044 
L 1616 4044 
Q 1747 4044 1867 4033 
Q 1988 4022 2152 3986 
Q 2316 3950 2486 3851 
Q 2656 3753 2775 3609 
Q 2894 3466 2958 3277 
Q 3022 3088 3022 2859 
z
M 2456 2816 
Q 2456 3063 2364 3228 
Q 2272 3394 2136 3475 
Q 2000 3556 1854 3578 
Q 1709 3600 1572 3600 
L 1075 3600 
L 1075 1978 
L 1559 1978 
Q 1803 1978 1964 2040 
Q 2125 2103 2234 2214 
Q 2344 2325 2400 2479 
Q 2456 2634 2456 2816 
z
" transform="scale(0.015625)"/>
      </defs>
      <use xlink:href="#Calibri-50"/>
      <use xlink:href="#Calibri-75" x="51.660156"/>
      <use xlink:href="#Calibri-62" x="104.199219"/>
      <use xlink:href="#Calibri-6c" x="156.738281"/>
      <use xlink:href="#Calibri-69" x="179.6875"/>
      <use xlink:href="#Calibri-63" x="202.636719"/>
      <use xlink:href="#Calibri-20" x="244.921875"/>
     </g>
     <!-- Transportation -->
     <g style="fill: #00263e" transform="translate(623.278727 150.372656) scale(0.11 -0.11)">
      <use xlink:href="#Calibri-54"/>
      <use xlink:href="#Calibri-72" x="48.730469"/>
      <use xlink:href="#Calibri-61" x="83.59375"/>
      <use xlink:href="#Calibri-6e" x="131.494141"/>
      <use xlink:href="#Calibri-73" x="184.033203"/>
      <use xlink:href="#Calibri-70" x="223.144531"/>
      <use xlink:href="#Calibri-6f" x="275.683594"/>
      <use xlink:href="#Calibri-72" x="328.417969"/>
      <use xlink:href="#Calibri-74" x="363.28125"/>
      <use xlink:href="#Calibri-61" x="396.777344"/>
      <use xlink:href="#Calibri-74" x="444.677734"/>
      <use xlink:href="#Calibri-69" x="478.173828"/>
      <use xlink:href="#Calibri-6f" x="501.123047"/>
      <use xlink:href="#Calibri-6e" x="553.857422"/>
     </g>
    </g>
    <g id="patch_62">
     <path d="M 592.478727 171.755281 
L 614.478727 171.755281 
L 614.478727 164.055281 
L 592.478727 164.055281 
z
" style="fill: #064460"/>
    </g>
    <g id="text_24">
     <!-- Car, Truck -->
     <g style="fill: #00263e" transform="translate(623.278727 165.310312) scale(0.11 -0.11)">
      <use xlink:href="#Calibri-43"/>
      <use xlink:href="#Calibri-61" x="53.320312"/>
      <use xlink:href="#Calibri-72" x="101.220703"/>
      <use xlink:href="#Calibri-2c" x="136.083984"/>
      <use xlink:href="#Calibri-20" x="161.035156"/>
      <use xlink:href="#Calibri-54" x="183.642578"/>
      <use xlink:href="#Calibri-72" x="232.373047"/>
      <use xlink:href="#Calibri-75" x="267.236328"/>
      <use xlink:href="#Calibri-63" x="319.775391"/>
      <use xlink:href="#Calibri-6b" x="362.060547"/>
     </g>
     <!-- or Van -->
     <g style="fill: #00263e" transform="translate(623.278727 176.244312) scale(0.11 -0.11)">
      <use xlink:href="#Calibri-6f"/>
      <use xlink:href="#Calibri-72" x="52.734375"/>
      <use xlink:href="#Calibri-20" x="87.597656"/>
      <use xlink:href="#Calibri-56" x="110.205078"/>
      <use xlink:href="#Calibri-61" x="166.943359"/>
      <use xlink:href="#Calibri-6e" x="214.84375"/>
     </g>
    </g>
   </g>
  </g>
 </g>
 <defs>
  <clipPath id="pb6cfad14b4">
   <rect x="65.727812" y="39.504687" width="544.053594" height="174.439585"/>
  </clipPath>
 </defs>
</svg>
