<?xml version="1.0" encoding="utf-8" standalone="no"?>
<!DOCTYPE svg PUBLIC "-//W3C//DTD SVG 1.1//EN"
  "http://www.w3.org/Graphics/SVG/1.1/DTD/svg11.dtd">
<svg xmlns:xlink="http://www.w3.org/1999/xlink" width="714.961508pt" height="350.64pt" viewBox="0 0 714.961508 350.64" xmlns="http://www.w3.org/2000/svg" version="1.1">
 <metadata>
  <rdf:RDF xmlns:dc="http://purl.org/dc/elements/1.1/" xmlns:cc="http://creativecommons.org/ns#" xmlns:rdf="http://www.w3.org/1999/02/22-rdf-syntax-ns#">
   <cc:Work>
    <dc:type rdf:resource="http://purl.org/dc/dcmitype/StillImage"/>
    <dc:date>2023-04-27T12:18:47.651881</dc:date>
    <dc:format>image/svg+xml</dc:format>
    <dc:creator>
     <cc:Agent>
      <dc:title>Matplotlib v3.5.2, https://matplotlib.org/</dc:title>
     </cc:Agent>
    </dc:creator>
   </cc:Work>
  </rdf:RDF>
 </metadata>
 <defs>
  <style type="text/css">*{stroke-linejoin: round; stroke-linecap: butt}</style>
 </defs>
 <g id="figure_1">
  <g id="patch_1">
   <path d="M 0 350.64 
L 714.961508 350.64 
L 714.961508 0 
L 0 0 
L 0 350.64 
z
" style="fill: none"/>
  </g>
  <g id="axes_1">
   <g id="patch_2">
    <path d="M 67.488438 283.342727 
L 539.058281 283.342727 
L 539.058281 39.442812 
L 67.488438 39.442812 
L 67.488438 283.342727 
z
" style="fill: none"/>
   </g>
   <g id="matplotlib.axis_1">
    <g id="xtick_1">
     <g id="line2d_1">
      <defs>
       <path id="m7c95a85292" d="M 0 0 
L 0 8 
" style="stroke: #7b7e85; stroke-width: 0.8"/>
      </defs>
      <g>
       <use xlink:href="#m7c95a85292" x="97.732332" y="283.342727" style="fill: #7b7e85; stroke: #7b7e85; stroke-width: 0.8"/>
      </g>
     </g>
     <g id="text_1">
      <!-- 2001 -->
      <g style="fill: #7b7e85" transform="translate(91.800866 315.90335)rotate(-45)scale(0.11 -0.11)">
       <defs>
        <path id="Calibri-32" d="M 2888 231 
Q 2888 175 2880 131 
Q 2872 88 2858 58 
Q 2844 28 2820 14 
Q 2797 0 2769 0 
L 534 0 
Q 491 0 458 11 
Q 425 22 401 47 
Q 378 72 367 119 
Q 356 166 356 234 
Q 356 297 361 344 
Q 366 391 381 427 
Q 397 463 420 498 
Q 444 534 481 575 
L 1266 1406 
Q 1538 1694 1702 1922 
Q 1866 2150 1955 2337 
Q 2044 2525 2072 2678 
Q 2100 2831 2100 2966 
Q 2100 3100 2056 3220 
Q 2013 3341 1930 3431 
Q 1847 3522 1722 3575 
Q 1597 3628 1434 3628 
Q 1244 3628 1092 3575 
Q 941 3522 827 3459 
Q 713 3397 636 3344 
Q 559 3291 522 3291 
Q 500 3291 483 3303 
Q 466 3316 455 3344 
Q 444 3372 437 3419 
Q 431 3466 431 3531 
Q 431 3578 434 3612 
Q 438 3647 445 3672 
Q 453 3697 465 3719 
Q 478 3741 515 3773 
Q 553 3806 645 3862 
Q 738 3919 877 3973 
Q 1016 4028 1183 4065 
Q 1350 4103 1534 4103 
Q 1828 4103 2048 4020 
Q 2269 3938 2414 3794 
Q 2559 3650 2631 3459 
Q 2703 3269 2703 3053 
Q 2703 2859 2668 2667 
Q 2634 2475 2523 2251 
Q 2413 2028 2203 1754 
Q 1994 1481 1647 1125 
L 1006 456 
L 2766 456 
Q 2791 456 2814 442 
Q 2838 428 2855 400 
Q 2872 372 2880 330 
Q 2888 288 2888 231 
z
" transform="scale(0.015625)"/>
        <path id="Calibri-30" d="M 3022 2031 
Q 3022 1566 2948 1181 
Q 2875 797 2704 520 
Q 2534 244 2259 92 
Q 1984 -59 1581 -59 
Q 1200 -59 939 77 
Q 678 213 518 477 
Q 359 741 292 1127 
Q 225 1513 225 2013 
Q 225 2475 300 2861 
Q 375 3247 544 3523 
Q 713 3800 988 3951 
Q 1263 4103 1663 4103 
Q 2047 4103 2308 3967 
Q 2569 3831 2728 3567 
Q 2888 3303 2955 2917 
Q 3022 2531 3022 2031 
z
M 2472 1994 
Q 2472 2297 2450 2537 
Q 2428 2778 2386 2962 
Q 2344 3147 2276 3280 
Q 2209 3413 2115 3498 
Q 2022 3584 1901 3623 
Q 1781 3663 1631 3663 
Q 1366 3663 1200 3538 
Q 1034 3413 939 3194 
Q 844 2975 809 2681 
Q 775 2388 775 2050 
Q 775 1597 822 1280 
Q 869 963 970 763 
Q 1072 563 1230 472 
Q 1388 381 1613 381 
Q 1788 381 1920 437 
Q 2053 494 2148 598 
Q 2244 703 2306 850 
Q 2369 997 2406 1175 
Q 2444 1353 2458 1561 
Q 2472 1769 2472 1994 
z
" transform="scale(0.015625)"/>
        <path id="Calibri-31" d="M 2897 213 
Q 2897 153 2887 112 
Q 2878 72 2862 47 
Q 2847 22 2826 11 
Q 2806 0 2784 0 
L 672 0 
Q 650 0 631 11 
Q 613 22 595 47 
Q 578 72 568 112 
Q 559 153 559 213 
Q 559 269 568 309 
Q 578 350 592 376 
Q 606 403 626 417 
Q 647 431 672 431 
L 1516 431 
L 1516 3506 
L 734 3041 
Q 675 3009 639 3003 
Q 603 2997 581 3017 
Q 559 3038 551 3084 
Q 544 3131 544 3203 
Q 544 3256 548 3293 
Q 553 3331 562 3356 
Q 572 3381 589 3400 
Q 606 3419 634 3438 
L 1566 4034 
Q 1578 4044 1597 4050 
Q 1616 4056 1644 4062 
Q 1672 4069 1709 4070 
Q 1747 4072 1803 4072 
Q 1878 4072 1928 4065 
Q 1978 4059 2006 4048 
Q 2034 4038 2043 4020 
Q 2053 4003 2053 3984 
L 2053 431 
L 2784 431 
Q 2809 431 2831 417 
Q 2853 403 2867 376 
Q 2881 350 2889 309 
Q 2897 269 2897 213 
z
" transform="scale(0.015625)"/>
       </defs>
       <use xlink:href="#Calibri-32"/>
       <use xlink:href="#Calibri-30" x="50.683594"/>
       <use xlink:href="#Calibri-30" x="101.367188"/>
       <use xlink:href="#Calibri-31" x="152.050781"/>
      </g>
     </g>
    </g>
    <g id="xtick_2">
     <g id="line2d_2">
      <g>
       <use xlink:href="#m7c95a85292" x="117.307668" y="283.342727" style="fill: #7b7e85; stroke: #7b7e85; stroke-width: 0.8"/>
      </g>
     </g>
     <g id="text_2">
      <!-- 2002 -->
      <g style="fill: #7b7e85" transform="translate(111.376202 315.90335)rotate(-45)scale(0.11 -0.11)">
       <use xlink:href="#Calibri-32"/>
       <use xlink:href="#Calibri-30" x="50.683594"/>
       <use xlink:href="#Calibri-30" x="101.367188"/>
       <use xlink:href="#Calibri-32" x="152.050781"/>
      </g>
     </g>
    </g>
    <g id="xtick_3">
     <g id="line2d_3">
      <g>
       <use xlink:href="#m7c95a85292" x="136.883004" y="283.342727" style="fill: #7b7e85; stroke: #7b7e85; stroke-width: 0.8"/>
      </g>
     </g>
     <g id="text_3">
      <!-- 2003 -->
      <g style="fill: #7b7e85" transform="translate(130.951538 315.90335)rotate(-45)scale(0.11 -0.11)">
       <defs>
        <path id="Calibri-33" d="M 2856 1156 
Q 2856 878 2759 654 
Q 2663 431 2481 272 
Q 2300 113 2034 27 
Q 1769 -59 1434 -59 
Q 1231 -59 1054 -26 
Q 878 6 740 51 
Q 603 97 512 145 
Q 422 194 398 216 
Q 375 238 362 259 
Q 350 281 340 312 
Q 331 344 326 389 
Q 322 434 322 500 
Q 322 613 344 656 
Q 366 700 406 700 
Q 434 700 517 650 
Q 600 600 729 542 
Q 859 484 1032 434 
Q 1206 384 1419 384 
Q 1625 384 1781 437 
Q 1938 491 2044 587 
Q 2150 684 2203 817 
Q 2256 950 2256 1106 
Q 2256 1278 2189 1415 
Q 2122 1553 1992 1653 
Q 1863 1753 1673 1806 
Q 1484 1859 1244 1859 
L 859 1859 
Q 834 1859 811 1870 
Q 788 1881 770 1906 
Q 753 1931 742 1972 
Q 731 2013 731 2078 
Q 731 2138 740 2177 
Q 750 2216 767 2239 
Q 784 2263 806 2273 
Q 828 2284 856 2284 
L 1209 2284 
Q 1416 2284 1580 2337 
Q 1744 2391 1858 2491 
Q 1972 2591 2033 2730 
Q 2094 2869 2094 3041 
Q 2094 3166 2053 3280 
Q 2013 3394 1931 3478 
Q 1850 3563 1723 3611 
Q 1597 3659 1431 3659 
Q 1250 3659 1098 3604 
Q 947 3550 828 3487 
Q 709 3425 631 3370 
Q 553 3316 522 3316 
Q 500 3316 483 3323 
Q 466 3331 455 3354 
Q 444 3378 439 3420 
Q 434 3463 434 3531 
Q 434 3578 437 3614 
Q 441 3650 450 3676 
Q 459 3703 471 3725 
Q 484 3747 514 3776 
Q 544 3806 634 3862 
Q 725 3919 858 3973 
Q 991 4028 1164 4065 
Q 1338 4103 1538 4103 
Q 1819 4103 2031 4031 
Q 2244 3959 2386 3828 
Q 2528 3697 2598 3514 
Q 2669 3331 2669 3109 
Q 2669 2919 2619 2755 
Q 2569 2591 2472 2464 
Q 2375 2338 2234 2248 
Q 2094 2159 1909 2125 
L 1909 2119 
Q 2119 2097 2292 2014 
Q 2466 1931 2591 1806 
Q 2716 1681 2786 1514 
Q 2856 1347 2856 1156 
z
" transform="scale(0.015625)"/>
       </defs>
       <use xlink:href="#Calibri-32"/>
       <use xlink:href="#Calibri-30" x="50.683594"/>
       <use xlink:href="#Calibri-30" x="101.367188"/>
       <use xlink:href="#Calibri-33" x="152.050781"/>
      </g>
     </g>
    </g>
    <g id="xtick_4">
     <g id="line2d_4">
      <g>
       <use xlink:href="#m7c95a85292" x="156.45834" y="283.342727" style="fill: #7b7e85; stroke: #7b7e85; stroke-width: 0.8"/>
      </g>
     </g>
     <g id="text_4">
      <!-- 2004 -->
      <g style="fill: #7b7e85" transform="translate(150.526874 315.90335)rotate(-45)scale(0.11 -0.11)">
       <defs>
        <path id="Calibri-34" d="M 3059 1150 
Q 3059 1047 3028 987 
Q 2997 928 2941 928 
L 2484 928 
L 2484 78 
Q 2484 53 2471 36 
Q 2459 19 2428 6 
Q 2397 -6 2347 -12 
Q 2297 -19 2219 -19 
Q 2144 -19 2094 -12 
Q 2044 -6 2014 6 
Q 1984 19 1973 36 
Q 1963 53 1963 78 
L 1963 928 
L 294 928 
Q 256 928 231 937 
Q 206 947 186 972 
Q 166 997 158 1044 
Q 150 1091 150 1166 
Q 150 1225 153 1272 
Q 156 1319 165 1358 
Q 175 1397 190 1433 
Q 206 1469 228 1509 
L 1684 3966 
Q 1700 3991 1729 4009 
Q 1759 4028 1806 4040 
Q 1853 4053 1922 4058 
Q 1991 4063 2084 4063 
Q 2188 4063 2264 4055 
Q 2341 4047 2387 4034 
Q 2434 4022 2459 4001 
Q 2484 3981 2484 3953 
L 2484 1372 
L 2941 1372 
Q 2994 1372 3026 1317 
Q 3059 1263 3059 1150 
z
M 1963 3591 
L 1956 3591 
L 641 1372 
L 1963 1372 
L 1963 3591 
z
" transform="scale(0.015625)"/>
       </defs>
       <use xlink:href="#Calibri-32"/>
       <use xlink:href="#Calibri-30" x="50.683594"/>
       <use xlink:href="#Calibri-30" x="101.367188"/>
       <use xlink:href="#Calibri-34" x="152.050781"/>
      </g>
     </g>
    </g>
    <g id="xtick_5">
     <g id="line2d_5">
      <g>
       <use xlink:href="#m7c95a85292" x="176.033676" y="283.342727" style="fill: #7b7e85; stroke: #7b7e85; stroke-width: 0.8"/>
      </g>
     </g>
     <g id="text_5">
      <!-- 2005 -->
      <g style="fill: #7b7e85" transform="translate(170.10221 315.90335)rotate(-45)scale(0.11 -0.11)">
       <defs>
        <path id="Calibri-35" d="M 2869 1300 
Q 2869 975 2759 722 
Q 2650 469 2450 295 
Q 2250 122 1973 31 
Q 1697 -59 1359 -59 
Q 1172 -59 1003 -32 
Q 834 -6 703 33 
Q 572 72 487 109 
Q 403 147 379 169 
Q 356 191 347 209 
Q 338 228 330 254 
Q 322 281 319 322 
Q 316 363 316 419 
Q 316 472 320 514 
Q 325 556 337 582 
Q 350 609 367 621 
Q 384 634 406 634 
Q 438 634 503 595 
Q 569 556 680 511 
Q 791 466 955 425 
Q 1119 384 1344 384 
Q 1553 384 1728 434 
Q 1903 484 2029 590 
Q 2156 697 2228 858 
Q 2300 1019 2300 1250 
Q 2300 1444 2239 1592 
Q 2178 1741 2051 1839 
Q 1925 1938 1731 1986 
Q 1538 2034 1269 2034 
Q 1078 2034 940 2015 
Q 803 1997 684 1997 
Q 597 1997 559 2037 
Q 522 2078 522 2194 
L 522 3841 
Q 522 3944 570 3994 
Q 619 4044 709 4044 
L 2500 4044 
Q 2525 4044 2548 4030 
Q 2572 4016 2587 3987 
Q 2603 3959 2611 3915 
Q 2619 3872 2619 3813 
Q 2619 3700 2587 3637 
Q 2556 3575 2500 3575 
L 991 3575 
L 991 2441 
Q 1100 2456 1214 2459 
Q 1328 2463 1478 2463 
Q 1825 2463 2084 2380 
Q 2344 2297 2517 2145 
Q 2691 1994 2780 1778 
Q 2869 1563 2869 1300 
z
" transform="scale(0.015625)"/>
       </defs>
       <use xlink:href="#Calibri-32"/>
       <use xlink:href="#Calibri-30" x="50.683594"/>
       <use xlink:href="#Calibri-30" x="101.367188"/>
       <use xlink:href="#Calibri-35" x="152.050781"/>
      </g>
     </g>
    </g>
    <g id="xtick_6">
     <g id="line2d_6">
      <g>
       <use xlink:href="#m7c95a85292" x="195.609011" y="283.342727" style="fill: #7b7e85; stroke: #7b7e85; stroke-width: 0.8"/>
      </g>
     </g>
     <g id="text_6">
      <!-- 2006 -->
      <g style="fill: #7b7e85" transform="translate(189.677546 315.90335)rotate(-45)scale(0.11 -0.11)">
       <defs>
        <path id="Calibri-36" d="M 2991 1309 
Q 2991 1044 2909 795 
Q 2828 547 2659 358 
Q 2491 169 2231 55 
Q 1972 -59 1619 -59 
Q 1366 -59 1172 3 
Q 978 66 834 181 
Q 691 297 595 465 
Q 500 634 442 850 
Q 384 1066 359 1322 
Q 334 1578 334 1872 
Q 334 2131 362 2397 
Q 391 2663 462 2909 
Q 534 3156 657 3373 
Q 781 3591 967 3752 
Q 1153 3913 1412 4006 
Q 1672 4100 2016 4100 
Q 2131 4100 2250 4086 
Q 2369 4072 2469 4048 
Q 2569 4025 2637 3997 
Q 2706 3969 2728 3951 
Q 2750 3934 2761 3914 
Q 2772 3894 2778 3870 
Q 2784 3847 2787 3817 
Q 2791 3788 2791 3744 
Q 2791 3688 2789 3647 
Q 2788 3606 2777 3581 
Q 2766 3556 2748 3543 
Q 2731 3531 2703 3531 
Q 2669 3531 2609 3553 
Q 2550 3575 2465 3601 
Q 2381 3628 2261 3650 
Q 2141 3672 1981 3672 
Q 1691 3672 1481 3553 
Q 1272 3434 1139 3234 
Q 1006 3034 942 2770 
Q 878 2506 869 2219 
Q 950 2266 1051 2312 
Q 1153 2359 1273 2396 
Q 1394 2434 1528 2457 
Q 1663 2481 1816 2481 
Q 2144 2481 2369 2392 
Q 2594 2303 2733 2145 
Q 2872 1988 2931 1773 
Q 2991 1559 2991 1309 
z
M 2447 1259 
Q 2447 1441 2411 1589 
Q 2375 1738 2290 1841 
Q 2206 1944 2065 2000 
Q 1925 2056 1719 2056 
Q 1603 2056 1487 2036 
Q 1372 2016 1264 1980 
Q 1156 1944 1057 1895 
Q 959 1847 878 1791 
Q 878 1388 929 1116 
Q 981 844 1079 680 
Q 1178 516 1325 445 
Q 1472 375 1669 375 
Q 1869 375 2016 450 
Q 2163 525 2259 651 
Q 2356 778 2401 936 
Q 2447 1094 2447 1259 
z
" transform="scale(0.015625)"/>
       </defs>
       <use xlink:href="#Calibri-32"/>
       <use xlink:href="#Calibri-30" x="50.683594"/>
       <use xlink:href="#Calibri-30" x="101.367188"/>
       <use xlink:href="#Calibri-36" x="152.050781"/>
      </g>
     </g>
    </g>
    <g id="xtick_7">
     <g id="line2d_7">
      <g>
       <use xlink:href="#m7c95a85292" x="215.184347" y="283.342727" style="fill: #7b7e85; stroke: #7b7e85; stroke-width: 0.8"/>
      </g>
     </g>
     <g id="text_7">
      <!-- 2007 -->
      <g style="fill: #7b7e85" transform="translate(209.252882 315.90335)rotate(-45)scale(0.11 -0.11)">
       <defs>
        <path id="Calibri-37" d="M 2947 3813 
Q 2947 3756 2942 3711 
Q 2938 3666 2930 3623 
Q 2922 3581 2908 3542 
Q 2894 3503 2875 3459 
L 1419 103 
Q 1403 66 1379 42 
Q 1356 19 1320 5 
Q 1284 -9 1228 -14 
Q 1172 -19 1091 -19 
Q 984 -19 925 -9 
Q 866 0 839 20 
Q 813 41 816 70 
Q 819 100 838 141 
L 2369 3572 
L 428 3572 
Q 369 3572 339 3634 
Q 309 3697 309 3809 
Q 309 3869 317 3912 
Q 325 3956 340 3986 
Q 356 4016 378 4030 
Q 400 4044 428 4044 
L 2784 4044 
Q 2828 4044 2861 4034 
Q 2894 4025 2911 3997 
Q 2928 3969 2937 3925 
Q 2947 3881 2947 3813 
z
" transform="scale(0.015625)"/>
       </defs>
       <use xlink:href="#Calibri-32"/>
       <use xlink:href="#Calibri-30" x="50.683594"/>
       <use xlink:href="#Calibri-30" x="101.367188"/>
       <use xlink:href="#Calibri-37" x="152.050781"/>
      </g>
     </g>
    </g>
    <g id="xtick_8">
     <g id="line2d_8">
      <g>
       <use xlink:href="#m7c95a85292" x="234.759683" y="283.342727" style="fill: #7b7e85; stroke: #7b7e85; stroke-width: 0.8"/>
      </g>
     </g>
     <g id="text_8">
      <!-- 2008 -->
      <g style="fill: #7b7e85" transform="translate(228.828218 315.90335)rotate(-45)scale(0.11 -0.11)">
       <defs>
        <path id="Calibri-38" d="M 2981 1038 
Q 2981 775 2887 570 
Q 2794 366 2617 225 
Q 2441 84 2181 12 
Q 1922 -59 1588 -59 
Q 1275 -59 1028 6 
Q 781 72 609 200 
Q 438 328 347 515 
Q 256 703 256 944 
Q 256 1134 318 1293 
Q 381 1453 498 1587 
Q 616 1722 787 1839 
Q 959 1956 1175 2063 
Q 988 2159 844 2267 
Q 700 2375 600 2501 
Q 500 2628 448 2772 
Q 397 2916 397 3084 
Q 397 3297 473 3483 
Q 550 3669 704 3806 
Q 859 3944 1098 4023 
Q 1338 4103 1656 4103 
Q 1963 4103 2186 4029 
Q 2409 3956 2554 3829 
Q 2700 3703 2769 3531 
Q 2838 3359 2838 3163 
Q 2838 3003 2786 2856 
Q 2734 2709 2634 2578 
Q 2534 2447 2389 2333 
Q 2244 2219 2056 2119 
Q 2278 2009 2451 1893 
Q 2625 1778 2742 1645 
Q 2859 1513 2920 1364 
Q 2981 1216 2981 1038 
z
M 2306 3113 
Q 2306 3244 2261 3350 
Q 2216 3456 2128 3531 
Q 2041 3606 1911 3645 
Q 1781 3684 1616 3684 
Q 1278 3684 1104 3531 
Q 931 3378 931 3113 
Q 931 2991 973 2886 
Q 1016 2781 1105 2687 
Q 1194 2594 1330 2505 
Q 1466 2416 1653 2319 
Q 1969 2481 2137 2678 
Q 2306 2875 2306 3113 
z
M 2438 981 
Q 2438 1125 2384 1242 
Q 2331 1359 2223 1461 
Q 2116 1563 1955 1658 
Q 1794 1753 1581 1856 
Q 1384 1759 1236 1662 
Q 1088 1566 992 1462 
Q 897 1359 848 1245 
Q 800 1131 800 994 
Q 800 691 1008 525 
Q 1216 359 1628 359 
Q 2028 359 2233 526 
Q 2438 694 2438 981 
z
" transform="scale(0.015625)"/>
       </defs>
       <use xlink:href="#Calibri-32"/>
       <use xlink:href="#Calibri-30" x="50.683594"/>
       <use xlink:href="#Calibri-30" x="101.367188"/>
       <use xlink:href="#Calibri-38" x="152.050781"/>
      </g>
     </g>
    </g>
    <g id="xtick_9">
     <g id="line2d_9">
      <g>
       <use xlink:href="#m7c95a85292" x="254.335019" y="283.342727" style="fill: #7b7e85; stroke: #7b7e85; stroke-width: 0.8"/>
      </g>
     </g>
     <g id="text_9">
      <!-- 2009 -->
      <g style="fill: #7b7e85" transform="translate(248.403554 315.90335)rotate(-45)scale(0.11 -0.11)">
       <defs>
        <path id="Calibri-39" d="M 2919 2181 
Q 2919 1919 2887 1650 
Q 2856 1381 2781 1132 
Q 2706 884 2579 667 
Q 2453 450 2261 287 
Q 2069 125 1805 33 
Q 1541 -59 1191 -59 
Q 1056 -59 929 -42 
Q 803 -25 701 0 
Q 600 25 531 53 
Q 463 81 431 109 
Q 400 138 386 186 
Q 372 234 372 316 
Q 372 384 376 425 
Q 381 466 390 487 
Q 400 509 417 517 
Q 434 525 459 525 
Q 494 525 556 501 
Q 619 478 714 450 
Q 809 422 937 398 
Q 1066 375 1225 375 
Q 1528 375 1745 492 
Q 1963 609 2100 806 
Q 2238 1003 2306 1262 
Q 2375 1522 2381 1809 
Q 2216 1713 1984 1638 
Q 1753 1563 1453 1563 
Q 1116 1563 886 1655 
Q 656 1747 517 1906 
Q 378 2066 317 2284 
Q 256 2503 256 2763 
Q 256 3031 334 3273 
Q 413 3516 578 3700 
Q 744 3884 1000 3993 
Q 1256 4103 1613 4103 
Q 1866 4103 2061 4039 
Q 2256 3975 2400 3854 
Q 2544 3734 2644 3564 
Q 2744 3394 2805 3178 
Q 2866 2963 2892 2711 
Q 2919 2459 2919 2181 
z
M 2372 2241 
Q 2372 2641 2319 2914 
Q 2266 3188 2162 3356 
Q 2059 3525 1909 3600 
Q 1759 3675 1563 3675 
Q 1359 3675 1215 3601 
Q 1072 3528 980 3404 
Q 888 3281 844 3125 
Q 800 2969 800 2803 
Q 800 2619 839 2466 
Q 878 2313 965 2206 
Q 1053 2100 1193 2042 
Q 1334 1984 1541 1984 
Q 1775 1984 1994 2054 
Q 2213 2125 2372 2241 
z
" transform="scale(0.015625)"/>
       </defs>
       <use xlink:href="#Calibri-32"/>
       <use xlink:href="#Calibri-30" x="50.683594"/>
       <use xlink:href="#Calibri-30" x="101.367188"/>
       <use xlink:href="#Calibri-39" x="152.050781"/>
      </g>
     </g>
    </g>
    <g id="xtick_10">
     <g id="line2d_10">
      <g>
       <use xlink:href="#m7c95a85292" x="273.910355" y="283.342727" style="fill: #7b7e85; stroke: #7b7e85; stroke-width: 0.8"/>
      </g>
     </g>
     <g id="text_10">
      <!-- 2010 -->
      <g style="fill: #7b7e85" transform="translate(267.97889 315.90335)rotate(-45)scale(0.11 -0.11)">
       <use xlink:href="#Calibri-32"/>
       <use xlink:href="#Calibri-30" x="50.683594"/>
       <use xlink:href="#Calibri-31" x="101.367188"/>
       <use xlink:href="#Calibri-30" x="152.050781"/>
      </g>
     </g>
    </g>
    <g id="xtick_11">
     <g id="line2d_11">
      <g>
       <use xlink:href="#m7c95a85292" x="293.485691" y="283.342727" style="fill: #7b7e85; stroke: #7b7e85; stroke-width: 0.8"/>
      </g>
     </g>
     <g id="text_11">
      <!-- 2011 -->
      <g style="fill: #7b7e85" transform="translate(287.554226 315.90335)rotate(-45)scale(0.11 -0.11)">
       <use xlink:href="#Calibri-32"/>
       <use xlink:href="#Calibri-30" x="50.683594"/>
       <use xlink:href="#Calibri-31" x="101.367188"/>
       <use xlink:href="#Calibri-31" x="152.050781"/>
      </g>
     </g>
    </g>
    <g id="xtick_12">
     <g id="line2d_12">
      <g>
       <use xlink:href="#m7c95a85292" x="313.061027" y="283.342727" style="fill: #7b7e85; stroke: #7b7e85; stroke-width: 0.8"/>
      </g>
     </g>
     <g id="text_12">
      <!-- 2012 -->
      <g style="fill: #7b7e85" transform="translate(307.129562 315.90335)rotate(-45)scale(0.11 -0.11)">
       <use xlink:href="#Calibri-32"/>
       <use xlink:href="#Calibri-30" x="50.683594"/>
       <use xlink:href="#Calibri-31" x="101.367188"/>
       <use xlink:href="#Calibri-32" x="152.050781"/>
      </g>
     </g>
    </g>
    <g id="xtick_13">
     <g id="line2d_13">
      <g>
       <use xlink:href="#m7c95a85292" x="332.636363" y="283.342727" style="fill: #7b7e85; stroke: #7b7e85; stroke-width: 0.8"/>
      </g>
     </g>
     <g id="text_13">
      <!-- 2013 -->
      <g style="fill: #7b7e85" transform="translate(326.704898 315.90335)rotate(-45)scale(0.11 -0.11)">
       <use xlink:href="#Calibri-32"/>
       <use xlink:href="#Calibri-30" x="50.683594"/>
       <use xlink:href="#Calibri-31" x="101.367188"/>
       <use xlink:href="#Calibri-33" x="152.050781"/>
      </g>
     </g>
    </g>
    <g id="xtick_14">
     <g id="line2d_14">
      <g>
       <use xlink:href="#m7c95a85292" x="352.211699" y="283.342727" style="fill: #7b7e85; stroke: #7b7e85; stroke-width: 0.8"/>
      </g>
     </g>
     <g id="text_14">
      <!-- 2014 -->
      <g style="fill: #7b7e85" transform="translate(346.280234 315.90335)rotate(-45)scale(0.11 -0.11)">
       <use xlink:href="#Calibri-32"/>
       <use xlink:href="#Calibri-30" x="50.683594"/>
       <use xlink:href="#Calibri-31" x="101.367188"/>
       <use xlink:href="#Calibri-34" x="152.050781"/>
      </g>
     </g>
    </g>
    <g id="xtick_15">
     <g id="line2d_15">
      <g>
       <use xlink:href="#m7c95a85292" x="371.787035" y="283.342727" style="fill: #7b7e85; stroke: #7b7e85; stroke-width: 0.8"/>
      </g>
     </g>
     <g id="text_15">
      <!-- 2015 -->
      <g style="fill: #7b7e85" transform="translate(365.85557 315.90335)rotate(-45)scale(0.11 -0.11)">
       <use xlink:href="#Calibri-32"/>
       <use xlink:href="#Calibri-30" x="50.683594"/>
       <use xlink:href="#Calibri-31" x="101.367188"/>
       <use xlink:href="#Calibri-35" x="152.050781"/>
      </g>
     </g>
    </g>
    <g id="xtick_16">
     <g id="line2d_16">
      <g>
       <use xlink:href="#m7c95a85292" x="391.362371" y="283.342727" style="fill: #7b7e85; stroke: #7b7e85; stroke-width: 0.8"/>
      </g>
     </g>
     <g id="text_16">
      <!-- 2016 -->
      <g style="fill: #7b7e85" transform="translate(385.430905 315.90335)rotate(-45)scale(0.11 -0.11)">
       <use xlink:href="#Calibri-32"/>
       <use xlink:href="#Calibri-30" x="50.683594"/>
       <use xlink:href="#Calibri-31" x="101.367188"/>
       <use xlink:href="#Calibri-36" x="152.050781"/>
      </g>
     </g>
    </g>
    <g id="xtick_17">
     <g id="line2d_17">
      <g>
       <use xlink:href="#m7c95a85292" x="410.937707" y="283.342727" style="fill: #7b7e85; stroke: #7b7e85; stroke-width: 0.8"/>
      </g>
     </g>
     <g id="text_17">
      <!-- 2017 -->
      <g style="fill: #7b7e85" transform="translate(405.006241 315.90335)rotate(-45)scale(0.11 -0.11)">
       <use xlink:href="#Calibri-32"/>
       <use xlink:href="#Calibri-30" x="50.683594"/>
       <use xlink:href="#Calibri-31" x="101.367188"/>
       <use xlink:href="#Calibri-37" x="152.050781"/>
      </g>
     </g>
    </g>
    <g id="xtick_18">
     <g id="line2d_18">
      <g>
       <use xlink:href="#m7c95a85292" x="430.513043" y="283.342727" style="fill: #7b7e85; stroke: #7b7e85; stroke-width: 0.8"/>
      </g>
     </g>
     <g id="text_18">
      <!-- 2018 -->
      <g style="fill: #7b7e85" transform="translate(424.581577 315.90335)rotate(-45)scale(0.11 -0.11)">
       <use xlink:href="#Calibri-32"/>
       <use xlink:href="#Calibri-30" x="50.683594"/>
       <use xlink:href="#Calibri-31" x="101.367188"/>
       <use xlink:href="#Calibri-38" x="152.050781"/>
      </g>
     </g>
    </g>
    <g id="xtick_19">
     <g id="line2d_19">
      <g>
       <use xlink:href="#m7c95a85292" x="450.088379" y="283.342727" style="fill: #7b7e85; stroke: #7b7e85; stroke-width: 0.8"/>
      </g>
     </g>
     <g id="text_19">
      <!-- 2019 -->
      <g style="fill: #7b7e85" transform="translate(444.156913 315.90335)rotate(-45)scale(0.11 -0.11)">
       <use xlink:href="#Calibri-32"/>
       <use xlink:href="#Calibri-30" x="50.683594"/>
       <use xlink:href="#Calibri-31" x="101.367188"/>
       <use xlink:href="#Calibri-39" x="152.050781"/>
      </g>
     </g>
    </g>
    <g id="xtick_20">
     <g id="line2d_20">
      <g>
       <use xlink:href="#m7c95a85292" x="469.663715" y="283.342727" style="fill: #7b7e85; stroke: #7b7e85; stroke-width: 0.8"/>
      </g>
     </g>
     <g id="text_20">
      <!-- 2020 -->
      <g style="fill: #7b7e85" transform="translate(463.732249 315.90335)rotate(-45)scale(0.11 -0.11)">
       <use xlink:href="#Calibri-32"/>
       <use xlink:href="#Calibri-30" x="50.683594"/>
       <use xlink:href="#Calibri-32" x="101.367188"/>
       <use xlink:href="#Calibri-30" x="152.050781"/>
      </g>
     </g>
    </g>
    <g id="xtick_21">
     <g id="line2d_21">
      <g>
       <use xlink:href="#m7c95a85292" x="489.239051" y="283.342727" style="fill: #7b7e85; stroke: #7b7e85; stroke-width: 0.8"/>
      </g>
     </g>
     <g id="text_21">
      <!-- 2021 -->
      <g style="fill: #7b7e85" transform="translate(483.307585 315.90335)rotate(-45)scale(0.11 -0.11)">
       <use xlink:href="#Calibri-32"/>
       <use xlink:href="#Calibri-30" x="50.683594"/>
       <use xlink:href="#Calibri-32" x="101.367188"/>
       <use xlink:href="#Calibri-31" x="152.050781"/>
      </g>
     </g>
    </g>
    <g id="xtick_22">
     <g id="line2d_22">
      <g>
       <use xlink:href="#m7c95a85292" x="508.814387" y="283.342727" style="fill: #7b7e85; stroke: #7b7e85; stroke-width: 0.8"/>
      </g>
     </g>
     <g id="text_22">
      <!-- 2022 -->
      <g style="fill: #7b7e85" transform="translate(502.882921 315.90335)rotate(-45)scale(0.11 -0.11)">
       <use xlink:href="#Calibri-32"/>
       <use xlink:href="#Calibri-30" x="50.683594"/>
       <use xlink:href="#Calibri-32" x="101.367188"/>
       <use xlink:href="#Calibri-32" x="152.050781"/>
      </g>
     </g>
    </g>
    <g id="text_23">
     <!-- Year -->
     <g style="fill: #00263e" transform="translate(291.492109 341.128437)scale(0.13 -0.13)">
      <defs>
       <path id="Calibri-59" d="M 1828 1572 
L 1828 81 
Q 1828 56 1815 37 
Q 1803 19 1772 8 
Q 1741 -3 1687 -11 
Q 1634 -19 1559 -19 
Q 1481 -19 1429 -11 
Q 1378 -3 1345 8 
Q 1313 19 1300 37 
Q 1288 56 1288 81 
L 1288 1572 
L 144 3853 
Q 109 3925 101 3965 
Q 94 4006 117 4028 
Q 141 4050 202 4056 
Q 263 4063 366 4063 
Q 459 4063 517 4056 
Q 575 4050 609 4039 
Q 644 4028 661 4008 
Q 678 3988 694 3956 
L 1253 2794 
Q 1331 2628 1409 2447 
Q 1488 2266 1569 2081 
L 1575 2081 
Q 1647 2259 1723 2436 
Q 1800 2613 1878 2784 
L 2441 3953 
Q 2450 3984 2467 4006 
Q 2484 4028 2514 4039 
Q 2544 4050 2597 4056 
Q 2650 4063 2731 4063 
Q 2844 4063 2908 4055 
Q 2972 4047 2997 4025 
Q 3022 4003 3014 3962 
Q 3006 3922 2972 3853 
L 1828 1572 
z
" transform="scale(0.015625)"/>
       <path id="Calibri-65" d="M 2878 1606 
Q 2878 1484 2817 1432 
Q 2756 1381 2678 1381 
L 834 1381 
Q 834 1147 881 959 
Q 928 772 1037 637 
Q 1147 503 1322 431 
Q 1497 359 1750 359 
Q 1950 359 2106 392 
Q 2263 425 2377 465 
Q 2491 506 2564 539 
Q 2638 572 2675 572 
Q 2697 572 2714 561 
Q 2731 550 2740 528 
Q 2750 506 2754 467 
Q 2759 428 2759 372 
Q 2759 331 2756 301 
Q 2753 272 2748 248 
Q 2744 225 2733 206 
Q 2722 188 2705 170 
Q 2688 153 2603 114 
Q 2519 75 2384 37 
Q 2250 0 2073 -29 
Q 1897 -59 1697 -59 
Q 1350 -59 1089 37 
Q 828 134 650 325 
Q 472 516 381 803 
Q 291 1091 291 1472 
Q 291 1834 384 2123 
Q 478 2413 654 2614 
Q 831 2816 1081 2923 
Q 1331 3031 1641 3031 
Q 1972 3031 2205 2925 
Q 2438 2819 2588 2639 
Q 2738 2459 2808 2217 
Q 2878 1975 2878 1700 
L 2878 1606 
z
M 2359 1759 
Q 2369 2166 2180 2397 
Q 1991 2628 1619 2628 
Q 1428 2628 1284 2556 
Q 1141 2484 1044 2365 
Q 947 2247 894 2089 
Q 841 1931 834 1759 
L 2359 1759 
z
" transform="scale(0.015625)"/>
       <path id="Calibri-61" d="M 2597 75 
Q 2597 38 2572 19 
Q 2547 0 2503 -9 
Q 2459 -19 2375 -19 
Q 2294 -19 2245 -9 
Q 2197 0 2175 19 
Q 2153 38 2153 75 
L 2153 356 
Q 1969 159 1742 50 
Q 1516 -59 1263 -59 
Q 1041 -59 861 -1 
Q 681 56 554 165 
Q 428 275 358 434 
Q 288 594 288 797 
Q 288 1034 384 1209 
Q 481 1384 662 1500 
Q 844 1616 1106 1673 
Q 1369 1731 1697 1731 
L 2084 1731 
L 2084 1950 
Q 2084 2113 2050 2238 
Q 2016 2363 1939 2445 
Q 1863 2528 1741 2570 
Q 1619 2613 1441 2613 
Q 1250 2613 1098 2567 
Q 947 2522 833 2467 
Q 719 2413 642 2367 
Q 566 2322 528 2322 
Q 503 2322 484 2334 
Q 466 2347 452 2372 
Q 438 2397 431 2436 
Q 425 2475 425 2522 
Q 425 2600 436 2645 
Q 447 2691 489 2731 
Q 531 2772 634 2826 
Q 738 2881 872 2926 
Q 1006 2972 1165 3001 
Q 1325 3031 1488 3031 
Q 1791 3031 2003 2962 
Q 2216 2894 2347 2761 
Q 2478 2628 2537 2431 
Q 2597 2234 2597 1972 
L 2597 75 
z
M 2084 1359 
L 1644 1359 
Q 1431 1359 1275 1323 
Q 1119 1288 1016 1217 
Q 913 1147 864 1048 
Q 816 950 816 822 
Q 816 603 955 473 
Q 1094 344 1344 344 
Q 1547 344 1720 447 
Q 1894 550 2084 763 
L 2084 1359 
z
" transform="scale(0.015625)"/>
       <path id="Calibri-72" d="M 2122 2706 
Q 2122 2638 2119 2591 
Q 2116 2544 2106 2517 
Q 2097 2491 2083 2477 
Q 2069 2463 2044 2463 
Q 2019 2463 1983 2477 
Q 1947 2491 1901 2505 
Q 1856 2519 1800 2531 
Q 1744 2544 1678 2544 
Q 1600 2544 1525 2512 
Q 1450 2481 1367 2409 
Q 1284 2338 1193 2219 
Q 1103 2100 994 1928 
L 994 78 
Q 994 53 981 36 
Q 969 19 941 6 
Q 913 -6 863 -12 
Q 813 -19 734 -19 
Q 659 -19 609 -12 
Q 559 -6 529 6 
Q 500 19 489 36 
Q 478 53 478 78 
L 478 2891 
Q 478 2916 487 2933 
Q 497 2950 525 2964 
Q 553 2978 597 2983 
Q 641 2988 713 2988 
Q 781 2988 826 2983 
Q 872 2978 897 2964 
Q 922 2950 933 2933 
Q 944 2916 944 2891 
L 944 2481 
Q 1059 2650 1161 2756 
Q 1263 2863 1353 2923 
Q 1444 2984 1533 3007 
Q 1622 3031 1713 3031 
Q 1753 3031 1804 3026 
Q 1856 3022 1912 3009 
Q 1969 2997 2014 2981 
Q 2059 2966 2078 2950 
Q 2097 2934 2103 2920 
Q 2109 2906 2114 2884 
Q 2119 2863 2120 2820 
Q 2122 2778 2122 2706 
z
" transform="scale(0.015625)"/>
      </defs>
      <use xlink:href="#Calibri-59"/>
      <use xlink:href="#Calibri-65" x="48.730469"/>
      <use xlink:href="#Calibri-61" x="98.486328"/>
      <use xlink:href="#Calibri-72" x="146.386719"/>
     </g>
    </g>
   </g>
   <g id="matplotlib.axis_2">
    <g id="ytick_1">
     <g id="line2d_23">
      <defs>
       <path id="m4aed1bcbc2" d="M 0 0 
L -6 0 
" style="stroke: #7b7e85; stroke-width: 0.8"/>
      </defs>
      <g>
       <use xlink:href="#m4aed1bcbc2" x="67.488438" y="272.256367" style="fill: #7b7e85; stroke: #7b7e85; stroke-width: 0.8"/>
      </g>
     </g>
     <g id="text_24">
      <!-- 0% -->
      <g style="fill: #7b7e85" transform="translate(44.549531 275.997226)scale(0.11 -0.11)">
       <defs>
        <path id="Calibri-25" d="M 1966 3044 
Q 1966 2803 1912 2606 
Q 1859 2410 1750 2270 
Q 1641 2131 1473 2053 
Q 1306 1975 1081 1975 
Q 853 1975 690 2047 
Q 528 2119 425 2255 
Q 322 2391 273 2586 
Q 225 2781 225 3031 
Q 225 3260 276 3453 
Q 328 3647 434 3787 
Q 541 3928 708 4009 
Q 875 4091 1103 4091 
Q 1350 4091 1517 4006 
Q 1684 3922 1784 3780 
Q 1884 3638 1925 3447 
Q 1966 3256 1966 3044 
z
M 1528 3028 
Q 1528 3203 1503 3339 
Q 1478 3475 1426 3565 
Q 1375 3656 1290 3701 
Q 1206 3747 1091 3747 
Q 981 3747 900 3703 
Q 819 3660 767 3572 
Q 716 3485 691 3355 
Q 666 3225 666 3050 
Q 666 2838 695 2695 
Q 725 2553 779 2470 
Q 834 2388 917 2355 
Q 1000 2322 1106 2322 
Q 1231 2322 1311 2369 
Q 1391 2416 1439 2508 
Q 1488 2600 1508 2730 
Q 1528 2860 1528 3028 
z
M 4350 1022 
Q 4350 781 4297 584 
Q 4244 388 4134 248 
Q 4025 109 3858 31 
Q 3691 -47 3466 -47 
Q 3238 -47 3075 25 
Q 2913 97 2809 233 
Q 2706 369 2657 564 
Q 2609 759 2609 1009 
Q 2609 1238 2661 1431 
Q 2713 1625 2819 1765 
Q 2925 1906 3092 1987 
Q 3259 2069 3488 2069 
Q 3734 2069 3901 1984 
Q 4069 1900 4169 1758 
Q 4269 1616 4309 1425 
Q 4350 1234 4350 1022 
z
M 3913 1006 
Q 3913 1181 3888 1317 
Q 3863 1453 3811 1543 
Q 3759 1634 3675 1679 
Q 3591 1725 3475 1725 
Q 3366 1725 3284 1681 
Q 3203 1638 3151 1550 
Q 3100 1463 3075 1333 
Q 3050 1203 3050 1028 
Q 3050 816 3079 673 
Q 3109 531 3164 448 
Q 3219 366 3301 333 
Q 3384 300 3491 300 
Q 3616 300 3695 347 
Q 3775 394 3823 486 
Q 3872 578 3892 708 
Q 3913 838 3913 1006 
z
M 1081 -25 
Q 1066 -53 1044 -67 
Q 1022 -81 990 -92 
Q 959 -103 915 -108 
Q 872 -113 809 -113 
Q 741 -113 698 -100 
Q 656 -88 639 -67 
Q 622 -47 626 -17 
Q 631 13 656 50 
L 3469 4078 
Q 3484 4103 3506 4120 
Q 3528 4138 3561 4147 
Q 3594 4156 3636 4161 
Q 3678 4166 3744 4166 
Q 3809 4166 3851 4155 
Q 3894 4144 3912 4122 
Q 3931 4100 3926 4069 
Q 3922 4038 3897 4003 
L 1081 -25 
z
" transform="scale(0.015625)"/>
       </defs>
       <use xlink:href="#Calibri-30"/>
       <use xlink:href="#Calibri-25" x="50.683594"/>
      </g>
     </g>
    </g>
    <g id="ytick_2">
     <g id="line2d_24">
      <g>
       <use xlink:href="#m4aed1bcbc2" x="67.488438" y="227.910928" style="fill: #7b7e85; stroke: #7b7e85; stroke-width: 0.8"/>
      </g>
     </g>
     <g id="text_25">
      <!-- 20% -->
      <g style="fill: #7b7e85" transform="translate(38.973906 231.651787)scale(0.11 -0.11)">
       <use xlink:href="#Calibri-32"/>
       <use xlink:href="#Calibri-30" x="50.683594"/>
       <use xlink:href="#Calibri-25" x="101.367188"/>
      </g>
     </g>
    </g>
    <g id="ytick_3">
     <g id="line2d_25">
      <g>
       <use xlink:href="#m4aed1bcbc2" x="67.488438" y="183.565489" style="fill: #7b7e85; stroke: #7b7e85; stroke-width: 0.8"/>
      </g>
     </g>
     <g id="text_26">
      <!-- 40% -->
      <g style="fill: #7b7e85" transform="translate(38.973906 187.306348)scale(0.11 -0.11)">
       <use xlink:href="#Calibri-34"/>
       <use xlink:href="#Calibri-30" x="50.683594"/>
       <use xlink:href="#Calibri-25" x="101.367188"/>
      </g>
     </g>
    </g>
    <g id="ytick_4">
     <g id="line2d_26">
      <g>
       <use xlink:href="#m4aed1bcbc2" x="67.488438" y="139.22005" style="fill: #7b7e85; stroke: #7b7e85; stroke-width: 0.8"/>
      </g>
     </g>
     <g id="text_27">
      <!-- 60% -->
      <g style="fill: #7b7e85" transform="translate(38.973906 142.960909)scale(0.11 -0.11)">
       <use xlink:href="#Calibri-36"/>
       <use xlink:href="#Calibri-30" x="50.683594"/>
       <use xlink:href="#Calibri-25" x="101.367188"/>
      </g>
     </g>
    </g>
    <g id="ytick_5">
     <g id="line2d_27">
      <g>
       <use xlink:href="#m4aed1bcbc2" x="67.488438" y="94.874611" style="fill: #7b7e85; stroke: #7b7e85; stroke-width: 0.8"/>
      </g>
     </g>
     <g id="text_28">
      <!-- 80% -->
      <g style="fill: #7b7e85" transform="translate(38.973906 98.615471)scale(0.11 -0.11)">
       <use xlink:href="#Calibri-38"/>
       <use xlink:href="#Calibri-30" x="50.683594"/>
       <use xlink:href="#Calibri-25" x="101.367188"/>
      </g>
     </g>
    </g>
    <g id="ytick_6">
     <g id="line2d_28">
      <g>
       <use xlink:href="#m4aed1bcbc2" x="67.488438" y="50.529172" style="fill: #7b7e85; stroke: #7b7e85; stroke-width: 0.8"/>
      </g>
     </g>
     <g id="text_29">
      <!-- 100% -->
      <g style="fill: #7b7e85" transform="translate(33.398281 54.270032)scale(0.11 -0.11)">
       <use xlink:href="#Calibri-31"/>
       <use xlink:href="#Calibri-30" x="50.683594"/>
       <use xlink:href="#Calibri-30" x="101.367188"/>
       <use xlink:href="#Calibri-25" x="152.050781"/>
      </g>
     </g>
    </g>
    <g id="text_30">
     <!-- Share of Employment -->
     <g style="fill: #00263e" transform="translate(16.086719 218.42316)rotate(-90)scale(0.13 -0.13)">
      <defs>
       <path id="Calibri-53" d="M 2709 1134 
Q 2709 850 2604 628 
Q 2500 406 2314 251 
Q 2128 97 1876 19 
Q 1625 -59 1334 -59 
Q 1131 -59 957 -25 
Q 784 9 648 59 
Q 513 109 420 162 
Q 328 216 292 253 
Q 256 291 239 348 
Q 222 406 222 503 
Q 222 572 228 617 
Q 234 663 246 691 
Q 259 719 278 730 
Q 297 741 322 741 
Q 366 741 445 687 
Q 525 634 650 571 
Q 775 509 951 454 
Q 1128 400 1359 400 
Q 1534 400 1679 447 
Q 1825 494 1929 580 
Q 2034 666 2090 791 
Q 2147 916 2147 1075 
Q 2147 1247 2069 1369 
Q 1991 1491 1862 1583 
Q 1734 1675 1570 1751 
Q 1406 1828 1234 1908 
Q 1063 1988 900 2084 
Q 738 2181 609 2312 
Q 481 2444 401 2620 
Q 322 2797 322 3044 
Q 322 3297 414 3495 
Q 506 3694 670 3828 
Q 834 3963 1061 4033 
Q 1288 4103 1550 4103 
Q 1684 4103 1820 4079 
Q 1956 4056 2076 4017 
Q 2197 3978 2290 3929 
Q 2384 3881 2414 3851 
Q 2444 3822 2453 3805 
Q 2463 3788 2469 3761 
Q 2475 3734 2478 3696 
Q 2481 3659 2481 3600 
Q 2481 3544 2476 3500 
Q 2472 3456 2462 3426 
Q 2453 3397 2436 3383 
Q 2419 3369 2397 3369 
Q 2363 3369 2289 3412 
Q 2216 3456 2109 3511 
Q 2003 3566 1858 3611 
Q 1713 3656 1531 3656 
Q 1363 3656 1238 3611 
Q 1113 3566 1031 3491 
Q 950 3416 909 3312 
Q 869 3209 869 3094 
Q 869 2925 947 2803 
Q 1025 2681 1154 2587 
Q 1284 2494 1450 2416 
Q 1616 2338 1787 2258 
Q 1959 2178 2125 2083 
Q 2291 1988 2420 1858 
Q 2550 1728 2629 1551 
Q 2709 1375 2709 1134 
z
" transform="scale(0.015625)"/>
       <path id="Calibri-68" d="M 2900 78 
Q 2900 53 2887 36 
Q 2875 19 2847 6 
Q 2819 -6 2769 -12 
Q 2719 -19 2644 -19 
Q 2566 -19 2516 -12 
Q 2466 -6 2437 6 
Q 2409 19 2396 36 
Q 2384 53 2384 78 
L 2384 1725 
Q 2384 1966 2346 2112 
Q 2309 2259 2237 2365 
Q 2166 2472 2052 2528 
Q 1938 2584 1788 2584 
Q 1594 2584 1400 2446 
Q 1206 2309 994 2044 
L 994 78 
Q 994 53 981 36 
Q 969 19 941 6 
Q 913 -6 863 -12 
Q 813 -19 734 -19 
Q 659 -19 609 -12 
Q 559 -6 529 6 
Q 500 19 489 36 
Q 478 53 478 78 
L 478 4253 
Q 478 4278 489 4297 
Q 500 4316 529 4328 
Q 559 4341 609 4347 
Q 659 4353 734 4353 
Q 813 4353 863 4347 
Q 913 4341 941 4328 
Q 969 4316 981 4297 
Q 994 4278 994 4253 
L 994 2569 
Q 1216 2803 1441 2917 
Q 1666 3031 1894 3031 
Q 2175 3031 2367 2936 
Q 2559 2841 2678 2681 
Q 2797 2522 2848 2308 
Q 2900 2094 2900 1791 
L 2900 78 
z
" transform="scale(0.015625)"/>
       <path id="Calibri-20" transform="scale(0.015625)"/>
       <path id="Calibri-6f" d="M 3094 1516 
Q 3094 1172 3003 883 
Q 2913 594 2733 384 
Q 2553 175 2283 58 
Q 2013 -59 1656 -59 
Q 1309 -59 1051 44 
Q 794 147 622 344 
Q 450 541 365 822 
Q 281 1103 281 1459 
Q 281 1803 370 2092 
Q 459 2381 639 2590 
Q 819 2800 1087 2915 
Q 1356 3031 1716 3031 
Q 2063 3031 2320 2928 
Q 2578 2825 2750 2628 
Q 2922 2431 3008 2150 
Q 3094 1869 3094 1516 
z
M 2550 1481 
Q 2550 1709 2508 1912 
Q 2466 2116 2369 2269 
Q 2272 2422 2106 2511 
Q 1941 2600 1694 2600 
Q 1466 2600 1302 2519 
Q 1138 2438 1031 2289 
Q 925 2141 873 1937 
Q 822 1734 822 1494 
Q 822 1263 864 1059 
Q 906 856 1004 704 
Q 1103 553 1268 464 
Q 1434 375 1681 375 
Q 1906 375 2072 456 
Q 2238 538 2344 684 
Q 2450 831 2500 1034 
Q 2550 1238 2550 1481 
z
" transform="scale(0.015625)"/>
       <path id="Calibri-66" d="M 2019 4047 
Q 2019 3988 2012 3952 
Q 2006 3916 1998 3894 
Q 1991 3872 1978 3864 
Q 1966 3856 1947 3856 
Q 1925 3856 1892 3870 
Q 1859 3884 1812 3901 
Q 1766 3919 1702 3933 
Q 1638 3947 1553 3947 
Q 1438 3947 1356 3909 
Q 1275 3872 1225 3792 
Q 1175 3713 1153 3586 
Q 1131 3459 1131 3278 
L 1131 2972 
L 1759 2972 
Q 1784 2972 1801 2961 
Q 1819 2950 1833 2923 
Q 1847 2897 1855 2856 
Q 1863 2816 1863 2756 
Q 1863 2644 1834 2594 
Q 1806 2544 1759 2544 
L 1131 2544 
L 1131 78 
Q 1131 53 1118 36 
Q 1106 19 1076 6 
Q 1047 -6 997 -12 
Q 947 -19 872 -19 
Q 797 -19 747 -12 
Q 697 -6 667 6 
Q 638 19 625 36 
Q 613 53 613 78 
L 613 2544 
L 216 2544 
Q 166 2544 141 2594 
Q 116 2644 116 2756 
Q 116 2816 122 2856 
Q 128 2897 140 2923 
Q 153 2950 172 2961 
Q 191 2972 216 2972 
L 613 2972 
L 613 3263 
Q 613 3556 667 3767 
Q 722 3978 834 4112 
Q 947 4247 1117 4311 
Q 1288 4375 1519 4375 
Q 1628 4375 1731 4354 
Q 1834 4334 1890 4311 
Q 1947 4288 1965 4269 
Q 1984 4250 1996 4220 
Q 2009 4191 2014 4148 
Q 2019 4106 2019 4047 
z
" transform="scale(0.015625)"/>
       <path id="Calibri-45" d="M 2788 222 
Q 2788 166 2781 123 
Q 2775 81 2759 53 
Q 2744 25 2723 12 
Q 2703 0 2678 0 
L 738 0 
Q 666 0 602 48 
Q 538 97 538 219 
L 538 3825 
Q 538 3947 602 3995 
Q 666 4044 738 4044 
L 2656 4044 
Q 2681 4044 2701 4031 
Q 2722 4019 2734 3991 
Q 2747 3963 2755 3920 
Q 2763 3878 2763 3816 
Q 2763 3759 2755 3717 
Q 2747 3675 2734 3648 
Q 2722 3622 2701 3609 
Q 2681 3597 2656 3597 
L 1075 3597 
L 1075 2328 
L 2431 2328 
Q 2456 2328 2476 2314 
Q 2497 2300 2511 2275 
Q 2525 2250 2531 2206 
Q 2538 2163 2538 2103 
Q 2538 2047 2531 2006 
Q 2525 1966 2511 1941 
Q 2497 1916 2476 1905 
Q 2456 1894 2431 1894 
L 1075 1894 
L 1075 447 
L 2678 447 
Q 2703 447 2723 434 
Q 2744 422 2759 395 
Q 2775 369 2781 326 
Q 2788 284 2788 222 
z
" transform="scale(0.015625)"/>
       <path id="Calibri-6d" d="M 4650 78 
Q 4650 53 4637 36 
Q 4625 19 4597 6 
Q 4569 -6 4519 -12 
Q 4469 -19 4394 -19 
Q 4316 -19 4266 -12 
Q 4216 -6 4186 6 
Q 4156 19 4143 36 
Q 4131 53 4131 78 
L 4131 1788 
Q 4131 1966 4100 2112 
Q 4069 2259 4000 2365 
Q 3931 2472 3825 2528 
Q 3719 2584 3575 2584 
Q 3397 2584 3217 2446 
Q 3038 2309 2822 2044 
L 2822 78 
Q 2822 53 2809 36 
Q 2797 19 2767 6 
Q 2738 -6 2688 -12 
Q 2638 -19 2563 -19 
Q 2491 -19 2439 -12 
Q 2388 -6 2358 6 
Q 2328 19 2317 36 
Q 2306 53 2306 78 
L 2306 1788 
Q 2306 1966 2272 2112 
Q 2238 2259 2169 2365 
Q 2100 2472 1995 2528 
Q 1891 2584 1747 2584 
Q 1569 2584 1387 2446 
Q 1206 2309 994 2044 
L 994 78 
Q 994 53 981 36 
Q 969 19 941 6 
Q 913 -6 863 -12 
Q 813 -19 734 -19 
Q 659 -19 609 -12 
Q 559 -6 529 6 
Q 500 19 489 36 
Q 478 53 478 78 
L 478 2891 
Q 478 2916 487 2933 
Q 497 2950 525 2964 
Q 553 2978 597 2983 
Q 641 2988 713 2988 
Q 781 2988 826 2983 
Q 872 2978 897 2964 
Q 922 2950 933 2933 
Q 944 2916 944 2891 
L 944 2519 
Q 1181 2784 1404 2907 
Q 1628 3031 1856 3031 
Q 2031 3031 2170 2990 
Q 2309 2950 2415 2876 
Q 2522 2803 2597 2701 
Q 2672 2600 2722 2475 
Q 2863 2628 2989 2734 
Q 3116 2841 3233 2906 
Q 3350 2972 3461 3001 
Q 3572 3031 3684 3031 
Q 3956 3031 4140 2936 
Q 4325 2841 4439 2681 
Q 4553 2522 4601 2308 
Q 4650 2094 4650 1856 
L 4650 78 
z
" transform="scale(0.015625)"/>
       <path id="Calibri-70" d="M 3066 1528 
Q 3066 1159 2986 865 
Q 2906 572 2751 367 
Q 2597 163 2369 52 
Q 2141 -59 1847 -59 
Q 1722 -59 1615 -34 
Q 1509 -9 1407 44 
Q 1306 97 1206 178 
Q 1106 259 994 369 
L 994 -1038 
Q 994 -1063 981 -1081 
Q 969 -1100 941 -1112 
Q 913 -1125 863 -1131 
Q 813 -1138 734 -1138 
Q 659 -1138 609 -1131 
Q 559 -1125 529 -1112 
Q 500 -1100 489 -1081 
Q 478 -1063 478 -1038 
L 478 2891 
Q 478 2919 487 2936 
Q 497 2953 525 2965 
Q 553 2978 597 2983 
Q 641 2988 703 2988 
Q 769 2988 811 2983 
Q 853 2978 881 2965 
Q 909 2953 920 2936 
Q 931 2919 931 2891 
L 931 2513 
Q 1059 2644 1178 2741 
Q 1297 2838 1417 2902 
Q 1538 2966 1664 2998 
Q 1791 3031 1931 3031 
Q 2238 3031 2453 2912 
Q 2669 2794 2805 2587 
Q 2941 2381 3003 2107 
Q 3066 1834 3066 1528 
z
M 2522 1469 
Q 2522 1684 2489 1886 
Q 2456 2088 2376 2244 
Q 2297 2400 2162 2494 
Q 2028 2588 1828 2588 
Q 1728 2588 1631 2558 
Q 1534 2528 1434 2464 
Q 1334 2400 1225 2295 
Q 1116 2191 994 2038 
L 994 919 
Q 1206 659 1397 521 
Q 1588 384 1797 384 
Q 1991 384 2130 478 
Q 2269 572 2355 728 
Q 2441 884 2481 1078 
Q 2522 1272 2522 1469 
z
" transform="scale(0.015625)"/>
       <path id="Calibri-6c" d="M 994 78 
Q 994 53 981 36 
Q 969 19 941 6 
Q 913 -6 863 -12 
Q 813 -19 734 -19 
Q 659 -19 609 -12 
Q 559 -6 529 6 
Q 500 19 489 36 
Q 478 53 478 78 
L 478 4253 
Q 478 4278 489 4297 
Q 500 4316 529 4328 
Q 559 4341 609 4347 
Q 659 4353 734 4353 
Q 813 4353 863 4347 
Q 913 4341 941 4328 
Q 969 4316 981 4297 
Q 994 4278 994 4253 
L 994 78 
z
" transform="scale(0.015625)"/>
       <path id="Calibri-79" d="M 1759 0 
L 1384 -1034 
Q 1366 -1084 1289 -1111 
Q 1213 -1138 1056 -1138 
Q 975 -1138 925 -1130 
Q 875 -1122 848 -1103 
Q 822 -1084 819 -1053 
Q 816 -1022 834 -978 
L 1222 0 
Q 1194 13 1169 41 
Q 1144 69 1134 100 
L 131 2788 
Q 106 2853 106 2890 
Q 106 2928 131 2950 
Q 156 2972 212 2980 
Q 269 2988 363 2988 
Q 456 2988 509 2983 
Q 563 2978 594 2965 
Q 625 2953 639 2929 
Q 653 2906 669 2866 
L 1472 609 
L 1481 609 
L 2256 2878 
Q 2275 2938 2301 2955 
Q 2328 2972 2381 2980 
Q 2434 2988 2534 2988 
Q 2622 2988 2678 2980 
Q 2734 2972 2761 2950 
Q 2788 2928 2788 2890 
Q 2788 2853 2769 2797 
L 1759 0 
z
" transform="scale(0.015625)"/>
       <path id="Calibri-6e" d="M 2900 78 
Q 2900 53 2887 36 
Q 2875 19 2847 6 
Q 2819 -6 2769 -12 
Q 2719 -19 2644 -19 
Q 2566 -19 2516 -12 
Q 2466 -6 2437 6 
Q 2409 19 2396 36 
Q 2384 53 2384 78 
L 2384 1725 
Q 2384 1966 2346 2112 
Q 2309 2259 2237 2365 
Q 2166 2472 2052 2528 
Q 1938 2584 1788 2584 
Q 1594 2584 1400 2446 
Q 1206 2309 994 2044 
L 994 78 
Q 994 53 981 36 
Q 969 19 941 6 
Q 913 -6 863 -12 
Q 813 -19 734 -19 
Q 659 -19 609 -12 
Q 559 -6 529 6 
Q 500 19 489 36 
Q 478 53 478 78 
L 478 2891 
Q 478 2916 487 2933 
Q 497 2950 525 2964 
Q 553 2978 597 2983 
Q 641 2988 713 2988 
Q 781 2988 826 2983 
Q 872 2978 897 2964 
Q 922 2950 933 2933 
Q 944 2916 944 2891 
L 944 2519 
Q 1181 2784 1417 2907 
Q 1653 3031 1894 3031 
Q 2175 3031 2367 2936 
Q 2559 2841 2678 2681 
Q 2797 2522 2848 2308 
Q 2900 2094 2900 1794 
L 2900 78 
z
" transform="scale(0.015625)"/>
       <path id="Calibri-74" d="M 1941 284 
Q 1941 194 1928 141 
Q 1916 88 1891 63 
Q 1866 38 1816 16 
Q 1766 -6 1702 -20 
Q 1638 -34 1566 -43 
Q 1494 -53 1422 -53 
Q 1203 -53 1047 5 
Q 891 63 791 180 
Q 691 297 645 476 
Q 600 656 600 900 
L 600 2544 
L 206 2544 
Q 159 2544 131 2594 
Q 103 2644 103 2756 
Q 103 2816 111 2856 
Q 119 2897 131 2923 
Q 144 2950 164 2961 
Q 184 2972 209 2972 
L 600 2972 
L 600 3641 
Q 600 3663 611 3681 
Q 622 3700 651 3714 
Q 681 3728 731 3734 
Q 781 3741 856 3741 
Q 934 3741 984 3734 
Q 1034 3728 1062 3714 
Q 1091 3700 1103 3681 
Q 1116 3663 1116 3641 
L 1116 2972 
L 1838 2972 
Q 1863 2972 1881 2961 
Q 1900 2950 1914 2923 
Q 1928 2897 1934 2856 
Q 1941 2816 1941 2756 
Q 1941 2644 1912 2594 
Q 1884 2544 1838 2544 
L 1116 2544 
L 1116 975 
Q 1116 684 1202 536 
Q 1288 388 1509 388 
Q 1581 388 1637 402 
Q 1694 416 1737 431 
Q 1781 447 1812 461 
Q 1844 475 1869 475 
Q 1884 475 1898 467 
Q 1913 459 1920 437 
Q 1928 416 1934 378 
Q 1941 341 1941 284 
z
" transform="scale(0.015625)"/>
      </defs>
      <use xlink:href="#Calibri-53"/>
      <use xlink:href="#Calibri-68" x="45.947266"/>
      <use xlink:href="#Calibri-61" x="98.486328"/>
      <use xlink:href="#Calibri-72" x="146.386719"/>
      <use xlink:href="#Calibri-65" x="181.25"/>
      <use xlink:href="#Calibri-20" x="231.005859"/>
      <use xlink:href="#Calibri-6f" x="253.613281"/>
      <use xlink:href="#Calibri-66" x="306.347656"/>
      <use xlink:href="#Calibri-20" x="336.865234"/>
      <use xlink:href="#Calibri-45" x="359.472656"/>
      <use xlink:href="#Calibri-6d" x="408.300781"/>
      <use xlink:href="#Calibri-70" x="488.183594"/>
      <use xlink:href="#Calibri-6c" x="540.722656"/>
      <use xlink:href="#Calibri-6f" x="563.671875"/>
      <use xlink:href="#Calibri-79" x="616.40625"/>
      <use xlink:href="#Calibri-6d" x="661.669922"/>
      <use xlink:href="#Calibri-65" x="741.552734"/>
      <use xlink:href="#Calibri-6e" x="791.308594"/>
      <use xlink:href="#Calibri-74" x="843.847656"/>
     </g>
    </g>
   </g>
   <g id="patch_3">
    <path d="M 504.116307 78.595909 
L 513.512468 78.595909 
Q 516.448768 78.595909 516.448768 78.263318 
L 516.448768 50.994799 
Q 516.448768 50.662209 513.512468 50.662209 
L 504.116307 50.662209 
Q 501.180006 50.662209 501.180006 50.994799 
L 501.180006 78.263318 
Q 501.180006 78.595909 504.116307 78.595909 
z
" clip-path="url(#p541927df11)" style="fill: #696466"/>
   </g>
   <g id="patch_4">
    <path d="M 484.540971 79.983483 
L 493.937132 79.983483 
Q 496.873432 79.983483 496.873432 79.650892 
L 496.873432 50.994799 
Q 496.873432 50.662209 493.937132 50.662209 
L 484.540971 50.662209 
Q 481.60467 50.662209 481.60467 50.994799 
L 481.60467 79.650892 
Q 481.60467 79.983483 484.540971 79.983483 
z
" clip-path="url(#p541927df11)" style="fill: #696466"/>
   </g>
   <g id="patch_5">
    <path d="M 464.965635 81.693763 
L 474.361796 81.693763 
Q 477.298096 81.693763 477.298096 81.361172 
L 477.298096 50.994799 
Q 477.298096 50.662209 474.361796 50.662209 
L 464.965635 50.662209 
Q 462.029334 50.662209 462.029334 50.994799 
L 462.029334 81.361172 
Q 462.029334 81.693763 464.965635 81.693763 
z
" clip-path="url(#p541927df11)" style="fill: #696466"/>
   </g>
   <g id="patch_6">
    <path d="M 445.390299 81.992895 
L 454.78646 81.992895 
Q 457.72276 81.992895 457.72276 81.660304 
L 457.72276 50.994799 
Q 457.72276 50.662209 454.78646 50.662209 
L 445.390299 50.662209 
Q 442.453998 50.662209 442.453998 50.994799 
L 442.453998 81.660304 
Q 442.453998 81.992895 445.390299 81.992895 
z
" clip-path="url(#p541927df11)" style="fill: #696466"/>
   </g>
   <g id="patch_7">
    <path d="M 425.814963 83.127445 
L 435.211124 83.127445 
Q 438.147424 83.127445 438.147424 82.794854 
L 438.147424 50.994799 
Q 438.147424 50.662209 435.211124 50.662209 
L 425.814963 50.662209 
Q 422.878662 50.662209 422.878662 50.994799 
L 422.878662 82.794854 
Q 422.878662 83.127445 425.814963 83.127445 
z
" clip-path="url(#p541927df11)" style="fill: #696466"/>
   </g>
   <g id="patch_8">
    <path d="M 406.239627 84.866513 
L 415.635788 84.866513 
Q 418.572088 84.866513 418.572088 84.533922 
L 418.572088 50.994799 
Q 418.572088 50.662209 415.635788 50.662209 
L 406.239627 50.662209 
Q 403.303326 50.662209 403.303326 50.994799 
L 403.303326 84.533922 
Q 403.303326 84.866513 406.239627 84.866513 
z
" clip-path="url(#p541927df11)" style="fill: #696466"/>
   </g>
   <g id="patch_9">
    <path d="M 386.664291 76.140067 
L 396.060452 76.140067 
Q 398.996752 76.140067 398.996752 75.807476 
L 398.996752 50.994799 
Q 398.996752 50.662209 396.060452 50.662209 
L 386.664291 50.662209 
Q 383.72799 50.662209 383.72799 50.994799 
L 383.72799 75.807476 
Q 383.72799 76.140067 386.664291 76.140067 
z
" clip-path="url(#p541927df11)" style="fill: #696466"/>
   </g>
   <g id="patch_10">
    <path d="M 367.088955 72.644406 
L 376.485116 72.644406 
Q 379.421416 72.644406 379.421416 72.311815 
L 379.421416 50.994799 
Q 379.421416 50.662209 376.485116 50.662209 
L 367.088955 50.662209 
Q 364.152654 50.662209 364.152654 50.994799 
L 364.152654 72.311815 
Q 364.152654 72.644406 367.088955 72.644406 
z
" clip-path="url(#p541927df11)" style="fill: #696466"/>
   </g>
   <g id="patch_11">
    <path d="M 347.513619 70.830886 
L 356.90978 70.830886 
Q 359.84608 70.830886 359.84608 70.498295 
L 359.84608 50.994799 
Q 359.84608 50.662209 356.90978 50.662209 
L 347.513619 50.662209 
Q 344.577318 50.662209 344.577318 50.994799 
L 344.577318 70.498295 
Q 344.577318 70.830886 347.513619 70.830886 
z
" clip-path="url(#p541927df11)" style="fill: #696466"/>
   </g>
   <g id="patch_12">
    <path d="M 327.938283 74.272586 
L 337.334444 74.272586 
Q 340.270744 74.272586 340.270744 73.939995 
L 340.270744 50.994799 
Q 340.270744 50.662209 337.334444 50.662209 
L 327.938283 50.662209 
Q 325.001982 50.662209 325.001982 50.994799 
L 325.001982 73.939995 
Q 325.001982 74.272586 327.938283 74.272586 
z
" clip-path="url(#p541927df11)" style="fill: #696466"/>
   </g>
   <g id="patch_13">
    <path d="M 308.362947 76.640031 
L 317.759108 76.640031 
Q 320.695408 76.640031 320.695408 76.30744 
L 320.695408 50.994799 
Q 320.695408 50.662209 317.759108 50.662209 
L 308.362947 50.662209 
Q 305.426646 50.662209 305.426646 50.994799 
L 305.426646 76.30744 
Q 305.426646 76.640031 308.362947 76.640031 
z
" clip-path="url(#p541927df11)" style="fill: #696466"/>
   </g>
   <g id="patch_14">
    <path d="M 288.787611 83.073308 
L 298.183772 83.073308 
Q 301.120072 83.073308 301.120072 82.740717 
L 301.120072 50.994799 
Q 301.120072 50.662209 298.183772 50.662209 
L 288.787611 50.662209 
Q 285.85131 50.662209 285.85131 50.994799 
L 285.85131 82.740717 
Q 285.85131 83.073308 288.787611 83.073308 
z
" clip-path="url(#p541927df11)" style="fill: #696466"/>
   </g>
   <g id="patch_15">
    <path d="M 269.212275 97.840671 
L 278.608436 97.840671 
Q 281.544736 97.840671 281.544736 97.50808 
L 281.544736 50.994799 
Q 281.544736 50.662209 278.608436 50.662209 
L 269.212275 50.662209 
Q 266.275974 50.662209 266.275974 50.994799 
L 266.275974 97.50808 
Q 266.275974 97.840671 269.212275 97.840671 
z
" clip-path="url(#p541927df11)" style="fill: #696466"/>
   </g>
   <g id="patch_16">
    <path d="M 249.636939 94.091286 
L 259.0331 94.091286 
Q 261.9694 94.091286 261.9694 93.758696 
L 261.9694 50.994799 
Q 261.9694 50.662209 259.0331 50.662209 
L 249.636939 50.662209 
Q 246.700638 50.662209 246.700638 50.994799 
L 246.700638 93.758696 
Q 246.700638 94.091286 249.636939 94.091286 
z
" clip-path="url(#p541927df11)" style="fill: #696466"/>
   </g>
   <g id="patch_17">
    <path d="M 230.061603 77.434347 
L 239.457764 77.434347 
Q 242.394064 77.434347 242.394064 77.101757 
L 242.394064 50.994799 
Q 242.394064 50.662209 239.457764 50.662209 
L 230.061603 50.662209 
Q 227.125302 50.662209 227.125302 50.994799 
L 227.125302 77.101757 
Q 227.125302 77.434347 230.061603 77.434347 
z
" clip-path="url(#p541927df11)" style="fill: #696466"/>
   </g>
   <g id="patch_18">
    <path d="M 210.486267 82.534349 
L 219.882428 82.534349 
Q 222.818728 82.534349 222.818728 82.201758 
L 222.818728 50.994799 
Q 222.818728 50.662209 219.882428 50.662209 
L 210.486267 50.662209 
Q 207.549966 50.662209 207.549966 50.994799 
L 207.549966 82.201758 
Q 207.549966 82.534349 210.486267 82.534349 
z
" clip-path="url(#p541927df11)" style="fill: #696466"/>
   </g>
   <g id="patch_19">
    <path d="M 190.910931 86.684466 
L 200.307092 86.684466 
Q 203.243393 86.684466 203.243393 86.351875 
L 203.243393 50.994799 
Q 203.243393 50.662209 200.307092 50.662209 
L 190.910931 50.662209 
Q 187.97463 50.662209 187.97463 50.994799 
L 187.97463 86.351875 
Q 187.97463 86.684466 190.910931 86.684466 
z
" clip-path="url(#p541927df11)" style="fill: #696466"/>
   </g>
   <g id="patch_20">
    <path d="M 171.335595 97.808159 
L 180.731756 97.808159 
Q 183.668057 97.808159 183.668057 97.475568 
L 183.668057 50.994799 
Q 183.668057 50.662209 180.731756 50.662209 
L 171.335595 50.662209 
Q 168.399294 50.662209 168.399294 50.994799 
L 168.399294 97.475568 
Q 168.399294 97.808159 171.335595 97.808159 
z
" clip-path="url(#p541927df11)" style="fill: #696466"/>
   </g>
   <g id="patch_21">
    <path d="M 151.760259 90.222514 
L 161.15642 90.222514 
Q 164.092721 90.222514 164.092721 89.889923 
L 164.092721 50.994799 
Q 164.092721 50.662209 161.15642 50.662209 
L 151.760259 50.662209 
Q 148.823958 50.662209 148.823958 50.994799 
L 148.823958 89.889923 
Q 148.823958 90.222514 151.760259 90.222514 
z
" clip-path="url(#p541927df11)" style="fill: #696466"/>
   </g>
   <g id="patch_22">
    <path d="M 132.184923 105.073758 
L 141.581084 105.073758 
Q 144.517385 105.073758 144.517385 104.741167 
L 144.517385 50.994799 
Q 144.517385 50.662209 141.581084 50.662209 
L 132.184923 50.662209 
Q 129.248623 50.662209 129.248623 50.994799 
L 129.248623 104.741167 
Q 129.248623 105.073758 132.184923 105.073758 
z
" clip-path="url(#p541927df11)" style="fill: #696466"/>
   </g>
   <g id="patch_23">
    <path d="M 112.609587 100.174308 
L 122.005748 100.174308 
Q 124.942049 100.174308 124.942049 99.841718 
L 124.942049 50.994799 
Q 124.942049 50.662209 122.005748 50.662209 
L 112.609587 50.662209 
Q 109.673287 50.662209 109.673287 50.994799 
L 109.673287 99.841718 
Q 109.673287 100.174308 112.609587 100.174308 
z
" clip-path="url(#p541927df11)" style="fill: #696466"/>
   </g>
   <g id="patch_24">
    <path d="M 93.034251 100.951199 
L 102.430412 100.951199 
Q 105.366713 100.951199 105.366713 100.618608 
L 105.366713 50.994799 
Q 105.366713 50.662209 102.430412 50.662209 
L 93.034251 50.662209 
Q 90.097951 50.662209 90.097951 50.994799 
L 90.097951 100.618608 
Q 90.097951 100.951199 93.034251 100.951199 
z
" clip-path="url(#p541927df11)" style="fill: #696466"/>
   </g>
   <g id="patch_25">
    <path d="M 504.116307 165.773514 
L 513.512468 165.773514 
Q 516.448768 165.773514 516.448768 165.440923 
L 516.448768 79.194573 
Q 516.448768 78.861982 513.512468 78.861982 
L 504.116307 78.861982 
Q 501.180006 78.861982 501.180006 79.194573 
L 501.180006 165.440923 
Q 501.180006 165.773514 504.116307 165.773514 
z
" clip-path="url(#p541927df11)" style="fill: #d6d0d3"/>
   </g>
   <g id="patch_26">
    <path d="M 484.540971 168.97095 
L 493.937132 168.97095 
Q 496.873432 168.97095 496.873432 168.638359 
L 496.873432 80.582146 
Q 496.873432 80.249555 493.937132 80.249555 
L 484.540971 80.249555 
Q 481.60467 80.249555 481.60467 80.582146 
L 481.60467 168.638359 
Q 481.60467 168.97095 484.540971 168.97095 
z
" clip-path="url(#p541927df11)" style="fill: #d6d0d3"/>
   </g>
   <g id="patch_27">
    <path d="M 464.965635 172.258597 
L 474.361796 172.258597 
Q 477.298096 172.258597 477.298096 171.926006 
L 477.298096 82.292426 
Q 477.298096 81.959835 474.361796 81.959835 
L 464.965635 81.959835 
Q 462.029334 81.959835 462.029334 82.292426 
L 462.029334 171.926006 
Q 462.029334 172.258597 464.965635 172.258597 
z
" clip-path="url(#p541927df11)" style="fill: #d6d0d3"/>
   </g>
   <g id="patch_28">
    <path d="M 445.390299 172.099738 
L 454.78646 172.099738 
Q 457.72276 172.099738 457.72276 171.767147 
L 457.72276 82.591558 
Q 457.72276 82.258968 454.78646 82.258968 
L 445.390299 82.258968 
Q 442.453998 82.258968 442.453998 82.591558 
L 442.453998 171.767147 
Q 442.453998 172.099738 445.390299 172.099738 
z
" clip-path="url(#p541927df11)" style="fill: #d6d0d3"/>
   </g>
   <g id="patch_29">
    <path d="M 425.814963 167.712449 
L 435.211124 167.712449 
Q 438.147424 167.712449 438.147424 167.379858 
L 438.147424 83.726109 
Q 438.147424 83.393518 435.211124 83.393518 
L 425.814963 83.393518 
Q 422.878662 83.393518 422.878662 83.726109 
L 422.878662 167.379858 
Q 422.878662 167.712449 425.814963 167.712449 
z
" clip-path="url(#p541927df11)" style="fill: #d6d0d3"/>
   </g>
   <g id="patch_30">
    <path d="M 406.239627 163.892043 
L 415.635788 163.892043 
Q 418.572088 163.892043 418.572088 163.559453 
L 418.572088 85.465177 
Q 418.572088 85.132586 415.635788 85.132586 
L 406.239627 85.132586 
Q 403.303326 85.132586 403.303326 85.465177 
L 403.303326 163.559453 
Q 403.303326 163.892043 406.239627 163.892043 
z
" clip-path="url(#p541927df11)" style="fill: #d6d0d3"/>
   </g>
   <g id="patch_31">
    <path d="M 386.664291 153.933835 
L 396.060452 153.933835 
Q 398.996752 153.933835 398.996752 153.601244 
L 398.996752 76.73873 
Q 398.996752 76.40614 396.060452 76.40614 
L 386.664291 76.40614 
Q 383.72799 76.40614 383.72799 76.73873 
L 383.72799 153.601244 
Q 383.72799 153.933835 386.664291 153.933835 
z
" clip-path="url(#p541927df11)" style="fill: #d6d0d3"/>
   </g>
   <g id="patch_32">
    <path d="M 367.088955 151.78248 
L 376.485116 151.78248 
Q 379.421416 151.78248 379.421416 151.44989 
L 379.421416 73.24307 
Q 379.421416 72.910479 376.485116 72.910479 
L 367.088955 72.910479 
Q 364.152654 72.910479 364.152654 73.24307 
L 364.152654 151.44989 
Q 364.152654 151.78248 367.088955 151.78248 
z
" clip-path="url(#p541927df11)" style="fill: #d6d0d3"/>
   </g>
   <g id="patch_33">
    <path d="M 347.513619 157.186065 
L 356.90978 157.186065 
Q 359.84608 157.186065 359.84608 156.853474 
L 359.84608 71.429549 
Q 359.84608 71.096958 356.90978 71.096958 
L 347.513619 71.096958 
Q 344.577318 71.096958 344.577318 71.429549 
L 344.577318 156.853474 
Q 344.577318 157.186065 347.513619 157.186065 
z
" clip-path="url(#p541927df11)" style="fill: #d6d0d3"/>
   </g>
   <g id="patch_34">
    <path d="M 327.938283 142.062825 
L 337.334444 142.062825 
Q 340.270744 142.062825 340.270744 141.730234 
L 340.270744 74.871249 
Q 340.270744 74.538658 337.334444 74.538658 
L 327.938283 74.538658 
Q 325.001982 74.538658 325.001982 74.871249 
L 325.001982 141.730234 
Q 325.001982 142.062825 327.938283 142.062825 
z
" clip-path="url(#p541927df11)" style="fill: #d6d0d3"/>
   </g>
   <g id="patch_35">
    <path d="M 308.362947 142.897923 
L 317.759108 142.897923 
Q 320.695408 142.897923 320.695408 142.565332 
L 320.695408 77.238695 
Q 320.695408 76.906104 317.759108 76.906104 
L 308.362947 76.906104 
Q 305.426646 76.906104 305.426646 77.238695 
L 305.426646 142.565332 
Q 305.426646 142.897923 308.362947 142.897923 
z
" clip-path="url(#p541927df11)" style="fill: #d6d0d3"/>
   </g>
   <g id="patch_36">
    <path d="M 288.787611 153.778787 
L 298.183772 153.778787 
Q 301.120072 153.778787 301.120072 153.446197 
L 301.120072 83.671971 
Q 301.120072 83.33938 298.183772 83.33938 
L 288.787611 83.33938 
Q 285.85131 83.33938 285.85131 83.671971 
L 285.85131 153.446197 
Q 285.85131 153.778787 288.787611 153.778787 
z
" clip-path="url(#p541927df11)" style="fill: #d6d0d3"/>
   </g>
   <g id="patch_37">
    <path d="M 269.212275 164.91946 
L 278.608436 164.91946 
Q 281.544736 164.91946 281.544736 164.586869 
L 281.544736 98.439334 
Q 281.544736 98.106744 278.608436 98.106744 
L 269.212275 98.106744 
Q 266.275974 98.106744 266.275974 98.439334 
L 266.275974 164.586869 
Q 266.275974 164.91946 269.212275 164.91946 
z
" clip-path="url(#p541927df11)" style="fill: #d6d0d3"/>
   </g>
   <g id="patch_38">
    <path d="M 249.636939 156.901906 
L 259.0331 156.901906 
Q 261.9694 156.901906 261.9694 156.569315 
L 261.9694 94.68995 
Q 261.9694 94.357359 259.0331 94.357359 
L 249.636939 94.357359 
Q 246.700638 94.357359 246.700638 94.68995 
L 246.700638 156.569315 
Q 246.700638 156.901906 249.636939 156.901906 
z
" clip-path="url(#p541927df11)" style="fill: #d6d0d3"/>
   </g>
   <g id="patch_39">
    <path d="M 230.061603 144.290676 
L 239.457764 144.290676 
Q 242.394064 144.290676 242.394064 143.958085 
L 242.394064 78.033011 
Q 242.394064 77.70042 239.457764 77.70042 
L 230.061603 77.70042 
Q 227.125302 77.70042 227.125302 78.033011 
L 227.125302 143.958085 
Q 227.125302 144.290676 230.061603 144.290676 
z
" clip-path="url(#p541927df11)" style="fill: #d6d0d3"/>
   </g>
   <g id="patch_40">
    <path d="M 210.486267 149.617282 
L 219.882428 149.617282 
Q 222.818728 149.617282 222.818728 149.284691 
L 222.818728 83.133012 
Q 222.818728 82.800421 219.882428 82.800421 
L 210.486267 82.800421 
Q 207.549966 82.800421 207.549966 83.133012 
L 207.549966 149.284691 
Q 207.549966 149.617282 210.486267 149.617282 
z
" clip-path="url(#p541927df11)" style="fill: #d6d0d3"/>
   </g>
   <g id="patch_41">
    <path d="M 190.910931 170.6155 
L 200.307092 170.6155 
Q 203.243393 170.6155 203.243393 170.282909 
L 203.243393 87.283129 
Q 203.243393 86.950538 200.307092 86.950538 
L 190.910931 86.950538 
Q 187.97463 86.950538 187.97463 87.283129 
L 187.97463 170.282909 
Q 187.97463 170.6155 190.910931 170.6155 
z
" clip-path="url(#p541927df11)" style="fill: #d6d0d3"/>
   </g>
   <g id="patch_42">
    <path d="M 171.335595 159.398007 
L 180.731756 159.398007 
Q 183.668057 159.398007 183.668057 159.065416 
L 183.668057 98.406822 
Q 183.668057 98.074232 180.731756 98.074232 
L 171.335595 98.074232 
Q 168.399294 98.074232 168.399294 98.406822 
L 168.399294 159.065416 
Q 168.399294 159.398007 171.335595 159.398007 
z
" clip-path="url(#p541927df11)" style="fill: #d6d0d3"/>
   </g>
   <g id="patch_43">
    <path d="M 151.760259 159.118587 
L 161.15642 159.118587 
Q 164.092721 159.118587 164.092721 158.785996 
L 164.092721 90.821177 
Q 164.092721 90.488587 161.15642 90.488587 
L 151.760259 90.488587 
Q 148.823958 90.488587 148.823958 90.821177 
L 148.823958 158.785996 
Q 148.823958 159.118587 151.760259 159.118587 
z
" clip-path="url(#p541927df11)" style="fill: #d6d0d3"/>
   </g>
   <g id="patch_44">
    <path d="M 132.184923 171.746955 
L 141.581084 171.746955 
Q 144.517385 171.746955 144.517385 171.414364 
L 144.517385 105.672421 
Q 144.517385 105.339831 141.581084 105.339831 
L 132.184923 105.339831 
Q 129.248623 105.339831 129.248623 105.672421 
L 129.248623 171.414364 
Q 129.248623 171.746955 132.184923 171.746955 
z
" clip-path="url(#p541927df11)" style="fill: #d6d0d3"/>
   </g>
   <g id="patch_45">
    <path d="M 112.609587 173.525562 
L 122.005748 173.525562 
Q 124.942049 173.525562 124.942049 173.192971 
L 124.942049 100.772972 
Q 124.942049 100.440381 122.005748 100.440381 
L 112.609587 100.440381 
Q 109.673287 100.440381 109.673287 100.772972 
L 109.673287 173.192971 
Q 109.673287 173.525562 112.609587 173.525562 
z
" clip-path="url(#p541927df11)" style="fill: #d6d0d3"/>
   </g>
   <g id="patch_46">
    <path d="M 93.034251 173.993483 
L 102.430412 173.993483 
Q 105.366713 173.993483 105.366713 173.660892 
L 105.366713 101.549862 
Q 105.366713 101.217271 102.430412 101.217271 
L 93.034251 101.217271 
Q 90.097951 101.217271 90.097951 101.549862 
L 90.097951 173.660892 
Q 90.097951 173.993483 93.034251 173.993483 
z
" clip-path="url(#p541927df11)" style="fill: #d6d0d3"/>
   </g>
   <g id="patch_47">
    <path d="M 504.116307 272.12333 
L 513.512468 272.12333 
Q 516.448768 272.12333 516.448768 271.79074 
L 516.448768 166.372178 
Q 516.448768 166.039587 513.512468 166.039587 
L 504.116307 166.039587 
Q 501.180006 166.039587 501.180006 166.372178 
L 501.180006 271.79074 
Q 501.180006 272.12333 504.116307 272.12333 
z
" clip-path="url(#p541927df11)" style="fill: #d0dd28"/>
   </g>
   <g id="patch_48">
    <path d="M 484.540971 272.12333 
L 493.937132 272.12333 
Q 496.873432 272.12333 496.873432 271.79074 
L 496.873432 169.569613 
Q 496.873432 169.237022 493.937132 169.237022 
L 484.540971 169.237022 
Q 481.60467 169.237022 481.60467 169.569613 
L 481.60467 271.79074 
Q 481.60467 272.12333 484.540971 272.12333 
z
" clip-path="url(#p541927df11)" style="fill: #d0dd28"/>
   </g>
   <g id="patch_49">
    <path d="M 464.965635 272.12333 
L 474.361796 272.12333 
Q 477.298096 272.12333 477.298096 271.79074 
L 477.298096 172.85726 
Q 477.298096 172.524669 474.361796 172.524669 
L 464.965635 172.524669 
Q 462.029334 172.524669 462.029334 172.85726 
L 462.029334 271.79074 
Q 462.029334 272.12333 464.965635 272.12333 
z
" clip-path="url(#p541927df11)" style="fill: #d0dd28"/>
   </g>
   <g id="patch_50">
    <path d="M 445.390299 272.12333 
L 454.78646 272.12333 
Q 457.72276 272.12333 457.72276 271.79074 
L 457.72276 172.698401 
Q 457.72276 172.36581 454.78646 172.36581 
L 445.390299 172.36581 
Q 442.453998 172.36581 442.453998 172.698401 
L 442.453998 271.79074 
Q 442.453998 272.12333 445.390299 272.12333 
z
" clip-path="url(#p541927df11)" style="fill: #d0dd28"/>
   </g>
   <g id="patch_51">
    <path d="M 425.814963 272.12333 
L 435.211124 272.12333 
Q 438.147424 272.12333 438.147424 271.79074 
L 438.147424 168.311113 
Q 438.147424 167.978522 435.211124 167.978522 
L 425.814963 167.978522 
Q 422.878662 167.978522 422.878662 168.311113 
L 422.878662 271.79074 
Q 422.878662 272.12333 425.814963 272.12333 
z
" clip-path="url(#p541927df11)" style="fill: #d0dd28"/>
   </g>
   <g id="patch_52">
    <path d="M 406.239627 272.12333 
L 415.635788 272.12333 
Q 418.572088 272.12333 418.572088 271.79074 
L 418.572088 164.490707 
Q 418.572088 164.158116 415.635788 164.158116 
L 406.239627 164.158116 
Q 403.303326 164.158116 403.303326 164.490707 
L 403.303326 271.79074 
Q 403.303326 272.12333 406.239627 272.12333 
z
" clip-path="url(#p541927df11)" style="fill: #d0dd28"/>
   </g>
   <g id="patch_53">
    <path d="M 386.664291 272.12333 
L 396.060452 272.12333 
Q 398.996752 272.12333 398.996752 271.79074 
L 398.996752 154.532498 
Q 398.996752 154.199908 396.060452 154.199908 
L 386.664291 154.199908 
Q 383.72799 154.199908 383.72799 154.532498 
L 383.72799 271.79074 
Q 383.72799 272.12333 386.664291 272.12333 
z
" clip-path="url(#p541927df11)" style="fill: #d0dd28"/>
   </g>
   <g id="patch_54">
    <path d="M 367.088955 272.12333 
L 376.485116 272.12333 
Q 379.421416 272.12333 379.421416 271.79074 
L 379.421416 152.381144 
Q 379.421416 152.048553 376.485116 152.048553 
L 367.088955 152.048553 
Q 364.152654 152.048553 364.152654 152.381144 
L 364.152654 271.79074 
Q 364.152654 272.12333 367.088955 272.12333 
z
" clip-path="url(#p541927df11)" style="fill: #d0dd28"/>
   </g>
   <g id="patch_55">
    <path d="M 347.513619 272.12333 
L 356.90978 272.12333 
Q 359.84608 272.12333 359.84608 271.79074 
L 359.84608 157.784729 
Q 359.84608 157.452138 356.90978 157.452138 
L 347.513619 157.452138 
Q 344.577318 157.452138 344.577318 157.784729 
L 344.577318 271.79074 
Q 344.577318 272.12333 347.513619 272.12333 
z
" clip-path="url(#p541927df11)" style="fill: #d0dd28"/>
   </g>
   <g id="patch_56">
    <path d="M 327.938283 272.12333 
L 337.334444 272.12333 
Q 340.270744 272.12333 340.270744 271.79074 
L 340.270744 142.661488 
Q 340.270744 142.328898 337.334444 142.328898 
L 327.938283 142.328898 
Q 325.001982 142.328898 325.001982 142.661488 
L 325.001982 271.79074 
Q 325.001982 272.12333 327.938283 272.12333 
z
" clip-path="url(#p541927df11)" style="fill: #d0dd28"/>
   </g>
   <g id="patch_57">
    <path d="M 308.362947 272.12333 
L 317.759108 272.12333 
Q 320.695408 272.12333 320.695408 271.79074 
L 320.695408 143.496586 
Q 320.695408 143.163995 317.759108 143.163995 
L 308.362947 143.163995 
Q 305.426646 143.163995 305.426646 143.496586 
L 305.426646 271.79074 
Q 305.426646 272.12333 308.362947 272.12333 
z
" clip-path="url(#p541927df11)" style="fill: #d0dd28"/>
   </g>
   <g id="patch_58">
    <path d="M 288.787611 272.12333 
L 298.183772 272.12333 
Q 301.120072 272.12333 301.120072 271.79074 
L 301.120072 154.377451 
Q 301.120072 154.04486 298.183772 154.04486 
L 288.787611 154.04486 
Q 285.85131 154.04486 285.85131 154.377451 
L 285.85131 271.79074 
Q 285.85131 272.12333 288.787611 272.12333 
z
" clip-path="url(#p541927df11)" style="fill: #d0dd28"/>
   </g>
   <g id="patch_59">
    <path d="M 269.212275 272.12333 
L 278.608436 272.12333 
Q 281.544736 272.12333 281.544736 271.79074 
L 281.544736 165.518123 
Q 281.544736 165.185533 278.608436 165.185533 
L 269.212275 165.185533 
Q 266.275974 165.185533 266.275974 165.518123 
L 266.275974 271.79074 
Q 266.275974 272.12333 269.212275 272.12333 
z
" clip-path="url(#p541927df11)" style="fill: #d0dd28"/>
   </g>
   <g id="patch_60">
    <path d="M 249.636939 272.12333 
L 259.0331 272.12333 
Q 261.9694 272.12333 261.9694 271.79074 
L 261.9694 157.50057 
Q 261.9694 157.167979 259.0331 157.167979 
L 249.636939 157.167979 
Q 246.700638 157.167979 246.700638 157.50057 
L 246.700638 271.79074 
Q 246.700638 272.12333 249.636939 272.12333 
z
" clip-path="url(#p541927df11)" style="fill: #d0dd28"/>
   </g>
   <g id="patch_61">
    <path d="M 230.061603 272.12333 
L 239.457764 272.12333 
Q 242.394064 272.12333 242.394064 271.79074 
L 242.394064 144.889339 
Q 242.394064 144.556749 239.457764 144.556749 
L 230.061603 144.556749 
Q 227.125302 144.556749 227.125302 144.889339 
L 227.125302 271.79074 
Q 227.125302 272.12333 230.061603 272.12333 
z
" clip-path="url(#p541927df11)" style="fill: #d0dd28"/>
   </g>
   <g id="patch_62">
    <path d="M 210.486267 272.12333 
L 219.882428 272.12333 
Q 222.818728 272.12333 222.818728 271.79074 
L 222.818728 150.215945 
Q 222.818728 149.883354 219.882428 149.883354 
L 210.486267 149.883354 
Q 207.549966 149.883354 207.549966 150.215945 
L 207.549966 271.79074 
Q 207.549966 272.12333 210.486267 272.12333 
z
" clip-path="url(#p541927df11)" style="fill: #d0dd28"/>
   </g>
   <g id="patch_63">
    <path d="M 190.910931 272.12333 
L 200.307092 272.12333 
Q 203.243393 272.12333 203.243393 271.79074 
L 203.243393 171.214164 
Q 203.243393 170.881573 200.307092 170.881573 
L 190.910931 170.881573 
Q 187.97463 170.881573 187.97463 171.214164 
L 187.97463 271.79074 
Q 187.97463 272.12333 190.910931 272.12333 
z
" clip-path="url(#p541927df11)" style="fill: #d0dd28"/>
   </g>
   <g id="patch_64">
    <path d="M 171.335595 272.12333 
L 180.731756 272.12333 
Q 183.668057 272.12333 183.668057 271.79074 
L 183.668057 159.99667 
Q 183.668057 159.66408 180.731756 159.66408 
L 171.335595 159.66408 
Q 168.399294 159.66408 168.399294 159.99667 
L 168.399294 271.79074 
Q 168.399294 272.12333 171.335595 272.12333 
z
" clip-path="url(#p541927df11)" style="fill: #d0dd28"/>
   </g>
   <g id="patch_65">
    <path d="M 151.760259 272.12333 
L 161.15642 272.12333 
Q 164.092721 272.12333 164.092721 271.79074 
L 164.092721 159.717251 
Q 164.092721 159.38466 161.15642 159.38466 
L 151.760259 159.38466 
Q 148.823958 159.38466 148.823958 159.717251 
L 148.823958 271.79074 
Q 148.823958 272.12333 151.760259 272.12333 
z
" clip-path="url(#p541927df11)" style="fill: #d0dd28"/>
   </g>
   <g id="patch_66">
    <path d="M 132.184923 272.12333 
L 141.581084 272.12333 
Q 144.517385 272.12333 144.517385 271.79074 
L 144.517385 172.345618 
Q 144.517385 172.013027 141.581084 172.013027 
L 132.184923 172.013027 
Q 129.248623 172.013027 129.248623 172.345618 
L 129.248623 271.79074 
Q 129.248623 272.12333 132.184923 272.12333 
z
" clip-path="url(#p541927df11)" style="fill: #d0dd28"/>
   </g>
   <g id="patch_67">
    <path d="M 112.609587 272.12333 
L 122.005748 272.12333 
Q 124.942049 272.12333 124.942049 271.79074 
L 124.942049 174.124225 
Q 124.942049 173.791634 122.005748 173.791634 
L 112.609587 173.791634 
Q 109.673287 173.791634 109.673287 174.124225 
L 109.673287 271.79074 
Q 109.673287 272.12333 112.609587 272.12333 
z
" clip-path="url(#p541927df11)" style="fill: #d0dd28"/>
   </g>
   <g id="patch_68">
    <path d="M 93.034251 272.12333 
L 102.430412 272.12333 
Q 105.366713 272.12333 105.366713 271.79074 
L 105.366713 174.592147 
Q 105.366713 174.259556 102.430412 174.259556 
L 93.034251 174.259556 
Q 90.097951 174.259556 90.097951 174.592147 
L 90.097951 271.79074 
Q 90.097951 272.12333 93.034251 272.12333 
z
" clip-path="url(#p541927df11)" style="fill: #d0dd28"/>
   </g>
   <g id="text_31">
    <!-- Supersector Employment Over Time -->
    <g style="fill: #00263e" transform="translate(170.887578 19.442812)scale(0.18 -0.18)">
     <defs>
      <path id="Calibri-75" d="M 2888 78 
Q 2888 53 2877 36 
Q 2866 19 2837 6 
Q 2809 -6 2764 -12 
Q 2719 -19 2653 -19 
Q 2581 -19 2536 -12 
Q 2491 -6 2464 6 
Q 2438 19 2428 36 
Q 2419 53 2419 78 
L 2419 450 
Q 2178 184 1943 62 
Q 1709 -59 1469 -59 
Q 1188 -59 995 34 
Q 803 128 684 289 
Q 566 450 514 664 
Q 463 878 463 1184 
L 463 2891 
Q 463 2916 473 2933 
Q 484 2950 515 2964 
Q 547 2978 597 2983 
Q 647 2988 722 2988 
Q 797 2988 847 2983 
Q 897 2978 926 2964 
Q 956 2950 968 2933 
Q 981 2916 981 2891 
L 981 1253 
Q 981 1006 1017 857 
Q 1053 709 1126 604 
Q 1200 500 1312 442 
Q 1425 384 1575 384 
Q 1769 384 1961 521 
Q 2153 659 2369 925 
L 2369 2891 
Q 2369 2916 2380 2933 
Q 2391 2950 2422 2964 
Q 2453 2978 2501 2983 
Q 2550 2988 2628 2988 
Q 2703 2988 2753 2983 
Q 2803 2978 2831 2964 
Q 2859 2950 2873 2933 
Q 2888 2916 2888 2891 
L 2888 78 
z
" transform="scale(0.015625)"/>
      <path id="Calibri-73" d="M 2244 844 
Q 2244 628 2164 459 
Q 2084 291 1937 175 
Q 1791 59 1587 0 
Q 1384 -59 1141 -59 
Q 991 -59 855 -36 
Q 719 -13 611 23 
Q 503 59 428 98 
Q 353 138 318 169 
Q 284 200 268 256 
Q 253 313 253 409 
Q 253 469 259 509 
Q 266 550 275 575 
Q 284 600 301 611 
Q 319 622 341 622 
Q 375 622 442 580 
Q 509 538 607 488 
Q 706 438 840 395 
Q 975 353 1150 353 
Q 1281 353 1387 381 
Q 1494 409 1572 464 
Q 1650 519 1692 603 
Q 1734 688 1734 803 
Q 1734 922 1673 1003 
Q 1613 1084 1513 1146 
Q 1413 1209 1288 1257 
Q 1163 1306 1030 1359 
Q 897 1413 770 1480 
Q 644 1547 544 1644 
Q 444 1741 383 1875 
Q 322 2009 322 2197 
Q 322 2363 386 2514 
Q 450 2666 578 2780 
Q 706 2894 898 2962 
Q 1091 3031 1347 3031 
Q 1459 3031 1571 3012 
Q 1684 2994 1775 2966 
Q 1866 2938 1930 2905 
Q 1994 2872 2026 2847 
Q 2059 2822 2070 2803 
Q 2081 2784 2086 2761 
Q 2091 2738 2095 2703 
Q 2100 2669 2100 2619 
Q 2100 2566 2095 2527 
Q 2091 2488 2080 2463 
Q 2069 2438 2053 2427 
Q 2038 2416 2019 2416 
Q 1991 2416 1937 2450 
Q 1884 2484 1800 2523 
Q 1716 2563 1602 2597 
Q 1488 2631 1341 2631 
Q 1209 2631 1109 2601 
Q 1009 2572 945 2517 
Q 881 2463 848 2388 
Q 816 2313 816 2225 
Q 816 2103 878 2020 
Q 941 1938 1041 1875 
Q 1141 1813 1269 1763 
Q 1397 1713 1530 1659 
Q 1663 1606 1792 1540 
Q 1922 1475 2022 1381 
Q 2122 1288 2183 1156 
Q 2244 1025 2244 844 
z
" transform="scale(0.015625)"/>
      <path id="Calibri-63" d="M 2500 506 
Q 2500 453 2497 414 
Q 2494 375 2486 348 
Q 2478 322 2467 301 
Q 2456 281 2417 242 
Q 2378 203 2284 145 
Q 2191 88 2073 42 
Q 1956 -3 1818 -31 
Q 1681 -59 1534 -59 
Q 1231 -59 997 41 
Q 763 141 605 333 
Q 447 525 364 804 
Q 281 1084 281 1450 
Q 281 1866 382 2164 
Q 484 2463 661 2653 
Q 838 2844 1077 2936 
Q 1316 3028 1594 3028 
Q 1728 3028 1854 3003 
Q 1981 2978 2087 2937 
Q 2194 2897 2276 2844 
Q 2359 2791 2396 2753 
Q 2434 2716 2448 2694 
Q 2463 2672 2472 2642 
Q 2481 2613 2484 2575 
Q 2488 2538 2488 2481 
Q 2488 2359 2459 2311 
Q 2431 2263 2391 2263 
Q 2344 2263 2283 2314 
Q 2222 2366 2128 2428 
Q 2034 2491 1901 2542 
Q 1769 2594 1588 2594 
Q 1216 2594 1017 2308 
Q 819 2022 819 1478 
Q 819 1206 870 1001 
Q 922 797 1022 659 
Q 1122 522 1267 455 
Q 1413 388 1600 388 
Q 1778 388 1912 444 
Q 2047 500 2145 567 
Q 2244 634 2311 689 
Q 2378 744 2416 744 
Q 2438 744 2453 731 
Q 2469 719 2480 689 
Q 2491 659 2495 614 
Q 2500 569 2500 506 
z
" transform="scale(0.015625)"/>
      <path id="Calibri-4f" d="M 3925 2069 
Q 3925 1578 3809 1184 
Q 3694 791 3464 514 
Q 3234 238 2887 89 
Q 2541 -59 2078 -59 
Q 1622 -59 1289 77 
Q 956 213 739 472 
Q 522 731 415 1115 
Q 309 1500 309 2000 
Q 309 2478 425 2868 
Q 541 3259 772 3532 
Q 1003 3806 1350 3954 
Q 1697 4103 2159 4103 
Q 2606 4103 2937 3968 
Q 3269 3834 3489 3576 
Q 3709 3319 3817 2939 
Q 3925 2559 3925 2069 
z
M 3359 2031 
Q 3359 2375 3298 2670 
Q 3238 2966 3095 3183 
Q 2953 3400 2715 3522 
Q 2478 3644 2128 3644 
Q 1778 3644 1540 3512 
Q 1303 3381 1154 3162 
Q 1006 2944 942 2651 
Q 878 2359 878 2038 
Q 878 1681 937 1381 
Q 997 1081 1137 864 
Q 1278 647 1514 526 
Q 1750 406 2106 406 
Q 2459 406 2700 537 
Q 2941 669 3087 892 
Q 3234 1116 3296 1409 
Q 3359 1703 3359 2031 
z
" transform="scale(0.015625)"/>
      <path id="Calibri-76" d="M 2784 2897 
Q 2784 2884 2782 2870 
Q 2781 2856 2778 2840 
Q 2775 2825 2770 2806 
Q 2766 2788 2759 2766 
L 1800 94 
Q 1788 59 1767 37 
Q 1747 16 1706 3 
Q 1666 -9 1603 -14 
Q 1541 -19 1447 -19 
Q 1353 -19 1290 -12 
Q 1228 -6 1189 6 
Q 1150 19 1128 41 
Q 1106 63 1094 94 
L 138 2766 
Q 125 2803 117 2831 
Q 109 2859 107 2873 
Q 106 2888 106 2897 
Q 106 2922 118 2940 
Q 131 2959 161 2970 
Q 191 2981 239 2984 
Q 288 2988 359 2988 
Q 450 2988 504 2983 
Q 559 2978 589 2965 
Q 619 2953 633 2934 
Q 647 2916 659 2888 
L 1453 569 
L 1466 531 
L 1475 569 
L 2259 2888 
Q 2266 2916 2281 2934 
Q 2297 2953 2326 2965 
Q 2356 2978 2407 2983 
Q 2459 2988 2544 2988 
Q 2616 2988 2662 2984 
Q 2709 2981 2736 2968 
Q 2763 2956 2773 2939 
Q 2784 2922 2784 2897 
z
" transform="scale(0.015625)"/>
      <path id="Calibri-54" d="M 3072 3813 
Q 3072 3753 3065 3709 
Q 3059 3666 3045 3639 
Q 3031 3613 3011 3600 
Q 2991 3588 2966 3588 
L 1828 3588 
L 1828 81 
Q 1828 56 1815 37 
Q 1803 19 1772 8 
Q 1741 -3 1689 -11 
Q 1638 -19 1559 -19 
Q 1484 -19 1431 -11 
Q 1378 -3 1347 8 
Q 1316 19 1303 37 
Q 1291 56 1291 81 
L 1291 3588 
L 153 3588 
Q 128 3588 108 3600 
Q 88 3613 75 3639 
Q 63 3666 55 3709 
Q 47 3753 47 3813 
Q 47 3872 55 3917 
Q 63 3963 75 3991 
Q 88 4019 108 4031 
Q 128 4044 153 4044 
L 2966 4044 
Q 2991 4044 3011 4031 
Q 3031 4019 3045 3991 
Q 3059 3963 3065 3917 
Q 3072 3872 3072 3813 
z
" transform="scale(0.015625)"/>
      <path id="Calibri-69" d="M 994 78 
Q 994 53 981 36 
Q 969 19 941 6 
Q 913 -6 863 -12 
Q 813 -19 734 -19 
Q 659 -19 609 -12 
Q 559 -6 529 6 
Q 500 19 489 36 
Q 478 53 478 78 
L 478 2891 
Q 478 2913 489 2931 
Q 500 2950 529 2962 
Q 559 2975 609 2981 
Q 659 2988 734 2988 
Q 813 2988 863 2981 
Q 913 2975 941 2962 
Q 969 2950 981 2931 
Q 994 2913 994 2891 
L 994 78 
z
M 1053 3841 
Q 1053 3659 984 3593 
Q 916 3528 731 3528 
Q 550 3528 483 3592 
Q 416 3656 416 3834 
Q 416 4016 484 4081 
Q 553 4147 738 4147 
Q 919 4147 986 4083 
Q 1053 4019 1053 3841 
z
" transform="scale(0.015625)"/>
     </defs>
     <use xlink:href="#Calibri-53"/>
     <use xlink:href="#Calibri-75" x="45.947266"/>
     <use xlink:href="#Calibri-70" x="98.486328"/>
     <use xlink:href="#Calibri-65" x="151.025391"/>
     <use xlink:href="#Calibri-72" x="200.78125"/>
     <use xlink:href="#Calibri-73" x="235.644531"/>
     <use xlink:href="#Calibri-65" x="274.755859"/>
     <use xlink:href="#Calibri-63" x="324.511719"/>
     <use xlink:href="#Calibri-74" x="366.796875"/>
     <use xlink:href="#Calibri-6f" x="400.292969"/>
     <use xlink:href="#Calibri-72" x="453.027344"/>
     <use xlink:href="#Calibri-20" x="487.890625"/>
     <use xlink:href="#Calibri-45" x="510.498047"/>
     <use xlink:href="#Calibri-6d" x="559.326172"/>
     <use xlink:href="#Calibri-70" x="639.208984"/>
     <use xlink:href="#Calibri-6c" x="691.748047"/>
     <use xlink:href="#Calibri-6f" x="714.697266"/>
     <use xlink:href="#Calibri-79" x="767.431641"/>
     <use xlink:href="#Calibri-6d" x="812.695312"/>
     <use xlink:href="#Calibri-65" x="892.578125"/>
     <use xlink:href="#Calibri-6e" x="942.333984"/>
     <use xlink:href="#Calibri-74" x="994.873047"/>
     <use xlink:href="#Calibri-20" x="1028.369141"/>
     <use xlink:href="#Calibri-4f" x="1050.976562"/>
     <use xlink:href="#Calibri-76" x="1117.1875"/>
     <use xlink:href="#Calibri-65" x="1162.353516"/>
     <use xlink:href="#Calibri-72" x="1212.109375"/>
     <use xlink:href="#Calibri-20" x="1246.972656"/>
     <use xlink:href="#Calibri-54" x="1269.580078"/>
     <use xlink:href="#Calibri-69" x="1318.310547"/>
     <use xlink:href="#Calibri-6d" x="1341.259766"/>
     <use xlink:href="#Calibri-65" x="1421.142578"/>
    </g>
   </g>
   <g id="legend_1">
    <g id="patch_69">
     <path d="M 525.379789 57.042812 
L 547.379789 57.042812 
L 547.379789 49.342812 
L 525.379789 49.342812 
z
" style="fill: #696466"/>
    </g>
    <g id="text_32">
     <!-- Trade, Transportation, &amp; Utilities -->
     <g style="fill: #00263e" transform="translate(556.179789 57.042812)scale(0.11 -0.11)">
      <defs>
       <path id="Calibri-64" d="M 2888 78 
Q 2888 53 2877 34 
Q 2866 16 2839 5 
Q 2813 -6 2769 -12 
Q 2725 -19 2663 -19 
Q 2597 -19 2553 -12 
Q 2509 -6 2481 5 
Q 2453 16 2440 34 
Q 2428 53 2428 78 
L 2428 450 
Q 2206 209 1967 75 
Q 1728 -59 1444 -59 
Q 1134 -59 915 61 
Q 697 181 561 386 
Q 425 591 362 867 
Q 300 1144 300 1450 
Q 300 1813 378 2105 
Q 456 2397 609 2603 
Q 763 2809 989 2920 
Q 1216 3031 1513 3031 
Q 1759 3031 1964 2923 
Q 2169 2816 2369 2606 
L 2369 4241 
Q 2369 4263 2380 4283 
Q 2391 4303 2422 4314 
Q 2453 4325 2501 4333 
Q 2550 4341 2625 4341 
Q 2703 4341 2753 4333 
Q 2803 4325 2831 4314 
Q 2859 4303 2873 4283 
Q 2888 4263 2888 4241 
L 2888 78 
z
M 2369 2056 
Q 2159 2316 1964 2452 
Q 1769 2588 1556 2588 
Q 1359 2588 1221 2494 
Q 1084 2400 998 2247 
Q 913 2094 873 1900 
Q 834 1706 834 1506 
Q 834 1294 867 1091 
Q 900 888 981 730 
Q 1063 572 1197 476 
Q 1331 381 1534 381 
Q 1638 381 1733 409 
Q 1828 438 1928 503 
Q 2028 569 2137 673 
Q 2247 778 2369 931 
L 2369 2056 
z
" transform="scale(0.015625)"/>
       <path id="Calibri-2c" d="M 1159 447 
Q 1159 350 1150 269 
Q 1141 188 1119 116 
Q 1097 44 1061 -26 
Q 1025 -97 972 -175 
L 544 -819 
Q 528 -841 508 -856 
Q 488 -872 458 -884 
Q 428 -897 389 -901 
Q 350 -906 291 -906 
Q 238 -906 202 -901 
Q 166 -897 150 -886 
Q 134 -875 132 -856 
Q 131 -838 144 -813 
L 559 47 
L 559 447 
Q 559 531 576 581 
Q 594 631 631 656 
Q 669 681 725 690 
Q 781 700 863 700 
Q 941 700 997 690 
Q 1053 681 1089 656 
Q 1125 631 1142 581 
Q 1159 531 1159 447 
z
" transform="scale(0.015625)"/>
       <path id="Calibri-26" d="M 338 1066 
Q 338 1238 384 1392 
Q 431 1547 531 1692 
Q 631 1838 792 1973 
Q 953 2109 1181 2247 
Q 1056 2416 967 2553 
Q 878 2691 820 2809 
Q 763 2928 738 3036 
Q 713 3144 713 3253 
Q 713 3447 778 3623 
Q 844 3800 989 3936 
Q 1134 4072 1362 4151 
Q 1591 4231 1916 4231 
Q 2191 4231 2392 4172 
Q 2594 4113 2726 4003 
Q 2859 3894 2926 3739 
Q 2994 3584 2994 3394 
Q 2994 3209 2934 3056 
Q 2875 2903 2744 2759 
Q 2613 2616 2408 2473 
Q 2203 2331 1913 2175 
Q 2019 2047 2144 1908 
Q 2269 1769 2405 1628 
Q 2541 1488 2683 1352 
Q 2825 1216 2963 1091 
Q 3025 1175 3075 1283 
Q 3125 1391 3162 1511 
Q 3200 1631 3219 1756 
Q 3238 1881 3238 2009 
L 3238 2122 
Q 3238 2153 3248 2173 
Q 3259 2194 3284 2208 
Q 3309 2222 3357 2228 
Q 3406 2234 3484 2234 
Q 3553 2234 3601 2231 
Q 3650 2228 3681 2217 
Q 3713 2206 3727 2182 
Q 3741 2159 3741 2119 
L 3741 2041 
Q 3741 1866 3711 1697 
Q 3681 1528 3629 1367 
Q 3578 1206 3501 1059 
Q 3425 913 3331 788 
Q 3472 675 3576 600 
Q 3681 525 3754 478 
Q 3828 431 3876 412 
Q 3925 394 3956 394 
Q 3988 394 4016 397 
Q 4044 400 4061 387 
Q 4078 375 4087 337 
Q 4097 300 4097 222 
Q 4097 144 4094 97 
Q 4091 50 4083 26 
Q 4075 3 4056 -12 
Q 4038 -28 3988 -40 
Q 3938 -53 3856 -53 
Q 3794 -53 3719 -31 
Q 3644 -9 3544 45 
Q 3444 100 3311 194 
Q 3178 288 3000 431 
Q 2869 325 2723 234 
Q 2578 144 2414 80 
Q 2250 16 2070 -20 
Q 1891 -56 1681 -56 
Q 1484 -56 1307 -21 
Q 1131 13 981 77 
Q 831 141 712 237 
Q 594 334 511 457 
Q 428 581 383 734 
Q 338 888 338 1066 
z
M 1259 3294 
Q 1259 3209 1282 3121 
Q 1306 3034 1354 2939 
Q 1403 2844 1473 2734 
Q 1544 2625 1641 2491 
Q 1869 2619 2023 2726 
Q 2178 2834 2272 2934 
Q 2366 3034 2408 3134 
Q 2450 3234 2450 3347 
Q 2450 3438 2417 3520 
Q 2384 3603 2312 3667 
Q 2241 3731 2131 3768 
Q 2022 3806 1869 3806 
Q 1703 3806 1589 3764 
Q 1475 3722 1401 3651 
Q 1328 3581 1293 3487 
Q 1259 3394 1259 3294 
z
M 897 1119 
Q 897 956 951 822 
Q 1006 688 1112 589 
Q 1219 491 1378 436 
Q 1538 381 1747 381 
Q 1875 381 1997 407 
Q 2119 434 2230 479 
Q 2341 525 2441 589 
Q 2541 653 2625 725 
Q 2463 866 2302 1017 
Q 2141 1169 1991 1322 
Q 1841 1475 1702 1626 
Q 1563 1778 1447 1922 
Q 1291 1822 1186 1723 
Q 1081 1625 1017 1526 
Q 953 1428 925 1328 
Q 897 1228 897 1119 
z
M 0 4044 
L 0 4044 
z
" transform="scale(0.015625)"/>
       <path id="Calibri-55" d="M 3578 1494 
Q 3578 1125 3470 836 
Q 3363 547 3163 347 
Q 2963 147 2675 44 
Q 2388 -59 2022 -59 
Q 1688 -59 1413 37 
Q 1138 134 941 323 
Q 744 513 637 797 
Q 531 1081 531 1453 
L 531 3963 
Q 531 3988 543 4006 
Q 556 4025 587 4036 
Q 619 4047 669 4055 
Q 719 4063 800 4063 
Q 875 4063 928 4055 
Q 981 4047 1011 4036 
Q 1041 4025 1053 4006 
Q 1066 3988 1066 3963 
L 1066 1519 
Q 1066 1238 1134 1028 
Q 1203 819 1333 680 
Q 1463 541 1645 470 
Q 1828 400 2056 400 
Q 2291 400 2473 469 
Q 2656 538 2782 675 
Q 2909 813 2976 1016 
Q 3044 1219 3044 1491 
L 3044 3963 
Q 3044 3988 3056 4006 
Q 3069 4025 3100 4036 
Q 3131 4047 3182 4055 
Q 3234 4063 3313 4063 
Q 3388 4063 3439 4055 
Q 3491 4047 3520 4036 
Q 3550 4025 3564 4006 
Q 3578 3988 3578 3963 
L 3578 1494 
z
" transform="scale(0.015625)"/>
      </defs>
      <use xlink:href="#Calibri-54"/>
      <use xlink:href="#Calibri-72" x="48.730469"/>
      <use xlink:href="#Calibri-61" x="83.59375"/>
      <use xlink:href="#Calibri-64" x="131.494141"/>
      <use xlink:href="#Calibri-65" x="184.033203"/>
      <use xlink:href="#Calibri-2c" x="233.789062"/>
      <use xlink:href="#Calibri-20" x="258.740234"/>
      <use xlink:href="#Calibri-54" x="281.347656"/>
      <use xlink:href="#Calibri-72" x="330.078125"/>
      <use xlink:href="#Calibri-61" x="364.941406"/>
      <use xlink:href="#Calibri-6e" x="412.841797"/>
      <use xlink:href="#Calibri-73" x="465.380859"/>
      <use xlink:href="#Calibri-70" x="504.492188"/>
      <use xlink:href="#Calibri-6f" x="557.03125"/>
      <use xlink:href="#Calibri-72" x="609.765625"/>
      <use xlink:href="#Calibri-74" x="644.628906"/>
      <use xlink:href="#Calibri-61" x="678.125"/>
      <use xlink:href="#Calibri-74" x="726.025391"/>
      <use xlink:href="#Calibri-69" x="759.521484"/>
      <use xlink:href="#Calibri-6f" x="782.470703"/>
      <use xlink:href="#Calibri-6e" x="835.205078"/>
      <use xlink:href="#Calibri-2c" x="887.744141"/>
      <use xlink:href="#Calibri-20" x="912.695312"/>
      <use xlink:href="#Calibri-26" x="935.302734"/>
      <use xlink:href="#Calibri-20" x="1003.515625"/>
      <use xlink:href="#Calibri-55" x="1026.123047"/>
      <use xlink:href="#Calibri-74" x="1090.283203"/>
      <use xlink:href="#Calibri-69" x="1123.779297"/>
      <use xlink:href="#Calibri-6c" x="1146.728516"/>
      <use xlink:href="#Calibri-69" x="1169.677734"/>
      <use xlink:href="#Calibri-74" x="1192.626953"/>
      <use xlink:href="#Calibri-69" x="1226.123047"/>
      <use xlink:href="#Calibri-65" x="1249.072266"/>
      <use xlink:href="#Calibri-73" x="1298.828125"/>
     </g>
    </g>
    <g id="patch_70">
     <path d="M 525.379789 72.19875 
L 547.379789 72.19875 
L 547.379789 64.49875 
L 525.379789 64.49875 
z
" style="fill: #d6d0d3"/>
    </g>
    <g id="text_33">
     <!-- Service Producing -->
     <g style="fill: #00263e" transform="translate(556.179789 72.19875)scale(0.11 -0.11)">
      <defs>
       <path id="Calibri-50" d="M 3022 2859 
Q 3022 2556 2922 2312 
Q 2822 2069 2636 1897 
Q 2450 1725 2179 1631 
Q 1909 1538 1534 1538 
L 1075 1538 
L 1075 81 
Q 1075 56 1061 37 
Q 1047 19 1017 8 
Q 988 -3 936 -11 
Q 884 -19 806 -19 
Q 728 -19 676 -11 
Q 625 -3 594 8 
Q 563 19 550 37 
Q 538 56 538 81 
L 538 3813 
Q 538 3938 603 3991 
Q 669 4044 750 4044 
L 1616 4044 
Q 1747 4044 1867 4033 
Q 1988 4022 2152 3986 
Q 2316 3950 2486 3851 
Q 2656 3753 2775 3609 
Q 2894 3466 2958 3277 
Q 3022 3088 3022 2859 
z
M 2456 2816 
Q 2456 3063 2364 3228 
Q 2272 3394 2136 3475 
Q 2000 3556 1854 3578 
Q 1709 3600 1572 3600 
L 1075 3600 
L 1075 1978 
L 1559 1978 
Q 1803 1978 1964 2040 
Q 2125 2103 2234 2214 
Q 2344 2325 2400 2479 
Q 2456 2634 2456 2816 
z
" transform="scale(0.015625)"/>
       <path id="Calibri-67" d="M 2828 2763 
Q 2828 2653 2798 2604 
Q 2769 2556 2722 2556 
L 2319 2556 
Q 2428 2444 2472 2308 
Q 2516 2172 2516 2025 
Q 2516 1781 2437 1593 
Q 2359 1406 2214 1276 
Q 2069 1147 1869 1078 
Q 1669 1009 1425 1009 
Q 1253 1009 1098 1054 
Q 944 1100 859 1169 
Q 803 1113 767 1041 
Q 731 969 731 875 
Q 731 766 832 694 
Q 934 622 1103 616 
L 1838 584 
Q 2047 578 2222 526 
Q 2397 475 2525 379 
Q 2653 284 2725 145 
Q 2797 6 2797 -178 
Q 2797 -372 2715 -547 
Q 2634 -722 2467 -855 
Q 2300 -988 2040 -1064 
Q 1781 -1141 1428 -1141 
Q 1088 -1141 848 -1083 
Q 609 -1025 456 -925 
Q 303 -825 234 -686 
Q 166 -547 166 -384 
Q 166 -281 191 -184 
Q 216 -88 267 0 
Q 319 88 395 167 
Q 472 247 572 325 
Q 419 403 345 522 
Q 272 641 272 778 
Q 272 969 350 1119 
Q 428 1269 544 1388 
Q 447 1503 390 1648 
Q 334 1794 334 2000 
Q 334 2241 415 2431 
Q 497 2622 640 2753 
Q 784 2884 986 2954 
Q 1188 3025 1425 3025 
Q 1553 3025 1664 3011 
Q 1775 2997 1872 2972 
L 2722 2972 
Q 2775 2972 2801 2920 
Q 2828 2869 2828 2763 
z
M 2022 2022 
Q 2022 2309 1864 2470 
Q 1706 2631 1416 2631 
Q 1266 2631 1155 2581 
Q 1044 2531 970 2443 
Q 897 2356 861 2242 
Q 825 2128 825 2003 
Q 825 1725 983 1565 
Q 1141 1406 1425 1406 
Q 1578 1406 1690 1454 
Q 1803 1503 1876 1589 
Q 1950 1675 1986 1787 
Q 2022 1900 2022 2022 
z
M 2281 -206 
Q 2281 -25 2132 73 
Q 1984 172 1731 178 
L 1003 203 
Q 903 125 839 54 
Q 775 -16 737 -80 
Q 700 -144 686 -206 
Q 672 -269 672 -334 
Q 672 -538 878 -642 
Q 1084 -747 1453 -747 
Q 1688 -747 1845 -701 
Q 2003 -656 2100 -581 
Q 2197 -506 2239 -409 
Q 2281 -313 2281 -206 
z
" transform="scale(0.015625)"/>
      </defs>
      <use xlink:href="#Calibri-53"/>
      <use xlink:href="#Calibri-65" x="45.947266"/>
      <use xlink:href="#Calibri-72" x="95.703125"/>
      <use xlink:href="#Calibri-76" x="130.566406"/>
      <use xlink:href="#Calibri-69" x="175.732422"/>
      <use xlink:href="#Calibri-63" x="198.681641"/>
      <use xlink:href="#Calibri-65" x="240.966797"/>
      <use xlink:href="#Calibri-20" x="290.722656"/>
      <use xlink:href="#Calibri-50" x="313.330078"/>
      <use xlink:href="#Calibri-72" x="364.990234"/>
      <use xlink:href="#Calibri-6f" x="399.853516"/>
      <use xlink:href="#Calibri-64" x="452.587891"/>
      <use xlink:href="#Calibri-75" x="505.126953"/>
      <use xlink:href="#Calibri-63" x="557.666016"/>
      <use xlink:href="#Calibri-69" x="599.951172"/>
      <use xlink:href="#Calibri-6e" x="622.900391"/>
      <use xlink:href="#Calibri-67" x="675.439453"/>
     </g>
    </g>
    <g id="patch_71">
     <path d="M 525.379789 87.359844 
L 547.379789 87.359844 
L 547.379789 79.659844 
L 525.379789 79.659844 
z
" style="fill: #d0dd28"/>
    </g>
    <g id="text_34">
     <!-- Goods Producing -->
     <g style="fill: #00263e" transform="translate(556.179789 87.359844)scale(0.11 -0.11)">
      <defs>
       <path id="Calibri-47" d="M 3575 3494 
Q 3575 3434 3569 3389 
Q 3563 3344 3550 3314 
Q 3538 3284 3519 3271 
Q 3500 3259 3478 3259 
Q 3441 3259 3353 3318 
Q 3266 3378 3119 3450 
Q 2972 3522 2767 3581 
Q 2563 3641 2281 3641 
Q 1947 3641 1681 3519 
Q 1416 3397 1231 3181 
Q 1047 2966 948 2669 
Q 850 2372 850 2025 
Q 850 1638 958 1338 
Q 1066 1038 1256 831 
Q 1447 625 1711 519 
Q 1975 413 2291 413 
Q 2478 413 2670 458 
Q 2863 503 3028 594 
L 3028 1772 
L 2091 1772 
Q 2038 1772 2011 1825 
Q 1984 1878 1984 1991 
Q 1984 2050 1990 2092 
Q 1997 2134 2011 2161 
Q 2025 2188 2044 2200 
Q 2063 2213 2091 2213 
L 3375 2213 
Q 3409 2213 3443 2200 
Q 3478 2188 3506 2163 
Q 3534 2138 3550 2094 
Q 3566 2050 3566 1994 
L 3566 453 
Q 3566 372 3537 312 
Q 3509 253 3418 208 
Q 3328 163 3184 109 
Q 3041 56 2887 18 
Q 2734 -19 2578 -37 
Q 2422 -56 2269 -56 
Q 1800 -56 1431 89 
Q 1063 234 808 503 
Q 553 772 418 1147 
Q 284 1522 284 1984 
Q 284 2466 429 2856 
Q 575 3247 839 3522 
Q 1103 3797 1473 3948 
Q 1844 4100 2294 4100 
Q 2525 4100 2728 4059 
Q 2931 4019 3089 3964 
Q 3247 3909 3355 3845 
Q 3463 3781 3503 3740 
Q 3544 3700 3559 3647 
Q 3575 3594 3575 3494 
z
" transform="scale(0.015625)"/>
      </defs>
      <use xlink:href="#Calibri-47"/>
      <use xlink:href="#Calibri-6f" x="63.085938"/>
      <use xlink:href="#Calibri-6f" x="115.820312"/>
      <use xlink:href="#Calibri-64" x="168.554688"/>
      <use xlink:href="#Calibri-73" x="221.09375"/>
      <use xlink:href="#Calibri-20" x="260.205078"/>
      <use xlink:href="#Calibri-50" x="282.8125"/>
      <use xlink:href="#Calibri-72" x="334.472656"/>
      <use xlink:href="#Calibri-6f" x="369.335938"/>
      <use xlink:href="#Calibri-64" x="422.070312"/>
      <use xlink:href="#Calibri-75" x="474.609375"/>
      <use xlink:href="#Calibri-63" x="527.148438"/>
      <use xlink:href="#Calibri-69" x="569.433594"/>
      <use xlink:href="#Calibri-6e" x="592.382812"/>
      <use xlink:href="#Calibri-67" x="644.921875"/>
     </g>
    </g>
   </g>
  </g>
 </g>
 <defs>
  <clipPath id="p541927df11">
   <rect x="67.488438" y="39.442812" width="471.569844" height="243.899914"/>
  </clipPath>
 </defs>
</svg>
