<?xml version="1.0" encoding="utf-8" standalone="no"?>
<!DOCTYPE svg PUBLIC "-//W3C//DTD SVG 1.1//EN"
  "http://www.w3.org/Graphics/SVG/1.1/DTD/svg11.dtd">
<svg xmlns:xlink="http://www.w3.org/1999/xlink" width="711.150792pt" height="350.64pt" viewBox="0 0 711.150792 350.64" xmlns="http://www.w3.org/2000/svg" version="1.1">
 <metadata>
  <rdf:RDF xmlns:dc="http://purl.org/dc/elements/1.1/" xmlns:cc="http://creativecommons.org/ns#" xmlns:rdf="http://www.w3.org/1999/02/22-rdf-syntax-ns#">
   <cc:Work>
    <dc:type rdf:resource="http://purl.org/dc/dcmitype/StillImage"/>
    <dc:date>2023-04-27T12:24:29.527996</dc:date>
    <dc:format>image/svg+xml</dc:format>
    <dc:creator>
     <cc:Agent>
      <dc:title>Matplotlib v3.5.2, https://matplotlib.org/</dc:title>
     </cc:Agent>
    </dc:creator>
   </cc:Work>
  </rdf:RDF>
 </metadata>
 <defs>
  <style type="text/css">*{stroke-linejoin: round; stroke-linecap: butt}</style>
 </defs>
 <g id="figure_1">
  <g id="patch_1">
   <path d="M 0 350.64 
L 711.150792 350.64 
L 711.150792 0 
L 0 0 
L 0 350.64 
z
" style="fill: none"/>
  </g>
  <g id="axes_1">
   <g id="patch_2">
    <path d="M 67.900937 296.34875 
L 574.821719 296.34875 
L 574.821719 39.504687 
L 67.900937 39.504687 
L 67.900937 296.34875 
z
" style="fill: none"/>
   </g>
   <g id="matplotlib.axis_1">
    <g id="xtick_1">
     <g id="line2d_1">
      <defs>
       <path id="m819e0df34d" d="M 0 0 
L 0 8 
" style="stroke: #7b7e85; stroke-width: 0.8"/>
      </defs>
      <g>
       <use xlink:href="#m819e0df34d" x="90.942791" y="296.34875" style="fill: #7b7e85; stroke: #7b7e85; stroke-width: 0.8"/>
      </g>
     </g>
     <g id="text_1">
      <!-- 2010 -->
      <g style="fill: #7b7e85" transform="translate(79.791541 315.330469)scale(0.11 -0.11)">
       <defs>
        <path id="Calibri-32" d="M 2888 231 
Q 2888 175 2880 131 
Q 2872 88 2858 58 
Q 2844 28 2820 14 
Q 2797 0 2769 0 
L 534 0 
Q 491 0 458 11 
Q 425 22 401 47 
Q 378 72 367 119 
Q 356 166 356 234 
Q 356 297 361 344 
Q 366 391 381 427 
Q 397 463 420 498 
Q 444 534 481 575 
L 1266 1406 
Q 1538 1694 1702 1922 
Q 1866 2150 1955 2337 
Q 2044 2525 2072 2678 
Q 2100 2831 2100 2966 
Q 2100 3100 2056 3220 
Q 2013 3341 1930 3431 
Q 1847 3522 1722 3575 
Q 1597 3628 1434 3628 
Q 1244 3628 1092 3575 
Q 941 3522 827 3459 
Q 713 3397 636 3344 
Q 559 3291 522 3291 
Q 500 3291 483 3303 
Q 466 3316 455 3344 
Q 444 3372 437 3419 
Q 431 3466 431 3531 
Q 431 3578 434 3612 
Q 438 3647 445 3672 
Q 453 3697 465 3719 
Q 478 3741 515 3773 
Q 553 3806 645 3862 
Q 738 3919 877 3973 
Q 1016 4028 1183 4065 
Q 1350 4103 1534 4103 
Q 1828 4103 2048 4020 
Q 2269 3938 2414 3794 
Q 2559 3650 2631 3459 
Q 2703 3269 2703 3053 
Q 2703 2859 2668 2667 
Q 2634 2475 2523 2251 
Q 2413 2028 2203 1754 
Q 1994 1481 1647 1125 
L 1006 456 
L 2766 456 
Q 2791 456 2814 442 
Q 2838 428 2855 400 
Q 2872 372 2880 330 
Q 2888 288 2888 231 
z
" transform="scale(0.015625)"/>
        <path id="Calibri-30" d="M 3022 2031 
Q 3022 1566 2948 1181 
Q 2875 797 2704 520 
Q 2534 244 2259 92 
Q 1984 -59 1581 -59 
Q 1200 -59 939 77 
Q 678 213 518 477 
Q 359 741 292 1127 
Q 225 1513 225 2013 
Q 225 2475 300 2861 
Q 375 3247 544 3523 
Q 713 3800 988 3951 
Q 1263 4103 1663 4103 
Q 2047 4103 2308 3967 
Q 2569 3831 2728 3567 
Q 2888 3303 2955 2917 
Q 3022 2531 3022 2031 
z
M 2472 1994 
Q 2472 2297 2450 2537 
Q 2428 2778 2386 2962 
Q 2344 3147 2276 3280 
Q 2209 3413 2115 3498 
Q 2022 3584 1901 3623 
Q 1781 3663 1631 3663 
Q 1366 3663 1200 3538 
Q 1034 3413 939 3194 
Q 844 2975 809 2681 
Q 775 2388 775 2050 
Q 775 1597 822 1280 
Q 869 963 970 763 
Q 1072 563 1230 472 
Q 1388 381 1613 381 
Q 1788 381 1920 437 
Q 2053 494 2148 598 
Q 2244 703 2306 850 
Q 2369 997 2406 1175 
Q 2444 1353 2458 1561 
Q 2472 1769 2472 1994 
z
" transform="scale(0.015625)"/>
        <path id="Calibri-31" d="M 2897 213 
Q 2897 153 2887 112 
Q 2878 72 2862 47 
Q 2847 22 2826 11 
Q 2806 0 2784 0 
L 672 0 
Q 650 0 631 11 
Q 613 22 595 47 
Q 578 72 568 112 
Q 559 153 559 213 
Q 559 269 568 309 
Q 578 350 592 376 
Q 606 403 626 417 
Q 647 431 672 431 
L 1516 431 
L 1516 3506 
L 734 3041 
Q 675 3009 639 3003 
Q 603 2997 581 3017 
Q 559 3038 551 3084 
Q 544 3131 544 3203 
Q 544 3256 548 3293 
Q 553 3331 562 3356 
Q 572 3381 589 3400 
Q 606 3419 634 3438 
L 1566 4034 
Q 1578 4044 1597 4050 
Q 1616 4056 1644 4062 
Q 1672 4069 1709 4070 
Q 1747 4072 1803 4072 
Q 1878 4072 1928 4065 
Q 1978 4059 2006 4048 
Q 2034 4038 2043 4020 
Q 2053 4003 2053 3984 
L 2053 431 
L 2784 431 
Q 2809 431 2831 417 
Q 2853 403 2867 376 
Q 2881 350 2889 309 
Q 2897 269 2897 213 
z
" transform="scale(0.015625)"/>
       </defs>
       <use xlink:href="#Calibri-32"/>
       <use xlink:href="#Calibri-30" x="50.683594"/>
       <use xlink:href="#Calibri-31" x="101.367188"/>
       <use xlink:href="#Calibri-30" x="152.050781"/>
      </g>
     </g>
    </g>
    <g id="xtick_2">
     <g id="line2d_2">
      <g>
       <use xlink:href="#m819e0df34d" x="174.73135" y="296.34875" style="fill: #7b7e85; stroke: #7b7e85; stroke-width: 0.8"/>
      </g>
     </g>
     <g id="text_2">
      <!-- 2012 -->
      <g style="fill: #7b7e85" transform="translate(163.5801 315.330469)scale(0.11 -0.11)">
       <use xlink:href="#Calibri-32"/>
       <use xlink:href="#Calibri-30" x="50.683594"/>
       <use xlink:href="#Calibri-31" x="101.367188"/>
       <use xlink:href="#Calibri-32" x="152.050781"/>
      </g>
     </g>
    </g>
    <g id="xtick_3">
     <g id="line2d_3">
      <g>
       <use xlink:href="#m819e0df34d" x="258.519909" y="296.34875" style="fill: #7b7e85; stroke: #7b7e85; stroke-width: 0.8"/>
      </g>
     </g>
     <g id="text_3">
      <!-- 2014 -->
      <g style="fill: #7b7e85" transform="translate(247.368659 315.330469)scale(0.11 -0.11)">
       <defs>
        <path id="Calibri-34" d="M 3059 1150 
Q 3059 1047 3028 987 
Q 2997 928 2941 928 
L 2484 928 
L 2484 78 
Q 2484 53 2471 36 
Q 2459 19 2428 6 
Q 2397 -6 2347 -12 
Q 2297 -19 2219 -19 
Q 2144 -19 2094 -12 
Q 2044 -6 2014 6 
Q 1984 19 1973 36 
Q 1963 53 1963 78 
L 1963 928 
L 294 928 
Q 256 928 231 937 
Q 206 947 186 972 
Q 166 997 158 1044 
Q 150 1091 150 1166 
Q 150 1225 153 1272 
Q 156 1319 165 1358 
Q 175 1397 190 1433 
Q 206 1469 228 1509 
L 1684 3966 
Q 1700 3991 1729 4009 
Q 1759 4028 1806 4040 
Q 1853 4053 1922 4058 
Q 1991 4063 2084 4063 
Q 2188 4063 2264 4055 
Q 2341 4047 2387 4034 
Q 2434 4022 2459 4001 
Q 2484 3981 2484 3953 
L 2484 1372 
L 2941 1372 
Q 2994 1372 3026 1317 
Q 3059 1263 3059 1150 
z
M 1963 3591 
L 1956 3591 
L 641 1372 
L 1963 1372 
L 1963 3591 
z
" transform="scale(0.015625)"/>
       </defs>
       <use xlink:href="#Calibri-32"/>
       <use xlink:href="#Calibri-30" x="50.683594"/>
       <use xlink:href="#Calibri-31" x="101.367188"/>
       <use xlink:href="#Calibri-34" x="152.050781"/>
      </g>
     </g>
    </g>
    <g id="xtick_4">
     <g id="line2d_4">
      <g>
       <use xlink:href="#m819e0df34d" x="342.308468" y="296.34875" style="fill: #7b7e85; stroke: #7b7e85; stroke-width: 0.8"/>
      </g>
     </g>
     <g id="text_4">
      <!-- 2016 -->
      <g style="fill: #7b7e85" transform="translate(331.157218 315.330469)scale(0.11 -0.11)">
       <defs>
        <path id="Calibri-36" d="M 2991 1309 
Q 2991 1044 2909 795 
Q 2828 547 2659 358 
Q 2491 169 2231 55 
Q 1972 -59 1619 -59 
Q 1366 -59 1172 3 
Q 978 66 834 181 
Q 691 297 595 465 
Q 500 634 442 850 
Q 384 1066 359 1322 
Q 334 1578 334 1872 
Q 334 2131 362 2397 
Q 391 2663 462 2909 
Q 534 3156 657 3373 
Q 781 3591 967 3752 
Q 1153 3913 1412 4006 
Q 1672 4100 2016 4100 
Q 2131 4100 2250 4086 
Q 2369 4072 2469 4048 
Q 2569 4025 2637 3997 
Q 2706 3969 2728 3951 
Q 2750 3934 2761 3914 
Q 2772 3894 2778 3870 
Q 2784 3847 2787 3817 
Q 2791 3788 2791 3744 
Q 2791 3688 2789 3647 
Q 2788 3606 2777 3581 
Q 2766 3556 2748 3543 
Q 2731 3531 2703 3531 
Q 2669 3531 2609 3553 
Q 2550 3575 2465 3601 
Q 2381 3628 2261 3650 
Q 2141 3672 1981 3672 
Q 1691 3672 1481 3553 
Q 1272 3434 1139 3234 
Q 1006 3034 942 2770 
Q 878 2506 869 2219 
Q 950 2266 1051 2312 
Q 1153 2359 1273 2396 
Q 1394 2434 1528 2457 
Q 1663 2481 1816 2481 
Q 2144 2481 2369 2392 
Q 2594 2303 2733 2145 
Q 2872 1988 2931 1773 
Q 2991 1559 2991 1309 
z
M 2447 1259 
Q 2447 1441 2411 1589 
Q 2375 1738 2290 1841 
Q 2206 1944 2065 2000 
Q 1925 2056 1719 2056 
Q 1603 2056 1487 2036 
Q 1372 2016 1264 1980 
Q 1156 1944 1057 1895 
Q 959 1847 878 1791 
Q 878 1388 929 1116 
Q 981 844 1079 680 
Q 1178 516 1325 445 
Q 1472 375 1669 375 
Q 1869 375 2016 450 
Q 2163 525 2259 651 
Q 2356 778 2401 936 
Q 2447 1094 2447 1259 
z
" transform="scale(0.015625)"/>
       </defs>
       <use xlink:href="#Calibri-32"/>
       <use xlink:href="#Calibri-30" x="50.683594"/>
       <use xlink:href="#Calibri-31" x="101.367188"/>
       <use xlink:href="#Calibri-36" x="152.050781"/>
      </g>
     </g>
    </g>
    <g id="xtick_5">
     <g id="line2d_5">
      <g>
       <use xlink:href="#m819e0df34d" x="426.097027" y="296.34875" style="fill: #7b7e85; stroke: #7b7e85; stroke-width: 0.8"/>
      </g>
     </g>
     <g id="text_5">
      <!-- 2018 -->
      <g style="fill: #7b7e85" transform="translate(414.945777 315.330469)scale(0.11 -0.11)">
       <defs>
        <path id="Calibri-38" d="M 2981 1038 
Q 2981 775 2887 570 
Q 2794 366 2617 225 
Q 2441 84 2181 12 
Q 1922 -59 1588 -59 
Q 1275 -59 1028 6 
Q 781 72 609 200 
Q 438 328 347 515 
Q 256 703 256 944 
Q 256 1134 318 1293 
Q 381 1453 498 1587 
Q 616 1722 787 1839 
Q 959 1956 1175 2063 
Q 988 2159 844 2267 
Q 700 2375 600 2501 
Q 500 2628 448 2772 
Q 397 2916 397 3084 
Q 397 3297 473 3483 
Q 550 3669 704 3806 
Q 859 3944 1098 4023 
Q 1338 4103 1656 4103 
Q 1963 4103 2186 4029 
Q 2409 3956 2554 3829 
Q 2700 3703 2769 3531 
Q 2838 3359 2838 3163 
Q 2838 3003 2786 2856 
Q 2734 2709 2634 2578 
Q 2534 2447 2389 2333 
Q 2244 2219 2056 2119 
Q 2278 2009 2451 1893 
Q 2625 1778 2742 1645 
Q 2859 1513 2920 1364 
Q 2981 1216 2981 1038 
z
M 2306 3113 
Q 2306 3244 2261 3350 
Q 2216 3456 2128 3531 
Q 2041 3606 1911 3645 
Q 1781 3684 1616 3684 
Q 1278 3684 1104 3531 
Q 931 3378 931 3113 
Q 931 2991 973 2886 
Q 1016 2781 1105 2687 
Q 1194 2594 1330 2505 
Q 1466 2416 1653 2319 
Q 1969 2481 2137 2678 
Q 2306 2875 2306 3113 
z
M 2438 981 
Q 2438 1125 2384 1242 
Q 2331 1359 2223 1461 
Q 2116 1563 1955 1658 
Q 1794 1753 1581 1856 
Q 1384 1759 1236 1662 
Q 1088 1566 992 1462 
Q 897 1359 848 1245 
Q 800 1131 800 994 
Q 800 691 1008 525 
Q 1216 359 1628 359 
Q 2028 359 2233 526 
Q 2438 694 2438 981 
z
" transform="scale(0.015625)"/>
       </defs>
       <use xlink:href="#Calibri-32"/>
       <use xlink:href="#Calibri-30" x="50.683594"/>
       <use xlink:href="#Calibri-31" x="101.367188"/>
       <use xlink:href="#Calibri-38" x="152.050781"/>
      </g>
     </g>
    </g>
    <g id="xtick_6">
     <g id="line2d_6">
      <g>
       <use xlink:href="#m819e0df34d" x="509.885586" y="296.34875" style="fill: #7b7e85; stroke: #7b7e85; stroke-width: 0.8"/>
      </g>
     </g>
     <g id="text_6">
      <!-- 2020 -->
      <g style="fill: #7b7e85" transform="translate(498.734336 315.330469)scale(0.11 -0.11)">
       <use xlink:href="#Calibri-32"/>
       <use xlink:href="#Calibri-30" x="50.683594"/>
       <use xlink:href="#Calibri-32" x="101.367188"/>
       <use xlink:href="#Calibri-30" x="152.050781"/>
      </g>
     </g>
    </g>
    <g id="text_7">
     <!-- Year -->
     <g style="fill: #00263e" transform="translate(309.580078 341.128437)scale(0.13 -0.13)">
      <defs>
       <path id="Calibri-59" d="M 1828 1572 
L 1828 81 
Q 1828 56 1815 37 
Q 1803 19 1772 8 
Q 1741 -3 1687 -11 
Q 1634 -19 1559 -19 
Q 1481 -19 1429 -11 
Q 1378 -3 1345 8 
Q 1313 19 1300 37 
Q 1288 56 1288 81 
L 1288 1572 
L 144 3853 
Q 109 3925 101 3965 
Q 94 4006 117 4028 
Q 141 4050 202 4056 
Q 263 4063 366 4063 
Q 459 4063 517 4056 
Q 575 4050 609 4039 
Q 644 4028 661 4008 
Q 678 3988 694 3956 
L 1253 2794 
Q 1331 2628 1409 2447 
Q 1488 2266 1569 2081 
L 1575 2081 
Q 1647 2259 1723 2436 
Q 1800 2613 1878 2784 
L 2441 3953 
Q 2450 3984 2467 4006 
Q 2484 4028 2514 4039 
Q 2544 4050 2597 4056 
Q 2650 4063 2731 4063 
Q 2844 4063 2908 4055 
Q 2972 4047 2997 4025 
Q 3022 4003 3014 3962 
Q 3006 3922 2972 3853 
L 1828 1572 
z
" transform="scale(0.015625)"/>
       <path id="Calibri-65" d="M 2878 1606 
Q 2878 1484 2817 1432 
Q 2756 1381 2678 1381 
L 834 1381 
Q 834 1147 881 959 
Q 928 772 1037 637 
Q 1147 503 1322 431 
Q 1497 359 1750 359 
Q 1950 359 2106 392 
Q 2263 425 2377 465 
Q 2491 506 2564 539 
Q 2638 572 2675 572 
Q 2697 572 2714 561 
Q 2731 550 2740 528 
Q 2750 506 2754 467 
Q 2759 428 2759 372 
Q 2759 331 2756 301 
Q 2753 272 2748 248 
Q 2744 225 2733 206 
Q 2722 188 2705 170 
Q 2688 153 2603 114 
Q 2519 75 2384 37 
Q 2250 0 2073 -29 
Q 1897 -59 1697 -59 
Q 1350 -59 1089 37 
Q 828 134 650 325 
Q 472 516 381 803 
Q 291 1091 291 1472 
Q 291 1834 384 2123 
Q 478 2413 654 2614 
Q 831 2816 1081 2923 
Q 1331 3031 1641 3031 
Q 1972 3031 2205 2925 
Q 2438 2819 2588 2639 
Q 2738 2459 2808 2217 
Q 2878 1975 2878 1700 
L 2878 1606 
z
M 2359 1759 
Q 2369 2166 2180 2397 
Q 1991 2628 1619 2628 
Q 1428 2628 1284 2556 
Q 1141 2484 1044 2365 
Q 947 2247 894 2089 
Q 841 1931 834 1759 
L 2359 1759 
z
" transform="scale(0.015625)"/>
       <path id="Calibri-61" d="M 2597 75 
Q 2597 38 2572 19 
Q 2547 0 2503 -9 
Q 2459 -19 2375 -19 
Q 2294 -19 2245 -9 
Q 2197 0 2175 19 
Q 2153 38 2153 75 
L 2153 356 
Q 1969 159 1742 50 
Q 1516 -59 1263 -59 
Q 1041 -59 861 -1 
Q 681 56 554 165 
Q 428 275 358 434 
Q 288 594 288 797 
Q 288 1034 384 1209 
Q 481 1384 662 1500 
Q 844 1616 1106 1673 
Q 1369 1731 1697 1731 
L 2084 1731 
L 2084 1950 
Q 2084 2113 2050 2238 
Q 2016 2363 1939 2445 
Q 1863 2528 1741 2570 
Q 1619 2613 1441 2613 
Q 1250 2613 1098 2567 
Q 947 2522 833 2467 
Q 719 2413 642 2367 
Q 566 2322 528 2322 
Q 503 2322 484 2334 
Q 466 2347 452 2372 
Q 438 2397 431 2436 
Q 425 2475 425 2522 
Q 425 2600 436 2645 
Q 447 2691 489 2731 
Q 531 2772 634 2826 
Q 738 2881 872 2926 
Q 1006 2972 1165 3001 
Q 1325 3031 1488 3031 
Q 1791 3031 2003 2962 
Q 2216 2894 2347 2761 
Q 2478 2628 2537 2431 
Q 2597 2234 2597 1972 
L 2597 75 
z
M 2084 1359 
L 1644 1359 
Q 1431 1359 1275 1323 
Q 1119 1288 1016 1217 
Q 913 1147 864 1048 
Q 816 950 816 822 
Q 816 603 955 473 
Q 1094 344 1344 344 
Q 1547 344 1720 447 
Q 1894 550 2084 763 
L 2084 1359 
z
" transform="scale(0.015625)"/>
       <path id="Calibri-72" d="M 2122 2706 
Q 2122 2638 2119 2591 
Q 2116 2544 2106 2517 
Q 2097 2491 2083 2477 
Q 2069 2463 2044 2463 
Q 2019 2463 1983 2477 
Q 1947 2491 1901 2505 
Q 1856 2519 1800 2531 
Q 1744 2544 1678 2544 
Q 1600 2544 1525 2512 
Q 1450 2481 1367 2409 
Q 1284 2338 1193 2219 
Q 1103 2100 994 1928 
L 994 78 
Q 994 53 981 36 
Q 969 19 941 6 
Q 913 -6 863 -12 
Q 813 -19 734 -19 
Q 659 -19 609 -12 
Q 559 -6 529 6 
Q 500 19 489 36 
Q 478 53 478 78 
L 478 2891 
Q 478 2916 487 2933 
Q 497 2950 525 2964 
Q 553 2978 597 2983 
Q 641 2988 713 2988 
Q 781 2988 826 2983 
Q 872 2978 897 2964 
Q 922 2950 933 2933 
Q 944 2916 944 2891 
L 944 2481 
Q 1059 2650 1161 2756 
Q 1263 2863 1353 2923 
Q 1444 2984 1533 3007 
Q 1622 3031 1713 3031 
Q 1753 3031 1804 3026 
Q 1856 3022 1912 3009 
Q 1969 2997 2014 2981 
Q 2059 2966 2078 2950 
Q 2097 2934 2103 2920 
Q 2109 2906 2114 2884 
Q 2119 2863 2120 2820 
Q 2122 2778 2122 2706 
z
" transform="scale(0.015625)"/>
      </defs>
      <use xlink:href="#Calibri-59"/>
      <use xlink:href="#Calibri-65" x="48.730469"/>
      <use xlink:href="#Calibri-61" x="98.486328"/>
      <use xlink:href="#Calibri-72" x="146.386719"/>
     </g>
    </g>
   </g>
   <g id="matplotlib.axis_2">
    <g id="ytick_1">
     <g id="line2d_7">
      <defs>
       <path id="m5fc5c2786f" d="M 0 0 
L -6 0 
" style="stroke: #7b7e85; stroke-width: 0.8"/>
      </defs>
      <g>
       <use xlink:href="#m5fc5c2786f" x="67.900937" y="284.67402" style="fill: #7b7e85; stroke: #7b7e85; stroke-width: 0.8"/>
      </g>
     </g>
     <g id="text_8">
      <!-- 0 -->
      <g style="fill: #7b7e85" transform="translate(52.825312 288.414879)scale(0.11 -0.11)">
       <use xlink:href="#Calibri-30"/>
      </g>
     </g>
    </g>
    <g id="ytick_2">
     <g id="line2d_8">
      <g>
       <use xlink:href="#m5fc5c2786f" x="67.900937" y="231.607065" style="fill: #7b7e85; stroke: #7b7e85; stroke-width: 0.8"/>
      </g>
     </g>
     <g id="text_9">
      <!-- 500 -->
      <g style="fill: #7b7e85" transform="translate(41.674062 235.347924)scale(0.11 -0.11)">
       <defs>
        <path id="Calibri-35" d="M 2869 1300 
Q 2869 975 2759 722 
Q 2650 469 2450 295 
Q 2250 122 1973 31 
Q 1697 -59 1359 -59 
Q 1172 -59 1003 -32 
Q 834 -6 703 33 
Q 572 72 487 109 
Q 403 147 379 169 
Q 356 191 347 209 
Q 338 228 330 254 
Q 322 281 319 322 
Q 316 363 316 419 
Q 316 472 320 514 
Q 325 556 337 582 
Q 350 609 367 621 
Q 384 634 406 634 
Q 438 634 503 595 
Q 569 556 680 511 
Q 791 466 955 425 
Q 1119 384 1344 384 
Q 1553 384 1728 434 
Q 1903 484 2029 590 
Q 2156 697 2228 858 
Q 2300 1019 2300 1250 
Q 2300 1444 2239 1592 
Q 2178 1741 2051 1839 
Q 1925 1938 1731 1986 
Q 1538 2034 1269 2034 
Q 1078 2034 940 2015 
Q 803 1997 684 1997 
Q 597 1997 559 2037 
Q 522 2078 522 2194 
L 522 3841 
Q 522 3944 570 3994 
Q 619 4044 709 4044 
L 2500 4044 
Q 2525 4044 2548 4030 
Q 2572 4016 2587 3987 
Q 2603 3959 2611 3915 
Q 2619 3872 2619 3813 
Q 2619 3700 2587 3637 
Q 2556 3575 2500 3575 
L 991 3575 
L 991 2441 
Q 1100 2456 1214 2459 
Q 1328 2463 1478 2463 
Q 1825 2463 2084 2380 
Q 2344 2297 2517 2145 
Q 2691 1994 2780 1778 
Q 2869 1563 2869 1300 
z
" transform="scale(0.015625)"/>
       </defs>
       <use xlink:href="#Calibri-35"/>
       <use xlink:href="#Calibri-30" x="50.683594"/>
       <use xlink:href="#Calibri-30" x="101.367188"/>
      </g>
     </g>
    </g>
    <g id="ytick_3">
     <g id="line2d_9">
      <g>
       <use xlink:href="#m5fc5c2786f" x="67.900937" y="178.54011" style="fill: #7b7e85; stroke: #7b7e85; stroke-width: 0.8"/>
      </g>
     </g>
     <g id="text_10">
      <!-- 1,000 -->
      <g style="fill: #7b7e85" transform="translate(33.353594 182.280969)scale(0.11 -0.11)">
       <defs>
        <path id="Calibri-2c" d="M 1159 447 
Q 1159 350 1150 269 
Q 1141 188 1119 116 
Q 1097 44 1061 -26 
Q 1025 -97 972 -175 
L 544 -819 
Q 528 -841 508 -856 
Q 488 -872 458 -884 
Q 428 -897 389 -901 
Q 350 -906 291 -906 
Q 238 -906 202 -901 
Q 166 -897 150 -886 
Q 134 -875 132 -856 
Q 131 -838 144 -813 
L 559 47 
L 559 447 
Q 559 531 576 581 
Q 594 631 631 656 
Q 669 681 725 690 
Q 781 700 863 700 
Q 941 700 997 690 
Q 1053 681 1089 656 
Q 1125 631 1142 581 
Q 1159 531 1159 447 
z
" transform="scale(0.015625)"/>
       </defs>
       <use xlink:href="#Calibri-31"/>
       <use xlink:href="#Calibri-2c" x="50.683594"/>
       <use xlink:href="#Calibri-30" x="75.634766"/>
       <use xlink:href="#Calibri-30" x="126.318359"/>
       <use xlink:href="#Calibri-30" x="177.001953"/>
      </g>
     </g>
    </g>
    <g id="ytick_4">
     <g id="line2d_10">
      <g>
       <use xlink:href="#m5fc5c2786f" x="67.900937" y="125.473155" style="fill: #7b7e85; stroke: #7b7e85; stroke-width: 0.8"/>
      </g>
     </g>
     <g id="text_11">
      <!-- 1,500 -->
      <g style="fill: #7b7e85" transform="translate(33.353594 129.214014)scale(0.11 -0.11)">
       <use xlink:href="#Calibri-31"/>
       <use xlink:href="#Calibri-2c" x="50.683594"/>
       <use xlink:href="#Calibri-35" x="75.634766"/>
       <use xlink:href="#Calibri-30" x="126.318359"/>
       <use xlink:href="#Calibri-30" x="177.001953"/>
      </g>
     </g>
    </g>
    <g id="ytick_5">
     <g id="line2d_11">
      <g>
       <use xlink:href="#m5fc5c2786f" x="67.900937" y="72.4062" style="fill: #7b7e85; stroke: #7b7e85; stroke-width: 0.8"/>
      </g>
     </g>
     <g id="text_12">
      <!-- 2,000 -->
      <g style="fill: #7b7e85" transform="translate(33.353594 76.147059)scale(0.11 -0.11)">
       <use xlink:href="#Calibri-32"/>
       <use xlink:href="#Calibri-2c" x="50.683594"/>
       <use xlink:href="#Calibri-30" x="75.634766"/>
       <use xlink:href="#Calibri-30" x="126.318359"/>
       <use xlink:href="#Calibri-30" x="177.001953"/>
      </g>
     </g>
    </g>
    <g id="text_13">
     <!-- Awards -->
     <g style="fill: #00263e" transform="translate(16.042031 187.671484)rotate(-90)scale(0.13 -0.13)">
      <defs>
       <path id="Calibri-41" d="M 3566 191 
Q 3591 122 3592 80 
Q 3594 38 3569 16 
Q 3544 -6 3486 -12 
Q 3428 -19 3331 -19 
Q 3234 -19 3176 -14 
Q 3119 -9 3089 2 
Q 3059 13 3045 31 
Q 3031 50 3019 78 
L 2672 1063 
L 991 1063 
L 659 91 
Q 650 63 634 42 
Q 619 22 589 8 
Q 559 -6 504 -12 
Q 450 -19 363 -19 
Q 272 -19 214 -11 
Q 156 -3 132 19 
Q 109 41 111 83 
Q 113 125 138 194 
L 1494 3950 
Q 1506 3984 1526 4006 
Q 1547 4028 1586 4040 
Q 1625 4053 1686 4058 
Q 1747 4063 1841 4063 
Q 1941 4063 2006 4058 
Q 2072 4053 2112 4040 
Q 2153 4028 2175 4004 
Q 2197 3981 2209 3947 
L 3566 191 
z
M 1825 3506 
L 1822 3506 
L 1125 1491 
L 2531 1491 
L 1825 3506 
z
" transform="scale(0.015625)"/>
       <path id="Calibri-77" d="M 4413 2897 
Q 4413 2875 4406 2844 
Q 4400 2813 4384 2766 
L 3556 94 
Q 3547 59 3526 37 
Q 3506 16 3470 3 
Q 3434 -9 3371 -14 
Q 3309 -19 3216 -19 
Q 3119 -19 3053 -12 
Q 2988 -6 2948 6 
Q 2909 19 2890 41 
Q 2872 63 2863 94 
L 2272 2134 
L 2266 2163 
L 2259 2134 
L 1713 94 
Q 1703 59 1683 37 
Q 1663 16 1622 3 
Q 1581 -9 1517 -14 
Q 1453 -19 1359 -19 
Q 1263 -19 1202 -12 
Q 1141 -6 1102 6 
Q 1063 19 1044 41 
Q 1025 63 1016 94 
L 194 2766 
Q 178 2813 172 2844 
Q 166 2875 166 2897 
Q 166 2925 178 2942 
Q 191 2959 220 2970 
Q 250 2981 300 2984 
Q 350 2988 422 2988 
Q 509 2988 562 2983 
Q 616 2978 644 2967 
Q 672 2956 684 2936 
Q 697 2916 706 2888 
L 1384 569 
L 1391 541 
L 1397 569 
L 2019 2888 
Q 2025 2916 2039 2936 
Q 2053 2956 2081 2967 
Q 2109 2978 2157 2983 
Q 2206 2988 2284 2988 
Q 2359 2988 2407 2983 
Q 2456 2978 2484 2967 
Q 2513 2956 2525 2937 
Q 2538 2919 2544 2894 
L 3216 569 
L 3222 541 
L 3225 569 
L 3894 2888 
Q 3900 2916 3914 2936 
Q 3928 2956 3958 2967 
Q 3988 2978 4039 2983 
Q 4091 2988 4172 2988 
Q 4247 2988 4292 2984 
Q 4338 2981 4364 2968 
Q 4391 2956 4402 2940 
Q 4413 2925 4413 2897 
z
" transform="scale(0.015625)"/>
       <path id="Calibri-64" d="M 2888 78 
Q 2888 53 2877 34 
Q 2866 16 2839 5 
Q 2813 -6 2769 -12 
Q 2725 -19 2663 -19 
Q 2597 -19 2553 -12 
Q 2509 -6 2481 5 
Q 2453 16 2440 34 
Q 2428 53 2428 78 
L 2428 450 
Q 2206 209 1967 75 
Q 1728 -59 1444 -59 
Q 1134 -59 915 61 
Q 697 181 561 386 
Q 425 591 362 867 
Q 300 1144 300 1450 
Q 300 1813 378 2105 
Q 456 2397 609 2603 
Q 763 2809 989 2920 
Q 1216 3031 1513 3031 
Q 1759 3031 1964 2923 
Q 2169 2816 2369 2606 
L 2369 4241 
Q 2369 4263 2380 4283 
Q 2391 4303 2422 4314 
Q 2453 4325 2501 4333 
Q 2550 4341 2625 4341 
Q 2703 4341 2753 4333 
Q 2803 4325 2831 4314 
Q 2859 4303 2873 4283 
Q 2888 4263 2888 4241 
L 2888 78 
z
M 2369 2056 
Q 2159 2316 1964 2452 
Q 1769 2588 1556 2588 
Q 1359 2588 1221 2494 
Q 1084 2400 998 2247 
Q 913 2094 873 1900 
Q 834 1706 834 1506 
Q 834 1294 867 1091 
Q 900 888 981 730 
Q 1063 572 1197 476 
Q 1331 381 1534 381 
Q 1638 381 1733 409 
Q 1828 438 1928 503 
Q 2028 569 2137 673 
Q 2247 778 2369 931 
L 2369 2056 
z
" transform="scale(0.015625)"/>
       <path id="Calibri-73" d="M 2244 844 
Q 2244 628 2164 459 
Q 2084 291 1937 175 
Q 1791 59 1587 0 
Q 1384 -59 1141 -59 
Q 991 -59 855 -36 
Q 719 -13 611 23 
Q 503 59 428 98 
Q 353 138 318 169 
Q 284 200 268 256 
Q 253 313 253 409 
Q 253 469 259 509 
Q 266 550 275 575 
Q 284 600 301 611 
Q 319 622 341 622 
Q 375 622 442 580 
Q 509 538 607 488 
Q 706 438 840 395 
Q 975 353 1150 353 
Q 1281 353 1387 381 
Q 1494 409 1572 464 
Q 1650 519 1692 603 
Q 1734 688 1734 803 
Q 1734 922 1673 1003 
Q 1613 1084 1513 1146 
Q 1413 1209 1288 1257 
Q 1163 1306 1030 1359 
Q 897 1413 770 1480 
Q 644 1547 544 1644 
Q 444 1741 383 1875 
Q 322 2009 322 2197 
Q 322 2363 386 2514 
Q 450 2666 578 2780 
Q 706 2894 898 2962 
Q 1091 3031 1347 3031 
Q 1459 3031 1571 3012 
Q 1684 2994 1775 2966 
Q 1866 2938 1930 2905 
Q 1994 2872 2026 2847 
Q 2059 2822 2070 2803 
Q 2081 2784 2086 2761 
Q 2091 2738 2095 2703 
Q 2100 2669 2100 2619 
Q 2100 2566 2095 2527 
Q 2091 2488 2080 2463 
Q 2069 2438 2053 2427 
Q 2038 2416 2019 2416 
Q 1991 2416 1937 2450 
Q 1884 2484 1800 2523 
Q 1716 2563 1602 2597 
Q 1488 2631 1341 2631 
Q 1209 2631 1109 2601 
Q 1009 2572 945 2517 
Q 881 2463 848 2388 
Q 816 2313 816 2225 
Q 816 2103 878 2020 
Q 941 1938 1041 1875 
Q 1141 1813 1269 1763 
Q 1397 1713 1530 1659 
Q 1663 1606 1792 1540 
Q 1922 1475 2022 1381 
Q 2122 1288 2183 1156 
Q 2244 1025 2244 844 
z
" transform="scale(0.015625)"/>
      </defs>
      <use xlink:href="#Calibri-41"/>
      <use xlink:href="#Calibri-77" x="57.861328"/>
      <use xlink:href="#Calibri-61" x="129.345703"/>
      <use xlink:href="#Calibri-72" x="177.246094"/>
      <use xlink:href="#Calibri-64" x="212.109375"/>
      <use xlink:href="#Calibri-73" x="264.648438"/>
     </g>
    </g>
   </g>
   <g id="PolyCollection_1">
    <defs>
     <path id="m42b6576e3a" d="M 90.942791 -65.96598 
L 90.942791 -175.602309 
L 132.837071 -175.602309 
L 174.73135 -299.460582 
L 216.62563 -194.281877 
L 258.519909 -187.383173 
L 300.414188 -202.77259 
L 342.308468 -218.055873 
L 384.202747 -234.612763 
L 426.097027 -239.494923 
L 467.991306 -242.572807 
L 509.885586 -261.146241 
L 551.779865 -267.620409 
L 551.779865 -65.96598 
L 551.779865 -65.96598 
L 509.885586 -65.96598 
L 467.991306 -65.96598 
L 426.097027 -65.96598 
L 384.202747 -65.96598 
L 342.308468 -65.96598 
L 300.414188 -65.96598 
L 258.519909 -65.96598 
L 216.62563 -65.96598 
L 174.73135 -65.96598 
L 132.837071 -65.96598 
L 90.942791 -65.96598 
z
" style="stroke: #7b7e85; stroke-opacity: 0.1"/>
    </defs>
    <g clip-path="url(#p886d86135d)">
     <use xlink:href="#m42b6576e3a" x="0" y="350.64" style="fill: #7b7e85; fill-opacity: 0.1; stroke: #7b7e85; stroke-opacity: 0.1"/>
    </g>
   </g>
   <g id="line2d_12">
    <path d="M 90.942791 175.037691 
L 132.837071 175.037691 
L 174.73135 51.179418 
L 216.62563 156.358123 
L 258.519909 163.256827 
L 300.414188 147.86741 
L 342.308468 132.584127 
L 384.202747 116.027237 
L 426.097027 111.145077 
L 467.991306 108.067193 
L 509.885586 89.493759 
L 551.779865 83.019591 
" clip-path="url(#p886d86135d)" style="fill: none; stroke: #d0dd28; stroke-width: 1.5; stroke-linecap: square"/>
    <defs>
     <path id="m1ee8b7c6f0" d="M 0 3 
C 0.795609 3 1.55874 2.683901 2.12132 2.12132 
C 2.683901 1.55874 3 0.795609 3 0 
C 3 -0.795609 2.683901 -1.55874 2.12132 -2.12132 
C 1.55874 -2.683901 0.795609 -3 0 -3 
C -0.795609 -3 -1.55874 -2.683901 -2.12132 -2.12132 
C -2.683901 -1.55874 -3 -0.795609 -3 0 
C -3 0.795609 -2.683901 1.55874 -2.12132 2.12132 
C -1.55874 2.683901 -0.795609 3 0 3 
z
" style="stroke: #d0dd28"/>
    </defs>
    <g clip-path="url(#p886d86135d)">
     <use xlink:href="#m1ee8b7c6f0" x="90.942791" y="175.037691" style="fill: #d0dd28; stroke: #d0dd28"/>
     <use xlink:href="#m1ee8b7c6f0" x="132.837071" y="175.037691" style="fill: #d0dd28; stroke: #d0dd28"/>
     <use xlink:href="#m1ee8b7c6f0" x="174.73135" y="51.179418" style="fill: #d0dd28; stroke: #d0dd28"/>
     <use xlink:href="#m1ee8b7c6f0" x="216.62563" y="156.358123" style="fill: #d0dd28; stroke: #d0dd28"/>
     <use xlink:href="#m1ee8b7c6f0" x="258.519909" y="163.256827" style="fill: #d0dd28; stroke: #d0dd28"/>
     <use xlink:href="#m1ee8b7c6f0" x="300.414188" y="147.86741" style="fill: #d0dd28; stroke: #d0dd28"/>
     <use xlink:href="#m1ee8b7c6f0" x="342.308468" y="132.584127" style="fill: #d0dd28; stroke: #d0dd28"/>
     <use xlink:href="#m1ee8b7c6f0" x="384.202747" y="116.027237" style="fill: #d0dd28; stroke: #d0dd28"/>
     <use xlink:href="#m1ee8b7c6f0" x="426.097027" y="111.145077" style="fill: #d0dd28; stroke: #d0dd28"/>
     <use xlink:href="#m1ee8b7c6f0" x="467.991306" y="108.067193" style="fill: #d0dd28; stroke: #d0dd28"/>
     <use xlink:href="#m1ee8b7c6f0" x="509.885586" y="89.493759" style="fill: #d0dd28; stroke: #d0dd28"/>
     <use xlink:href="#m1ee8b7c6f0" x="551.779865" y="83.019591" style="fill: #d0dd28; stroke: #d0dd28"/>
    </g>
   </g>
   <g id="line2d_13">
    <path d="M 90.942791 284.67402 
L 132.837071 284.67402 
L 174.73135 284.67402 
L 216.62563 284.67402 
L 258.519909 284.67402 
L 300.414188 284.67402 
L 342.308468 284.67402 
L 384.202747 284.249484 
L 426.097027 284.249484 
L 467.991306 284.037216 
L 509.885586 283.931083 
L 551.779865 283.400413 
" clip-path="url(#p886d86135d)" style="fill: none; stroke: #d6d0d3; stroke-width: 1.5; stroke-linecap: square"/>
    <defs>
     <path id="mdcf3831faf" d="M 0 3 
C 0.795609 3 1.55874 2.683901 2.12132 2.12132 
C 2.683901 1.55874 3 0.795609 3 0 
C 3 -0.795609 2.683901 -1.55874 2.12132 -2.12132 
C 1.55874 -2.683901 0.795609 -3 0 -3 
C -0.795609 -3 -1.55874 -2.683901 -2.12132 -2.12132 
C -2.683901 -1.55874 -3 -0.795609 -3 0 
C -3 0.795609 -2.683901 1.55874 -2.12132 2.12132 
C -1.55874 2.683901 -0.795609 3 0 3 
z
" style="stroke: #d6d0d3"/>
    </defs>
    <g clip-path="url(#p886d86135d)">
     <use xlink:href="#mdcf3831faf" x="90.942791" y="284.67402" style="fill: #d6d0d3; stroke: #d6d0d3"/>
     <use xlink:href="#mdcf3831faf" x="132.837071" y="284.67402" style="fill: #d6d0d3; stroke: #d6d0d3"/>
     <use xlink:href="#mdcf3831faf" x="174.73135" y="284.67402" style="fill: #d6d0d3; stroke: #d6d0d3"/>
     <use xlink:href="#mdcf3831faf" x="216.62563" y="284.67402" style="fill: #d6d0d3; stroke: #d6d0d3"/>
     <use xlink:href="#mdcf3831faf" x="258.519909" y="284.67402" style="fill: #d6d0d3; stroke: #d6d0d3"/>
     <use xlink:href="#mdcf3831faf" x="300.414188" y="284.67402" style="fill: #d6d0d3; stroke: #d6d0d3"/>
     <use xlink:href="#mdcf3831faf" x="342.308468" y="284.67402" style="fill: #d6d0d3; stroke: #d6d0d3"/>
     <use xlink:href="#mdcf3831faf" x="384.202747" y="284.249484" style="fill: #d6d0d3; stroke: #d6d0d3"/>
     <use xlink:href="#mdcf3831faf" x="426.097027" y="284.249484" style="fill: #d6d0d3; stroke: #d6d0d3"/>
     <use xlink:href="#mdcf3831faf" x="467.991306" y="284.037216" style="fill: #d6d0d3; stroke: #d6d0d3"/>
     <use xlink:href="#mdcf3831faf" x="509.885586" y="283.931083" style="fill: #d6d0d3; stroke: #d6d0d3"/>
     <use xlink:href="#mdcf3831faf" x="551.779865" y="283.400413" style="fill: #d6d0d3; stroke: #d6d0d3"/>
    </g>
   </g>
   <g id="line2d_14">
    <path d="M 90.942791 284.67402 
L 132.837071 284.67402 
L 174.73135 284.67402 
L 216.62563 284.67402 
L 258.519909 284.67402 
L 300.414188 284.67402 
L 342.308468 284.67402 
L 384.202747 277.35078 
L 426.097027 275.652638 
L 467.991306 279.685726 
L 509.885586 277.563048 
L 551.779865 278.942789 
" clip-path="url(#p886d86135d)" style="fill: none; stroke: #696466; stroke-width: 1.5; stroke-linecap: square"/>
    <defs>
     <path id="m9781820f23" d="M 0 3 
C 0.795609 3 1.55874 2.683901 2.12132 2.12132 
C 2.683901 1.55874 3 0.795609 3 0 
C 3 -0.795609 2.683901 -1.55874 2.12132 -2.12132 
C 1.55874 -2.683901 0.795609 -3 0 -3 
C -0.795609 -3 -1.55874 -2.683901 -2.12132 -2.12132 
C -2.683901 -1.55874 -3 -0.795609 -3 0 
C -3 0.795609 -2.683901 1.55874 -2.12132 2.12132 
C -1.55874 2.683901 -0.795609 3 0 3 
z
" style="stroke: #696466"/>
    </defs>
    <g clip-path="url(#p886d86135d)">
     <use xlink:href="#m9781820f23" x="90.942791" y="284.67402" style="fill: #696466; stroke: #696466"/>
     <use xlink:href="#m9781820f23" x="132.837071" y="284.67402" style="fill: #696466; stroke: #696466"/>
     <use xlink:href="#m9781820f23" x="174.73135" y="284.67402" style="fill: #696466; stroke: #696466"/>
     <use xlink:href="#m9781820f23" x="216.62563" y="284.67402" style="fill: #696466; stroke: #696466"/>
     <use xlink:href="#m9781820f23" x="258.519909" y="284.67402" style="fill: #696466; stroke: #696466"/>
     <use xlink:href="#m9781820f23" x="300.414188" y="284.67402" style="fill: #696466; stroke: #696466"/>
     <use xlink:href="#m9781820f23" x="342.308468" y="284.67402" style="fill: #696466; stroke: #696466"/>
     <use xlink:href="#m9781820f23" x="384.202747" y="277.35078" style="fill: #696466; stroke: #696466"/>
     <use xlink:href="#m9781820f23" x="426.097027" y="275.652638" style="fill: #696466; stroke: #696466"/>
     <use xlink:href="#m9781820f23" x="467.991306" y="279.685726" style="fill: #696466; stroke: #696466"/>
     <use xlink:href="#m9781820f23" x="509.885586" y="277.563048" style="fill: #696466; stroke: #696466"/>
     <use xlink:href="#m9781820f23" x="551.779865" y="278.942789" style="fill: #696466; stroke: #696466"/>
    </g>
   </g>
   <g id="line2d_15">
    <path d="M 90.942791 217.91579 
L 132.837071 207.939203 
L 174.73135 203.693846 
L 216.62563 201.040499 
L 258.519909 203.375445 
L 300.414188 190.745509 
L 342.308468 179.495315 
L 384.202747 169.200326 
L 426.097027 161.770952 
L 467.991306 155.721319 
L 509.885586 153.917043 
L 551.779865 150.30849 
" clip-path="url(#p886d86135d)" style="fill: none; stroke: #62a67f; stroke-width: 1.5; stroke-linecap: square"/>
    <defs>
     <path id="m497965f53b" d="M 0 3 
C 0.795609 3 1.55874 2.683901 2.12132 2.12132 
C 2.683901 1.55874 3 0.795609 3 0 
C 3 -0.795609 2.683901 -1.55874 2.12132 -2.12132 
C 1.55874 -2.683901 0.795609 -3 0 -3 
C -0.795609 -3 -1.55874 -2.683901 -2.12132 -2.12132 
C -2.683901 -1.55874 -3 -0.795609 -3 0 
C -3 0.795609 -2.683901 1.55874 -2.12132 2.12132 
C -1.55874 2.683901 -0.795609 3 0 3 
z
" style="stroke: #62a67f"/>
    </defs>
    <g clip-path="url(#p886d86135d)">
     <use xlink:href="#m497965f53b" x="90.942791" y="217.91579" style="fill: #62a67f; stroke: #62a67f"/>
     <use xlink:href="#m497965f53b" x="132.837071" y="207.939203" style="fill: #62a67f; stroke: #62a67f"/>
     <use xlink:href="#m497965f53b" x="174.73135" y="203.693846" style="fill: #62a67f; stroke: #62a67f"/>
     <use xlink:href="#m497965f53b" x="216.62563" y="201.040499" style="fill: #62a67f; stroke: #62a67f"/>
     <use xlink:href="#m497965f53b" x="258.519909" y="203.375445" style="fill: #62a67f; stroke: #62a67f"/>
     <use xlink:href="#m497965f53b" x="300.414188" y="190.745509" style="fill: #62a67f; stroke: #62a67f"/>
     <use xlink:href="#m497965f53b" x="342.308468" y="179.495315" style="fill: #62a67f; stroke: #62a67f"/>
     <use xlink:href="#m497965f53b" x="384.202747" y="169.200326" style="fill: #62a67f; stroke: #62a67f"/>
     <use xlink:href="#m497965f53b" x="426.097027" y="161.770952" style="fill: #62a67f; stroke: #62a67f"/>
     <use xlink:href="#m497965f53b" x="467.991306" y="155.721319" style="fill: #62a67f; stroke: #62a67f"/>
     <use xlink:href="#m497965f53b" x="509.885586" y="153.917043" style="fill: #62a67f; stroke: #62a67f"/>
     <use xlink:href="#m497965f53b" x="551.779865" y="150.30849" style="fill: #62a67f; stroke: #62a67f"/>
    </g>
   </g>
   <g id="line2d_16">
    <path d="M 90.942791 284.67402 
L 132.837071 284.67402 
L 174.73135 284.67402 
L 216.62563 284.67402 
L 258.519909 284.67402 
L 300.414188 284.67402 
L 342.308468 284.67402 
L 384.202747 284.67402 
L 426.097027 284.67402 
L 467.991306 284.67402 
L 509.885586 284.67402 
L 551.779865 284.67402 
" clip-path="url(#p886d86135d)" style="fill: none; stroke: #92c83e; stroke-width: 1.5; stroke-linecap: square"/>
    <defs>
     <path id="m7e95ac05c8" d="M 0 3 
C 0.795609 3 1.55874 2.683901 2.12132 2.12132 
C 2.683901 1.55874 3 0.795609 3 0 
C 3 -0.795609 2.683901 -1.55874 2.12132 -2.12132 
C 1.55874 -2.683901 0.795609 -3 0 -3 
C -0.795609 -3 -1.55874 -2.683901 -2.12132 -2.12132 
C -2.683901 -1.55874 -3 -0.795609 -3 0 
C -3 0.795609 -2.683901 1.55874 -2.12132 2.12132 
C -1.55874 2.683901 -0.795609 3 0 3 
z
" style="stroke: #92c83e"/>
    </defs>
    <g clip-path="url(#p886d86135d)">
     <use xlink:href="#m7e95ac05c8" x="90.942791" y="284.67402" style="fill: #92c83e; stroke: #92c83e"/>
     <use xlink:href="#m7e95ac05c8" x="132.837071" y="284.67402" style="fill: #92c83e; stroke: #92c83e"/>
     <use xlink:href="#m7e95ac05c8" x="174.73135" y="284.67402" style="fill: #92c83e; stroke: #92c83e"/>
     <use xlink:href="#m7e95ac05c8" x="216.62563" y="284.67402" style="fill: #92c83e; stroke: #92c83e"/>
     <use xlink:href="#m7e95ac05c8" x="258.519909" y="284.67402" style="fill: #92c83e; stroke: #92c83e"/>
     <use xlink:href="#m7e95ac05c8" x="300.414188" y="284.67402" style="fill: #92c83e; stroke: #92c83e"/>
     <use xlink:href="#m7e95ac05c8" x="342.308468" y="284.67402" style="fill: #92c83e; stroke: #92c83e"/>
     <use xlink:href="#m7e95ac05c8" x="384.202747" y="284.67402" style="fill: #92c83e; stroke: #92c83e"/>
     <use xlink:href="#m7e95ac05c8" x="426.097027" y="284.67402" style="fill: #92c83e; stroke: #92c83e"/>
     <use xlink:href="#m7e95ac05c8" x="467.991306" y="284.67402" style="fill: #92c83e; stroke: #92c83e"/>
     <use xlink:href="#m7e95ac05c8" x="509.885586" y="284.67402" style="fill: #92c83e; stroke: #92c83e"/>
     <use xlink:href="#m7e95ac05c8" x="551.779865" y="284.67402" style="fill: #92c83e; stroke: #92c83e"/>
    </g>
   </g>
   <g id="line2d_17">
    <path d="M 90.942791 241.79592 
L 132.837071 251.772508 
L 174.73135 132.159591 
L 216.62563 239.991644 
L 258.519909 244.555402 
L 300.414188 241.79592 
L 342.308468 237.762832 
L 384.202747 239.248706 
L 426.097027 243.494063 
L 467.991306 242.644991 
L 509.885586 228.104646 
L 551.779865 224.389959 
" clip-path="url(#p886d86135d)" style="fill: none; stroke: #0c2428; stroke-width: 1.5; stroke-linecap: square"/>
    <defs>
     <path id="m43d08a1a2d" d="M 0 3 
C 0.795609 3 1.55874 2.683901 2.12132 2.12132 
C 2.683901 1.55874 3 0.795609 3 0 
C 3 -0.795609 2.683901 -1.55874 2.12132 -2.12132 
C 1.55874 -2.683901 0.795609 -3 0 -3 
C -0.795609 -3 -1.55874 -2.683901 -2.12132 -2.12132 
C -2.683901 -1.55874 -3 -0.795609 -3 0 
C -3 0.795609 -2.683901 1.55874 -2.12132 2.12132 
C -1.55874 2.683901 -0.795609 3 0 3 
z
" style="stroke: #0c2428"/>
    </defs>
    <g clip-path="url(#p886d86135d)">
     <use xlink:href="#m43d08a1a2d" x="90.942791" y="241.79592" style="fill: #0c2428; stroke: #0c2428"/>
     <use xlink:href="#m43d08a1a2d" x="132.837071" y="251.772508" style="fill: #0c2428; stroke: #0c2428"/>
     <use xlink:href="#m43d08a1a2d" x="174.73135" y="132.159591" style="fill: #0c2428; stroke: #0c2428"/>
     <use xlink:href="#m43d08a1a2d" x="216.62563" y="239.991644" style="fill: #0c2428; stroke: #0c2428"/>
     <use xlink:href="#m43d08a1a2d" x="258.519909" y="244.555402" style="fill: #0c2428; stroke: #0c2428"/>
     <use xlink:href="#m43d08a1a2d" x="300.414188" y="241.79592" style="fill: #0c2428; stroke: #0c2428"/>
     <use xlink:href="#m43d08a1a2d" x="342.308468" y="237.762832" style="fill: #0c2428; stroke: #0c2428"/>
     <use xlink:href="#m43d08a1a2d" x="384.202747" y="239.248706" style="fill: #0c2428; stroke: #0c2428"/>
     <use xlink:href="#m43d08a1a2d" x="426.097027" y="243.494063" style="fill: #0c2428; stroke: #0c2428"/>
     <use xlink:href="#m43d08a1a2d" x="467.991306" y="242.644991" style="fill: #0c2428; stroke: #0c2428"/>
     <use xlink:href="#m43d08a1a2d" x="509.885586" y="228.104646" style="fill: #0c2428; stroke: #0c2428"/>
     <use xlink:href="#m43d08a1a2d" x="551.779865" y="224.389959" style="fill: #0c2428; stroke: #0c2428"/>
    </g>
   </g>
   <g id="text_14">
    <!-- Educational Awards from Sumner County Institutions Over Time -->
    <g style="fill: #00263e" transform="translate(87.520234 19.504687)scale(0.18 -0.18)">
     <defs>
      <path id="Calibri-45" d="M 2788 222 
Q 2788 166 2781 123 
Q 2775 81 2759 53 
Q 2744 25 2723 12 
Q 2703 0 2678 0 
L 738 0 
Q 666 0 602 48 
Q 538 97 538 219 
L 538 3825 
Q 538 3947 602 3995 
Q 666 4044 738 4044 
L 2656 4044 
Q 2681 4044 2701 4031 
Q 2722 4019 2734 3991 
Q 2747 3963 2755 3920 
Q 2763 3878 2763 3816 
Q 2763 3759 2755 3717 
Q 2747 3675 2734 3648 
Q 2722 3622 2701 3609 
Q 2681 3597 2656 3597 
L 1075 3597 
L 1075 2328 
L 2431 2328 
Q 2456 2328 2476 2314 
Q 2497 2300 2511 2275 
Q 2525 2250 2531 2206 
Q 2538 2163 2538 2103 
Q 2538 2047 2531 2006 
Q 2525 1966 2511 1941 
Q 2497 1916 2476 1905 
Q 2456 1894 2431 1894 
L 1075 1894 
L 1075 447 
L 2678 447 
Q 2703 447 2723 434 
Q 2744 422 2759 395 
Q 2775 369 2781 326 
Q 2788 284 2788 222 
z
" transform="scale(0.015625)"/>
      <path id="Calibri-75" d="M 2888 78 
Q 2888 53 2877 36 
Q 2866 19 2837 6 
Q 2809 -6 2764 -12 
Q 2719 -19 2653 -19 
Q 2581 -19 2536 -12 
Q 2491 -6 2464 6 
Q 2438 19 2428 36 
Q 2419 53 2419 78 
L 2419 450 
Q 2178 184 1943 62 
Q 1709 -59 1469 -59 
Q 1188 -59 995 34 
Q 803 128 684 289 
Q 566 450 514 664 
Q 463 878 463 1184 
L 463 2891 
Q 463 2916 473 2933 
Q 484 2950 515 2964 
Q 547 2978 597 2983 
Q 647 2988 722 2988 
Q 797 2988 847 2983 
Q 897 2978 926 2964 
Q 956 2950 968 2933 
Q 981 2916 981 2891 
L 981 1253 
Q 981 1006 1017 857 
Q 1053 709 1126 604 
Q 1200 500 1312 442 
Q 1425 384 1575 384 
Q 1769 384 1961 521 
Q 2153 659 2369 925 
L 2369 2891 
Q 2369 2916 2380 2933 
Q 2391 2950 2422 2964 
Q 2453 2978 2501 2983 
Q 2550 2988 2628 2988 
Q 2703 2988 2753 2983 
Q 2803 2978 2831 2964 
Q 2859 2950 2873 2933 
Q 2888 2916 2888 2891 
L 2888 78 
z
" transform="scale(0.015625)"/>
      <path id="Calibri-63" d="M 2500 506 
Q 2500 453 2497 414 
Q 2494 375 2486 348 
Q 2478 322 2467 301 
Q 2456 281 2417 242 
Q 2378 203 2284 145 
Q 2191 88 2073 42 
Q 1956 -3 1818 -31 
Q 1681 -59 1534 -59 
Q 1231 -59 997 41 
Q 763 141 605 333 
Q 447 525 364 804 
Q 281 1084 281 1450 
Q 281 1866 382 2164 
Q 484 2463 661 2653 
Q 838 2844 1077 2936 
Q 1316 3028 1594 3028 
Q 1728 3028 1854 3003 
Q 1981 2978 2087 2937 
Q 2194 2897 2276 2844 
Q 2359 2791 2396 2753 
Q 2434 2716 2448 2694 
Q 2463 2672 2472 2642 
Q 2481 2613 2484 2575 
Q 2488 2538 2488 2481 
Q 2488 2359 2459 2311 
Q 2431 2263 2391 2263 
Q 2344 2263 2283 2314 
Q 2222 2366 2128 2428 
Q 2034 2491 1901 2542 
Q 1769 2594 1588 2594 
Q 1216 2594 1017 2308 
Q 819 2022 819 1478 
Q 819 1206 870 1001 
Q 922 797 1022 659 
Q 1122 522 1267 455 
Q 1413 388 1600 388 
Q 1778 388 1912 444 
Q 2047 500 2145 567 
Q 2244 634 2311 689 
Q 2378 744 2416 744 
Q 2438 744 2453 731 
Q 2469 719 2480 689 
Q 2491 659 2495 614 
Q 2500 569 2500 506 
z
" transform="scale(0.015625)"/>
      <path id="Calibri-74" d="M 1941 284 
Q 1941 194 1928 141 
Q 1916 88 1891 63 
Q 1866 38 1816 16 
Q 1766 -6 1702 -20 
Q 1638 -34 1566 -43 
Q 1494 -53 1422 -53 
Q 1203 -53 1047 5 
Q 891 63 791 180 
Q 691 297 645 476 
Q 600 656 600 900 
L 600 2544 
L 206 2544 
Q 159 2544 131 2594 
Q 103 2644 103 2756 
Q 103 2816 111 2856 
Q 119 2897 131 2923 
Q 144 2950 164 2961 
Q 184 2972 209 2972 
L 600 2972 
L 600 3641 
Q 600 3663 611 3681 
Q 622 3700 651 3714 
Q 681 3728 731 3734 
Q 781 3741 856 3741 
Q 934 3741 984 3734 
Q 1034 3728 1062 3714 
Q 1091 3700 1103 3681 
Q 1116 3663 1116 3641 
L 1116 2972 
L 1838 2972 
Q 1863 2972 1881 2961 
Q 1900 2950 1914 2923 
Q 1928 2897 1934 2856 
Q 1941 2816 1941 2756 
Q 1941 2644 1912 2594 
Q 1884 2544 1838 2544 
L 1116 2544 
L 1116 975 
Q 1116 684 1202 536 
Q 1288 388 1509 388 
Q 1581 388 1637 402 
Q 1694 416 1737 431 
Q 1781 447 1812 461 
Q 1844 475 1869 475 
Q 1884 475 1898 467 
Q 1913 459 1920 437 
Q 1928 416 1934 378 
Q 1941 341 1941 284 
z
" transform="scale(0.015625)"/>
      <path id="Calibri-69" d="M 994 78 
Q 994 53 981 36 
Q 969 19 941 6 
Q 913 -6 863 -12 
Q 813 -19 734 -19 
Q 659 -19 609 -12 
Q 559 -6 529 6 
Q 500 19 489 36 
Q 478 53 478 78 
L 478 2891 
Q 478 2913 489 2931 
Q 500 2950 529 2962 
Q 559 2975 609 2981 
Q 659 2988 734 2988 
Q 813 2988 863 2981 
Q 913 2975 941 2962 
Q 969 2950 981 2931 
Q 994 2913 994 2891 
L 994 78 
z
M 1053 3841 
Q 1053 3659 984 3593 
Q 916 3528 731 3528 
Q 550 3528 483 3592 
Q 416 3656 416 3834 
Q 416 4016 484 4081 
Q 553 4147 738 4147 
Q 919 4147 986 4083 
Q 1053 4019 1053 3841 
z
" transform="scale(0.015625)"/>
      <path id="Calibri-6f" d="M 3094 1516 
Q 3094 1172 3003 883 
Q 2913 594 2733 384 
Q 2553 175 2283 58 
Q 2013 -59 1656 -59 
Q 1309 -59 1051 44 
Q 794 147 622 344 
Q 450 541 365 822 
Q 281 1103 281 1459 
Q 281 1803 370 2092 
Q 459 2381 639 2590 
Q 819 2800 1087 2915 
Q 1356 3031 1716 3031 
Q 2063 3031 2320 2928 
Q 2578 2825 2750 2628 
Q 2922 2431 3008 2150 
Q 3094 1869 3094 1516 
z
M 2550 1481 
Q 2550 1709 2508 1912 
Q 2466 2116 2369 2269 
Q 2272 2422 2106 2511 
Q 1941 2600 1694 2600 
Q 1466 2600 1302 2519 
Q 1138 2438 1031 2289 
Q 925 2141 873 1937 
Q 822 1734 822 1494 
Q 822 1263 864 1059 
Q 906 856 1004 704 
Q 1103 553 1268 464 
Q 1434 375 1681 375 
Q 1906 375 2072 456 
Q 2238 538 2344 684 
Q 2450 831 2500 1034 
Q 2550 1238 2550 1481 
z
" transform="scale(0.015625)"/>
      <path id="Calibri-6e" d="M 2900 78 
Q 2900 53 2887 36 
Q 2875 19 2847 6 
Q 2819 -6 2769 -12 
Q 2719 -19 2644 -19 
Q 2566 -19 2516 -12 
Q 2466 -6 2437 6 
Q 2409 19 2396 36 
Q 2384 53 2384 78 
L 2384 1725 
Q 2384 1966 2346 2112 
Q 2309 2259 2237 2365 
Q 2166 2472 2052 2528 
Q 1938 2584 1788 2584 
Q 1594 2584 1400 2446 
Q 1206 2309 994 2044 
L 994 78 
Q 994 53 981 36 
Q 969 19 941 6 
Q 913 -6 863 -12 
Q 813 -19 734 -19 
Q 659 -19 609 -12 
Q 559 -6 529 6 
Q 500 19 489 36 
Q 478 53 478 78 
L 478 2891 
Q 478 2916 487 2933 
Q 497 2950 525 2964 
Q 553 2978 597 2983 
Q 641 2988 713 2988 
Q 781 2988 826 2983 
Q 872 2978 897 2964 
Q 922 2950 933 2933 
Q 944 2916 944 2891 
L 944 2519 
Q 1181 2784 1417 2907 
Q 1653 3031 1894 3031 
Q 2175 3031 2367 2936 
Q 2559 2841 2678 2681 
Q 2797 2522 2848 2308 
Q 2900 2094 2900 1794 
L 2900 78 
z
" transform="scale(0.015625)"/>
      <path id="Calibri-6c" d="M 994 78 
Q 994 53 981 36 
Q 969 19 941 6 
Q 913 -6 863 -12 
Q 813 -19 734 -19 
Q 659 -19 609 -12 
Q 559 -6 529 6 
Q 500 19 489 36 
Q 478 53 478 78 
L 478 4253 
Q 478 4278 489 4297 
Q 500 4316 529 4328 
Q 559 4341 609 4347 
Q 659 4353 734 4353 
Q 813 4353 863 4347 
Q 913 4341 941 4328 
Q 969 4316 981 4297 
Q 994 4278 994 4253 
L 994 78 
z
" transform="scale(0.015625)"/>
      <path id="Calibri-20" transform="scale(0.015625)"/>
      <path id="Calibri-66" d="M 2019 4047 
Q 2019 3988 2012 3952 
Q 2006 3916 1998 3894 
Q 1991 3872 1978 3864 
Q 1966 3856 1947 3856 
Q 1925 3856 1892 3870 
Q 1859 3884 1812 3901 
Q 1766 3919 1702 3933 
Q 1638 3947 1553 3947 
Q 1438 3947 1356 3909 
Q 1275 3872 1225 3792 
Q 1175 3713 1153 3586 
Q 1131 3459 1131 3278 
L 1131 2972 
L 1759 2972 
Q 1784 2972 1801 2961 
Q 1819 2950 1833 2923 
Q 1847 2897 1855 2856 
Q 1863 2816 1863 2756 
Q 1863 2644 1834 2594 
Q 1806 2544 1759 2544 
L 1131 2544 
L 1131 78 
Q 1131 53 1118 36 
Q 1106 19 1076 6 
Q 1047 -6 997 -12 
Q 947 -19 872 -19 
Q 797 -19 747 -12 
Q 697 -6 667 6 
Q 638 19 625 36 
Q 613 53 613 78 
L 613 2544 
L 216 2544 
Q 166 2544 141 2594 
Q 116 2644 116 2756 
Q 116 2816 122 2856 
Q 128 2897 140 2923 
Q 153 2950 172 2961 
Q 191 2972 216 2972 
L 613 2972 
L 613 3263 
Q 613 3556 667 3767 
Q 722 3978 834 4112 
Q 947 4247 1117 4311 
Q 1288 4375 1519 4375 
Q 1628 4375 1731 4354 
Q 1834 4334 1890 4311 
Q 1947 4288 1965 4269 
Q 1984 4250 1996 4220 
Q 2009 4191 2014 4148 
Q 2019 4106 2019 4047 
z
" transform="scale(0.015625)"/>
      <path id="Calibri-6d" d="M 4650 78 
Q 4650 53 4637 36 
Q 4625 19 4597 6 
Q 4569 -6 4519 -12 
Q 4469 -19 4394 -19 
Q 4316 -19 4266 -12 
Q 4216 -6 4186 6 
Q 4156 19 4143 36 
Q 4131 53 4131 78 
L 4131 1788 
Q 4131 1966 4100 2112 
Q 4069 2259 4000 2365 
Q 3931 2472 3825 2528 
Q 3719 2584 3575 2584 
Q 3397 2584 3217 2446 
Q 3038 2309 2822 2044 
L 2822 78 
Q 2822 53 2809 36 
Q 2797 19 2767 6 
Q 2738 -6 2688 -12 
Q 2638 -19 2563 -19 
Q 2491 -19 2439 -12 
Q 2388 -6 2358 6 
Q 2328 19 2317 36 
Q 2306 53 2306 78 
L 2306 1788 
Q 2306 1966 2272 2112 
Q 2238 2259 2169 2365 
Q 2100 2472 1995 2528 
Q 1891 2584 1747 2584 
Q 1569 2584 1387 2446 
Q 1206 2309 994 2044 
L 994 78 
Q 994 53 981 36 
Q 969 19 941 6 
Q 913 -6 863 -12 
Q 813 -19 734 -19 
Q 659 -19 609 -12 
Q 559 -6 529 6 
Q 500 19 489 36 
Q 478 53 478 78 
L 478 2891 
Q 478 2916 487 2933 
Q 497 2950 525 2964 
Q 553 2978 597 2983 
Q 641 2988 713 2988 
Q 781 2988 826 2983 
Q 872 2978 897 2964 
Q 922 2950 933 2933 
Q 944 2916 944 2891 
L 944 2519 
Q 1181 2784 1404 2907 
Q 1628 3031 1856 3031 
Q 2031 3031 2170 2990 
Q 2309 2950 2415 2876 
Q 2522 2803 2597 2701 
Q 2672 2600 2722 2475 
Q 2863 2628 2989 2734 
Q 3116 2841 3233 2906 
Q 3350 2972 3461 3001 
Q 3572 3031 3684 3031 
Q 3956 3031 4140 2936 
Q 4325 2841 4439 2681 
Q 4553 2522 4601 2308 
Q 4650 2094 4650 1856 
L 4650 78 
z
" transform="scale(0.015625)"/>
      <path id="Calibri-53" d="M 2709 1134 
Q 2709 850 2604 628 
Q 2500 406 2314 251 
Q 2128 97 1876 19 
Q 1625 -59 1334 -59 
Q 1131 -59 957 -25 
Q 784 9 648 59 
Q 513 109 420 162 
Q 328 216 292 253 
Q 256 291 239 348 
Q 222 406 222 503 
Q 222 572 228 617 
Q 234 663 246 691 
Q 259 719 278 730 
Q 297 741 322 741 
Q 366 741 445 687 
Q 525 634 650 571 
Q 775 509 951 454 
Q 1128 400 1359 400 
Q 1534 400 1679 447 
Q 1825 494 1929 580 
Q 2034 666 2090 791 
Q 2147 916 2147 1075 
Q 2147 1247 2069 1369 
Q 1991 1491 1862 1583 
Q 1734 1675 1570 1751 
Q 1406 1828 1234 1908 
Q 1063 1988 900 2084 
Q 738 2181 609 2312 
Q 481 2444 401 2620 
Q 322 2797 322 3044 
Q 322 3297 414 3495 
Q 506 3694 670 3828 
Q 834 3963 1061 4033 
Q 1288 4103 1550 4103 
Q 1684 4103 1820 4079 
Q 1956 4056 2076 4017 
Q 2197 3978 2290 3929 
Q 2384 3881 2414 3851 
Q 2444 3822 2453 3805 
Q 2463 3788 2469 3761 
Q 2475 3734 2478 3696 
Q 2481 3659 2481 3600 
Q 2481 3544 2476 3500 
Q 2472 3456 2462 3426 
Q 2453 3397 2436 3383 
Q 2419 3369 2397 3369 
Q 2363 3369 2289 3412 
Q 2216 3456 2109 3511 
Q 2003 3566 1858 3611 
Q 1713 3656 1531 3656 
Q 1363 3656 1238 3611 
Q 1113 3566 1031 3491 
Q 950 3416 909 3312 
Q 869 3209 869 3094 
Q 869 2925 947 2803 
Q 1025 2681 1154 2587 
Q 1284 2494 1450 2416 
Q 1616 2338 1787 2258 
Q 1959 2178 2125 2083 
Q 2291 1988 2420 1858 
Q 2550 1728 2629 1551 
Q 2709 1375 2709 1134 
z
" transform="scale(0.015625)"/>
      <path id="Calibri-43" d="M 3238 572 
Q 3238 522 3234 484 
Q 3231 447 3223 419 
Q 3216 391 3203 369 
Q 3191 347 3159 315 
Q 3128 284 3028 220 
Q 2928 156 2779 95 
Q 2631 34 2439 -8 
Q 2247 -50 2019 -50 
Q 1625 -50 1308 81 
Q 991 213 767 469 
Q 544 725 423 1101 
Q 303 1478 303 1969 
Q 303 2472 433 2865 
Q 563 3259 797 3532 
Q 1031 3806 1357 3950 
Q 1684 4094 2081 4094 
Q 2256 4094 2422 4061 
Q 2588 4028 2728 3978 
Q 2869 3928 2978 3862 
Q 3088 3797 3130 3755 
Q 3172 3713 3184 3691 
Q 3197 3669 3205 3639 
Q 3213 3609 3217 3568 
Q 3222 3528 3222 3472 
Q 3222 3409 3215 3365 
Q 3209 3322 3196 3292 
Q 3184 3263 3167 3248 
Q 3150 3234 3125 3234 
Q 3081 3234 3003 3295 
Q 2925 3356 2801 3429 
Q 2678 3503 2501 3564 
Q 2325 3625 2078 3625 
Q 1809 3625 1589 3517 
Q 1369 3409 1212 3200 
Q 1056 2991 970 2689 
Q 884 2388 884 2000 
Q 884 1616 967 1320 
Q 1050 1025 1204 826 
Q 1359 628 1584 526 
Q 1809 425 2094 425 
Q 2334 425 2514 484 
Q 2694 544 2820 617 
Q 2947 691 3028 750 
Q 3109 809 3156 809 
Q 3178 809 3193 800 
Q 3209 791 3218 764 
Q 3228 738 3233 691 
Q 3238 644 3238 572 
z
" transform="scale(0.015625)"/>
      <path id="Calibri-79" d="M 1759 0 
L 1384 -1034 
Q 1366 -1084 1289 -1111 
Q 1213 -1138 1056 -1138 
Q 975 -1138 925 -1130 
Q 875 -1122 848 -1103 
Q 822 -1084 819 -1053 
Q 816 -1022 834 -978 
L 1222 0 
Q 1194 13 1169 41 
Q 1144 69 1134 100 
L 131 2788 
Q 106 2853 106 2890 
Q 106 2928 131 2950 
Q 156 2972 212 2980 
Q 269 2988 363 2988 
Q 456 2988 509 2983 
Q 563 2978 594 2965 
Q 625 2953 639 2929 
Q 653 2906 669 2866 
L 1472 609 
L 1481 609 
L 2256 2878 
Q 2275 2938 2301 2955 
Q 2328 2972 2381 2980 
Q 2434 2988 2534 2988 
Q 2622 2988 2678 2980 
Q 2734 2972 2761 2950 
Q 2788 2928 2788 2890 
Q 2788 2853 2769 2797 
L 1759 0 
z
" transform="scale(0.015625)"/>
      <path id="Calibri-49" d="M 1075 81 
Q 1075 56 1062 37 
Q 1050 19 1019 8 
Q 988 -3 936 -11 
Q 884 -19 806 -19 
Q 731 -19 678 -11 
Q 625 -3 594 8 
Q 563 19 550 37 
Q 538 56 538 81 
L 538 3963 
Q 538 3988 552 4006 
Q 566 4025 598 4036 
Q 631 4047 682 4055 
Q 734 4063 806 4063 
Q 884 4063 936 4055 
Q 988 4047 1019 4036 
Q 1050 4025 1062 4006 
Q 1075 3988 1075 3963 
L 1075 81 
z
" transform="scale(0.015625)"/>
      <path id="Calibri-4f" d="M 3925 2069 
Q 3925 1578 3809 1184 
Q 3694 791 3464 514 
Q 3234 238 2887 89 
Q 2541 -59 2078 -59 
Q 1622 -59 1289 77 
Q 956 213 739 472 
Q 522 731 415 1115 
Q 309 1500 309 2000 
Q 309 2478 425 2868 
Q 541 3259 772 3532 
Q 1003 3806 1350 3954 
Q 1697 4103 2159 4103 
Q 2606 4103 2937 3968 
Q 3269 3834 3489 3576 
Q 3709 3319 3817 2939 
Q 3925 2559 3925 2069 
z
M 3359 2031 
Q 3359 2375 3298 2670 
Q 3238 2966 3095 3183 
Q 2953 3400 2715 3522 
Q 2478 3644 2128 3644 
Q 1778 3644 1540 3512 
Q 1303 3381 1154 3162 
Q 1006 2944 942 2651 
Q 878 2359 878 2038 
Q 878 1681 937 1381 
Q 997 1081 1137 864 
Q 1278 647 1514 526 
Q 1750 406 2106 406 
Q 2459 406 2700 537 
Q 2941 669 3087 892 
Q 3234 1116 3296 1409 
Q 3359 1703 3359 2031 
z
" transform="scale(0.015625)"/>
      <path id="Calibri-76" d="M 2784 2897 
Q 2784 2884 2782 2870 
Q 2781 2856 2778 2840 
Q 2775 2825 2770 2806 
Q 2766 2788 2759 2766 
L 1800 94 
Q 1788 59 1767 37 
Q 1747 16 1706 3 
Q 1666 -9 1603 -14 
Q 1541 -19 1447 -19 
Q 1353 -19 1290 -12 
Q 1228 -6 1189 6 
Q 1150 19 1128 41 
Q 1106 63 1094 94 
L 138 2766 
Q 125 2803 117 2831 
Q 109 2859 107 2873 
Q 106 2888 106 2897 
Q 106 2922 118 2940 
Q 131 2959 161 2970 
Q 191 2981 239 2984 
Q 288 2988 359 2988 
Q 450 2988 504 2983 
Q 559 2978 589 2965 
Q 619 2953 633 2934 
Q 647 2916 659 2888 
L 1453 569 
L 1466 531 
L 1475 569 
L 2259 2888 
Q 2266 2916 2281 2934 
Q 2297 2953 2326 2965 
Q 2356 2978 2407 2983 
Q 2459 2988 2544 2988 
Q 2616 2988 2662 2984 
Q 2709 2981 2736 2968 
Q 2763 2956 2773 2939 
Q 2784 2922 2784 2897 
z
" transform="scale(0.015625)"/>
      <path id="Calibri-54" d="M 3072 3813 
Q 3072 3753 3065 3709 
Q 3059 3666 3045 3639 
Q 3031 3613 3011 3600 
Q 2991 3588 2966 3588 
L 1828 3588 
L 1828 81 
Q 1828 56 1815 37 
Q 1803 19 1772 8 
Q 1741 -3 1689 -11 
Q 1638 -19 1559 -19 
Q 1484 -19 1431 -11 
Q 1378 -3 1347 8 
Q 1316 19 1303 37 
Q 1291 56 1291 81 
L 1291 3588 
L 153 3588 
Q 128 3588 108 3600 
Q 88 3613 75 3639 
Q 63 3666 55 3709 
Q 47 3753 47 3813 
Q 47 3872 55 3917 
Q 63 3963 75 3991 
Q 88 4019 108 4031 
Q 128 4044 153 4044 
L 2966 4044 
Q 2991 4044 3011 4031 
Q 3031 4019 3045 3991 
Q 3059 3963 3065 3917 
Q 3072 3872 3072 3813 
z
" transform="scale(0.015625)"/>
     </defs>
     <use xlink:href="#Calibri-45"/>
     <use xlink:href="#Calibri-64" x="47.328125"/>
     <use xlink:href="#Calibri-75" x="99.867188"/>
     <use xlink:href="#Calibri-63" x="152.40625"/>
     <use xlink:href="#Calibri-61" x="194.691406"/>
     <use xlink:href="#Calibri-74" x="242.591797"/>
     <use xlink:href="#Calibri-69" x="276.087891"/>
     <use xlink:href="#Calibri-6f" x="299.037109"/>
     <use xlink:href="#Calibri-6e" x="351.771484"/>
     <use xlink:href="#Calibri-61" x="404.310547"/>
     <use xlink:href="#Calibri-6c" x="452.210938"/>
     <use xlink:href="#Calibri-20" x="475.160156"/>
     <use xlink:href="#Calibri-41" x="497.767578"/>
     <use xlink:href="#Calibri-77" x="555.628906"/>
     <use xlink:href="#Calibri-61" x="627.113281"/>
     <use xlink:href="#Calibri-72" x="675.013672"/>
     <use xlink:href="#Calibri-64" x="709.876953"/>
     <use xlink:href="#Calibri-73" x="762.416016"/>
     <use xlink:href="#Calibri-20" x="801.527344"/>
     <use xlink:href="#Calibri-66" x="824.134766"/>
     <use xlink:href="#Calibri-72" x="854.652344"/>
     <use xlink:href="#Calibri-6f" x="889.515625"/>
     <use xlink:href="#Calibri-6d" x="942.25"/>
     <use xlink:href="#Calibri-20" x="1022.132812"/>
     <use xlink:href="#Calibri-53" x="1044.740234"/>
     <use xlink:href="#Calibri-75" x="1090.6875"/>
     <use xlink:href="#Calibri-6d" x="1143.226562"/>
     <use xlink:href="#Calibri-6e" x="1223.109375"/>
     <use xlink:href="#Calibri-65" x="1275.648438"/>
     <use xlink:href="#Calibri-72" x="1325.404297"/>
     <use xlink:href="#Calibri-20" x="1360.267578"/>
     <use xlink:href="#Calibri-43" x="1382.875"/>
     <use xlink:href="#Calibri-6f" x="1436.195312"/>
     <use xlink:href="#Calibri-75" x="1488.929688"/>
     <use xlink:href="#Calibri-6e" x="1541.46875"/>
     <use xlink:href="#Calibri-74" x="1594.007812"/>
     <use xlink:href="#Calibri-79" x="1627.503906"/>
     <use xlink:href="#Calibri-20" x="1672.767578"/>
     <use xlink:href="#Calibri-49" x="1695.375"/>
     <use xlink:href="#Calibri-6e" x="1720.570312"/>
     <use xlink:href="#Calibri-73" x="1773.109375"/>
     <use xlink:href="#Calibri-74" x="1812.220703"/>
     <use xlink:href="#Calibri-69" x="1845.716797"/>
     <use xlink:href="#Calibri-74" x="1868.666016"/>
     <use xlink:href="#Calibri-75" x="1902.162109"/>
     <use xlink:href="#Calibri-74" x="1954.701172"/>
     <use xlink:href="#Calibri-69" x="1988.197266"/>
     <use xlink:href="#Calibri-6f" x="2011.146484"/>
     <use xlink:href="#Calibri-6e" x="2063.880859"/>
     <use xlink:href="#Calibri-73" x="2116.419922"/>
     <use xlink:href="#Calibri-20" x="2155.53125"/>
     <use xlink:href="#Calibri-4f" x="2178.138672"/>
     <use xlink:href="#Calibri-76" x="2244.349609"/>
     <use xlink:href="#Calibri-65" x="2289.515625"/>
     <use xlink:href="#Calibri-72" x="2339.271484"/>
     <use xlink:href="#Calibri-20" x="2374.134766"/>
     <use xlink:href="#Calibri-54" x="2396.742188"/>
     <use xlink:href="#Calibri-69" x="2445.472656"/>
     <use xlink:href="#Calibri-6d" x="2468.421875"/>
     <use xlink:href="#Calibri-65" x="2548.304688"/>
    </g>
   </g>
   <g id="legend_1">
    <g id="line2d_18">
     <path d="M 579.652511 53.254687 
L 590.652511 53.254687 
L 601.652511 53.254687 
" style="fill: none; stroke: #d0dd28; stroke-width: 1.5; stroke-linecap: square"/>
     <g>
      <use xlink:href="#m1ee8b7c6f0" x="590.652511" y="53.254687" style="fill: #d0dd28; stroke: #d0dd28"/>
     </g>
    </g>
    <g id="text_15">
     <!-- All Award Levels -->
     <g style="fill: #00263e" transform="translate(610.452511 57.104687)scale(0.11 -0.11)">
      <defs>
       <path id="Calibri-4c" d="M 2634 234 
Q 2634 172 2628 130 
Q 2622 88 2608 58 
Q 2594 28 2573 14 
Q 2553 0 2525 0 
L 738 0 
Q 666 0 602 48 
Q 538 97 538 219 
L 538 3963 
Q 538 3988 550 4006 
Q 563 4025 594 4036 
Q 625 4047 678 4055 
Q 731 4063 806 4063 
Q 884 4063 936 4055 
Q 988 4047 1019 4036 
Q 1050 4025 1062 4006 
Q 1075 3988 1075 3963 
L 1075 466 
L 2525 466 
Q 2553 466 2573 452 
Q 2594 438 2608 411 
Q 2622 384 2628 340 
Q 2634 297 2634 234 
z
" transform="scale(0.015625)"/>
      </defs>
      <use xlink:href="#Calibri-41"/>
      <use xlink:href="#Calibri-6c" x="57.861328"/>
      <use xlink:href="#Calibri-6c" x="80.810547"/>
      <use xlink:href="#Calibri-20" x="103.759766"/>
      <use xlink:href="#Calibri-41" x="126.367188"/>
      <use xlink:href="#Calibri-77" x="184.228516"/>
      <use xlink:href="#Calibri-61" x="255.712891"/>
      <use xlink:href="#Calibri-72" x="303.613281"/>
      <use xlink:href="#Calibri-64" x="338.476562"/>
      <use xlink:href="#Calibri-20" x="391.015625"/>
      <use xlink:href="#Calibri-4c" x="413.623047"/>
      <use xlink:href="#Calibri-65" x="455.664062"/>
      <use xlink:href="#Calibri-76" x="505.419922"/>
      <use xlink:href="#Calibri-65" x="550.585938"/>
      <use xlink:href="#Calibri-6c" x="600.341797"/>
      <use xlink:href="#Calibri-73" x="623.291016"/>
     </g>
    </g>
    <g id="line2d_19">
     <path d="M 579.652511 68.410625 
L 590.652511 68.410625 
L 601.652511 68.410625 
" style="fill: none; stroke: #d6d0d3; stroke-width: 1.5; stroke-linecap: square"/>
     <g>
      <use xlink:href="#mdcf3831faf" x="590.652511" y="68.410625" style="fill: #d6d0d3; stroke: #d6d0d3"/>
     </g>
    </g>
    <g id="text_16">
     <!-- Master's or Above -->
     <g style="fill: #00263e" transform="translate(610.452511 72.260625)scale(0.11 -0.11)">
      <defs>
       <path id="Calibri-4d" d="M 4934 81 
Q 4934 56 4921 37 
Q 4909 19 4878 8 
Q 4847 -3 4798 -11 
Q 4750 -19 4672 -19 
Q 4600 -19 4548 -11 
Q 4497 -3 4467 8 
Q 4438 19 4425 37 
Q 4413 56 4413 81 
L 4413 3603 
L 4406 3603 
L 2966 66 
Q 2956 44 2939 28 
Q 2922 13 2889 2 
Q 2856 -9 2811 -14 
Q 2766 -19 2703 -19 
Q 2638 -19 2591 -12 
Q 2544 -6 2512 5 
Q 2481 16 2464 31 
Q 2447 47 2441 66 
L 1063 3603 
L 1059 3603 
L 1059 81 
Q 1059 56 1046 37 
Q 1034 19 1003 8 
Q 972 -3 922 -11 
Q 872 -19 794 -19 
Q 719 -19 669 -11 
Q 619 -3 589 8 
Q 559 19 548 37 
Q 538 56 538 81 
L 538 3800 
Q 538 3931 606 3987 
Q 675 4044 759 4044 
L 1084 4044 
Q 1184 4044 1259 4025 
Q 1334 4006 1390 3965 
Q 1447 3925 1484 3862 
Q 1522 3800 1550 3716 
L 2722 788 
L 2738 788 
L 3956 3706 
Q 3991 3800 4031 3865 
Q 4072 3931 4120 3970 
Q 4169 4009 4228 4026 
Q 4288 4044 4366 4044 
L 4706 4044 
Q 4753 4044 4795 4030 
Q 4838 4016 4867 3986 
Q 4897 3956 4915 3911 
Q 4934 3866 4934 3800 
L 4934 81 
z
" transform="scale(0.015625)"/>
       <path id="Calibri-27" d="M 906 2819 
Q 906 2794 895 2775 
Q 884 2756 861 2743 
Q 838 2731 800 2725 
Q 763 2719 706 2719 
Q 650 2719 611 2725 
Q 572 2731 550 2743 
Q 528 2756 517 2775 
Q 506 2794 506 2819 
L 434 4266 
Q 434 4291 450 4309 
Q 466 4328 498 4340 
Q 531 4353 582 4359 
Q 634 4366 706 4366 
Q 781 4366 832 4361 
Q 884 4356 917 4342 
Q 950 4328 964 4309 
Q 978 4291 975 4266 
L 906 2819 
z
" transform="scale(0.015625)"/>
       <path id="Calibri-62" d="M 3066 1522 
Q 3066 1156 2986 864 
Q 2906 572 2751 365 
Q 2597 159 2372 50 
Q 2147 -59 1856 -59 
Q 1722 -59 1608 -32 
Q 1494 -6 1384 53 
Q 1275 113 1165 203 
Q 1056 294 934 422 
L 934 78 
Q 934 53 921 34 
Q 909 16 881 5 
Q 853 -6 811 -12 
Q 769 -19 703 -19 
Q 641 -19 597 -12 
Q 553 -6 525 5 
Q 497 16 487 34 
Q 478 53 478 78 
L 478 4253 
Q 478 4278 489 4297 
Q 500 4316 529 4328 
Q 559 4341 609 4347 
Q 659 4353 734 4353 
Q 813 4353 863 4347 
Q 913 4341 941 4328 
Q 969 4316 981 4297 
Q 994 4278 994 4253 
L 994 2569 
Q 1119 2697 1236 2784 
Q 1353 2872 1465 2926 
Q 1578 2981 1690 3006 
Q 1803 3031 1928 3031 
Q 2234 3031 2451 2909 
Q 2669 2788 2805 2583 
Q 2941 2378 3003 2103 
Q 3066 1828 3066 1522 
z
M 2522 1463 
Q 2522 1678 2489 1881 
Q 2456 2084 2375 2240 
Q 2294 2397 2159 2492 
Q 2025 2588 1825 2588 
Q 1725 2588 1628 2559 
Q 1531 2531 1431 2465 
Q 1331 2400 1223 2297 
Q 1116 2194 994 2038 
L 994 916 
Q 1206 656 1400 520 
Q 1594 384 1803 384 
Q 1997 384 2134 478 
Q 2272 572 2358 726 
Q 2444 881 2483 1073 
Q 2522 1266 2522 1463 
z
" transform="scale(0.015625)"/>
      </defs>
      <use xlink:href="#Calibri-4d"/>
      <use xlink:href="#Calibri-61" x="85.498047"/>
      <use xlink:href="#Calibri-73" x="133.398438"/>
      <use xlink:href="#Calibri-74" x="172.509766"/>
      <use xlink:href="#Calibri-65" x="206.005859"/>
      <use xlink:href="#Calibri-72" x="255.761719"/>
      <use xlink:href="#Calibri-27" x="290.625"/>
      <use xlink:href="#Calibri-73" x="312.695312"/>
      <use xlink:href="#Calibri-20" x="351.806641"/>
      <use xlink:href="#Calibri-6f" x="374.414062"/>
      <use xlink:href="#Calibri-72" x="427.148438"/>
      <use xlink:href="#Calibri-20" x="462.011719"/>
      <use xlink:href="#Calibri-41" x="484.619141"/>
      <use xlink:href="#Calibri-62" x="542.480469"/>
      <use xlink:href="#Calibri-6f" x="595.019531"/>
      <use xlink:href="#Calibri-76" x="647.753906"/>
      <use xlink:href="#Calibri-65" x="692.919922"/>
     </g>
    </g>
    <g id="line2d_20">
     <path d="M 579.652511 83.566562 
L 590.652511 83.566562 
L 601.652511 83.566562 
" style="fill: none; stroke: #696466; stroke-width: 1.5; stroke-linecap: square"/>
     <g>
      <use xlink:href="#m9781820f23" x="590.652511" y="83.566562" style="fill: #696466; stroke: #696466"/>
     </g>
    </g>
    <g id="text_17">
     <!-- Bachelor's -->
     <g style="fill: #00263e" transform="translate(610.452511 87.416562)scale(0.11 -0.11)">
      <defs>
       <path id="Calibri-42" d="M 3203 1159 
Q 3203 969 3154 808 
Q 3106 647 3018 519 
Q 2931 391 2807 294 
Q 2684 197 2529 131 
Q 2375 66 2198 33 
Q 2022 0 1794 0 
L 738 0 
Q 666 0 602 48 
Q 538 97 538 219 
L 538 3825 
Q 538 3947 602 3995 
Q 666 4044 738 4044 
L 1656 4044 
Q 2019 4044 2250 3975 
Q 2481 3906 2636 3775 
Q 2791 3644 2869 3453 
Q 2947 3263 2947 3022 
Q 2947 2878 2912 2747 
Q 2878 2616 2811 2505 
Q 2744 2394 2642 2306 
Q 2541 2219 2409 2163 
Q 2575 2131 2719 2048 
Q 2863 1966 2970 1837 
Q 3078 1709 3140 1537 
Q 3203 1366 3203 1159 
z
M 2394 2969 
Q 2394 3116 2353 3234 
Q 2313 3353 2225 3436 
Q 2138 3519 1997 3562 
Q 1856 3606 1625 3606 
L 1069 3606 
L 1069 2297 
L 1681 2297 
Q 1891 2297 2019 2351 
Q 2147 2406 2231 2498 
Q 2316 2591 2355 2714 
Q 2394 2838 2394 2969 
z
M 2638 1128 
Q 2638 1309 2580 1446 
Q 2522 1584 2411 1678 
Q 2300 1772 2133 1820 
Q 1966 1869 1713 1869 
L 1069 1869 
L 1069 444 
L 1850 444 
Q 2034 444 2171 487 
Q 2309 531 2414 617 
Q 2519 703 2578 831 
Q 2638 959 2638 1128 
z
" transform="scale(0.015625)"/>
       <path id="Calibri-68" d="M 2900 78 
Q 2900 53 2887 36 
Q 2875 19 2847 6 
Q 2819 -6 2769 -12 
Q 2719 -19 2644 -19 
Q 2566 -19 2516 -12 
Q 2466 -6 2437 6 
Q 2409 19 2396 36 
Q 2384 53 2384 78 
L 2384 1725 
Q 2384 1966 2346 2112 
Q 2309 2259 2237 2365 
Q 2166 2472 2052 2528 
Q 1938 2584 1788 2584 
Q 1594 2584 1400 2446 
Q 1206 2309 994 2044 
L 994 78 
Q 994 53 981 36 
Q 969 19 941 6 
Q 913 -6 863 -12 
Q 813 -19 734 -19 
Q 659 -19 609 -12 
Q 559 -6 529 6 
Q 500 19 489 36 
Q 478 53 478 78 
L 478 4253 
Q 478 4278 489 4297 
Q 500 4316 529 4328 
Q 559 4341 609 4347 
Q 659 4353 734 4353 
Q 813 4353 863 4347 
Q 913 4341 941 4328 
Q 969 4316 981 4297 
Q 994 4278 994 4253 
L 994 2569 
Q 1216 2803 1441 2917 
Q 1666 3031 1894 3031 
Q 2175 3031 2367 2936 
Q 2559 2841 2678 2681 
Q 2797 2522 2848 2308 
Q 2900 2094 2900 1791 
L 2900 78 
z
" transform="scale(0.015625)"/>
      </defs>
      <use xlink:href="#Calibri-42"/>
      <use xlink:href="#Calibri-61" x="54.394531"/>
      <use xlink:href="#Calibri-63" x="102.294922"/>
      <use xlink:href="#Calibri-68" x="144.580078"/>
      <use xlink:href="#Calibri-65" x="197.119141"/>
      <use xlink:href="#Calibri-6c" x="246.875"/>
      <use xlink:href="#Calibri-6f" x="269.824219"/>
      <use xlink:href="#Calibri-72" x="322.558594"/>
      <use xlink:href="#Calibri-27" x="357.421875"/>
      <use xlink:href="#Calibri-73" x="379.492188"/>
     </g>
    </g>
    <g id="line2d_21">
     <path d="M 579.652511 98.7225 
L 590.652511 98.7225 
L 601.652511 98.7225 
" style="fill: none; stroke: #62a67f; stroke-width: 1.5; stroke-linecap: square"/>
     <g>
      <use xlink:href="#m497965f53b" x="590.652511" y="98.7225" style="fill: #62a67f; stroke: #62a67f"/>
     </g>
    </g>
    <g id="text_18">
     <!-- Associate's -->
     <g style="fill: #00263e" transform="translate(610.452511 102.5725)scale(0.11 -0.11)">
      <use xlink:href="#Calibri-41"/>
      <use xlink:href="#Calibri-73" x="57.861328"/>
      <use xlink:href="#Calibri-73" x="96.972656"/>
      <use xlink:href="#Calibri-6f" x="136.083984"/>
      <use xlink:href="#Calibri-63" x="188.818359"/>
      <use xlink:href="#Calibri-69" x="231.103516"/>
      <use xlink:href="#Calibri-61" x="254.052734"/>
      <use xlink:href="#Calibri-74" x="301.953125"/>
      <use xlink:href="#Calibri-65" x="335.449219"/>
      <use xlink:href="#Calibri-27" x="385.205078"/>
      <use xlink:href="#Calibri-73" x="407.275391"/>
     </g>
    </g>
    <g id="line2d_22">
     <path d="M 579.652511 113.878437 
L 590.652511 113.878437 
L 601.652511 113.878437 
" style="fill: none; stroke: #92c83e; stroke-width: 1.5; stroke-linecap: square"/>
     <g>
      <use xlink:href="#m7e95ac05c8" x="590.652511" y="113.878437" style="fill: #92c83e; stroke: #92c83e"/>
     </g>
    </g>
    <g id="text_19">
     <!-- Certificate &gt; 2 Years -->
     <g style="fill: #00263e" transform="translate(610.452511 117.728437)scale(0.11 -0.11)">
      <defs>
       <path id="Calibri-3e" d="M 2975 1794 
Q 2975 1741 2969 1698 
Q 2963 1656 2953 1625 
Q 2944 1594 2928 1576 
Q 2913 1559 2894 1550 
L 441 313 
Q 406 297 381 295 
Q 356 294 342 316 
Q 328 338 322 383 
Q 316 428 316 500 
Q 316 588 319 641 
Q 322 694 333 726 
Q 344 759 366 778 
Q 388 797 422 813 
L 2438 1803 
L 434 2769 
Q 394 2788 370 2805 
Q 347 2822 334 2856 
Q 322 2891 319 2945 
Q 316 3000 316 3091 
Q 316 3172 322 3217 
Q 328 3263 342 3283 
Q 356 3303 381 3300 
Q 406 3297 441 3278 
L 2903 2038 
Q 2934 2022 2954 1961 
Q 2975 1900 2975 1794 
z
" transform="scale(0.015625)"/>
      </defs>
      <use xlink:href="#Calibri-43"/>
      <use xlink:href="#Calibri-65" x="53.320312"/>
      <use xlink:href="#Calibri-72" x="103.076172"/>
      <use xlink:href="#Calibri-74" x="137.939453"/>
      <use xlink:href="#Calibri-69" x="171.435547"/>
      <use xlink:href="#Calibri-66" x="194.384766"/>
      <use xlink:href="#Calibri-69" x="224.902344"/>
      <use xlink:href="#Calibri-63" x="247.851562"/>
      <use xlink:href="#Calibri-61" x="290.136719"/>
      <use xlink:href="#Calibri-74" x="338.037109"/>
      <use xlink:href="#Calibri-65" x="371.533203"/>
      <use xlink:href="#Calibri-20" x="421.289062"/>
      <use xlink:href="#Calibri-3e" x="443.896484"/>
      <use xlink:href="#Calibri-20" x="493.701172"/>
      <use xlink:href="#Calibri-32" x="516.308594"/>
      <use xlink:href="#Calibri-20" x="566.992188"/>
      <use xlink:href="#Calibri-59" x="589.599609"/>
      <use xlink:href="#Calibri-65" x="638.330078"/>
      <use xlink:href="#Calibri-61" x="688.085938"/>
      <use xlink:href="#Calibri-72" x="735.986328"/>
      <use xlink:href="#Calibri-73" x="770.849609"/>
     </g>
    </g>
    <g id="line2d_23">
     <path d="M 579.652511 129.034375 
L 590.652511 129.034375 
L 601.652511 129.034375 
" style="fill: none; stroke: #0c2428; stroke-width: 1.5; stroke-linecap: square"/>
     <g>
      <use xlink:href="#m43d08a1a2d" x="590.652511" y="129.034375" style="fill: #0c2428; stroke: #0c2428"/>
     </g>
    </g>
    <g id="text_20">
     <!-- Certificate &lt; 2 Years -->
     <g style="fill: #00263e" transform="translate(610.452511 132.884375)scale(0.11 -0.11)">
      <defs>
       <path id="Calibri-3c" d="M 2872 506 
Q 2872 428 2865 379 
Q 2859 331 2843 311 
Q 2828 291 2804 294 
Q 2781 297 2747 316 
L 284 1559 
Q 253 1575 234 1634 
Q 216 1694 216 1806 
Q 216 1856 220 1900 
Q 225 1944 236 1972 
Q 247 2000 261 2020 
Q 275 2041 294 2047 
L 2747 3284 
Q 2819 3319 2845 3281 
Q 2872 3244 2872 3097 
Q 2872 3006 2867 2953 
Q 2863 2900 2852 2867 
Q 2841 2834 2820 2817 
Q 2800 2800 2763 2781 
L 750 1797 
L 2750 828 
Q 2791 806 2814 789 
Q 2838 772 2850 739 
Q 2863 706 2867 651 
Q 2872 597 2872 506 
z
" transform="scale(0.015625)"/>
      </defs>
      <use xlink:href="#Calibri-43"/>
      <use xlink:href="#Calibri-65" x="53.320312"/>
      <use xlink:href="#Calibri-72" x="103.076172"/>
      <use xlink:href="#Calibri-74" x="137.939453"/>
      <use xlink:href="#Calibri-69" x="171.435547"/>
      <use xlink:href="#Calibri-66" x="194.384766"/>
      <use xlink:href="#Calibri-69" x="224.902344"/>
      <use xlink:href="#Calibri-63" x="247.851562"/>
      <use xlink:href="#Calibri-61" x="290.136719"/>
      <use xlink:href="#Calibri-74" x="338.037109"/>
      <use xlink:href="#Calibri-65" x="371.533203"/>
      <use xlink:href="#Calibri-20" x="421.289062"/>
      <use xlink:href="#Calibri-3c" x="443.896484"/>
      <use xlink:href="#Calibri-20" x="493.701172"/>
      <use xlink:href="#Calibri-32" x="516.308594"/>
      <use xlink:href="#Calibri-20" x="566.992188"/>
      <use xlink:href="#Calibri-59" x="589.599609"/>
      <use xlink:href="#Calibri-65" x="638.330078"/>
      <use xlink:href="#Calibri-61" x="688.085938"/>
      <use xlink:href="#Calibri-72" x="735.986328"/>
      <use xlink:href="#Calibri-73" x="770.849609"/>
     </g>
    </g>
   </g>
  </g>
 </g>
 <defs>
  <clipPath id="p886d86135d">
   <rect x="67.900937" y="39.504687" width="506.920781" height="256.844062"/>
  </clipPath>
 </defs>
</svg>
