<?xml version="1.0" encoding="utf-8" standalone="no"?>
<!DOCTYPE svg PUBLIC "-//W3C//DTD SVG 1.1//EN"
  "http://www.w3.org/Graphics/SVG/1.1/DTD/svg11.dtd">
<svg xmlns:xlink="http://www.w3.org/1999/xlink" width="710.64pt" height="350.64pt" viewBox="0 0 710.64 350.64" xmlns="http://www.w3.org/2000/svg" version="1.1">
 <metadata>
  <rdf:RDF xmlns:dc="http://purl.org/dc/elements/1.1/" xmlns:cc="http://creativecommons.org/ns#" xmlns:rdf="http://www.w3.org/1999/02/22-rdf-syntax-ns#">
   <cc:Work>
    <dc:type rdf:resource="http://purl.org/dc/dcmitype/StillImage"/>
    <dc:date>2023-04-27T12:20:07.960645</dc:date>
    <dc:format>image/svg+xml</dc:format>
    <dc:creator>
     <cc:Agent>
      <dc:title>Matplotlib v3.5.2, https://matplotlib.org/</dc:title>
     </cc:Agent>
    </dc:creator>
   </cc:Work>
  </rdf:RDF>
 </metadata>
 <defs>
  <style type="text/css">*{stroke-linejoin: round; stroke-linecap: butt}</style>
 </defs>
 <g id="figure_1">
  <g id="patch_1">
   <path d="M 0 350.64 
L 710.64 350.64 
L 710.64 0 
L 0 0 
L 0 350.64 
z
" style="fill: none"/>
  </g>
  <g id="axes_1">
   <g id="patch_2">
    <path d="M 67.900937 269.662862 
L 703.44 269.662862 
L 703.44 39.442813 
L 67.900937 39.442813 
L 67.900937 269.662862 
z
" style="fill: none"/>
   </g>
   <g id="matplotlib.axis_1">
    <g id="xtick_1">
     <g id="line2d_1">
      <defs>
       <path id="mf3ea8ef9de" d="M 0 0 
L 0 8 
" style="stroke: #7b7e85; stroke-width: 0.8"/>
      </defs>
      <g>
       <use xlink:href="#mf3ea8ef9de" x="96.789077" y="269.662862" style="fill: #7b7e85; stroke: #7b7e85; stroke-width: 0.8"/>
      </g>
     </g>
     <g id="text_1">
      <!-- 2019-Jan -->
      <g style="fill: #7b7e85" transform="translate(66.960992 314.898264)rotate(-45)scale(0.11 -0.11)">
       <defs>
        <path id="Calibri-32" d="M 2888 231 
Q 2888 175 2880 131 
Q 2872 88 2858 58 
Q 2844 28 2820 14 
Q 2797 0 2769 0 
L 534 0 
Q 491 0 458 11 
Q 425 22 401 47 
Q 378 72 367 119 
Q 356 166 356 234 
Q 356 297 361 344 
Q 366 391 381 427 
Q 397 463 420 498 
Q 444 534 481 575 
L 1266 1406 
Q 1538 1694 1702 1922 
Q 1866 2150 1955 2337 
Q 2044 2525 2072 2678 
Q 2100 2831 2100 2966 
Q 2100 3100 2056 3220 
Q 2013 3341 1930 3431 
Q 1847 3522 1722 3575 
Q 1597 3628 1434 3628 
Q 1244 3628 1092 3575 
Q 941 3522 827 3459 
Q 713 3397 636 3344 
Q 559 3291 522 3291 
Q 500 3291 483 3303 
Q 466 3316 455 3344 
Q 444 3372 437 3419 
Q 431 3466 431 3531 
Q 431 3578 434 3612 
Q 438 3647 445 3672 
Q 453 3697 465 3719 
Q 478 3741 515 3773 
Q 553 3806 645 3862 
Q 738 3919 877 3973 
Q 1016 4028 1183 4065 
Q 1350 4103 1534 4103 
Q 1828 4103 2048 4020 
Q 2269 3938 2414 3794 
Q 2559 3650 2631 3459 
Q 2703 3269 2703 3053 
Q 2703 2859 2668 2667 
Q 2634 2475 2523 2251 
Q 2413 2028 2203 1754 
Q 1994 1481 1647 1125 
L 1006 456 
L 2766 456 
Q 2791 456 2814 442 
Q 2838 428 2855 400 
Q 2872 372 2880 330 
Q 2888 288 2888 231 
z
" transform="scale(0.015625)"/>
        <path id="Calibri-30" d="M 3022 2031 
Q 3022 1566 2948 1181 
Q 2875 797 2704 520 
Q 2534 244 2259 92 
Q 1984 -59 1581 -59 
Q 1200 -59 939 77 
Q 678 213 518 477 
Q 359 741 292 1127 
Q 225 1513 225 2013 
Q 225 2475 300 2861 
Q 375 3247 544 3523 
Q 713 3800 988 3951 
Q 1263 4103 1663 4103 
Q 2047 4103 2308 3967 
Q 2569 3831 2728 3567 
Q 2888 3303 2955 2917 
Q 3022 2531 3022 2031 
z
M 2472 1994 
Q 2472 2297 2450 2537 
Q 2428 2778 2386 2962 
Q 2344 3147 2276 3280 
Q 2209 3413 2115 3498 
Q 2022 3584 1901 3623 
Q 1781 3663 1631 3663 
Q 1366 3663 1200 3538 
Q 1034 3413 939 3194 
Q 844 2975 809 2681 
Q 775 2388 775 2050 
Q 775 1597 822 1280 
Q 869 963 970 763 
Q 1072 563 1230 472 
Q 1388 381 1613 381 
Q 1788 381 1920 437 
Q 2053 494 2148 598 
Q 2244 703 2306 850 
Q 2369 997 2406 1175 
Q 2444 1353 2458 1561 
Q 2472 1769 2472 1994 
z
" transform="scale(0.015625)"/>
        <path id="Calibri-31" d="M 2897 213 
Q 2897 153 2887 112 
Q 2878 72 2862 47 
Q 2847 22 2826 11 
Q 2806 0 2784 0 
L 672 0 
Q 650 0 631 11 
Q 613 22 595 47 
Q 578 72 568 112 
Q 559 153 559 213 
Q 559 269 568 309 
Q 578 350 592 376 
Q 606 403 626 417 
Q 647 431 672 431 
L 1516 431 
L 1516 3506 
L 734 3041 
Q 675 3009 639 3003 
Q 603 2997 581 3017 
Q 559 3038 551 3084 
Q 544 3131 544 3203 
Q 544 3256 548 3293 
Q 553 3331 562 3356 
Q 572 3381 589 3400 
Q 606 3419 634 3438 
L 1566 4034 
Q 1578 4044 1597 4050 
Q 1616 4056 1644 4062 
Q 1672 4069 1709 4070 
Q 1747 4072 1803 4072 
Q 1878 4072 1928 4065 
Q 1978 4059 2006 4048 
Q 2034 4038 2043 4020 
Q 2053 4003 2053 3984 
L 2053 431 
L 2784 431 
Q 2809 431 2831 417 
Q 2853 403 2867 376 
Q 2881 350 2889 309 
Q 2897 269 2897 213 
z
" transform="scale(0.015625)"/>
        <path id="Calibri-39" d="M 2919 2181 
Q 2919 1919 2887 1650 
Q 2856 1381 2781 1132 
Q 2706 884 2579 667 
Q 2453 450 2261 287 
Q 2069 125 1805 33 
Q 1541 -59 1191 -59 
Q 1056 -59 929 -42 
Q 803 -25 701 0 
Q 600 25 531 53 
Q 463 81 431 109 
Q 400 138 386 186 
Q 372 234 372 316 
Q 372 384 376 425 
Q 381 466 390 487 
Q 400 509 417 517 
Q 434 525 459 525 
Q 494 525 556 501 
Q 619 478 714 450 
Q 809 422 937 398 
Q 1066 375 1225 375 
Q 1528 375 1745 492 
Q 1963 609 2100 806 
Q 2238 1003 2306 1262 
Q 2375 1522 2381 1809 
Q 2216 1713 1984 1638 
Q 1753 1563 1453 1563 
Q 1116 1563 886 1655 
Q 656 1747 517 1906 
Q 378 2066 317 2284 
Q 256 2503 256 2763 
Q 256 3031 334 3273 
Q 413 3516 578 3700 
Q 744 3884 1000 3993 
Q 1256 4103 1613 4103 
Q 1866 4103 2061 4039 
Q 2256 3975 2400 3854 
Q 2544 3734 2644 3564 
Q 2744 3394 2805 3178 
Q 2866 2963 2892 2711 
Q 2919 2459 2919 2181 
z
M 2372 2241 
Q 2372 2641 2319 2914 
Q 2266 3188 2162 3356 
Q 2059 3525 1909 3600 
Q 1759 3675 1563 3675 
Q 1359 3675 1215 3601 
Q 1072 3528 980 3404 
Q 888 3281 844 3125 
Q 800 2969 800 2803 
Q 800 2619 839 2466 
Q 878 2313 965 2206 
Q 1053 2100 1193 2042 
Q 1334 1984 1541 1984 
Q 1775 1984 1994 2054 
Q 2213 2125 2372 2241 
z
" transform="scale(0.015625)"/>
        <path id="Calibri-2d" d="M 1744 1578 
Q 1744 1456 1716 1409 
Q 1688 1363 1634 1363 
L 328 1363 
Q 272 1363 244 1411 
Q 216 1459 216 1578 
Q 216 1697 244 1744 
Q 272 1791 328 1791 
L 1634 1791 
Q 1659 1791 1679 1781 
Q 1700 1772 1714 1745 
Q 1728 1719 1736 1678 
Q 1744 1638 1744 1578 
z
" transform="scale(0.015625)"/>
        <path id="Calibri-4a" d="M 1513 1019 
Q 1513 778 1469 578 
Q 1425 378 1319 237 
Q 1213 97 1039 20 
Q 866 -56 609 -56 
Q 522 -56 436 -42 
Q 350 -28 278 -4 
Q 206 19 153 45 
Q 100 72 83 90 
Q 66 109 55 128 
Q 44 147 36 173 
Q 28 200 25 239 
Q 22 278 22 334 
Q 22 403 26 448 
Q 31 494 43 520 
Q 56 547 73 558 
Q 91 569 116 569 
Q 141 569 180 545 
Q 219 522 273 494 
Q 328 466 400 442 
Q 472 419 569 419 
Q 675 419 750 445 
Q 825 472 875 544 
Q 925 616 950 742 
Q 975 869 975 1072 
L 975 3966 
Q 975 3988 987 4006 
Q 1000 4025 1031 4037 
Q 1063 4050 1114 4056 
Q 1166 4063 1244 4063 
Q 1319 4063 1372 4056 
Q 1425 4050 1454 4037 
Q 1484 4025 1498 4006 
Q 1513 3988 1513 3966 
L 1513 1019 
z
" transform="scale(0.015625)"/>
        <path id="Calibri-61" d="M 2597 75 
Q 2597 38 2572 19 
Q 2547 0 2503 -9 
Q 2459 -19 2375 -19 
Q 2294 -19 2245 -9 
Q 2197 0 2175 19 
Q 2153 38 2153 75 
L 2153 356 
Q 1969 159 1742 50 
Q 1516 -59 1263 -59 
Q 1041 -59 861 -1 
Q 681 56 554 165 
Q 428 275 358 434 
Q 288 594 288 797 
Q 288 1034 384 1209 
Q 481 1384 662 1500 
Q 844 1616 1106 1673 
Q 1369 1731 1697 1731 
L 2084 1731 
L 2084 1950 
Q 2084 2113 2050 2238 
Q 2016 2363 1939 2445 
Q 1863 2528 1741 2570 
Q 1619 2613 1441 2613 
Q 1250 2613 1098 2567 
Q 947 2522 833 2467 
Q 719 2413 642 2367 
Q 566 2322 528 2322 
Q 503 2322 484 2334 
Q 466 2347 452 2372 
Q 438 2397 431 2436 
Q 425 2475 425 2522 
Q 425 2600 436 2645 
Q 447 2691 489 2731 
Q 531 2772 634 2826 
Q 738 2881 872 2926 
Q 1006 2972 1165 3001 
Q 1325 3031 1488 3031 
Q 1791 3031 2003 2962 
Q 2216 2894 2347 2761 
Q 2478 2628 2537 2431 
Q 2597 2234 2597 1972 
L 2597 75 
z
M 2084 1359 
L 1644 1359 
Q 1431 1359 1275 1323 
Q 1119 1288 1016 1217 
Q 913 1147 864 1048 
Q 816 950 816 822 
Q 816 603 955 473 
Q 1094 344 1344 344 
Q 1547 344 1720 447 
Q 1894 550 2084 763 
L 2084 1359 
z
" transform="scale(0.015625)"/>
        <path id="Calibri-6e" d="M 2900 78 
Q 2900 53 2887 36 
Q 2875 19 2847 6 
Q 2819 -6 2769 -12 
Q 2719 -19 2644 -19 
Q 2566 -19 2516 -12 
Q 2466 -6 2437 6 
Q 2409 19 2396 36 
Q 2384 53 2384 78 
L 2384 1725 
Q 2384 1966 2346 2112 
Q 2309 2259 2237 2365 
Q 2166 2472 2052 2528 
Q 1938 2584 1788 2584 
Q 1594 2584 1400 2446 
Q 1206 2309 994 2044 
L 994 78 
Q 994 53 981 36 
Q 969 19 941 6 
Q 913 -6 863 -12 
Q 813 -19 734 -19 
Q 659 -19 609 -12 
Q 559 -6 529 6 
Q 500 19 489 36 
Q 478 53 478 78 
L 478 2891 
Q 478 2916 487 2933 
Q 497 2950 525 2964 
Q 553 2978 597 2983 
Q 641 2988 713 2988 
Q 781 2988 826 2983 
Q 872 2978 897 2964 
Q 922 2950 933 2933 
Q 944 2916 944 2891 
L 944 2519 
Q 1181 2784 1417 2907 
Q 1653 3031 1894 3031 
Q 2175 3031 2367 2936 
Q 2559 2841 2678 2681 
Q 2797 2522 2848 2308 
Q 2900 2094 2900 1794 
L 2900 78 
z
" transform="scale(0.015625)"/>
       </defs>
       <use xlink:href="#Calibri-32"/>
       <use xlink:href="#Calibri-30" x="50.683594"/>
       <use xlink:href="#Calibri-31" x="101.367188"/>
       <use xlink:href="#Calibri-39" x="152.050781"/>
       <use xlink:href="#Calibri-2d" x="202.734375"/>
       <use xlink:href="#Calibri-4a" x="233.349609"/>
       <use xlink:href="#Calibri-61" x="265.234375"/>
       <use xlink:href="#Calibri-6e" x="313.134766"/>
      </g>
     </g>
    </g>
    <g id="xtick_2">
     <g id="line2d_2">
      <g>
       <use xlink:href="#mf3ea8ef9de" x="134.772021" y="269.662862" style="fill: #7b7e85; stroke: #7b7e85; stroke-width: 0.8"/>
      </g>
     </g>
     <g id="text_2">
      <!-- 2019-Apr -->
      <g style="fill: #7b7e85" transform="translate(103.938851 315.90335)rotate(-45)scale(0.11 -0.11)">
       <defs>
        <path id="Calibri-41" d="M 3566 191 
Q 3591 122 3592 80 
Q 3594 38 3569 16 
Q 3544 -6 3486 -12 
Q 3428 -19 3331 -19 
Q 3234 -19 3176 -14 
Q 3119 -9 3089 2 
Q 3059 13 3045 31 
Q 3031 50 3019 78 
L 2672 1063 
L 991 1063 
L 659 91 
Q 650 63 634 42 
Q 619 22 589 8 
Q 559 -6 504 -12 
Q 450 -19 363 -19 
Q 272 -19 214 -11 
Q 156 -3 132 19 
Q 109 41 111 83 
Q 113 125 138 194 
L 1494 3950 
Q 1506 3984 1526 4006 
Q 1547 4028 1586 4040 
Q 1625 4053 1686 4058 
Q 1747 4063 1841 4063 
Q 1941 4063 2006 4058 
Q 2072 4053 2112 4040 
Q 2153 4028 2175 4004 
Q 2197 3981 2209 3947 
L 3566 191 
z
M 1825 3506 
L 1822 3506 
L 1125 1491 
L 2531 1491 
L 1825 3506 
z
" transform="scale(0.015625)"/>
        <path id="Calibri-70" d="M 3066 1528 
Q 3066 1159 2986 865 
Q 2906 572 2751 367 
Q 2597 163 2369 52 
Q 2141 -59 1847 -59 
Q 1722 -59 1615 -34 
Q 1509 -9 1407 44 
Q 1306 97 1206 178 
Q 1106 259 994 369 
L 994 -1038 
Q 994 -1063 981 -1081 
Q 969 -1100 941 -1112 
Q 913 -1125 863 -1131 
Q 813 -1138 734 -1138 
Q 659 -1138 609 -1131 
Q 559 -1125 529 -1112 
Q 500 -1100 489 -1081 
Q 478 -1063 478 -1038 
L 478 2891 
Q 478 2919 487 2936 
Q 497 2953 525 2965 
Q 553 2978 597 2983 
Q 641 2988 703 2988 
Q 769 2988 811 2983 
Q 853 2978 881 2965 
Q 909 2953 920 2936 
Q 931 2919 931 2891 
L 931 2513 
Q 1059 2644 1178 2741 
Q 1297 2838 1417 2902 
Q 1538 2966 1664 2998 
Q 1791 3031 1931 3031 
Q 2238 3031 2453 2912 
Q 2669 2794 2805 2587 
Q 2941 2381 3003 2107 
Q 3066 1834 3066 1528 
z
M 2522 1469 
Q 2522 1684 2489 1886 
Q 2456 2088 2376 2244 
Q 2297 2400 2162 2494 
Q 2028 2588 1828 2588 
Q 1728 2588 1631 2558 
Q 1534 2528 1434 2464 
Q 1334 2400 1225 2295 
Q 1116 2191 994 2038 
L 994 919 
Q 1206 659 1397 521 
Q 1588 384 1797 384 
Q 1991 384 2130 478 
Q 2269 572 2355 728 
Q 2441 884 2481 1078 
Q 2522 1272 2522 1469 
z
" transform="scale(0.015625)"/>
        <path id="Calibri-72" d="M 2122 2706 
Q 2122 2638 2119 2591 
Q 2116 2544 2106 2517 
Q 2097 2491 2083 2477 
Q 2069 2463 2044 2463 
Q 2019 2463 1983 2477 
Q 1947 2491 1901 2505 
Q 1856 2519 1800 2531 
Q 1744 2544 1678 2544 
Q 1600 2544 1525 2512 
Q 1450 2481 1367 2409 
Q 1284 2338 1193 2219 
Q 1103 2100 994 1928 
L 994 78 
Q 994 53 981 36 
Q 969 19 941 6 
Q 913 -6 863 -12 
Q 813 -19 734 -19 
Q 659 -19 609 -12 
Q 559 -6 529 6 
Q 500 19 489 36 
Q 478 53 478 78 
L 478 2891 
Q 478 2916 487 2933 
Q 497 2950 525 2964 
Q 553 2978 597 2983 
Q 641 2988 713 2988 
Q 781 2988 826 2983 
Q 872 2978 897 2964 
Q 922 2950 933 2933 
Q 944 2916 944 2891 
L 944 2481 
Q 1059 2650 1161 2756 
Q 1263 2863 1353 2923 
Q 1444 2984 1533 3007 
Q 1622 3031 1713 3031 
Q 1753 3031 1804 3026 
Q 1856 3022 1912 3009 
Q 1969 2997 2014 2981 
Q 2059 2966 2078 2950 
Q 2097 2934 2103 2920 
Q 2109 2906 2114 2884 
Q 2119 2863 2120 2820 
Q 2122 2778 2122 2706 
z
" transform="scale(0.015625)"/>
       </defs>
       <use xlink:href="#Calibri-32"/>
       <use xlink:href="#Calibri-30" x="50.683594"/>
       <use xlink:href="#Calibri-31" x="101.367188"/>
       <use xlink:href="#Calibri-39" x="152.050781"/>
       <use xlink:href="#Calibri-2d" x="202.734375"/>
       <use xlink:href="#Calibri-41" x="233.349609"/>
       <use xlink:href="#Calibri-70" x="291.210938"/>
       <use xlink:href="#Calibri-72" x="343.75"/>
      </g>
     </g>
    </g>
    <g id="xtick_3">
     <g id="line2d_3">
      <g>
       <use xlink:href="#mf3ea8ef9de" x="173.176998" y="269.662862" style="fill: #7b7e85; stroke: #7b7e85; stroke-width: 0.8"/>
      </g>
     </g>
     <g id="text_3">
      <!-- 2019-Jul -->
      <g style="fill: #7b7e85" transform="translate(145.289811 312.957366)rotate(-45)scale(0.11 -0.11)">
       <defs>
        <path id="Calibri-75" d="M 2888 78 
Q 2888 53 2877 36 
Q 2866 19 2837 6 
Q 2809 -6 2764 -12 
Q 2719 -19 2653 -19 
Q 2581 -19 2536 -12 
Q 2491 -6 2464 6 
Q 2438 19 2428 36 
Q 2419 53 2419 78 
L 2419 450 
Q 2178 184 1943 62 
Q 1709 -59 1469 -59 
Q 1188 -59 995 34 
Q 803 128 684 289 
Q 566 450 514 664 
Q 463 878 463 1184 
L 463 2891 
Q 463 2916 473 2933 
Q 484 2950 515 2964 
Q 547 2978 597 2983 
Q 647 2988 722 2988 
Q 797 2988 847 2983 
Q 897 2978 926 2964 
Q 956 2950 968 2933 
Q 981 2916 981 2891 
L 981 1253 
Q 981 1006 1017 857 
Q 1053 709 1126 604 
Q 1200 500 1312 442 
Q 1425 384 1575 384 
Q 1769 384 1961 521 
Q 2153 659 2369 925 
L 2369 2891 
Q 2369 2916 2380 2933 
Q 2391 2950 2422 2964 
Q 2453 2978 2501 2983 
Q 2550 2988 2628 2988 
Q 2703 2988 2753 2983 
Q 2803 2978 2831 2964 
Q 2859 2950 2873 2933 
Q 2888 2916 2888 2891 
L 2888 78 
z
" transform="scale(0.015625)"/>
        <path id="Calibri-6c" d="M 994 78 
Q 994 53 981 36 
Q 969 19 941 6 
Q 913 -6 863 -12 
Q 813 -19 734 -19 
Q 659 -19 609 -12 
Q 559 -6 529 6 
Q 500 19 489 36 
Q 478 53 478 78 
L 478 4253 
Q 478 4278 489 4297 
Q 500 4316 529 4328 
Q 559 4341 609 4347 
Q 659 4353 734 4353 
Q 813 4353 863 4347 
Q 913 4341 941 4328 
Q 969 4316 981 4297 
Q 994 4278 994 4253 
L 994 78 
z
" transform="scale(0.015625)"/>
       </defs>
       <use xlink:href="#Calibri-32"/>
       <use xlink:href="#Calibri-30" x="50.683594"/>
       <use xlink:href="#Calibri-31" x="101.367188"/>
       <use xlink:href="#Calibri-39" x="152.050781"/>
       <use xlink:href="#Calibri-2d" x="202.734375"/>
       <use xlink:href="#Calibri-4a" x="233.349609"/>
       <use xlink:href="#Calibri-75" x="265.234375"/>
       <use xlink:href="#Calibri-6c" x="317.773438"/>
      </g>
     </g>
    </g>
    <g id="xtick_4">
     <g id="line2d_4">
      <g>
       <use xlink:href="#mf3ea8ef9de" x="212.004007" y="269.662862" style="fill: #7b7e85; stroke: #7b7e85; stroke-width: 0.8"/>
      </g>
     </g>
     <g id="text_4">
      <!-- 2019-Oct -->
      <g style="fill: #7b7e85" transform="translate(181.424843 315.649344)rotate(-45)scale(0.11 -0.11)">
       <defs>
        <path id="Calibri-4f" d="M 3925 2069 
Q 3925 1578 3809 1184 
Q 3694 791 3464 514 
Q 3234 238 2887 89 
Q 2541 -59 2078 -59 
Q 1622 -59 1289 77 
Q 956 213 739 472 
Q 522 731 415 1115 
Q 309 1500 309 2000 
Q 309 2478 425 2868 
Q 541 3259 772 3532 
Q 1003 3806 1350 3954 
Q 1697 4103 2159 4103 
Q 2606 4103 2937 3968 
Q 3269 3834 3489 3576 
Q 3709 3319 3817 2939 
Q 3925 2559 3925 2069 
z
M 3359 2031 
Q 3359 2375 3298 2670 
Q 3238 2966 3095 3183 
Q 2953 3400 2715 3522 
Q 2478 3644 2128 3644 
Q 1778 3644 1540 3512 
Q 1303 3381 1154 3162 
Q 1006 2944 942 2651 
Q 878 2359 878 2038 
Q 878 1681 937 1381 
Q 997 1081 1137 864 
Q 1278 647 1514 526 
Q 1750 406 2106 406 
Q 2459 406 2700 537 
Q 2941 669 3087 892 
Q 3234 1116 3296 1409 
Q 3359 1703 3359 2031 
z
" transform="scale(0.015625)"/>
        <path id="Calibri-63" d="M 2500 506 
Q 2500 453 2497 414 
Q 2494 375 2486 348 
Q 2478 322 2467 301 
Q 2456 281 2417 242 
Q 2378 203 2284 145 
Q 2191 88 2073 42 
Q 1956 -3 1818 -31 
Q 1681 -59 1534 -59 
Q 1231 -59 997 41 
Q 763 141 605 333 
Q 447 525 364 804 
Q 281 1084 281 1450 
Q 281 1866 382 2164 
Q 484 2463 661 2653 
Q 838 2844 1077 2936 
Q 1316 3028 1594 3028 
Q 1728 3028 1854 3003 
Q 1981 2978 2087 2937 
Q 2194 2897 2276 2844 
Q 2359 2791 2396 2753 
Q 2434 2716 2448 2694 
Q 2463 2672 2472 2642 
Q 2481 2613 2484 2575 
Q 2488 2538 2488 2481 
Q 2488 2359 2459 2311 
Q 2431 2263 2391 2263 
Q 2344 2263 2283 2314 
Q 2222 2366 2128 2428 
Q 2034 2491 1901 2542 
Q 1769 2594 1588 2594 
Q 1216 2594 1017 2308 
Q 819 2022 819 1478 
Q 819 1206 870 1001 
Q 922 797 1022 659 
Q 1122 522 1267 455 
Q 1413 388 1600 388 
Q 1778 388 1912 444 
Q 2047 500 2145 567 
Q 2244 634 2311 689 
Q 2378 744 2416 744 
Q 2438 744 2453 731 
Q 2469 719 2480 689 
Q 2491 659 2495 614 
Q 2500 569 2500 506 
z
" transform="scale(0.015625)"/>
        <path id="Calibri-74" d="M 1941 284 
Q 1941 194 1928 141 
Q 1916 88 1891 63 
Q 1866 38 1816 16 
Q 1766 -6 1702 -20 
Q 1638 -34 1566 -43 
Q 1494 -53 1422 -53 
Q 1203 -53 1047 5 
Q 891 63 791 180 
Q 691 297 645 476 
Q 600 656 600 900 
L 600 2544 
L 206 2544 
Q 159 2544 131 2594 
Q 103 2644 103 2756 
Q 103 2816 111 2856 
Q 119 2897 131 2923 
Q 144 2950 164 2961 
Q 184 2972 209 2972 
L 600 2972 
L 600 3641 
Q 600 3663 611 3681 
Q 622 3700 651 3714 
Q 681 3728 731 3734 
Q 781 3741 856 3741 
Q 934 3741 984 3734 
Q 1034 3728 1062 3714 
Q 1091 3700 1103 3681 
Q 1116 3663 1116 3641 
L 1116 2972 
L 1838 2972 
Q 1863 2972 1881 2961 
Q 1900 2950 1914 2923 
Q 1928 2897 1934 2856 
Q 1941 2816 1941 2756 
Q 1941 2644 1912 2594 
Q 1884 2544 1838 2544 
L 1116 2544 
L 1116 975 
Q 1116 684 1202 536 
Q 1288 388 1509 388 
Q 1581 388 1637 402 
Q 1694 416 1737 431 
Q 1781 447 1812 461 
Q 1844 475 1869 475 
Q 1884 475 1898 467 
Q 1913 459 1920 437 
Q 1928 416 1934 378 
Q 1941 341 1941 284 
z
" transform="scale(0.015625)"/>
       </defs>
       <use xlink:href="#Calibri-32"/>
       <use xlink:href="#Calibri-30" x="50.683594"/>
       <use xlink:href="#Calibri-31" x="101.367188"/>
       <use xlink:href="#Calibri-39" x="152.050781"/>
       <use xlink:href="#Calibri-2d" x="202.734375"/>
       <use xlink:href="#Calibri-4f" x="233.349609"/>
       <use xlink:href="#Calibri-63" x="299.560547"/>
       <use xlink:href="#Calibri-74" x="341.845703"/>
      </g>
     </g>
    </g>
    <g id="xtick_5">
     <g id="line2d_5">
      <g>
       <use xlink:href="#mf3ea8ef9de" x="250.831017" y="269.662862" style="fill: #7b7e85; stroke: #7b7e85; stroke-width: 0.8"/>
      </g>
     </g>
     <g id="text_5">
      <!-- 2020-Jan -->
      <g style="fill: #7b7e85" transform="translate(221.002933 314.898264)rotate(-45)scale(0.11 -0.11)">
       <use xlink:href="#Calibri-32"/>
       <use xlink:href="#Calibri-30" x="50.683594"/>
       <use xlink:href="#Calibri-32" x="101.367188"/>
       <use xlink:href="#Calibri-30" x="152.050781"/>
       <use xlink:href="#Calibri-2d" x="202.734375"/>
       <use xlink:href="#Calibri-4a" x="233.349609"/>
       <use xlink:href="#Calibri-61" x="265.234375"/>
       <use xlink:href="#Calibri-6e" x="313.134766"/>
      </g>
     </g>
    </g>
    <g id="xtick_6">
     <g id="line2d_6">
      <g>
       <use xlink:href="#mf3ea8ef9de" x="289.235994" y="269.662862" style="fill: #7b7e85; stroke: #7b7e85; stroke-width: 0.8"/>
      </g>
     </g>
     <g id="text_6">
      <!-- 2020-Apr -->
      <g style="fill: #7b7e85" transform="translate(258.402824 315.90335)rotate(-45)scale(0.11 -0.11)">
       <use xlink:href="#Calibri-32"/>
       <use xlink:href="#Calibri-30" x="50.683594"/>
       <use xlink:href="#Calibri-32" x="101.367188"/>
       <use xlink:href="#Calibri-30" x="152.050781"/>
       <use xlink:href="#Calibri-2d" x="202.734375"/>
       <use xlink:href="#Calibri-41" x="233.349609"/>
       <use xlink:href="#Calibri-70" x="291.210938"/>
       <use xlink:href="#Calibri-72" x="343.75"/>
      </g>
     </g>
    </g>
    <g id="xtick_7">
     <g id="line2d_7">
      <g>
       <use xlink:href="#mf3ea8ef9de" x="327.640971" y="269.662862" style="fill: #7b7e85; stroke: #7b7e85; stroke-width: 0.8"/>
      </g>
     </g>
     <g id="text_7">
      <!-- 2020-Jul -->
      <g style="fill: #7b7e85" transform="translate(299.753784 312.957366)rotate(-45)scale(0.11 -0.11)">
       <use xlink:href="#Calibri-32"/>
       <use xlink:href="#Calibri-30" x="50.683594"/>
       <use xlink:href="#Calibri-32" x="101.367188"/>
       <use xlink:href="#Calibri-30" x="152.050781"/>
       <use xlink:href="#Calibri-2d" x="202.734375"/>
       <use xlink:href="#Calibri-4a" x="233.349609"/>
       <use xlink:href="#Calibri-75" x="265.234375"/>
       <use xlink:href="#Calibri-6c" x="317.773438"/>
      </g>
     </g>
    </g>
    <g id="xtick_8">
     <g id="line2d_8">
      <g>
       <use xlink:href="#mf3ea8ef9de" x="366.46798" y="269.662862" style="fill: #7b7e85; stroke: #7b7e85; stroke-width: 0.8"/>
      </g>
     </g>
     <g id="text_8">
      <!-- 2020-Oct -->
      <g style="fill: #7b7e85" transform="translate(335.888816 315.649344)rotate(-45)scale(0.11 -0.11)">
       <use xlink:href="#Calibri-32"/>
       <use xlink:href="#Calibri-30" x="50.683594"/>
       <use xlink:href="#Calibri-32" x="101.367188"/>
       <use xlink:href="#Calibri-30" x="152.050781"/>
       <use xlink:href="#Calibri-2d" x="202.734375"/>
       <use xlink:href="#Calibri-4f" x="233.349609"/>
       <use xlink:href="#Calibri-63" x="299.560547"/>
       <use xlink:href="#Calibri-74" x="341.845703"/>
      </g>
     </g>
    </g>
    <g id="xtick_9">
     <g id="line2d_9">
      <g>
       <use xlink:href="#mf3ea8ef9de" x="405.29499" y="269.662862" style="fill: #7b7e85; stroke: #7b7e85; stroke-width: 0.8"/>
      </g>
     </g>
     <g id="text_9">
      <!-- 2021-Jan -->
      <g style="fill: #7b7e85" transform="translate(375.466906 314.898264)rotate(-45)scale(0.11 -0.11)">
       <use xlink:href="#Calibri-32"/>
       <use xlink:href="#Calibri-30" x="50.683594"/>
       <use xlink:href="#Calibri-32" x="101.367188"/>
       <use xlink:href="#Calibri-31" x="152.050781"/>
       <use xlink:href="#Calibri-2d" x="202.734375"/>
       <use xlink:href="#Calibri-4a" x="233.349609"/>
       <use xlink:href="#Calibri-61" x="265.234375"/>
       <use xlink:href="#Calibri-6e" x="313.134766"/>
      </g>
     </g>
    </g>
    <g id="xtick_10">
     <g id="line2d_10">
      <g>
       <use xlink:href="#mf3ea8ef9de" x="443.277934" y="269.662862" style="fill: #7b7e85; stroke: #7b7e85; stroke-width: 0.8"/>
      </g>
     </g>
     <g id="text_10">
      <!-- 2021-Apr -->
      <g style="fill: #7b7e85" transform="translate(412.444764 315.90335)rotate(-45)scale(0.11 -0.11)">
       <use xlink:href="#Calibri-32"/>
       <use xlink:href="#Calibri-30" x="50.683594"/>
       <use xlink:href="#Calibri-32" x="101.367188"/>
       <use xlink:href="#Calibri-31" x="152.050781"/>
       <use xlink:href="#Calibri-2d" x="202.734375"/>
       <use xlink:href="#Calibri-41" x="233.349609"/>
       <use xlink:href="#Calibri-70" x="291.210938"/>
       <use xlink:href="#Calibri-72" x="343.75"/>
      </g>
     </g>
    </g>
    <g id="xtick_11">
     <g id="line2d_11">
      <g>
       <use xlink:href="#mf3ea8ef9de" x="481.682911" y="269.662862" style="fill: #7b7e85; stroke: #7b7e85; stroke-width: 0.8"/>
      </g>
     </g>
     <g id="text_11">
      <!-- 2021-Jul -->
      <g style="fill: #7b7e85" transform="translate(453.795724 312.957366)rotate(-45)scale(0.11 -0.11)">
       <use xlink:href="#Calibri-32"/>
       <use xlink:href="#Calibri-30" x="50.683594"/>
       <use xlink:href="#Calibri-32" x="101.367188"/>
       <use xlink:href="#Calibri-31" x="152.050781"/>
       <use xlink:href="#Calibri-2d" x="202.734375"/>
       <use xlink:href="#Calibri-4a" x="233.349609"/>
       <use xlink:href="#Calibri-75" x="265.234375"/>
       <use xlink:href="#Calibri-6c" x="317.773438"/>
      </g>
     </g>
    </g>
    <g id="xtick_12">
     <g id="line2d_12">
      <g>
       <use xlink:href="#mf3ea8ef9de" x="520.509921" y="269.662862" style="fill: #7b7e85; stroke: #7b7e85; stroke-width: 0.8"/>
      </g>
     </g>
     <g id="text_12">
      <!-- 2021-Oct -->
      <g style="fill: #7b7e85" transform="translate(489.930756 315.649344)rotate(-45)scale(0.11 -0.11)">
       <use xlink:href="#Calibri-32"/>
       <use xlink:href="#Calibri-30" x="50.683594"/>
       <use xlink:href="#Calibri-32" x="101.367188"/>
       <use xlink:href="#Calibri-31" x="152.050781"/>
       <use xlink:href="#Calibri-2d" x="202.734375"/>
       <use xlink:href="#Calibri-4f" x="233.349609"/>
       <use xlink:href="#Calibri-63" x="299.560547"/>
       <use xlink:href="#Calibri-74" x="341.845703"/>
      </g>
     </g>
    </g>
    <g id="xtick_13">
     <g id="line2d_13">
      <g>
       <use xlink:href="#mf3ea8ef9de" x="559.33693" y="269.662862" style="fill: #7b7e85; stroke: #7b7e85; stroke-width: 0.8"/>
      </g>
     </g>
     <g id="text_13">
      <!-- 2022-Jan -->
      <g style="fill: #7b7e85" transform="translate(529.508846 314.898264)rotate(-45)scale(0.11 -0.11)">
       <use xlink:href="#Calibri-32"/>
       <use xlink:href="#Calibri-30" x="50.683594"/>
       <use xlink:href="#Calibri-32" x="101.367188"/>
       <use xlink:href="#Calibri-32" x="152.050781"/>
       <use xlink:href="#Calibri-2d" x="202.734375"/>
       <use xlink:href="#Calibri-4a" x="233.349609"/>
       <use xlink:href="#Calibri-61" x="265.234375"/>
       <use xlink:href="#Calibri-6e" x="313.134766"/>
      </g>
     </g>
    </g>
    <g id="xtick_14">
     <g id="line2d_14">
      <g>
       <use xlink:href="#mf3ea8ef9de" x="597.319874" y="269.662862" style="fill: #7b7e85; stroke: #7b7e85; stroke-width: 0.8"/>
      </g>
     </g>
     <g id="text_14">
      <!-- 2022-Apr -->
      <g style="fill: #7b7e85" transform="translate(566.486704 315.90335)rotate(-45)scale(0.11 -0.11)">
       <use xlink:href="#Calibri-32"/>
       <use xlink:href="#Calibri-30" x="50.683594"/>
       <use xlink:href="#Calibri-32" x="101.367188"/>
       <use xlink:href="#Calibri-32" x="152.050781"/>
       <use xlink:href="#Calibri-2d" x="202.734375"/>
       <use xlink:href="#Calibri-41" x="233.349609"/>
       <use xlink:href="#Calibri-70" x="291.210938"/>
       <use xlink:href="#Calibri-72" x="343.75"/>
      </g>
     </g>
    </g>
    <g id="xtick_15">
     <g id="line2d_15">
      <g>
       <use xlink:href="#mf3ea8ef9de" x="635.724851" y="269.662862" style="fill: #7b7e85; stroke: #7b7e85; stroke-width: 0.8"/>
      </g>
     </g>
     <g id="text_15">
      <!-- 2022-Jul -->
      <g style="fill: #7b7e85" transform="translate(607.837665 312.957366)rotate(-45)scale(0.11 -0.11)">
       <use xlink:href="#Calibri-32"/>
       <use xlink:href="#Calibri-30" x="50.683594"/>
       <use xlink:href="#Calibri-32" x="101.367188"/>
       <use xlink:href="#Calibri-32" x="152.050781"/>
       <use xlink:href="#Calibri-2d" x="202.734375"/>
       <use xlink:href="#Calibri-4a" x="233.349609"/>
       <use xlink:href="#Calibri-75" x="265.234375"/>
       <use xlink:href="#Calibri-6c" x="317.773438"/>
      </g>
     </g>
    </g>
    <g id="xtick_16">
     <g id="line2d_16">
      <g>
       <use xlink:href="#mf3ea8ef9de" x="674.551861" y="269.662862" style="fill: #7b7e85; stroke: #7b7e85; stroke-width: 0.8"/>
      </g>
     </g>
     <g id="text_16">
      <!-- 2022-Oct -->
      <g style="fill: #7b7e85" transform="translate(643.972697 315.649344)rotate(-45)scale(0.11 -0.11)">
       <use xlink:href="#Calibri-32"/>
       <use xlink:href="#Calibri-30" x="50.683594"/>
       <use xlink:href="#Calibri-32" x="101.367188"/>
       <use xlink:href="#Calibri-32" x="152.050781"/>
       <use xlink:href="#Calibri-2d" x="202.734375"/>
       <use xlink:href="#Calibri-4f" x="233.349609"/>
       <use xlink:href="#Calibri-63" x="299.560547"/>
       <use xlink:href="#Calibri-74" x="341.845703"/>
      </g>
     </g>
    </g>
    <g id="xtick_17">
     <g id="line2d_17">
      <defs>
       <path id="m2f52fbaff4" d="M 0 0 
L 0 4 
" style="stroke: #7b7e85; stroke-width: 0.6"/>
      </defs>
      <g>
       <use xlink:href="#m2f52fbaff4" x="71.045081" y="269.662862" style="fill: #7b7e85; stroke: #7b7e85; stroke-width: 0.6"/>
      </g>
     </g>
    </g>
    <g id="xtick_18">
     <g id="line2d_18">
      <g>
       <use xlink:href="#m2f52fbaff4" x="83.706063" y="269.662862" style="fill: #7b7e85; stroke: #7b7e85; stroke-width: 0.6"/>
      </g>
     </g>
    </g>
    <g id="xtick_19">
     <g id="line2d_19">
      <g>
       <use xlink:href="#m2f52fbaff4" x="109.872091" y="269.662862" style="fill: #7b7e85; stroke: #7b7e85; stroke-width: 0.6"/>
      </g>
     </g>
    </g>
    <g id="xtick_20">
     <g id="line2d_20">
      <g>
       <use xlink:href="#m2f52fbaff4" x="121.689007" y="269.662862" style="fill: #7b7e85; stroke: #7b7e85; stroke-width: 0.6"/>
      </g>
     </g>
    </g>
    <g id="xtick_21">
     <g id="line2d_21">
      <g>
       <use xlink:href="#m2f52fbaff4" x="147.433002" y="269.662862" style="fill: #7b7e85; stroke: #7b7e85; stroke-width: 0.6"/>
      </g>
     </g>
    </g>
    <g id="xtick_22">
     <g id="line2d_22">
      <g>
       <use xlink:href="#m2f52fbaff4" x="160.516016" y="269.662862" style="fill: #7b7e85; stroke: #7b7e85; stroke-width: 0.6"/>
      </g>
     </g>
    </g>
    <g id="xtick_23">
     <g id="line2d_23">
      <g>
       <use xlink:href="#m2f52fbaff4" x="186.260012" y="269.662862" style="fill: #7b7e85; stroke: #7b7e85; stroke-width: 0.6"/>
      </g>
     </g>
    </g>
    <g id="xtick_24">
     <g id="line2d_24">
      <g>
       <use xlink:href="#m2f52fbaff4" x="199.343026" y="269.662862" style="fill: #7b7e85; stroke: #7b7e85; stroke-width: 0.6"/>
      </g>
     </g>
    </g>
    <g id="xtick_25">
     <g id="line2d_25">
      <g>
       <use xlink:href="#m2f52fbaff4" x="225.087021" y="269.662862" style="fill: #7b7e85; stroke: #7b7e85; stroke-width: 0.6"/>
      </g>
     </g>
    </g>
    <g id="xtick_26">
     <g id="line2d_26">
      <g>
       <use xlink:href="#m2f52fbaff4" x="237.748003" y="269.662862" style="fill: #7b7e85; stroke: #7b7e85; stroke-width: 0.6"/>
      </g>
     </g>
    </g>
    <g id="xtick_27">
     <g id="line2d_27">
      <g>
       <use xlink:href="#m2f52fbaff4" x="263.914031" y="269.662862" style="fill: #7b7e85; stroke: #7b7e85; stroke-width: 0.6"/>
      </g>
     </g>
    </g>
    <g id="xtick_28">
     <g id="line2d_28">
      <g>
       <use xlink:href="#m2f52fbaff4" x="276.15298" y="269.662862" style="fill: #7b7e85; stroke: #7b7e85; stroke-width: 0.6"/>
      </g>
     </g>
    </g>
    <g id="xtick_29">
     <g id="line2d_29">
      <g>
       <use xlink:href="#m2f52fbaff4" x="301.896975" y="269.662862" style="fill: #7b7e85; stroke: #7b7e85; stroke-width: 0.6"/>
      </g>
     </g>
    </g>
    <g id="xtick_30">
     <g id="line2d_30">
      <g>
       <use xlink:href="#m2f52fbaff4" x="314.979989" y="269.662862" style="fill: #7b7e85; stroke: #7b7e85; stroke-width: 0.6"/>
      </g>
     </g>
    </g>
    <g id="xtick_31">
     <g id="line2d_31">
      <g>
       <use xlink:href="#m2f52fbaff4" x="340.723985" y="269.662862" style="fill: #7b7e85; stroke: #7b7e85; stroke-width: 0.6"/>
      </g>
     </g>
    </g>
    <g id="xtick_32">
     <g id="line2d_32">
      <g>
       <use xlink:href="#m2f52fbaff4" x="353.806999" y="269.662862" style="fill: #7b7e85; stroke: #7b7e85; stroke-width: 0.6"/>
      </g>
     </g>
    </g>
    <g id="xtick_33">
     <g id="line2d_33">
      <g>
       <use xlink:href="#m2f52fbaff4" x="379.550994" y="269.662862" style="fill: #7b7e85; stroke: #7b7e85; stroke-width: 0.6"/>
      </g>
     </g>
    </g>
    <g id="xtick_34">
     <g id="line2d_34">
      <g>
       <use xlink:href="#m2f52fbaff4" x="392.211976" y="269.662862" style="fill: #7b7e85; stroke: #7b7e85; stroke-width: 0.6"/>
      </g>
     </g>
    </g>
    <g id="xtick_35">
     <g id="line2d_35">
      <g>
       <use xlink:href="#m2f52fbaff4" x="418.378004" y="269.662862" style="fill: #7b7e85; stroke: #7b7e85; stroke-width: 0.6"/>
      </g>
     </g>
    </g>
    <g id="xtick_36">
     <g id="line2d_36">
      <g>
       <use xlink:href="#m2f52fbaff4" x="430.19492" y="269.662862" style="fill: #7b7e85; stroke: #7b7e85; stroke-width: 0.6"/>
      </g>
     </g>
    </g>
    <g id="xtick_37">
     <g id="line2d_37">
      <g>
       <use xlink:href="#m2f52fbaff4" x="455.938915" y="269.662862" style="fill: #7b7e85; stroke: #7b7e85; stroke-width: 0.6"/>
      </g>
     </g>
    </g>
    <g id="xtick_38">
     <g id="line2d_38">
      <g>
       <use xlink:href="#m2f52fbaff4" x="469.02193" y="269.662862" style="fill: #7b7e85; stroke: #7b7e85; stroke-width: 0.6"/>
      </g>
     </g>
    </g>
    <g id="xtick_39">
     <g id="line2d_39">
      <g>
       <use xlink:href="#m2f52fbaff4" x="494.765925" y="269.662862" style="fill: #7b7e85; stroke: #7b7e85; stroke-width: 0.6"/>
      </g>
     </g>
    </g>
    <g id="xtick_40">
     <g id="line2d_40">
      <g>
       <use xlink:href="#m2f52fbaff4" x="507.848939" y="269.662862" style="fill: #7b7e85; stroke: #7b7e85; stroke-width: 0.6"/>
      </g>
     </g>
    </g>
    <g id="xtick_41">
     <g id="line2d_41">
      <g>
       <use xlink:href="#m2f52fbaff4" x="533.592935" y="269.662862" style="fill: #7b7e85; stroke: #7b7e85; stroke-width: 0.6"/>
      </g>
     </g>
    </g>
    <g id="xtick_42">
     <g id="line2d_42">
      <g>
       <use xlink:href="#m2f52fbaff4" x="546.253916" y="269.662862" style="fill: #7b7e85; stroke: #7b7e85; stroke-width: 0.6"/>
      </g>
     </g>
    </g>
    <g id="xtick_43">
     <g id="line2d_43">
      <g>
       <use xlink:href="#m2f52fbaff4" x="572.419944" y="269.662862" style="fill: #7b7e85; stroke: #7b7e85; stroke-width: 0.6"/>
      </g>
     </g>
    </g>
    <g id="xtick_44">
     <g id="line2d_44">
      <g>
       <use xlink:href="#m2f52fbaff4" x="584.23686" y="269.662862" style="fill: #7b7e85; stroke: #7b7e85; stroke-width: 0.6"/>
      </g>
     </g>
    </g>
    <g id="xtick_45">
     <g id="line2d_45">
      <g>
       <use xlink:href="#m2f52fbaff4" x="609.980856" y="269.662862" style="fill: #7b7e85; stroke: #7b7e85; stroke-width: 0.6"/>
      </g>
     </g>
    </g>
    <g id="xtick_46">
     <g id="line2d_46">
      <g>
       <use xlink:href="#m2f52fbaff4" x="623.06387" y="269.662862" style="fill: #7b7e85; stroke: #7b7e85; stroke-width: 0.6"/>
      </g>
     </g>
    </g>
    <g id="xtick_47">
     <g id="line2d_47">
      <g>
       <use xlink:href="#m2f52fbaff4" x="648.807865" y="269.662862" style="fill: #7b7e85; stroke: #7b7e85; stroke-width: 0.6"/>
      </g>
     </g>
    </g>
    <g id="xtick_48">
     <g id="line2d_48">
      <g>
       <use xlink:href="#m2f52fbaff4" x="661.890879" y="269.662862" style="fill: #7b7e85; stroke: #7b7e85; stroke-width: 0.6"/>
      </g>
     </g>
    </g>
    <g id="xtick_49">
     <g id="line2d_49">
      <g>
       <use xlink:href="#m2f52fbaff4" x="687.634875" y="269.662862" style="fill: #7b7e85; stroke: #7b7e85; stroke-width: 0.6"/>
      </g>
     </g>
    </g>
    <g id="xtick_50">
     <g id="line2d_50">
      <g>
       <use xlink:href="#m2f52fbaff4" x="700.295856" y="269.662862" style="fill: #7b7e85; stroke: #7b7e85; stroke-width: 0.6"/>
      </g>
     </g>
    </g>
    <g id="text_17">
     <!-- Year, Quarter -->
     <g style="fill: #00263e" transform="translate(349.951953 341.128437)scale(0.13 -0.13)">
      <defs>
       <path id="Calibri-59" d="M 1828 1572 
L 1828 81 
Q 1828 56 1815 37 
Q 1803 19 1772 8 
Q 1741 -3 1687 -11 
Q 1634 -19 1559 -19 
Q 1481 -19 1429 -11 
Q 1378 -3 1345 8 
Q 1313 19 1300 37 
Q 1288 56 1288 81 
L 1288 1572 
L 144 3853 
Q 109 3925 101 3965 
Q 94 4006 117 4028 
Q 141 4050 202 4056 
Q 263 4063 366 4063 
Q 459 4063 517 4056 
Q 575 4050 609 4039 
Q 644 4028 661 4008 
Q 678 3988 694 3956 
L 1253 2794 
Q 1331 2628 1409 2447 
Q 1488 2266 1569 2081 
L 1575 2081 
Q 1647 2259 1723 2436 
Q 1800 2613 1878 2784 
L 2441 3953 
Q 2450 3984 2467 4006 
Q 2484 4028 2514 4039 
Q 2544 4050 2597 4056 
Q 2650 4063 2731 4063 
Q 2844 4063 2908 4055 
Q 2972 4047 2997 4025 
Q 3022 4003 3014 3962 
Q 3006 3922 2972 3853 
L 1828 1572 
z
" transform="scale(0.015625)"/>
       <path id="Calibri-65" d="M 2878 1606 
Q 2878 1484 2817 1432 
Q 2756 1381 2678 1381 
L 834 1381 
Q 834 1147 881 959 
Q 928 772 1037 637 
Q 1147 503 1322 431 
Q 1497 359 1750 359 
Q 1950 359 2106 392 
Q 2263 425 2377 465 
Q 2491 506 2564 539 
Q 2638 572 2675 572 
Q 2697 572 2714 561 
Q 2731 550 2740 528 
Q 2750 506 2754 467 
Q 2759 428 2759 372 
Q 2759 331 2756 301 
Q 2753 272 2748 248 
Q 2744 225 2733 206 
Q 2722 188 2705 170 
Q 2688 153 2603 114 
Q 2519 75 2384 37 
Q 2250 0 2073 -29 
Q 1897 -59 1697 -59 
Q 1350 -59 1089 37 
Q 828 134 650 325 
Q 472 516 381 803 
Q 291 1091 291 1472 
Q 291 1834 384 2123 
Q 478 2413 654 2614 
Q 831 2816 1081 2923 
Q 1331 3031 1641 3031 
Q 1972 3031 2205 2925 
Q 2438 2819 2588 2639 
Q 2738 2459 2808 2217 
Q 2878 1975 2878 1700 
L 2878 1606 
z
M 2359 1759 
Q 2369 2166 2180 2397 
Q 1991 2628 1619 2628 
Q 1428 2628 1284 2556 
Q 1141 2484 1044 2365 
Q 947 2247 894 2089 
Q 841 1931 834 1759 
L 2359 1759 
z
" transform="scale(0.015625)"/>
       <path id="Calibri-2c" d="M 1159 447 
Q 1159 350 1150 269 
Q 1141 188 1119 116 
Q 1097 44 1061 -26 
Q 1025 -97 972 -175 
L 544 -819 
Q 528 -841 508 -856 
Q 488 -872 458 -884 
Q 428 -897 389 -901 
Q 350 -906 291 -906 
Q 238 -906 202 -901 
Q 166 -897 150 -886 
Q 134 -875 132 -856 
Q 131 -838 144 -813 
L 559 47 
L 559 447 
Q 559 531 576 581 
Q 594 631 631 656 
Q 669 681 725 690 
Q 781 700 863 700 
Q 941 700 997 690 
Q 1053 681 1089 656 
Q 1125 631 1142 581 
Q 1159 531 1159 447 
z
" transform="scale(0.015625)"/>
       <path id="Calibri-20" transform="scale(0.015625)"/>
       <path id="Calibri-51" d="M 4422 -356 
Q 4422 -428 4414 -476 
Q 4406 -525 4390 -551 
Q 4375 -578 4356 -587 
Q 4338 -597 4319 -597 
Q 4256 -597 4117 -545 
Q 3978 -494 3797 -395 
Q 3616 -297 3409 -156 
Q 3203 -16 3009 172 
Q 2856 78 2622 9 
Q 2388 -59 2078 -59 
Q 1622 -59 1289 75 
Q 956 209 739 468 
Q 522 728 415 1114 
Q 309 1500 309 2000 
Q 309 2481 425 2870 
Q 541 3259 772 3532 
Q 1003 3806 1350 3954 
Q 1697 4103 2159 4103 
Q 2594 4103 2923 3968 
Q 3253 3834 3476 3576 
Q 3700 3319 3812 2941 
Q 3925 2563 3925 2072 
Q 3925 1819 3895 1587 
Q 3866 1356 3802 1150 
Q 3738 944 3641 769 
Q 3544 594 3413 453 
Q 3641 266 3812 161 
Q 3984 56 4096 3 
Q 4209 -50 4271 -73 
Q 4334 -97 4365 -126 
Q 4397 -156 4409 -211 
Q 4422 -266 4422 -356 
z
M 3359 2034 
Q 3359 2378 3298 2672 
Q 3238 2966 3095 3183 
Q 2953 3400 2715 3522 
Q 2478 3644 2128 3644 
Q 1778 3644 1540 3514 
Q 1303 3384 1154 3164 
Q 1006 2944 942 2653 
Q 878 2363 878 2038 
Q 878 1681 937 1382 
Q 997 1084 1137 865 
Q 1278 647 1514 526 
Q 1750 406 2106 406 
Q 2459 406 2700 537 
Q 2941 669 3087 892 
Q 3234 1116 3296 1411 
Q 3359 1706 3359 2034 
z
" transform="scale(0.015625)"/>
      </defs>
      <use xlink:href="#Calibri-59"/>
      <use xlink:href="#Calibri-65" x="48.730469"/>
      <use xlink:href="#Calibri-61" x="98.486328"/>
      <use xlink:href="#Calibri-72" x="146.386719"/>
      <use xlink:href="#Calibri-2c" x="181.25"/>
      <use xlink:href="#Calibri-20" x="206.201172"/>
      <use xlink:href="#Calibri-51" x="228.808594"/>
      <use xlink:href="#Calibri-75" x="296.09375"/>
      <use xlink:href="#Calibri-61" x="348.632812"/>
      <use xlink:href="#Calibri-72" x="396.533203"/>
      <use xlink:href="#Calibri-74" x="431.396484"/>
      <use xlink:href="#Calibri-65" x="464.892578"/>
      <use xlink:href="#Calibri-72" x="514.648438"/>
     </g>
    </g>
   </g>
   <g id="matplotlib.axis_2">
    <g id="ytick_1">
     <g id="line2d_51">
      <defs>
       <path id="m249f4badaf" d="M 0 0 
L -6 0 
" style="stroke: #7b7e85; stroke-width: 0.8"/>
      </defs>
      <g>
       <use xlink:href="#m249f4badaf" x="67.900937" y="264.475754" style="fill: #7b7e85; stroke: #7b7e85; stroke-width: 0.8"/>
      </g>
     </g>
     <g id="text_18">
      <!-- 1,300 -->
      <g style="fill: #7b7e85" transform="translate(33.353594 268.216614)scale(0.11 -0.11)">
       <defs>
        <path id="Calibri-33" d="M 2856 1156 
Q 2856 878 2759 654 
Q 2663 431 2481 272 
Q 2300 113 2034 27 
Q 1769 -59 1434 -59 
Q 1231 -59 1054 -26 
Q 878 6 740 51 
Q 603 97 512 145 
Q 422 194 398 216 
Q 375 238 362 259 
Q 350 281 340 312 
Q 331 344 326 389 
Q 322 434 322 500 
Q 322 613 344 656 
Q 366 700 406 700 
Q 434 700 517 650 
Q 600 600 729 542 
Q 859 484 1032 434 
Q 1206 384 1419 384 
Q 1625 384 1781 437 
Q 1938 491 2044 587 
Q 2150 684 2203 817 
Q 2256 950 2256 1106 
Q 2256 1278 2189 1415 
Q 2122 1553 1992 1653 
Q 1863 1753 1673 1806 
Q 1484 1859 1244 1859 
L 859 1859 
Q 834 1859 811 1870 
Q 788 1881 770 1906 
Q 753 1931 742 1972 
Q 731 2013 731 2078 
Q 731 2138 740 2177 
Q 750 2216 767 2239 
Q 784 2263 806 2273 
Q 828 2284 856 2284 
L 1209 2284 
Q 1416 2284 1580 2337 
Q 1744 2391 1858 2491 
Q 1972 2591 2033 2730 
Q 2094 2869 2094 3041 
Q 2094 3166 2053 3280 
Q 2013 3394 1931 3478 
Q 1850 3563 1723 3611 
Q 1597 3659 1431 3659 
Q 1250 3659 1098 3604 
Q 947 3550 828 3487 
Q 709 3425 631 3370 
Q 553 3316 522 3316 
Q 500 3316 483 3323 
Q 466 3331 455 3354 
Q 444 3378 439 3420 
Q 434 3463 434 3531 
Q 434 3578 437 3614 
Q 441 3650 450 3676 
Q 459 3703 471 3725 
Q 484 3747 514 3776 
Q 544 3806 634 3862 
Q 725 3919 858 3973 
Q 991 4028 1164 4065 
Q 1338 4103 1538 4103 
Q 1819 4103 2031 4031 
Q 2244 3959 2386 3828 
Q 2528 3697 2598 3514 
Q 2669 3331 2669 3109 
Q 2669 2919 2619 2755 
Q 2569 2591 2472 2464 
Q 2375 2338 2234 2248 
Q 2094 2159 1909 2125 
L 1909 2119 
Q 2119 2097 2292 2014 
Q 2466 1931 2591 1806 
Q 2716 1681 2786 1514 
Q 2856 1347 2856 1156 
z
" transform="scale(0.015625)"/>
       </defs>
       <use xlink:href="#Calibri-31"/>
       <use xlink:href="#Calibri-2c" x="50.683594"/>
       <use xlink:href="#Calibri-33" x="75.634766"/>
       <use xlink:href="#Calibri-30" x="126.318359"/>
       <use xlink:href="#Calibri-30" x="177.001953"/>
      </g>
     </g>
    </g>
    <g id="ytick_2">
     <g id="line2d_52">
      <g>
       <use xlink:href="#m249f4badaf" x="67.900937" y="224.480954" style="fill: #7b7e85; stroke: #7b7e85; stroke-width: 0.8"/>
      </g>
     </g>
     <g id="text_19">
      <!-- 1,320 -->
      <g style="fill: #7b7e85" transform="translate(33.353594 228.221814)scale(0.11 -0.11)">
       <use xlink:href="#Calibri-31"/>
       <use xlink:href="#Calibri-2c" x="50.683594"/>
       <use xlink:href="#Calibri-33" x="75.634766"/>
       <use xlink:href="#Calibri-32" x="126.318359"/>
       <use xlink:href="#Calibri-30" x="177.001953"/>
      </g>
     </g>
    </g>
    <g id="ytick_3">
     <g id="line2d_53">
      <g>
       <use xlink:href="#m249f4badaf" x="67.900937" y="184.486154" style="fill: #7b7e85; stroke: #7b7e85; stroke-width: 0.8"/>
      </g>
     </g>
     <g id="text_20">
      <!-- 1,340 -->
      <g style="fill: #7b7e85" transform="translate(33.353594 188.227014)scale(0.11 -0.11)">
       <defs>
        <path id="Calibri-34" d="M 3059 1150 
Q 3059 1047 3028 987 
Q 2997 928 2941 928 
L 2484 928 
L 2484 78 
Q 2484 53 2471 36 
Q 2459 19 2428 6 
Q 2397 -6 2347 -12 
Q 2297 -19 2219 -19 
Q 2144 -19 2094 -12 
Q 2044 -6 2014 6 
Q 1984 19 1973 36 
Q 1963 53 1963 78 
L 1963 928 
L 294 928 
Q 256 928 231 937 
Q 206 947 186 972 
Q 166 997 158 1044 
Q 150 1091 150 1166 
Q 150 1225 153 1272 
Q 156 1319 165 1358 
Q 175 1397 190 1433 
Q 206 1469 228 1509 
L 1684 3966 
Q 1700 3991 1729 4009 
Q 1759 4028 1806 4040 
Q 1853 4053 1922 4058 
Q 1991 4063 2084 4063 
Q 2188 4063 2264 4055 
Q 2341 4047 2387 4034 
Q 2434 4022 2459 4001 
Q 2484 3981 2484 3953 
L 2484 1372 
L 2941 1372 
Q 2994 1372 3026 1317 
Q 3059 1263 3059 1150 
z
M 1963 3591 
L 1956 3591 
L 641 1372 
L 1963 1372 
L 1963 3591 
z
" transform="scale(0.015625)"/>
       </defs>
       <use xlink:href="#Calibri-31"/>
       <use xlink:href="#Calibri-2c" x="50.683594"/>
       <use xlink:href="#Calibri-33" x="75.634766"/>
       <use xlink:href="#Calibri-34" x="126.318359"/>
       <use xlink:href="#Calibri-30" x="177.001953"/>
      </g>
     </g>
    </g>
    <g id="ytick_4">
     <g id="line2d_54">
      <g>
       <use xlink:href="#m249f4badaf" x="67.900937" y="144.491354" style="fill: #7b7e85; stroke: #7b7e85; stroke-width: 0.8"/>
      </g>
     </g>
     <g id="text_21">
      <!-- 1,360 -->
      <g style="fill: #7b7e85" transform="translate(33.353594 148.232213)scale(0.11 -0.11)">
       <defs>
        <path id="Calibri-36" d="M 2991 1309 
Q 2991 1044 2909 795 
Q 2828 547 2659 358 
Q 2491 169 2231 55 
Q 1972 -59 1619 -59 
Q 1366 -59 1172 3 
Q 978 66 834 181 
Q 691 297 595 465 
Q 500 634 442 850 
Q 384 1066 359 1322 
Q 334 1578 334 1872 
Q 334 2131 362 2397 
Q 391 2663 462 2909 
Q 534 3156 657 3373 
Q 781 3591 967 3752 
Q 1153 3913 1412 4006 
Q 1672 4100 2016 4100 
Q 2131 4100 2250 4086 
Q 2369 4072 2469 4048 
Q 2569 4025 2637 3997 
Q 2706 3969 2728 3951 
Q 2750 3934 2761 3914 
Q 2772 3894 2778 3870 
Q 2784 3847 2787 3817 
Q 2791 3788 2791 3744 
Q 2791 3688 2789 3647 
Q 2788 3606 2777 3581 
Q 2766 3556 2748 3543 
Q 2731 3531 2703 3531 
Q 2669 3531 2609 3553 
Q 2550 3575 2465 3601 
Q 2381 3628 2261 3650 
Q 2141 3672 1981 3672 
Q 1691 3672 1481 3553 
Q 1272 3434 1139 3234 
Q 1006 3034 942 2770 
Q 878 2506 869 2219 
Q 950 2266 1051 2312 
Q 1153 2359 1273 2396 
Q 1394 2434 1528 2457 
Q 1663 2481 1816 2481 
Q 2144 2481 2369 2392 
Q 2594 2303 2733 2145 
Q 2872 1988 2931 1773 
Q 2991 1559 2991 1309 
z
M 2447 1259 
Q 2447 1441 2411 1589 
Q 2375 1738 2290 1841 
Q 2206 1944 2065 2000 
Q 1925 2056 1719 2056 
Q 1603 2056 1487 2036 
Q 1372 2016 1264 1980 
Q 1156 1944 1057 1895 
Q 959 1847 878 1791 
Q 878 1388 929 1116 
Q 981 844 1079 680 
Q 1178 516 1325 445 
Q 1472 375 1669 375 
Q 1869 375 2016 450 
Q 2163 525 2259 651 
Q 2356 778 2401 936 
Q 2447 1094 2447 1259 
z
" transform="scale(0.015625)"/>
       </defs>
       <use xlink:href="#Calibri-31"/>
       <use xlink:href="#Calibri-2c" x="50.683594"/>
       <use xlink:href="#Calibri-33" x="75.634766"/>
       <use xlink:href="#Calibri-36" x="126.318359"/>
       <use xlink:href="#Calibri-30" x="177.001953"/>
      </g>
     </g>
    </g>
    <g id="ytick_5">
     <g id="line2d_55">
      <g>
       <use xlink:href="#m249f4badaf" x="67.900937" y="104.496554" style="fill: #7b7e85; stroke: #7b7e85; stroke-width: 0.8"/>
      </g>
     </g>
     <g id="text_22">
      <!-- 1,380 -->
      <g style="fill: #7b7e85" transform="translate(33.353594 108.237413)scale(0.11 -0.11)">
       <defs>
        <path id="Calibri-38" d="M 2981 1038 
Q 2981 775 2887 570 
Q 2794 366 2617 225 
Q 2441 84 2181 12 
Q 1922 -59 1588 -59 
Q 1275 -59 1028 6 
Q 781 72 609 200 
Q 438 328 347 515 
Q 256 703 256 944 
Q 256 1134 318 1293 
Q 381 1453 498 1587 
Q 616 1722 787 1839 
Q 959 1956 1175 2063 
Q 988 2159 844 2267 
Q 700 2375 600 2501 
Q 500 2628 448 2772 
Q 397 2916 397 3084 
Q 397 3297 473 3483 
Q 550 3669 704 3806 
Q 859 3944 1098 4023 
Q 1338 4103 1656 4103 
Q 1963 4103 2186 4029 
Q 2409 3956 2554 3829 
Q 2700 3703 2769 3531 
Q 2838 3359 2838 3163 
Q 2838 3003 2786 2856 
Q 2734 2709 2634 2578 
Q 2534 2447 2389 2333 
Q 2244 2219 2056 2119 
Q 2278 2009 2451 1893 
Q 2625 1778 2742 1645 
Q 2859 1513 2920 1364 
Q 2981 1216 2981 1038 
z
M 2306 3113 
Q 2306 3244 2261 3350 
Q 2216 3456 2128 3531 
Q 2041 3606 1911 3645 
Q 1781 3684 1616 3684 
Q 1278 3684 1104 3531 
Q 931 3378 931 3113 
Q 931 2991 973 2886 
Q 1016 2781 1105 2687 
Q 1194 2594 1330 2505 
Q 1466 2416 1653 2319 
Q 1969 2481 2137 2678 
Q 2306 2875 2306 3113 
z
M 2438 981 
Q 2438 1125 2384 1242 
Q 2331 1359 2223 1461 
Q 2116 1563 1955 1658 
Q 1794 1753 1581 1856 
Q 1384 1759 1236 1662 
Q 1088 1566 992 1462 
Q 897 1359 848 1245 
Q 800 1131 800 994 
Q 800 691 1008 525 
Q 1216 359 1628 359 
Q 2028 359 2233 526 
Q 2438 694 2438 981 
z
" transform="scale(0.015625)"/>
       </defs>
       <use xlink:href="#Calibri-31"/>
       <use xlink:href="#Calibri-2c" x="50.683594"/>
       <use xlink:href="#Calibri-33" x="75.634766"/>
       <use xlink:href="#Calibri-38" x="126.318359"/>
       <use xlink:href="#Calibri-30" x="177.001953"/>
      </g>
     </g>
    </g>
    <g id="ytick_6">
     <g id="line2d_56">
      <g>
       <use xlink:href="#m249f4badaf" x="67.900937" y="64.501754" style="fill: #7b7e85; stroke: #7b7e85; stroke-width: 0.8"/>
      </g>
     </g>
     <g id="text_23">
      <!-- 1,400 -->
      <g style="fill: #7b7e85" transform="translate(33.353594 68.242613)scale(0.11 -0.11)">
       <use xlink:href="#Calibri-31"/>
       <use xlink:href="#Calibri-2c" x="50.683594"/>
       <use xlink:href="#Calibri-34" x="75.634766"/>
       <use xlink:href="#Calibri-30" x="126.318359"/>
       <use xlink:href="#Calibri-30" x="177.001953"/>
      </g>
     </g>
    </g>
    <g id="text_24">
     <!-- Employment -->
     <g style="fill: #00263e" transform="translate(16.042031 188.216743)rotate(-90)scale(0.13 -0.13)">
      <defs>
       <path id="Calibri-45" d="M 2788 222 
Q 2788 166 2781 123 
Q 2775 81 2759 53 
Q 2744 25 2723 12 
Q 2703 0 2678 0 
L 738 0 
Q 666 0 602 48 
Q 538 97 538 219 
L 538 3825 
Q 538 3947 602 3995 
Q 666 4044 738 4044 
L 2656 4044 
Q 2681 4044 2701 4031 
Q 2722 4019 2734 3991 
Q 2747 3963 2755 3920 
Q 2763 3878 2763 3816 
Q 2763 3759 2755 3717 
Q 2747 3675 2734 3648 
Q 2722 3622 2701 3609 
Q 2681 3597 2656 3597 
L 1075 3597 
L 1075 2328 
L 2431 2328 
Q 2456 2328 2476 2314 
Q 2497 2300 2511 2275 
Q 2525 2250 2531 2206 
Q 2538 2163 2538 2103 
Q 2538 2047 2531 2006 
Q 2525 1966 2511 1941 
Q 2497 1916 2476 1905 
Q 2456 1894 2431 1894 
L 1075 1894 
L 1075 447 
L 2678 447 
Q 2703 447 2723 434 
Q 2744 422 2759 395 
Q 2775 369 2781 326 
Q 2788 284 2788 222 
z
" transform="scale(0.015625)"/>
       <path id="Calibri-6d" d="M 4650 78 
Q 4650 53 4637 36 
Q 4625 19 4597 6 
Q 4569 -6 4519 -12 
Q 4469 -19 4394 -19 
Q 4316 -19 4266 -12 
Q 4216 -6 4186 6 
Q 4156 19 4143 36 
Q 4131 53 4131 78 
L 4131 1788 
Q 4131 1966 4100 2112 
Q 4069 2259 4000 2365 
Q 3931 2472 3825 2528 
Q 3719 2584 3575 2584 
Q 3397 2584 3217 2446 
Q 3038 2309 2822 2044 
L 2822 78 
Q 2822 53 2809 36 
Q 2797 19 2767 6 
Q 2738 -6 2688 -12 
Q 2638 -19 2563 -19 
Q 2491 -19 2439 -12 
Q 2388 -6 2358 6 
Q 2328 19 2317 36 
Q 2306 53 2306 78 
L 2306 1788 
Q 2306 1966 2272 2112 
Q 2238 2259 2169 2365 
Q 2100 2472 1995 2528 
Q 1891 2584 1747 2584 
Q 1569 2584 1387 2446 
Q 1206 2309 994 2044 
L 994 78 
Q 994 53 981 36 
Q 969 19 941 6 
Q 913 -6 863 -12 
Q 813 -19 734 -19 
Q 659 -19 609 -12 
Q 559 -6 529 6 
Q 500 19 489 36 
Q 478 53 478 78 
L 478 2891 
Q 478 2916 487 2933 
Q 497 2950 525 2964 
Q 553 2978 597 2983 
Q 641 2988 713 2988 
Q 781 2988 826 2983 
Q 872 2978 897 2964 
Q 922 2950 933 2933 
Q 944 2916 944 2891 
L 944 2519 
Q 1181 2784 1404 2907 
Q 1628 3031 1856 3031 
Q 2031 3031 2170 2990 
Q 2309 2950 2415 2876 
Q 2522 2803 2597 2701 
Q 2672 2600 2722 2475 
Q 2863 2628 2989 2734 
Q 3116 2841 3233 2906 
Q 3350 2972 3461 3001 
Q 3572 3031 3684 3031 
Q 3956 3031 4140 2936 
Q 4325 2841 4439 2681 
Q 4553 2522 4601 2308 
Q 4650 2094 4650 1856 
L 4650 78 
z
" transform="scale(0.015625)"/>
       <path id="Calibri-6f" d="M 3094 1516 
Q 3094 1172 3003 883 
Q 2913 594 2733 384 
Q 2553 175 2283 58 
Q 2013 -59 1656 -59 
Q 1309 -59 1051 44 
Q 794 147 622 344 
Q 450 541 365 822 
Q 281 1103 281 1459 
Q 281 1803 370 2092 
Q 459 2381 639 2590 
Q 819 2800 1087 2915 
Q 1356 3031 1716 3031 
Q 2063 3031 2320 2928 
Q 2578 2825 2750 2628 
Q 2922 2431 3008 2150 
Q 3094 1869 3094 1516 
z
M 2550 1481 
Q 2550 1709 2508 1912 
Q 2466 2116 2369 2269 
Q 2272 2422 2106 2511 
Q 1941 2600 1694 2600 
Q 1466 2600 1302 2519 
Q 1138 2438 1031 2289 
Q 925 2141 873 1937 
Q 822 1734 822 1494 
Q 822 1263 864 1059 
Q 906 856 1004 704 
Q 1103 553 1268 464 
Q 1434 375 1681 375 
Q 1906 375 2072 456 
Q 2238 538 2344 684 
Q 2450 831 2500 1034 
Q 2550 1238 2550 1481 
z
" transform="scale(0.015625)"/>
       <path id="Calibri-79" d="M 1759 0 
L 1384 -1034 
Q 1366 -1084 1289 -1111 
Q 1213 -1138 1056 -1138 
Q 975 -1138 925 -1130 
Q 875 -1122 848 -1103 
Q 822 -1084 819 -1053 
Q 816 -1022 834 -978 
L 1222 0 
Q 1194 13 1169 41 
Q 1144 69 1134 100 
L 131 2788 
Q 106 2853 106 2890 
Q 106 2928 131 2950 
Q 156 2972 212 2980 
Q 269 2988 363 2988 
Q 456 2988 509 2983 
Q 563 2978 594 2965 
Q 625 2953 639 2929 
Q 653 2906 669 2866 
L 1472 609 
L 1481 609 
L 2256 2878 
Q 2275 2938 2301 2955 
Q 2328 2972 2381 2980 
Q 2434 2988 2534 2988 
Q 2622 2988 2678 2980 
Q 2734 2972 2761 2950 
Q 2788 2928 2788 2890 
Q 2788 2853 2769 2797 
L 1759 0 
z
" transform="scale(0.015625)"/>
      </defs>
      <use xlink:href="#Calibri-45"/>
      <use xlink:href="#Calibri-6d" x="48.828125"/>
      <use xlink:href="#Calibri-70" x="128.710938"/>
      <use xlink:href="#Calibri-6c" x="181.25"/>
      <use xlink:href="#Calibri-6f" x="204.199219"/>
      <use xlink:href="#Calibri-79" x="256.933594"/>
      <use xlink:href="#Calibri-6d" x="302.197266"/>
      <use xlink:href="#Calibri-65" x="382.080078"/>
      <use xlink:href="#Calibri-6e" x="431.835938"/>
      <use xlink:href="#Calibri-74" x="484.375"/>
     </g>
    </g>
   </g>
   <g id="line2d_57">
    <path d="M 96.789077 259.198314 
L 134.772021 250.867104 
L 173.176998 213.917141 
L 212.004007 180.719495 
L 250.831017 147.134631 
L 289.235994 163.30901 
L 327.640971 172.867976 
L 366.46798 190.700619 
L 405.29499 201.530868 
L 443.277934 162.146914 
L 481.682911 152.560369 
L 520.509921 146.048511 
L 559.33693 130.01918 
L 597.319874 101.006148 
L 635.724851 70.882197 
L 674.551861 49.90736 
" clip-path="url(#p780375b5cf)" style="fill: none; stroke: #d0dd28; stroke-width: 1.5; stroke-linecap: square"/>
    <defs>
     <path id="m0da24f9f78" d="M 0 3 
C 0.795609 3 1.55874 2.683901 2.12132 2.12132 
C 2.683901 1.55874 3 0.795609 3 0 
C 3 -0.795609 2.683901 -1.55874 2.12132 -2.12132 
C 1.55874 -2.683901 0.795609 -3 0 -3 
C -0.795609 -3 -1.55874 -2.683901 -2.12132 -2.12132 
C -2.683901 -1.55874 -3 -0.795609 -3 0 
C -3 0.795609 -2.683901 1.55874 -2.12132 2.12132 
C -1.55874 2.683901 -0.795609 3 0 3 
z
" style="stroke: #d0dd28"/>
    </defs>
    <g clip-path="url(#p780375b5cf)">
     <use xlink:href="#m0da24f9f78" x="96.789077" y="259.198314" style="fill: #d0dd28; stroke: #d0dd28"/>
     <use xlink:href="#m0da24f9f78" x="134.772021" y="250.867104" style="fill: #d0dd28; stroke: #d0dd28"/>
     <use xlink:href="#m0da24f9f78" x="173.176998" y="213.917141" style="fill: #d0dd28; stroke: #d0dd28"/>
     <use xlink:href="#m0da24f9f78" x="212.004007" y="180.719495" style="fill: #d0dd28; stroke: #d0dd28"/>
     <use xlink:href="#m0da24f9f78" x="250.831017" y="147.134631" style="fill: #d0dd28; stroke: #d0dd28"/>
     <use xlink:href="#m0da24f9f78" x="289.235994" y="163.30901" style="fill: #d0dd28; stroke: #d0dd28"/>
     <use xlink:href="#m0da24f9f78" x="327.640971" y="172.867976" style="fill: #d0dd28; stroke: #d0dd28"/>
     <use xlink:href="#m0da24f9f78" x="366.46798" y="190.700619" style="fill: #d0dd28; stroke: #d0dd28"/>
     <use xlink:href="#m0da24f9f78" x="405.29499" y="201.530868" style="fill: #d0dd28; stroke: #d0dd28"/>
     <use xlink:href="#m0da24f9f78" x="443.277934" y="162.146914" style="fill: #d0dd28; stroke: #d0dd28"/>
     <use xlink:href="#m0da24f9f78" x="481.682911" y="152.560369" style="fill: #d0dd28; stroke: #d0dd28"/>
     <use xlink:href="#m0da24f9f78" x="520.509921" y="146.048511" style="fill: #d0dd28; stroke: #d0dd28"/>
     <use xlink:href="#m0da24f9f78" x="559.33693" y="130.01918" style="fill: #d0dd28; stroke: #d0dd28"/>
     <use xlink:href="#m0da24f9f78" x="597.319874" y="101.006148" style="fill: #d0dd28; stroke: #d0dd28"/>
     <use xlink:href="#m0da24f9f78" x="635.724851" y="70.882197" style="fill: #d0dd28; stroke: #d0dd28"/>
     <use xlink:href="#m0da24f9f78" x="674.551861" y="49.90736" style="fill: #d0dd28; stroke: #d0dd28"/>
    </g>
   </g>
   <g id="text_25">
    <!-- Quarterly Employment: COVID-19 Impact -->
    <g style="fill: #00263e" transform="translate(234.864219 19.442813)scale(0.18 -0.18)">
     <defs>
      <path id="Calibri-3a" d="M 1241 2500 
Q 1241 2400 1227 2331 
Q 1213 2263 1173 2220 
Q 1134 2178 1071 2161 
Q 1009 2144 913 2144 
Q 813 2144 750 2161 
Q 688 2178 650 2220 
Q 613 2263 598 2331 
Q 584 2400 584 2500 
Q 584 2606 598 2676 
Q 613 2747 650 2789 
Q 688 2831 750 2848 
Q 813 2866 913 2866 
Q 1009 2866 1071 2848 
Q 1134 2831 1173 2789 
Q 1213 2747 1227 2676 
Q 1241 2606 1241 2500 
z
M 1241 331 
Q 1241 228 1227 159 
Q 1213 91 1173 48 
Q 1134 6 1071 -11 
Q 1009 -28 913 -28 
Q 813 -28 750 -11 
Q 688 6 650 48 
Q 613 91 598 159 
Q 584 228 584 331 
Q 584 434 598 504 
Q 613 575 650 615 
Q 688 656 750 675 
Q 813 694 913 694 
Q 1009 694 1071 675 
Q 1134 656 1173 615 
Q 1213 575 1227 504 
Q 1241 434 1241 331 
z
" transform="scale(0.015625)"/>
      <path id="Calibri-43" d="M 3238 572 
Q 3238 522 3234 484 
Q 3231 447 3223 419 
Q 3216 391 3203 369 
Q 3191 347 3159 315 
Q 3128 284 3028 220 
Q 2928 156 2779 95 
Q 2631 34 2439 -8 
Q 2247 -50 2019 -50 
Q 1625 -50 1308 81 
Q 991 213 767 469 
Q 544 725 423 1101 
Q 303 1478 303 1969 
Q 303 2472 433 2865 
Q 563 3259 797 3532 
Q 1031 3806 1357 3950 
Q 1684 4094 2081 4094 
Q 2256 4094 2422 4061 
Q 2588 4028 2728 3978 
Q 2869 3928 2978 3862 
Q 3088 3797 3130 3755 
Q 3172 3713 3184 3691 
Q 3197 3669 3205 3639 
Q 3213 3609 3217 3568 
Q 3222 3528 3222 3472 
Q 3222 3409 3215 3365 
Q 3209 3322 3196 3292 
Q 3184 3263 3167 3248 
Q 3150 3234 3125 3234 
Q 3081 3234 3003 3295 
Q 2925 3356 2801 3429 
Q 2678 3503 2501 3564 
Q 2325 3625 2078 3625 
Q 1809 3625 1589 3517 
Q 1369 3409 1212 3200 
Q 1056 2991 970 2689 
Q 884 2388 884 2000 
Q 884 1616 967 1320 
Q 1050 1025 1204 826 
Q 1359 628 1584 526 
Q 1809 425 2094 425 
Q 2334 425 2514 484 
Q 2694 544 2820 617 
Q 2947 691 3028 750 
Q 3109 809 3156 809 
Q 3178 809 3193 800 
Q 3209 791 3218 764 
Q 3228 738 3233 691 
Q 3238 644 3238 572 
z
" transform="scale(0.015625)"/>
      <path id="Calibri-56" d="M 2172 94 
Q 2159 59 2137 37 
Q 2116 16 2077 3 
Q 2038 -9 1977 -14 
Q 1916 -19 1825 -19 
Q 1756 -19 1704 -17 
Q 1653 -16 1615 -9 
Q 1578 -3 1551 5 
Q 1525 13 1506 25 
Q 1488 38 1477 55 
Q 1466 72 1456 97 
L 134 3853 
Q 109 3922 107 3964 
Q 106 4006 134 4028 
Q 163 4050 225 4056 
Q 288 4063 394 4063 
Q 481 4063 532 4058 
Q 584 4053 612 4040 
Q 641 4028 655 4008 
Q 669 3988 681 3956 
L 1841 553 
L 1844 553 
L 2972 3950 
Q 2981 3984 2993 4006 
Q 3006 4028 3037 4040 
Q 3069 4053 3125 4058 
Q 3181 4063 3275 4063 
Q 3372 4063 3428 4055 
Q 3484 4047 3504 4025 
Q 3525 4003 3520 3961 
Q 3516 3919 3491 3850 
L 2172 94 
z
" transform="scale(0.015625)"/>
      <path id="Calibri-49" d="M 1075 81 
Q 1075 56 1062 37 
Q 1050 19 1019 8 
Q 988 -3 936 -11 
Q 884 -19 806 -19 
Q 731 -19 678 -11 
Q 625 -3 594 8 
Q 563 19 550 37 
Q 538 56 538 81 
L 538 3963 
Q 538 3988 552 4006 
Q 566 4025 598 4036 
Q 631 4047 682 4055 
Q 734 4063 806 4063 
Q 884 4063 936 4055 
Q 988 4047 1019 4036 
Q 1050 4025 1062 4006 
Q 1075 3988 1075 3963 
L 1075 81 
z
" transform="scale(0.015625)"/>
      <path id="Calibri-44" d="M 3647 2081 
Q 3647 1556 3512 1164 
Q 3378 772 3120 514 
Q 2863 256 2488 128 
Q 2113 0 1594 0 
L 738 0 
Q 666 0 602 48 
Q 538 97 538 219 
L 538 3825 
Q 538 3947 602 3995 
Q 666 4044 738 4044 
L 1653 4044 
Q 2178 4044 2540 3908 
Q 2903 3772 3148 3517 
Q 3394 3263 3520 2900 
Q 3647 2538 3647 2081 
z
M 3081 2059 
Q 3081 2388 3000 2670 
Q 2919 2953 2745 3159 
Q 2572 3366 2306 3481 
Q 2041 3597 1622 3597 
L 1075 3597 
L 1075 450 
L 1628 450 
Q 2016 450 2281 547 
Q 2547 644 2725 844 
Q 2903 1044 2992 1345 
Q 3081 1647 3081 2059 
z
" transform="scale(0.015625)"/>
     </defs>
     <use xlink:href="#Calibri-51"/>
     <use xlink:href="#Calibri-75" x="67.285156"/>
     <use xlink:href="#Calibri-61" x="119.824219"/>
     <use xlink:href="#Calibri-72" x="167.724609"/>
     <use xlink:href="#Calibri-74" x="202.587891"/>
     <use xlink:href="#Calibri-65" x="236.083984"/>
     <use xlink:href="#Calibri-72" x="285.839844"/>
     <use xlink:href="#Calibri-6c" x="320.703125"/>
     <use xlink:href="#Calibri-79" x="343.652344"/>
     <use xlink:href="#Calibri-20" x="388.916016"/>
     <use xlink:href="#Calibri-45" x="411.523438"/>
     <use xlink:href="#Calibri-6d" x="460.351562"/>
     <use xlink:href="#Calibri-70" x="540.234375"/>
     <use xlink:href="#Calibri-6c" x="592.773438"/>
     <use xlink:href="#Calibri-6f" x="615.722656"/>
     <use xlink:href="#Calibri-79" x="668.457031"/>
     <use xlink:href="#Calibri-6d" x="713.720703"/>
     <use xlink:href="#Calibri-65" x="793.603516"/>
     <use xlink:href="#Calibri-6e" x="843.359375"/>
     <use xlink:href="#Calibri-74" x="895.898438"/>
     <use xlink:href="#Calibri-3a" x="929.394531"/>
     <use xlink:href="#Calibri-20" x="956.152344"/>
     <use xlink:href="#Calibri-43" x="978.759766"/>
     <use xlink:href="#Calibri-4f" x="1031.205078"/>
     <use xlink:href="#Calibri-56" x="1096.166016"/>
     <use xlink:href="#Calibri-49" x="1152.904297"/>
     <use xlink:href="#Calibri-44" x="1178.099609"/>
     <use xlink:href="#Calibri-2d" x="1239.623047"/>
     <use xlink:href="#Calibri-31" x="1270.238281"/>
     <use xlink:href="#Calibri-39" x="1320.921875"/>
     <use xlink:href="#Calibri-20" x="1371.605469"/>
     <use xlink:href="#Calibri-49" x="1394.212891"/>
     <use xlink:href="#Calibri-6d" x="1419.408203"/>
     <use xlink:href="#Calibri-70" x="1499.291016"/>
     <use xlink:href="#Calibri-61" x="1551.830078"/>
     <use xlink:href="#Calibri-63" x="1599.730469"/>
     <use xlink:href="#Calibri-74" x="1642.015625"/>
    </g>
   </g>
  </g>
 </g>
 <defs>
  <clipPath id="p780375b5cf">
   <rect x="67.900937" y="39.442813" width="635.539062" height="230.220049"/>
  </clipPath>
 </defs>
</svg>
