<?xml version="1.0" encoding="utf-8" standalone="no"?>
<!DOCTYPE svg PUBLIC "-//W3C//DTD SVG 1.1//EN"
  "http://www.w3.org/Graphics/SVG/1.1/DTD/svg11.dtd">
<svg xmlns:xlink="http://www.w3.org/1999/xlink" width="711.117964pt" height="350.64pt" viewBox="0 0 711.117964 350.64" xmlns="http://www.w3.org/2000/svg" version="1.1">
 <metadata>
  <rdf:RDF xmlns:dc="http://purl.org/dc/elements/1.1/" xmlns:cc="http://creativecommons.org/ns#" xmlns:rdf="http://www.w3.org/1999/02/22-rdf-syntax-ns#">
   <cc:Work>
    <dc:type rdf:resource="http://purl.org/dc/dcmitype/StillImage"/>
    <dc:date>2023-04-27T12:17:06.206488</dc:date>
    <dc:format>image/svg+xml</dc:format>
    <dc:creator>
     <cc:Agent>
      <dc:title>Matplotlib v3.5.2, https://matplotlib.org/</dc:title>
     </cc:Agent>
    </dc:creator>
   </cc:Work>
  </rdf:RDF>
 </metadata>
 <defs>
  <style type="text/css">*{stroke-linejoin: round; stroke-linecap: butt}</style>
 </defs>
 <g id="figure_1">
  <g id="patch_1">
   <path d="M 0 350.64 
L 711.117964 350.64 
L 711.117964 0 
L 0 0 
L 0 350.64 
z
" style="fill: none"/>
  </g>
  <g id="axes_1">
   <g id="patch_2">
    <path d="M 84.627813 296.34875 
L 594.831406 296.34875 
L 594.831406 39.442812 
L 84.627813 39.442812 
L 84.627813 296.34875 
z
" style="fill: none"/>
   </g>
   <g id="matplotlib.axis_1">
    <g id="xtick_1">
     <g id="line2d_1">
      <defs>
       <path id="m24dffe4a8b" d="M 0 0 
L 0 8 
" style="stroke: #7b7e85; stroke-width: 0.8"/>
      </defs>
      <g>
       <use xlink:href="#m24dffe4a8b" x="107.818885" y="296.34875" style="fill: #7b7e85; stroke: #7b7e85; stroke-width: 0.8"/>
      </g>
     </g>
     <g id="text_1">
      <!-- 2000 -->
      <g style="fill: #7b7e85" transform="translate(96.667635 315.330469)scale(0.11 -0.11)">
       <defs>
        <path id="Calibri-32" d="M 2888 231 
Q 2888 175 2880 131 
Q 2872 88 2858 58 
Q 2844 28 2820 14 
Q 2797 0 2769 0 
L 534 0 
Q 491 0 458 11 
Q 425 22 401 47 
Q 378 72 367 119 
Q 356 166 356 234 
Q 356 297 361 344 
Q 366 391 381 427 
Q 397 463 420 498 
Q 444 534 481 575 
L 1266 1406 
Q 1538 1694 1702 1922 
Q 1866 2150 1955 2337 
Q 2044 2525 2072 2678 
Q 2100 2831 2100 2966 
Q 2100 3100 2056 3220 
Q 2013 3341 1930 3431 
Q 1847 3522 1722 3575 
Q 1597 3628 1434 3628 
Q 1244 3628 1092 3575 
Q 941 3522 827 3459 
Q 713 3397 636 3344 
Q 559 3291 522 3291 
Q 500 3291 483 3303 
Q 466 3316 455 3344 
Q 444 3372 437 3419 
Q 431 3466 431 3531 
Q 431 3578 434 3612 
Q 438 3647 445 3672 
Q 453 3697 465 3719 
Q 478 3741 515 3773 
Q 553 3806 645 3862 
Q 738 3919 877 3973 
Q 1016 4028 1183 4065 
Q 1350 4103 1534 4103 
Q 1828 4103 2048 4020 
Q 2269 3938 2414 3794 
Q 2559 3650 2631 3459 
Q 2703 3269 2703 3053 
Q 2703 2859 2668 2667 
Q 2634 2475 2523 2251 
Q 2413 2028 2203 1754 
Q 1994 1481 1647 1125 
L 1006 456 
L 2766 456 
Q 2791 456 2814 442 
Q 2838 428 2855 400 
Q 2872 372 2880 330 
Q 2888 288 2888 231 
z
" transform="scale(0.015625)"/>
        <path id="Calibri-30" d="M 3022 2031 
Q 3022 1566 2948 1181 
Q 2875 797 2704 520 
Q 2534 244 2259 92 
Q 1984 -59 1581 -59 
Q 1200 -59 939 77 
Q 678 213 518 477 
Q 359 741 292 1127 
Q 225 1513 225 2013 
Q 225 2475 300 2861 
Q 375 3247 544 3523 
Q 713 3800 988 3951 
Q 1263 4103 1663 4103 
Q 2047 4103 2308 3967 
Q 2569 3831 2728 3567 
Q 2888 3303 2955 2917 
Q 3022 2531 3022 2031 
z
M 2472 1994 
Q 2472 2297 2450 2537 
Q 2428 2778 2386 2962 
Q 2344 3147 2276 3280 
Q 2209 3413 2115 3498 
Q 2022 3584 1901 3623 
Q 1781 3663 1631 3663 
Q 1366 3663 1200 3538 
Q 1034 3413 939 3194 
Q 844 2975 809 2681 
Q 775 2388 775 2050 
Q 775 1597 822 1280 
Q 869 963 970 763 
Q 1072 563 1230 472 
Q 1388 381 1613 381 
Q 1788 381 1920 437 
Q 2053 494 2148 598 
Q 2244 703 2306 850 
Q 2369 997 2406 1175 
Q 2444 1353 2458 1561 
Q 2472 1769 2472 1994 
z
" transform="scale(0.015625)"/>
       </defs>
       <use xlink:href="#Calibri-32"/>
       <use xlink:href="#Calibri-30" x="50.683594"/>
       <use xlink:href="#Calibri-30" x="101.367188"/>
       <use xlink:href="#Calibri-30" x="152.050781"/>
      </g>
     </g>
    </g>
    <g id="xtick_2">
     <g id="line2d_2">
      <g>
       <use xlink:href="#m24dffe4a8b" x="213.232851" y="296.34875" style="fill: #7b7e85; stroke: #7b7e85; stroke-width: 0.8"/>
      </g>
     </g>
     <g id="text_2">
      <!-- 2005 -->
      <g style="fill: #7b7e85" transform="translate(202.081601 315.330469)scale(0.11 -0.11)">
       <defs>
        <path id="Calibri-35" d="M 2869 1300 
Q 2869 975 2759 722 
Q 2650 469 2450 295 
Q 2250 122 1973 31 
Q 1697 -59 1359 -59 
Q 1172 -59 1003 -32 
Q 834 -6 703 33 
Q 572 72 487 109 
Q 403 147 379 169 
Q 356 191 347 209 
Q 338 228 330 254 
Q 322 281 319 322 
Q 316 363 316 419 
Q 316 472 320 514 
Q 325 556 337 582 
Q 350 609 367 621 
Q 384 634 406 634 
Q 438 634 503 595 
Q 569 556 680 511 
Q 791 466 955 425 
Q 1119 384 1344 384 
Q 1553 384 1728 434 
Q 1903 484 2029 590 
Q 2156 697 2228 858 
Q 2300 1019 2300 1250 
Q 2300 1444 2239 1592 
Q 2178 1741 2051 1839 
Q 1925 1938 1731 1986 
Q 1538 2034 1269 2034 
Q 1078 2034 940 2015 
Q 803 1997 684 1997 
Q 597 1997 559 2037 
Q 522 2078 522 2194 
L 522 3841 
Q 522 3944 570 3994 
Q 619 4044 709 4044 
L 2500 4044 
Q 2525 4044 2548 4030 
Q 2572 4016 2587 3987 
Q 2603 3959 2611 3915 
Q 2619 3872 2619 3813 
Q 2619 3700 2587 3637 
Q 2556 3575 2500 3575 
L 991 3575 
L 991 2441 
Q 1100 2456 1214 2459 
Q 1328 2463 1478 2463 
Q 1825 2463 2084 2380 
Q 2344 2297 2517 2145 
Q 2691 1994 2780 1778 
Q 2869 1563 2869 1300 
z
" transform="scale(0.015625)"/>
       </defs>
       <use xlink:href="#Calibri-32"/>
       <use xlink:href="#Calibri-30" x="50.683594"/>
       <use xlink:href="#Calibri-30" x="101.367188"/>
       <use xlink:href="#Calibri-35" x="152.050781"/>
      </g>
     </g>
    </g>
    <g id="xtick_3">
     <g id="line2d_3">
      <g>
       <use xlink:href="#m24dffe4a8b" x="318.646816" y="296.34875" style="fill: #7b7e85; stroke: #7b7e85; stroke-width: 0.8"/>
      </g>
     </g>
     <g id="text_3">
      <!-- 2010 -->
      <g style="fill: #7b7e85" transform="translate(307.495566 315.330469)scale(0.11 -0.11)">
       <defs>
        <path id="Calibri-31" d="M 2897 213 
Q 2897 153 2887 112 
Q 2878 72 2862 47 
Q 2847 22 2826 11 
Q 2806 0 2784 0 
L 672 0 
Q 650 0 631 11 
Q 613 22 595 47 
Q 578 72 568 112 
Q 559 153 559 213 
Q 559 269 568 309 
Q 578 350 592 376 
Q 606 403 626 417 
Q 647 431 672 431 
L 1516 431 
L 1516 3506 
L 734 3041 
Q 675 3009 639 3003 
Q 603 2997 581 3017 
Q 559 3038 551 3084 
Q 544 3131 544 3203 
Q 544 3256 548 3293 
Q 553 3331 562 3356 
Q 572 3381 589 3400 
Q 606 3419 634 3438 
L 1566 4034 
Q 1578 4044 1597 4050 
Q 1616 4056 1644 4062 
Q 1672 4069 1709 4070 
Q 1747 4072 1803 4072 
Q 1878 4072 1928 4065 
Q 1978 4059 2006 4048 
Q 2034 4038 2043 4020 
Q 2053 4003 2053 3984 
L 2053 431 
L 2784 431 
Q 2809 431 2831 417 
Q 2853 403 2867 376 
Q 2881 350 2889 309 
Q 2897 269 2897 213 
z
" transform="scale(0.015625)"/>
       </defs>
       <use xlink:href="#Calibri-32"/>
       <use xlink:href="#Calibri-30" x="50.683594"/>
       <use xlink:href="#Calibri-31" x="101.367188"/>
       <use xlink:href="#Calibri-30" x="152.050781"/>
      </g>
     </g>
    </g>
    <g id="xtick_4">
     <g id="line2d_4">
      <g>
       <use xlink:href="#m24dffe4a8b" x="424.060782" y="296.34875" style="fill: #7b7e85; stroke: #7b7e85; stroke-width: 0.8"/>
      </g>
     </g>
     <g id="text_4">
      <!-- 2015 -->
      <g style="fill: #7b7e85" transform="translate(412.909532 315.330469)scale(0.11 -0.11)">
       <use xlink:href="#Calibri-32"/>
       <use xlink:href="#Calibri-30" x="50.683594"/>
       <use xlink:href="#Calibri-31" x="101.367188"/>
       <use xlink:href="#Calibri-35" x="152.050781"/>
      </g>
     </g>
    </g>
    <g id="xtick_5">
     <g id="line2d_5">
      <g>
       <use xlink:href="#m24dffe4a8b" x="529.474748" y="296.34875" style="fill: #7b7e85; stroke: #7b7e85; stroke-width: 0.8"/>
      </g>
     </g>
     <g id="text_5">
      <!-- 2020 -->
      <g style="fill: #7b7e85" transform="translate(518.323498 315.330469)scale(0.11 -0.11)">
       <use xlink:href="#Calibri-32"/>
       <use xlink:href="#Calibri-30" x="50.683594"/>
       <use xlink:href="#Calibri-32" x="101.367188"/>
       <use xlink:href="#Calibri-30" x="152.050781"/>
      </g>
     </g>
    </g>
    <g id="text_6">
     <!-- Year -->
     <g style="fill: #00263e" transform="translate(327.948359 341.128437)scale(0.13 -0.13)">
      <defs>
       <path id="Calibri-59" d="M 1828 1572 
L 1828 81 
Q 1828 56 1815 37 
Q 1803 19 1772 8 
Q 1741 -3 1687 -11 
Q 1634 -19 1559 -19 
Q 1481 -19 1429 -11 
Q 1378 -3 1345 8 
Q 1313 19 1300 37 
Q 1288 56 1288 81 
L 1288 1572 
L 144 3853 
Q 109 3925 101 3965 
Q 94 4006 117 4028 
Q 141 4050 202 4056 
Q 263 4063 366 4063 
Q 459 4063 517 4056 
Q 575 4050 609 4039 
Q 644 4028 661 4008 
Q 678 3988 694 3956 
L 1253 2794 
Q 1331 2628 1409 2447 
Q 1488 2266 1569 2081 
L 1575 2081 
Q 1647 2259 1723 2436 
Q 1800 2613 1878 2784 
L 2441 3953 
Q 2450 3984 2467 4006 
Q 2484 4028 2514 4039 
Q 2544 4050 2597 4056 
Q 2650 4063 2731 4063 
Q 2844 4063 2908 4055 
Q 2972 4047 2997 4025 
Q 3022 4003 3014 3962 
Q 3006 3922 2972 3853 
L 1828 1572 
z
" transform="scale(0.015625)"/>
       <path id="Calibri-65" d="M 2878 1606 
Q 2878 1484 2817 1432 
Q 2756 1381 2678 1381 
L 834 1381 
Q 834 1147 881 959 
Q 928 772 1037 637 
Q 1147 503 1322 431 
Q 1497 359 1750 359 
Q 1950 359 2106 392 
Q 2263 425 2377 465 
Q 2491 506 2564 539 
Q 2638 572 2675 572 
Q 2697 572 2714 561 
Q 2731 550 2740 528 
Q 2750 506 2754 467 
Q 2759 428 2759 372 
Q 2759 331 2756 301 
Q 2753 272 2748 248 
Q 2744 225 2733 206 
Q 2722 188 2705 170 
Q 2688 153 2603 114 
Q 2519 75 2384 37 
Q 2250 0 2073 -29 
Q 1897 -59 1697 -59 
Q 1350 -59 1089 37 
Q 828 134 650 325 
Q 472 516 381 803 
Q 291 1091 291 1472 
Q 291 1834 384 2123 
Q 478 2413 654 2614 
Q 831 2816 1081 2923 
Q 1331 3031 1641 3031 
Q 1972 3031 2205 2925 
Q 2438 2819 2588 2639 
Q 2738 2459 2808 2217 
Q 2878 1975 2878 1700 
L 2878 1606 
z
M 2359 1759 
Q 2369 2166 2180 2397 
Q 1991 2628 1619 2628 
Q 1428 2628 1284 2556 
Q 1141 2484 1044 2365 
Q 947 2247 894 2089 
Q 841 1931 834 1759 
L 2359 1759 
z
" transform="scale(0.015625)"/>
       <path id="Calibri-61" d="M 2597 75 
Q 2597 38 2572 19 
Q 2547 0 2503 -9 
Q 2459 -19 2375 -19 
Q 2294 -19 2245 -9 
Q 2197 0 2175 19 
Q 2153 38 2153 75 
L 2153 356 
Q 1969 159 1742 50 
Q 1516 -59 1263 -59 
Q 1041 -59 861 -1 
Q 681 56 554 165 
Q 428 275 358 434 
Q 288 594 288 797 
Q 288 1034 384 1209 
Q 481 1384 662 1500 
Q 844 1616 1106 1673 
Q 1369 1731 1697 1731 
L 2084 1731 
L 2084 1950 
Q 2084 2113 2050 2238 
Q 2016 2363 1939 2445 
Q 1863 2528 1741 2570 
Q 1619 2613 1441 2613 
Q 1250 2613 1098 2567 
Q 947 2522 833 2467 
Q 719 2413 642 2367 
Q 566 2322 528 2322 
Q 503 2322 484 2334 
Q 466 2347 452 2372 
Q 438 2397 431 2436 
Q 425 2475 425 2522 
Q 425 2600 436 2645 
Q 447 2691 489 2731 
Q 531 2772 634 2826 
Q 738 2881 872 2926 
Q 1006 2972 1165 3001 
Q 1325 3031 1488 3031 
Q 1791 3031 2003 2962 
Q 2216 2894 2347 2761 
Q 2478 2628 2537 2431 
Q 2597 2234 2597 1972 
L 2597 75 
z
M 2084 1359 
L 1644 1359 
Q 1431 1359 1275 1323 
Q 1119 1288 1016 1217 
Q 913 1147 864 1048 
Q 816 950 816 822 
Q 816 603 955 473 
Q 1094 344 1344 344 
Q 1547 344 1720 447 
Q 1894 550 2084 763 
L 2084 1359 
z
" transform="scale(0.015625)"/>
       <path id="Calibri-72" d="M 2122 2706 
Q 2122 2638 2119 2591 
Q 2116 2544 2106 2517 
Q 2097 2491 2083 2477 
Q 2069 2463 2044 2463 
Q 2019 2463 1983 2477 
Q 1947 2491 1901 2505 
Q 1856 2519 1800 2531 
Q 1744 2544 1678 2544 
Q 1600 2544 1525 2512 
Q 1450 2481 1367 2409 
Q 1284 2338 1193 2219 
Q 1103 2100 994 1928 
L 994 78 
Q 994 53 981 36 
Q 969 19 941 6 
Q 913 -6 863 -12 
Q 813 -19 734 -19 
Q 659 -19 609 -12 
Q 559 -6 529 6 
Q 500 19 489 36 
Q 478 53 478 78 
L 478 2891 
Q 478 2916 487 2933 
Q 497 2950 525 2964 
Q 553 2978 597 2983 
Q 641 2988 713 2988 
Q 781 2988 826 2983 
Q 872 2978 897 2964 
Q 922 2950 933 2933 
Q 944 2916 944 2891 
L 944 2481 
Q 1059 2650 1161 2756 
Q 1263 2863 1353 2923 
Q 1444 2984 1533 3007 
Q 1622 3031 1713 3031 
Q 1753 3031 1804 3026 
Q 1856 3022 1912 3009 
Q 1969 2997 2014 2981 
Q 2059 2966 2078 2950 
Q 2097 2934 2103 2920 
Q 2109 2906 2114 2884 
Q 2119 2863 2120 2820 
Q 2122 2778 2122 2706 
z
" transform="scale(0.015625)"/>
      </defs>
      <use xlink:href="#Calibri-59"/>
      <use xlink:href="#Calibri-65" x="48.730469"/>
      <use xlink:href="#Calibri-61" x="98.486328"/>
      <use xlink:href="#Calibri-72" x="146.386719"/>
     </g>
    </g>
   </g>
   <g id="matplotlib.axis_2">
    <g id="ytick_1">
     <g id="line2d_6">
      <defs>
       <path id="m92da0c1a7b" d="M 0 0 
L -6 0 
" style="stroke: #7b7e85; stroke-width: 0.8"/>
      </defs>
      <g>
       <use xlink:href="#m92da0c1a7b" x="84.627813" y="272.42647" style="fill: #7b7e85; stroke: #7b7e85; stroke-width: 0.8"/>
      </g>
     </g>
     <g id="text_7">
      <!-- $150,000 -->
      <g style="fill: #7b7e85" transform="translate(33.353594 276.316861)scale(0.11 -0.11)">
       <defs>
        <path id="Calibri-24" d="M 2913 1144 
Q 2913 894 2817 689 
Q 2722 484 2547 337 
Q 2372 191 2119 103 
Q 1866 16 1553 0 
L 1484 -678 
Q 1481 -697 1473 -714 
Q 1466 -731 1444 -742 
Q 1422 -753 1383 -759 
Q 1344 -766 1281 -766 
Q 1209 -766 1167 -758 
Q 1125 -750 1100 -739 
Q 1075 -728 1067 -708 
Q 1059 -688 1066 -663 
L 1138 13 
Q 988 31 859 61 
Q 731 91 631 125 
Q 531 159 461 196 
Q 391 234 358 267 
Q 325 300 312 353 
Q 300 406 300 500 
Q 300 569 306 614 
Q 313 659 325 689 
Q 338 719 358 730 
Q 378 741 406 741 
Q 447 741 522 695 
Q 597 650 720 595 
Q 844 541 1022 494 
Q 1200 447 1450 447 
Q 1894 447 2123 622 
Q 2353 797 2353 1097 
Q 2353 1281 2268 1404 
Q 2184 1528 2045 1617 
Q 1906 1706 1729 1770 
Q 1553 1834 1370 1900 
Q 1188 1966 1011 2050 
Q 834 2134 696 2259 
Q 559 2384 475 2564 
Q 391 2744 391 3006 
Q 391 3216 462 3397 
Q 534 3578 678 3714 
Q 822 3850 1040 3936 
Q 1259 4022 1550 4041 
L 1613 4672 
Q 1616 4691 1623 4708 
Q 1631 4725 1653 4737 
Q 1675 4750 1712 4754 
Q 1750 4759 1816 4759 
Q 1884 4759 1929 4753 
Q 1975 4747 1998 4733 
Q 2022 4719 2028 4700 
Q 2034 4681 2034 4656 
L 1966 4031 
Q 2059 4022 2161 3998 
Q 2263 3975 2352 3945 
Q 2441 3916 2512 3880 
Q 2584 3844 2611 3819 
Q 2638 3794 2648 3772 
Q 2659 3750 2665 3722 
Q 2672 3694 2676 3656 
Q 2681 3619 2681 3572 
Q 2681 3513 2676 3469 
Q 2672 3425 2662 3400 
Q 2653 3375 2637 3362 
Q 2622 3350 2600 3350 
Q 2566 3350 2491 3390 
Q 2416 3431 2302 3478 
Q 2188 3525 2038 3565 
Q 1888 3606 1703 3606 
Q 1494 3606 1345 3565 
Q 1197 3525 1105 3451 
Q 1013 3378 970 3275 
Q 928 3172 928 3050 
Q 928 2863 1014 2738 
Q 1100 2613 1239 2525 
Q 1378 2438 1556 2375 
Q 1734 2313 1920 2245 
Q 2106 2178 2284 2097 
Q 2463 2016 2602 1891 
Q 2741 1766 2827 1586 
Q 2913 1406 2913 1144 
z
" transform="scale(0.015625)"/>
        <path id="Calibri-2c" d="M 1159 447 
Q 1159 350 1150 269 
Q 1141 188 1119 116 
Q 1097 44 1061 -26 
Q 1025 -97 972 -175 
L 544 -819 
Q 528 -841 508 -856 
Q 488 -872 458 -884 
Q 428 -897 389 -901 
Q 350 -906 291 -906 
Q 238 -906 202 -901 
Q 166 -897 150 -886 
Q 134 -875 132 -856 
Q 131 -838 144 -813 
L 559 47 
L 559 447 
Q 559 531 576 581 
Q 594 631 631 656 
Q 669 681 725 690 
Q 781 700 863 700 
Q 941 700 997 690 
Q 1053 681 1089 656 
Q 1125 631 1142 581 
Q 1159 531 1159 447 
z
" transform="scale(0.015625)"/>
       </defs>
       <use xlink:href="#Calibri-24"/>
       <use xlink:href="#Calibri-31" x="50.683594"/>
       <use xlink:href="#Calibri-35" x="101.367188"/>
       <use xlink:href="#Calibri-30" x="152.050781"/>
       <use xlink:href="#Calibri-2c" x="202.734375"/>
       <use xlink:href="#Calibri-30" x="227.685547"/>
       <use xlink:href="#Calibri-30" x="278.369141"/>
       <use xlink:href="#Calibri-30" x="329.052734"/>
      </g>
     </g>
    </g>
    <g id="ytick_2">
     <g id="line2d_7">
      <g>
       <use xlink:href="#m92da0c1a7b" x="84.627813" y="238.544603" style="fill: #7b7e85; stroke: #7b7e85; stroke-width: 0.8"/>
      </g>
     </g>
     <g id="text_8">
      <!-- $200,000 -->
      <g style="fill: #7b7e85" transform="translate(33.353594 242.434994)scale(0.11 -0.11)">
       <use xlink:href="#Calibri-24"/>
       <use xlink:href="#Calibri-32" x="50.683594"/>
       <use xlink:href="#Calibri-30" x="101.367188"/>
       <use xlink:href="#Calibri-30" x="152.050781"/>
       <use xlink:href="#Calibri-2c" x="202.734375"/>
       <use xlink:href="#Calibri-30" x="227.685547"/>
       <use xlink:href="#Calibri-30" x="278.369141"/>
       <use xlink:href="#Calibri-30" x="329.052734"/>
      </g>
     </g>
    </g>
    <g id="ytick_3">
     <g id="line2d_8">
      <g>
       <use xlink:href="#m92da0c1a7b" x="84.627813" y="204.662736" style="fill: #7b7e85; stroke: #7b7e85; stroke-width: 0.8"/>
      </g>
     </g>
     <g id="text_9">
      <!-- $250,000 -->
      <g style="fill: #7b7e85" transform="translate(33.353594 208.553127)scale(0.11 -0.11)">
       <use xlink:href="#Calibri-24"/>
       <use xlink:href="#Calibri-32" x="50.683594"/>
       <use xlink:href="#Calibri-35" x="101.367188"/>
       <use xlink:href="#Calibri-30" x="152.050781"/>
       <use xlink:href="#Calibri-2c" x="202.734375"/>
       <use xlink:href="#Calibri-30" x="227.685547"/>
       <use xlink:href="#Calibri-30" x="278.369141"/>
       <use xlink:href="#Calibri-30" x="329.052734"/>
      </g>
     </g>
    </g>
    <g id="ytick_4">
     <g id="line2d_9">
      <g>
       <use xlink:href="#m92da0c1a7b" x="84.627813" y="170.780869" style="fill: #7b7e85; stroke: #7b7e85; stroke-width: 0.8"/>
      </g>
     </g>
     <g id="text_10">
      <!-- $300,000 -->
      <g style="fill: #7b7e85" transform="translate(33.353594 174.67126)scale(0.11 -0.11)">
       <defs>
        <path id="Calibri-33" d="M 2856 1156 
Q 2856 878 2759 654 
Q 2663 431 2481 272 
Q 2300 113 2034 27 
Q 1769 -59 1434 -59 
Q 1231 -59 1054 -26 
Q 878 6 740 51 
Q 603 97 512 145 
Q 422 194 398 216 
Q 375 238 362 259 
Q 350 281 340 312 
Q 331 344 326 389 
Q 322 434 322 500 
Q 322 613 344 656 
Q 366 700 406 700 
Q 434 700 517 650 
Q 600 600 729 542 
Q 859 484 1032 434 
Q 1206 384 1419 384 
Q 1625 384 1781 437 
Q 1938 491 2044 587 
Q 2150 684 2203 817 
Q 2256 950 2256 1106 
Q 2256 1278 2189 1415 
Q 2122 1553 1992 1653 
Q 1863 1753 1673 1806 
Q 1484 1859 1244 1859 
L 859 1859 
Q 834 1859 811 1870 
Q 788 1881 770 1906 
Q 753 1931 742 1972 
Q 731 2013 731 2078 
Q 731 2138 740 2177 
Q 750 2216 767 2239 
Q 784 2263 806 2273 
Q 828 2284 856 2284 
L 1209 2284 
Q 1416 2284 1580 2337 
Q 1744 2391 1858 2491 
Q 1972 2591 2033 2730 
Q 2094 2869 2094 3041 
Q 2094 3166 2053 3280 
Q 2013 3394 1931 3478 
Q 1850 3563 1723 3611 
Q 1597 3659 1431 3659 
Q 1250 3659 1098 3604 
Q 947 3550 828 3487 
Q 709 3425 631 3370 
Q 553 3316 522 3316 
Q 500 3316 483 3323 
Q 466 3331 455 3354 
Q 444 3378 439 3420 
Q 434 3463 434 3531 
Q 434 3578 437 3614 
Q 441 3650 450 3676 
Q 459 3703 471 3725 
Q 484 3747 514 3776 
Q 544 3806 634 3862 
Q 725 3919 858 3973 
Q 991 4028 1164 4065 
Q 1338 4103 1538 4103 
Q 1819 4103 2031 4031 
Q 2244 3959 2386 3828 
Q 2528 3697 2598 3514 
Q 2669 3331 2669 3109 
Q 2669 2919 2619 2755 
Q 2569 2591 2472 2464 
Q 2375 2338 2234 2248 
Q 2094 2159 1909 2125 
L 1909 2119 
Q 2119 2097 2292 2014 
Q 2466 1931 2591 1806 
Q 2716 1681 2786 1514 
Q 2856 1347 2856 1156 
z
" transform="scale(0.015625)"/>
       </defs>
       <use xlink:href="#Calibri-24"/>
       <use xlink:href="#Calibri-33" x="50.683594"/>
       <use xlink:href="#Calibri-30" x="101.367188"/>
       <use xlink:href="#Calibri-30" x="152.050781"/>
       <use xlink:href="#Calibri-2c" x="202.734375"/>
       <use xlink:href="#Calibri-30" x="227.685547"/>
       <use xlink:href="#Calibri-30" x="278.369141"/>
       <use xlink:href="#Calibri-30" x="329.052734"/>
      </g>
     </g>
    </g>
    <g id="ytick_5">
     <g id="line2d_10">
      <g>
       <use xlink:href="#m92da0c1a7b" x="84.627813" y="136.899002" style="fill: #7b7e85; stroke: #7b7e85; stroke-width: 0.8"/>
      </g>
     </g>
     <g id="text_11">
      <!-- $350,000 -->
      <g style="fill: #7b7e85" transform="translate(33.353594 140.789393)scale(0.11 -0.11)">
       <use xlink:href="#Calibri-24"/>
       <use xlink:href="#Calibri-33" x="50.683594"/>
       <use xlink:href="#Calibri-35" x="101.367188"/>
       <use xlink:href="#Calibri-30" x="152.050781"/>
       <use xlink:href="#Calibri-2c" x="202.734375"/>
       <use xlink:href="#Calibri-30" x="227.685547"/>
       <use xlink:href="#Calibri-30" x="278.369141"/>
       <use xlink:href="#Calibri-30" x="329.052734"/>
      </g>
     </g>
    </g>
    <g id="ytick_6">
     <g id="line2d_11">
      <g>
       <use xlink:href="#m92da0c1a7b" x="84.627813" y="103.017135" style="fill: #7b7e85; stroke: #7b7e85; stroke-width: 0.8"/>
      </g>
     </g>
     <g id="text_12">
      <!-- $400,000 -->
      <g style="fill: #7b7e85" transform="translate(33.353594 106.907526)scale(0.11 -0.11)">
       <defs>
        <path id="Calibri-34" d="M 3059 1150 
Q 3059 1047 3028 987 
Q 2997 928 2941 928 
L 2484 928 
L 2484 78 
Q 2484 53 2471 36 
Q 2459 19 2428 6 
Q 2397 -6 2347 -12 
Q 2297 -19 2219 -19 
Q 2144 -19 2094 -12 
Q 2044 -6 2014 6 
Q 1984 19 1973 36 
Q 1963 53 1963 78 
L 1963 928 
L 294 928 
Q 256 928 231 937 
Q 206 947 186 972 
Q 166 997 158 1044 
Q 150 1091 150 1166 
Q 150 1225 153 1272 
Q 156 1319 165 1358 
Q 175 1397 190 1433 
Q 206 1469 228 1509 
L 1684 3966 
Q 1700 3991 1729 4009 
Q 1759 4028 1806 4040 
Q 1853 4053 1922 4058 
Q 1991 4063 2084 4063 
Q 2188 4063 2264 4055 
Q 2341 4047 2387 4034 
Q 2434 4022 2459 4001 
Q 2484 3981 2484 3953 
L 2484 1372 
L 2941 1372 
Q 2994 1372 3026 1317 
Q 3059 1263 3059 1150 
z
M 1963 3591 
L 1956 3591 
L 641 1372 
L 1963 1372 
L 1963 3591 
z
" transform="scale(0.015625)"/>
       </defs>
       <use xlink:href="#Calibri-24"/>
       <use xlink:href="#Calibri-34" x="50.683594"/>
       <use xlink:href="#Calibri-30" x="101.367188"/>
       <use xlink:href="#Calibri-30" x="152.050781"/>
       <use xlink:href="#Calibri-2c" x="202.734375"/>
       <use xlink:href="#Calibri-30" x="227.685547"/>
       <use xlink:href="#Calibri-30" x="278.369141"/>
       <use xlink:href="#Calibri-30" x="329.052734"/>
      </g>
     </g>
    </g>
    <g id="ytick_7">
     <g id="line2d_12">
      <g>
       <use xlink:href="#m92da0c1a7b" x="84.627813" y="69.135268" style="fill: #7b7e85; stroke: #7b7e85; stroke-width: 0.8"/>
      </g>
     </g>
     <g id="text_13">
      <!-- $450,000 -->
      <g style="fill: #7b7e85" transform="translate(33.353594 73.025659)scale(0.11 -0.11)">
       <use xlink:href="#Calibri-24"/>
       <use xlink:href="#Calibri-34" x="50.683594"/>
       <use xlink:href="#Calibri-35" x="101.367188"/>
       <use xlink:href="#Calibri-30" x="152.050781"/>
       <use xlink:href="#Calibri-2c" x="202.734375"/>
       <use xlink:href="#Calibri-30" x="227.685547"/>
       <use xlink:href="#Calibri-30" x="278.369141"/>
       <use xlink:href="#Calibri-30" x="329.052734"/>
      </g>
     </g>
    </g>
    <g id="text_14">
     <!-- Zillow Annual Home Value Estimate -->
     <g style="fill: #00263e" transform="translate(16.042031 261.9325)rotate(-90)scale(0.13 -0.13)">
      <defs>
       <path id="Calibri-5a" d="M 2863 225 
Q 2863 166 2856 123 
Q 2850 81 2836 53 
Q 2822 25 2801 12 
Q 2781 0 2753 0 
L 366 0 
Q 284 0 234 50 
Q 184 100 184 209 
L 184 325 
Q 184 366 189 400 
Q 194 434 209 473 
Q 225 513 253 561 
Q 281 609 322 675 
L 2188 3594 
L 344 3594 
Q 313 3594 291 3606 
Q 269 3619 255 3645 
Q 241 3672 234 3714 
Q 228 3756 228 3813 
Q 228 3875 234 3919 
Q 241 3963 255 3991 
Q 269 4019 291 4031 
Q 313 4044 344 4044 
L 2594 4044 
Q 2678 4044 2726 3995 
Q 2775 3947 2775 3847 
L 2775 3725 
Q 2775 3675 2769 3636 
Q 2763 3597 2747 3556 
Q 2731 3516 2704 3469 
Q 2678 3422 2634 3359 
L 778 453 
L 2753 453 
Q 2806 453 2834 400 
Q 2863 347 2863 225 
z
" transform="scale(0.015625)"/>
       <path id="Calibri-69" d="M 994 78 
Q 994 53 981 36 
Q 969 19 941 6 
Q 913 -6 863 -12 
Q 813 -19 734 -19 
Q 659 -19 609 -12 
Q 559 -6 529 6 
Q 500 19 489 36 
Q 478 53 478 78 
L 478 2891 
Q 478 2913 489 2931 
Q 500 2950 529 2962 
Q 559 2975 609 2981 
Q 659 2988 734 2988 
Q 813 2988 863 2981 
Q 913 2975 941 2962 
Q 969 2950 981 2931 
Q 994 2913 994 2891 
L 994 78 
z
M 1053 3841 
Q 1053 3659 984 3593 
Q 916 3528 731 3528 
Q 550 3528 483 3592 
Q 416 3656 416 3834 
Q 416 4016 484 4081 
Q 553 4147 738 4147 
Q 919 4147 986 4083 
Q 1053 4019 1053 3841 
z
" transform="scale(0.015625)"/>
       <path id="Calibri-6c" d="M 994 78 
Q 994 53 981 36 
Q 969 19 941 6 
Q 913 -6 863 -12 
Q 813 -19 734 -19 
Q 659 -19 609 -12 
Q 559 -6 529 6 
Q 500 19 489 36 
Q 478 53 478 78 
L 478 4253 
Q 478 4278 489 4297 
Q 500 4316 529 4328 
Q 559 4341 609 4347 
Q 659 4353 734 4353 
Q 813 4353 863 4347 
Q 913 4341 941 4328 
Q 969 4316 981 4297 
Q 994 4278 994 4253 
L 994 78 
z
" transform="scale(0.015625)"/>
       <path id="Calibri-6f" d="M 3094 1516 
Q 3094 1172 3003 883 
Q 2913 594 2733 384 
Q 2553 175 2283 58 
Q 2013 -59 1656 -59 
Q 1309 -59 1051 44 
Q 794 147 622 344 
Q 450 541 365 822 
Q 281 1103 281 1459 
Q 281 1803 370 2092 
Q 459 2381 639 2590 
Q 819 2800 1087 2915 
Q 1356 3031 1716 3031 
Q 2063 3031 2320 2928 
Q 2578 2825 2750 2628 
Q 2922 2431 3008 2150 
Q 3094 1869 3094 1516 
z
M 2550 1481 
Q 2550 1709 2508 1912 
Q 2466 2116 2369 2269 
Q 2272 2422 2106 2511 
Q 1941 2600 1694 2600 
Q 1466 2600 1302 2519 
Q 1138 2438 1031 2289 
Q 925 2141 873 1937 
Q 822 1734 822 1494 
Q 822 1263 864 1059 
Q 906 856 1004 704 
Q 1103 553 1268 464 
Q 1434 375 1681 375 
Q 1906 375 2072 456 
Q 2238 538 2344 684 
Q 2450 831 2500 1034 
Q 2550 1238 2550 1481 
z
" transform="scale(0.015625)"/>
       <path id="Calibri-77" d="M 4413 2897 
Q 4413 2875 4406 2844 
Q 4400 2813 4384 2766 
L 3556 94 
Q 3547 59 3526 37 
Q 3506 16 3470 3 
Q 3434 -9 3371 -14 
Q 3309 -19 3216 -19 
Q 3119 -19 3053 -12 
Q 2988 -6 2948 6 
Q 2909 19 2890 41 
Q 2872 63 2863 94 
L 2272 2134 
L 2266 2163 
L 2259 2134 
L 1713 94 
Q 1703 59 1683 37 
Q 1663 16 1622 3 
Q 1581 -9 1517 -14 
Q 1453 -19 1359 -19 
Q 1263 -19 1202 -12 
Q 1141 -6 1102 6 
Q 1063 19 1044 41 
Q 1025 63 1016 94 
L 194 2766 
Q 178 2813 172 2844 
Q 166 2875 166 2897 
Q 166 2925 178 2942 
Q 191 2959 220 2970 
Q 250 2981 300 2984 
Q 350 2988 422 2988 
Q 509 2988 562 2983 
Q 616 2978 644 2967 
Q 672 2956 684 2936 
Q 697 2916 706 2888 
L 1384 569 
L 1391 541 
L 1397 569 
L 2019 2888 
Q 2025 2916 2039 2936 
Q 2053 2956 2081 2967 
Q 2109 2978 2157 2983 
Q 2206 2988 2284 2988 
Q 2359 2988 2407 2983 
Q 2456 2978 2484 2967 
Q 2513 2956 2525 2937 
Q 2538 2919 2544 2894 
L 3216 569 
L 3222 541 
L 3225 569 
L 3894 2888 
Q 3900 2916 3914 2936 
Q 3928 2956 3958 2967 
Q 3988 2978 4039 2983 
Q 4091 2988 4172 2988 
Q 4247 2988 4292 2984 
Q 4338 2981 4364 2968 
Q 4391 2956 4402 2940 
Q 4413 2925 4413 2897 
z
" transform="scale(0.015625)"/>
       <path id="Calibri-20" transform="scale(0.015625)"/>
       <path id="Calibri-41" d="M 3566 191 
Q 3591 122 3592 80 
Q 3594 38 3569 16 
Q 3544 -6 3486 -12 
Q 3428 -19 3331 -19 
Q 3234 -19 3176 -14 
Q 3119 -9 3089 2 
Q 3059 13 3045 31 
Q 3031 50 3019 78 
L 2672 1063 
L 991 1063 
L 659 91 
Q 650 63 634 42 
Q 619 22 589 8 
Q 559 -6 504 -12 
Q 450 -19 363 -19 
Q 272 -19 214 -11 
Q 156 -3 132 19 
Q 109 41 111 83 
Q 113 125 138 194 
L 1494 3950 
Q 1506 3984 1526 4006 
Q 1547 4028 1586 4040 
Q 1625 4053 1686 4058 
Q 1747 4063 1841 4063 
Q 1941 4063 2006 4058 
Q 2072 4053 2112 4040 
Q 2153 4028 2175 4004 
Q 2197 3981 2209 3947 
L 3566 191 
z
M 1825 3506 
L 1822 3506 
L 1125 1491 
L 2531 1491 
L 1825 3506 
z
" transform="scale(0.015625)"/>
       <path id="Calibri-6e" d="M 2900 78 
Q 2900 53 2887 36 
Q 2875 19 2847 6 
Q 2819 -6 2769 -12 
Q 2719 -19 2644 -19 
Q 2566 -19 2516 -12 
Q 2466 -6 2437 6 
Q 2409 19 2396 36 
Q 2384 53 2384 78 
L 2384 1725 
Q 2384 1966 2346 2112 
Q 2309 2259 2237 2365 
Q 2166 2472 2052 2528 
Q 1938 2584 1788 2584 
Q 1594 2584 1400 2446 
Q 1206 2309 994 2044 
L 994 78 
Q 994 53 981 36 
Q 969 19 941 6 
Q 913 -6 863 -12 
Q 813 -19 734 -19 
Q 659 -19 609 -12 
Q 559 -6 529 6 
Q 500 19 489 36 
Q 478 53 478 78 
L 478 2891 
Q 478 2916 487 2933 
Q 497 2950 525 2964 
Q 553 2978 597 2983 
Q 641 2988 713 2988 
Q 781 2988 826 2983 
Q 872 2978 897 2964 
Q 922 2950 933 2933 
Q 944 2916 944 2891 
L 944 2519 
Q 1181 2784 1417 2907 
Q 1653 3031 1894 3031 
Q 2175 3031 2367 2936 
Q 2559 2841 2678 2681 
Q 2797 2522 2848 2308 
Q 2900 2094 2900 1794 
L 2900 78 
z
" transform="scale(0.015625)"/>
       <path id="Calibri-75" d="M 2888 78 
Q 2888 53 2877 36 
Q 2866 19 2837 6 
Q 2809 -6 2764 -12 
Q 2719 -19 2653 -19 
Q 2581 -19 2536 -12 
Q 2491 -6 2464 6 
Q 2438 19 2428 36 
Q 2419 53 2419 78 
L 2419 450 
Q 2178 184 1943 62 
Q 1709 -59 1469 -59 
Q 1188 -59 995 34 
Q 803 128 684 289 
Q 566 450 514 664 
Q 463 878 463 1184 
L 463 2891 
Q 463 2916 473 2933 
Q 484 2950 515 2964 
Q 547 2978 597 2983 
Q 647 2988 722 2988 
Q 797 2988 847 2983 
Q 897 2978 926 2964 
Q 956 2950 968 2933 
Q 981 2916 981 2891 
L 981 1253 
Q 981 1006 1017 857 
Q 1053 709 1126 604 
Q 1200 500 1312 442 
Q 1425 384 1575 384 
Q 1769 384 1961 521 
Q 2153 659 2369 925 
L 2369 2891 
Q 2369 2916 2380 2933 
Q 2391 2950 2422 2964 
Q 2453 2978 2501 2983 
Q 2550 2988 2628 2988 
Q 2703 2988 2753 2983 
Q 2803 2978 2831 2964 
Q 2859 2950 2873 2933 
Q 2888 2916 2888 2891 
L 2888 78 
z
" transform="scale(0.015625)"/>
       <path id="Calibri-48" d="M 3450 81 
Q 3450 56 3437 37 
Q 3425 19 3394 8 
Q 3363 -3 3311 -11 
Q 3259 -19 3184 -19 
Q 3103 -19 3053 -11 
Q 3003 -3 2972 8 
Q 2941 19 2928 37 
Q 2916 56 2916 81 
L 2916 1875 
L 1075 1875 
L 1075 81 
Q 1075 56 1062 37 
Q 1050 19 1019 8 
Q 988 -3 936 -11 
Q 884 -19 806 -19 
Q 731 -19 678 -11 
Q 625 -3 594 8 
Q 563 19 550 37 
Q 538 56 538 81 
L 538 3963 
Q 538 3988 550 4006 
Q 563 4025 594 4036 
Q 625 4047 678 4055 
Q 731 4063 806 4063 
Q 884 4063 936 4055 
Q 988 4047 1019 4036 
Q 1050 4025 1062 4006 
Q 1075 3988 1075 3963 
L 1075 2344 
L 2916 2344 
L 2916 3963 
Q 2916 3988 2928 4006 
Q 2941 4025 2972 4036 
Q 3003 4047 3053 4055 
Q 3103 4063 3184 4063 
Q 3259 4063 3311 4055 
Q 3363 4047 3394 4036 
Q 3425 4025 3437 4006 
Q 3450 3988 3450 3963 
L 3450 81 
z
" transform="scale(0.015625)"/>
       <path id="Calibri-6d" d="M 4650 78 
Q 4650 53 4637 36 
Q 4625 19 4597 6 
Q 4569 -6 4519 -12 
Q 4469 -19 4394 -19 
Q 4316 -19 4266 -12 
Q 4216 -6 4186 6 
Q 4156 19 4143 36 
Q 4131 53 4131 78 
L 4131 1788 
Q 4131 1966 4100 2112 
Q 4069 2259 4000 2365 
Q 3931 2472 3825 2528 
Q 3719 2584 3575 2584 
Q 3397 2584 3217 2446 
Q 3038 2309 2822 2044 
L 2822 78 
Q 2822 53 2809 36 
Q 2797 19 2767 6 
Q 2738 -6 2688 -12 
Q 2638 -19 2563 -19 
Q 2491 -19 2439 -12 
Q 2388 -6 2358 6 
Q 2328 19 2317 36 
Q 2306 53 2306 78 
L 2306 1788 
Q 2306 1966 2272 2112 
Q 2238 2259 2169 2365 
Q 2100 2472 1995 2528 
Q 1891 2584 1747 2584 
Q 1569 2584 1387 2446 
Q 1206 2309 994 2044 
L 994 78 
Q 994 53 981 36 
Q 969 19 941 6 
Q 913 -6 863 -12 
Q 813 -19 734 -19 
Q 659 -19 609 -12 
Q 559 -6 529 6 
Q 500 19 489 36 
Q 478 53 478 78 
L 478 2891 
Q 478 2916 487 2933 
Q 497 2950 525 2964 
Q 553 2978 597 2983 
Q 641 2988 713 2988 
Q 781 2988 826 2983 
Q 872 2978 897 2964 
Q 922 2950 933 2933 
Q 944 2916 944 2891 
L 944 2519 
Q 1181 2784 1404 2907 
Q 1628 3031 1856 3031 
Q 2031 3031 2170 2990 
Q 2309 2950 2415 2876 
Q 2522 2803 2597 2701 
Q 2672 2600 2722 2475 
Q 2863 2628 2989 2734 
Q 3116 2841 3233 2906 
Q 3350 2972 3461 3001 
Q 3572 3031 3684 3031 
Q 3956 3031 4140 2936 
Q 4325 2841 4439 2681 
Q 4553 2522 4601 2308 
Q 4650 2094 4650 1856 
L 4650 78 
z
" transform="scale(0.015625)"/>
       <path id="Calibri-56" d="M 2172 94 
Q 2159 59 2137 37 
Q 2116 16 2077 3 
Q 2038 -9 1977 -14 
Q 1916 -19 1825 -19 
Q 1756 -19 1704 -17 
Q 1653 -16 1615 -9 
Q 1578 -3 1551 5 
Q 1525 13 1506 25 
Q 1488 38 1477 55 
Q 1466 72 1456 97 
L 134 3853 
Q 109 3922 107 3964 
Q 106 4006 134 4028 
Q 163 4050 225 4056 
Q 288 4063 394 4063 
Q 481 4063 532 4058 
Q 584 4053 612 4040 
Q 641 4028 655 4008 
Q 669 3988 681 3956 
L 1841 553 
L 1844 553 
L 2972 3950 
Q 2981 3984 2993 4006 
Q 3006 4028 3037 4040 
Q 3069 4053 3125 4058 
Q 3181 4063 3275 4063 
Q 3372 4063 3428 4055 
Q 3484 4047 3504 4025 
Q 3525 4003 3520 3961 
Q 3516 3919 3491 3850 
L 2172 94 
z
" transform="scale(0.015625)"/>
       <path id="Calibri-45" d="M 2788 222 
Q 2788 166 2781 123 
Q 2775 81 2759 53 
Q 2744 25 2723 12 
Q 2703 0 2678 0 
L 738 0 
Q 666 0 602 48 
Q 538 97 538 219 
L 538 3825 
Q 538 3947 602 3995 
Q 666 4044 738 4044 
L 2656 4044 
Q 2681 4044 2701 4031 
Q 2722 4019 2734 3991 
Q 2747 3963 2755 3920 
Q 2763 3878 2763 3816 
Q 2763 3759 2755 3717 
Q 2747 3675 2734 3648 
Q 2722 3622 2701 3609 
Q 2681 3597 2656 3597 
L 1075 3597 
L 1075 2328 
L 2431 2328 
Q 2456 2328 2476 2314 
Q 2497 2300 2511 2275 
Q 2525 2250 2531 2206 
Q 2538 2163 2538 2103 
Q 2538 2047 2531 2006 
Q 2525 1966 2511 1941 
Q 2497 1916 2476 1905 
Q 2456 1894 2431 1894 
L 1075 1894 
L 1075 447 
L 2678 447 
Q 2703 447 2723 434 
Q 2744 422 2759 395 
Q 2775 369 2781 326 
Q 2788 284 2788 222 
z
" transform="scale(0.015625)"/>
       <path id="Calibri-73" d="M 2244 844 
Q 2244 628 2164 459 
Q 2084 291 1937 175 
Q 1791 59 1587 0 
Q 1384 -59 1141 -59 
Q 991 -59 855 -36 
Q 719 -13 611 23 
Q 503 59 428 98 
Q 353 138 318 169 
Q 284 200 268 256 
Q 253 313 253 409 
Q 253 469 259 509 
Q 266 550 275 575 
Q 284 600 301 611 
Q 319 622 341 622 
Q 375 622 442 580 
Q 509 538 607 488 
Q 706 438 840 395 
Q 975 353 1150 353 
Q 1281 353 1387 381 
Q 1494 409 1572 464 
Q 1650 519 1692 603 
Q 1734 688 1734 803 
Q 1734 922 1673 1003 
Q 1613 1084 1513 1146 
Q 1413 1209 1288 1257 
Q 1163 1306 1030 1359 
Q 897 1413 770 1480 
Q 644 1547 544 1644 
Q 444 1741 383 1875 
Q 322 2009 322 2197 
Q 322 2363 386 2514 
Q 450 2666 578 2780 
Q 706 2894 898 2962 
Q 1091 3031 1347 3031 
Q 1459 3031 1571 3012 
Q 1684 2994 1775 2966 
Q 1866 2938 1930 2905 
Q 1994 2872 2026 2847 
Q 2059 2822 2070 2803 
Q 2081 2784 2086 2761 
Q 2091 2738 2095 2703 
Q 2100 2669 2100 2619 
Q 2100 2566 2095 2527 
Q 2091 2488 2080 2463 
Q 2069 2438 2053 2427 
Q 2038 2416 2019 2416 
Q 1991 2416 1937 2450 
Q 1884 2484 1800 2523 
Q 1716 2563 1602 2597 
Q 1488 2631 1341 2631 
Q 1209 2631 1109 2601 
Q 1009 2572 945 2517 
Q 881 2463 848 2388 
Q 816 2313 816 2225 
Q 816 2103 878 2020 
Q 941 1938 1041 1875 
Q 1141 1813 1269 1763 
Q 1397 1713 1530 1659 
Q 1663 1606 1792 1540 
Q 1922 1475 2022 1381 
Q 2122 1288 2183 1156 
Q 2244 1025 2244 844 
z
" transform="scale(0.015625)"/>
       <path id="Calibri-74" d="M 1941 284 
Q 1941 194 1928 141 
Q 1916 88 1891 63 
Q 1866 38 1816 16 
Q 1766 -6 1702 -20 
Q 1638 -34 1566 -43 
Q 1494 -53 1422 -53 
Q 1203 -53 1047 5 
Q 891 63 791 180 
Q 691 297 645 476 
Q 600 656 600 900 
L 600 2544 
L 206 2544 
Q 159 2544 131 2594 
Q 103 2644 103 2756 
Q 103 2816 111 2856 
Q 119 2897 131 2923 
Q 144 2950 164 2961 
Q 184 2972 209 2972 
L 600 2972 
L 600 3641 
Q 600 3663 611 3681 
Q 622 3700 651 3714 
Q 681 3728 731 3734 
Q 781 3741 856 3741 
Q 934 3741 984 3734 
Q 1034 3728 1062 3714 
Q 1091 3700 1103 3681 
Q 1116 3663 1116 3641 
L 1116 2972 
L 1838 2972 
Q 1863 2972 1881 2961 
Q 1900 2950 1914 2923 
Q 1928 2897 1934 2856 
Q 1941 2816 1941 2756 
Q 1941 2644 1912 2594 
Q 1884 2544 1838 2544 
L 1116 2544 
L 1116 975 
Q 1116 684 1202 536 
Q 1288 388 1509 388 
Q 1581 388 1637 402 
Q 1694 416 1737 431 
Q 1781 447 1812 461 
Q 1844 475 1869 475 
Q 1884 475 1898 467 
Q 1913 459 1920 437 
Q 1928 416 1934 378 
Q 1941 341 1941 284 
z
" transform="scale(0.015625)"/>
      </defs>
      <use xlink:href="#Calibri-5a"/>
      <use xlink:href="#Calibri-69" x="46.826172"/>
      <use xlink:href="#Calibri-6c" x="69.775391"/>
      <use xlink:href="#Calibri-6c" x="92.724609"/>
      <use xlink:href="#Calibri-6f" x="115.673828"/>
      <use xlink:href="#Calibri-77" x="168.408203"/>
      <use xlink:href="#Calibri-20" x="239.892578"/>
      <use xlink:href="#Calibri-41" x="262.5"/>
      <use xlink:href="#Calibri-6e" x="320.361328"/>
      <use xlink:href="#Calibri-6e" x="372.900391"/>
      <use xlink:href="#Calibri-75" x="425.439453"/>
      <use xlink:href="#Calibri-61" x="477.978516"/>
      <use xlink:href="#Calibri-6c" x="525.878906"/>
      <use xlink:href="#Calibri-20" x="548.828125"/>
      <use xlink:href="#Calibri-48" x="571.435547"/>
      <use xlink:href="#Calibri-6f" x="633.740234"/>
      <use xlink:href="#Calibri-6d" x="686.474609"/>
      <use xlink:href="#Calibri-65" x="766.357422"/>
      <use xlink:href="#Calibri-20" x="816.113281"/>
      <use xlink:href="#Calibri-56" x="838.720703"/>
      <use xlink:href="#Calibri-61" x="895.458984"/>
      <use xlink:href="#Calibri-6c" x="943.359375"/>
      <use xlink:href="#Calibri-75" x="966.308594"/>
      <use xlink:href="#Calibri-65" x="1018.847656"/>
      <use xlink:href="#Calibri-20" x="1068.603516"/>
      <use xlink:href="#Calibri-45" x="1091.210938"/>
      <use xlink:href="#Calibri-73" x="1140.039062"/>
      <use xlink:href="#Calibri-74" x="1179.150391"/>
      <use xlink:href="#Calibri-69" x="1212.646484"/>
      <use xlink:href="#Calibri-6d" x="1235.595703"/>
      <use xlink:href="#Calibri-61" x="1315.478516"/>
      <use xlink:href="#Calibri-74" x="1363.378906"/>
      <use xlink:href="#Calibri-65" x="1396.875"/>
     </g>
    </g>
   </g>
   <g id="line2d_13">
    <path d="M 107.818885 271.19238 
L 128.901678 268.113195 
L 149.984471 266.04787 
L 171.067264 264.379696 
L 192.150057 260.267454 
L 213.232851 253.662184 
L 255.398437 239.193836 
L 276.48123 239.503855 
L 297.564023 243.938314 
L 318.646816 246.615377 
L 339.729609 250.110461 
L 360.812403 252.427077 
L 381.895196 248.033051 
L 402.977989 240.311486 
L 424.060782 237.04934 
L 445.143575 223.587227 
L 466.226368 209.642015 
L 487.309161 195.1805 
L 508.391954 187.07257 
L 529.474748 184.114683 
L 550.557541 147.663893 
L 571.640334 91.358987 
L 571.640334 91.358987 
" clip-path="url(#p8a5a60c4d3)" style="fill: none; stroke: #d0dd28; stroke-width: 1.5; stroke-linecap: square"/>
    <defs>
     <path id="m7ef0b86ded" d="M 0 1 
C 0.265203 1 0.51958 0.894634 0.707107 0.707107 
C 0.894634 0.51958 1 0.265203 1 0 
C 1 -0.265203 0.894634 -0.51958 0.707107 -0.707107 
C 0.51958 -0.894634 0.265203 -1 0 -1 
C -0.265203 -1 -0.51958 -0.894634 -0.707107 -0.707107 
C -0.894634 -0.51958 -1 -0.265203 -1 0 
C -1 0.265203 -0.894634 0.51958 -0.707107 0.707107 
C -0.51958 0.894634 -0.265203 1 0 1 
z
" style="stroke: #d0dd28"/>
    </defs>
    <g clip-path="url(#p8a5a60c4d3)">
     <use xlink:href="#m7ef0b86ded" x="107.818885" y="271.19238" style="fill: #d0dd28; stroke: #d0dd28"/>
     <use xlink:href="#m7ef0b86ded" x="128.901678" y="268.113195" style="fill: #d0dd28; stroke: #d0dd28"/>
     <use xlink:href="#m7ef0b86ded" x="149.984471" y="266.04787" style="fill: #d0dd28; stroke: #d0dd28"/>
     <use xlink:href="#m7ef0b86ded" x="171.067264" y="264.379696" style="fill: #d0dd28; stroke: #d0dd28"/>
     <use xlink:href="#m7ef0b86ded" x="192.150057" y="260.267454" style="fill: #d0dd28; stroke: #d0dd28"/>
     <use xlink:href="#m7ef0b86ded" x="213.232851" y="253.662184" style="fill: #d0dd28; stroke: #d0dd28"/>
     <use xlink:href="#m7ef0b86ded" x="234.315644" y="246.388933" style="fill: #d0dd28; stroke: #d0dd28"/>
     <use xlink:href="#m7ef0b86ded" x="255.398437" y="239.193836" style="fill: #d0dd28; stroke: #d0dd28"/>
     <use xlink:href="#m7ef0b86ded" x="276.48123" y="239.503855" style="fill: #d0dd28; stroke: #d0dd28"/>
     <use xlink:href="#m7ef0b86ded" x="297.564023" y="243.938314" style="fill: #d0dd28; stroke: #d0dd28"/>
     <use xlink:href="#m7ef0b86ded" x="318.646816" y="246.615377" style="fill: #d0dd28; stroke: #d0dd28"/>
     <use xlink:href="#m7ef0b86ded" x="339.729609" y="250.110461" style="fill: #d0dd28; stroke: #d0dd28"/>
     <use xlink:href="#m7ef0b86ded" x="360.812403" y="252.427077" style="fill: #d0dd28; stroke: #d0dd28"/>
     <use xlink:href="#m7ef0b86ded" x="381.895196" y="248.033051" style="fill: #d0dd28; stroke: #d0dd28"/>
     <use xlink:href="#m7ef0b86ded" x="402.977989" y="240.311486" style="fill: #d0dd28; stroke: #d0dd28"/>
     <use xlink:href="#m7ef0b86ded" x="424.060782" y="237.04934" style="fill: #d0dd28; stroke: #d0dd28"/>
     <use xlink:href="#m7ef0b86ded" x="445.143575" y="223.587227" style="fill: #d0dd28; stroke: #d0dd28"/>
     <use xlink:href="#m7ef0b86ded" x="466.226368" y="209.642015" style="fill: #d0dd28; stroke: #d0dd28"/>
     <use xlink:href="#m7ef0b86ded" x="487.309161" y="195.1805" style="fill: #d0dd28; stroke: #d0dd28"/>
     <use xlink:href="#m7ef0b86ded" x="508.391954" y="187.07257" style="fill: #d0dd28; stroke: #d0dd28"/>
     <use xlink:href="#m7ef0b86ded" x="529.474748" y="184.114683" style="fill: #d0dd28; stroke: #d0dd28"/>
     <use xlink:href="#m7ef0b86ded" x="550.557541" y="147.663893" style="fill: #d0dd28; stroke: #d0dd28"/>
     <use xlink:href="#m7ef0b86ded" x="571.640334" y="91.358987" style="fill: #d0dd28; stroke: #d0dd28"/>
    </g>
   </g>
   <g id="line2d_14">
    <path d="M 107.818885 270.62915 
L 128.901678 267.45617 
L 149.984471 265.663085 
L 171.067264 263.158424 
L 192.150057 258.426765 
L 213.232851 252.14597 
L 234.315644 244.473591 
L 255.398437 236.547662 
L 276.48123 236.672461 
L 297.564023 241.120359 
L 318.646816 243.782344 
L 339.729609 248.062415 
L 360.812403 249.645602 
L 381.895196 245.61637 
L 402.977989 237.433334 
L 424.060782 233.729199 
L 445.143575 219.782237 
L 466.226368 205.657056 
L 487.309161 191.250486 
L 508.391954 183.375155 
L 529.474748 180.088896 
L 550.557541 144.608821 
L 571.640334 85.760875 
L 571.640334 85.760875 
" clip-path="url(#p8a5a60c4d3)" style="fill: none; stroke: #d6d0d3; stroke-width: 1.5; stroke-linecap: square"/>
    <defs>
     <path id="m69fda9eff9" d="M 0 1 
C 0.265203 1 0.51958 0.894634 0.707107 0.707107 
C 0.894634 0.51958 1 0.265203 1 0 
C 1 -0.265203 0.894634 -0.51958 0.707107 -0.707107 
C 0.51958 -0.894634 0.265203 -1 0 -1 
C -0.265203 -1 -0.51958 -0.894634 -0.707107 -0.707107 
C -0.894634 -0.51958 -1 -0.265203 -1 0 
C -1 0.265203 -0.894634 0.51958 -0.707107 0.707107 
C -0.51958 0.894634 -0.265203 1 0 1 
z
" style="stroke: #d6d0d3"/>
    </defs>
    <g clip-path="url(#p8a5a60c4d3)">
     <use xlink:href="#m69fda9eff9" x="107.818885" y="270.62915" style="fill: #d6d0d3; stroke: #d6d0d3"/>
     <use xlink:href="#m69fda9eff9" x="128.901678" y="267.45617" style="fill: #d6d0d3; stroke: #d6d0d3"/>
     <use xlink:href="#m69fda9eff9" x="149.984471" y="265.663085" style="fill: #d6d0d3; stroke: #d6d0d3"/>
     <use xlink:href="#m69fda9eff9" x="171.067264" y="263.158424" style="fill: #d6d0d3; stroke: #d6d0d3"/>
     <use xlink:href="#m69fda9eff9" x="192.150057" y="258.426765" style="fill: #d6d0d3; stroke: #d6d0d3"/>
     <use xlink:href="#m69fda9eff9" x="213.232851" y="252.14597" style="fill: #d6d0d3; stroke: #d6d0d3"/>
     <use xlink:href="#m69fda9eff9" x="234.315644" y="244.473591" style="fill: #d6d0d3; stroke: #d6d0d3"/>
     <use xlink:href="#m69fda9eff9" x="255.398437" y="236.547662" style="fill: #d6d0d3; stroke: #d6d0d3"/>
     <use xlink:href="#m69fda9eff9" x="276.48123" y="236.672461" style="fill: #d6d0d3; stroke: #d6d0d3"/>
     <use xlink:href="#m69fda9eff9" x="297.564023" y="241.120359" style="fill: #d6d0d3; stroke: #d6d0d3"/>
     <use xlink:href="#m69fda9eff9" x="318.646816" y="243.782344" style="fill: #d6d0d3; stroke: #d6d0d3"/>
     <use xlink:href="#m69fda9eff9" x="339.729609" y="248.062415" style="fill: #d6d0d3; stroke: #d6d0d3"/>
     <use xlink:href="#m69fda9eff9" x="360.812403" y="249.645602" style="fill: #d6d0d3; stroke: #d6d0d3"/>
     <use xlink:href="#m69fda9eff9" x="381.895196" y="245.61637" style="fill: #d6d0d3; stroke: #d6d0d3"/>
     <use xlink:href="#m69fda9eff9" x="402.977989" y="237.433334" style="fill: #d6d0d3; stroke: #d6d0d3"/>
     <use xlink:href="#m69fda9eff9" x="424.060782" y="233.729199" style="fill: #d6d0d3; stroke: #d6d0d3"/>
     <use xlink:href="#m69fda9eff9" x="445.143575" y="219.782237" style="fill: #d6d0d3; stroke: #d6d0d3"/>
     <use xlink:href="#m69fda9eff9" x="466.226368" y="205.657056" style="fill: #d6d0d3; stroke: #d6d0d3"/>
     <use xlink:href="#m69fda9eff9" x="487.309161" y="191.250486" style="fill: #d6d0d3; stroke: #d6d0d3"/>
     <use xlink:href="#m69fda9eff9" x="508.391954" y="183.375155" style="fill: #d6d0d3; stroke: #d6d0d3"/>
     <use xlink:href="#m69fda9eff9" x="529.474748" y="180.088896" style="fill: #d6d0d3; stroke: #d6d0d3"/>
     <use xlink:href="#m69fda9eff9" x="550.557541" y="144.608821" style="fill: #d6d0d3; stroke: #d6d0d3"/>
     <use xlink:href="#m69fda9eff9" x="571.640334" y="85.760875" style="fill: #d6d0d3; stroke: #d6d0d3"/>
    </g>
   </g>
   <g id="line2d_15">
    <path d="M 107.818885 255.854736 
L 128.901678 252.976641 
L 149.984471 250.358645 
L 171.067264 247.991263 
L 192.150057 243.342953 
L 213.232851 235.560288 
L 234.315644 226.817016 
L 255.398437 218.321703 
L 276.48123 217.960578 
L 297.564023 224.177449 
L 318.646816 227.332416 
L 339.729609 230.156752 
L 360.812403 232.450724 
L 381.895196 226.484014 
L 402.977989 215.663783 
L 424.060782 211.722306 
L 466.226368 181.707433 
L 487.309161 165.659569 
L 508.391954 158.216457 
L 529.474748 155.441927 
L 550.557541 114.350676 
L 571.640334 51.120355 
L 571.640334 51.120355 
" clip-path="url(#p8a5a60c4d3)" style="fill: none; stroke: #696466; stroke-width: 1.5; stroke-linecap: square"/>
    <defs>
     <path id="maa17655093" d="M 0 1 
C 0.265203 1 0.51958 0.894634 0.707107 0.707107 
C 0.894634 0.51958 1 0.265203 1 0 
C 1 -0.265203 0.894634 -0.51958 0.707107 -0.707107 
C 0.51958 -0.894634 0.265203 -1 0 -1 
C -0.265203 -1 -0.51958 -0.894634 -0.707107 -0.707107 
C -0.894634 -0.51958 -1 -0.265203 -1 0 
C -1 0.265203 -0.894634 0.51958 -0.707107 0.707107 
C -0.51958 0.894634 -0.265203 1 0 1 
z
" style="stroke: #696466"/>
    </defs>
    <g clip-path="url(#p8a5a60c4d3)">
     <use xlink:href="#maa17655093" x="107.818885" y="255.854736" style="fill: #696466; stroke: #696466"/>
     <use xlink:href="#maa17655093" x="128.901678" y="252.976641" style="fill: #696466; stroke: #696466"/>
     <use xlink:href="#maa17655093" x="149.984471" y="250.358645" style="fill: #696466; stroke: #696466"/>
     <use xlink:href="#maa17655093" x="171.067264" y="247.991263" style="fill: #696466; stroke: #696466"/>
     <use xlink:href="#maa17655093" x="192.150057" y="243.342953" style="fill: #696466; stroke: #696466"/>
     <use xlink:href="#maa17655093" x="213.232851" y="235.560288" style="fill: #696466; stroke: #696466"/>
     <use xlink:href="#maa17655093" x="234.315644" y="226.817016" style="fill: #696466; stroke: #696466"/>
     <use xlink:href="#maa17655093" x="255.398437" y="218.321703" style="fill: #696466; stroke: #696466"/>
     <use xlink:href="#maa17655093" x="276.48123" y="217.960578" style="fill: #696466; stroke: #696466"/>
     <use xlink:href="#maa17655093" x="297.564023" y="224.177449" style="fill: #696466; stroke: #696466"/>
     <use xlink:href="#maa17655093" x="318.646816" y="227.332416" style="fill: #696466; stroke: #696466"/>
     <use xlink:href="#maa17655093" x="339.729609" y="230.156752" style="fill: #696466; stroke: #696466"/>
     <use xlink:href="#maa17655093" x="360.812403" y="232.450724" style="fill: #696466; stroke: #696466"/>
     <use xlink:href="#maa17655093" x="381.895196" y="226.484014" style="fill: #696466; stroke: #696466"/>
     <use xlink:href="#maa17655093" x="402.977989" y="215.663783" style="fill: #696466; stroke: #696466"/>
     <use xlink:href="#maa17655093" x="424.060782" y="211.722306" style="fill: #696466; stroke: #696466"/>
     <use xlink:href="#maa17655093" x="445.143575" y="196.766398" style="fill: #696466; stroke: #696466"/>
     <use xlink:href="#maa17655093" x="466.226368" y="181.707433" style="fill: #696466; stroke: #696466"/>
     <use xlink:href="#maa17655093" x="487.309161" y="165.659569" style="fill: #696466; stroke: #696466"/>
     <use xlink:href="#maa17655093" x="508.391954" y="158.216457" style="fill: #696466; stroke: #696466"/>
     <use xlink:href="#maa17655093" x="529.474748" y="155.441927" style="fill: #696466; stroke: #696466"/>
     <use xlink:href="#maa17655093" x="550.557541" y="114.350676" style="fill: #696466; stroke: #696466"/>
     <use xlink:href="#maa17655093" x="571.640334" y="51.120355" style="fill: #696466; stroke: #696466"/>
    </g>
   </g>
   <g id="line2d_16">
    <path d="M 107.818885 284.671207 
L 149.984471 271.604835 
L 171.067264 263.831657 
L 192.150057 253.472389 
L 213.232851 239.419264 
L 234.315644 227.913659 
L 255.398437 227.079713 
L 276.48123 236.725034 
L 297.564023 249.365794 
L 318.646816 253.542468 
L 339.729609 260.026949 
L 360.812403 261.180514 
L 381.895196 253.798784 
L 402.977989 245.93565 
L 424.060782 240.084816 
L 445.143575 232.887404 
L 466.226368 224.221213 
L 487.309161 214.46572 
L 508.391954 207.171124 
L 529.474748 198.673382 
L 550.557541 171.772027 
L 571.640334 139.001786 
L 571.640334 139.001786 
" clip-path="url(#p8a5a60c4d3)" style="fill: none; stroke: #62a67f; stroke-width: 1.5; stroke-linecap: square"/>
    <defs>
     <path id="medb97df583" d="M 0 1 
C 0.265203 1 0.51958 0.894634 0.707107 0.707107 
C 0.894634 0.51958 1 0.265203 1 0 
C 1 -0.265203 0.894634 -0.51958 0.707107 -0.707107 
C 0.51958 -0.894634 0.265203 -1 0 -1 
C -0.265203 -1 -0.51958 -0.894634 -0.707107 -0.707107 
C -0.894634 -0.51958 -1 -0.265203 -1 0 
C -1 0.265203 -0.894634 0.51958 -0.707107 0.707107 
C -0.51958 0.894634 -0.265203 1 0 1 
z
" style="stroke: #62a67f"/>
    </defs>
    <g clip-path="url(#p8a5a60c4d3)">
     <use xlink:href="#medb97df583" x="107.818885" y="284.671207" style="fill: #62a67f; stroke: #62a67f"/>
     <use xlink:href="#medb97df583" x="128.901678" y="278.19322" style="fill: #62a67f; stroke: #62a67f"/>
     <use xlink:href="#medb97df583" x="149.984471" y="271.604835" style="fill: #62a67f; stroke: #62a67f"/>
     <use xlink:href="#medb97df583" x="171.067264" y="263.831657" style="fill: #62a67f; stroke: #62a67f"/>
     <use xlink:href="#medb97df583" x="192.150057" y="253.472389" style="fill: #62a67f; stroke: #62a67f"/>
     <use xlink:href="#medb97df583" x="213.232851" y="239.419264" style="fill: #62a67f; stroke: #62a67f"/>
     <use xlink:href="#medb97df583" x="234.315644" y="227.913659" style="fill: #62a67f; stroke: #62a67f"/>
     <use xlink:href="#medb97df583" x="255.398437" y="227.079713" style="fill: #62a67f; stroke: #62a67f"/>
     <use xlink:href="#medb97df583" x="276.48123" y="236.725034" style="fill: #62a67f; stroke: #62a67f"/>
     <use xlink:href="#medb97df583" x="297.564023" y="249.365794" style="fill: #62a67f; stroke: #62a67f"/>
     <use xlink:href="#medb97df583" x="318.646816" y="253.542468" style="fill: #62a67f; stroke: #62a67f"/>
     <use xlink:href="#medb97df583" x="339.729609" y="260.026949" style="fill: #62a67f; stroke: #62a67f"/>
     <use xlink:href="#medb97df583" x="360.812403" y="261.180514" style="fill: #62a67f; stroke: #62a67f"/>
     <use xlink:href="#medb97df583" x="381.895196" y="253.798784" style="fill: #62a67f; stroke: #62a67f"/>
     <use xlink:href="#medb97df583" x="402.977989" y="245.93565" style="fill: #62a67f; stroke: #62a67f"/>
     <use xlink:href="#medb97df583" x="424.060782" y="240.084816" style="fill: #62a67f; stroke: #62a67f"/>
     <use xlink:href="#medb97df583" x="445.143575" y="232.887404" style="fill: #62a67f; stroke: #62a67f"/>
     <use xlink:href="#medb97df583" x="466.226368" y="224.221213" style="fill: #62a67f; stroke: #62a67f"/>
     <use xlink:href="#medb97df583" x="487.309161" y="214.46572" style="fill: #62a67f; stroke: #62a67f"/>
     <use xlink:href="#medb97df583" x="508.391954" y="207.171124" style="fill: #62a67f; stroke: #62a67f"/>
     <use xlink:href="#medb97df583" x="529.474748" y="198.673382" style="fill: #62a67f; stroke: #62a67f"/>
     <use xlink:href="#medb97df583" x="550.557541" y="171.772027" style="fill: #62a67f; stroke: #62a67f"/>
     <use xlink:href="#medb97df583" x="571.640334" y="139.001786" style="fill: #62a67f; stroke: #62a67f"/>
    </g>
   </g>
   <g id="text_15">
    <!-- Comparative Zillow Annual Home Value Estimates Over Time -->
    <g style="fill: #00263e" transform="translate(117.291797 19.442812)scale(0.18 -0.18)">
     <defs>
      <path id="Calibri-43" d="M 3238 572 
Q 3238 522 3234 484 
Q 3231 447 3223 419 
Q 3216 391 3203 369 
Q 3191 347 3159 315 
Q 3128 284 3028 220 
Q 2928 156 2779 95 
Q 2631 34 2439 -8 
Q 2247 -50 2019 -50 
Q 1625 -50 1308 81 
Q 991 213 767 469 
Q 544 725 423 1101 
Q 303 1478 303 1969 
Q 303 2472 433 2865 
Q 563 3259 797 3532 
Q 1031 3806 1357 3950 
Q 1684 4094 2081 4094 
Q 2256 4094 2422 4061 
Q 2588 4028 2728 3978 
Q 2869 3928 2978 3862 
Q 3088 3797 3130 3755 
Q 3172 3713 3184 3691 
Q 3197 3669 3205 3639 
Q 3213 3609 3217 3568 
Q 3222 3528 3222 3472 
Q 3222 3409 3215 3365 
Q 3209 3322 3196 3292 
Q 3184 3263 3167 3248 
Q 3150 3234 3125 3234 
Q 3081 3234 3003 3295 
Q 2925 3356 2801 3429 
Q 2678 3503 2501 3564 
Q 2325 3625 2078 3625 
Q 1809 3625 1589 3517 
Q 1369 3409 1212 3200 
Q 1056 2991 970 2689 
Q 884 2388 884 2000 
Q 884 1616 967 1320 
Q 1050 1025 1204 826 
Q 1359 628 1584 526 
Q 1809 425 2094 425 
Q 2334 425 2514 484 
Q 2694 544 2820 617 
Q 2947 691 3028 750 
Q 3109 809 3156 809 
Q 3178 809 3193 800 
Q 3209 791 3218 764 
Q 3228 738 3233 691 
Q 3238 644 3238 572 
z
" transform="scale(0.015625)"/>
      <path id="Calibri-70" d="M 3066 1528 
Q 3066 1159 2986 865 
Q 2906 572 2751 367 
Q 2597 163 2369 52 
Q 2141 -59 1847 -59 
Q 1722 -59 1615 -34 
Q 1509 -9 1407 44 
Q 1306 97 1206 178 
Q 1106 259 994 369 
L 994 -1038 
Q 994 -1063 981 -1081 
Q 969 -1100 941 -1112 
Q 913 -1125 863 -1131 
Q 813 -1138 734 -1138 
Q 659 -1138 609 -1131 
Q 559 -1125 529 -1112 
Q 500 -1100 489 -1081 
Q 478 -1063 478 -1038 
L 478 2891 
Q 478 2919 487 2936 
Q 497 2953 525 2965 
Q 553 2978 597 2983 
Q 641 2988 703 2988 
Q 769 2988 811 2983 
Q 853 2978 881 2965 
Q 909 2953 920 2936 
Q 931 2919 931 2891 
L 931 2513 
Q 1059 2644 1178 2741 
Q 1297 2838 1417 2902 
Q 1538 2966 1664 2998 
Q 1791 3031 1931 3031 
Q 2238 3031 2453 2912 
Q 2669 2794 2805 2587 
Q 2941 2381 3003 2107 
Q 3066 1834 3066 1528 
z
M 2522 1469 
Q 2522 1684 2489 1886 
Q 2456 2088 2376 2244 
Q 2297 2400 2162 2494 
Q 2028 2588 1828 2588 
Q 1728 2588 1631 2558 
Q 1534 2528 1434 2464 
Q 1334 2400 1225 2295 
Q 1116 2191 994 2038 
L 994 919 
Q 1206 659 1397 521 
Q 1588 384 1797 384 
Q 1991 384 2130 478 
Q 2269 572 2355 728 
Q 2441 884 2481 1078 
Q 2522 1272 2522 1469 
z
" transform="scale(0.015625)"/>
      <path id="Calibri-76" d="M 2784 2897 
Q 2784 2884 2782 2870 
Q 2781 2856 2778 2840 
Q 2775 2825 2770 2806 
Q 2766 2788 2759 2766 
L 1800 94 
Q 1788 59 1767 37 
Q 1747 16 1706 3 
Q 1666 -9 1603 -14 
Q 1541 -19 1447 -19 
Q 1353 -19 1290 -12 
Q 1228 -6 1189 6 
Q 1150 19 1128 41 
Q 1106 63 1094 94 
L 138 2766 
Q 125 2803 117 2831 
Q 109 2859 107 2873 
Q 106 2888 106 2897 
Q 106 2922 118 2940 
Q 131 2959 161 2970 
Q 191 2981 239 2984 
Q 288 2988 359 2988 
Q 450 2988 504 2983 
Q 559 2978 589 2965 
Q 619 2953 633 2934 
Q 647 2916 659 2888 
L 1453 569 
L 1466 531 
L 1475 569 
L 2259 2888 
Q 2266 2916 2281 2934 
Q 2297 2953 2326 2965 
Q 2356 2978 2407 2983 
Q 2459 2988 2544 2988 
Q 2616 2988 2662 2984 
Q 2709 2981 2736 2968 
Q 2763 2956 2773 2939 
Q 2784 2922 2784 2897 
z
" transform="scale(0.015625)"/>
      <path id="Calibri-4f" d="M 3925 2069 
Q 3925 1578 3809 1184 
Q 3694 791 3464 514 
Q 3234 238 2887 89 
Q 2541 -59 2078 -59 
Q 1622 -59 1289 77 
Q 956 213 739 472 
Q 522 731 415 1115 
Q 309 1500 309 2000 
Q 309 2478 425 2868 
Q 541 3259 772 3532 
Q 1003 3806 1350 3954 
Q 1697 4103 2159 4103 
Q 2606 4103 2937 3968 
Q 3269 3834 3489 3576 
Q 3709 3319 3817 2939 
Q 3925 2559 3925 2069 
z
M 3359 2031 
Q 3359 2375 3298 2670 
Q 3238 2966 3095 3183 
Q 2953 3400 2715 3522 
Q 2478 3644 2128 3644 
Q 1778 3644 1540 3512 
Q 1303 3381 1154 3162 
Q 1006 2944 942 2651 
Q 878 2359 878 2038 
Q 878 1681 937 1381 
Q 997 1081 1137 864 
Q 1278 647 1514 526 
Q 1750 406 2106 406 
Q 2459 406 2700 537 
Q 2941 669 3087 892 
Q 3234 1116 3296 1409 
Q 3359 1703 3359 2031 
z
" transform="scale(0.015625)"/>
      <path id="Calibri-54" d="M 3072 3813 
Q 3072 3753 3065 3709 
Q 3059 3666 3045 3639 
Q 3031 3613 3011 3600 
Q 2991 3588 2966 3588 
L 1828 3588 
L 1828 81 
Q 1828 56 1815 37 
Q 1803 19 1772 8 
Q 1741 -3 1689 -11 
Q 1638 -19 1559 -19 
Q 1484 -19 1431 -11 
Q 1378 -3 1347 8 
Q 1316 19 1303 37 
Q 1291 56 1291 81 
L 1291 3588 
L 153 3588 
Q 128 3588 108 3600 
Q 88 3613 75 3639 
Q 63 3666 55 3709 
Q 47 3753 47 3813 
Q 47 3872 55 3917 
Q 63 3963 75 3991 
Q 88 4019 108 4031 
Q 128 4044 153 4044 
L 2966 4044 
Q 2991 4044 3011 4031 
Q 3031 4019 3045 3991 
Q 3059 3963 3065 3917 
Q 3072 3872 3072 3813 
z
" transform="scale(0.015625)"/>
     </defs>
     <use xlink:href="#Calibri-43"/>
     <use xlink:href="#Calibri-6f" x="53.320312"/>
     <use xlink:href="#Calibri-6d" x="106.054688"/>
     <use xlink:href="#Calibri-70" x="185.9375"/>
     <use xlink:href="#Calibri-61" x="238.476562"/>
     <use xlink:href="#Calibri-72" x="286.376953"/>
     <use xlink:href="#Calibri-61" x="321.240234"/>
     <use xlink:href="#Calibri-74" x="369.140625"/>
     <use xlink:href="#Calibri-69" x="402.636719"/>
     <use xlink:href="#Calibri-76" x="425.585938"/>
     <use xlink:href="#Calibri-65" x="470.751953"/>
     <use xlink:href="#Calibri-20" x="520.507812"/>
     <use xlink:href="#Calibri-5a" x="543.115234"/>
     <use xlink:href="#Calibri-69" x="589.941406"/>
     <use xlink:href="#Calibri-6c" x="612.890625"/>
     <use xlink:href="#Calibri-6c" x="635.839844"/>
     <use xlink:href="#Calibri-6f" x="658.789062"/>
     <use xlink:href="#Calibri-77" x="711.523438"/>
     <use xlink:href="#Calibri-20" x="783.007812"/>
     <use xlink:href="#Calibri-41" x="805.615234"/>
     <use xlink:href="#Calibri-6e" x="863.476562"/>
     <use xlink:href="#Calibri-6e" x="916.015625"/>
     <use xlink:href="#Calibri-75" x="968.554688"/>
     <use xlink:href="#Calibri-61" x="1021.09375"/>
     <use xlink:href="#Calibri-6c" x="1068.994141"/>
     <use xlink:href="#Calibri-20" x="1091.943359"/>
     <use xlink:href="#Calibri-48" x="1114.550781"/>
     <use xlink:href="#Calibri-6f" x="1176.855469"/>
     <use xlink:href="#Calibri-6d" x="1229.589844"/>
     <use xlink:href="#Calibri-65" x="1309.472656"/>
     <use xlink:href="#Calibri-20" x="1359.228516"/>
     <use xlink:href="#Calibri-56" x="1381.835938"/>
     <use xlink:href="#Calibri-61" x="1438.574219"/>
     <use xlink:href="#Calibri-6c" x="1486.474609"/>
     <use xlink:href="#Calibri-75" x="1509.423828"/>
     <use xlink:href="#Calibri-65" x="1561.962891"/>
     <use xlink:href="#Calibri-20" x="1611.71875"/>
     <use xlink:href="#Calibri-45" x="1634.326172"/>
     <use xlink:href="#Calibri-73" x="1683.154297"/>
     <use xlink:href="#Calibri-74" x="1722.265625"/>
     <use xlink:href="#Calibri-69" x="1755.761719"/>
     <use xlink:href="#Calibri-6d" x="1778.710938"/>
     <use xlink:href="#Calibri-61" x="1858.59375"/>
     <use xlink:href="#Calibri-74" x="1906.494141"/>
     <use xlink:href="#Calibri-65" x="1939.990234"/>
     <use xlink:href="#Calibri-73" x="1989.746094"/>
     <use xlink:href="#Calibri-20" x="2028.857422"/>
     <use xlink:href="#Calibri-4f" x="2051.464844"/>
     <use xlink:href="#Calibri-76" x="2117.675781"/>
     <use xlink:href="#Calibri-65" x="2162.841797"/>
     <use xlink:href="#Calibri-72" x="2212.597656"/>
     <use xlink:href="#Calibri-20" x="2247.460938"/>
     <use xlink:href="#Calibri-54" x="2270.068359"/>
     <use xlink:href="#Calibri-69" x="2318.798828"/>
     <use xlink:href="#Calibri-6d" x="2341.748047"/>
     <use xlink:href="#Calibri-65" x="2421.630859"/>
    </g>
   </g>
   <g id="legend_1">
    <g id="line2d_17">
     <path d="M 599.62937 53.192812 
L 610.62937 53.192812 
L 621.62937 53.192812 
" style="fill: none; stroke: #d0dd28; stroke-width: 1.5; stroke-linecap: square"/>
     <g>
      <use xlink:href="#m7ef0b86ded" x="610.62937" y="53.192812" style="fill: #d0dd28; stroke: #d0dd28"/>
     </g>
    </g>
    <g id="text_16">
     <!-- Sumner County -->
     <g style="fill: #00263e" transform="translate(630.42937 57.042812)scale(0.11 -0.11)">
      <defs>
       <path id="Calibri-53" d="M 2709 1134 
Q 2709 850 2604 628 
Q 2500 406 2314 251 
Q 2128 97 1876 19 
Q 1625 -59 1334 -59 
Q 1131 -59 957 -25 
Q 784 9 648 59 
Q 513 109 420 162 
Q 328 216 292 253 
Q 256 291 239 348 
Q 222 406 222 503 
Q 222 572 228 617 
Q 234 663 246 691 
Q 259 719 278 730 
Q 297 741 322 741 
Q 366 741 445 687 
Q 525 634 650 571 
Q 775 509 951 454 
Q 1128 400 1359 400 
Q 1534 400 1679 447 
Q 1825 494 1929 580 
Q 2034 666 2090 791 
Q 2147 916 2147 1075 
Q 2147 1247 2069 1369 
Q 1991 1491 1862 1583 
Q 1734 1675 1570 1751 
Q 1406 1828 1234 1908 
Q 1063 1988 900 2084 
Q 738 2181 609 2312 
Q 481 2444 401 2620 
Q 322 2797 322 3044 
Q 322 3297 414 3495 
Q 506 3694 670 3828 
Q 834 3963 1061 4033 
Q 1288 4103 1550 4103 
Q 1684 4103 1820 4079 
Q 1956 4056 2076 4017 
Q 2197 3978 2290 3929 
Q 2384 3881 2414 3851 
Q 2444 3822 2453 3805 
Q 2463 3788 2469 3761 
Q 2475 3734 2478 3696 
Q 2481 3659 2481 3600 
Q 2481 3544 2476 3500 
Q 2472 3456 2462 3426 
Q 2453 3397 2436 3383 
Q 2419 3369 2397 3369 
Q 2363 3369 2289 3412 
Q 2216 3456 2109 3511 
Q 2003 3566 1858 3611 
Q 1713 3656 1531 3656 
Q 1363 3656 1238 3611 
Q 1113 3566 1031 3491 
Q 950 3416 909 3312 
Q 869 3209 869 3094 
Q 869 2925 947 2803 
Q 1025 2681 1154 2587 
Q 1284 2494 1450 2416 
Q 1616 2338 1787 2258 
Q 1959 2178 2125 2083 
Q 2291 1988 2420 1858 
Q 2550 1728 2629 1551 
Q 2709 1375 2709 1134 
z
" transform="scale(0.015625)"/>
       <path id="Calibri-79" d="M 1759 0 
L 1384 -1034 
Q 1366 -1084 1289 -1111 
Q 1213 -1138 1056 -1138 
Q 975 -1138 925 -1130 
Q 875 -1122 848 -1103 
Q 822 -1084 819 -1053 
Q 816 -1022 834 -978 
L 1222 0 
Q 1194 13 1169 41 
Q 1144 69 1134 100 
L 131 2788 
Q 106 2853 106 2890 
Q 106 2928 131 2950 
Q 156 2972 212 2980 
Q 269 2988 363 2988 
Q 456 2988 509 2983 
Q 563 2978 594 2965 
Q 625 2953 639 2929 
Q 653 2906 669 2866 
L 1472 609 
L 1481 609 
L 2256 2878 
Q 2275 2938 2301 2955 
Q 2328 2972 2381 2980 
Q 2434 2988 2534 2988 
Q 2622 2988 2678 2980 
Q 2734 2972 2761 2950 
Q 2788 2928 2788 2890 
Q 2788 2853 2769 2797 
L 1759 0 
z
" transform="scale(0.015625)"/>
      </defs>
      <use xlink:href="#Calibri-53"/>
      <use xlink:href="#Calibri-75" x="45.947266"/>
      <use xlink:href="#Calibri-6d" x="98.486328"/>
      <use xlink:href="#Calibri-6e" x="178.369141"/>
      <use xlink:href="#Calibri-65" x="230.908203"/>
      <use xlink:href="#Calibri-72" x="280.664062"/>
      <use xlink:href="#Calibri-20" x="315.527344"/>
      <use xlink:href="#Calibri-43" x="338.134766"/>
      <use xlink:href="#Calibri-6f" x="391.455078"/>
      <use xlink:href="#Calibri-75" x="444.189453"/>
      <use xlink:href="#Calibri-6e" x="496.728516"/>
      <use xlink:href="#Calibri-74" x="549.267578"/>
      <use xlink:href="#Calibri-79" x="582.763672"/>
     </g>
    </g>
    <g id="line2d_18">
     <path d="M 599.62937 68.34875 
L 610.62937 68.34875 
L 621.62937 68.34875 
" style="fill: none; stroke: #d6d0d3; stroke-width: 1.5; stroke-linecap: square"/>
     <g>
      <use xlink:href="#m69fda9eff9" x="610.62937" y="68.34875" style="fill: #d6d0d3; stroke: #d6d0d3"/>
     </g>
    </g>
    <g id="text_17">
     <!-- Gallatin -->
     <g style="fill: #00263e" transform="translate(630.42937 72.19875)scale(0.11 -0.11)">
      <defs>
       <path id="Calibri-47" d="M 3575 3494 
Q 3575 3434 3569 3389 
Q 3563 3344 3550 3314 
Q 3538 3284 3519 3271 
Q 3500 3259 3478 3259 
Q 3441 3259 3353 3318 
Q 3266 3378 3119 3450 
Q 2972 3522 2767 3581 
Q 2563 3641 2281 3641 
Q 1947 3641 1681 3519 
Q 1416 3397 1231 3181 
Q 1047 2966 948 2669 
Q 850 2372 850 2025 
Q 850 1638 958 1338 
Q 1066 1038 1256 831 
Q 1447 625 1711 519 
Q 1975 413 2291 413 
Q 2478 413 2670 458 
Q 2863 503 3028 594 
L 3028 1772 
L 2091 1772 
Q 2038 1772 2011 1825 
Q 1984 1878 1984 1991 
Q 1984 2050 1990 2092 
Q 1997 2134 2011 2161 
Q 2025 2188 2044 2200 
Q 2063 2213 2091 2213 
L 3375 2213 
Q 3409 2213 3443 2200 
Q 3478 2188 3506 2163 
Q 3534 2138 3550 2094 
Q 3566 2050 3566 1994 
L 3566 453 
Q 3566 372 3537 312 
Q 3509 253 3418 208 
Q 3328 163 3184 109 
Q 3041 56 2887 18 
Q 2734 -19 2578 -37 
Q 2422 -56 2269 -56 
Q 1800 -56 1431 89 
Q 1063 234 808 503 
Q 553 772 418 1147 
Q 284 1522 284 1984 
Q 284 2466 429 2856 
Q 575 3247 839 3522 
Q 1103 3797 1473 3948 
Q 1844 4100 2294 4100 
Q 2525 4100 2728 4059 
Q 2931 4019 3089 3964 
Q 3247 3909 3355 3845 
Q 3463 3781 3503 3740 
Q 3544 3700 3559 3647 
Q 3575 3594 3575 3494 
z
" transform="scale(0.015625)"/>
      </defs>
      <use xlink:href="#Calibri-47"/>
      <use xlink:href="#Calibri-61" x="63.085938"/>
      <use xlink:href="#Calibri-6c" x="110.986328"/>
      <use xlink:href="#Calibri-6c" x="133.935547"/>
      <use xlink:href="#Calibri-61" x="156.884766"/>
      <use xlink:href="#Calibri-74" x="204.785156"/>
      <use xlink:href="#Calibri-69" x="238.28125"/>
      <use xlink:href="#Calibri-6e" x="261.230469"/>
     </g>
    </g>
    <g id="line2d_19">
     <path d="M 599.62937 83.504687 
L 610.62937 83.504687 
L 621.62937 83.504687 
" style="fill: none; stroke: #696466; stroke-width: 1.5; stroke-linecap: square"/>
     <g>
      <use xlink:href="#maa17655093" x="610.62937" y="83.504687" style="fill: #696466; stroke: #696466"/>
     </g>
    </g>
    <g id="text_18">
     <!-- Hendersonville -->
     <g style="fill: #00263e" transform="translate(630.42937 87.354687)scale(0.11 -0.11)">
      <defs>
       <path id="Calibri-64" d="M 2888 78 
Q 2888 53 2877 34 
Q 2866 16 2839 5 
Q 2813 -6 2769 -12 
Q 2725 -19 2663 -19 
Q 2597 -19 2553 -12 
Q 2509 -6 2481 5 
Q 2453 16 2440 34 
Q 2428 53 2428 78 
L 2428 450 
Q 2206 209 1967 75 
Q 1728 -59 1444 -59 
Q 1134 -59 915 61 
Q 697 181 561 386 
Q 425 591 362 867 
Q 300 1144 300 1450 
Q 300 1813 378 2105 
Q 456 2397 609 2603 
Q 763 2809 989 2920 
Q 1216 3031 1513 3031 
Q 1759 3031 1964 2923 
Q 2169 2816 2369 2606 
L 2369 4241 
Q 2369 4263 2380 4283 
Q 2391 4303 2422 4314 
Q 2453 4325 2501 4333 
Q 2550 4341 2625 4341 
Q 2703 4341 2753 4333 
Q 2803 4325 2831 4314 
Q 2859 4303 2873 4283 
Q 2888 4263 2888 4241 
L 2888 78 
z
M 2369 2056 
Q 2159 2316 1964 2452 
Q 1769 2588 1556 2588 
Q 1359 2588 1221 2494 
Q 1084 2400 998 2247 
Q 913 2094 873 1900 
Q 834 1706 834 1506 
Q 834 1294 867 1091 
Q 900 888 981 730 
Q 1063 572 1197 476 
Q 1331 381 1534 381 
Q 1638 381 1733 409 
Q 1828 438 1928 503 
Q 2028 569 2137 673 
Q 2247 778 2369 931 
L 2369 2056 
z
" transform="scale(0.015625)"/>
      </defs>
      <use xlink:href="#Calibri-48"/>
      <use xlink:href="#Calibri-65" x="62.304688"/>
      <use xlink:href="#Calibri-6e" x="112.060547"/>
      <use xlink:href="#Calibri-64" x="164.599609"/>
      <use xlink:href="#Calibri-65" x="217.138672"/>
      <use xlink:href="#Calibri-72" x="266.894531"/>
      <use xlink:href="#Calibri-73" x="301.757812"/>
      <use xlink:href="#Calibri-6f" x="340.869141"/>
      <use xlink:href="#Calibri-6e" x="393.603516"/>
      <use xlink:href="#Calibri-76" x="446.142578"/>
      <use xlink:href="#Calibri-69" x="491.308594"/>
      <use xlink:href="#Calibri-6c" x="514.257812"/>
      <use xlink:href="#Calibri-6c" x="537.207031"/>
      <use xlink:href="#Calibri-65" x="560.15625"/>
     </g>
    </g>
    <g id="line2d_20">
     <path d="M 599.62937 98.660625 
L 610.62937 98.660625 
L 621.62937 98.660625 
" style="fill: none; stroke: #62a67f; stroke-width: 1.5; stroke-linecap: square"/>
     <g>
      <use xlink:href="#medb97df583" x="610.62937" y="98.660625" style="fill: #62a67f; stroke: #62a67f"/>
     </g>
    </g>
    <g id="text_19">
     <!-- US -->
     <g style="fill: #00263e" transform="translate(630.42937 102.510625)scale(0.11 -0.11)">
      <defs>
       <path id="Calibri-55" d="M 3578 1494 
Q 3578 1125 3470 836 
Q 3363 547 3163 347 
Q 2963 147 2675 44 
Q 2388 -59 2022 -59 
Q 1688 -59 1413 37 
Q 1138 134 941 323 
Q 744 513 637 797 
Q 531 1081 531 1453 
L 531 3963 
Q 531 3988 543 4006 
Q 556 4025 587 4036 
Q 619 4047 669 4055 
Q 719 4063 800 4063 
Q 875 4063 928 4055 
Q 981 4047 1011 4036 
Q 1041 4025 1053 4006 
Q 1066 3988 1066 3963 
L 1066 1519 
Q 1066 1238 1134 1028 
Q 1203 819 1333 680 
Q 1463 541 1645 470 
Q 1828 400 2056 400 
Q 2291 400 2473 469 
Q 2656 538 2782 675 
Q 2909 813 2976 1016 
Q 3044 1219 3044 1491 
L 3044 3963 
Q 3044 3988 3056 4006 
Q 3069 4025 3100 4036 
Q 3131 4047 3182 4055 
Q 3234 4063 3313 4063 
Q 3388 4063 3439 4055 
Q 3491 4047 3520 4036 
Q 3550 4025 3564 4006 
Q 3578 3988 3578 3963 
L 3578 1494 
z
" transform="scale(0.015625)"/>
      </defs>
      <use xlink:href="#Calibri-55"/>
      <use xlink:href="#Calibri-53" x="64.160156"/>
     </g>
    </g>
   </g>
  </g>
 </g>
 <defs>
  <clipPath id="p8a5a60c4d3">
   <rect x="84.627813" y="39.442812" width="510.203594" height="256.905937"/>
  </clipPath>
 </defs>
</svg>
