<?xml version="1.0" encoding="utf-8" standalone="no"?>
<!DOCTYPE svg PUBLIC "-//W3C//DTD SVG 1.1//EN"
  "http://www.w3.org/Graphics/SVG/1.1/DTD/svg11.dtd">
<svg xmlns:xlink="http://www.w3.org/1999/xlink" width="710.64pt" height="346.36544pt" viewBox="0 0 710.64 346.36544" xmlns="http://www.w3.org/2000/svg" version="1.1">
 <metadata>
  <rdf:RDF xmlns:dc="http://purl.org/dc/elements/1.1/" xmlns:cc="http://creativecommons.org/ns#" xmlns:rdf="http://www.w3.org/1999/02/22-rdf-syntax-ns#">
   <cc:Work>
    <dc:type rdf:resource="http://purl.org/dc/dcmitype/StillImage"/>
    <dc:date>2023-04-25T11:00:09.421490</dc:date>
    <dc:format>image/svg+xml</dc:format>
    <dc:creator>
     <cc:Agent>
      <dc:title>Matplotlib v3.5.2, https://matplotlib.org/</dc:title>
     </cc:Agent>
    </dc:creator>
   </cc:Work>
  </rdf:RDF>
 </metadata>
 <defs>
  <style type="text/css">*{stroke-linejoin: round; stroke-linecap: butt}</style>
 </defs>
 <g id="figure_1">
  <g id="axes_1">
   <g id="table_1">
    <g id="patch_1">
     <path d="M 278.5785 98.667773 
M 358.217812 98.667773 
L 358.217812 71.94581 
M 278.5785 71.94581 
L 278.5785 98.667773 
" style="fill: #ffffff; stroke: #e1eff2; stroke-linejoin: miter"/>
    </g>
    <g id="text_1">
     <!-- Median Year  -->
     <g style="fill: #00263e" transform="translate(288.070812 82.610073)scale(0.11 -0.11)">
      <defs>
       <path id="Calibri-Bold-4d" d="M 5153 113 
Q 5153 81 5136 56 
Q 5119 31 5073 15 
Q 5028 0 4953 -9 
Q 4878 -19 4763 -19 
Q 4650 -19 4575 -9 
Q 4500 0 4456 15 
Q 4413 31 4394 56 
Q 4375 81 4375 113 
L 4375 3403 
L 4369 3403 
L 3197 116 
Q 3184 75 3156 48 
Q 3128 22 3079 6 
Q 3031 -9 2956 -14 
Q 2881 -19 2775 -19 
Q 2669 -19 2594 -11 
Q 2519 -3 2470 14 
Q 2422 31 2394 56 
Q 2366 81 2356 116 
L 1225 3403 
L 1219 3403 
L 1219 113 
Q 1219 81 1201 56 
Q 1184 31 1137 15 
Q 1091 0 1017 -9 
Q 944 -19 828 -19 
Q 716 -19 641 -9 
Q 566 0 520 15 
Q 475 31 458 56 
Q 441 81 441 113 
L 441 3716 
Q 441 3875 525 3959 
Q 609 4044 750 4044 
L 1288 4044 
Q 1431 4044 1534 4020 
Q 1638 3997 1713 3942 
Q 1788 3888 1838 3798 
Q 1888 3709 1925 3578 
L 2800 1169 
L 2813 1169 
L 3719 3572 
Q 3759 3703 3807 3793 
Q 3856 3884 3920 3940 
Q 3984 3997 4071 4020 
Q 4159 4044 4275 4044 
L 4828 4044 
Q 4913 4044 4973 4022 
Q 5034 4000 5073 3958 
Q 5113 3916 5133 3855 
Q 5153 3794 5153 3716 
L 5153 113 
z
" transform="scale(0.015625)"/>
       <path id="Calibri-Bold-65" d="M 2969 1581 
Q 2969 1438 2905 1369 
Q 2841 1300 2728 1300 
L 1031 1300 
Q 1031 1122 1073 976 
Q 1116 831 1208 729 
Q 1300 628 1445 575 
Q 1591 522 1794 522 
Q 2000 522 2156 551 
Q 2313 581 2427 617 
Q 2541 653 2616 683 
Q 2691 713 2738 713 
Q 2766 713 2784 702 
Q 2803 691 2815 662 
Q 2828 634 2833 582 
Q 2838 531 2838 453 
Q 2838 384 2834 336 
Q 2831 288 2825 253 
Q 2819 219 2806 195 
Q 2794 172 2773 150 
Q 2753 128 2662 90 
Q 2572 53 2431 17 
Q 2291 -19 2109 -45 
Q 1928 -72 1722 -72 
Q 1350 -72 1070 22 
Q 791 116 603 306 
Q 416 497 323 787 
Q 231 1078 231 1469 
Q 231 1841 328 2139 
Q 425 2438 609 2645 
Q 794 2853 1058 2962 
Q 1322 3072 1653 3072 
Q 2003 3072 2251 2969 
Q 2500 2866 2659 2683 
Q 2819 2500 2894 2250 
Q 2969 2000 2969 1706 
L 2969 1581 
z
M 2206 1806 
Q 2216 2138 2073 2327 
Q 1931 2516 1634 2516 
Q 1484 2516 1373 2459 
Q 1263 2403 1189 2308 
Q 1116 2213 1077 2083 
Q 1038 1953 1031 1806 
L 2206 1806 
z
" transform="scale(0.015625)"/>
       <path id="Calibri-Bold-64" d="M 3038 106 
Q 3038 72 3022 48 
Q 3006 25 2968 9 
Q 2931 -6 2867 -12 
Q 2803 -19 2709 -19 
Q 2609 -19 2546 -12 
Q 2484 -6 2445 9 
Q 2406 25 2389 48 
Q 2372 72 2372 106 
L 2372 416 
Q 2156 184 1920 56 
Q 1684 -72 1397 -72 
Q 1078 -72 858 51 
Q 638 175 498 384 
Q 359 594 296 873 
Q 234 1153 234 1463 
Q 234 1834 314 2131 
Q 394 2428 547 2637 
Q 700 2847 928 2959 
Q 1156 3072 1453 3072 
Q 1688 3072 1878 2976 
Q 2069 2881 2256 2697 
L 2256 4206 
Q 2256 4238 2273 4263 
Q 2291 4288 2336 4305 
Q 2381 4322 2456 4331 
Q 2531 4341 2647 4341 
Q 2763 4341 2838 4331 
Q 2913 4322 2956 4305 
Q 3000 4288 3019 4263 
Q 3038 4238 3038 4206 
L 3038 106 
z
M 2256 1969 
Q 2088 2181 1933 2293 
Q 1778 2406 1609 2406 
Q 1456 2406 1345 2329 
Q 1234 2253 1167 2125 
Q 1100 1997 1067 1839 
Q 1034 1681 1034 1516 
Q 1034 1341 1062 1175 
Q 1091 1009 1155 879 
Q 1219 750 1325 672 
Q 1431 594 1594 594 
Q 1675 594 1751 617 
Q 1828 641 1908 694 
Q 1988 747 2072 833 
Q 2156 919 2256 1044 
L 2256 1969 
z
" transform="scale(0.015625)"/>
       <path id="Calibri-Bold-69" d="M 1181 106 
Q 1181 75 1162 51 
Q 1144 28 1098 12 
Q 1053 -3 978 -11 
Q 903 -19 788 -19 
Q 672 -19 597 -11 
Q 522 -3 476 12 
Q 431 28 412 51 
Q 394 75 394 106 
L 394 2888 
Q 394 2919 412 2942 
Q 431 2966 476 2983 
Q 522 3000 597 3009 
Q 672 3019 788 3019 
Q 903 3019 978 3009 
Q 1053 3000 1098 2983 
Q 1144 2966 1162 2942 
Q 1181 2919 1181 2888 
L 1181 106 
z
M 1241 3838 
Q 1241 3600 1144 3509 
Q 1047 3419 784 3419 
Q 519 3419 426 3506 
Q 334 3594 334 3822 
Q 334 4059 429 4151 
Q 525 4244 791 4244 
Q 1053 4244 1147 4155 
Q 1241 4066 1241 3838 
z
" transform="scale(0.015625)"/>
       <path id="Calibri-Bold-61" d="M 2769 97 
Q 2769 53 2737 28 
Q 2706 3 2639 -8 
Q 2572 -19 2441 -19 
Q 2300 -19 2236 -8 
Q 2172 3 2145 28 
Q 2119 53 2119 97 
L 2119 319 
Q 1947 134 1726 31 
Q 1506 -72 1238 -72 
Q 1016 -72 830 -14 
Q 644 44 508 158 
Q 372 272 297 440 
Q 222 609 222 834 
Q 222 1078 317 1258 
Q 413 1438 602 1555 
Q 791 1672 1072 1728 
Q 1353 1784 1725 1784 
L 1997 1784 
L 1997 1953 
Q 1997 2084 1970 2182 
Q 1944 2281 1883 2347 
Q 1822 2413 1720 2444 
Q 1619 2475 1469 2475 
Q 1272 2475 1117 2431 
Q 963 2388 844 2334 
Q 725 2281 645 2237 
Q 566 2194 516 2194 
Q 481 2194 454 2216 
Q 428 2238 411 2278 
Q 394 2319 384 2378 
Q 375 2438 375 2509 
Q 375 2606 390 2662 
Q 406 2719 450 2764 
Q 494 2809 603 2864 
Q 713 2919 859 2966 
Q 1006 3013 1179 3042 
Q 1353 3072 1538 3072 
Q 1866 3072 2098 3008 
Q 2331 2944 2481 2811 
Q 2631 2678 2700 2468 
Q 2769 2259 2769 1972 
L 2769 97 
z
M 1997 1291 
L 1697 1291 
Q 1506 1291 1372 1262 
Q 1238 1234 1153 1178 
Q 1069 1122 1030 1042 
Q 991 963 991 859 
Q 991 684 1102 584 
Q 1213 484 1409 484 
Q 1575 484 1714 568 
Q 1853 653 1997 816 
L 1997 1291 
z
" transform="scale(0.015625)"/>
       <path id="Calibri-Bold-6e" d="M 3056 106 
Q 3056 75 3037 51 
Q 3019 28 2975 12 
Q 2931 -3 2854 -11 
Q 2778 -19 2666 -19 
Q 2550 -19 2473 -11 
Q 2397 -3 2353 12 
Q 2309 28 2290 51 
Q 2272 75 2272 106 
L 2272 1697 
Q 2272 1900 2242 2015 
Q 2213 2131 2156 2214 
Q 2100 2297 2011 2342 
Q 1922 2388 1803 2388 
Q 1653 2388 1500 2278 
Q 1347 2169 1181 1959 
L 1181 106 
Q 1181 75 1162 51 
Q 1144 28 1098 12 
Q 1053 -3 978 -11 
Q 903 -19 788 -19 
Q 672 -19 597 -11 
Q 522 -3 476 12 
Q 431 28 412 51 
Q 394 75 394 106 
L 394 2894 
Q 394 2925 409 2948 
Q 425 2972 465 2987 
Q 506 3003 570 3011 
Q 634 3019 731 3019 
Q 831 3019 897 3011 
Q 963 3003 998 2987 
Q 1034 2972 1050 2948 
Q 1066 2925 1066 2894 
L 1066 2572 
Q 1297 2822 1536 2947 
Q 1775 3072 2034 3072 
Q 2319 3072 2514 2978 
Q 2709 2884 2829 2723 
Q 2950 2563 3003 2347 
Q 3056 2131 3056 1828 
L 3056 106 
z
" transform="scale(0.015625)"/>
       <path id="Calibri-Bold-20" transform="scale(0.015625)"/>
       <path id="Calibri-Bold-59" d="M 2075 1534 
L 2075 113 
Q 2075 81 2054 56 
Q 2034 31 1987 15 
Q 1941 0 1861 -9 
Q 1781 -19 1663 -19 
Q 1541 -19 1462 -9 
Q 1384 0 1336 15 
Q 1288 31 1269 56 
Q 1250 81 1250 113 
L 1250 1534 
L 144 3738 
Q 84 3853 67 3917 
Q 50 3981 86 4014 
Q 122 4047 219 4055 
Q 316 4063 488 4063 
Q 631 4063 717 4056 
Q 803 4050 853 4033 
Q 903 4016 926 3987 
Q 950 3959 972 3916 
L 1422 2922 
Q 1488 2778 1552 2618 
Q 1616 2459 1681 2284 
L 1688 2284 
Q 1747 2453 1809 2612 
Q 1872 2772 1931 2916 
L 2375 3903 
Q 2391 3953 2414 3983 
Q 2438 4013 2484 4031 
Q 2531 4050 2612 4056 
Q 2694 4063 2828 4063 
Q 3006 4063 3104 4055 
Q 3203 4047 3239 4014 
Q 3275 3981 3256 3915 
Q 3238 3850 3181 3738 
L 2075 1534 
z
" transform="scale(0.015625)"/>
       <path id="Calibri-Bold-72" d="M 2184 2634 
Q 2184 2522 2178 2450 
Q 2172 2378 2159 2337 
Q 2147 2297 2126 2281 
Q 2106 2266 2075 2266 
Q 2050 2266 2019 2277 
Q 1988 2288 1948 2300 
Q 1909 2313 1862 2323 
Q 1816 2334 1759 2334 
Q 1694 2334 1628 2307 
Q 1563 2281 1492 2225 
Q 1422 2169 1345 2075 
Q 1269 1981 1181 1844 
L 1181 106 
Q 1181 75 1162 51 
Q 1144 28 1098 12 
Q 1053 -3 978 -11 
Q 903 -19 788 -19 
Q 672 -19 597 -11 
Q 522 -3 476 12 
Q 431 28 412 51 
Q 394 75 394 106 
L 394 2894 
Q 394 2925 409 2948 
Q 425 2972 465 2987 
Q 506 3003 570 3011 
Q 634 3019 731 3019 
Q 831 3019 897 3011 
Q 963 3003 998 2987 
Q 1034 2972 1050 2948 
Q 1066 2925 1066 2894 
L 1066 2547 
Q 1175 2703 1272 2804 
Q 1369 2906 1456 2965 
Q 1544 3025 1631 3048 
Q 1719 3072 1806 3072 
Q 1847 3072 1894 3067 
Q 1941 3063 1991 3052 
Q 2041 3041 2078 3027 
Q 2116 3013 2133 2997 
Q 2150 2981 2158 2962 
Q 2166 2944 2172 2911 
Q 2178 2878 2181 2812 
Q 2184 2747 2184 2634 
z
" transform="scale(0.015625)"/>
      </defs>
      <use xlink:href="#Calibri-Bold-4d"/>
      <use xlink:href="#Calibri-Bold-65" x="87.402344"/>
      <use xlink:href="#Calibri-Bold-64" x="137.744141"/>
      <use xlink:href="#Calibri-Bold-69" x="191.40625"/>
      <use xlink:href="#Calibri-Bold-61" x="215.966797"/>
      <use xlink:href="#Calibri-Bold-6e" x="265.332031"/>
      <use xlink:href="#Calibri-Bold-20" x="318.994141"/>
      <use xlink:href="#Calibri-Bold-59" x="341.601562"/>
      <use xlink:href="#Calibri-Bold-65" x="393.554688"/>
      <use xlink:href="#Calibri-Bold-61" x="443.896484"/>
      <use xlink:href="#Calibri-Bold-72" x="493.261719"/>
      <use xlink:href="#Calibri-Bold-20" x="528.808594"/>
     </g>
     <!-- Structure Built -->
     <g style="fill: #00263e" transform="translate(285.215109 93.531011)scale(0.11 -0.11)">
      <defs>
       <path id="Calibri-Bold-53" d="M 2838 1213 
Q 2838 894 2719 653 
Q 2600 413 2397 252 
Q 2194 91 1922 9 
Q 1650 -72 1341 -72 
Q 1131 -72 951 -37 
Q 772 -3 634 45 
Q 497 94 405 147 
Q 313 200 272 240 
Q 231 281 214 357 
Q 197 434 197 578 
Q 197 675 203 740 
Q 209 806 223 847 
Q 238 888 261 905 
Q 284 922 316 922 
Q 359 922 439 870 
Q 519 819 644 756 
Q 769 694 942 642 
Q 1116 591 1344 591 
Q 1494 591 1612 627 
Q 1731 663 1814 728 
Q 1897 794 1940 891 
Q 1984 988 1984 1106 
Q 1984 1244 1909 1342 
Q 1834 1441 1714 1517 
Q 1594 1594 1441 1661 
Q 1288 1728 1125 1803 
Q 963 1878 809 1973 
Q 656 2069 536 2201 
Q 416 2334 341 2515 
Q 266 2697 266 2950 
Q 266 3241 373 3461 
Q 481 3681 664 3826 
Q 847 3972 1095 4044 
Q 1344 4116 1622 4116 
Q 1766 4116 1909 4094 
Q 2053 4072 2178 4034 
Q 2303 3997 2400 3950 
Q 2497 3903 2528 3872 
Q 2559 3841 2570 3819 
Q 2581 3797 2589 3761 
Q 2597 3725 2600 3670 
Q 2603 3616 2603 3534 
Q 2603 3444 2598 3381 
Q 2594 3319 2583 3278 
Q 2572 3238 2551 3219 
Q 2531 3200 2497 3200 
Q 2463 3200 2388 3244 
Q 2313 3288 2203 3339 
Q 2094 3391 1950 3433 
Q 1806 3475 1634 3475 
Q 1500 3475 1400 3442 
Q 1300 3409 1233 3351 
Q 1166 3294 1133 3212 
Q 1100 3131 1100 3041 
Q 1100 2906 1173 2807 
Q 1247 2709 1370 2632 
Q 1494 2556 1650 2489 
Q 1806 2422 1968 2347 
Q 2131 2272 2287 2176 
Q 2444 2081 2566 1948 
Q 2688 1816 2763 1636 
Q 2838 1456 2838 1213 
z
" transform="scale(0.015625)"/>
       <path id="Calibri-Bold-74" d="M 2044 381 
Q 2044 244 2026 170 
Q 2009 97 1981 67 
Q 1953 38 1898 14 
Q 1844 -9 1770 -26 
Q 1697 -44 1611 -53 
Q 1525 -63 1438 -63 
Q 1203 -63 1031 -3 
Q 859 56 746 179 
Q 634 303 581 490 
Q 528 678 528 934 
L 528 2363 
L 194 2363 
Q 134 2363 103 2436 
Q 72 2509 72 2681 
Q 72 2772 80 2834 
Q 88 2897 103 2933 
Q 119 2969 142 2984 
Q 166 3000 197 3000 
L 528 3000 
L 528 3622 
Q 528 3653 545 3678 
Q 563 3703 608 3720 
Q 653 3738 729 3745 
Q 806 3753 919 3753 
Q 1034 3753 1111 3745 
Q 1188 3738 1231 3720 
Q 1275 3703 1294 3678 
Q 1313 3653 1313 3622 
L 1313 3000 
L 1919 3000 
Q 1950 3000 1973 2984 
Q 1997 2969 2012 2933 
Q 2028 2897 2036 2834 
Q 2044 2772 2044 2681 
Q 2044 2509 2012 2436 
Q 1981 2363 1922 2363 
L 1313 2363 
L 1313 1053 
Q 1313 825 1384 711 
Q 1456 597 1641 597 
Q 1703 597 1753 608 
Q 1803 619 1842 633 
Q 1881 647 1907 658 
Q 1934 669 1956 669 
Q 1975 669 1992 658 
Q 2009 647 2018 614 
Q 2028 581 2036 525 
Q 2044 469 2044 381 
z
" transform="scale(0.015625)"/>
       <path id="Calibri-Bold-75" d="M 3038 106 
Q 3038 75 3022 51 
Q 3006 28 2967 12 
Q 2928 -3 2864 -11 
Q 2800 -19 2703 -19 
Q 2600 -19 2536 -11 
Q 2472 -3 2434 12 
Q 2397 28 2381 51 
Q 2366 75 2366 106 
L 2366 428 
Q 2134 178 1895 53 
Q 1656 -72 1400 -72 
Q 1113 -72 917 22 
Q 722 116 601 278 
Q 481 441 429 655 
Q 378 869 378 1188 
L 378 2894 
Q 378 2925 395 2948 
Q 413 2972 458 2987 
Q 503 3003 579 3011 
Q 656 3019 769 3019 
Q 884 3019 959 3011 
Q 1034 3003 1079 2987 
Q 1125 2972 1144 2948 
Q 1163 2925 1163 2894 
L 1163 1319 
Q 1163 1100 1191 984 
Q 1219 869 1276 786 
Q 1334 703 1423 658 
Q 1513 613 1631 613 
Q 1781 613 1932 722 
Q 2084 831 2256 1041 
L 2256 2894 
Q 2256 2925 2273 2948 
Q 2291 2972 2336 2987 
Q 2381 3003 2456 3011 
Q 2531 3019 2647 3019 
Q 2763 3019 2838 3011 
Q 2913 3003 2956 2987 
Q 3000 2972 3019 2948 
Q 3038 2925 3038 2894 
L 3038 106 
z
" transform="scale(0.015625)"/>
       <path id="Calibri-Bold-63" d="M 2503 550 
Q 2503 469 2498 414 
Q 2494 359 2486 321 
Q 2478 284 2467 261 
Q 2456 238 2418 202 
Q 2381 166 2290 114 
Q 2200 63 2084 22 
Q 1969 -19 1833 -44 
Q 1697 -69 1553 -69 
Q 1231 -69 982 31 
Q 734 131 565 326 
Q 397 522 311 803 
Q 225 1084 225 1447 
Q 225 1866 329 2170 
Q 434 2475 621 2675 
Q 809 2875 1065 2972 
Q 1322 3069 1628 3069 
Q 1753 3069 1873 3047 
Q 1994 3025 2098 2987 
Q 2203 2950 2286 2903 
Q 2369 2856 2403 2822 
Q 2438 2788 2452 2764 
Q 2466 2741 2473 2703 
Q 2481 2666 2486 2611 
Q 2491 2556 2491 2478 
Q 2491 2297 2459 2223 
Q 2428 2150 2378 2150 
Q 2325 2150 2265 2194 
Q 2206 2238 2125 2291 
Q 2044 2344 1931 2387 
Q 1819 2431 1663 2431 
Q 1356 2431 1193 2195 
Q 1031 1959 1031 1503 
Q 1031 1278 1072 1106 
Q 1113 934 1192 818 
Q 1272 703 1392 645 
Q 1513 588 1672 588 
Q 1834 588 1951 636 
Q 2069 684 2156 743 
Q 2244 803 2303 851 
Q 2363 900 2403 900 
Q 2431 900 2450 884 
Q 2469 869 2480 826 
Q 2491 784 2497 718 
Q 2503 653 2503 550 
z
" transform="scale(0.015625)"/>
       <path id="Calibri-Bold-42" d="M 3369 1213 
Q 3369 997 3309 822 
Q 3250 647 3145 512 
Q 3041 378 2895 281 
Q 2750 184 2575 121 
Q 2400 59 2201 29 
Q 2003 0 1759 0 
L 684 0 
Q 581 0 511 61 
Q 441 122 441 259 
L 441 3784 
Q 441 3922 511 3983 
Q 581 4044 684 4044 
L 1700 4044 
Q 2072 4044 2330 3981 
Q 2588 3919 2764 3792 
Q 2941 3666 3034 3472 
Q 3128 3278 3128 3016 
Q 3128 2869 3090 2739 
Q 3053 2609 2981 2503 
Q 2909 2397 2804 2315 
Q 2700 2234 2566 2184 
Q 2738 2153 2883 2075 
Q 3028 1997 3136 1873 
Q 3244 1750 3306 1584 
Q 3369 1419 3369 1213 
z
M 2306 2916 
Q 2306 3038 2268 3134 
Q 2231 3231 2156 3295 
Q 2081 3359 1967 3393 
Q 1853 3428 1663 3428 
L 1247 3428 
L 1247 2378 
L 1706 2378 
Q 1884 2378 1990 2420 
Q 2097 2463 2167 2536 
Q 2238 2609 2272 2707 
Q 2306 2806 2306 2916 
z
M 2516 1184 
Q 2516 1325 2469 1436 
Q 2422 1547 2331 1622 
Q 2241 1697 2100 1737 
Q 1959 1778 1734 1778 
L 1247 1778 
L 1247 628 
L 1841 628 
Q 2013 628 2130 664 
Q 2247 700 2333 770 
Q 2419 841 2467 945 
Q 2516 1050 2516 1184 
z
" transform="scale(0.015625)"/>
       <path id="Calibri-Bold-6c" d="M 1181 106 
Q 1181 75 1162 51 
Q 1144 28 1098 12 
Q 1053 -3 978 -11 
Q 903 -19 788 -19 
Q 672 -19 597 -11 
Q 522 -3 476 12 
Q 431 28 412 51 
Q 394 75 394 106 
L 394 4216 
Q 394 4247 412 4272 
Q 431 4297 476 4314 
Q 522 4331 597 4340 
Q 672 4350 788 4350 
Q 903 4350 978 4340 
Q 1053 4331 1098 4314 
Q 1144 4297 1162 4272 
Q 1181 4247 1181 4216 
L 1181 106 
z
" transform="scale(0.015625)"/>
      </defs>
      <use xlink:href="#Calibri-Bold-53"/>
      <use xlink:href="#Calibri-Bold-74" x="47.265625"/>
      <use xlink:href="#Calibri-Bold-72" x="81.933594"/>
      <use xlink:href="#Calibri-Bold-75" x="117.480469"/>
      <use xlink:href="#Calibri-Bold-63" x="171.142578"/>
      <use xlink:href="#Calibri-Bold-74" x="212.988281"/>
      <use xlink:href="#Calibri-Bold-75" x="247.65625"/>
      <use xlink:href="#Calibri-Bold-72" x="301.318359"/>
      <use xlink:href="#Calibri-Bold-65" x="336.865234"/>
      <use xlink:href="#Calibri-Bold-20" x="387.207031"/>
      <use xlink:href="#Calibri-Bold-42" x="409.814453"/>
      <use xlink:href="#Calibri-Bold-75" x="465.869141"/>
      <use xlink:href="#Calibri-Bold-69" x="519.53125"/>
      <use xlink:href="#Calibri-Bold-6c" x="544.091797"/>
      <use xlink:href="#Calibri-Bold-74" x="568.652344"/>
     </g>
    </g>
    <g id="patch_2">
     <path d="M 358.217812 98.667773 
M 432.0615 98.667773 
L 432.0615 71.94581 
M 358.217812 71.94581 
L 358.217812 98.667773 
" style="fill: #ffffff; stroke: #e1eff2; stroke-linejoin: miter"/>
    </g>
    <g id="text_2">
     <!-- Median Age  -->
     <g style="fill: #00263e" transform="translate(366.399578 82.598042)scale(0.11 -0.11)">
      <defs>
       <path id="Calibri-Bold-41" d="M 3753 306 
Q 3791 194 3800 128 
Q 3809 63 3775 30 
Q 3741 -3 3653 -11 
Q 3566 -19 3413 -19 
Q 3253 -19 3164 -14 
Q 3075 -9 3028 5 
Q 2981 19 2962 44 
Q 2944 69 2931 109 
L 2659 922 
L 1141 922 
L 884 131 
Q 872 88 851 58 
Q 831 28 786 11 
Q 741 -6 658 -12 
Q 575 -19 441 -19 
Q 297 -19 215 -9 
Q 134 0 103 36 
Q 72 72 81 137 
Q 91 203 128 313 
L 1375 3900 
Q 1394 3953 1419 3986 
Q 1444 4019 1498 4036 
Q 1553 4053 1650 4058 
Q 1747 4063 1906 4063 
Q 2091 4063 2200 4058 
Q 2309 4053 2370 4036 
Q 2431 4019 2457 3984 
Q 2484 3950 2503 3891 
L 3753 306 
z
M 1897 3272 
L 1894 3272 
L 1322 1553 
L 2469 1553 
L 1897 3272 
z
" transform="scale(0.015625)"/>
       <path id="Calibri-Bold-67" d="M 2906 2700 
Q 2906 2550 2872 2478 
Q 2838 2406 2788 2406 
L 2459 2406 
Q 2528 2331 2558 2236 
Q 2588 2141 2588 2038 
Q 2588 1794 2506 1605 
Q 2425 1416 2273 1286 
Q 2122 1156 1908 1089 
Q 1694 1022 1431 1022 
Q 1297 1022 1175 1055 
Q 1053 1088 988 1131 
Q 950 1091 920 1034 
Q 891 978 891 909 
Q 891 819 970 761 
Q 1050 703 1194 697 
L 1872 672 
Q 2109 663 2295 605 
Q 2481 547 2607 442 
Q 2734 338 2801 191 
Q 2869 44 2869 -144 
Q 2869 -350 2778 -533 
Q 2688 -716 2506 -850 
Q 2325 -984 2051 -1062 
Q 1778 -1141 1413 -1141 
Q 1056 -1141 804 -1084 
Q 553 -1028 392 -928 
Q 231 -828 157 -689 
Q 84 -550 84 -384 
Q 84 -281 111 -187 
Q 138 -94 189 -8 
Q 241 78 316 156 
Q 391 234 488 306 
Q 353 378 279 501 
Q 206 625 206 772 
Q 206 956 290 1107 
Q 375 1259 509 1381 
Q 400 1491 334 1644 
Q 269 1797 269 2025 
Q 269 2269 355 2461 
Q 441 2653 594 2786 
Q 747 2919 959 2989 
Q 1172 3059 1428 3059 
Q 1559 3059 1679 3043 
Q 1800 3028 1903 3000 
L 2788 3000 
Q 2841 3000 2873 2931 
Q 2906 2863 2906 2700 
z
M 1897 2041 
Q 1897 2266 1772 2391 
Q 1647 2516 1419 2516 
Q 1303 2516 1215 2477 
Q 1128 2438 1070 2370 
Q 1013 2303 984 2214 
Q 956 2125 956 2028 
Q 956 1816 1081 1692 
Q 1206 1569 1428 1569 
Q 1547 1569 1634 1606 
Q 1722 1644 1780 1709 
Q 1838 1775 1867 1861 
Q 1897 1947 1897 2041 
z
M 2081 -184 
Q 2081 -44 1968 31 
Q 1856 106 1659 113 
L 1100 128 
Q 1019 69 970 14 
Q 922 -41 892 -91 
Q 863 -141 853 -187 
Q 844 -234 844 -284 
Q 844 -441 1001 -522 
Q 1159 -603 1447 -603 
Q 1625 -603 1747 -567 
Q 1869 -531 1944 -472 
Q 2019 -413 2050 -339 
Q 2081 -266 2081 -184 
z
" transform="scale(0.015625)"/>
      </defs>
      <use xlink:href="#Calibri-Bold-4d"/>
      <use xlink:href="#Calibri-Bold-65" x="87.402344"/>
      <use xlink:href="#Calibri-Bold-64" x="137.744141"/>
      <use xlink:href="#Calibri-Bold-69" x="191.40625"/>
      <use xlink:href="#Calibri-Bold-61" x="215.966797"/>
      <use xlink:href="#Calibri-Bold-6e" x="265.332031"/>
      <use xlink:href="#Calibri-Bold-20" x="318.994141"/>
      <use xlink:href="#Calibri-Bold-41" x="341.601562"/>
      <use xlink:href="#Calibri-Bold-67" x="402.197266"/>
      <use xlink:href="#Calibri-Bold-65" x="449.609375"/>
      <use xlink:href="#Calibri-Bold-20" x="499.951172"/>
     </g>
     <!-- All Structures -->
     <g style="fill: #00263e" transform="translate(364.371453 93.531011)scale(0.11 -0.11)">
      <defs>
       <path id="Calibri-Bold-73" d="M 2356 894 
Q 2356 656 2267 475 
Q 2178 294 2015 172 
Q 1853 50 1631 -11 
Q 1409 -72 1150 -72 
Q 994 -72 851 -48 
Q 709 -25 596 11 
Q 484 47 409 84 
Q 334 122 300 155 
Q 266 188 247 258 
Q 228 328 228 466 
Q 228 556 234 611 
Q 241 666 253 698 
Q 266 731 284 742 
Q 303 753 331 753 
Q 366 753 433 714 
Q 500 675 600 628 
Q 700 581 833 540 
Q 966 500 1134 500 
Q 1241 500 1323 522 
Q 1406 544 1467 584 
Q 1528 625 1559 687 
Q 1591 750 1591 831 
Q 1591 925 1533 992 
Q 1475 1059 1379 1109 
Q 1284 1159 1164 1203 
Q 1044 1247 917 1300 
Q 791 1353 670 1422 
Q 550 1491 454 1591 
Q 359 1691 301 1831 
Q 244 1972 244 2169 
Q 244 2369 322 2536 
Q 400 2703 547 2822 
Q 694 2941 905 3006 
Q 1116 3072 1378 3072 
Q 1509 3072 1632 3053 
Q 1756 3034 1856 3006 
Q 1956 2978 2025 2945 
Q 2094 2913 2123 2889 
Q 2153 2866 2165 2842 
Q 2178 2819 2184 2786 
Q 2191 2753 2195 2704 
Q 2200 2656 2200 2584 
Q 2200 2500 2195 2447 
Q 2191 2394 2180 2362 
Q 2169 2331 2150 2320 
Q 2131 2309 2106 2309 
Q 2078 2309 2018 2342 
Q 1959 2375 1870 2412 
Q 1781 2450 1664 2483 
Q 1547 2516 1397 2516 
Q 1291 2516 1212 2494 
Q 1134 2472 1084 2431 
Q 1034 2391 1009 2336 
Q 984 2281 984 2219 
Q 984 2122 1043 2056 
Q 1103 1991 1200 1941 
Q 1297 1891 1420 1847 
Q 1544 1803 1670 1751 
Q 1797 1700 1920 1631 
Q 2044 1563 2141 1463 
Q 2238 1363 2297 1223 
Q 2356 1084 2356 894 
z
" transform="scale(0.015625)"/>
      </defs>
      <use xlink:href="#Calibri-Bold-41"/>
      <use xlink:href="#Calibri-Bold-6c" x="60.595703"/>
      <use xlink:href="#Calibri-Bold-6c" x="85.15625"/>
      <use xlink:href="#Calibri-Bold-20" x="109.716797"/>
      <use xlink:href="#Calibri-Bold-53" x="132.324219"/>
      <use xlink:href="#Calibri-Bold-74" x="179.589844"/>
      <use xlink:href="#Calibri-Bold-72" x="214.257812"/>
      <use xlink:href="#Calibri-Bold-75" x="249.804688"/>
      <use xlink:href="#Calibri-Bold-63" x="303.466797"/>
      <use xlink:href="#Calibri-Bold-74" x="345.3125"/>
      <use xlink:href="#Calibri-Bold-75" x="379.980469"/>
      <use xlink:href="#Calibri-Bold-72" x="433.642578"/>
      <use xlink:href="#Calibri-Bold-65" x="469.189453"/>
      <use xlink:href="#Calibri-Bold-73" x="519.53125"/>
     </g>
    </g>
    <g id="patch_3">
     <path d="M 194.036625 125.389736 
L 278.5785 125.389736 
M 278.5785 98.667773 
L 194.036625 98.667773 
M 194.036625 125.389736 
" style="fill: #ffffff; stroke: #e1eff2; stroke-linejoin: miter"/>
    </g>
    <g id="text_3">
     <!-- Portland -->
     <g style="fill: #00263e" transform="translate(202.490813 114.792505)scale(0.11 -0.11)">
      <defs>
       <path id="Calibri-Bold-50" d="M 3209 2816 
Q 3209 2475 3103 2212 
Q 2997 1950 2794 1770 
Q 2591 1591 2295 1497 
Q 2000 1403 1600 1403 
L 1263 1403 
L 1263 113 
Q 1263 81 1242 56 
Q 1222 31 1175 15 
Q 1128 0 1050 -9 
Q 972 -19 850 -19 
Q 731 -19 651 -9 
Q 572 0 525 15 
Q 478 31 459 56 
Q 441 81 441 113 
L 441 3750 
Q 441 3897 517 3970 
Q 594 4044 719 4044 
L 1672 4044 
Q 1816 4044 1945 4033 
Q 2075 4022 2256 3986 
Q 2438 3950 2623 3853 
Q 2809 3756 2940 3607 
Q 3072 3459 3140 3261 
Q 3209 3063 3209 2816 
z
M 2350 2756 
Q 2350 2969 2275 3106 
Q 2200 3244 2090 3309 
Q 1981 3375 1861 3392 
Q 1741 3409 1613 3409 
L 1263 3409 
L 1263 2038 
L 1631 2038 
Q 1828 2038 1961 2091 
Q 2094 2144 2178 2239 
Q 2263 2334 2306 2467 
Q 2350 2600 2350 2756 
z
" transform="scale(0.015625)"/>
       <path id="Calibri-Bold-6f" d="M 3213 1528 
Q 3213 1172 3119 878 
Q 3025 584 2834 371 
Q 2644 159 2356 43 
Q 2069 -72 1684 -72 
Q 1313 -72 1038 31 
Q 763 134 581 331 
Q 400 528 312 815 
Q 225 1103 225 1472 
Q 225 1828 320 2123 
Q 416 2419 606 2630 
Q 797 2841 1083 2956 
Q 1369 3072 1753 3072 
Q 2128 3072 2403 2970 
Q 2678 2869 2858 2672 
Q 3038 2475 3125 2187 
Q 3213 1900 3213 1528 
z
M 2403 1497 
Q 2403 1703 2370 1876 
Q 2338 2050 2259 2178 
Q 2181 2306 2051 2378 
Q 1922 2450 1725 2450 
Q 1550 2450 1419 2386 
Q 1288 2322 1203 2198 
Q 1119 2075 1076 1901 
Q 1034 1728 1034 1506 
Q 1034 1300 1068 1126 
Q 1103 953 1179 825 
Q 1256 697 1387 626 
Q 1519 556 1713 556 
Q 1891 556 2022 620 
Q 2153 684 2237 806 
Q 2322 928 2362 1101 
Q 2403 1275 2403 1497 
z
" transform="scale(0.015625)"/>
      </defs>
      <use xlink:href="#Calibri-Bold-50"/>
      <use xlink:href="#Calibri-Bold-6f" x="53.222656"/>
      <use xlink:href="#Calibri-Bold-72" x="106.982422"/>
      <use xlink:href="#Calibri-Bold-74" x="142.529297"/>
      <use xlink:href="#Calibri-Bold-6c" x="177.197266"/>
      <use xlink:href="#Calibri-Bold-61" x="201.757812"/>
      <use xlink:href="#Calibri-Bold-6e" x="251.123047"/>
      <use xlink:href="#Calibri-Bold-64" x="304.785156"/>
     </g>
    </g>
    <g id="patch_4">
     <path d="M 278.5785 125.389736 
L 358.217812 125.389736 
L 358.217812 98.667773 
L 278.5785 98.667773 
z
" style="fill: #e1eff2; stroke: #00263e; stroke-linejoin: miter"/>
    </g>
    <g id="text_4">
     <!-- 1993 -->
     <g style="fill: #00263e" transform="translate(327.951381 114.791645)scale(0.11 -0.11)">
      <defs>
       <path id="Calibri-31" d="M 2897 213 
Q 2897 153 2887 112 
Q 2878 72 2862 47 
Q 2847 22 2826 11 
Q 2806 0 2784 0 
L 672 0 
Q 650 0 631 11 
Q 613 22 595 47 
Q 578 72 568 112 
Q 559 153 559 213 
Q 559 269 568 309 
Q 578 350 592 376 
Q 606 403 626 417 
Q 647 431 672 431 
L 1516 431 
L 1516 3506 
L 734 3041 
Q 675 3009 639 3003 
Q 603 2997 581 3017 
Q 559 3038 551 3084 
Q 544 3131 544 3203 
Q 544 3256 548 3293 
Q 553 3331 562 3356 
Q 572 3381 589 3400 
Q 606 3419 634 3438 
L 1566 4034 
Q 1578 4044 1597 4050 
Q 1616 4056 1644 4062 
Q 1672 4069 1709 4070 
Q 1747 4072 1803 4072 
Q 1878 4072 1928 4065 
Q 1978 4059 2006 4048 
Q 2034 4038 2043 4020 
Q 2053 4003 2053 3984 
L 2053 431 
L 2784 431 
Q 2809 431 2831 417 
Q 2853 403 2867 376 
Q 2881 350 2889 309 
Q 2897 269 2897 213 
z
" transform="scale(0.015625)"/>
       <path id="Calibri-39" d="M 2919 2181 
Q 2919 1919 2887 1650 
Q 2856 1381 2781 1132 
Q 2706 884 2579 667 
Q 2453 450 2261 287 
Q 2069 125 1805 33 
Q 1541 -59 1191 -59 
Q 1056 -59 929 -42 
Q 803 -25 701 0 
Q 600 25 531 53 
Q 463 81 431 109 
Q 400 138 386 186 
Q 372 234 372 316 
Q 372 384 376 425 
Q 381 466 390 487 
Q 400 509 417 517 
Q 434 525 459 525 
Q 494 525 556 501 
Q 619 478 714 450 
Q 809 422 937 398 
Q 1066 375 1225 375 
Q 1528 375 1745 492 
Q 1963 609 2100 806 
Q 2238 1003 2306 1262 
Q 2375 1522 2381 1809 
Q 2216 1713 1984 1638 
Q 1753 1563 1453 1563 
Q 1116 1563 886 1655 
Q 656 1747 517 1906 
Q 378 2066 317 2284 
Q 256 2503 256 2763 
Q 256 3031 334 3273 
Q 413 3516 578 3700 
Q 744 3884 1000 3993 
Q 1256 4103 1613 4103 
Q 1866 4103 2061 4039 
Q 2256 3975 2400 3854 
Q 2544 3734 2644 3564 
Q 2744 3394 2805 3178 
Q 2866 2963 2892 2711 
Q 2919 2459 2919 2181 
z
M 2372 2241 
Q 2372 2641 2319 2914 
Q 2266 3188 2162 3356 
Q 2059 3525 1909 3600 
Q 1759 3675 1563 3675 
Q 1359 3675 1215 3601 
Q 1072 3528 980 3404 
Q 888 3281 844 3125 
Q 800 2969 800 2803 
Q 800 2619 839 2466 
Q 878 2313 965 2206 
Q 1053 2100 1193 2042 
Q 1334 1984 1541 1984 
Q 1775 1984 1994 2054 
Q 2213 2125 2372 2241 
z
" transform="scale(0.015625)"/>
       <path id="Calibri-33" d="M 2856 1156 
Q 2856 878 2759 654 
Q 2663 431 2481 272 
Q 2300 113 2034 27 
Q 1769 -59 1434 -59 
Q 1231 -59 1054 -26 
Q 878 6 740 51 
Q 603 97 512 145 
Q 422 194 398 216 
Q 375 238 362 259 
Q 350 281 340 312 
Q 331 344 326 389 
Q 322 434 322 500 
Q 322 613 344 656 
Q 366 700 406 700 
Q 434 700 517 650 
Q 600 600 729 542 
Q 859 484 1032 434 
Q 1206 384 1419 384 
Q 1625 384 1781 437 
Q 1938 491 2044 587 
Q 2150 684 2203 817 
Q 2256 950 2256 1106 
Q 2256 1278 2189 1415 
Q 2122 1553 1992 1653 
Q 1863 1753 1673 1806 
Q 1484 1859 1244 1859 
L 859 1859 
Q 834 1859 811 1870 
Q 788 1881 770 1906 
Q 753 1931 742 1972 
Q 731 2013 731 2078 
Q 731 2138 740 2177 
Q 750 2216 767 2239 
Q 784 2263 806 2273 
Q 828 2284 856 2284 
L 1209 2284 
Q 1416 2284 1580 2337 
Q 1744 2391 1858 2491 
Q 1972 2591 2033 2730 
Q 2094 2869 2094 3041 
Q 2094 3166 2053 3280 
Q 2013 3394 1931 3478 
Q 1850 3563 1723 3611 
Q 1597 3659 1431 3659 
Q 1250 3659 1098 3604 
Q 947 3550 828 3487 
Q 709 3425 631 3370 
Q 553 3316 522 3316 
Q 500 3316 483 3323 
Q 466 3331 455 3354 
Q 444 3378 439 3420 
Q 434 3463 434 3531 
Q 434 3578 437 3614 
Q 441 3650 450 3676 
Q 459 3703 471 3725 
Q 484 3747 514 3776 
Q 544 3806 634 3862 
Q 725 3919 858 3973 
Q 991 4028 1164 4065 
Q 1338 4103 1538 4103 
Q 1819 4103 2031 4031 
Q 2244 3959 2386 3828 
Q 2528 3697 2598 3514 
Q 2669 3331 2669 3109 
Q 2669 2919 2619 2755 
Q 2569 2591 2472 2464 
Q 2375 2338 2234 2248 
Q 2094 2159 1909 2125 
L 1909 2119 
Q 2119 2097 2292 2014 
Q 2466 1931 2591 1806 
Q 2716 1681 2786 1514 
Q 2856 1347 2856 1156 
z
" transform="scale(0.015625)"/>
      </defs>
      <use xlink:href="#Calibri-31"/>
      <use xlink:href="#Calibri-39" x="50.683594"/>
      <use xlink:href="#Calibri-39" x="101.367188"/>
      <use xlink:href="#Calibri-33" x="152.050781"/>
     </g>
    </g>
    <g id="patch_5">
     <path d="M 358.217812 125.389736 
L 432.0615 125.389736 
L 432.0615 98.667773 
L 358.217812 98.667773 
z
" style="fill: #e1eff2; stroke: #00263e; stroke-linejoin: miter"/>
    </g>
    <g id="text_5">
     <!-- 27 -->
     <g style="fill: #00263e" transform="translate(413.525881 114.791645)scale(0.11 -0.11)">
      <defs>
       <path id="Calibri-32" d="M 2888 231 
Q 2888 175 2880 131 
Q 2872 88 2858 58 
Q 2844 28 2820 14 
Q 2797 0 2769 0 
L 534 0 
Q 491 0 458 11 
Q 425 22 401 47 
Q 378 72 367 119 
Q 356 166 356 234 
Q 356 297 361 344 
Q 366 391 381 427 
Q 397 463 420 498 
Q 444 534 481 575 
L 1266 1406 
Q 1538 1694 1702 1922 
Q 1866 2150 1955 2337 
Q 2044 2525 2072 2678 
Q 2100 2831 2100 2966 
Q 2100 3100 2056 3220 
Q 2013 3341 1930 3431 
Q 1847 3522 1722 3575 
Q 1597 3628 1434 3628 
Q 1244 3628 1092 3575 
Q 941 3522 827 3459 
Q 713 3397 636 3344 
Q 559 3291 522 3291 
Q 500 3291 483 3303 
Q 466 3316 455 3344 
Q 444 3372 437 3419 
Q 431 3466 431 3531 
Q 431 3578 434 3612 
Q 438 3647 445 3672 
Q 453 3697 465 3719 
Q 478 3741 515 3773 
Q 553 3806 645 3862 
Q 738 3919 877 3973 
Q 1016 4028 1183 4065 
Q 1350 4103 1534 4103 
Q 1828 4103 2048 4020 
Q 2269 3938 2414 3794 
Q 2559 3650 2631 3459 
Q 2703 3269 2703 3053 
Q 2703 2859 2668 2667 
Q 2634 2475 2523 2251 
Q 2413 2028 2203 1754 
Q 1994 1481 1647 1125 
L 1006 456 
L 2766 456 
Q 2791 456 2814 442 
Q 2838 428 2855 400 
Q 2872 372 2880 330 
Q 2888 288 2888 231 
z
" transform="scale(0.015625)"/>
       <path id="Calibri-37" d="M 2947 3813 
Q 2947 3756 2942 3711 
Q 2938 3666 2930 3623 
Q 2922 3581 2908 3542 
Q 2894 3503 2875 3459 
L 1419 103 
Q 1403 66 1379 42 
Q 1356 19 1320 5 
Q 1284 -9 1228 -14 
Q 1172 -19 1091 -19 
Q 984 -19 925 -9 
Q 866 0 839 20 
Q 813 41 816 70 
Q 819 100 838 141 
L 2369 3572 
L 428 3572 
Q 369 3572 339 3634 
Q 309 3697 309 3809 
Q 309 3869 317 3912 
Q 325 3956 340 3986 
Q 356 4016 378 4030 
Q 400 4044 428 4044 
L 2784 4044 
Q 2828 4044 2861 4034 
Q 2894 4025 2911 3997 
Q 2928 3969 2937 3925 
Q 2947 3881 2947 3813 
z
" transform="scale(0.015625)"/>
      </defs>
      <use xlink:href="#Calibri-32"/>
      <use xlink:href="#Calibri-37" x="50.683594"/>
     </g>
    </g>
    <g id="patch_6">
     <path d="M 194.036625 152.111699 
L 278.5785 152.111699 
M 278.5785 125.389736 
L 194.036625 125.389736 
M 194.036625 152.111699 
" style="fill: #ffffff; stroke: #e1eff2; stroke-linejoin: miter"/>
    </g>
    <g id="text_6">
     <!-- Sumner County -->
     <g style="fill: #00263e" transform="translate(202.490813 141.514468)scale(0.11 -0.11)">
      <defs>
       <path id="Calibri-Bold-6d" d="M 4828 106 
Q 4828 75 4809 51 
Q 4791 28 4747 12 
Q 4703 -3 4628 -11 
Q 4553 -19 4438 -19 
Q 4319 -19 4244 -11 
Q 4169 -3 4123 12 
Q 4078 28 4061 51 
Q 4044 75 4044 106 
L 4044 1759 
Q 4044 1900 4017 2015 
Q 3991 2131 3936 2214 
Q 3881 2297 3798 2342 
Q 3716 2388 3600 2388 
Q 3459 2388 3315 2278 
Q 3172 2169 3003 1959 
L 3003 106 
Q 3003 75 2984 51 
Q 2966 28 2920 12 
Q 2875 -3 2800 -11 
Q 2725 -19 2613 -19 
Q 2497 -19 2422 -11 
Q 2347 -3 2301 12 
Q 2256 28 2237 51 
Q 2219 75 2219 106 
L 2219 1759 
Q 2219 1900 2192 2015 
Q 2166 2131 2112 2214 
Q 2059 2297 1975 2342 
Q 1891 2388 1778 2388 
Q 1634 2388 1490 2278 
Q 1347 2169 1181 1959 
L 1181 106 
Q 1181 75 1162 51 
Q 1144 28 1098 12 
Q 1053 -3 978 -11 
Q 903 -19 788 -19 
Q 672 -19 597 -11 
Q 522 -3 476 12 
Q 431 28 412 51 
Q 394 75 394 106 
L 394 2894 
Q 394 2925 409 2948 
Q 425 2972 465 2987 
Q 506 3003 570 3011 
Q 634 3019 731 3019 
Q 831 3019 897 3011 
Q 963 3003 998 2987 
Q 1034 2972 1050 2948 
Q 1066 2925 1066 2894 
L 1066 2572 
Q 1297 2822 1526 2947 
Q 1756 3072 2006 3072 
Q 2178 3072 2315 3036 
Q 2453 3000 2561 2933 
Q 2669 2866 2747 2772 
Q 2825 2678 2878 2563 
Q 3003 2697 3123 2794 
Q 3244 2891 3361 2952 
Q 3478 3013 3595 3042 
Q 3713 3072 3834 3072 
Q 4113 3072 4303 2978 
Q 4494 2884 4611 2723 
Q 4728 2563 4778 2347 
Q 4828 2131 4828 1891 
L 4828 106 
z
" transform="scale(0.015625)"/>
       <path id="Calibri-Bold-43" d="M 3238 613 
Q 3238 534 3233 479 
Q 3228 425 3218 386 
Q 3209 347 3193 319 
Q 3178 291 3143 255 
Q 3109 219 3011 162 
Q 2913 106 2770 54 
Q 2628 3 2445 -31 
Q 2263 -66 2050 -66 
Q 1634 -66 1300 62 
Q 966 191 731 445 
Q 497 700 372 1081 
Q 247 1463 247 1969 
Q 247 2484 384 2884 
Q 522 3284 769 3556 
Q 1016 3828 1361 3968 
Q 1706 4109 2122 4109 
Q 2291 4109 2447 4081 
Q 2603 4053 2736 4008 
Q 2869 3963 2975 3903 
Q 3081 3844 3123 3801 
Q 3166 3759 3181 3731 
Q 3197 3703 3206 3659 
Q 3216 3616 3220 3556 
Q 3225 3497 3225 3409 
Q 3225 3316 3219 3250 
Q 3213 3184 3197 3143 
Q 3181 3103 3159 3084 
Q 3138 3066 3109 3066 
Q 3063 3066 2991 3120 
Q 2919 3175 2805 3242 
Q 2691 3309 2533 3364 
Q 2375 3419 2156 3419 
Q 1916 3419 1727 3320 
Q 1538 3222 1405 3039 
Q 1272 2856 1203 2597 
Q 1134 2338 1134 2013 
Q 1134 1656 1207 1395 
Q 1281 1134 1417 965 
Q 1553 797 1745 714 
Q 1938 631 2178 631 
Q 2397 631 2556 682 
Q 2716 734 2830 796 
Q 2944 859 3017 909 
Q 3091 959 3131 959 
Q 3163 959 3181 946 
Q 3200 934 3212 896 
Q 3225 859 3231 792 
Q 3238 725 3238 613 
z
" transform="scale(0.015625)"/>
       <path id="Calibri-Bold-79" d="M 2009 0 
L 1672 -988 
Q 1644 -1066 1519 -1100 
Q 1394 -1134 1153 -1134 
Q 1028 -1134 953 -1123 
Q 878 -1113 840 -1088 
Q 803 -1063 800 -1025 
Q 797 -988 819 -934 
L 1191 0 
Q 1150 19 1117 58 
Q 1084 97 1069 141 
L 109 2703 
Q 69 2813 69 2870 
Q 69 2928 106 2961 
Q 144 2994 233 3006 
Q 322 3019 469 3019 
Q 603 3019 681 3014 
Q 759 3009 803 2990 
Q 847 2972 869 2933 
Q 891 2894 913 2822 
L 1569 956 
L 1578 956 
L 2178 2859 
Q 2197 2941 2226 2967 
Q 2256 2994 2325 3006 
Q 2394 3019 2566 3019 
Q 2700 3019 2789 3006 
Q 2878 2994 2920 2959 
Q 2963 2925 2963 2867 
Q 2963 2809 2938 2731 
L 2009 0 
z
" transform="scale(0.015625)"/>
      </defs>
      <use xlink:href="#Calibri-Bold-53"/>
      <use xlink:href="#Calibri-Bold-75" x="47.265625"/>
      <use xlink:href="#Calibri-Bold-6d" x="100.927734"/>
      <use xlink:href="#Calibri-Bold-6e" x="182.275391"/>
      <use xlink:href="#Calibri-Bold-65" x="235.9375"/>
      <use xlink:href="#Calibri-Bold-72" x="286.279297"/>
      <use xlink:href="#Calibri-Bold-20" x="321.826172"/>
      <use xlink:href="#Calibri-Bold-43" x="344.433594"/>
      <use xlink:href="#Calibri-Bold-6f" x="397.363281"/>
      <use xlink:href="#Calibri-Bold-75" x="451.123047"/>
      <use xlink:href="#Calibri-Bold-6e" x="504.785156"/>
      <use xlink:href="#Calibri-Bold-74" x="558.447266"/>
      <use xlink:href="#Calibri-Bold-79" x="593.115234"/>
     </g>
    </g>
    <g id="patch_7">
     <path d="M 278.5785 152.111699 
L 358.217812 152.111699 
L 358.217812 125.389736 
L 278.5785 125.389736 
z
" style="fill: #f4f9f9; stroke: #00263e; stroke-linejoin: miter"/>
    </g>
    <g id="text_7">
     <!-- 1992 -->
     <g style="fill: #00263e" transform="translate(327.951381 141.513608)scale(0.11 -0.11)">
      <use xlink:href="#Calibri-31"/>
      <use xlink:href="#Calibri-39" x="50.683594"/>
      <use xlink:href="#Calibri-39" x="101.367188"/>
      <use xlink:href="#Calibri-32" x="152.050781"/>
     </g>
    </g>
    <g id="patch_8">
     <path d="M 358.217812 152.111699 
L 432.0615 152.111699 
L 432.0615 125.389736 
L 358.217812 125.389736 
z
" style="fill: #f4f9f9; stroke: #00263e; stroke-linejoin: miter"/>
    </g>
    <g id="text_8">
     <!-- 28 -->
     <g style="fill: #00263e" transform="translate(413.525881 141.513608)scale(0.11 -0.11)">
      <defs>
       <path id="Calibri-38" d="M 2981 1038 
Q 2981 775 2887 570 
Q 2794 366 2617 225 
Q 2441 84 2181 12 
Q 1922 -59 1588 -59 
Q 1275 -59 1028 6 
Q 781 72 609 200 
Q 438 328 347 515 
Q 256 703 256 944 
Q 256 1134 318 1293 
Q 381 1453 498 1587 
Q 616 1722 787 1839 
Q 959 1956 1175 2063 
Q 988 2159 844 2267 
Q 700 2375 600 2501 
Q 500 2628 448 2772 
Q 397 2916 397 3084 
Q 397 3297 473 3483 
Q 550 3669 704 3806 
Q 859 3944 1098 4023 
Q 1338 4103 1656 4103 
Q 1963 4103 2186 4029 
Q 2409 3956 2554 3829 
Q 2700 3703 2769 3531 
Q 2838 3359 2838 3163 
Q 2838 3003 2786 2856 
Q 2734 2709 2634 2578 
Q 2534 2447 2389 2333 
Q 2244 2219 2056 2119 
Q 2278 2009 2451 1893 
Q 2625 1778 2742 1645 
Q 2859 1513 2920 1364 
Q 2981 1216 2981 1038 
z
M 2306 3113 
Q 2306 3244 2261 3350 
Q 2216 3456 2128 3531 
Q 2041 3606 1911 3645 
Q 1781 3684 1616 3684 
Q 1278 3684 1104 3531 
Q 931 3378 931 3113 
Q 931 2991 973 2886 
Q 1016 2781 1105 2687 
Q 1194 2594 1330 2505 
Q 1466 2416 1653 2319 
Q 1969 2481 2137 2678 
Q 2306 2875 2306 3113 
z
M 2438 981 
Q 2438 1125 2384 1242 
Q 2331 1359 2223 1461 
Q 2116 1563 1955 1658 
Q 1794 1753 1581 1856 
Q 1384 1759 1236 1662 
Q 1088 1566 992 1462 
Q 897 1359 848 1245 
Q 800 1131 800 994 
Q 800 691 1008 525 
Q 1216 359 1628 359 
Q 2028 359 2233 526 
Q 2438 694 2438 981 
z
" transform="scale(0.015625)"/>
      </defs>
      <use xlink:href="#Calibri-32"/>
      <use xlink:href="#Calibri-38" x="50.683594"/>
     </g>
    </g>
    <g id="patch_9">
     <path d="M 194.036625 178.833662 
L 278.5785 178.833662 
M 278.5785 152.111699 
L 194.036625 152.111699 
M 194.036625 178.833662 
" style="fill: #ffffff; stroke: #e1eff2; stroke-linejoin: miter"/>
    </g>
    <g id="text_9">
     <!-- Gallatin -->
     <g style="fill: #00263e" transform="translate(202.490813 168.236431)scale(0.11 -0.11)">
      <defs>
       <path id="Calibri-Bold-47" d="M 3684 3416 
Q 3684 3325 3676 3259 
Q 3669 3194 3655 3155 
Q 3641 3116 3620 3100 
Q 3600 3084 3572 3084 
Q 3531 3084 3440 3140 
Q 3350 3197 3200 3262 
Q 3050 3328 2842 3384 
Q 2634 3441 2359 3441 
Q 2066 3441 1828 3339 
Q 1591 3238 1422 3052 
Q 1253 2866 1162 2605 
Q 1072 2344 1072 2028 
Q 1072 1681 1164 1417 
Q 1256 1153 1422 975 
Q 1588 797 1820 706 
Q 2053 616 2334 616 
Q 2472 616 2606 647 
Q 2741 678 2856 741 
L 2856 1678 
L 2091 1678 
Q 2034 1678 2003 1748 
Q 1972 1819 1972 1988 
Q 1972 2075 1980 2134 
Q 1988 2194 2003 2230 
Q 2019 2266 2041 2283 
Q 2063 2300 2091 2300 
L 3456 2300 
Q 3506 2300 3545 2283 
Q 3584 2266 3614 2231 
Q 3644 2197 3659 2148 
Q 3675 2100 3675 2038 
L 3675 428 
Q 3675 334 3642 264 
Q 3609 194 3507 153 
Q 3406 113 3256 69 
Q 3106 25 2945 -6 
Q 2784 -38 2620 -53 
Q 2456 -69 2291 -69 
Q 1806 -69 1423 70 
Q 1041 209 775 473 
Q 509 738 368 1117 
Q 228 1497 228 1978 
Q 228 2475 378 2870 
Q 528 3266 803 3542 
Q 1078 3819 1467 3966 
Q 1856 4113 2334 4113 
Q 2597 4113 2812 4077 
Q 3028 4041 3189 3989 
Q 3350 3938 3456 3878 
Q 3563 3819 3605 3775 
Q 3647 3731 3665 3651 
Q 3684 3572 3684 3416 
z
" transform="scale(0.015625)"/>
      </defs>
      <use xlink:href="#Calibri-Bold-47"/>
      <use xlink:href="#Calibri-Bold-61" x="63.720703"/>
      <use xlink:href="#Calibri-Bold-6c" x="113.085938"/>
      <use xlink:href="#Calibri-Bold-6c" x="137.646484"/>
      <use xlink:href="#Calibri-Bold-61" x="162.207031"/>
      <use xlink:href="#Calibri-Bold-74" x="211.572266"/>
      <use xlink:href="#Calibri-Bold-69" x="246.240234"/>
      <use xlink:href="#Calibri-Bold-6e" x="270.800781"/>
     </g>
    </g>
    <g id="patch_10">
     <path d="M 278.5785 178.833662 
L 358.217812 178.833662 
L 358.217812 152.111699 
L 278.5785 152.111699 
z
" style="fill: #e1eff2; stroke: #00263e; stroke-linejoin: miter"/>
    </g>
    <g id="text_10">
     <!-- 1998 -->
     <g style="fill: #00263e" transform="translate(327.951381 168.235571)scale(0.11 -0.11)">
      <use xlink:href="#Calibri-31"/>
      <use xlink:href="#Calibri-39" x="50.683594"/>
      <use xlink:href="#Calibri-39" x="101.367188"/>
      <use xlink:href="#Calibri-38" x="152.050781"/>
     </g>
    </g>
    <g id="patch_11">
     <path d="M 358.217812 178.833662 
L 432.0615 178.833662 
L 432.0615 152.111699 
L 358.217812 152.111699 
z
" style="fill: #e1eff2; stroke: #00263e; stroke-linejoin: miter"/>
    </g>
    <g id="text_11">
     <!-- 22 -->
     <g style="fill: #00263e" transform="translate(413.525881 168.235571)scale(0.11 -0.11)">
      <use xlink:href="#Calibri-32"/>
      <use xlink:href="#Calibri-32" x="50.683594"/>
     </g>
    </g>
    <g id="patch_12">
     <path d="M 194.036625 205.555625 
L 278.5785 205.555625 
M 278.5785 178.833662 
L 194.036625 178.833662 
M 194.036625 205.555625 
" style="fill: #ffffff; stroke: #e1eff2; stroke-linejoin: miter"/>
    </g>
    <g id="text_12">
     <!-- Goodlettsville -->
     <g style="fill: #00263e" transform="translate(202.490813 194.958394)scale(0.11 -0.11)">
      <defs>
       <path id="Calibri-Bold-76" d="M 2959 2897 
Q 2959 2881 2957 2859 
Q 2956 2838 2951 2811 
Q 2947 2784 2939 2750 
Q 2931 2716 2919 2672 
L 2081 150 
Q 2066 97 2039 64 
Q 2013 31 1952 12 
Q 1891 -6 1786 -12 
Q 1681 -19 1513 -19 
Q 1347 -19 1242 -11 
Q 1138 -3 1078 15 
Q 1019 34 992 67 
Q 966 100 950 150 
L 113 2672 
Q 94 2734 83 2784 
Q 72 2834 70 2856 
Q 69 2878 69 2897 
Q 69 2928 86 2951 
Q 103 2975 147 2990 
Q 191 3006 267 3012 
Q 344 3019 459 3019 
Q 588 3019 666 3011 
Q 744 3003 789 2989 
Q 834 2975 853 2948 
Q 872 2922 884 2884 
L 1519 838 
L 1538 759 
L 1556 838 
L 2181 2884 
Q 2191 2922 2211 2948 
Q 2231 2975 2275 2989 
Q 2319 3003 2392 3011 
Q 2466 3019 2584 3019 
Q 2700 3019 2773 3012 
Q 2847 3006 2887 2990 
Q 2928 2975 2943 2951 
Q 2959 2928 2959 2897 
z
" transform="scale(0.015625)"/>
      </defs>
      <use xlink:href="#Calibri-Bold-47"/>
      <use xlink:href="#Calibri-Bold-6f" x="63.720703"/>
      <use xlink:href="#Calibri-Bold-6f" x="117.480469"/>
      <use xlink:href="#Calibri-Bold-64" x="171.240234"/>
      <use xlink:href="#Calibri-Bold-6c" x="224.902344"/>
      <use xlink:href="#Calibri-Bold-65" x="249.462891"/>
      <use xlink:href="#Calibri-Bold-74" x="299.804688"/>
      <use xlink:href="#Calibri-Bold-74" x="334.472656"/>
      <use xlink:href="#Calibri-Bold-73" x="369.140625"/>
      <use xlink:href="#Calibri-Bold-76" x="409.033203"/>
      <use xlink:href="#Calibri-Bold-69" x="456.347656"/>
      <use xlink:href="#Calibri-Bold-6c" x="480.908203"/>
      <use xlink:href="#Calibri-Bold-6c" x="505.46875"/>
      <use xlink:href="#Calibri-Bold-65" x="530.029297"/>
     </g>
    </g>
    <g id="patch_13">
     <path d="M 278.5785 205.555625 
L 358.217812 205.555625 
L 358.217812 178.833662 
L 278.5785 178.833662 
z
" style="fill: #f4f9f9; stroke: #00263e; stroke-linejoin: miter"/>
    </g>
    <g id="text_13">
     <!-- 1987 -->
     <g style="fill: #00263e" transform="translate(327.951381 194.957534)scale(0.11 -0.11)">
      <use xlink:href="#Calibri-31"/>
      <use xlink:href="#Calibri-39" x="50.683594"/>
      <use xlink:href="#Calibri-38" x="101.367188"/>
      <use xlink:href="#Calibri-37" x="152.050781"/>
     </g>
    </g>
    <g id="patch_14">
     <path d="M 358.217812 205.555625 
L 432.0615 205.555625 
L 432.0615 178.833662 
L 358.217812 178.833662 
z
" style="fill: #f4f9f9; stroke: #00263e; stroke-linejoin: miter"/>
    </g>
    <g id="text_14">
     <!-- 33 -->
     <g style="fill: #00263e" transform="translate(413.525881 194.957534)scale(0.11 -0.11)">
      <use xlink:href="#Calibri-33"/>
      <use xlink:href="#Calibri-33" x="50.683594"/>
     </g>
    </g>
    <g id="patch_15">
     <path d="M 194.036625 232.277588 
L 278.5785 232.277588 
M 278.5785 205.555625 
L 194.036625 205.555625 
M 194.036625 232.277588 
" style="fill: #ffffff; stroke: #e1eff2; stroke-linejoin: miter"/>
    </g>
    <g id="text_15">
     <!-- Hendersonville -->
     <g style="fill: #00263e" transform="translate(202.490813 221.680356)scale(0.11 -0.11)">
      <defs>
       <path id="Calibri-Bold-48" d="M 3597 113 
Q 3597 81 3576 56 
Q 3556 31 3509 15 
Q 3463 0 3384 -9 
Q 3306 -19 3188 -19 
Q 3066 -19 2986 -9 
Q 2906 0 2861 15 
Q 2816 31 2795 56 
Q 2775 81 2775 113 
L 2775 1747 
L 1263 1747 
L 1263 113 
Q 1263 81 1244 56 
Q 1225 31 1178 15 
Q 1131 0 1053 -9 
Q 975 -19 853 -19 
Q 734 -19 654 -9 
Q 575 0 528 15 
Q 481 31 461 56 
Q 441 81 441 113 
L 441 3931 
Q 441 3963 461 3988 
Q 481 4013 528 4028 
Q 575 4044 654 4053 
Q 734 4063 853 4063 
Q 975 4063 1053 4053 
Q 1131 4044 1178 4028 
Q 1225 4013 1244 3988 
Q 1263 3963 1263 3931 
L 1263 2447 
L 2775 2447 
L 2775 3931 
Q 2775 3963 2795 3988 
Q 2816 4013 2861 4028 
Q 2906 4044 2986 4053 
Q 3066 4063 3188 4063 
Q 3306 4063 3384 4053 
Q 3463 4044 3509 4028 
Q 3556 4013 3576 3988 
Q 3597 3963 3597 3931 
L 3597 113 
z
" transform="scale(0.015625)"/>
      </defs>
      <use xlink:href="#Calibri-Bold-48"/>
      <use xlink:href="#Calibri-Bold-65" x="63.085938"/>
      <use xlink:href="#Calibri-Bold-6e" x="113.427734"/>
      <use xlink:href="#Calibri-Bold-64" x="167.089844"/>
      <use xlink:href="#Calibri-Bold-65" x="220.751953"/>
      <use xlink:href="#Calibri-Bold-72" x="271.09375"/>
      <use xlink:href="#Calibri-Bold-73" x="306.640625"/>
      <use xlink:href="#Calibri-Bold-6f" x="346.533203"/>
      <use xlink:href="#Calibri-Bold-6e" x="400.292969"/>
      <use xlink:href="#Calibri-Bold-76" x="453.955078"/>
      <use xlink:href="#Calibri-Bold-69" x="501.269531"/>
      <use xlink:href="#Calibri-Bold-6c" x="525.830078"/>
      <use xlink:href="#Calibri-Bold-6c" x="550.390625"/>
      <use xlink:href="#Calibri-Bold-65" x="574.951172"/>
     </g>
    </g>
    <g id="patch_16">
     <path d="M 278.5785 232.277588 
L 358.217812 232.277588 
L 358.217812 205.555625 
L 278.5785 205.555625 
z
" style="fill: #e1eff2; stroke: #00263e; stroke-linejoin: miter"/>
    </g>
    <g id="text_16">
     <!-- 1989 -->
     <g style="fill: #00263e" transform="translate(327.951381 221.679497)scale(0.11 -0.11)">
      <use xlink:href="#Calibri-31"/>
      <use xlink:href="#Calibri-39" x="50.683594"/>
      <use xlink:href="#Calibri-38" x="101.367188"/>
      <use xlink:href="#Calibri-39" x="152.050781"/>
     </g>
    </g>
    <g id="patch_17">
     <path d="M 358.217812 232.277588 
L 432.0615 232.277588 
L 432.0615 205.555625 
L 358.217812 205.555625 
z
" style="fill: #e1eff2; stroke: #00263e; stroke-linejoin: miter"/>
    </g>
    <g id="text_17">
     <!-- 31 -->
     <g style="fill: #00263e" transform="translate(413.525881 221.679497)scale(0.11 -0.11)">
      <use xlink:href="#Calibri-33"/>
      <use xlink:href="#Calibri-31" x="50.683594"/>
     </g>
    </g>
    <g id="patch_18">
     <path d="M 194.036625 258.999551 
L 278.5785 258.999551 
M 278.5785 232.277588 
L 194.036625 232.277588 
M 194.036625 258.999551 
" style="fill: #ffffff; stroke: #e1eff2; stroke-linejoin: miter"/>
    </g>
    <g id="text_18">
     <!-- Millersville -->
     <g style="fill: #00263e" transform="translate(202.490813 248.402319)scale(0.11 -0.11)">
      <use xlink:href="#Calibri-Bold-4d"/>
      <use xlink:href="#Calibri-Bold-69" x="87.402344"/>
      <use xlink:href="#Calibri-Bold-6c" x="111.962891"/>
      <use xlink:href="#Calibri-Bold-6c" x="136.523438"/>
      <use xlink:href="#Calibri-Bold-65" x="161.083984"/>
      <use xlink:href="#Calibri-Bold-72" x="211.425781"/>
      <use xlink:href="#Calibri-Bold-73" x="246.972656"/>
      <use xlink:href="#Calibri-Bold-76" x="286.865234"/>
      <use xlink:href="#Calibri-Bold-69" x="334.179688"/>
      <use xlink:href="#Calibri-Bold-6c" x="358.740234"/>
      <use xlink:href="#Calibri-Bold-6c" x="383.300781"/>
      <use xlink:href="#Calibri-Bold-65" x="407.861328"/>
     </g>
    </g>
    <g id="patch_19">
     <path d="M 278.5785 258.999551 
L 358.217812 258.999551 
L 358.217812 232.277588 
L 278.5785 232.277588 
z
" style="fill: #f4f9f9; stroke: #00263e; stroke-linejoin: miter"/>
    </g>
    <g id="text_19">
     <!-- 1992 -->
     <g style="fill: #00263e" transform="translate(327.951381 248.40146)scale(0.11 -0.11)">
      <use xlink:href="#Calibri-31"/>
      <use xlink:href="#Calibri-39" x="50.683594"/>
      <use xlink:href="#Calibri-39" x="101.367188"/>
      <use xlink:href="#Calibri-32" x="152.050781"/>
     </g>
    </g>
    <g id="patch_20">
     <path d="M 358.217812 258.999551 
L 432.0615 258.999551 
L 432.0615 232.277588 
L 358.217812 232.277588 
z
" style="fill: #f4f9f9; stroke: #00263e; stroke-linejoin: miter"/>
    </g>
    <g id="text_20">
     <!-- 28 -->
     <g style="fill: #00263e" transform="translate(413.525881 248.40146)scale(0.11 -0.11)">
      <use xlink:href="#Calibri-32"/>
      <use xlink:href="#Calibri-38" x="50.683594"/>
     </g>
    </g>
    <g id="patch_21">
     <path d="M 194.036625 285.721514 
L 278.5785 285.721514 
M 278.5785 258.999551 
L 194.036625 258.999551 
M 194.036625 285.721514 
" style="fill: #ffffff; stroke: #e1eff2; stroke-linejoin: miter"/>
    </g>
    <g id="text_21">
     <!-- Mitchellville -->
     <g style="fill: #00263e" transform="translate(202.490813 275.124282)scale(0.11 -0.11)">
      <defs>
       <path id="Calibri-Bold-68" d="M 3056 106 
Q 3056 75 3037 51 
Q 3019 28 2975 12 
Q 2931 -3 2854 -11 
Q 2778 -19 2666 -19 
Q 2550 -19 2473 -11 
Q 2397 -3 2353 12 
Q 2309 28 2290 51 
Q 2272 75 2272 106 
L 2272 1697 
Q 2272 1900 2242 2015 
Q 2213 2131 2156 2214 
Q 2100 2297 2011 2342 
Q 1922 2388 1803 2388 
Q 1653 2388 1500 2278 
Q 1347 2169 1181 1959 
L 1181 106 
Q 1181 75 1162 51 
Q 1144 28 1098 12 
Q 1053 -3 978 -11 
Q 903 -19 788 -19 
Q 672 -19 597 -11 
Q 522 -3 476 12 
Q 431 28 412 51 
Q 394 75 394 106 
L 394 4216 
Q 394 4247 412 4272 
Q 431 4297 476 4314 
Q 522 4331 597 4340 
Q 672 4350 788 4350 
Q 903 4350 978 4340 
Q 1053 4331 1098 4314 
Q 1144 4297 1162 4272 
Q 1181 4247 1181 4216 
L 1181 2675 
Q 1384 2875 1595 2973 
Q 1806 3072 2034 3072 
Q 2319 3072 2514 2978 
Q 2709 2884 2829 2721 
Q 2950 2559 3003 2342 
Q 3056 2125 3056 1816 
L 3056 106 
z
" transform="scale(0.015625)"/>
      </defs>
      <use xlink:href="#Calibri-Bold-4d"/>
      <use xlink:href="#Calibri-Bold-69" x="87.402344"/>
      <use xlink:href="#Calibri-Bold-74" x="111.962891"/>
      <use xlink:href="#Calibri-Bold-63" x="146.630859"/>
      <use xlink:href="#Calibri-Bold-68" x="188.476562"/>
      <use xlink:href="#Calibri-Bold-65" x="242.138672"/>
      <use xlink:href="#Calibri-Bold-6c" x="292.480469"/>
      <use xlink:href="#Calibri-Bold-6c" x="317.041016"/>
      <use xlink:href="#Calibri-Bold-76" x="341.601562"/>
      <use xlink:href="#Calibri-Bold-69" x="388.916016"/>
      <use xlink:href="#Calibri-Bold-6c" x="413.476562"/>
      <use xlink:href="#Calibri-Bold-6c" x="438.037109"/>
      <use xlink:href="#Calibri-Bold-65" x="462.597656"/>
     </g>
    </g>
    <g id="patch_22">
     <path d="M 278.5785 285.721514 
L 358.217812 285.721514 
L 358.217812 258.999551 
L 278.5785 258.999551 
z
" style="fill: #e1eff2; stroke: #00263e; stroke-linejoin: miter"/>
    </g>
    <g id="text_22">
     <!-- 1985 -->
     <g style="fill: #00263e" transform="translate(327.951381 275.123423)scale(0.11 -0.11)">
      <defs>
       <path id="Calibri-35" d="M 2869 1300 
Q 2869 975 2759 722 
Q 2650 469 2450 295 
Q 2250 122 1973 31 
Q 1697 -59 1359 -59 
Q 1172 -59 1003 -32 
Q 834 -6 703 33 
Q 572 72 487 109 
Q 403 147 379 169 
Q 356 191 347 209 
Q 338 228 330 254 
Q 322 281 319 322 
Q 316 363 316 419 
Q 316 472 320 514 
Q 325 556 337 582 
Q 350 609 367 621 
Q 384 634 406 634 
Q 438 634 503 595 
Q 569 556 680 511 
Q 791 466 955 425 
Q 1119 384 1344 384 
Q 1553 384 1728 434 
Q 1903 484 2029 590 
Q 2156 697 2228 858 
Q 2300 1019 2300 1250 
Q 2300 1444 2239 1592 
Q 2178 1741 2051 1839 
Q 1925 1938 1731 1986 
Q 1538 2034 1269 2034 
Q 1078 2034 940 2015 
Q 803 1997 684 1997 
Q 597 1997 559 2037 
Q 522 2078 522 2194 
L 522 3841 
Q 522 3944 570 3994 
Q 619 4044 709 4044 
L 2500 4044 
Q 2525 4044 2548 4030 
Q 2572 4016 2587 3987 
Q 2603 3959 2611 3915 
Q 2619 3872 2619 3813 
Q 2619 3700 2587 3637 
Q 2556 3575 2500 3575 
L 991 3575 
L 991 2441 
Q 1100 2456 1214 2459 
Q 1328 2463 1478 2463 
Q 1825 2463 2084 2380 
Q 2344 2297 2517 2145 
Q 2691 1994 2780 1778 
Q 2869 1563 2869 1300 
z
" transform="scale(0.015625)"/>
      </defs>
      <use xlink:href="#Calibri-31"/>
      <use xlink:href="#Calibri-39" x="50.683594"/>
      <use xlink:href="#Calibri-38" x="101.367188"/>
      <use xlink:href="#Calibri-35" x="152.050781"/>
     </g>
    </g>
    <g id="patch_23">
     <path d="M 358.217812 285.721514 
L 432.0615 285.721514 
L 432.0615 258.999551 
L 358.217812 258.999551 
z
" style="fill: #e1eff2; stroke: #00263e; stroke-linejoin: miter"/>
    </g>
    <g id="text_23">
     <!-- 35 -->
     <g style="fill: #00263e" transform="translate(413.525881 275.123423)scale(0.11 -0.11)">
      <use xlink:href="#Calibri-33"/>
      <use xlink:href="#Calibri-35" x="50.683594"/>
     </g>
    </g>
    <g id="patch_24">
     <path d="M 194.036625 312.443477 
L 278.5785 312.443477 
M 278.5785 285.721514 
L 194.036625 285.721514 
M 194.036625 312.443477 
" style="fill: #ffffff; stroke: #e1eff2; stroke-linejoin: miter"/>
    </g>
    <g id="text_24">
     <!-- Westmoreland -->
     <g style="fill: #00263e" transform="translate(202.490813 301.846245)scale(0.11 -0.11)">
      <defs>
       <path id="Calibri-Bold-57" d="M 4697 209 
Q 4678 134 4645 89 
Q 4613 44 4547 20 
Q 4481 -3 4378 -11 
Q 4275 -19 4116 -19 
Q 3938 -19 3830 -11 
Q 3722 -3 3659 20 
Q 3597 44 3569 89 
Q 3541 134 3525 209 
L 2878 2772 
L 2872 2772 
L 2259 209 
Q 2244 138 2216 92 
Q 2188 47 2127 22 
Q 2066 -3 1961 -11 
Q 1856 -19 1684 -19 
Q 1503 -19 1395 -11 
Q 1288 -3 1225 20 
Q 1163 44 1134 89 
Q 1106 134 1088 209 
L 169 3738 
Q 141 3850 137 3914 
Q 134 3978 173 4012 
Q 213 4047 302 4055 
Q 391 4063 550 4063 
Q 697 4063 783 4058 
Q 869 4053 912 4036 
Q 956 4019 972 3986 
Q 988 3953 997 3894 
L 1706 797 
L 1709 797 
L 2447 3872 
Q 2459 3931 2479 3968 
Q 2500 4006 2548 4026 
Q 2597 4047 2681 4055 
Q 2766 4063 2906 4063 
Q 3056 4063 3145 4056 
Q 3234 4050 3282 4029 
Q 3331 4009 3353 3971 
Q 3375 3934 3388 3872 
L 4150 797 
L 4156 797 
L 4866 3884 
Q 4875 3934 4890 3970 
Q 4906 4006 4950 4026 
Q 4994 4047 5075 4055 
Q 5156 4063 5303 4063 
Q 5441 4063 5517 4055 
Q 5594 4047 5628 4012 
Q 5663 3978 5658 3911 
Q 5653 3844 5625 3728 
L 4697 209 
z
" transform="scale(0.015625)"/>
      </defs>
      <use xlink:href="#Calibri-Bold-57"/>
      <use xlink:href="#Calibri-Bold-65" x="90.625"/>
      <use xlink:href="#Calibri-Bold-73" x="140.966797"/>
      <use xlink:href="#Calibri-Bold-74" x="180.859375"/>
      <use xlink:href="#Calibri-Bold-6d" x="215.527344"/>
      <use xlink:href="#Calibri-Bold-6f" x="296.875"/>
      <use xlink:href="#Calibri-Bold-72" x="350.634766"/>
      <use xlink:href="#Calibri-Bold-65" x="386.181641"/>
      <use xlink:href="#Calibri-Bold-6c" x="436.523438"/>
      <use xlink:href="#Calibri-Bold-61" x="461.083984"/>
      <use xlink:href="#Calibri-Bold-6e" x="510.449219"/>
      <use xlink:href="#Calibri-Bold-64" x="564.111328"/>
     </g>
    </g>
    <g id="patch_25">
     <path d="M 278.5785 312.443477 
L 358.217812 312.443477 
L 358.217812 285.721514 
L 278.5785 285.721514 
z
" style="fill: #f4f9f9; stroke: #00263e; stroke-linejoin: miter"/>
    </g>
    <g id="text_25">
     <!-- 1984 -->
     <g style="fill: #00263e" transform="translate(327.951381 301.845386)scale(0.11 -0.11)">
      <defs>
       <path id="Calibri-34" d="M 3059 1150 
Q 3059 1047 3028 987 
Q 2997 928 2941 928 
L 2484 928 
L 2484 78 
Q 2484 53 2471 36 
Q 2459 19 2428 6 
Q 2397 -6 2347 -12 
Q 2297 -19 2219 -19 
Q 2144 -19 2094 -12 
Q 2044 -6 2014 6 
Q 1984 19 1973 36 
Q 1963 53 1963 78 
L 1963 928 
L 294 928 
Q 256 928 231 937 
Q 206 947 186 972 
Q 166 997 158 1044 
Q 150 1091 150 1166 
Q 150 1225 153 1272 
Q 156 1319 165 1358 
Q 175 1397 190 1433 
Q 206 1469 228 1509 
L 1684 3966 
Q 1700 3991 1729 4009 
Q 1759 4028 1806 4040 
Q 1853 4053 1922 4058 
Q 1991 4063 2084 4063 
Q 2188 4063 2264 4055 
Q 2341 4047 2387 4034 
Q 2434 4022 2459 4001 
Q 2484 3981 2484 3953 
L 2484 1372 
L 2941 1372 
Q 2994 1372 3026 1317 
Q 3059 1263 3059 1150 
z
M 1963 3591 
L 1956 3591 
L 641 1372 
L 1963 1372 
L 1963 3591 
z
" transform="scale(0.015625)"/>
      </defs>
      <use xlink:href="#Calibri-31"/>
      <use xlink:href="#Calibri-39" x="50.683594"/>
      <use xlink:href="#Calibri-38" x="101.367188"/>
      <use xlink:href="#Calibri-34" x="152.050781"/>
     </g>
    </g>
    <g id="patch_26">
     <path d="M 358.217812 312.443477 
L 432.0615 312.443477 
L 432.0615 285.721514 
L 358.217812 285.721514 
z
" style="fill: #f4f9f9; stroke: #00263e; stroke-linejoin: miter"/>
    </g>
    <g id="text_26">
     <!-- 36 -->
     <g style="fill: #00263e" transform="translate(413.525881 301.845386)scale(0.11 -0.11)">
      <defs>
       <path id="Calibri-36" d="M 2991 1309 
Q 2991 1044 2909 795 
Q 2828 547 2659 358 
Q 2491 169 2231 55 
Q 1972 -59 1619 -59 
Q 1366 -59 1172 3 
Q 978 66 834 181 
Q 691 297 595 465 
Q 500 634 442 850 
Q 384 1066 359 1322 
Q 334 1578 334 1872 
Q 334 2131 362 2397 
Q 391 2663 462 2909 
Q 534 3156 657 3373 
Q 781 3591 967 3752 
Q 1153 3913 1412 4006 
Q 1672 4100 2016 4100 
Q 2131 4100 2250 4086 
Q 2369 4072 2469 4048 
Q 2569 4025 2637 3997 
Q 2706 3969 2728 3951 
Q 2750 3934 2761 3914 
Q 2772 3894 2778 3870 
Q 2784 3847 2787 3817 
Q 2791 3788 2791 3744 
Q 2791 3688 2789 3647 
Q 2788 3606 2777 3581 
Q 2766 3556 2748 3543 
Q 2731 3531 2703 3531 
Q 2669 3531 2609 3553 
Q 2550 3575 2465 3601 
Q 2381 3628 2261 3650 
Q 2141 3672 1981 3672 
Q 1691 3672 1481 3553 
Q 1272 3434 1139 3234 
Q 1006 3034 942 2770 
Q 878 2506 869 2219 
Q 950 2266 1051 2312 
Q 1153 2359 1273 2396 
Q 1394 2434 1528 2457 
Q 1663 2481 1816 2481 
Q 2144 2481 2369 2392 
Q 2594 2303 2733 2145 
Q 2872 1988 2931 1773 
Q 2991 1559 2991 1309 
z
M 2447 1259 
Q 2447 1441 2411 1589 
Q 2375 1738 2290 1841 
Q 2206 1944 2065 2000 
Q 1925 2056 1719 2056 
Q 1603 2056 1487 2036 
Q 1372 2016 1264 1980 
Q 1156 1944 1057 1895 
Q 959 1847 878 1791 
Q 878 1388 929 1116 
Q 981 844 1079 680 
Q 1178 516 1325 445 
Q 1472 375 1669 375 
Q 1869 375 2016 450 
Q 2163 525 2259 651 
Q 2356 778 2401 936 
Q 2447 1094 2447 1259 
z
" transform="scale(0.015625)"/>
      </defs>
      <use xlink:href="#Calibri-33"/>
      <use xlink:href="#Calibri-36" x="50.683594"/>
     </g>
    </g>
    <g id="patch_27">
     <path d="M 194.036625 339.16544 
L 278.5785 339.16544 
M 278.5785 312.443477 
L 194.036625 312.443477 
M 194.036625 339.16544 
" style="fill: #ffffff; stroke: #e1eff2; stroke-linejoin: miter"/>
    </g>
    <g id="text_27">
     <!-- White House -->
     <g style="fill: #00263e" transform="translate(202.490813 328.568208)scale(0.11 -0.11)">
      <use xlink:href="#Calibri-Bold-57"/>
      <use xlink:href="#Calibri-Bold-68" x="90.625"/>
      <use xlink:href="#Calibri-Bold-69" x="144.287109"/>
      <use xlink:href="#Calibri-Bold-74" x="168.847656"/>
      <use xlink:href="#Calibri-Bold-65" x="203.515625"/>
      <use xlink:href="#Calibri-Bold-20" x="253.857422"/>
      <use xlink:href="#Calibri-Bold-48" x="276.464844"/>
      <use xlink:href="#Calibri-Bold-6f" x="339.550781"/>
      <use xlink:href="#Calibri-Bold-75" x="393.310547"/>
      <use xlink:href="#Calibri-Bold-73" x="446.972656"/>
      <use xlink:href="#Calibri-Bold-65" x="486.865234"/>
     </g>
    </g>
    <g id="patch_28">
     <path d="M 278.5785 339.16544 
L 358.217812 339.16544 
L 358.217812 312.443477 
L 278.5785 312.443477 
z
" style="fill: #e1eff2; stroke: #00263e; stroke-linejoin: miter"/>
    </g>
    <g id="text_28">
     <!-- 1999 -->
     <g style="fill: #00263e" transform="translate(327.951381 328.567349)scale(0.11 -0.11)">
      <use xlink:href="#Calibri-31"/>
      <use xlink:href="#Calibri-39" x="50.683594"/>
      <use xlink:href="#Calibri-39" x="101.367188"/>
      <use xlink:href="#Calibri-39" x="152.050781"/>
     </g>
    </g>
    <g id="patch_29">
     <path d="M 358.217812 339.16544 
L 432.0615 339.16544 
L 432.0615 312.443477 
L 358.217812 312.443477 
z
" style="fill: #e1eff2; stroke: #00263e; stroke-linejoin: miter"/>
    </g>
    <g id="text_29">
     <!-- 21 -->
     <g style="fill: #00263e" transform="translate(413.525881 328.567349)scale(0.11 -0.11)">
      <use xlink:href="#Calibri-32"/>
      <use xlink:href="#Calibri-31" x="50.683594"/>
     </g>
    </g>
   </g>
   <g id="text_30">
    <!-- Median Year Built and Median  -->
    <g style="fill: #00263e" transform="translate(242.275781 19.442812)scale(0.18 -0.18)">
     <defs>
      <path id="Calibri-4d" d="M 4934 81 
Q 4934 56 4921 37 
Q 4909 19 4878 8 
Q 4847 -3 4798 -11 
Q 4750 -19 4672 -19 
Q 4600 -19 4548 -11 
Q 4497 -3 4467 8 
Q 4438 19 4425 37 
Q 4413 56 4413 81 
L 4413 3603 
L 4406 3603 
L 2966 66 
Q 2956 44 2939 28 
Q 2922 13 2889 2 
Q 2856 -9 2811 -14 
Q 2766 -19 2703 -19 
Q 2638 -19 2591 -12 
Q 2544 -6 2512 5 
Q 2481 16 2464 31 
Q 2447 47 2441 66 
L 1063 3603 
L 1059 3603 
L 1059 81 
Q 1059 56 1046 37 
Q 1034 19 1003 8 
Q 972 -3 922 -11 
Q 872 -19 794 -19 
Q 719 -19 669 -11 
Q 619 -3 589 8 
Q 559 19 548 37 
Q 538 56 538 81 
L 538 3800 
Q 538 3931 606 3987 
Q 675 4044 759 4044 
L 1084 4044 
Q 1184 4044 1259 4025 
Q 1334 4006 1390 3965 
Q 1447 3925 1484 3862 
Q 1522 3800 1550 3716 
L 2722 788 
L 2738 788 
L 3956 3706 
Q 3991 3800 4031 3865 
Q 4072 3931 4120 3970 
Q 4169 4009 4228 4026 
Q 4288 4044 4366 4044 
L 4706 4044 
Q 4753 4044 4795 4030 
Q 4838 4016 4867 3986 
Q 4897 3956 4915 3911 
Q 4934 3866 4934 3800 
L 4934 81 
z
" transform="scale(0.015625)"/>
      <path id="Calibri-65" d="M 2878 1606 
Q 2878 1484 2817 1432 
Q 2756 1381 2678 1381 
L 834 1381 
Q 834 1147 881 959 
Q 928 772 1037 637 
Q 1147 503 1322 431 
Q 1497 359 1750 359 
Q 1950 359 2106 392 
Q 2263 425 2377 465 
Q 2491 506 2564 539 
Q 2638 572 2675 572 
Q 2697 572 2714 561 
Q 2731 550 2740 528 
Q 2750 506 2754 467 
Q 2759 428 2759 372 
Q 2759 331 2756 301 
Q 2753 272 2748 248 
Q 2744 225 2733 206 
Q 2722 188 2705 170 
Q 2688 153 2603 114 
Q 2519 75 2384 37 
Q 2250 0 2073 -29 
Q 1897 -59 1697 -59 
Q 1350 -59 1089 37 
Q 828 134 650 325 
Q 472 516 381 803 
Q 291 1091 291 1472 
Q 291 1834 384 2123 
Q 478 2413 654 2614 
Q 831 2816 1081 2923 
Q 1331 3031 1641 3031 
Q 1972 3031 2205 2925 
Q 2438 2819 2588 2639 
Q 2738 2459 2808 2217 
Q 2878 1975 2878 1700 
L 2878 1606 
z
M 2359 1759 
Q 2369 2166 2180 2397 
Q 1991 2628 1619 2628 
Q 1428 2628 1284 2556 
Q 1141 2484 1044 2365 
Q 947 2247 894 2089 
Q 841 1931 834 1759 
L 2359 1759 
z
" transform="scale(0.015625)"/>
      <path id="Calibri-64" d="M 2888 78 
Q 2888 53 2877 34 
Q 2866 16 2839 5 
Q 2813 -6 2769 -12 
Q 2725 -19 2663 -19 
Q 2597 -19 2553 -12 
Q 2509 -6 2481 5 
Q 2453 16 2440 34 
Q 2428 53 2428 78 
L 2428 450 
Q 2206 209 1967 75 
Q 1728 -59 1444 -59 
Q 1134 -59 915 61 
Q 697 181 561 386 
Q 425 591 362 867 
Q 300 1144 300 1450 
Q 300 1813 378 2105 
Q 456 2397 609 2603 
Q 763 2809 989 2920 
Q 1216 3031 1513 3031 
Q 1759 3031 1964 2923 
Q 2169 2816 2369 2606 
L 2369 4241 
Q 2369 4263 2380 4283 
Q 2391 4303 2422 4314 
Q 2453 4325 2501 4333 
Q 2550 4341 2625 4341 
Q 2703 4341 2753 4333 
Q 2803 4325 2831 4314 
Q 2859 4303 2873 4283 
Q 2888 4263 2888 4241 
L 2888 78 
z
M 2369 2056 
Q 2159 2316 1964 2452 
Q 1769 2588 1556 2588 
Q 1359 2588 1221 2494 
Q 1084 2400 998 2247 
Q 913 2094 873 1900 
Q 834 1706 834 1506 
Q 834 1294 867 1091 
Q 900 888 981 730 
Q 1063 572 1197 476 
Q 1331 381 1534 381 
Q 1638 381 1733 409 
Q 1828 438 1928 503 
Q 2028 569 2137 673 
Q 2247 778 2369 931 
L 2369 2056 
z
" transform="scale(0.015625)"/>
      <path id="Calibri-69" d="M 994 78 
Q 994 53 981 36 
Q 969 19 941 6 
Q 913 -6 863 -12 
Q 813 -19 734 -19 
Q 659 -19 609 -12 
Q 559 -6 529 6 
Q 500 19 489 36 
Q 478 53 478 78 
L 478 2891 
Q 478 2913 489 2931 
Q 500 2950 529 2962 
Q 559 2975 609 2981 
Q 659 2988 734 2988 
Q 813 2988 863 2981 
Q 913 2975 941 2962 
Q 969 2950 981 2931 
Q 994 2913 994 2891 
L 994 78 
z
M 1053 3841 
Q 1053 3659 984 3593 
Q 916 3528 731 3528 
Q 550 3528 483 3592 
Q 416 3656 416 3834 
Q 416 4016 484 4081 
Q 553 4147 738 4147 
Q 919 4147 986 4083 
Q 1053 4019 1053 3841 
z
" transform="scale(0.015625)"/>
      <path id="Calibri-61" d="M 2597 75 
Q 2597 38 2572 19 
Q 2547 0 2503 -9 
Q 2459 -19 2375 -19 
Q 2294 -19 2245 -9 
Q 2197 0 2175 19 
Q 2153 38 2153 75 
L 2153 356 
Q 1969 159 1742 50 
Q 1516 -59 1263 -59 
Q 1041 -59 861 -1 
Q 681 56 554 165 
Q 428 275 358 434 
Q 288 594 288 797 
Q 288 1034 384 1209 
Q 481 1384 662 1500 
Q 844 1616 1106 1673 
Q 1369 1731 1697 1731 
L 2084 1731 
L 2084 1950 
Q 2084 2113 2050 2238 
Q 2016 2363 1939 2445 
Q 1863 2528 1741 2570 
Q 1619 2613 1441 2613 
Q 1250 2613 1098 2567 
Q 947 2522 833 2467 
Q 719 2413 642 2367 
Q 566 2322 528 2322 
Q 503 2322 484 2334 
Q 466 2347 452 2372 
Q 438 2397 431 2436 
Q 425 2475 425 2522 
Q 425 2600 436 2645 
Q 447 2691 489 2731 
Q 531 2772 634 2826 
Q 738 2881 872 2926 
Q 1006 2972 1165 3001 
Q 1325 3031 1488 3031 
Q 1791 3031 2003 2962 
Q 2216 2894 2347 2761 
Q 2478 2628 2537 2431 
Q 2597 2234 2597 1972 
L 2597 75 
z
M 2084 1359 
L 1644 1359 
Q 1431 1359 1275 1323 
Q 1119 1288 1016 1217 
Q 913 1147 864 1048 
Q 816 950 816 822 
Q 816 603 955 473 
Q 1094 344 1344 344 
Q 1547 344 1720 447 
Q 1894 550 2084 763 
L 2084 1359 
z
" transform="scale(0.015625)"/>
      <path id="Calibri-6e" d="M 2900 78 
Q 2900 53 2887 36 
Q 2875 19 2847 6 
Q 2819 -6 2769 -12 
Q 2719 -19 2644 -19 
Q 2566 -19 2516 -12 
Q 2466 -6 2437 6 
Q 2409 19 2396 36 
Q 2384 53 2384 78 
L 2384 1725 
Q 2384 1966 2346 2112 
Q 2309 2259 2237 2365 
Q 2166 2472 2052 2528 
Q 1938 2584 1788 2584 
Q 1594 2584 1400 2446 
Q 1206 2309 994 2044 
L 994 78 
Q 994 53 981 36 
Q 969 19 941 6 
Q 913 -6 863 -12 
Q 813 -19 734 -19 
Q 659 -19 609 -12 
Q 559 -6 529 6 
Q 500 19 489 36 
Q 478 53 478 78 
L 478 2891 
Q 478 2916 487 2933 
Q 497 2950 525 2964 
Q 553 2978 597 2983 
Q 641 2988 713 2988 
Q 781 2988 826 2983 
Q 872 2978 897 2964 
Q 922 2950 933 2933 
Q 944 2916 944 2891 
L 944 2519 
Q 1181 2784 1417 2907 
Q 1653 3031 1894 3031 
Q 2175 3031 2367 2936 
Q 2559 2841 2678 2681 
Q 2797 2522 2848 2308 
Q 2900 2094 2900 1794 
L 2900 78 
z
" transform="scale(0.015625)"/>
      <path id="Calibri-20" transform="scale(0.015625)"/>
      <path id="Calibri-59" d="M 1828 1572 
L 1828 81 
Q 1828 56 1815 37 
Q 1803 19 1772 8 
Q 1741 -3 1687 -11 
Q 1634 -19 1559 -19 
Q 1481 -19 1429 -11 
Q 1378 -3 1345 8 
Q 1313 19 1300 37 
Q 1288 56 1288 81 
L 1288 1572 
L 144 3853 
Q 109 3925 101 3965 
Q 94 4006 117 4028 
Q 141 4050 202 4056 
Q 263 4063 366 4063 
Q 459 4063 517 4056 
Q 575 4050 609 4039 
Q 644 4028 661 4008 
Q 678 3988 694 3956 
L 1253 2794 
Q 1331 2628 1409 2447 
Q 1488 2266 1569 2081 
L 1575 2081 
Q 1647 2259 1723 2436 
Q 1800 2613 1878 2784 
L 2441 3953 
Q 2450 3984 2467 4006 
Q 2484 4028 2514 4039 
Q 2544 4050 2597 4056 
Q 2650 4063 2731 4063 
Q 2844 4063 2908 4055 
Q 2972 4047 2997 4025 
Q 3022 4003 3014 3962 
Q 3006 3922 2972 3853 
L 1828 1572 
z
" transform="scale(0.015625)"/>
      <path id="Calibri-72" d="M 2122 2706 
Q 2122 2638 2119 2591 
Q 2116 2544 2106 2517 
Q 2097 2491 2083 2477 
Q 2069 2463 2044 2463 
Q 2019 2463 1983 2477 
Q 1947 2491 1901 2505 
Q 1856 2519 1800 2531 
Q 1744 2544 1678 2544 
Q 1600 2544 1525 2512 
Q 1450 2481 1367 2409 
Q 1284 2338 1193 2219 
Q 1103 2100 994 1928 
L 994 78 
Q 994 53 981 36 
Q 969 19 941 6 
Q 913 -6 863 -12 
Q 813 -19 734 -19 
Q 659 -19 609 -12 
Q 559 -6 529 6 
Q 500 19 489 36 
Q 478 53 478 78 
L 478 2891 
Q 478 2916 487 2933 
Q 497 2950 525 2964 
Q 553 2978 597 2983 
Q 641 2988 713 2988 
Q 781 2988 826 2983 
Q 872 2978 897 2964 
Q 922 2950 933 2933 
Q 944 2916 944 2891 
L 944 2481 
Q 1059 2650 1161 2756 
Q 1263 2863 1353 2923 
Q 1444 2984 1533 3007 
Q 1622 3031 1713 3031 
Q 1753 3031 1804 3026 
Q 1856 3022 1912 3009 
Q 1969 2997 2014 2981 
Q 2059 2966 2078 2950 
Q 2097 2934 2103 2920 
Q 2109 2906 2114 2884 
Q 2119 2863 2120 2820 
Q 2122 2778 2122 2706 
z
" transform="scale(0.015625)"/>
      <path id="Calibri-42" d="M 3203 1159 
Q 3203 969 3154 808 
Q 3106 647 3018 519 
Q 2931 391 2807 294 
Q 2684 197 2529 131 
Q 2375 66 2198 33 
Q 2022 0 1794 0 
L 738 0 
Q 666 0 602 48 
Q 538 97 538 219 
L 538 3825 
Q 538 3947 602 3995 
Q 666 4044 738 4044 
L 1656 4044 
Q 2019 4044 2250 3975 
Q 2481 3906 2636 3775 
Q 2791 3644 2869 3453 
Q 2947 3263 2947 3022 
Q 2947 2878 2912 2747 
Q 2878 2616 2811 2505 
Q 2744 2394 2642 2306 
Q 2541 2219 2409 2163 
Q 2575 2131 2719 2048 
Q 2863 1966 2970 1837 
Q 3078 1709 3140 1537 
Q 3203 1366 3203 1159 
z
M 2394 2969 
Q 2394 3116 2353 3234 
Q 2313 3353 2225 3436 
Q 2138 3519 1997 3562 
Q 1856 3606 1625 3606 
L 1069 3606 
L 1069 2297 
L 1681 2297 
Q 1891 2297 2019 2351 
Q 2147 2406 2231 2498 
Q 2316 2591 2355 2714 
Q 2394 2838 2394 2969 
z
M 2638 1128 
Q 2638 1309 2580 1446 
Q 2522 1584 2411 1678 
Q 2300 1772 2133 1820 
Q 1966 1869 1713 1869 
L 1069 1869 
L 1069 444 
L 1850 444 
Q 2034 444 2171 487 
Q 2309 531 2414 617 
Q 2519 703 2578 831 
Q 2638 959 2638 1128 
z
" transform="scale(0.015625)"/>
      <path id="Calibri-75" d="M 2888 78 
Q 2888 53 2877 36 
Q 2866 19 2837 6 
Q 2809 -6 2764 -12 
Q 2719 -19 2653 -19 
Q 2581 -19 2536 -12 
Q 2491 -6 2464 6 
Q 2438 19 2428 36 
Q 2419 53 2419 78 
L 2419 450 
Q 2178 184 1943 62 
Q 1709 -59 1469 -59 
Q 1188 -59 995 34 
Q 803 128 684 289 
Q 566 450 514 664 
Q 463 878 463 1184 
L 463 2891 
Q 463 2916 473 2933 
Q 484 2950 515 2964 
Q 547 2978 597 2983 
Q 647 2988 722 2988 
Q 797 2988 847 2983 
Q 897 2978 926 2964 
Q 956 2950 968 2933 
Q 981 2916 981 2891 
L 981 1253 
Q 981 1006 1017 857 
Q 1053 709 1126 604 
Q 1200 500 1312 442 
Q 1425 384 1575 384 
Q 1769 384 1961 521 
Q 2153 659 2369 925 
L 2369 2891 
Q 2369 2916 2380 2933 
Q 2391 2950 2422 2964 
Q 2453 2978 2501 2983 
Q 2550 2988 2628 2988 
Q 2703 2988 2753 2983 
Q 2803 2978 2831 2964 
Q 2859 2950 2873 2933 
Q 2888 2916 2888 2891 
L 2888 78 
z
" transform="scale(0.015625)"/>
      <path id="Calibri-6c" d="M 994 78 
Q 994 53 981 36 
Q 969 19 941 6 
Q 913 -6 863 -12 
Q 813 -19 734 -19 
Q 659 -19 609 -12 
Q 559 -6 529 6 
Q 500 19 489 36 
Q 478 53 478 78 
L 478 4253 
Q 478 4278 489 4297 
Q 500 4316 529 4328 
Q 559 4341 609 4347 
Q 659 4353 734 4353 
Q 813 4353 863 4347 
Q 913 4341 941 4328 
Q 969 4316 981 4297 
Q 994 4278 994 4253 
L 994 78 
z
" transform="scale(0.015625)"/>
      <path id="Calibri-74" d="M 1941 284 
Q 1941 194 1928 141 
Q 1916 88 1891 63 
Q 1866 38 1816 16 
Q 1766 -6 1702 -20 
Q 1638 -34 1566 -43 
Q 1494 -53 1422 -53 
Q 1203 -53 1047 5 
Q 891 63 791 180 
Q 691 297 645 476 
Q 600 656 600 900 
L 600 2544 
L 206 2544 
Q 159 2544 131 2594 
Q 103 2644 103 2756 
Q 103 2816 111 2856 
Q 119 2897 131 2923 
Q 144 2950 164 2961 
Q 184 2972 209 2972 
L 600 2972 
L 600 3641 
Q 600 3663 611 3681 
Q 622 3700 651 3714 
Q 681 3728 731 3734 
Q 781 3741 856 3741 
Q 934 3741 984 3734 
Q 1034 3728 1062 3714 
Q 1091 3700 1103 3681 
Q 1116 3663 1116 3641 
L 1116 2972 
L 1838 2972 
Q 1863 2972 1881 2961 
Q 1900 2950 1914 2923 
Q 1928 2897 1934 2856 
Q 1941 2816 1941 2756 
Q 1941 2644 1912 2594 
Q 1884 2544 1838 2544 
L 1116 2544 
L 1116 975 
Q 1116 684 1202 536 
Q 1288 388 1509 388 
Q 1581 388 1637 402 
Q 1694 416 1737 431 
Q 1781 447 1812 461 
Q 1844 475 1869 475 
Q 1884 475 1898 467 
Q 1913 459 1920 437 
Q 1928 416 1934 378 
Q 1941 341 1941 284 
z
" transform="scale(0.015625)"/>
     </defs>
     <use xlink:href="#Calibri-4d"/>
     <use xlink:href="#Calibri-65" x="85.498047"/>
     <use xlink:href="#Calibri-64" x="135.253906"/>
     <use xlink:href="#Calibri-69" x="187.792969"/>
     <use xlink:href="#Calibri-61" x="210.742188"/>
     <use xlink:href="#Calibri-6e" x="258.642578"/>
     <use xlink:href="#Calibri-20" x="311.181641"/>
     <use xlink:href="#Calibri-59" x="333.789062"/>
     <use xlink:href="#Calibri-65" x="382.519531"/>
     <use xlink:href="#Calibri-61" x="432.275391"/>
     <use xlink:href="#Calibri-72" x="480.175781"/>
     <use xlink:href="#Calibri-20" x="515.039062"/>
     <use xlink:href="#Calibri-42" x="537.646484"/>
     <use xlink:href="#Calibri-75" x="592.041016"/>
     <use xlink:href="#Calibri-69" x="644.580078"/>
     <use xlink:href="#Calibri-6c" x="667.529297"/>
     <use xlink:href="#Calibri-74" x="690.478516"/>
     <use xlink:href="#Calibri-20" x="723.974609"/>
     <use xlink:href="#Calibri-61" x="746.582031"/>
     <use xlink:href="#Calibri-6e" x="794.482422"/>
     <use xlink:href="#Calibri-64" x="847.021484"/>
     <use xlink:href="#Calibri-20" x="899.560547"/>
     <use xlink:href="#Calibri-4d" x="922.167969"/>
     <use xlink:href="#Calibri-65" x="1007.666016"/>
     <use xlink:href="#Calibri-64" x="1057.421875"/>
     <use xlink:href="#Calibri-69" x="1109.960938"/>
     <use xlink:href="#Calibri-61" x="1132.910156"/>
     <use xlink:href="#Calibri-6e" x="1180.810547"/>
     <use xlink:href="#Calibri-20" x="1233.349609"/>
    </g>
    <!-- Age for Residential Structures -->
    <g style="fill: #00263e" transform="translate(246.618281 37.409062)scale(0.18 -0.18)">
     <defs>
      <path id="Calibri-41" d="M 3566 191 
Q 3591 122 3592 80 
Q 3594 38 3569 16 
Q 3544 -6 3486 -12 
Q 3428 -19 3331 -19 
Q 3234 -19 3176 -14 
Q 3119 -9 3089 2 
Q 3059 13 3045 31 
Q 3031 50 3019 78 
L 2672 1063 
L 991 1063 
L 659 91 
Q 650 63 634 42 
Q 619 22 589 8 
Q 559 -6 504 -12 
Q 450 -19 363 -19 
Q 272 -19 214 -11 
Q 156 -3 132 19 
Q 109 41 111 83 
Q 113 125 138 194 
L 1494 3950 
Q 1506 3984 1526 4006 
Q 1547 4028 1586 4040 
Q 1625 4053 1686 4058 
Q 1747 4063 1841 4063 
Q 1941 4063 2006 4058 
Q 2072 4053 2112 4040 
Q 2153 4028 2175 4004 
Q 2197 3981 2209 3947 
L 3566 191 
z
M 1825 3506 
L 1822 3506 
L 1125 1491 
L 2531 1491 
L 1825 3506 
z
" transform="scale(0.015625)"/>
      <path id="Calibri-67" d="M 2828 2763 
Q 2828 2653 2798 2604 
Q 2769 2556 2722 2556 
L 2319 2556 
Q 2428 2444 2472 2308 
Q 2516 2172 2516 2025 
Q 2516 1781 2437 1593 
Q 2359 1406 2214 1276 
Q 2069 1147 1869 1078 
Q 1669 1009 1425 1009 
Q 1253 1009 1098 1054 
Q 944 1100 859 1169 
Q 803 1113 767 1041 
Q 731 969 731 875 
Q 731 766 832 694 
Q 934 622 1103 616 
L 1838 584 
Q 2047 578 2222 526 
Q 2397 475 2525 379 
Q 2653 284 2725 145 
Q 2797 6 2797 -178 
Q 2797 -372 2715 -547 
Q 2634 -722 2467 -855 
Q 2300 -988 2040 -1064 
Q 1781 -1141 1428 -1141 
Q 1088 -1141 848 -1083 
Q 609 -1025 456 -925 
Q 303 -825 234 -686 
Q 166 -547 166 -384 
Q 166 -281 191 -184 
Q 216 -88 267 0 
Q 319 88 395 167 
Q 472 247 572 325 
Q 419 403 345 522 
Q 272 641 272 778 
Q 272 969 350 1119 
Q 428 1269 544 1388 
Q 447 1503 390 1648 
Q 334 1794 334 2000 
Q 334 2241 415 2431 
Q 497 2622 640 2753 
Q 784 2884 986 2954 
Q 1188 3025 1425 3025 
Q 1553 3025 1664 3011 
Q 1775 2997 1872 2972 
L 2722 2972 
Q 2775 2972 2801 2920 
Q 2828 2869 2828 2763 
z
M 2022 2022 
Q 2022 2309 1864 2470 
Q 1706 2631 1416 2631 
Q 1266 2631 1155 2581 
Q 1044 2531 970 2443 
Q 897 2356 861 2242 
Q 825 2128 825 2003 
Q 825 1725 983 1565 
Q 1141 1406 1425 1406 
Q 1578 1406 1690 1454 
Q 1803 1503 1876 1589 
Q 1950 1675 1986 1787 
Q 2022 1900 2022 2022 
z
M 2281 -206 
Q 2281 -25 2132 73 
Q 1984 172 1731 178 
L 1003 203 
Q 903 125 839 54 
Q 775 -16 737 -80 
Q 700 -144 686 -206 
Q 672 -269 672 -334 
Q 672 -538 878 -642 
Q 1084 -747 1453 -747 
Q 1688 -747 1845 -701 
Q 2003 -656 2100 -581 
Q 2197 -506 2239 -409 
Q 2281 -313 2281 -206 
z
" transform="scale(0.015625)"/>
      <path id="Calibri-66" d="M 2019 4047 
Q 2019 3988 2012 3952 
Q 2006 3916 1998 3894 
Q 1991 3872 1978 3864 
Q 1966 3856 1947 3856 
Q 1925 3856 1892 3870 
Q 1859 3884 1812 3901 
Q 1766 3919 1702 3933 
Q 1638 3947 1553 3947 
Q 1438 3947 1356 3909 
Q 1275 3872 1225 3792 
Q 1175 3713 1153 3586 
Q 1131 3459 1131 3278 
L 1131 2972 
L 1759 2972 
Q 1784 2972 1801 2961 
Q 1819 2950 1833 2923 
Q 1847 2897 1855 2856 
Q 1863 2816 1863 2756 
Q 1863 2644 1834 2594 
Q 1806 2544 1759 2544 
L 1131 2544 
L 1131 78 
Q 1131 53 1118 36 
Q 1106 19 1076 6 
Q 1047 -6 997 -12 
Q 947 -19 872 -19 
Q 797 -19 747 -12 
Q 697 -6 667 6 
Q 638 19 625 36 
Q 613 53 613 78 
L 613 2544 
L 216 2544 
Q 166 2544 141 2594 
Q 116 2644 116 2756 
Q 116 2816 122 2856 
Q 128 2897 140 2923 
Q 153 2950 172 2961 
Q 191 2972 216 2972 
L 613 2972 
L 613 3263 
Q 613 3556 667 3767 
Q 722 3978 834 4112 
Q 947 4247 1117 4311 
Q 1288 4375 1519 4375 
Q 1628 4375 1731 4354 
Q 1834 4334 1890 4311 
Q 1947 4288 1965 4269 
Q 1984 4250 1996 4220 
Q 2009 4191 2014 4148 
Q 2019 4106 2019 4047 
z
" transform="scale(0.015625)"/>
      <path id="Calibri-6f" d="M 3094 1516 
Q 3094 1172 3003 883 
Q 2913 594 2733 384 
Q 2553 175 2283 58 
Q 2013 -59 1656 -59 
Q 1309 -59 1051 44 
Q 794 147 622 344 
Q 450 541 365 822 
Q 281 1103 281 1459 
Q 281 1803 370 2092 
Q 459 2381 639 2590 
Q 819 2800 1087 2915 
Q 1356 3031 1716 3031 
Q 2063 3031 2320 2928 
Q 2578 2825 2750 2628 
Q 2922 2431 3008 2150 
Q 3094 1869 3094 1516 
z
M 2550 1481 
Q 2550 1709 2508 1912 
Q 2466 2116 2369 2269 
Q 2272 2422 2106 2511 
Q 1941 2600 1694 2600 
Q 1466 2600 1302 2519 
Q 1138 2438 1031 2289 
Q 925 2141 873 1937 
Q 822 1734 822 1494 
Q 822 1263 864 1059 
Q 906 856 1004 704 
Q 1103 553 1268 464 
Q 1434 375 1681 375 
Q 1906 375 2072 456 
Q 2238 538 2344 684 
Q 2450 831 2500 1034 
Q 2550 1238 2550 1481 
z
" transform="scale(0.015625)"/>
      <path id="Calibri-52" d="M 3234 81 
Q 3234 56 3225 37 
Q 3216 19 3184 6 
Q 3153 -6 3097 -12 
Q 3041 -19 2947 -19 
Q 2866 -19 2814 -12 
Q 2763 -6 2731 8 
Q 2700 22 2683 47 
Q 2666 72 2653 109 
L 2281 1063 
Q 2216 1225 2145 1361 
Q 2075 1497 1978 1595 
Q 1881 1694 1750 1748 
Q 1619 1803 1434 1803 
L 1075 1803 
L 1075 81 
Q 1075 56 1061 37 
Q 1047 19 1017 8 
Q 988 -3 936 -11 
Q 884 -19 806 -19 
Q 728 -19 676 -11 
Q 625 -3 594 8 
Q 563 19 550 37 
Q 538 56 538 81 
L 538 3825 
Q 538 3947 602 3995 
Q 666 4044 738 4044 
L 1597 4044 
Q 1750 4044 1851 4036 
Q 1953 4028 2034 4019 
Q 2269 3978 2448 3890 
Q 2628 3803 2750 3668 
Q 2872 3534 2933 3361 
Q 2994 3188 2994 2978 
Q 2994 2775 2939 2614 
Q 2884 2453 2781 2329 
Q 2678 2206 2534 2115 
Q 2391 2025 2213 1963 
Q 2313 1919 2394 1851 
Q 2475 1784 2545 1690 
Q 2616 1597 2678 1475 
Q 2741 1353 2803 1200 
L 3166 309 
Q 3209 197 3221 151 
Q 3234 106 3234 81 
z
M 2425 2922 
Q 2425 3159 2319 3323 
Q 2213 3488 1963 3559 
Q 1884 3581 1786 3590 
Q 1688 3600 1528 3600 
L 1075 3600 
L 1075 2238 
L 1600 2238 
Q 1813 2238 1967 2289 
Q 2122 2341 2225 2433 
Q 2328 2525 2376 2650 
Q 2425 2775 2425 2922 
z
" transform="scale(0.015625)"/>
      <path id="Calibri-73" d="M 2244 844 
Q 2244 628 2164 459 
Q 2084 291 1937 175 
Q 1791 59 1587 0 
Q 1384 -59 1141 -59 
Q 991 -59 855 -36 
Q 719 -13 611 23 
Q 503 59 428 98 
Q 353 138 318 169 
Q 284 200 268 256 
Q 253 313 253 409 
Q 253 469 259 509 
Q 266 550 275 575 
Q 284 600 301 611 
Q 319 622 341 622 
Q 375 622 442 580 
Q 509 538 607 488 
Q 706 438 840 395 
Q 975 353 1150 353 
Q 1281 353 1387 381 
Q 1494 409 1572 464 
Q 1650 519 1692 603 
Q 1734 688 1734 803 
Q 1734 922 1673 1003 
Q 1613 1084 1513 1146 
Q 1413 1209 1288 1257 
Q 1163 1306 1030 1359 
Q 897 1413 770 1480 
Q 644 1547 544 1644 
Q 444 1741 383 1875 
Q 322 2009 322 2197 
Q 322 2363 386 2514 
Q 450 2666 578 2780 
Q 706 2894 898 2962 
Q 1091 3031 1347 3031 
Q 1459 3031 1571 3012 
Q 1684 2994 1775 2966 
Q 1866 2938 1930 2905 
Q 1994 2872 2026 2847 
Q 2059 2822 2070 2803 
Q 2081 2784 2086 2761 
Q 2091 2738 2095 2703 
Q 2100 2669 2100 2619 
Q 2100 2566 2095 2527 
Q 2091 2488 2080 2463 
Q 2069 2438 2053 2427 
Q 2038 2416 2019 2416 
Q 1991 2416 1937 2450 
Q 1884 2484 1800 2523 
Q 1716 2563 1602 2597 
Q 1488 2631 1341 2631 
Q 1209 2631 1109 2601 
Q 1009 2572 945 2517 
Q 881 2463 848 2388 
Q 816 2313 816 2225 
Q 816 2103 878 2020 
Q 941 1938 1041 1875 
Q 1141 1813 1269 1763 
Q 1397 1713 1530 1659 
Q 1663 1606 1792 1540 
Q 1922 1475 2022 1381 
Q 2122 1288 2183 1156 
Q 2244 1025 2244 844 
z
" transform="scale(0.015625)"/>
      <path id="Calibri-53" d="M 2709 1134 
Q 2709 850 2604 628 
Q 2500 406 2314 251 
Q 2128 97 1876 19 
Q 1625 -59 1334 -59 
Q 1131 -59 957 -25 
Q 784 9 648 59 
Q 513 109 420 162 
Q 328 216 292 253 
Q 256 291 239 348 
Q 222 406 222 503 
Q 222 572 228 617 
Q 234 663 246 691 
Q 259 719 278 730 
Q 297 741 322 741 
Q 366 741 445 687 
Q 525 634 650 571 
Q 775 509 951 454 
Q 1128 400 1359 400 
Q 1534 400 1679 447 
Q 1825 494 1929 580 
Q 2034 666 2090 791 
Q 2147 916 2147 1075 
Q 2147 1247 2069 1369 
Q 1991 1491 1862 1583 
Q 1734 1675 1570 1751 
Q 1406 1828 1234 1908 
Q 1063 1988 900 2084 
Q 738 2181 609 2312 
Q 481 2444 401 2620 
Q 322 2797 322 3044 
Q 322 3297 414 3495 
Q 506 3694 670 3828 
Q 834 3963 1061 4033 
Q 1288 4103 1550 4103 
Q 1684 4103 1820 4079 
Q 1956 4056 2076 4017 
Q 2197 3978 2290 3929 
Q 2384 3881 2414 3851 
Q 2444 3822 2453 3805 
Q 2463 3788 2469 3761 
Q 2475 3734 2478 3696 
Q 2481 3659 2481 3600 
Q 2481 3544 2476 3500 
Q 2472 3456 2462 3426 
Q 2453 3397 2436 3383 
Q 2419 3369 2397 3369 
Q 2363 3369 2289 3412 
Q 2216 3456 2109 3511 
Q 2003 3566 1858 3611 
Q 1713 3656 1531 3656 
Q 1363 3656 1238 3611 
Q 1113 3566 1031 3491 
Q 950 3416 909 3312 
Q 869 3209 869 3094 
Q 869 2925 947 2803 
Q 1025 2681 1154 2587 
Q 1284 2494 1450 2416 
Q 1616 2338 1787 2258 
Q 1959 2178 2125 2083 
Q 2291 1988 2420 1858 
Q 2550 1728 2629 1551 
Q 2709 1375 2709 1134 
z
" transform="scale(0.015625)"/>
      <path id="Calibri-63" d="M 2500 506 
Q 2500 453 2497 414 
Q 2494 375 2486 348 
Q 2478 322 2467 301 
Q 2456 281 2417 242 
Q 2378 203 2284 145 
Q 2191 88 2073 42 
Q 1956 -3 1818 -31 
Q 1681 -59 1534 -59 
Q 1231 -59 997 41 
Q 763 141 605 333 
Q 447 525 364 804 
Q 281 1084 281 1450 
Q 281 1866 382 2164 
Q 484 2463 661 2653 
Q 838 2844 1077 2936 
Q 1316 3028 1594 3028 
Q 1728 3028 1854 3003 
Q 1981 2978 2087 2937 
Q 2194 2897 2276 2844 
Q 2359 2791 2396 2753 
Q 2434 2716 2448 2694 
Q 2463 2672 2472 2642 
Q 2481 2613 2484 2575 
Q 2488 2538 2488 2481 
Q 2488 2359 2459 2311 
Q 2431 2263 2391 2263 
Q 2344 2263 2283 2314 
Q 2222 2366 2128 2428 
Q 2034 2491 1901 2542 
Q 1769 2594 1588 2594 
Q 1216 2594 1017 2308 
Q 819 2022 819 1478 
Q 819 1206 870 1001 
Q 922 797 1022 659 
Q 1122 522 1267 455 
Q 1413 388 1600 388 
Q 1778 388 1912 444 
Q 2047 500 2145 567 
Q 2244 634 2311 689 
Q 2378 744 2416 744 
Q 2438 744 2453 731 
Q 2469 719 2480 689 
Q 2491 659 2495 614 
Q 2500 569 2500 506 
z
" transform="scale(0.015625)"/>
     </defs>
     <use xlink:href="#Calibri-41"/>
     <use xlink:href="#Calibri-67" x="57.861328"/>
     <use xlink:href="#Calibri-65" x="104.931641"/>
     <use xlink:href="#Calibri-20" x="154.6875"/>
     <use xlink:href="#Calibri-66" x="177.294922"/>
     <use xlink:href="#Calibri-6f" x="207.8125"/>
     <use xlink:href="#Calibri-72" x="260.546875"/>
     <use xlink:href="#Calibri-20" x="295.410156"/>
     <use xlink:href="#Calibri-52" x="318.017578"/>
     <use xlink:href="#Calibri-65" x="372.314453"/>
     <use xlink:href="#Calibri-73" x="422.070312"/>
     <use xlink:href="#Calibri-69" x="461.181641"/>
     <use xlink:href="#Calibri-64" x="484.130859"/>
     <use xlink:href="#Calibri-65" x="536.669922"/>
     <use xlink:href="#Calibri-6e" x="586.425781"/>
     <use xlink:href="#Calibri-74" x="638.964844"/>
     <use xlink:href="#Calibri-69" x="672.460938"/>
     <use xlink:href="#Calibri-61" x="695.410156"/>
     <use xlink:href="#Calibri-6c" x="743.310547"/>
     <use xlink:href="#Calibri-20" x="766.259766"/>
     <use xlink:href="#Calibri-53" x="788.867188"/>
     <use xlink:href="#Calibri-74" x="834.814453"/>
     <use xlink:href="#Calibri-72" x="868.310547"/>
     <use xlink:href="#Calibri-75" x="903.173828"/>
     <use xlink:href="#Calibri-63" x="955.712891"/>
     <use xlink:href="#Calibri-74" x="997.998047"/>
     <use xlink:href="#Calibri-75" x="1031.494141"/>
     <use xlink:href="#Calibri-72" x="1084.033203"/>
     <use xlink:href="#Calibri-65" x="1118.896484"/>
     <use xlink:href="#Calibri-73" x="1168.652344"/>
    </g>
   </g>
  </g>
 </g>
</svg>
