<?xml version="1.0" encoding="utf-8" standalone="no"?>
<!DOCTYPE svg PUBLIC "-//W3C//DTD SVG 1.1//EN"
  "http://www.w3.org/Graphics/SVG/1.1/DTD/svg11.dtd">
<svg xmlns:xlink="http://www.w3.org/1999/xlink" width="713.403289pt" height="350.64pt" viewBox="0 0 713.403289 350.64" xmlns="http://www.w3.org/2000/svg" version="1.1">
 <metadata>
  <rdf:RDF xmlns:dc="http://purl.org/dc/elements/1.1/" xmlns:cc="http://creativecommons.org/ns#" xmlns:rdf="http://www.w3.org/1999/02/22-rdf-syntax-ns#">
   <cc:Work>
    <dc:type rdf:resource="http://purl.org/dc/dcmitype/StillImage"/>
    <dc:date>2023-04-25T14:31:00.249308</dc:date>
    <dc:format>image/svg+xml</dc:format>
    <dc:creator>
     <cc:Agent>
      <dc:title>Matplotlib v3.5.2, https://matplotlib.org/</dc:title>
     </cc:Agent>
    </dc:creator>
   </cc:Work>
  </rdf:RDF>
 </metadata>
 <defs>
  <style type="text/css">*{stroke-linejoin: round; stroke-linecap: butt}</style>
 </defs>
 <g id="figure_1">
  <g id="patch_1">
   <path d="M 0 350.64 
L 713.403289 350.64 
L 713.403289 0 
L 0 0 
L 0 350.64 
z
" style="fill: none"/>
  </g>
  <g id="axes_1">
   <g id="patch_2">
    <path d="M 67.488438 296.34875 
L 570.222656 296.34875 
L 570.222656 39.504687 
L 67.488438 39.504687 
L 67.488438 296.34875 
z
" style="fill: none"/>
   </g>
   <g id="matplotlib.axis_1">
    <g id="xtick_1">
     <g id="line2d_1">
      <defs>
       <path id="m0bf8eba214" d="M 0 0 
L 0 8 
" style="stroke: #7b7e85; stroke-width: 0.8"/>
      </defs>
      <g>
       <use xlink:href="#m0bf8eba214" x="161.258613" y="296.34875" style="fill: #7b7e85; stroke: #7b7e85; stroke-width: 0.8"/>
      </g>
     </g>
     <g id="text_1">
      <!-- 2000 -->
      <g style="fill: #7b7e85" transform="translate(150.107363 315.330469)scale(0.11 -0.11)">
       <defs>
        <path id="Calibri-32" d="M 2888 231 
Q 2888 175 2880 131 
Q 2872 88 2858 58 
Q 2844 28 2820 14 
Q 2797 0 2769 0 
L 534 0 
Q 491 0 458 11 
Q 425 22 401 47 
Q 378 72 367 119 
Q 356 166 356 234 
Q 356 297 361 344 
Q 366 391 381 427 
Q 397 463 420 498 
Q 444 534 481 575 
L 1266 1406 
Q 1538 1694 1702 1922 
Q 1866 2150 1955 2337 
Q 2044 2525 2072 2678 
Q 2100 2831 2100 2966 
Q 2100 3100 2056 3220 
Q 2013 3341 1930 3431 
Q 1847 3522 1722 3575 
Q 1597 3628 1434 3628 
Q 1244 3628 1092 3575 
Q 941 3522 827 3459 
Q 713 3397 636 3344 
Q 559 3291 522 3291 
Q 500 3291 483 3303 
Q 466 3316 455 3344 
Q 444 3372 437 3419 
Q 431 3466 431 3531 
Q 431 3578 434 3612 
Q 438 3647 445 3672 
Q 453 3697 465 3719 
Q 478 3741 515 3773 
Q 553 3806 645 3862 
Q 738 3919 877 3973 
Q 1016 4028 1183 4065 
Q 1350 4103 1534 4103 
Q 1828 4103 2048 4020 
Q 2269 3938 2414 3794 
Q 2559 3650 2631 3459 
Q 2703 3269 2703 3053 
Q 2703 2859 2668 2667 
Q 2634 2475 2523 2251 
Q 2413 2028 2203 1754 
Q 1994 1481 1647 1125 
L 1006 456 
L 2766 456 
Q 2791 456 2814 442 
Q 2838 428 2855 400 
Q 2872 372 2880 330 
Q 2888 288 2888 231 
z
" transform="scale(0.015625)"/>
        <path id="Calibri-30" d="M 3022 2031 
Q 3022 1566 2948 1181 
Q 2875 797 2704 520 
Q 2534 244 2259 92 
Q 1984 -59 1581 -59 
Q 1200 -59 939 77 
Q 678 213 518 477 
Q 359 741 292 1127 
Q 225 1513 225 2013 
Q 225 2475 300 2861 
Q 375 3247 544 3523 
Q 713 3800 988 3951 
Q 1263 4103 1663 4103 
Q 2047 4103 2308 3967 
Q 2569 3831 2728 3567 
Q 2888 3303 2955 2917 
Q 3022 2531 3022 2031 
z
M 2472 1994 
Q 2472 2297 2450 2537 
Q 2428 2778 2386 2962 
Q 2344 3147 2276 3280 
Q 2209 3413 2115 3498 
Q 2022 3584 1901 3623 
Q 1781 3663 1631 3663 
Q 1366 3663 1200 3538 
Q 1034 3413 939 3194 
Q 844 2975 809 2681 
Q 775 2388 775 2050 
Q 775 1597 822 1280 
Q 869 963 970 763 
Q 1072 563 1230 472 
Q 1388 381 1613 381 
Q 1788 381 1920 437 
Q 2053 494 2148 598 
Q 2244 703 2306 850 
Q 2369 997 2406 1175 
Q 2444 1353 2458 1561 
Q 2472 1769 2472 1994 
z
" transform="scale(0.015625)"/>
       </defs>
       <use xlink:href="#Calibri-32"/>
       <use xlink:href="#Calibri-30" x="50.683594"/>
       <use xlink:href="#Calibri-30" x="101.367188"/>
       <use xlink:href="#Calibri-30" x="152.050781"/>
      </g>
     </g>
    </g>
    <g id="xtick_2">
     <g id="line2d_2">
      <g>
       <use xlink:href="#m0bf8eba214" x="318.855547" y="296.34875" style="fill: #7b7e85; stroke: #7b7e85; stroke-width: 0.8"/>
      </g>
     </g>
     <g id="text_2">
      <!-- 2010 -->
      <g style="fill: #7b7e85" transform="translate(307.704297 315.330469)scale(0.11 -0.11)">
       <defs>
        <path id="Calibri-31" d="M 2897 213 
Q 2897 153 2887 112 
Q 2878 72 2862 47 
Q 2847 22 2826 11 
Q 2806 0 2784 0 
L 672 0 
Q 650 0 631 11 
Q 613 22 595 47 
Q 578 72 568 112 
Q 559 153 559 213 
Q 559 269 568 309 
Q 578 350 592 376 
Q 606 403 626 417 
Q 647 431 672 431 
L 1516 431 
L 1516 3506 
L 734 3041 
Q 675 3009 639 3003 
Q 603 2997 581 3017 
Q 559 3038 551 3084 
Q 544 3131 544 3203 
Q 544 3256 548 3293 
Q 553 3331 562 3356 
Q 572 3381 589 3400 
Q 606 3419 634 3438 
L 1566 4034 
Q 1578 4044 1597 4050 
Q 1616 4056 1644 4062 
Q 1672 4069 1709 4070 
Q 1747 4072 1803 4072 
Q 1878 4072 1928 4065 
Q 1978 4059 2006 4048 
Q 2034 4038 2043 4020 
Q 2053 4003 2053 3984 
L 2053 431 
L 2784 431 
Q 2809 431 2831 417 
Q 2853 403 2867 376 
Q 2881 350 2889 309 
Q 2897 269 2897 213 
z
" transform="scale(0.015625)"/>
       </defs>
       <use xlink:href="#Calibri-32"/>
       <use xlink:href="#Calibri-30" x="50.683594"/>
       <use xlink:href="#Calibri-31" x="101.367188"/>
       <use xlink:href="#Calibri-30" x="152.050781"/>
      </g>
     </g>
    </g>
    <g id="xtick_3">
     <g id="line2d_3">
      <g>
       <use xlink:href="#m0bf8eba214" x="476.452481" y="296.34875" style="fill: #7b7e85; stroke: #7b7e85; stroke-width: 0.8"/>
      </g>
     </g>
     <g id="text_3">
      <!-- 2020 -->
      <g style="fill: #7b7e85" transform="translate(465.301231 315.330469)scale(0.11 -0.11)">
       <use xlink:href="#Calibri-32"/>
       <use xlink:href="#Calibri-30" x="50.683594"/>
       <use xlink:href="#Calibri-32" x="101.367188"/>
       <use xlink:href="#Calibri-30" x="152.050781"/>
      </g>
     </g>
    </g>
    <g id="text_4">
     <!-- Year -->
     <g style="fill: #00263e" transform="translate(307.074297 341.128437)scale(0.13 -0.13)">
      <defs>
       <path id="Calibri-59" d="M 1828 1572 
L 1828 81 
Q 1828 56 1815 37 
Q 1803 19 1772 8 
Q 1741 -3 1687 -11 
Q 1634 -19 1559 -19 
Q 1481 -19 1429 -11 
Q 1378 -3 1345 8 
Q 1313 19 1300 37 
Q 1288 56 1288 81 
L 1288 1572 
L 144 3853 
Q 109 3925 101 3965 
Q 94 4006 117 4028 
Q 141 4050 202 4056 
Q 263 4063 366 4063 
Q 459 4063 517 4056 
Q 575 4050 609 4039 
Q 644 4028 661 4008 
Q 678 3988 694 3956 
L 1253 2794 
Q 1331 2628 1409 2447 
Q 1488 2266 1569 2081 
L 1575 2081 
Q 1647 2259 1723 2436 
Q 1800 2613 1878 2784 
L 2441 3953 
Q 2450 3984 2467 4006 
Q 2484 4028 2514 4039 
Q 2544 4050 2597 4056 
Q 2650 4063 2731 4063 
Q 2844 4063 2908 4055 
Q 2972 4047 2997 4025 
Q 3022 4003 3014 3962 
Q 3006 3922 2972 3853 
L 1828 1572 
z
" transform="scale(0.015625)"/>
       <path id="Calibri-65" d="M 2878 1606 
Q 2878 1484 2817 1432 
Q 2756 1381 2678 1381 
L 834 1381 
Q 834 1147 881 959 
Q 928 772 1037 637 
Q 1147 503 1322 431 
Q 1497 359 1750 359 
Q 1950 359 2106 392 
Q 2263 425 2377 465 
Q 2491 506 2564 539 
Q 2638 572 2675 572 
Q 2697 572 2714 561 
Q 2731 550 2740 528 
Q 2750 506 2754 467 
Q 2759 428 2759 372 
Q 2759 331 2756 301 
Q 2753 272 2748 248 
Q 2744 225 2733 206 
Q 2722 188 2705 170 
Q 2688 153 2603 114 
Q 2519 75 2384 37 
Q 2250 0 2073 -29 
Q 1897 -59 1697 -59 
Q 1350 -59 1089 37 
Q 828 134 650 325 
Q 472 516 381 803 
Q 291 1091 291 1472 
Q 291 1834 384 2123 
Q 478 2413 654 2614 
Q 831 2816 1081 2923 
Q 1331 3031 1641 3031 
Q 1972 3031 2205 2925 
Q 2438 2819 2588 2639 
Q 2738 2459 2808 2217 
Q 2878 1975 2878 1700 
L 2878 1606 
z
M 2359 1759 
Q 2369 2166 2180 2397 
Q 1991 2628 1619 2628 
Q 1428 2628 1284 2556 
Q 1141 2484 1044 2365 
Q 947 2247 894 2089 
Q 841 1931 834 1759 
L 2359 1759 
z
" transform="scale(0.015625)"/>
       <path id="Calibri-61" d="M 2597 75 
Q 2597 38 2572 19 
Q 2547 0 2503 -9 
Q 2459 -19 2375 -19 
Q 2294 -19 2245 -9 
Q 2197 0 2175 19 
Q 2153 38 2153 75 
L 2153 356 
Q 1969 159 1742 50 
Q 1516 -59 1263 -59 
Q 1041 -59 861 -1 
Q 681 56 554 165 
Q 428 275 358 434 
Q 288 594 288 797 
Q 288 1034 384 1209 
Q 481 1384 662 1500 
Q 844 1616 1106 1673 
Q 1369 1731 1697 1731 
L 2084 1731 
L 2084 1950 
Q 2084 2113 2050 2238 
Q 2016 2363 1939 2445 
Q 1863 2528 1741 2570 
Q 1619 2613 1441 2613 
Q 1250 2613 1098 2567 
Q 947 2522 833 2467 
Q 719 2413 642 2367 
Q 566 2322 528 2322 
Q 503 2322 484 2334 
Q 466 2347 452 2372 
Q 438 2397 431 2436 
Q 425 2475 425 2522 
Q 425 2600 436 2645 
Q 447 2691 489 2731 
Q 531 2772 634 2826 
Q 738 2881 872 2926 
Q 1006 2972 1165 3001 
Q 1325 3031 1488 3031 
Q 1791 3031 2003 2962 
Q 2216 2894 2347 2761 
Q 2478 2628 2537 2431 
Q 2597 2234 2597 1972 
L 2597 75 
z
M 2084 1359 
L 1644 1359 
Q 1431 1359 1275 1323 
Q 1119 1288 1016 1217 
Q 913 1147 864 1048 
Q 816 950 816 822 
Q 816 603 955 473 
Q 1094 344 1344 344 
Q 1547 344 1720 447 
Q 1894 550 2084 763 
L 2084 1359 
z
" transform="scale(0.015625)"/>
       <path id="Calibri-72" d="M 2122 2706 
Q 2122 2638 2119 2591 
Q 2116 2544 2106 2517 
Q 2097 2491 2083 2477 
Q 2069 2463 2044 2463 
Q 2019 2463 1983 2477 
Q 1947 2491 1901 2505 
Q 1856 2519 1800 2531 
Q 1744 2544 1678 2544 
Q 1600 2544 1525 2512 
Q 1450 2481 1367 2409 
Q 1284 2338 1193 2219 
Q 1103 2100 994 1928 
L 994 78 
Q 994 53 981 36 
Q 969 19 941 6 
Q 913 -6 863 -12 
Q 813 -19 734 -19 
Q 659 -19 609 -12 
Q 559 -6 529 6 
Q 500 19 489 36 
Q 478 53 478 78 
L 478 2891 
Q 478 2916 487 2933 
Q 497 2950 525 2964 
Q 553 2978 597 2983 
Q 641 2988 713 2988 
Q 781 2988 826 2983 
Q 872 2978 897 2964 
Q 922 2950 933 2933 
Q 944 2916 944 2891 
L 944 2481 
Q 1059 2650 1161 2756 
Q 1263 2863 1353 2923 
Q 1444 2984 1533 3007 
Q 1622 3031 1713 3031 
Q 1753 3031 1804 3026 
Q 1856 3022 1912 3009 
Q 1969 2997 2014 2981 
Q 2059 2966 2078 2950 
Q 2097 2934 2103 2920 
Q 2109 2906 2114 2884 
Q 2119 2863 2120 2820 
Q 2122 2778 2122 2706 
z
" transform="scale(0.015625)"/>
      </defs>
      <use xlink:href="#Calibri-59"/>
      <use xlink:href="#Calibri-65" x="48.730469"/>
      <use xlink:href="#Calibri-61" x="98.486328"/>
      <use xlink:href="#Calibri-72" x="146.386719"/>
     </g>
    </g>
   </g>
   <g id="matplotlib.axis_2">
    <g id="ytick_1">
     <g id="line2d_4">
      <defs>
       <path id="m303971c3e1" d="M 0 0 
L -6 0 
" style="stroke: #7b7e85; stroke-width: 0.8"/>
      </defs>
      <g>
       <use xlink:href="#m303971c3e1" x="67.488438" y="284.67402" style="fill: #7b7e85; stroke: #7b7e85; stroke-width: 0.8"/>
      </g>
     </g>
     <g id="text_5">
      <!-- 0% -->
      <g style="fill: #7b7e85" transform="translate(44.549531 288.414879)scale(0.11 -0.11)">
       <defs>
        <path id="Calibri-25" d="M 1966 3044 
Q 1966 2803 1912 2606 
Q 1859 2410 1750 2270 
Q 1641 2131 1473 2053 
Q 1306 1975 1081 1975 
Q 853 1975 690 2047 
Q 528 2119 425 2255 
Q 322 2391 273 2586 
Q 225 2781 225 3031 
Q 225 3260 276 3453 
Q 328 3647 434 3787 
Q 541 3928 708 4009 
Q 875 4091 1103 4091 
Q 1350 4091 1517 4006 
Q 1684 3922 1784 3780 
Q 1884 3638 1925 3447 
Q 1966 3256 1966 3044 
z
M 1528 3028 
Q 1528 3203 1503 3339 
Q 1478 3475 1426 3565 
Q 1375 3656 1290 3701 
Q 1206 3747 1091 3747 
Q 981 3747 900 3703 
Q 819 3660 767 3572 
Q 716 3485 691 3355 
Q 666 3225 666 3050 
Q 666 2838 695 2695 
Q 725 2553 779 2470 
Q 834 2388 917 2355 
Q 1000 2322 1106 2322 
Q 1231 2322 1311 2369 
Q 1391 2416 1439 2508 
Q 1488 2600 1508 2730 
Q 1528 2860 1528 3028 
z
M 4350 1022 
Q 4350 781 4297 584 
Q 4244 388 4134 248 
Q 4025 109 3858 31 
Q 3691 -47 3466 -47 
Q 3238 -47 3075 25 
Q 2913 97 2809 233 
Q 2706 369 2657 564 
Q 2609 759 2609 1009 
Q 2609 1238 2661 1431 
Q 2713 1625 2819 1765 
Q 2925 1906 3092 1987 
Q 3259 2069 3488 2069 
Q 3734 2069 3901 1984 
Q 4069 1900 4169 1758 
Q 4269 1616 4309 1425 
Q 4350 1234 4350 1022 
z
M 3913 1006 
Q 3913 1181 3888 1317 
Q 3863 1453 3811 1543 
Q 3759 1634 3675 1679 
Q 3591 1725 3475 1725 
Q 3366 1725 3284 1681 
Q 3203 1638 3151 1550 
Q 3100 1463 3075 1333 
Q 3050 1203 3050 1028 
Q 3050 816 3079 673 
Q 3109 531 3164 448 
Q 3219 366 3301 333 
Q 3384 300 3491 300 
Q 3616 300 3695 347 
Q 3775 394 3823 486 
Q 3872 578 3892 708 
Q 3913 838 3913 1006 
z
M 1081 -25 
Q 1066 -53 1044 -67 
Q 1022 -81 990 -92 
Q 959 -103 915 -108 
Q 872 -113 809 -113 
Q 741 -113 698 -100 
Q 656 -88 639 -67 
Q 622 -47 626 -17 
Q 631 13 656 50 
L 3469 4078 
Q 3484 4103 3506 4120 
Q 3528 4138 3561 4147 
Q 3594 4156 3636 4161 
Q 3678 4166 3744 4166 
Q 3809 4166 3851 4155 
Q 3894 4144 3912 4122 
Q 3931 4100 3926 4069 
Q 3922 4038 3897 4003 
L 1081 -25 
z
" transform="scale(0.015625)"/>
       </defs>
       <use xlink:href="#Calibri-30"/>
       <use xlink:href="#Calibri-25" x="50.683594"/>
      </g>
     </g>
    </g>
    <g id="ytick_2">
     <g id="line2d_5">
      <g>
       <use xlink:href="#m303971c3e1" x="67.488438" y="237.975099" style="fill: #7b7e85; stroke: #7b7e85; stroke-width: 0.8"/>
      </g>
     </g>
     <g id="text_6">
      <!-- 20% -->
      <g style="fill: #7b7e85" transform="translate(38.973906 241.715959)scale(0.11 -0.11)">
       <use xlink:href="#Calibri-32"/>
       <use xlink:href="#Calibri-30" x="50.683594"/>
       <use xlink:href="#Calibri-25" x="101.367188"/>
      </g>
     </g>
    </g>
    <g id="ytick_3">
     <g id="line2d_6">
      <g>
       <use xlink:href="#m303971c3e1" x="67.488438" y="191.276179" style="fill: #7b7e85; stroke: #7b7e85; stroke-width: 0.8"/>
      </g>
     </g>
     <g id="text_7">
      <!-- 40% -->
      <g style="fill: #7b7e85" transform="translate(38.973906 195.017038)scale(0.11 -0.11)">
       <defs>
        <path id="Calibri-34" d="M 3059 1150 
Q 3059 1047 3028 987 
Q 2997 928 2941 928 
L 2484 928 
L 2484 78 
Q 2484 53 2471 36 
Q 2459 19 2428 6 
Q 2397 -6 2347 -12 
Q 2297 -19 2219 -19 
Q 2144 -19 2094 -12 
Q 2044 -6 2014 6 
Q 1984 19 1973 36 
Q 1963 53 1963 78 
L 1963 928 
L 294 928 
Q 256 928 231 937 
Q 206 947 186 972 
Q 166 997 158 1044 
Q 150 1091 150 1166 
Q 150 1225 153 1272 
Q 156 1319 165 1358 
Q 175 1397 190 1433 
Q 206 1469 228 1509 
L 1684 3966 
Q 1700 3991 1729 4009 
Q 1759 4028 1806 4040 
Q 1853 4053 1922 4058 
Q 1991 4063 2084 4063 
Q 2188 4063 2264 4055 
Q 2341 4047 2387 4034 
Q 2434 4022 2459 4001 
Q 2484 3981 2484 3953 
L 2484 1372 
L 2941 1372 
Q 2994 1372 3026 1317 
Q 3059 1263 3059 1150 
z
M 1963 3591 
L 1956 3591 
L 641 1372 
L 1963 1372 
L 1963 3591 
z
" transform="scale(0.015625)"/>
       </defs>
       <use xlink:href="#Calibri-34"/>
       <use xlink:href="#Calibri-30" x="50.683594"/>
       <use xlink:href="#Calibri-25" x="101.367188"/>
      </g>
     </g>
    </g>
    <g id="ytick_4">
     <g id="line2d_7">
      <g>
       <use xlink:href="#m303971c3e1" x="67.488438" y="144.577259" style="fill: #7b7e85; stroke: #7b7e85; stroke-width: 0.8"/>
      </g>
     </g>
     <g id="text_8">
      <!-- 60% -->
      <g style="fill: #7b7e85" transform="translate(38.973906 148.318118)scale(0.11 -0.11)">
       <defs>
        <path id="Calibri-36" d="M 2991 1309 
Q 2991 1044 2909 795 
Q 2828 547 2659 358 
Q 2491 169 2231 55 
Q 1972 -59 1619 -59 
Q 1366 -59 1172 3 
Q 978 66 834 181 
Q 691 297 595 465 
Q 500 634 442 850 
Q 384 1066 359 1322 
Q 334 1578 334 1872 
Q 334 2131 362 2397 
Q 391 2663 462 2909 
Q 534 3156 657 3373 
Q 781 3591 967 3752 
Q 1153 3913 1412 4006 
Q 1672 4100 2016 4100 
Q 2131 4100 2250 4086 
Q 2369 4072 2469 4048 
Q 2569 4025 2637 3997 
Q 2706 3969 2728 3951 
Q 2750 3934 2761 3914 
Q 2772 3894 2778 3870 
Q 2784 3847 2787 3817 
Q 2791 3788 2791 3744 
Q 2791 3688 2789 3647 
Q 2788 3606 2777 3581 
Q 2766 3556 2748 3543 
Q 2731 3531 2703 3531 
Q 2669 3531 2609 3553 
Q 2550 3575 2465 3601 
Q 2381 3628 2261 3650 
Q 2141 3672 1981 3672 
Q 1691 3672 1481 3553 
Q 1272 3434 1139 3234 
Q 1006 3034 942 2770 
Q 878 2506 869 2219 
Q 950 2266 1051 2312 
Q 1153 2359 1273 2396 
Q 1394 2434 1528 2457 
Q 1663 2481 1816 2481 
Q 2144 2481 2369 2392 
Q 2594 2303 2733 2145 
Q 2872 1988 2931 1773 
Q 2991 1559 2991 1309 
z
M 2447 1259 
Q 2447 1441 2411 1589 
Q 2375 1738 2290 1841 
Q 2206 1944 2065 2000 
Q 1925 2056 1719 2056 
Q 1603 2056 1487 2036 
Q 1372 2016 1264 1980 
Q 1156 1944 1057 1895 
Q 959 1847 878 1791 
Q 878 1388 929 1116 
Q 981 844 1079 680 
Q 1178 516 1325 445 
Q 1472 375 1669 375 
Q 1869 375 2016 450 
Q 2163 525 2259 651 
Q 2356 778 2401 936 
Q 2447 1094 2447 1259 
z
" transform="scale(0.015625)"/>
       </defs>
       <use xlink:href="#Calibri-36"/>
       <use xlink:href="#Calibri-30" x="50.683594"/>
       <use xlink:href="#Calibri-25" x="101.367188"/>
      </g>
     </g>
    </g>
    <g id="ytick_5">
     <g id="line2d_8">
      <g>
       <use xlink:href="#m303971c3e1" x="67.488438" y="97.878338" style="fill: #7b7e85; stroke: #7b7e85; stroke-width: 0.8"/>
      </g>
     </g>
     <g id="text_9">
      <!-- 80% -->
      <g style="fill: #7b7e85" transform="translate(38.973906 101.619197)scale(0.11 -0.11)">
       <defs>
        <path id="Calibri-38" d="M 2981 1038 
Q 2981 775 2887 570 
Q 2794 366 2617 225 
Q 2441 84 2181 12 
Q 1922 -59 1588 -59 
Q 1275 -59 1028 6 
Q 781 72 609 200 
Q 438 328 347 515 
Q 256 703 256 944 
Q 256 1134 318 1293 
Q 381 1453 498 1587 
Q 616 1722 787 1839 
Q 959 1956 1175 2063 
Q 988 2159 844 2267 
Q 700 2375 600 2501 
Q 500 2628 448 2772 
Q 397 2916 397 3084 
Q 397 3297 473 3483 
Q 550 3669 704 3806 
Q 859 3944 1098 4023 
Q 1338 4103 1656 4103 
Q 1963 4103 2186 4029 
Q 2409 3956 2554 3829 
Q 2700 3703 2769 3531 
Q 2838 3359 2838 3163 
Q 2838 3003 2786 2856 
Q 2734 2709 2634 2578 
Q 2534 2447 2389 2333 
Q 2244 2219 2056 2119 
Q 2278 2009 2451 1893 
Q 2625 1778 2742 1645 
Q 2859 1513 2920 1364 
Q 2981 1216 2981 1038 
z
M 2306 3113 
Q 2306 3244 2261 3350 
Q 2216 3456 2128 3531 
Q 2041 3606 1911 3645 
Q 1781 3684 1616 3684 
Q 1278 3684 1104 3531 
Q 931 3378 931 3113 
Q 931 2991 973 2886 
Q 1016 2781 1105 2687 
Q 1194 2594 1330 2505 
Q 1466 2416 1653 2319 
Q 1969 2481 2137 2678 
Q 2306 2875 2306 3113 
z
M 2438 981 
Q 2438 1125 2384 1242 
Q 2331 1359 2223 1461 
Q 2116 1563 1955 1658 
Q 1794 1753 1581 1856 
Q 1384 1759 1236 1662 
Q 1088 1566 992 1462 
Q 897 1359 848 1245 
Q 800 1131 800 994 
Q 800 691 1008 525 
Q 1216 359 1628 359 
Q 2028 359 2233 526 
Q 2438 694 2438 981 
z
" transform="scale(0.015625)"/>
       </defs>
       <use xlink:href="#Calibri-38"/>
       <use xlink:href="#Calibri-30" x="50.683594"/>
       <use xlink:href="#Calibri-25" x="101.367188"/>
      </g>
     </g>
    </g>
    <g id="ytick_6">
     <g id="line2d_9">
      <g>
       <use xlink:href="#m303971c3e1" x="67.488438" y="51.179418" style="fill: #7b7e85; stroke: #7b7e85; stroke-width: 0.8"/>
      </g>
     </g>
     <g id="text_10">
      <!-- 100% -->
      <g style="fill: #7b7e85" transform="translate(33.398281 54.920277)scale(0.11 -0.11)">
       <use xlink:href="#Calibri-31"/>
       <use xlink:href="#Calibri-30" x="50.683594"/>
       <use xlink:href="#Calibri-30" x="101.367188"/>
       <use xlink:href="#Calibri-25" x="152.050781"/>
      </g>
     </g>
    </g>
    <g id="text_11">
     <!-- Share of Non-White Population -->
     <g style="fill: #00263e" transform="translate(16.086719 250.628047)rotate(-90)scale(0.13 -0.13)">
      <defs>
       <path id="Calibri-53" d="M 2709 1134 
Q 2709 850 2604 628 
Q 2500 406 2314 251 
Q 2128 97 1876 19 
Q 1625 -59 1334 -59 
Q 1131 -59 957 -25 
Q 784 9 648 59 
Q 513 109 420 162 
Q 328 216 292 253 
Q 256 291 239 348 
Q 222 406 222 503 
Q 222 572 228 617 
Q 234 663 246 691 
Q 259 719 278 730 
Q 297 741 322 741 
Q 366 741 445 687 
Q 525 634 650 571 
Q 775 509 951 454 
Q 1128 400 1359 400 
Q 1534 400 1679 447 
Q 1825 494 1929 580 
Q 2034 666 2090 791 
Q 2147 916 2147 1075 
Q 2147 1247 2069 1369 
Q 1991 1491 1862 1583 
Q 1734 1675 1570 1751 
Q 1406 1828 1234 1908 
Q 1063 1988 900 2084 
Q 738 2181 609 2312 
Q 481 2444 401 2620 
Q 322 2797 322 3044 
Q 322 3297 414 3495 
Q 506 3694 670 3828 
Q 834 3963 1061 4033 
Q 1288 4103 1550 4103 
Q 1684 4103 1820 4079 
Q 1956 4056 2076 4017 
Q 2197 3978 2290 3929 
Q 2384 3881 2414 3851 
Q 2444 3822 2453 3805 
Q 2463 3788 2469 3761 
Q 2475 3734 2478 3696 
Q 2481 3659 2481 3600 
Q 2481 3544 2476 3500 
Q 2472 3456 2462 3426 
Q 2453 3397 2436 3383 
Q 2419 3369 2397 3369 
Q 2363 3369 2289 3412 
Q 2216 3456 2109 3511 
Q 2003 3566 1858 3611 
Q 1713 3656 1531 3656 
Q 1363 3656 1238 3611 
Q 1113 3566 1031 3491 
Q 950 3416 909 3312 
Q 869 3209 869 3094 
Q 869 2925 947 2803 
Q 1025 2681 1154 2587 
Q 1284 2494 1450 2416 
Q 1616 2338 1787 2258 
Q 1959 2178 2125 2083 
Q 2291 1988 2420 1858 
Q 2550 1728 2629 1551 
Q 2709 1375 2709 1134 
z
" transform="scale(0.015625)"/>
       <path id="Calibri-68" d="M 2900 78 
Q 2900 53 2887 36 
Q 2875 19 2847 6 
Q 2819 -6 2769 -12 
Q 2719 -19 2644 -19 
Q 2566 -19 2516 -12 
Q 2466 -6 2437 6 
Q 2409 19 2396 36 
Q 2384 53 2384 78 
L 2384 1725 
Q 2384 1966 2346 2112 
Q 2309 2259 2237 2365 
Q 2166 2472 2052 2528 
Q 1938 2584 1788 2584 
Q 1594 2584 1400 2446 
Q 1206 2309 994 2044 
L 994 78 
Q 994 53 981 36 
Q 969 19 941 6 
Q 913 -6 863 -12 
Q 813 -19 734 -19 
Q 659 -19 609 -12 
Q 559 -6 529 6 
Q 500 19 489 36 
Q 478 53 478 78 
L 478 4253 
Q 478 4278 489 4297 
Q 500 4316 529 4328 
Q 559 4341 609 4347 
Q 659 4353 734 4353 
Q 813 4353 863 4347 
Q 913 4341 941 4328 
Q 969 4316 981 4297 
Q 994 4278 994 4253 
L 994 2569 
Q 1216 2803 1441 2917 
Q 1666 3031 1894 3031 
Q 2175 3031 2367 2936 
Q 2559 2841 2678 2681 
Q 2797 2522 2848 2308 
Q 2900 2094 2900 1791 
L 2900 78 
z
" transform="scale(0.015625)"/>
       <path id="Calibri-20" transform="scale(0.015625)"/>
       <path id="Calibri-6f" d="M 3094 1516 
Q 3094 1172 3003 883 
Q 2913 594 2733 384 
Q 2553 175 2283 58 
Q 2013 -59 1656 -59 
Q 1309 -59 1051 44 
Q 794 147 622 344 
Q 450 541 365 822 
Q 281 1103 281 1459 
Q 281 1803 370 2092 
Q 459 2381 639 2590 
Q 819 2800 1087 2915 
Q 1356 3031 1716 3031 
Q 2063 3031 2320 2928 
Q 2578 2825 2750 2628 
Q 2922 2431 3008 2150 
Q 3094 1869 3094 1516 
z
M 2550 1481 
Q 2550 1709 2508 1912 
Q 2466 2116 2369 2269 
Q 2272 2422 2106 2511 
Q 1941 2600 1694 2600 
Q 1466 2600 1302 2519 
Q 1138 2438 1031 2289 
Q 925 2141 873 1937 
Q 822 1734 822 1494 
Q 822 1263 864 1059 
Q 906 856 1004 704 
Q 1103 553 1268 464 
Q 1434 375 1681 375 
Q 1906 375 2072 456 
Q 2238 538 2344 684 
Q 2450 831 2500 1034 
Q 2550 1238 2550 1481 
z
" transform="scale(0.015625)"/>
       <path id="Calibri-66" d="M 2019 4047 
Q 2019 3988 2012 3952 
Q 2006 3916 1998 3894 
Q 1991 3872 1978 3864 
Q 1966 3856 1947 3856 
Q 1925 3856 1892 3870 
Q 1859 3884 1812 3901 
Q 1766 3919 1702 3933 
Q 1638 3947 1553 3947 
Q 1438 3947 1356 3909 
Q 1275 3872 1225 3792 
Q 1175 3713 1153 3586 
Q 1131 3459 1131 3278 
L 1131 2972 
L 1759 2972 
Q 1784 2972 1801 2961 
Q 1819 2950 1833 2923 
Q 1847 2897 1855 2856 
Q 1863 2816 1863 2756 
Q 1863 2644 1834 2594 
Q 1806 2544 1759 2544 
L 1131 2544 
L 1131 78 
Q 1131 53 1118 36 
Q 1106 19 1076 6 
Q 1047 -6 997 -12 
Q 947 -19 872 -19 
Q 797 -19 747 -12 
Q 697 -6 667 6 
Q 638 19 625 36 
Q 613 53 613 78 
L 613 2544 
L 216 2544 
Q 166 2544 141 2594 
Q 116 2644 116 2756 
Q 116 2816 122 2856 
Q 128 2897 140 2923 
Q 153 2950 172 2961 
Q 191 2972 216 2972 
L 613 2972 
L 613 3263 
Q 613 3556 667 3767 
Q 722 3978 834 4112 
Q 947 4247 1117 4311 
Q 1288 4375 1519 4375 
Q 1628 4375 1731 4354 
Q 1834 4334 1890 4311 
Q 1947 4288 1965 4269 
Q 1984 4250 1996 4220 
Q 2009 4191 2014 4148 
Q 2019 4106 2019 4047 
z
" transform="scale(0.015625)"/>
       <path id="Calibri-4e" d="M 3594 222 
Q 3594 159 3573 115 
Q 3553 72 3520 44 
Q 3488 16 3447 3 
Q 3406 -9 3366 -9 
L 3194 -9 
Q 3113 -9 3052 8 
Q 2991 25 2936 70 
Q 2881 116 2826 194 
Q 2772 272 2706 394 
L 1431 2694 
Q 1331 2872 1229 3067 
Q 1128 3263 1041 3447 
L 1034 3447 
Q 1041 3222 1044 2987 
Q 1047 2753 1047 2522 
L 1047 81 
Q 1047 59 1034 39 
Q 1022 19 992 8 
Q 963 -3 914 -11 
Q 866 -19 791 -19 
Q 716 -19 667 -11 
Q 619 -3 591 8 
Q 563 19 550 39 
Q 538 59 538 81 
L 538 3813 
Q 538 3938 606 3991 
Q 675 4044 756 4044 
L 1013 4044 
Q 1103 4044 1164 4028 
Q 1225 4013 1273 3977 
Q 1322 3941 1367 3877 
Q 1413 3813 1466 3716 
L 2447 1941 
Q 2538 1778 2622 1623 
Q 2706 1469 2784 1319 
Q 2863 1169 2939 1023 
Q 3016 878 3091 731 
L 3094 731 
Q 3088 978 3086 1245 
Q 3084 1513 3084 1759 
L 3084 3953 
Q 3084 3975 3096 3994 
Q 3109 4013 3139 4027 
Q 3169 4041 3217 4047 
Q 3266 4053 3344 4053 
Q 3413 4053 3463 4047 
Q 3513 4041 3541 4027 
Q 3569 4013 3581 3994 
Q 3594 3975 3594 3953 
L 3594 222 
z
" transform="scale(0.015625)"/>
       <path id="Calibri-6e" d="M 2900 78 
Q 2900 53 2887 36 
Q 2875 19 2847 6 
Q 2819 -6 2769 -12 
Q 2719 -19 2644 -19 
Q 2566 -19 2516 -12 
Q 2466 -6 2437 6 
Q 2409 19 2396 36 
Q 2384 53 2384 78 
L 2384 1725 
Q 2384 1966 2346 2112 
Q 2309 2259 2237 2365 
Q 2166 2472 2052 2528 
Q 1938 2584 1788 2584 
Q 1594 2584 1400 2446 
Q 1206 2309 994 2044 
L 994 78 
Q 994 53 981 36 
Q 969 19 941 6 
Q 913 -6 863 -12 
Q 813 -19 734 -19 
Q 659 -19 609 -12 
Q 559 -6 529 6 
Q 500 19 489 36 
Q 478 53 478 78 
L 478 2891 
Q 478 2916 487 2933 
Q 497 2950 525 2964 
Q 553 2978 597 2983 
Q 641 2988 713 2988 
Q 781 2988 826 2983 
Q 872 2978 897 2964 
Q 922 2950 933 2933 
Q 944 2916 944 2891 
L 944 2519 
Q 1181 2784 1417 2907 
Q 1653 3031 1894 3031 
Q 2175 3031 2367 2936 
Q 2559 2841 2678 2681 
Q 2797 2522 2848 2308 
Q 2900 2094 2900 1794 
L 2900 78 
z
" transform="scale(0.015625)"/>
       <path id="Calibri-2d" d="M 1744 1578 
Q 1744 1456 1716 1409 
Q 1688 1363 1634 1363 
L 328 1363 
Q 272 1363 244 1411 
Q 216 1459 216 1578 
Q 216 1697 244 1744 
Q 272 1791 328 1791 
L 1634 1791 
Q 1659 1791 1679 1781 
Q 1700 1772 1714 1745 
Q 1728 1719 1736 1678 
Q 1744 1638 1744 1578 
z
" transform="scale(0.015625)"/>
       <path id="Calibri-57" d="M 4409 119 
Q 4397 75 4372 48 
Q 4347 22 4303 8 
Q 4259 -6 4195 -12 
Q 4131 -19 4038 -19 
Q 3941 -19 3873 -12 
Q 3806 -6 3762 8 
Q 3719 22 3697 48 
Q 3675 75 3663 119 
L 2816 3172 
L 2809 3172 
L 2028 119 
Q 2019 75 1997 48 
Q 1975 22 1934 8 
Q 1894 -6 1830 -12 
Q 1766 -19 1666 -19 
Q 1563 -19 1494 -12 
Q 1425 -6 1381 8 
Q 1338 22 1314 48 
Q 1291 75 1281 119 
L 213 3853 
Q 194 3925 192 3965 
Q 191 4006 217 4028 
Q 244 4050 303 4056 
Q 363 4063 463 4063 
Q 559 4063 615 4058 
Q 672 4053 701 4040 
Q 731 4028 742 4006 
Q 753 3984 759 3950 
L 1669 563 
L 1672 563 
L 2534 3944 
Q 2544 3978 2558 4001 
Q 2572 4025 2603 4037 
Q 2634 4050 2692 4056 
Q 2750 4063 2844 4063 
Q 2931 4063 2982 4056 
Q 3034 4050 3065 4037 
Q 3097 4025 3111 4001 
Q 3125 3978 3134 3944 
L 4063 563 
L 4069 563 
L 4959 3947 
Q 4969 3978 4978 4001 
Q 4988 4025 5017 4037 
Q 5047 4050 5101 4056 
Q 5156 4063 5247 4063 
Q 5341 4063 5395 4055 
Q 5450 4047 5475 4025 
Q 5500 4003 5498 3962 
Q 5497 3922 5481 3850 
L 4409 119 
z
" transform="scale(0.015625)"/>
       <path id="Calibri-69" d="M 994 78 
Q 994 53 981 36 
Q 969 19 941 6 
Q 913 -6 863 -12 
Q 813 -19 734 -19 
Q 659 -19 609 -12 
Q 559 -6 529 6 
Q 500 19 489 36 
Q 478 53 478 78 
L 478 2891 
Q 478 2913 489 2931 
Q 500 2950 529 2962 
Q 559 2975 609 2981 
Q 659 2988 734 2988 
Q 813 2988 863 2981 
Q 913 2975 941 2962 
Q 969 2950 981 2931 
Q 994 2913 994 2891 
L 994 78 
z
M 1053 3841 
Q 1053 3659 984 3593 
Q 916 3528 731 3528 
Q 550 3528 483 3592 
Q 416 3656 416 3834 
Q 416 4016 484 4081 
Q 553 4147 738 4147 
Q 919 4147 986 4083 
Q 1053 4019 1053 3841 
z
" transform="scale(0.015625)"/>
       <path id="Calibri-74" d="M 1941 284 
Q 1941 194 1928 141 
Q 1916 88 1891 63 
Q 1866 38 1816 16 
Q 1766 -6 1702 -20 
Q 1638 -34 1566 -43 
Q 1494 -53 1422 -53 
Q 1203 -53 1047 5 
Q 891 63 791 180 
Q 691 297 645 476 
Q 600 656 600 900 
L 600 2544 
L 206 2544 
Q 159 2544 131 2594 
Q 103 2644 103 2756 
Q 103 2816 111 2856 
Q 119 2897 131 2923 
Q 144 2950 164 2961 
Q 184 2972 209 2972 
L 600 2972 
L 600 3641 
Q 600 3663 611 3681 
Q 622 3700 651 3714 
Q 681 3728 731 3734 
Q 781 3741 856 3741 
Q 934 3741 984 3734 
Q 1034 3728 1062 3714 
Q 1091 3700 1103 3681 
Q 1116 3663 1116 3641 
L 1116 2972 
L 1838 2972 
Q 1863 2972 1881 2961 
Q 1900 2950 1914 2923 
Q 1928 2897 1934 2856 
Q 1941 2816 1941 2756 
Q 1941 2644 1912 2594 
Q 1884 2544 1838 2544 
L 1116 2544 
L 1116 975 
Q 1116 684 1202 536 
Q 1288 388 1509 388 
Q 1581 388 1637 402 
Q 1694 416 1737 431 
Q 1781 447 1812 461 
Q 1844 475 1869 475 
Q 1884 475 1898 467 
Q 1913 459 1920 437 
Q 1928 416 1934 378 
Q 1941 341 1941 284 
z
" transform="scale(0.015625)"/>
       <path id="Calibri-50" d="M 3022 2859 
Q 3022 2556 2922 2312 
Q 2822 2069 2636 1897 
Q 2450 1725 2179 1631 
Q 1909 1538 1534 1538 
L 1075 1538 
L 1075 81 
Q 1075 56 1061 37 
Q 1047 19 1017 8 
Q 988 -3 936 -11 
Q 884 -19 806 -19 
Q 728 -19 676 -11 
Q 625 -3 594 8 
Q 563 19 550 37 
Q 538 56 538 81 
L 538 3813 
Q 538 3938 603 3991 
Q 669 4044 750 4044 
L 1616 4044 
Q 1747 4044 1867 4033 
Q 1988 4022 2152 3986 
Q 2316 3950 2486 3851 
Q 2656 3753 2775 3609 
Q 2894 3466 2958 3277 
Q 3022 3088 3022 2859 
z
M 2456 2816 
Q 2456 3063 2364 3228 
Q 2272 3394 2136 3475 
Q 2000 3556 1854 3578 
Q 1709 3600 1572 3600 
L 1075 3600 
L 1075 1978 
L 1559 1978 
Q 1803 1978 1964 2040 
Q 2125 2103 2234 2214 
Q 2344 2325 2400 2479 
Q 2456 2634 2456 2816 
z
" transform="scale(0.015625)"/>
       <path id="Calibri-70" d="M 3066 1528 
Q 3066 1159 2986 865 
Q 2906 572 2751 367 
Q 2597 163 2369 52 
Q 2141 -59 1847 -59 
Q 1722 -59 1615 -34 
Q 1509 -9 1407 44 
Q 1306 97 1206 178 
Q 1106 259 994 369 
L 994 -1038 
Q 994 -1063 981 -1081 
Q 969 -1100 941 -1112 
Q 913 -1125 863 -1131 
Q 813 -1138 734 -1138 
Q 659 -1138 609 -1131 
Q 559 -1125 529 -1112 
Q 500 -1100 489 -1081 
Q 478 -1063 478 -1038 
L 478 2891 
Q 478 2919 487 2936 
Q 497 2953 525 2965 
Q 553 2978 597 2983 
Q 641 2988 703 2988 
Q 769 2988 811 2983 
Q 853 2978 881 2965 
Q 909 2953 920 2936 
Q 931 2919 931 2891 
L 931 2513 
Q 1059 2644 1178 2741 
Q 1297 2838 1417 2902 
Q 1538 2966 1664 2998 
Q 1791 3031 1931 3031 
Q 2238 3031 2453 2912 
Q 2669 2794 2805 2587 
Q 2941 2381 3003 2107 
Q 3066 1834 3066 1528 
z
M 2522 1469 
Q 2522 1684 2489 1886 
Q 2456 2088 2376 2244 
Q 2297 2400 2162 2494 
Q 2028 2588 1828 2588 
Q 1728 2588 1631 2558 
Q 1534 2528 1434 2464 
Q 1334 2400 1225 2295 
Q 1116 2191 994 2038 
L 994 919 
Q 1206 659 1397 521 
Q 1588 384 1797 384 
Q 1991 384 2130 478 
Q 2269 572 2355 728 
Q 2441 884 2481 1078 
Q 2522 1272 2522 1469 
z
" transform="scale(0.015625)"/>
       <path id="Calibri-75" d="M 2888 78 
Q 2888 53 2877 36 
Q 2866 19 2837 6 
Q 2809 -6 2764 -12 
Q 2719 -19 2653 -19 
Q 2581 -19 2536 -12 
Q 2491 -6 2464 6 
Q 2438 19 2428 36 
Q 2419 53 2419 78 
L 2419 450 
Q 2178 184 1943 62 
Q 1709 -59 1469 -59 
Q 1188 -59 995 34 
Q 803 128 684 289 
Q 566 450 514 664 
Q 463 878 463 1184 
L 463 2891 
Q 463 2916 473 2933 
Q 484 2950 515 2964 
Q 547 2978 597 2983 
Q 647 2988 722 2988 
Q 797 2988 847 2983 
Q 897 2978 926 2964 
Q 956 2950 968 2933 
Q 981 2916 981 2891 
L 981 1253 
Q 981 1006 1017 857 
Q 1053 709 1126 604 
Q 1200 500 1312 442 
Q 1425 384 1575 384 
Q 1769 384 1961 521 
Q 2153 659 2369 925 
L 2369 2891 
Q 2369 2916 2380 2933 
Q 2391 2950 2422 2964 
Q 2453 2978 2501 2983 
Q 2550 2988 2628 2988 
Q 2703 2988 2753 2983 
Q 2803 2978 2831 2964 
Q 2859 2950 2873 2933 
Q 2888 2916 2888 2891 
L 2888 78 
z
" transform="scale(0.015625)"/>
       <path id="Calibri-6c" d="M 994 78 
Q 994 53 981 36 
Q 969 19 941 6 
Q 913 -6 863 -12 
Q 813 -19 734 -19 
Q 659 -19 609 -12 
Q 559 -6 529 6 
Q 500 19 489 36 
Q 478 53 478 78 
L 478 4253 
Q 478 4278 489 4297 
Q 500 4316 529 4328 
Q 559 4341 609 4347 
Q 659 4353 734 4353 
Q 813 4353 863 4347 
Q 913 4341 941 4328 
Q 969 4316 981 4297 
Q 994 4278 994 4253 
L 994 78 
z
" transform="scale(0.015625)"/>
      </defs>
      <use xlink:href="#Calibri-53"/>
      <use xlink:href="#Calibri-68" x="45.947266"/>
      <use xlink:href="#Calibri-61" x="98.486328"/>
      <use xlink:href="#Calibri-72" x="146.386719"/>
      <use xlink:href="#Calibri-65" x="181.25"/>
      <use xlink:href="#Calibri-20" x="231.005859"/>
      <use xlink:href="#Calibri-6f" x="253.613281"/>
      <use xlink:href="#Calibri-66" x="306.347656"/>
      <use xlink:href="#Calibri-20" x="336.865234"/>
      <use xlink:href="#Calibri-4e" x="359.472656"/>
      <use xlink:href="#Calibri-6f" x="424.023438"/>
      <use xlink:href="#Calibri-6e" x="476.757812"/>
      <use xlink:href="#Calibri-2d" x="529.296875"/>
      <use xlink:href="#Calibri-57" x="559.912109"/>
      <use xlink:href="#Calibri-68" x="648.876953"/>
      <use xlink:href="#Calibri-69" x="701.416016"/>
      <use xlink:href="#Calibri-74" x="724.365234"/>
      <use xlink:href="#Calibri-65" x="757.861328"/>
      <use xlink:href="#Calibri-20" x="807.617188"/>
      <use xlink:href="#Calibri-50" x="830.224609"/>
      <use xlink:href="#Calibri-6f" x="881.884766"/>
      <use xlink:href="#Calibri-70" x="934.619141"/>
      <use xlink:href="#Calibri-75" x="987.158203"/>
      <use xlink:href="#Calibri-6c" x="1039.697266"/>
      <use xlink:href="#Calibri-61" x="1062.646484"/>
      <use xlink:href="#Calibri-74" x="1110.546875"/>
      <use xlink:href="#Calibri-69" x="1144.042969"/>
      <use xlink:href="#Calibri-6f" x="1166.992188"/>
      <use xlink:href="#Calibri-6e" x="1219.726562"/>
     </g>
    </g>
   </g>
   <g id="patch_3">
    <path d="M 438.629217 54.792204 
L 514.275745 54.792204 
Q 537.915285 54.792204 537.915285 54.441962 
L 537.915285 51.669756 
Q 537.915285 51.319514 514.275745 51.319514 
L 438.629217 51.319514 
Q 414.989676 51.319514 414.989676 51.669756 
L 414.989676 54.441962 
Q 414.989676 54.792204 438.629217 54.792204 
z
" clip-path="url(#pf4e6c7d3f0)" style="fill: #0c2428"/>
   </g>
   <g id="patch_4">
    <path d="M 281.032283 59.00842 
L 356.678811 59.00842 
Q 380.318351 59.00842 380.318351 58.658178 
L 380.318351 51.669756 
Q 380.318351 51.319514 356.678811 51.319514 
L 281.032283 51.319514 
Q 257.392743 51.319514 257.392743 51.669756 
L 257.392743 58.658178 
Q 257.392743 59.00842 281.032283 59.00842 
z
" clip-path="url(#pf4e6c7d3f0)" style="fill: #0c2428"/>
   </g>
   <g id="patch_5">
    <path d="M 123.435349 69.338271 
L 199.081877 69.338271 
Q 222.721417 69.338271 222.721417 68.988029 
L 222.721417 51.669756 
Q 222.721417 51.319514 199.081877 51.319514 
L 123.435349 51.319514 
Q 99.795809 51.319514 99.795809 51.669756 
L 99.795809 68.988029 
Q 99.795809 69.338271 123.435349 69.338271 
z
" clip-path="url(#pf4e6c7d3f0)" style="fill: #0c2428"/>
   </g>
   <g id="patch_6">
    <path d="M 438.629217 63.76649 
L 514.275745 63.76649 
Q 537.915285 63.76649 537.915285 63.416248 
L 537.915285 55.422639 
Q 537.915285 55.072398 514.275745 55.072398 
L 438.629217 55.072398 
Q 414.989676 55.072398 414.989676 55.422639 
L 414.989676 63.416248 
Q 414.989676 63.76649 438.629217 63.76649 
z
" clip-path="url(#pf4e6c7d3f0)" style="fill: #92c83e"/>
   </g>
   <g id="patch_7">
    <path d="M 281.032283 78.532713 
L 356.678811 78.532713 
Q 380.318351 78.532713 380.318351 78.182471 
L 380.318351 59.638855 
Q 380.318351 59.288613 356.678811 59.288613 
L 281.032283 59.288613 
Q 257.392743 59.288613 257.392743 59.638855 
L 257.392743 78.182471 
Q 257.392743 78.532713 281.032283 78.532713 
z
" clip-path="url(#pf4e6c7d3f0)" style="fill: #92c83e"/>
   </g>
   <g id="patch_8">
    <path d="M 123.435349 94.224843 
L 199.081877 94.224843 
Q 222.721417 94.224843 222.721417 93.874601 
L 222.721417 69.968706 
Q 222.721417 69.618464 199.081877 69.618464 
L 123.435349 69.618464 
Q 99.795809 69.618464 99.795809 69.968706 
L 99.795809 93.874601 
Q 99.795809 94.224843 123.435349 94.224843 
z
" clip-path="url(#pf4e6c7d3f0)" style="fill: #92c83e"/>
   </g>
   <g id="patch_9">
    <path d="M 438.629217 152.530336 
L 514.275745 152.530336 
Q 537.915285 152.530336 537.915285 152.180094 
L 537.915285 64.396925 
Q 537.915285 64.046683 514.275745 64.046683 
L 438.629217 64.046683 
Q 414.989676 64.046683 414.989676 64.396925 
L 414.989676 152.180094 
Q 414.989676 152.530336 438.629217 152.530336 
z
" clip-path="url(#pf4e6c7d3f0)" style="fill: #62a67f"/>
   </g>
   <g id="patch_10">
    <path d="M 281.032283 181.732545 
L 356.678811 181.732545 
Q 380.318351 181.732545 380.318351 181.382303 
L 380.318351 79.163148 
Q 380.318351 78.812906 356.678811 78.812906 
L 281.032283 78.812906 
Q 257.392743 78.812906 257.392743 79.163148 
L 257.392743 181.382303 
Q 257.392743 181.732545 281.032283 181.732545 
z
" clip-path="url(#pf4e6c7d3f0)" style="fill: #62a67f"/>
   </g>
   <g id="patch_11">
    <path d="M 123.435349 231.100989 
L 199.081877 231.100989 
Q 222.721417 231.100989 222.721417 230.750747 
L 222.721417 94.855278 
Q 222.721417 94.505036 199.081877 94.505036 
L 123.435349 94.505036 
Q 99.795809 94.505036 99.795809 94.855278 
L 99.795809 230.750747 
Q 99.795809 231.100989 123.435349 231.100989 
z
" clip-path="url(#pf4e6c7d3f0)" style="fill: #62a67f"/>
   </g>
   <g id="patch_12">
    <path d="M 438.629217 153.998855 
L 514.275745 153.998855 
Q 537.915285 153.998855 537.915285 153.648614 
L 537.915285 153.160771 
Q 537.915285 152.810529 514.275745 152.810529 
L 438.629217 152.810529 
Q 414.989676 152.810529 414.989676 153.160771 
L 414.989676 153.648614 
Q 414.989676 153.998855 438.629217 153.998855 
z
" clip-path="url(#pf4e6c7d3f0)" style="fill: #696466"/>
   </g>
   <g id="patch_13">
    <path d="M 281.032283 184.52173 
L 356.678811 184.52173 
Q 380.318351 184.52173 380.318351 184.171488 
L 380.318351 182.362981 
Q 380.318351 182.012739 356.678811 182.012739 
L 281.032283 182.012739 
Q 257.392743 182.012739 257.392743 182.362981 
L 257.392743 184.171488 
Q 257.392743 184.52173 281.032283 184.52173 
z
" clip-path="url(#pf4e6c7d3f0)" style="fill: #696466"/>
   </g>
   <g id="patch_14">
    <path d="M 123.435349 231.832947 
L 199.081877 231.832947 
Q 222.721417 231.832947 222.721417 231.482705 
L 222.721417 231.731424 
Q 222.721417 231.381183 199.081877 231.381183 
L 123.435349 231.381183 
Q 99.795809 231.381183 99.795809 231.731424 
L 99.795809 231.482705 
Q 99.795809 231.832947 123.435349 231.832947 
z
" clip-path="url(#pf4e6c7d3f0)" style="fill: #696466"/>
   </g>
   <g id="patch_15">
    <path d="M 438.629217 208.986753 
L 514.275745 208.986753 
Q 537.915285 208.986753 537.915285 208.636511 
L 537.915285 154.629291 
Q 537.915285 154.279049 514.275745 154.279049 
L 438.629217 154.279049 
Q 414.989676 154.279049 414.989676 154.629291 
L 414.989676 208.636511 
Q 414.989676 208.986753 438.629217 208.986753 
z
" clip-path="url(#pf4e6c7d3f0)" style="fill: #d6d0d3"/>
   </g>
   <g id="patch_16">
    <path d="M 281.032283 234.727054 
L 356.678811 234.727054 
Q 380.318351 234.727054 380.318351 234.376812 
L 380.318351 185.152165 
Q 380.318351 184.801924 356.678811 184.801924 
L 281.032283 184.801924 
Q 257.392743 184.801924 257.392743 185.152165 
L 257.392743 234.376812 
Q 257.392743 234.727054 281.032283 234.727054 
z
" clip-path="url(#pf4e6c7d3f0)" style="fill: #d6d0d3"/>
   </g>
   <g id="patch_17">
    <path d="M 123.435349 253.059729 
L 199.081877 253.059729 
Q 222.721417 253.059729 222.721417 252.709487 
L 222.721417 232.463382 
Q 222.721417 232.113141 199.081877 232.113141 
L 123.435349 232.113141 
Q 99.795809 232.113141 99.795809 232.463382 
L 99.795809 252.709487 
Q 99.795809 253.059729 123.435349 253.059729 
z
" clip-path="url(#pf4e6c7d3f0)" style="fill: #d6d0d3"/>
   </g>
   <g id="patch_18">
    <path d="M 438.629217 284.533923 
L 514.275745 284.533923 
Q 537.915285 284.533923 537.915285 284.183681 
L 537.915285 209.617188 
Q 537.915285 209.266946 514.275745 209.266946 
L 438.629217 209.266946 
Q 414.989676 209.266946 414.989676 209.617188 
L 414.989676 284.183681 
Q 414.989676 284.533923 438.629217 284.533923 
z
" clip-path="url(#pf4e6c7d3f0)" style="fill: #d0dd28"/>
   </g>
   <g id="patch_19">
    <path d="M 281.032283 284.533923 
L 356.678811 284.533923 
Q 380.318351 284.533923 380.318351 284.183681 
L 380.318351 235.357489 
Q 380.318351 235.007248 356.678811 235.007248 
L 281.032283 235.007248 
Q 257.392743 235.007248 257.392743 235.357489 
L 257.392743 284.183681 
Q 257.392743 284.533923 281.032283 284.533923 
z
" clip-path="url(#pf4e6c7d3f0)" style="fill: #d0dd28"/>
   </g>
   <g id="patch_20">
    <path d="M 123.435349 284.533923 
L 199.081877 284.533923 
Q 222.721417 284.533923 222.721417 284.183681 
L 222.721417 253.690165 
Q 222.721417 253.339923 199.081877 253.339923 
L 123.435349 253.339923 
Q 99.795809 253.339923 99.795809 253.690165 
L 99.795809 284.183681 
Q 99.795809 284.533923 123.435349 284.533923 
z
" clip-path="url(#pf4e6c7d3f0)" style="fill: #d0dd28"/>
   </g>
   <g id="text_12">
    <!-- Share of Non-White Population Over Time -->
    <g style="fill: #00263e" transform="translate(164.516797 19.504687)scale(0.18 -0.18)">
     <defs>
      <path id="Calibri-4f" d="M 3925 2069 
Q 3925 1578 3809 1184 
Q 3694 791 3464 514 
Q 3234 238 2887 89 
Q 2541 -59 2078 -59 
Q 1622 -59 1289 77 
Q 956 213 739 472 
Q 522 731 415 1115 
Q 309 1500 309 2000 
Q 309 2478 425 2868 
Q 541 3259 772 3532 
Q 1003 3806 1350 3954 
Q 1697 4103 2159 4103 
Q 2606 4103 2937 3968 
Q 3269 3834 3489 3576 
Q 3709 3319 3817 2939 
Q 3925 2559 3925 2069 
z
M 3359 2031 
Q 3359 2375 3298 2670 
Q 3238 2966 3095 3183 
Q 2953 3400 2715 3522 
Q 2478 3644 2128 3644 
Q 1778 3644 1540 3512 
Q 1303 3381 1154 3162 
Q 1006 2944 942 2651 
Q 878 2359 878 2038 
Q 878 1681 937 1381 
Q 997 1081 1137 864 
Q 1278 647 1514 526 
Q 1750 406 2106 406 
Q 2459 406 2700 537 
Q 2941 669 3087 892 
Q 3234 1116 3296 1409 
Q 3359 1703 3359 2031 
z
" transform="scale(0.015625)"/>
      <path id="Calibri-76" d="M 2784 2897 
Q 2784 2884 2782 2870 
Q 2781 2856 2778 2840 
Q 2775 2825 2770 2806 
Q 2766 2788 2759 2766 
L 1800 94 
Q 1788 59 1767 37 
Q 1747 16 1706 3 
Q 1666 -9 1603 -14 
Q 1541 -19 1447 -19 
Q 1353 -19 1290 -12 
Q 1228 -6 1189 6 
Q 1150 19 1128 41 
Q 1106 63 1094 94 
L 138 2766 
Q 125 2803 117 2831 
Q 109 2859 107 2873 
Q 106 2888 106 2897 
Q 106 2922 118 2940 
Q 131 2959 161 2970 
Q 191 2981 239 2984 
Q 288 2988 359 2988 
Q 450 2988 504 2983 
Q 559 2978 589 2965 
Q 619 2953 633 2934 
Q 647 2916 659 2888 
L 1453 569 
L 1466 531 
L 1475 569 
L 2259 2888 
Q 2266 2916 2281 2934 
Q 2297 2953 2326 2965 
Q 2356 2978 2407 2983 
Q 2459 2988 2544 2988 
Q 2616 2988 2662 2984 
Q 2709 2981 2736 2968 
Q 2763 2956 2773 2939 
Q 2784 2922 2784 2897 
z
" transform="scale(0.015625)"/>
      <path id="Calibri-54" d="M 3072 3813 
Q 3072 3753 3065 3709 
Q 3059 3666 3045 3639 
Q 3031 3613 3011 3600 
Q 2991 3588 2966 3588 
L 1828 3588 
L 1828 81 
Q 1828 56 1815 37 
Q 1803 19 1772 8 
Q 1741 -3 1689 -11 
Q 1638 -19 1559 -19 
Q 1484 -19 1431 -11 
Q 1378 -3 1347 8 
Q 1316 19 1303 37 
Q 1291 56 1291 81 
L 1291 3588 
L 153 3588 
Q 128 3588 108 3600 
Q 88 3613 75 3639 
Q 63 3666 55 3709 
Q 47 3753 47 3813 
Q 47 3872 55 3917 
Q 63 3963 75 3991 
Q 88 4019 108 4031 
Q 128 4044 153 4044 
L 2966 4044 
Q 2991 4044 3011 4031 
Q 3031 4019 3045 3991 
Q 3059 3963 3065 3917 
Q 3072 3872 3072 3813 
z
" transform="scale(0.015625)"/>
      <path id="Calibri-6d" d="M 4650 78 
Q 4650 53 4637 36 
Q 4625 19 4597 6 
Q 4569 -6 4519 -12 
Q 4469 -19 4394 -19 
Q 4316 -19 4266 -12 
Q 4216 -6 4186 6 
Q 4156 19 4143 36 
Q 4131 53 4131 78 
L 4131 1788 
Q 4131 1966 4100 2112 
Q 4069 2259 4000 2365 
Q 3931 2472 3825 2528 
Q 3719 2584 3575 2584 
Q 3397 2584 3217 2446 
Q 3038 2309 2822 2044 
L 2822 78 
Q 2822 53 2809 36 
Q 2797 19 2767 6 
Q 2738 -6 2688 -12 
Q 2638 -19 2563 -19 
Q 2491 -19 2439 -12 
Q 2388 -6 2358 6 
Q 2328 19 2317 36 
Q 2306 53 2306 78 
L 2306 1788 
Q 2306 1966 2272 2112 
Q 2238 2259 2169 2365 
Q 2100 2472 1995 2528 
Q 1891 2584 1747 2584 
Q 1569 2584 1387 2446 
Q 1206 2309 994 2044 
L 994 78 
Q 994 53 981 36 
Q 969 19 941 6 
Q 913 -6 863 -12 
Q 813 -19 734 -19 
Q 659 -19 609 -12 
Q 559 -6 529 6 
Q 500 19 489 36 
Q 478 53 478 78 
L 478 2891 
Q 478 2916 487 2933 
Q 497 2950 525 2964 
Q 553 2978 597 2983 
Q 641 2988 713 2988 
Q 781 2988 826 2983 
Q 872 2978 897 2964 
Q 922 2950 933 2933 
Q 944 2916 944 2891 
L 944 2519 
Q 1181 2784 1404 2907 
Q 1628 3031 1856 3031 
Q 2031 3031 2170 2990 
Q 2309 2950 2415 2876 
Q 2522 2803 2597 2701 
Q 2672 2600 2722 2475 
Q 2863 2628 2989 2734 
Q 3116 2841 3233 2906 
Q 3350 2972 3461 3001 
Q 3572 3031 3684 3031 
Q 3956 3031 4140 2936 
Q 4325 2841 4439 2681 
Q 4553 2522 4601 2308 
Q 4650 2094 4650 1856 
L 4650 78 
z
" transform="scale(0.015625)"/>
     </defs>
     <use xlink:href="#Calibri-53"/>
     <use xlink:href="#Calibri-68" x="45.947266"/>
     <use xlink:href="#Calibri-61" x="98.486328"/>
     <use xlink:href="#Calibri-72" x="146.386719"/>
     <use xlink:href="#Calibri-65" x="181.25"/>
     <use xlink:href="#Calibri-20" x="231.005859"/>
     <use xlink:href="#Calibri-6f" x="253.613281"/>
     <use xlink:href="#Calibri-66" x="306.347656"/>
     <use xlink:href="#Calibri-20" x="336.865234"/>
     <use xlink:href="#Calibri-4e" x="359.472656"/>
     <use xlink:href="#Calibri-6f" x="424.023438"/>
     <use xlink:href="#Calibri-6e" x="476.757812"/>
     <use xlink:href="#Calibri-2d" x="529.296875"/>
     <use xlink:href="#Calibri-57" x="559.912109"/>
     <use xlink:href="#Calibri-68" x="648.876953"/>
     <use xlink:href="#Calibri-69" x="701.416016"/>
     <use xlink:href="#Calibri-74" x="724.365234"/>
     <use xlink:href="#Calibri-65" x="757.861328"/>
     <use xlink:href="#Calibri-20" x="807.617188"/>
     <use xlink:href="#Calibri-50" x="830.224609"/>
     <use xlink:href="#Calibri-6f" x="881.884766"/>
     <use xlink:href="#Calibri-70" x="934.619141"/>
     <use xlink:href="#Calibri-75" x="987.158203"/>
     <use xlink:href="#Calibri-6c" x="1039.697266"/>
     <use xlink:href="#Calibri-61" x="1062.646484"/>
     <use xlink:href="#Calibri-74" x="1110.546875"/>
     <use xlink:href="#Calibri-69" x="1144.042969"/>
     <use xlink:href="#Calibri-6f" x="1166.992188"/>
     <use xlink:href="#Calibri-6e" x="1219.726562"/>
     <use xlink:href="#Calibri-20" x="1272.265625"/>
     <use xlink:href="#Calibri-4f" x="1294.873047"/>
     <use xlink:href="#Calibri-76" x="1361.083984"/>
     <use xlink:href="#Calibri-65" x="1406.25"/>
     <use xlink:href="#Calibri-72" x="1456.005859"/>
     <use xlink:href="#Calibri-20" x="1490.869141"/>
     <use xlink:href="#Calibri-54" x="1513.476562"/>
     <use xlink:href="#Calibri-69" x="1562.207031"/>
     <use xlink:href="#Calibri-6d" x="1585.15625"/>
     <use xlink:href="#Calibri-65" x="1665.039062"/>
    </g>
   </g>
   <g id="legend_1">
    <g id="patch_21">
     <path d="M 554.985945 63.331375 
L 576.985945 63.331375 
L 576.985945 55.631375 
L 554.985945 55.631375 
z
" style="fill: #0c2428"/>
    </g>
    <g id="text_13">
     <!-- American Indian or -->
     <g style="fill: #00263e" transform="translate(585.785945 56.886406)scale(0.11 -0.11)">
      <defs>
       <path id="Calibri-41" d="M 3566 191 
Q 3591 122 3592 80 
Q 3594 38 3569 16 
Q 3544 -6 3486 -12 
Q 3428 -19 3331 -19 
Q 3234 -19 3176 -14 
Q 3119 -9 3089 2 
Q 3059 13 3045 31 
Q 3031 50 3019 78 
L 2672 1063 
L 991 1063 
L 659 91 
Q 650 63 634 42 
Q 619 22 589 8 
Q 559 -6 504 -12 
Q 450 -19 363 -19 
Q 272 -19 214 -11 
Q 156 -3 132 19 
Q 109 41 111 83 
Q 113 125 138 194 
L 1494 3950 
Q 1506 3984 1526 4006 
Q 1547 4028 1586 4040 
Q 1625 4053 1686 4058 
Q 1747 4063 1841 4063 
Q 1941 4063 2006 4058 
Q 2072 4053 2112 4040 
Q 2153 4028 2175 4004 
Q 2197 3981 2209 3947 
L 3566 191 
z
M 1825 3506 
L 1822 3506 
L 1125 1491 
L 2531 1491 
L 1825 3506 
z
" transform="scale(0.015625)"/>
       <path id="Calibri-63" d="M 2500 506 
Q 2500 453 2497 414 
Q 2494 375 2486 348 
Q 2478 322 2467 301 
Q 2456 281 2417 242 
Q 2378 203 2284 145 
Q 2191 88 2073 42 
Q 1956 -3 1818 -31 
Q 1681 -59 1534 -59 
Q 1231 -59 997 41 
Q 763 141 605 333 
Q 447 525 364 804 
Q 281 1084 281 1450 
Q 281 1866 382 2164 
Q 484 2463 661 2653 
Q 838 2844 1077 2936 
Q 1316 3028 1594 3028 
Q 1728 3028 1854 3003 
Q 1981 2978 2087 2937 
Q 2194 2897 2276 2844 
Q 2359 2791 2396 2753 
Q 2434 2716 2448 2694 
Q 2463 2672 2472 2642 
Q 2481 2613 2484 2575 
Q 2488 2538 2488 2481 
Q 2488 2359 2459 2311 
Q 2431 2263 2391 2263 
Q 2344 2263 2283 2314 
Q 2222 2366 2128 2428 
Q 2034 2491 1901 2542 
Q 1769 2594 1588 2594 
Q 1216 2594 1017 2308 
Q 819 2022 819 1478 
Q 819 1206 870 1001 
Q 922 797 1022 659 
Q 1122 522 1267 455 
Q 1413 388 1600 388 
Q 1778 388 1912 444 
Q 2047 500 2145 567 
Q 2244 634 2311 689 
Q 2378 744 2416 744 
Q 2438 744 2453 731 
Q 2469 719 2480 689 
Q 2491 659 2495 614 
Q 2500 569 2500 506 
z
" transform="scale(0.015625)"/>
       <path id="Calibri-49" d="M 1075 81 
Q 1075 56 1062 37 
Q 1050 19 1019 8 
Q 988 -3 936 -11 
Q 884 -19 806 -19 
Q 731 -19 678 -11 
Q 625 -3 594 8 
Q 563 19 550 37 
Q 538 56 538 81 
L 538 3963 
Q 538 3988 552 4006 
Q 566 4025 598 4036 
Q 631 4047 682 4055 
Q 734 4063 806 4063 
Q 884 4063 936 4055 
Q 988 4047 1019 4036 
Q 1050 4025 1062 4006 
Q 1075 3988 1075 3963 
L 1075 81 
z
" transform="scale(0.015625)"/>
       <path id="Calibri-64" d="M 2888 78 
Q 2888 53 2877 34 
Q 2866 16 2839 5 
Q 2813 -6 2769 -12 
Q 2725 -19 2663 -19 
Q 2597 -19 2553 -12 
Q 2509 -6 2481 5 
Q 2453 16 2440 34 
Q 2428 53 2428 78 
L 2428 450 
Q 2206 209 1967 75 
Q 1728 -59 1444 -59 
Q 1134 -59 915 61 
Q 697 181 561 386 
Q 425 591 362 867 
Q 300 1144 300 1450 
Q 300 1813 378 2105 
Q 456 2397 609 2603 
Q 763 2809 989 2920 
Q 1216 3031 1513 3031 
Q 1759 3031 1964 2923 
Q 2169 2816 2369 2606 
L 2369 4241 
Q 2369 4263 2380 4283 
Q 2391 4303 2422 4314 
Q 2453 4325 2501 4333 
Q 2550 4341 2625 4341 
Q 2703 4341 2753 4333 
Q 2803 4325 2831 4314 
Q 2859 4303 2873 4283 
Q 2888 4263 2888 4241 
L 2888 78 
z
M 2369 2056 
Q 2159 2316 1964 2452 
Q 1769 2588 1556 2588 
Q 1359 2588 1221 2494 
Q 1084 2400 998 2247 
Q 913 2094 873 1900 
Q 834 1706 834 1506 
Q 834 1294 867 1091 
Q 900 888 981 730 
Q 1063 572 1197 476 
Q 1331 381 1534 381 
Q 1638 381 1733 409 
Q 1828 438 1928 503 
Q 2028 569 2137 673 
Q 2247 778 2369 931 
L 2369 2056 
z
" transform="scale(0.015625)"/>
      </defs>
      <use xlink:href="#Calibri-41"/>
      <use xlink:href="#Calibri-6d" x="57.861328"/>
      <use xlink:href="#Calibri-65" x="137.744141"/>
      <use xlink:href="#Calibri-72" x="187.5"/>
      <use xlink:href="#Calibri-69" x="222.363281"/>
      <use xlink:href="#Calibri-63" x="245.3125"/>
      <use xlink:href="#Calibri-61" x="287.597656"/>
      <use xlink:href="#Calibri-6e" x="335.498047"/>
      <use xlink:href="#Calibri-20" x="388.037109"/>
      <use xlink:href="#Calibri-49" x="410.644531"/>
      <use xlink:href="#Calibri-6e" x="435.839844"/>
      <use xlink:href="#Calibri-64" x="488.378906"/>
      <use xlink:href="#Calibri-69" x="540.917969"/>
      <use xlink:href="#Calibri-61" x="563.867188"/>
      <use xlink:href="#Calibri-6e" x="611.767578"/>
      <use xlink:href="#Calibri-20" x="664.306641"/>
      <use xlink:href="#Calibri-6f" x="686.914062"/>
      <use xlink:href="#Calibri-72" x="739.648438"/>
     </g>
     <!-- Alaska Native Alone -->
     <g style="fill: #00263e" transform="translate(585.785945 67.820406)scale(0.11 -0.11)">
      <defs>
       <path id="Calibri-73" d="M 2244 844 
Q 2244 628 2164 459 
Q 2084 291 1937 175 
Q 1791 59 1587 0 
Q 1384 -59 1141 -59 
Q 991 -59 855 -36 
Q 719 -13 611 23 
Q 503 59 428 98 
Q 353 138 318 169 
Q 284 200 268 256 
Q 253 313 253 409 
Q 253 469 259 509 
Q 266 550 275 575 
Q 284 600 301 611 
Q 319 622 341 622 
Q 375 622 442 580 
Q 509 538 607 488 
Q 706 438 840 395 
Q 975 353 1150 353 
Q 1281 353 1387 381 
Q 1494 409 1572 464 
Q 1650 519 1692 603 
Q 1734 688 1734 803 
Q 1734 922 1673 1003 
Q 1613 1084 1513 1146 
Q 1413 1209 1288 1257 
Q 1163 1306 1030 1359 
Q 897 1413 770 1480 
Q 644 1547 544 1644 
Q 444 1741 383 1875 
Q 322 2009 322 2197 
Q 322 2363 386 2514 
Q 450 2666 578 2780 
Q 706 2894 898 2962 
Q 1091 3031 1347 3031 
Q 1459 3031 1571 3012 
Q 1684 2994 1775 2966 
Q 1866 2938 1930 2905 
Q 1994 2872 2026 2847 
Q 2059 2822 2070 2803 
Q 2081 2784 2086 2761 
Q 2091 2738 2095 2703 
Q 2100 2669 2100 2619 
Q 2100 2566 2095 2527 
Q 2091 2488 2080 2463 
Q 2069 2438 2053 2427 
Q 2038 2416 2019 2416 
Q 1991 2416 1937 2450 
Q 1884 2484 1800 2523 
Q 1716 2563 1602 2597 
Q 1488 2631 1341 2631 
Q 1209 2631 1109 2601 
Q 1009 2572 945 2517 
Q 881 2463 848 2388 
Q 816 2313 816 2225 
Q 816 2103 878 2020 
Q 941 1938 1041 1875 
Q 1141 1813 1269 1763 
Q 1397 1713 1530 1659 
Q 1663 1606 1792 1540 
Q 1922 1475 2022 1381 
Q 2122 1288 2183 1156 
Q 2244 1025 2244 844 
z
" transform="scale(0.015625)"/>
       <path id="Calibri-6b" d="M 2788 81 
Q 2788 56 2775 37 
Q 2763 19 2733 6 
Q 2703 -6 2650 -12 
Q 2597 -19 2516 -19 
Q 2431 -19 2376 -14 
Q 2322 -9 2284 2 
Q 2247 13 2223 33 
Q 2200 53 2181 81 
L 994 1638 
L 994 78 
Q 994 53 981 36 
Q 969 19 941 6 
Q 913 -6 863 -12 
Q 813 -19 734 -19 
Q 659 -19 609 -12 
Q 559 -6 529 6 
Q 500 19 489 36 
Q 478 53 478 78 
L 478 4253 
Q 478 4278 489 4297 
Q 500 4316 529 4328 
Q 559 4341 609 4347 
Q 659 4353 734 4353 
Q 813 4353 863 4347 
Q 913 4341 941 4328 
Q 969 4316 981 4297 
Q 994 4278 994 4253 
L 994 1709 
L 2056 2878 
Q 2081 2909 2109 2929 
Q 2138 2950 2177 2964 
Q 2216 2978 2269 2983 
Q 2322 2988 2397 2988 
Q 2475 2988 2528 2983 
Q 2581 2978 2614 2967 
Q 2647 2956 2661 2939 
Q 2675 2922 2675 2894 
Q 2675 2856 2654 2818 
Q 2634 2781 2588 2731 
L 1569 1713 
L 2713 228 
Q 2753 175 2770 142 
Q 2788 109 2788 81 
z
" transform="scale(0.015625)"/>
      </defs>
      <use xlink:href="#Calibri-41"/>
      <use xlink:href="#Calibri-6c" x="57.861328"/>
      <use xlink:href="#Calibri-61" x="80.810547"/>
      <use xlink:href="#Calibri-73" x="128.710938"/>
      <use xlink:href="#Calibri-6b" x="167.822266"/>
      <use xlink:href="#Calibri-61" x="213.28125"/>
      <use xlink:href="#Calibri-20" x="261.181641"/>
      <use xlink:href="#Calibri-4e" x="283.789062"/>
      <use xlink:href="#Calibri-61" x="348.339844"/>
      <use xlink:href="#Calibri-74" x="396.240234"/>
      <use xlink:href="#Calibri-69" x="429.736328"/>
      <use xlink:href="#Calibri-76" x="452.685547"/>
      <use xlink:href="#Calibri-65" x="497.851562"/>
      <use xlink:href="#Calibri-20" x="547.607422"/>
      <use xlink:href="#Calibri-41" x="570.214844"/>
      <use xlink:href="#Calibri-6c" x="628.076172"/>
      <use xlink:href="#Calibri-6f" x="651.025391"/>
      <use xlink:href="#Calibri-6e" x="703.759766"/>
      <use xlink:href="#Calibri-65" x="756.298828"/>
     </g>
    </g>
    <g id="patch_22">
     <path d="M 554.985945 82.976344 
L 576.985945 82.976344 
L 576.985945 75.276344 
L 554.985945 75.276344 
z
" style="fill: #92c83e"/>
    </g>
    <g id="text_14">
     <!-- Asian Alone -->
     <g style="fill: #00263e" transform="translate(585.785945 82.976344)scale(0.11 -0.11)">
      <use xlink:href="#Calibri-41"/>
      <use xlink:href="#Calibri-73" x="57.861328"/>
      <use xlink:href="#Calibri-69" x="96.972656"/>
      <use xlink:href="#Calibri-61" x="119.921875"/>
      <use xlink:href="#Calibri-6e" x="167.822266"/>
      <use xlink:href="#Calibri-20" x="220.361328"/>
      <use xlink:href="#Calibri-41" x="242.96875"/>
      <use xlink:href="#Calibri-6c" x="300.830078"/>
      <use xlink:href="#Calibri-6f" x="323.779297"/>
      <use xlink:href="#Calibri-6e" x="376.513672"/>
      <use xlink:href="#Calibri-65" x="429.052734"/>
     </g>
    </g>
    <g id="patch_23">
     <path d="M 554.985945 104.358969 
L 576.985945 104.358969 
L 576.985945 96.658969 
L 554.985945 96.658969 
z
" style="fill: #62a67f"/>
    </g>
    <g id="text_15">
     <!-- Black or African -->
     <g style="fill: #00263e" transform="translate(585.785945 97.914)scale(0.11 -0.11)">
      <defs>
       <path id="Calibri-42" d="M 3203 1159 
Q 3203 969 3154 808 
Q 3106 647 3018 519 
Q 2931 391 2807 294 
Q 2684 197 2529 131 
Q 2375 66 2198 33 
Q 2022 0 1794 0 
L 738 0 
Q 666 0 602 48 
Q 538 97 538 219 
L 538 3825 
Q 538 3947 602 3995 
Q 666 4044 738 4044 
L 1656 4044 
Q 2019 4044 2250 3975 
Q 2481 3906 2636 3775 
Q 2791 3644 2869 3453 
Q 2947 3263 2947 3022 
Q 2947 2878 2912 2747 
Q 2878 2616 2811 2505 
Q 2744 2394 2642 2306 
Q 2541 2219 2409 2163 
Q 2575 2131 2719 2048 
Q 2863 1966 2970 1837 
Q 3078 1709 3140 1537 
Q 3203 1366 3203 1159 
z
M 2394 2969 
Q 2394 3116 2353 3234 
Q 2313 3353 2225 3436 
Q 2138 3519 1997 3562 
Q 1856 3606 1625 3606 
L 1069 3606 
L 1069 2297 
L 1681 2297 
Q 1891 2297 2019 2351 
Q 2147 2406 2231 2498 
Q 2316 2591 2355 2714 
Q 2394 2838 2394 2969 
z
M 2638 1128 
Q 2638 1309 2580 1446 
Q 2522 1584 2411 1678 
Q 2300 1772 2133 1820 
Q 1966 1869 1713 1869 
L 1069 1869 
L 1069 444 
L 1850 444 
Q 2034 444 2171 487 
Q 2309 531 2414 617 
Q 2519 703 2578 831 
Q 2638 959 2638 1128 
z
" transform="scale(0.015625)"/>
      </defs>
      <use xlink:href="#Calibri-42"/>
      <use xlink:href="#Calibri-6c" x="54.394531"/>
      <use xlink:href="#Calibri-61" x="77.34375"/>
      <use xlink:href="#Calibri-63" x="125.244141"/>
      <use xlink:href="#Calibri-6b" x="167.529297"/>
      <use xlink:href="#Calibri-20" x="212.988281"/>
      <use xlink:href="#Calibri-6f" x="235.595703"/>
      <use xlink:href="#Calibri-72" x="288.330078"/>
      <use xlink:href="#Calibri-20" x="323.193359"/>
      <use xlink:href="#Calibri-41" x="345.800781"/>
      <use xlink:href="#Calibri-66" x="403.662109"/>
      <use xlink:href="#Calibri-72" x="434.179688"/>
      <use xlink:href="#Calibri-69" x="469.042969"/>
      <use xlink:href="#Calibri-63" x="491.992188"/>
      <use xlink:href="#Calibri-61" x="534.277344"/>
      <use xlink:href="#Calibri-6e" x="582.177734"/>
     </g>
     <!-- American Alone -->
     <g style="fill: #00263e" transform="translate(585.785945 108.848)scale(0.11 -0.11)">
      <use xlink:href="#Calibri-41"/>
      <use xlink:href="#Calibri-6d" x="57.861328"/>
      <use xlink:href="#Calibri-65" x="137.744141"/>
      <use xlink:href="#Calibri-72" x="187.5"/>
      <use xlink:href="#Calibri-69" x="222.363281"/>
      <use xlink:href="#Calibri-63" x="245.3125"/>
      <use xlink:href="#Calibri-61" x="287.597656"/>
      <use xlink:href="#Calibri-6e" x="335.498047"/>
      <use xlink:href="#Calibri-20" x="388.037109"/>
      <use xlink:href="#Calibri-41" x="410.644531"/>
      <use xlink:href="#Calibri-6c" x="468.505859"/>
      <use xlink:href="#Calibri-6f" x="491.455078"/>
      <use xlink:href="#Calibri-6e" x="544.189453"/>
      <use xlink:href="#Calibri-65" x="596.728516"/>
     </g>
    </g>
    <g id="patch_24">
     <path d="M 554.985945 130.230625 
L 576.985945 130.230625 
L 576.985945 122.530625 
L 554.985945 122.530625 
z
" style="fill: #696466"/>
    </g>
    <g id="text_16">
     <!-- Native Hawaiian or Other  -->
     <g style="fill: #00263e" transform="translate(585.785945 123.785656)scale(0.11 -0.11)">
      <defs>
       <path id="Calibri-48" d="M 3450 81 
Q 3450 56 3437 37 
Q 3425 19 3394 8 
Q 3363 -3 3311 -11 
Q 3259 -19 3184 -19 
Q 3103 -19 3053 -11 
Q 3003 -3 2972 8 
Q 2941 19 2928 37 
Q 2916 56 2916 81 
L 2916 1875 
L 1075 1875 
L 1075 81 
Q 1075 56 1062 37 
Q 1050 19 1019 8 
Q 988 -3 936 -11 
Q 884 -19 806 -19 
Q 731 -19 678 -11 
Q 625 -3 594 8 
Q 563 19 550 37 
Q 538 56 538 81 
L 538 3963 
Q 538 3988 550 4006 
Q 563 4025 594 4036 
Q 625 4047 678 4055 
Q 731 4063 806 4063 
Q 884 4063 936 4055 
Q 988 4047 1019 4036 
Q 1050 4025 1062 4006 
Q 1075 3988 1075 3963 
L 1075 2344 
L 2916 2344 
L 2916 3963 
Q 2916 3988 2928 4006 
Q 2941 4025 2972 4036 
Q 3003 4047 3053 4055 
Q 3103 4063 3184 4063 
Q 3259 4063 3311 4055 
Q 3363 4047 3394 4036 
Q 3425 4025 3437 4006 
Q 3450 3988 3450 3963 
L 3450 81 
z
" transform="scale(0.015625)"/>
       <path id="Calibri-77" d="M 4413 2897 
Q 4413 2875 4406 2844 
Q 4400 2813 4384 2766 
L 3556 94 
Q 3547 59 3526 37 
Q 3506 16 3470 3 
Q 3434 -9 3371 -14 
Q 3309 -19 3216 -19 
Q 3119 -19 3053 -12 
Q 2988 -6 2948 6 
Q 2909 19 2890 41 
Q 2872 63 2863 94 
L 2272 2134 
L 2266 2163 
L 2259 2134 
L 1713 94 
Q 1703 59 1683 37 
Q 1663 16 1622 3 
Q 1581 -9 1517 -14 
Q 1453 -19 1359 -19 
Q 1263 -19 1202 -12 
Q 1141 -6 1102 6 
Q 1063 19 1044 41 
Q 1025 63 1016 94 
L 194 2766 
Q 178 2813 172 2844 
Q 166 2875 166 2897 
Q 166 2925 178 2942 
Q 191 2959 220 2970 
Q 250 2981 300 2984 
Q 350 2988 422 2988 
Q 509 2988 562 2983 
Q 616 2978 644 2967 
Q 672 2956 684 2936 
Q 697 2916 706 2888 
L 1384 569 
L 1391 541 
L 1397 569 
L 2019 2888 
Q 2025 2916 2039 2936 
Q 2053 2956 2081 2967 
Q 2109 2978 2157 2983 
Q 2206 2988 2284 2988 
Q 2359 2988 2407 2983 
Q 2456 2978 2484 2967 
Q 2513 2956 2525 2937 
Q 2538 2919 2544 2894 
L 3216 569 
L 3222 541 
L 3225 569 
L 3894 2888 
Q 3900 2916 3914 2936 
Q 3928 2956 3958 2967 
Q 3988 2978 4039 2983 
Q 4091 2988 4172 2988 
Q 4247 2988 4292 2984 
Q 4338 2981 4364 2968 
Q 4391 2956 4402 2940 
Q 4413 2925 4413 2897 
z
" transform="scale(0.015625)"/>
      </defs>
      <use xlink:href="#Calibri-4e"/>
      <use xlink:href="#Calibri-61" x="64.550781"/>
      <use xlink:href="#Calibri-74" x="112.451172"/>
      <use xlink:href="#Calibri-69" x="145.947266"/>
      <use xlink:href="#Calibri-76" x="168.896484"/>
      <use xlink:href="#Calibri-65" x="214.0625"/>
      <use xlink:href="#Calibri-20" x="263.818359"/>
      <use xlink:href="#Calibri-48" x="286.425781"/>
      <use xlink:href="#Calibri-61" x="348.730469"/>
      <use xlink:href="#Calibri-77" x="396.630859"/>
      <use xlink:href="#Calibri-61" x="468.115234"/>
      <use xlink:href="#Calibri-69" x="516.015625"/>
      <use xlink:href="#Calibri-69" x="538.964844"/>
      <use xlink:href="#Calibri-61" x="561.914062"/>
      <use xlink:href="#Calibri-6e" x="609.814453"/>
      <use xlink:href="#Calibri-20" x="662.353516"/>
      <use xlink:href="#Calibri-6f" x="684.960938"/>
      <use xlink:href="#Calibri-72" x="737.695312"/>
      <use xlink:href="#Calibri-20" x="772.558594"/>
      <use xlink:href="#Calibri-4f" x="795.166016"/>
      <use xlink:href="#Calibri-74" x="861.376953"/>
      <use xlink:href="#Calibri-68" x="894.873047"/>
      <use xlink:href="#Calibri-65" x="947.412109"/>
      <use xlink:href="#Calibri-72" x="997.167969"/>
      <use xlink:href="#Calibri-20" x="1032.03125"/>
     </g>
     <!-- Pacific Islander Alone -->
     <g style="fill: #00263e" transform="translate(585.785945 134.719656)scale(0.11 -0.11)">
      <use xlink:href="#Calibri-50"/>
      <use xlink:href="#Calibri-61" x="51.660156"/>
      <use xlink:href="#Calibri-63" x="99.560547"/>
      <use xlink:href="#Calibri-69" x="141.845703"/>
      <use xlink:href="#Calibri-66" x="164.794922"/>
      <use xlink:href="#Calibri-69" x="195.3125"/>
      <use xlink:href="#Calibri-63" x="218.261719"/>
      <use xlink:href="#Calibri-20" x="260.546875"/>
      <use xlink:href="#Calibri-49" x="283.154297"/>
      <use xlink:href="#Calibri-73" x="308.349609"/>
      <use xlink:href="#Calibri-6c" x="347.460938"/>
      <use xlink:href="#Calibri-61" x="370.410156"/>
      <use xlink:href="#Calibri-6e" x="418.310547"/>
      <use xlink:href="#Calibri-64" x="470.849609"/>
      <use xlink:href="#Calibri-65" x="523.388672"/>
      <use xlink:href="#Calibri-72" x="573.144531"/>
      <use xlink:href="#Calibri-20" x="608.007812"/>
      <use xlink:href="#Calibri-41" x="630.615234"/>
      <use xlink:href="#Calibri-6c" x="688.476562"/>
      <use xlink:href="#Calibri-6f" x="711.425781"/>
      <use xlink:href="#Calibri-6e" x="764.160156"/>
      <use xlink:href="#Calibri-65" x="816.699219"/>
     </g>
    </g>
    <g id="patch_25">
     <path d="M 554.985945 149.875594 
L 576.985945 149.875594 
L 576.985945 142.175594 
L 554.985945 142.175594 
z
" style="fill: #d6d0d3"/>
    </g>
    <g id="text_17">
     <!-- Some Other Race Alone -->
     <g style="fill: #00263e" transform="translate(585.785945 149.875594)scale(0.11 -0.11)">
      <defs>
       <path id="Calibri-52" d="M 3234 81 
Q 3234 56 3225 37 
Q 3216 19 3184 6 
Q 3153 -6 3097 -12 
Q 3041 -19 2947 -19 
Q 2866 -19 2814 -12 
Q 2763 -6 2731 8 
Q 2700 22 2683 47 
Q 2666 72 2653 109 
L 2281 1063 
Q 2216 1225 2145 1361 
Q 2075 1497 1978 1595 
Q 1881 1694 1750 1748 
Q 1619 1803 1434 1803 
L 1075 1803 
L 1075 81 
Q 1075 56 1061 37 
Q 1047 19 1017 8 
Q 988 -3 936 -11 
Q 884 -19 806 -19 
Q 728 -19 676 -11 
Q 625 -3 594 8 
Q 563 19 550 37 
Q 538 56 538 81 
L 538 3825 
Q 538 3947 602 3995 
Q 666 4044 738 4044 
L 1597 4044 
Q 1750 4044 1851 4036 
Q 1953 4028 2034 4019 
Q 2269 3978 2448 3890 
Q 2628 3803 2750 3668 
Q 2872 3534 2933 3361 
Q 2994 3188 2994 2978 
Q 2994 2775 2939 2614 
Q 2884 2453 2781 2329 
Q 2678 2206 2534 2115 
Q 2391 2025 2213 1963 
Q 2313 1919 2394 1851 
Q 2475 1784 2545 1690 
Q 2616 1597 2678 1475 
Q 2741 1353 2803 1200 
L 3166 309 
Q 3209 197 3221 151 
Q 3234 106 3234 81 
z
M 2425 2922 
Q 2425 3159 2319 3323 
Q 2213 3488 1963 3559 
Q 1884 3581 1786 3590 
Q 1688 3600 1528 3600 
L 1075 3600 
L 1075 2238 
L 1600 2238 
Q 1813 2238 1967 2289 
Q 2122 2341 2225 2433 
Q 2328 2525 2376 2650 
Q 2425 2775 2425 2922 
z
" transform="scale(0.015625)"/>
      </defs>
      <use xlink:href="#Calibri-53"/>
      <use xlink:href="#Calibri-6f" x="45.947266"/>
      <use xlink:href="#Calibri-6d" x="98.681641"/>
      <use xlink:href="#Calibri-65" x="178.564453"/>
      <use xlink:href="#Calibri-20" x="228.320312"/>
      <use xlink:href="#Calibri-4f" x="250.927734"/>
      <use xlink:href="#Calibri-74" x="317.138672"/>
      <use xlink:href="#Calibri-68" x="350.634766"/>
      <use xlink:href="#Calibri-65" x="403.173828"/>
      <use xlink:href="#Calibri-72" x="452.929688"/>
      <use xlink:href="#Calibri-20" x="487.792969"/>
      <use xlink:href="#Calibri-52" x="510.400391"/>
      <use xlink:href="#Calibri-61" x="564.697266"/>
      <use xlink:href="#Calibri-63" x="612.597656"/>
      <use xlink:href="#Calibri-65" x="654.882812"/>
      <use xlink:href="#Calibri-20" x="704.638672"/>
      <use xlink:href="#Calibri-41" x="727.246094"/>
      <use xlink:href="#Calibri-6c" x="785.107422"/>
      <use xlink:href="#Calibri-6f" x="808.056641"/>
      <use xlink:href="#Calibri-6e" x="860.791016"/>
      <use xlink:href="#Calibri-65" x="913.330078"/>
     </g>
    </g>
    <g id="patch_26">
     <path d="M 554.985945 165.031531 
L 576.985945 165.031531 
L 576.985945 157.331531 
L 554.985945 157.331531 
z
" style="fill: #d0dd28"/>
    </g>
    <g id="text_18">
     <!-- Two or More Races -->
     <g style="fill: #00263e" transform="translate(585.785945 165.031531)scale(0.11 -0.11)">
      <defs>
       <path id="Calibri-4d" d="M 4934 81 
Q 4934 56 4921 37 
Q 4909 19 4878 8 
Q 4847 -3 4798 -11 
Q 4750 -19 4672 -19 
Q 4600 -19 4548 -11 
Q 4497 -3 4467 8 
Q 4438 19 4425 37 
Q 4413 56 4413 81 
L 4413 3603 
L 4406 3603 
L 2966 66 
Q 2956 44 2939 28 
Q 2922 13 2889 2 
Q 2856 -9 2811 -14 
Q 2766 -19 2703 -19 
Q 2638 -19 2591 -12 
Q 2544 -6 2512 5 
Q 2481 16 2464 31 
Q 2447 47 2441 66 
L 1063 3603 
L 1059 3603 
L 1059 81 
Q 1059 56 1046 37 
Q 1034 19 1003 8 
Q 972 -3 922 -11 
Q 872 -19 794 -19 
Q 719 -19 669 -11 
Q 619 -3 589 8 
Q 559 19 548 37 
Q 538 56 538 81 
L 538 3800 
Q 538 3931 606 3987 
Q 675 4044 759 4044 
L 1084 4044 
Q 1184 4044 1259 4025 
Q 1334 4006 1390 3965 
Q 1447 3925 1484 3862 
Q 1522 3800 1550 3716 
L 2722 788 
L 2738 788 
L 3956 3706 
Q 3991 3800 4031 3865 
Q 4072 3931 4120 3970 
Q 4169 4009 4228 4026 
Q 4288 4044 4366 4044 
L 4706 4044 
Q 4753 4044 4795 4030 
Q 4838 4016 4867 3986 
Q 4897 3956 4915 3911 
Q 4934 3866 4934 3800 
L 4934 81 
z
" transform="scale(0.015625)"/>
      </defs>
      <use xlink:href="#Calibri-54"/>
      <use xlink:href="#Calibri-77" x="48.730469"/>
      <use xlink:href="#Calibri-6f" x="120.214844"/>
      <use xlink:href="#Calibri-20" x="172.949219"/>
      <use xlink:href="#Calibri-6f" x="195.556641"/>
      <use xlink:href="#Calibri-72" x="248.291016"/>
      <use xlink:href="#Calibri-20" x="283.154297"/>
      <use xlink:href="#Calibri-4d" x="305.761719"/>
      <use xlink:href="#Calibri-6f" x="391.259766"/>
      <use xlink:href="#Calibri-72" x="443.994141"/>
      <use xlink:href="#Calibri-65" x="478.857422"/>
      <use xlink:href="#Calibri-20" x="528.613281"/>
      <use xlink:href="#Calibri-52" x="551.220703"/>
      <use xlink:href="#Calibri-61" x="605.517578"/>
      <use xlink:href="#Calibri-63" x="653.417969"/>
      <use xlink:href="#Calibri-65" x="695.703125"/>
      <use xlink:href="#Calibri-73" x="745.458984"/>
     </g>
    </g>
   </g>
  </g>
 </g>
 <defs>
  <clipPath id="pf4e6c7d3f0">
   <rect x="67.488438" y="39.504687" width="502.734219" height="256.844062"/>
  </clipPath>
 </defs>
</svg>
